<svg xmlns="http://www.w3.org/2000/svg" xmlns:xlink="http://www.w3.org/1999/xlink" viewBox="0 0 65 66" fill="#fff" fill-rule="evenodd" stroke="#000" stroke-linecap="round" stroke-linejoin="round"><use xlink:href="#A" x=".5" y=".5"/><symbol id="A" overflow="visible"><g stroke="none" fill-rule="nonzero"><path d="M9.086 42.633H0V64h21.267v-9.186H9.086zm45.73.1v12.08h-12.18v-.1 9.285H63.9V42.633h-9.186zM0 21.367h9.186l-.1-.1V9.186h12.18V0H0zM42.633 0v9.186h12.18v12.18h9.086V0z" fill="#446ca9"/><path d="M41.435 21.367l-12.18-12.18h13.38V0H21.267v9.186l12.18 12.18zM30.452 42.633h-7.988L32.55 52.718l1.997 2.097h-13.28v9.186h21.367v-9.285l-6.1-5.99zm24.362-21.267v13.28l-12.18-12.18v8.087l12.08 12.08H63.9V21.367zm-33.548 12.08l-12.08-12.08H0v21.267h9.086v-13.28l12.18 12.18z" fill="#76c4d5"/></g></symbol></svg>