<svg width="2000px" height="1025px"
 viewBox="0.00 0.00 1056.37 541.26" xmlns="http://www.w3.org/2000/svg" xmlns:xlink="http://www.w3.org/1999/xlink">
<g id="graph0" class="graph" transform="scale(1.0 1.0) rotate(0) translate(4 537.26)">
<title>ContextMapGraph</title>
<polygon fill="white" stroke="transparent" points="-4,4 -4,-537.26 1052.37,-537.26 1052.37,4 -4,4"/>
<!-- CustomerManagementContext -->
<g id="node1" class="node">
<title>CustomerManagementContext</title>
<polygon fill="none" stroke="black" stroke-width="2" points="12.25,-349.51 8.96,-346.74 6.17,-343.95 3.89,-341.17 2.14,-338.39 0.92,-335.62 0.25,-332.89 0.13,-330.19 0.56,-327.55 1.55,-324.96 3.09,-322.43 5.19,-319.99 7.84,-317.63 11.04,-315.36 14.77,-313.18 19.03,-311.11 23.81,-309.15 29.08,-307.3 34.84,-305.57 41.06,-303.96 47.73,-302.47 54.82,-301.1 62.31,-299.86 70.18,-298.75 78.4,-297.77 86.94,-296.91 95.77,-296.18 104.87,-295.57 114.19,-295.08 123.72,-294.71 133.42,-294.45 143.25,-294.31 153.18,-294.28 163.19,-294.36 173.24,-294.54 183.29,-294.82 193.31,-295.19 203.27,-295.66 213.15,-296.21 222.9,-296.84 232.51,-297.56 241.93,-298.36 251.15,-299.22 260.13,-300.16 268.86,-301.17 277.3,-302.24 285.44,-303.37 293.26,-304.56 300.72,-305.81 307.83,-307.11 314.55,-308.47 320.88,-309.89 326.8,-311.35 332.3,-312.86 337.37,-314.42 342,-316.03 346.18,-317.69 349.91,-319.39 353.19,-321.14 356,-322.93 358.35,-324.77 360.24,-326.64 361.67,-328.56 362.64,-330.51 363.14,-332.5 363.2,-334.52 362.81,-336.58 361.97,-338.66 360.69,-340.77 358.99,-342.91 356.86,-345.06 354.31,-347.22 351.36,-349.39 348.02,-351.57 344.28,-353.74 340.17,-355.91 335.7,-358.06 330.87,-360.19 325.69,-362.3 320.19,-364.36 314.36,-366.39 308.23,-368.37 301.81,-370.28 295.1,-372.13 288.12,-373.91 280.89,-375.6 273.43,-377.2 265.74,-378.71 257.84,-380.11 249.74,-381.39 241.48,-382.55 233.05,-383.59 224.47,-384.48 215.78,-385.24 206.98,-385.86 198.09,-386.32 189.13,-386.62 180.12,-386.77 171.09,-386.75 162.06,-386.57 153.04,-386.23 144.06,-385.72 135.14,-385.04 126.3,-384.2 117.58,-383.19 108.98,-382.03 100.54,-380.7 92.29,-379.23 84.24,-377.61 76.41,-375.85 68.85,-373.95 61.56,-371.93 54.57,-369.78 47.91,-367.53 41.6,-365.18 35.66,-362.73 30.11,-360.21 24.98,-357.61 20.28,-354.96 16.03,-352.25 12.25,-349.51"/>
<text text-anchor="middle" x="186.37" y="-334.02" font-family="sans-serif" font-size="16.00">CustomerManagementContext</text>
</g>
<!-- CustomerSelfServiceContext -->
<g id="node2" class="node">
<title>CustomerSelfServiceContext</title>
<polygon fill="none" stroke="black" stroke-width="2" points="356.35,-197.75 355.42,-200.62 354.02,-203.46 352.16,-206.26 349.85,-209.01 347.09,-211.69 343.9,-214.31 340.26,-216.83 336.21,-219.26 331.75,-221.59 326.89,-223.81 321.64,-225.91 316.02,-227.88 310.05,-229.72 303.74,-231.42 297.1,-232.98 290.17,-234.39 282.95,-235.66 275.46,-236.77 267.73,-237.73 259.78,-238.53 251.62,-239.18 243.29,-239.68 234.8,-240.03 226.18,-240.23 217.44,-240.28 208.63,-240.2 199.75,-239.97 190.84,-239.61 181.91,-239.12 173,-238.51 164.12,-237.78 155.3,-236.94 146.57,-235.99 137.95,-234.94 129.46,-233.8 121.13,-232.58 112.97,-231.27 105.02,-229.89 97.29,-228.44 89.8,-226.93 82.58,-225.37 75.64,-223.75 69.01,-222.09 62.7,-220.39 56.72,-218.65 51.11,-216.88 45.86,-215.09 41,-213.27 36.53,-211.43 32.48,-209.57 28.85,-207.7 25.65,-205.81 22.89,-203.92 20.58,-202.02 18.73,-200.11 17.33,-198.2 16.4,-196.29 15.93,-194.37 15.93,-192.45 16.4,-190.53 17.33,-188.62 18.73,-186.71 20.58,-184.8 22.89,-182.9 25.65,-181 28.85,-179.12 32.48,-177.25 36.53,-175.39 41,-173.55 45.86,-171.73 51.11,-169.94 56.72,-168.17 62.7,-166.43 69.01,-164.73 75.64,-163.07 82.58,-161.45 89.8,-159.88 97.29,-158.37 105.02,-156.93 112.97,-155.55 121.13,-154.24 129.46,-153.01 137.95,-151.88 146.57,-150.83 155.3,-149.88 164.12,-149.04 173,-148.31 181.91,-147.7 190.84,-147.21 199.75,-146.85 208.63,-146.62 217.44,-146.53 226.18,-146.59 234.8,-146.79 243.29,-147.13 251.62,-147.63 259.78,-148.29 267.73,-149.09 275.46,-150.05 282.95,-151.16 290.17,-152.42 297.1,-153.84 303.74,-155.4 310.05,-157.1 316.02,-158.94 321.64,-160.91 326.89,-163.01 331.75,-165.23 336.21,-167.56 340.26,-169.99 343.9,-172.51 347.09,-175.12 349.85,-177.81 352.16,-180.56 354.02,-183.36 355.42,-186.2 356.35,-189.07 356.82,-191.96 356.82,-194.86 356.35,-197.75"/>
<text text-anchor="middle" x="186.37" y="-189.61" font-family="sans-serif" font-size="16.00">CustomerSelfServiceContext</text>
</g>
<!-- CustomerManagementContext&#45;&gt;CustomerSelfServiceContext -->
<g id="edge1" class="edge">
<title>CustomerManagementContext&#45;&gt;CustomerSelfServiceContext</title>
<path fill="none" stroke="black" stroke-width="2" d="M186.37,-294.86C186.37,-277.47 186.37,-257.26 186.37,-239.54"/>
<text text-anchor="middle" x="236.37" y="-261.5" font-family="sans-serif" font-size="12.00">Customer/Supplier</text>
<polygon fill="white" stroke="transparent" points="180.37,-230.54 180.37,-247.54 193.37,-247.54 193.37,-230.54 180.37,-230.54"/>
<text text-anchor="start" x="182.37" y="-235.94" font-family="sans-serif" font-size="12.00">D</text>
<polygon fill="white" stroke="transparent" points="180.37,-285.86 180.37,-302.86 193.37,-302.86 193.37,-285.86 180.37,-285.86"/>
<text text-anchor="start" x="182.37" y="-291.26" font-family="sans-serif" font-size="12.00">U</text>
</g>
<!-- PolicyManagementContext -->
<g id="node3" class="node">
<title>PolicyManagementContext</title>
<polygon fill="none" stroke="black" stroke-width="2" points="590.3,-150.67 600.49,-149.91 610.73,-149.28 620.97,-148.77 631.18,-148.39 641.32,-148.14 651.34,-148.02 661.21,-148.04 670.89,-148.19 680.35,-148.48 689.56,-148.9 698.48,-149.46 707.09,-150.15 715.36,-150.97 723.26,-151.92 730.77,-152.99 737.88,-154.19 744.57,-155.51 750.82,-156.95 756.62,-158.5 761.97,-160.15 766.85,-161.91 771.27,-163.76 775.21,-165.7 778.69,-167.73 781.7,-169.83 784.25,-172 786.34,-174.23 787.99,-176.52 789.19,-178.85 789.97,-181.23 790.33,-183.63 790.28,-186.06 789.85,-188.5 789.03,-190.95 787.86,-193.41 786.34,-195.85 784.48,-198.27 782.3,-200.68 779.82,-203.05 777.04,-205.38 773.99,-207.67 770.67,-209.91 767.1,-212.09 763.28,-214.2 759.23,-216.24 754.96,-218.21 750.47,-220.1 745.78,-221.9 740.89,-223.62 735.81,-225.24 730.54,-226.76 725.09,-228.18 719.47,-229.5 713.67,-230.71 707.7,-231.81 701.57,-232.8 695.28,-233.68 688.83,-234.45 682.23,-235.11 675.48,-235.65 668.58,-236.08 661.55,-236.4 654.38,-236.6 647.09,-236.69 639.68,-236.67 632.16,-236.53 624.54,-236.29 616.83,-235.94 609.05,-235.49 601.22,-234.93 593.34,-234.27 585.43,-233.51 577.51,-232.66 569.61,-231.71 561.75,-230.67 553.94,-229.54 546.21,-228.32 538.59,-227.02 531.1,-225.64 523.78,-224.18 516.64,-222.65 509.72,-221.04 503.05,-219.37 496.66,-217.64 490.57,-215.84 484.82,-213.99 479.44,-212.08 474.45,-210.13 469.87,-208.13 465.75,-206.09 462.09,-204.01 458.94,-201.9 456.3,-199.77 454.19,-197.6 452.64,-195.42 451.66,-193.23 451.27,-191.03 451.47,-188.82 452.27,-186.62 453.67,-184.42 455.69,-182.24 458.3,-180.07 461.53,-177.92 465.34,-175.81 469.74,-173.73 474.72,-171.69 480.24,-169.7 486.3,-167.76 492.88,-165.88 499.94,-164.07 507.46,-162.32 515.41,-160.65 523.76,-159.06 532.47,-157.56 541.52,-156.15 550.85,-154.84 560.43,-153.63 570.23,-152.53 580.2,-151.54 590.3,-150.67"/>
<text text-anchor="middle" x="630.37" y="-189.61" font-family="sans-serif" font-size="16.00">PolicyManagementContext</text>
</g>
<!-- CustomerManagementContext&#45;&gt;PolicyManagementContext -->
<g id="edge2" class="edge">
<title>CustomerManagementContext&#45;&gt;PolicyManagementContext</title>
<path fill="none" stroke="black" stroke-width="2" d="M288,-303.73C331.52,-289.61 382.92,-272.98 429.37,-258.1 462.49,-247.49 498.71,-235.98 531.16,-225.7"/>
<text text-anchor="middle" x="504.87" y="-261.5" font-family="sans-serif" font-size="12.00"> &#160;&#160;&#160;&#160;&#160;&#160;&#160;&#160;&#160;&#160;&#160;&#160;&#160;&#160;&#160;&#160;&#160;&#160;&#160;&#160;&#160;&#160;&#160;&#160;&#160;&#160;&#160;&#160;&#160;&#160;&#160;&#160;&#160;&#160;&#160;&#160;&#160;&#160;&#160;</text>
<polygon fill="white" stroke="transparent" points="514.16,-215.7 514.16,-234.7 529.16,-234.7 529.16,-215.7 514.16,-215.7"/>
<polyline fill="none" stroke="black" points="529.16,-215.7 529.16,-234.7 "/>
<text text-anchor="start" x="517.16" y="-222.1" font-family="sans-serif" font-size="12.00">D</text>
<polygon fill="white" stroke="transparent" points="529.16,-215.7 529.16,-234.7 549.16,-234.7 549.16,-215.7 529.16,-215.7"/>
<polygon fill="none" stroke="black" points="529.16,-215.7 529.16,-234.7 549.16,-234.7 549.16,-215.7 529.16,-215.7"/>
<text text-anchor="start" x="532.16" y="-222.1" font-family="sans-serif" font-size="12.00">CF</text>
<polygon fill="white" stroke="transparent" points="255,-293.73 255,-312.73 270,-312.73 270,-293.73 255,-293.73"/>
<polyline fill="none" stroke="black" points="270,-293.73 270,-312.73 "/>
<text text-anchor="start" x="258" y="-300.13" font-family="sans-serif" font-size="12.00">U</text>
<polygon fill="white" stroke="transparent" points="270,-293.73 270,-312.73 321,-312.73 321,-293.73 270,-293.73"/>
<polygon fill="none" stroke="black" points="270,-293.73 270,-312.73 321,-312.73 321,-293.73 270,-293.73"/>
<text text-anchor="start" x="273" y="-300.13" font-family="sans-serif" font-size="12.00">OHS, PL</text>
</g>
<!-- DebtCollection -->
<g id="node4" class="node">
<title>DebtCollection</title>
<polygon fill="none" stroke="black" stroke-width="2" points="865.07,-30.79 867.93,-33.38 870.52,-36.01 872.81,-38.65 874.81,-41.31 876.5,-43.98 877.88,-46.63 878.93,-49.27 879.65,-51.88 880.04,-54.46 880.09,-56.99 879.8,-59.47 879.17,-61.88 878.2,-64.23 876.89,-66.5 875.25,-68.7 873.28,-70.8 870.99,-72.81 868.38,-74.73 865.47,-76.55 862.26,-78.26 858.76,-79.86 855,-81.36 850.98,-82.75 846.72,-84.03 842.23,-85.19 837.52,-86.25 832.63,-87.19 827.56,-88.02 822.34,-88.75 816.97,-89.37 811.49,-89.88 805.92,-90.28 800.26,-90.59 794.54,-90.79 788.79,-90.9 783.01,-90.92 777.24,-90.84 771.48,-90.67 765.76,-90.42 760.1,-90.08 754.5,-89.66 749,-89.16 743.61,-88.58 738.33,-87.93 733.19,-87.2 728.2,-86.4 723.37,-85.52 718.71,-84.58 714.24,-83.57 709.96,-82.5 705.89,-81.35 702.02,-80.14 698.38,-78.87 694.96,-77.53 691.76,-76.13 688.81,-74.66 686.09,-73.13 683.61,-71.54 681.37,-69.89 679.38,-68.19 677.64,-66.42 676.13,-64.59 674.88,-62.72 673.87,-60.78 673.1,-58.8 672.57,-56.77 672.28,-54.7 672.23,-52.58 672.41,-50.43 672.83,-48.24 673.47,-46.02 674.34,-43.78 675.43,-41.52 676.73,-39.24 678.26,-36.96 679.99,-34.68 681.93,-32.41 684.07,-30.15 686.42,-27.92 688.95,-25.71 691.68,-23.54 694.6,-21.42 697.7,-19.35 700.98,-17.34 704.43,-15.41 708.04,-13.55 711.82,-11.79 715.76,-10.12 719.84,-8.55 724.07,-7.1 728.43,-5.77 732.93,-4.56 737.54,-3.48 742.27,-2.55 747.11,-1.76 752.03,-1.12 757.05,-0.64 762.13,-0.31 767.28,-0.14 772.48,-0.14 777.72,-0.3 782.98,-0.63 788.26,-1.12 793.54,-1.77 798.8,-2.59 804.03,-3.56 809.21,-4.69 814.33,-5.98 819.37,-7.41 824.32,-8.98 829.16,-10.69 833.87,-12.52 838.44,-14.48 842.85,-16.54 847.08,-18.72 851.12,-20.98 854.96,-23.33 858.57,-25.76 861.94,-28.25 865.07,-30.79"/>
<text text-anchor="middle" x="771.37" y="-45.06" font-family="sans-serif" font-size="16.00">DebtCollection</text>
</g>
<!-- PolicyManagementContext&#45;&gt;DebtCollection -->
<g id="edge3" class="edge">
<title>PolicyManagementContext&#45;&gt;DebtCollection</title>
<path fill="none" stroke="black" stroke-width="2" d="M674.21,-148.09C693.45,-128.64 715.8,-106.04 734.21,-87.43"/>
<text text-anchor="middle" x="741.37" y="-119.12" font-family="sans-serif" font-size="12.00">Shared Kernel</text>
</g>
<!-- PrintingContext -->
<g id="node5" class="node">
<title>PrintingContext</title>
<polygon fill="none" stroke="black" stroke-width="2" points="825.54,-507.39 821.92,-509.85 818.07,-512.23 814,-514.52 809.72,-516.71 805.26,-518.8 800.63,-520.77 795.85,-522.61 790.92,-524.33 785.87,-525.91 780.72,-527.34 775.47,-528.62 770.15,-529.75 764.77,-530.72 759.34,-531.53 753.88,-532.18 748.41,-532.66 742.94,-532.97 737.47,-533.12 732.04,-533.11 726.64,-532.94 721.29,-532.6 716.01,-532.11 710.8,-531.46 705.67,-530.67 700.64,-529.74 695.71,-528.67 690.9,-527.47 686.21,-526.14 681.65,-524.7 677.23,-523.16 672.96,-521.51 668.84,-519.76 664.89,-517.94 661.1,-516.03 657.49,-514.06 654.06,-512.03 650.82,-509.95 647.77,-507.82 644.93,-505.66 642.29,-503.47 639.86,-501.26 637.64,-499.04 635.65,-496.81 633.89,-494.58 632.35,-492.36 631.06,-490.15 630,-487.95 629.19,-485.78 628.62,-483.64 628.31,-481.53 628.26,-479.45 628.46,-477.41 628.93,-475.41 629.66,-473.45 630.65,-471.54 631.92,-469.67 633.44,-467.86 635.24,-466.1 637.3,-464.38 639.63,-462.73 642.23,-461.12 645.08,-459.57 648.19,-458.08 651.55,-456.64 655.16,-455.26 659.01,-453.94 663.09,-452.68 667.4,-451.47 671.92,-450.33 676.65,-449.26 681.57,-448.24 686.67,-447.3 691.94,-446.42 697.37,-445.61 702.94,-444.87 708.63,-444.21 714.43,-443.62 720.31,-443.11 726.28,-442.69 732.29,-442.35 738.34,-442.1 744.41,-441.95 750.47,-441.89 756.51,-441.92 762.5,-442.06 768.43,-442.3 774.27,-442.64 780.01,-443.1 785.62,-443.67 791.09,-444.35 796.39,-445.14 801.51,-446.05 806.43,-447.08 811.12,-448.23 815.59,-449.5 819.8,-450.88 823.74,-452.38 827.41,-453.99 830.78,-455.72 833.85,-457.55 836.6,-459.49 839.03,-461.53 841.13,-463.67 842.9,-465.9 844.32,-468.21 845.4,-470.6 846.13,-473.07 846.52,-475.59 846.55,-478.17 846.25,-480.8 845.6,-483.46 844.61,-486.15 843.29,-488.86 841.65,-491.57 839.7,-494.28 837.43,-496.97 834.88,-499.64 832.03,-502.27 828.92,-504.86 825.54,-507.39"/>
<text text-anchor="middle" x="733.37" y="-480.6" font-family="sans-serif" font-size="16.00">PrintingContext</text>
</g>
<!-- PrintingContext&#45;&gt;CustomerManagementContext -->
<g id="edge4" class="edge">
<title>PrintingContext&#45;&gt;CustomerManagementContext</title>
<path fill="none" stroke="black" stroke-width="2" d="M644.27,-459.85C551.48,-435.33 405.69,-396.79 303.61,-369.81"/>
<text text-anchor="middle" x="551.87" y="-407.94" font-family="sans-serif" font-size="12.00"> &#160;&#160;&#160;&#160;&#160;&#160;&#160;&#160;&#160;&#160;&#160;&#160;&#160;&#160;&#160;&#160;&#160;&#160;&#160;&#160;&#160;&#160;&#160;&#160;&#160;&#160;&#160;&#160;&#160;&#160;&#160;&#160;&#160;&#160;&#160;&#160;&#160;&#160;&#160;</text>
<polygon fill="white" stroke="transparent" points="282.61,-359.81 282.61,-378.81 297.61,-378.81 297.61,-359.81 282.61,-359.81"/>
<polyline fill="none" stroke="black" points="297.61,-359.81 297.61,-378.81 "/>
<text text-anchor="start" x="285.61" y="-366.21" font-family="sans-serif" font-size="12.00">D</text>
<polygon fill="white" stroke="transparent" points="297.61,-359.81 297.61,-378.81 325.61,-378.81 325.61,-359.81 297.61,-359.81"/>
<polygon fill="none" stroke="black" points="297.61,-359.81 297.61,-378.81 325.61,-378.81 325.61,-359.81 297.61,-359.81"/>
<text text-anchor="start" x="300.61" y="-366.21" font-family="sans-serif" font-size="12.00">ACL</text>
<polygon fill="white" stroke="transparent" points="611.27,-449.85 611.27,-468.85 626.27,-468.85 626.27,-449.85 611.27,-449.85"/>
<polyline fill="none" stroke="black" points="626.27,-449.85 626.27,-468.85 "/>
<text text-anchor="start" x="614.27" y="-456.25" font-family="sans-serif" font-size="12.00">U</text>
<polygon fill="white" stroke="transparent" points="626.27,-449.85 626.27,-468.85 677.27,-468.85 677.27,-449.85 626.27,-449.85"/>
<polygon fill="none" stroke="black" points="626.27,-449.85 626.27,-468.85 677.27,-468.85 677.27,-449.85 626.27,-449.85"/>
<text text-anchor="start" x="629.27" y="-456.25" font-family="sans-serif" font-size="12.00">OHS, PL</text>
</g>
<!-- PrintingContext&#45;&gt;PolicyManagementContext -->
<g id="edge6" class="edge">
<title>PrintingContext&#45;&gt;PolicyManagementContext</title>
<path fill="none" stroke="black" stroke-width="2" d="M733.92,-442.27C733.04,-401.73 727.82,-338.82 706.37,-289.1 698.11,-269.93 684.87,-251.43 671.74,-235.95"/>
<text text-anchor="middle" x="804.87" y="-334.72" font-family="sans-serif" font-size="12.00"> &#160;&#160;&#160;&#160;&#160;&#160;&#160;&#160;&#160;&#160;&#160;&#160;&#160;&#160;&#160;&#160;&#160;&#160;&#160;&#160;&#160;&#160;&#160;&#160;&#160;&#160;&#160;&#160;&#160;&#160;&#160;&#160;&#160;&#160;&#160;&#160;&#160;&#160;&#160;</text>
<polygon fill="white" stroke="transparent" points="650.74,-225.95 650.74,-244.95 665.74,-244.95 665.74,-225.95 650.74,-225.95"/>
<polyline fill="none" stroke="black" points="665.74,-225.95 665.74,-244.95 "/>
<text text-anchor="start" x="653.74" y="-232.35" font-family="sans-serif" font-size="12.00">D</text>
<polygon fill="white" stroke="transparent" points="665.74,-225.95 665.74,-244.95 693.74,-244.95 693.74,-225.95 665.74,-225.95"/>
<polygon fill="none" stroke="black" points="665.74,-225.95 665.74,-244.95 693.74,-244.95 693.74,-225.95 665.74,-225.95"/>
<text text-anchor="start" x="668.74" y="-232.35" font-family="sans-serif" font-size="12.00">ACL</text>
<polygon fill="white" stroke="transparent" points="700.92,-432.27 700.92,-451.27 715.92,-451.27 715.92,-432.27 700.92,-432.27"/>
<polyline fill="none" stroke="black" points="715.92,-432.27 715.92,-451.27 "/>
<text text-anchor="start" x="703.92" y="-438.67" font-family="sans-serif" font-size="12.00">U</text>
<polygon fill="white" stroke="transparent" points="715.92,-432.27 715.92,-451.27 766.92,-451.27 766.92,-432.27 715.92,-432.27"/>
<polygon fill="none" stroke="black" points="715.92,-432.27 715.92,-451.27 766.92,-451.27 766.92,-432.27 715.92,-432.27"/>
<text text-anchor="start" x="718.92" y="-438.67" font-family="sans-serif" font-size="12.00">OHS, PL</text>
</g>
<!-- PrintingContext&#45;&gt;DebtCollection -->
<g id="edge5" class="edge">
<title>PrintingContext&#45;&gt;DebtCollection</title>
<path fill="none" stroke="black" stroke-width="2" d="M816.61,-449.78C843.13,-434.63 869.44,-413.87 884.37,-386.54 939.01,-286.59 855.93,-155.55 805.46,-90.36"/>
<text text-anchor="middle" x="972.87" y="-261.5" font-family="sans-serif" font-size="12.00"> &#160;&#160;&#160;&#160;&#160;&#160;&#160;&#160;&#160;&#160;&#160;&#160;&#160;&#160;&#160;&#160;&#160;&#160;&#160;&#160;&#160;&#160;&#160;&#160;&#160;&#160;&#160;&#160;&#160;&#160;&#160;&#160;&#160;&#160;&#160;&#160;&#160;&#160;&#160;</text>
<polygon fill="white" stroke="transparent" points="784.46,-80.36 784.46,-99.36 799.46,-99.36 799.46,-80.36 784.46,-80.36"/>
<polyline fill="none" stroke="black" points="799.46,-80.36 799.46,-99.36 "/>
<text text-anchor="start" x="787.46" y="-86.76" font-family="sans-serif" font-size="12.00">D</text>
<polygon fill="white" stroke="transparent" points="799.46,-80.36 799.46,-99.36 827.46,-99.36 827.46,-80.36 799.46,-80.36"/>
<polygon fill="none" stroke="black" points="799.46,-80.36 799.46,-99.36 827.46,-99.36 827.46,-80.36 799.46,-80.36"/>
<text text-anchor="start" x="802.46" y="-86.76" font-family="sans-serif" font-size="12.00">ACL</text>
<polygon fill="white" stroke="transparent" points="783.61,-439.78 783.61,-458.78 798.61,-458.78 798.61,-439.78 783.61,-439.78"/>
<polyline fill="none" stroke="black" points="798.61,-439.78 798.61,-458.78 "/>
<text text-anchor="start" x="786.61" y="-446.18" font-family="sans-serif" font-size="12.00">U</text>
<polygon fill="white" stroke="transparent" points="798.61,-439.78 798.61,-458.78 849.61,-458.78 849.61,-439.78 798.61,-439.78"/>
<polygon fill="none" stroke="black" points="798.61,-439.78 798.61,-458.78 849.61,-458.78 849.61,-439.78 798.61,-439.78"/>
<text text-anchor="start" x="801.61" y="-446.18" font-family="sans-serif" font-size="12.00">OHS, PL</text>
</g>
<!-- RiskManagementContext -->
<g id="node6" class="node">
<title>RiskManagementContext</title>
<polygon fill="none" stroke="black" stroke-width="2" points="391.55,-338.09 391.34,-335.22 391.56,-332.37 392.19,-329.55 393.25,-326.77 394.74,-324.03 396.64,-321.36 398.95,-318.76 401.68,-316.25 404.81,-313.82 408.33,-311.5 412.24,-309.28 416.52,-307.17 421.17,-305.19 426.17,-303.34 431.51,-301.61 437.17,-300.03 443.14,-298.58 449.4,-297.28 455.93,-296.12 462.72,-295.11 469.74,-294.25 476.97,-293.53 484.4,-292.96 492,-292.53 499.75,-292.24 507.63,-292.09 515.61,-292.08 523.67,-292.19 531.79,-292.44 539.94,-292.8 548.11,-293.29 556.26,-293.89 564.37,-294.59 572.42,-295.39 580.39,-296.29 588.25,-297.28 595.98,-298.36 603.56,-299.51 610.96,-300.74 618.17,-302.03 625.16,-303.39 631.92,-304.8 638.42,-306.27 644.66,-307.78 650.6,-309.34 656.24,-310.94 661.56,-312.58 666.54,-314.25 671.18,-315.95 675.46,-317.68 679.37,-319.44 682.9,-321.22 686.04,-323.02 688.78,-324.84 691.12,-326.68 693.06,-328.53 694.58,-330.4 695.69,-332.29 696.39,-334.19 696.67,-336.1 696.53,-338.02 695.98,-339.95 695.02,-341.89 693.65,-343.84 691.88,-345.78 689.72,-347.73 687.16,-349.69 684.23,-351.63 680.93,-353.57 677.26,-355.51 673.24,-357.43 668.88,-359.33 664.2,-361.21 659.2,-363.06 653.89,-364.89 648.31,-366.68 642.45,-368.42 636.33,-370.12 629.98,-371.76 623.4,-373.34 616.62,-374.85 609.65,-376.29 602.5,-377.64 595.21,-378.91 587.79,-380.08 580.24,-381.15 572.61,-382.12 564.9,-382.96 557.13,-383.69 549.33,-384.28 541.51,-384.75 533.7,-385.07 525.91,-385.25 518.17,-385.29 510.49,-385.17 502.89,-384.9 495.4,-384.47 488.03,-383.89 480.8,-383.15 473.74,-382.25 466.86,-381.19 460.17,-379.98 453.7,-378.61 447.47,-377.1 441.49,-375.44 435.78,-373.63 430.35,-371.7 425.22,-369.63 420.4,-367.45 415.92,-365.15 411.77,-362.74 407.98,-360.25 404.55,-357.66 401.5,-355 398.84,-352.28 396.56,-349.5 394.69,-346.68 393.23,-343.83 392.18,-340.97 391.55,-338.09"/>
<text text-anchor="middle" x="544.37" y="-334.02" font-family="sans-serif" font-size="16.00">RiskManagementContext</text>
</g>
<!-- RiskManagementContext&#45;&gt;PolicyManagementContext -->
<g id="edge7" class="edge">
<title>RiskManagementContext&#45;&gt;PolicyManagementContext</title>
<path fill="none" stroke="black" stroke-width="2" d="M569.71,-294.86C581.01,-276.16 594.27,-254.19 605.51,-235.58"/>
<text text-anchor="middle" x="619.87" y="-261.5" font-family="sans-serif" font-size="12.00">Partnership</text>
</g>
</g>
</svg>
