<svg xmlns="http://www.w3.org/2000/svg" xmlns:xlink="http://www.w3.org/1999/xlink" xmlns:lucid="lucid" width="1343" height="983"><g transform="translate(-478.49999998622985 -158.49999999391153)" lucid:page-tab-id="lQ1MzOb-BgQj"><path d="M840 166a6 6 0 0 1 6-6h968a6 6 0 0 1 6 6v968a6 6 0 0 1-6 6H846a6 6 0 0 1-6-6z" fill="#fff" fill-opacity="0"/><path d="M856.42 160h8.94m5.96 0h8.93m5.96 0h8.94m5.96 0h8.94m5.95 0h8.93m5.96 0h8.92m5.96 0h8.93m5.97 0h8.94m5.96 0h8.94m5.96 0h8.93m5.95 0h8.93m5.96 0h8.93m5.96 0h8.94m5.96 0h8.93m5.96 0h8.93m5.96 0h8.94m5.96 0h8.94m5.95 0h8.93m5.96 0h8.92m5.96 0h8.93m5.97 0h8.94m5.96 0h8.94m5.96 0h8.93m5.95 0h8.93m5.96 0h8.94m5.95 0h8.94m5.95 0h8.94m5.96 0h8.93m5.96 0h8.94m5.96 0h8.94m5.95 0h8.93m5.96 0h8.92m5.96 0h8.93m5.97 0h8.94m5.96 0h8.94m5.95 0h8.94m5.95 0h8.93m5.96 0h8.93m5.96 0h8.94m5.95 0h8.94m5.96 0h8.93m5.96 0h8.94m5.96 0h8.94m5.95 0h8.93m5.96 0h8.92m5.96 0h8.93m5.97 0h8.94m5.96 0h8.94m5.96 0h8.93m5.95 0h8.93m5.96 0h8.93m5.96 0h8.94m5.96 0h8.93m5.96 0h8.93m5.96 0h8.95m5.95 0h8.94m5.95 0h8.93m5.96 0h8.92m5.96 0h8.93m5.97 0h8.94m5.96 0h8.94m5.95 0h8.94m5.95 0h8.93m5.96 0h8.93m5.96 0h4.47l.94.07.9.22.88.35.8.5.72.6.6.72.5.8.37.88.23.9.07.95v4.47m0 5.96v8.93m0 5.96v8.93m0 5.96v8.95m0 5.95v8.94m0 5.95v8.93m0 5.96v8.92m0 5.96v8.93m0 5.97v8.94m0 5.96v8.94m0 5.95v8.94m0 5.95v8.93m0 5.96v8.94m0 5.95v8.94m0 5.95v8.94m0 5.96v8.93m0 5.96v8.94m0 5.96v8.94m0 5.95v8.93m0 5.96v8.92m0 5.96v8.93m0 5.97v8.94m0 5.96v8.94m0 5.95V513m0 5.95v8.93m0 5.96v8.93m0 5.96v8.94m0 5.96v8.93m0 5.96v8.93m0 5.96v8.95m0 5.95v8.94m0 5.95v8.93m0 5.96V647m0 5.96v8.93m0 5.97v8.94m0 5.96v8.94m0 5.95v8.94m0 5.95v8.93m0 5.96v8.93m0 5.96v8.94m0 5.96v8.93m0 5.96v8.93m0 5.96v8.95m0 5.95v8.94m0 5.95v8.93m0 5.96v8.92m0 5.96v8.93m0 5.97v8.94m0 5.96v8.94m0 5.96v8.93m0 5.95v8.93m0 5.96v8.94m0 5.95v8.94m0 5.96v8.93m0 5.96v8.93m0 5.96v8.94m0 5.96v8.94m0 5.95v8.93m0 5.96v8.92m0 5.96v8.93m0 5.97v8.94m0 5.96v8.94m0 5.95v8.94m0 5.95v8.93m0 5.96v8.93m0 5.96v4.47l-.07.94-.22.9-.35.88-.5.8-.6.72-.72.6-.8.5-.88.37-.9.23-.95.07h-4.47m-5.95 0h-8.94m-5.96 0h-8.93m-5.96 0h-8.94m-5.96 0h-8.94m-5.95 0h-8.93m-5.96 0h-8.92m-5.96 0h-8.93m-5.97 0h-8.94m-5.96 0h-8.94m-5.95 0h-8.94m-5.95 0h-8.93m-5.96 0h-8.93m-5.96 0h-8.94m-5.96 0h-8.93m-5.96 0h-8.93m-5.96 0h-8.94m-5.96 0h-8.94m-5.95 0h-8.93m-5.96 0h-8.92m-5.96 0h-8.93m-5.97 0h-8.94m-5.96 0h-8.94m-5.96 0H1467m-5.95 0h-8.93m-5.96 0h-8.94m-5.95 0h-8.94m-5.95 0h-8.94m-5.96 0h-8.93m-5.96 0h-8.94m-5.96 0h-8.94m-5.95 0h-8.93m-5.96 0H1333m-5.96 0h-8.93m-5.97 0h-8.94m-5.96 0h-8.94m-5.95 0h-8.94m-5.95 0h-8.93m-5.96 0h-8.93m-5.96 0h-8.94m-5.95 0h-8.94m-5.96 0h-8.93m-5.96 0h-8.94m-5.96 0h-8.94m-5.95 0h-8.93m-5.96 0h-8.92m-5.96 0h-8.93m-5.97 0h-8.94m-5.96 0h-8.94m-5.96 0h-8.93m-5.95 0h-8.93m-5.96 0h-8.93m-5.96 0h-8.94m-5.96 0h-8.93m-5.96 0h-8.93m-5.96 0h-8.94m-5.96 0h-8.94m-5.95 0h-8.93m-5.96 0h-8.92m-5.96 0h-8.93m-5.97 0H916m-5.96 0h-8.94m-5.96 0h-8.93m-5.95 0h-8.93m-5.96 0h-8.94m-5.95 0H846l-.94-.07-.9-.22-.88-.35-.8-.5-.72-.6-.6-.72-.5-.8-.37-.88-.23-.9-.07-.95v-4.47m0-5.95v-8.94m0-5.96v-8.93m0-5.96v-8.94m0-5.96v-8.94m0-5.95v-8.93m0-5.96v-8.92m0-5.96v-8.93m0-5.97v-8.94m0-5.96v-8.94m0-5.96v-8.93m0-5.95v-8.93m0-5.96v-8.93m0-5.96v-8.94m0-5.95v-8.94m0-5.96v-8.93m0-5.96v-8.95m0-5.95v-8.94m0-5.95v-8.93m0-5.96v-8.92m0-5.96v-8.93m0-5.97v-8.94m0-5.96v-8.94m0-5.95V787m0-5.95v-8.93m0-5.96v-8.93m0-5.96v-8.94m0-5.96v-8.93m0-5.96v-8.93m0-5.96v-8.95m0-5.95v-8.94m0-5.95v-8.93m0-5.96V653m0-5.96v-8.93m0-5.97v-8.94m0-5.96v-8.94m0-5.95v-8.94m0-5.95v-8.93m0-5.96v-8.93m0-5.96v-8.94m0-5.96v-8.93m0-5.96v-8.93m0-5.96v-8.94m0-5.96v-8.94m0-5.95v-8.93m0-5.96v-8.92m0-5.96v-8.93m0-5.97v-8.94m0-5.96v-8.94m0-5.95v-8.94m0-5.95v-8.93m0-5.96v-8.94m0-5.95v-8.94m0-5.95v-8.94m0-5.96v-8.93m0-5.96v-8.94m0-5.96v-8.94m0-5.95v-8.93m0-5.96v-8.92m0-5.96v-8.93m0-5.97V236m0-5.96v-8.94m0-5.95v-8.94m0-5.95v-8.93m0-5.96v-8.94m0-5.95V166l.07-.94.22-.9.35-.88.5-.8.6-.72.72-.6.8-.5.88-.37.9-.23.95-.07h4.47" stroke="#147eba" stroke-width="3" fill="none"/><path d="M840 160h56v56h-56v-56z" stroke="#fff" stroke-opacity="0" fill="#147eba"/><path d="M883.84 189.36l-5.96-7.36 5.96-7.4h-26.17v-2.08c.98-.32 1.62-1.16 1.62-2.2-.1-1.15-1.03-2.02-2.17-2.14-1.3-.08-2.44.87-2.53 2.15 0 1.03.63 1.87 1.58 2.2v33.88h-4.02v1.6h9.44v-1.6h-3.93v-17.04zm-26.96-19.75c.4-.03.76.33.76.73 0 .44-.32.75-.73.75-.4.04-.75-.3-.75-.7v-.05c0-.4.32-.72.73-.72zm23.6 6.62l-4.65 5.78 4.65 5.73h-22.8v-11.5z" stroke="#fff" stroke-opacity="0" fill="#fff"/><use xlink:href="#a" transform="matrix(1,0,0,1,911,180) translate(0 14.4)"/><use xlink:href="#b" transform="matrix(1,0,0,1,911,180) translate(66.9 14.4)"/><path d="M480 406a6 6 0 0 1 6-6h268a6 6 0 0 1 6 6v428a6 6 0 0 1-6 6H486a6 6 0 0 1-6-6z" fill="#fff" fill-opacity="0"/><path d="M496.42 400h8.94m5.95 0h8.94m5.96 0h8.93m5.96 0H550m5.96 0h8.93m5.97 0h8.93m5.96 0h8.93m5.94 0h8.94m5.95 0h8.94m5.95 0h8.94m5.95 0h8.94m5.96 0h8.93m5.96 0H684m5.96 0h8.93m5.97 0h8.93m5.96 0h8.93m5.94 0h8.94m5.95 0H754l.94.07.9.22.88.35.8.5.72.6.6.72.5.8.37.88.23.9.07.95v4.43m0 5.9v8.86m0 5.9v8.84m0 5.9v8.86m0 5.9v8.86m0 5.9v8.86m0 5.9v8.86m0 5.9v8.86m0 5.9v8.86m0 5.9v8.86m0 5.9V558m0 5.92v8.85m0 5.9v8.86m0 5.9v8.86m0 5.9v8.85m0 5.9v8.86m0 5.9v8.87m0 5.9v8.85m0 5.9v8.86m0 5.9v8.86m0 5.9v8.86m0 5.9v8.86m0 5.9v8.86m0 5.9v8.86m0 5.9v8.85m0 5.9v8.86m0 5.9v8.85m0 5.9v8.86m0 5.9v8.87m0 5.9V834l-.07.94-.22.9-.35.88-.5.8-.6.72-.72.6-.8.5-.88.37-.9.23-.95.07h-4.47m-5.95 0h-8.94m-5.95 0h-8.94m-5.96 0h-8.93m-5.96 0H690m-5.96 0h-8.93m-5.97 0h-8.93m-5.96 0h-8.93m-5.94 0h-8.94m-5.95 0h-8.94m-5.95 0h-8.94m-5.95 0h-8.94m-5.96 0h-8.93m-5.96 0H556m-5.96 0h-8.93m-5.97 0h-8.93m-5.96 0h-8.93m-5.94 0h-8.94m-5.95 0H486l-.94-.07-.9-.22-.88-.35-.8-.5-.72-.6-.6-.72-.5-.8-.37-.88-.23-.9-.07-.95v-4.43m0-5.9v-8.86m0-5.9v-8.85m0-5.9v-8.85m0-5.9v-8.86m0-5.9v-8.86m0-5.9v-8.86m0-5.9v-8.86m0-5.9v-8.86m0-5.9v-8.86m0-5.9V682m0-5.92v-8.85m0-5.9v-8.86m0-5.9v-8.86m0-5.9v-8.85m0-5.9v-8.86m0-5.9v-8.87m0-5.9v-8.85m0-5.9v-8.86m0-5.9v-8.86m0-5.9v-8.86m0-5.9v-8.86m0-5.9v-8.86m0-5.9v-8.86m0-5.9v-8.85m0-5.9v-8.86m0-5.9v-8.85m0-5.9v-8.86m0-5.9v-8.87m0-5.9V406l.07-.94.22-.9.35-.88.5-.8.6-.72.72-.6.8-.5.88-.37.9-.23.95-.07h4.47" stroke="#147eba" stroke-width="3" fill="none"/><path d="M480 400h56v56h-56v-56z" stroke="#fff" stroke-opacity="0" fill="#147eba"/><path d="M523.84 429.36l-5.96-7.36 5.96-7.4h-26.17v-2.08c.98-.32 1.62-1.16 1.62-2.2-.1-1.15-1.03-2.02-2.17-2.14-1.3-.08-2.44.87-2.53 2.15 0 1.03.63 1.87 1.58 2.2v33.88h-4.02v1.6h9.44v-1.6h-3.93v-17.04zm-26.96-19.75c.4-.03.76.33.76.73 0 .44-.32.75-.73.75-.4.05-.75-.3-.75-.7v-.05c0-.4.32-.72.73-.72zm23.6 6.62l-4.65 5.78 4.65 5.73h-22.8v-11.5z" stroke="#fff" stroke-opacity="0" fill="#fff"/><use xlink:href="#a" transform="matrix(1,0,0,1,551,420) translate(0 14.4)"/><use xlink:href="#c" transform="matrix(1,0,0,1,551,420) translate(66.9 14.4)"/><path d="M878.67 246a6 6 0 0 1 6-6H1774a6 6 0 0 1 6 6v648a6 6 0 0 1-6 6H884.67a6 6 0 0 1-6-6z" fill="#fff" fill-opacity="0"/><path d="M902.7 240h12m12.03 0h12.02m12.02 0h12m12.03 0h12.02m12.02 0h12.02m12 0h12.03m12 0h12.03m12.02 0h12m12.03 0H1107m12.02 0h12.02m12 0h12.03m12.02 0h12m12.03 0h12m12.03 0h12.02m12.02 0h12.02m12 0h12.03m12.02 0h12.02m12 0h12.02m12.02 0h12.02m12.02 0h12.02m12 0h12.03m12.02 0h12.02m12.02 0h12m12.02 0h12.02m12.02 0h12.02m12.02 0h12m12.03 0h12.02m12.02 0h12m12.03 0h12.02m12.02 0h12.02m12.02 0h12m12.03 0h12.03m12.02 0h12.02m12 0h12.03m12.02 0h12.02m12 0h12.03m12.02 0h6l.94.07.9.22.88.35.8.5.72.6.6.72.5.8.37.88.23.9.07.95v6m0 12v12m0 12v12m0 12v12m0 12v12m0 12v12m0 12v12m0 12v12m0 12v12m0 12v12m0 12v12m0 12v12m0 12v12m0 12v12m0 12v12m0 12v12m0 12v12m0 12v12m0 12v12m0 12v12m0 12v12m0 12v12m0 12v12m0 12v12m0 12v12m0 12v12m0 12v12m0 12v6l-.07.94-.22.9-.35.88-.5.8-.6.72-.72.6-.8.5-.88.37-.9.23-.95.07h-6m-12.03 0h-12.02m-12 0h-12.03m-12.02 0h-12.02m-12.02 0h-12m-12.03 0h-12.02m-12 0h-12.02m-12.02 0h-12.02m-12.02 0h-12.02m-12.02 0h-12m-12.03 0h-12.02m-12.02 0h-12m-12.02 0h-12.02m-12.02 0h-12.02m-12 0h-12.03m-12.03 0h-12.02m-12.02 0h-12.02m-12 0h-12.02m-12.02 0h-12.02m-12.02 0h-12m-12.03 0h-12.03m-12.02 0h-12.02m-12 0h-12.03m-12.02 0h-12.02m-12.02 0h-12m-12.03 0h-12m-12.03 0h-12.02m-12 0H1119m-12.02 0h-12.02m-12.02 0h-12m-12.03 0h-12.02m-12 0h-12.03m-12 0h-12.03m-12.02 0H974.8m-12.02 0h-12m-12.03 0h-12.02m-12.02 0h-12m-12.02 0h-6l-.95-.07-.92-.22-.86-.35-.8-.5-.72-.6-.6-.72-.5-.8-.36-.88-.22-.9-.07-.95v-6m0-12v-12m0-12v-12m0-12v-12m0-12v-12m0-12v-12m0-12v-12m0-12v-12m0-12v-12m0-12v-12m0-12v-12m0-12v-12m0-12v-12m0-12v-12m0-12v-12m0-12v-12m0-12v-12m0-12v-12m0-12v-12m0-12v-12m0-12v-12m0-12v-12m0-12v-12m0-12v-12m0-12v-12m0-12v-12m0-12v-12m0-12v-6l.07-.94.22-.9.36-.88.5-.8.6-.72.72-.6.8-.5.87-.37.93-.23.94-.07h6" stroke="#5a6c86" stroke-width="3" fill="none"/><use xlink:href="#d" transform="matrix(1,0,0,1,878.6666666666665,260) translate(379.075 14.4)"/><use xlink:href="#e" transform="matrix(1,0,0,1,878.6666666666665,260) translate(471.925 14.4)"/><path d="M1220 746a6 6 0 0 1 6-6h148a6 6 0 0 1 6 6v108a6 6 0 0 1-6 6h-148a6 6 0 0 1-6-6z" stroke="#5e5e5e" stroke-width="3" fill="#c7e8ac"/><use xlink:href="#f" transform="matrix(1,0,0,1,1232,752) translate(-7.1851851851851904 52.44444444444444)"/><path d="M958.67 986a6 6 0 0 1 6-6h148a6 6 0 0 1 6 6v108a6 6 0 0 1-6 6h-148a6 6 0 0 1-6-6z" stroke="#5e5e5e" stroke-width="3" fill="#b2d6ef"/><use xlink:href="#g" transform="matrix(1,0,0,1,970.6666666666665,992) translate(27.969135802469133 53.77777777777778)"/><path d="M1210 986a6 6 0 0 1 6-6h168a6 6 0 0 1 6 6v108a6 6 0 0 1-6 6h-168a6 6 0 0 1-6-6z" stroke="#5e5e5e" stroke-width="3" fill="#b2d6ef"/><use xlink:href="#h" transform="matrix(1,0,0,1,1222,992) translate(17.012345679012334 53.77777777777778)"/><path d="M1480 986a6 6 0 0 1 6-6h148a6 6 0 0 1 6 6v108a6 6 0 0 1-6 6h-148a6 6 0 0 1-6-6z" stroke="#5e5e5e" stroke-width="3" fill="#ffbbb1"/><use xlink:href="#i" transform="matrix(1,0,0,1,1492,992) translate(8.21604938271605 53.77777777777778)"/><path d="M1520 486a6 6 0 0 1 6-6h177.33a6 6 0 0 1 6 6v108a6 6 0 0 1-6 6H1526a6 6 0 0 1-6-6z" stroke="#5e5e5e" stroke-width="3" fill="#c7e8ac"/><use xlink:href="#j" transform="matrix(1,0,0,1,1532,492) translate(-4.438271604938265 52.44444444444444)"/><path d="M1220 316.7a6 6 0 0 1 6-6h148a6 6 0 0 1 6 6v108a6 6 0 0 1-6 6h-148a6 6 0 0 1-6-6z" stroke="#5e5e5e" stroke-width="3" fill="#c7e8ac"/><use xlink:href="#k" transform="matrix(1,0,0,1,1232,322.6963388370424) translate(3.925925925925924 53.77777777777778)"/><path d="M1220 486a6 6 0 0 1 6-6h148a6 6 0 0 1 6 6v108a6 6 0 0 1-6 6h-148a6 6 0 0 1-6-6z" stroke="#5e5e5e" stroke-width="3" fill="#c7e8ac"/><use xlink:href="#l" transform="matrix(1,0,0,1,1232,492) translate(1.4567901234567842 53.77777777777778)"/><path d="M940 746a6 6 0 0 1 6-6h185.33a6 6 0 0 1 6 6v108a6 6 0 0 1-6 6H946a6 6 0 0 1-6-6z" stroke="#5e5e5e" stroke-width="3" fill="#c7e8ac"/><use xlink:href="#m" transform="matrix(1,0,0,1,952,752) translate(1.3209876543209873 53.77777777777778)"/><path d="M940 486a6 6 0 0 1 6-6h185.33a6 6 0 0 1 6 6v108a6 6 0 0 1-6 6H946a6 6 0 0 1-6-6z" stroke="#5e5e5e" stroke-width="3" fill="#c7e8ac"/><use xlink:href="#n" transform="matrix(1,0,0,1,952,492) translate(9.31481481481481 53.77777777777778)"/><path d="M540 686a6 6 0 0 1 6-6h148a6 6 0 0 1 6 6v108a6 6 0 0 1-6 6H546a6 6 0 0 1-6-6z" stroke="#5e5e5e" stroke-width="3" fill="#b2d6ef"/><use xlink:href="#o" transform="matrix(1,0,0,1,552,692) translate(27.969135802469133 53.77777777777778)"/><path d="M520 506a6 6 0 0 1 6-6h177.33a6 6 0 0 1 6 6v108a6 6 0 0 1-6 6H526a6 6 0 0 1-6-6z" stroke="#5e5e5e" stroke-width="3" fill="#c7e8ac"/><use xlink:href="#p" transform="matrix(1,0,0,1,532,512) translate(16.487654320987644 53.77777777777778)"/><path d="M1300 737.5V620" stroke="#5e5e5e" stroke-width="2" fill="none"/><path d="M1300.97 738.5h-1.94v-1.03h1.94z" stroke="#5e5e5e" stroke-width=".05" fill="#5e5e5e"/><path d="M1300 604.74l4.63 14.26h-9.27z" stroke="#5e5e5e" stroke-width="2" fill="#5e5e5e"/><path d="M1300 477.5v-26.8" stroke="#5e5e5e" stroke-width="2" fill="none"/><path d="M1300.97 478.5h-1.94v-1.03h1.94z" stroke="#5e5e5e" stroke-width=".05" fill="#5e5e5e"/><path d="M1300 435.43l4.63 14.27h-9.27z" stroke="#5e5e5e" stroke-width="2" fill="#5e5e5e"/><path d="M1382.5 540h11.18m11.18 0h22.37m11.18 0h22.37m11.18 0h22.37m11.18 0h11.18" stroke="#5e5e5e" stroke-width="2" fill="none"/><path d="M1382.53 540.98h-1.03V539h1.03z" stroke="#5e5e5e" stroke-width=".05" fill="#5e5e5e"/><path d="M1499.18 530l17.32 10-17.32 10M1348.35 602.5v11.18m0 11.18v22.37m0 11.18v22.37m0 11.2v22.35m0 11.18v11.18" stroke="#5e5e5e" stroke-width="2" fill="none"/><path d="M1349.32 602.53h-1.95v-1.03h1.95z" stroke="#5e5e5e" stroke-width=".05" fill="#5e5e5e"/><path d="M1358.35 719.18l-10 17.32-10-17.32M1237.48 602.2l-7.54 7.5m-7.54 7.5l-15.08 15m-7.54 7.5l-15.08 15m-7.54 7.5l-15.08 15m-7.53 7.5l-15.08 15m-7.54 7.5l-15.08 15.02m-7.54 7.5l-7.53 7.5" stroke="#5e5e5e" stroke-width="2" fill="none"/><path d="M1238.14 602.9l-1.37-1.37.03-.03h2.77z" stroke="#5e5e5e" stroke-width=".05" fill="#5e5e5e"/><path d="M1121.23 731.96l-19.33 5.13 5.23-19.32M1300 862.5V960" stroke="#5e5e5e" stroke-width="2" fill="none"/><path d="M1300.97 862.53h-1.94v-1.03h1.94z" stroke="#5e5e5e" stroke-width=".05" fill="#5e5e5e"/><path d="M1300 975.26l-4.63-14.26h9.27z" stroke="#5e5e5e" stroke-width="2" fill="#5e5e5e"/><path d="M1038.67 602.5V720" stroke="#5e5e5e" stroke-width="2" fill="none"/><path d="M1039.64 602.53h-1.95v-1.03h1.94z" stroke="#5e5e5e" stroke-width=".05" fill="#5e5e5e"/><path d="M1038.67 735.26l-4.64-14.26h9.27z" stroke="#5e5e5e" stroke-width="2" fill="#5e5e5e"/><path d="M711.83 560.06l146.87 8.83" stroke="#5e5e5e" stroke-width="2" fill="none"/><path d="M711.92 559.1l-.12 1.93-.97-.05v-1.96z" stroke="#5e5e5e" stroke-width=".05" fill="#5e5e5e"/><path d="M873.94 569.8l-14.52 3.78.56-9.26z" stroke="#5e5e5e" stroke-width="2" fill="#5e5e5e"/><path d="M1025.45 902.5V960" stroke="#5e5e5e" stroke-width="2" fill="none"/><path d="M1026.43 902.53h-1.95v-1.03h1.95z" stroke="#5e5e5e" stroke-width=".05" fill="#5e5e5e"/><path d="M1025.45 975.26l-4.63-14.26h9.27z" stroke="#5e5e5e" stroke-width="2" fill="#5e5e5e"/><path d="M1545.38 902.5V960" stroke="#5e5e5e" stroke-width="2" fill="none"/><path d="M1546.35 902.53h-1.95v-1.03h1.95z" stroke="#5e5e5e" stroke-width=".05" fill="#5e5e5e"/><path d="M1545.38 975.26l-4.64-14.26h9.27z" stroke="#5e5e5e" stroke-width="2" fill="#5e5e5e"/><path d="M620 622.5V660" stroke="#5e5e5e" stroke-width="2" fill="none"/><path d="M620.98 622.53H619v-1.03H621z" stroke="#5e5e5e" stroke-width=".05" fill="#5e5e5e"/><path d="M620 675.26L615.37 661h9.26z" stroke="#5e5e5e" stroke-width="2" fill="#5e5e5e"/><defs><path fill="#147eba" d="M233-177c-1 41-23 64-60 70L243 0h-38l-65-103H63V0H30v-248c88 3 205-21 203 71zM63-129c60-2 137 13 137-47 0-61-80-42-137-45v92" id="q"/><path fill="#147eba" d="M100-194c63 0 86 42 84 106H49c0 40 14 67 53 68 26 1 43-12 49-29l28 8c-11 28-37 45-77 45C44 4 14-33 15-96c1-61 26-98 85-98zm52 81c6-60-76-77-97-28-3 7-6 17-6 28h103" id="r"/><path fill="#147eba" d="M177-190C167-65 218 103 67 71c-23-6-38-20-44-43l32-5c15 47 100 32 89-28v-30C133-14 115 1 83 1 29 1 15-40 15-95c0-56 16-97 71-98 29-1 48 16 59 35 1-10 0-23 2-32h30zM94-22c36 0 50-32 50-73 0-42-14-75-50-75-39 0-46 34-46 75s6 73 46 73" id="s"/><path fill="#147eba" d="M24-231v-30h32v30H24zM24 0v-190h32V0H24" id="t"/><path fill="#147eba" d="M100-194c62-1 85 37 85 99 1 63-27 99-86 99S16-35 15-95c0-66 28-99 85-99zM99-20c44 1 53-31 53-75 0-43-8-75-51-75s-53 32-53 75 10 74 51 75" id="u"/><path fill="#147eba" d="M117-194c89-4 53 116 60 194h-32v-121c0-31-8-49-39-48C34-167 62-67 57 0H25l-1-190h30c1 10-1 24 2 32 11-22 29-35 61-36" id="v"/><path fill="#147eba" d="M33-154v-36h34v36H33zM33 0v-36h34V0H33" id="w"/><g id="a"><use transform="matrix(0.05,0,0,0.05,0,0)" xlink:href="#q"/><use transform="matrix(0.05,0,0,0.05,12.950000000000001,0)" xlink:href="#r"/><use transform="matrix(0.05,0,0,0.05,22.950000000000003,0)" xlink:href="#s"/><use transform="matrix(0.05,0,0,0.05,32.95,0)" xlink:href="#t"/><use transform="matrix(0.05,0,0,0.05,36.900000000000006,0)" xlink:href="#u"/><use transform="matrix(0.05,0,0,0.05,46.900000000000006,0)" xlink:href="#v"/><use transform="matrix(0.05,0,0,0.05,56.900000000000006,0)" xlink:href="#w"/></g><path fill="#147eba" d="M141-36C126-15 110 5 73 4 37 3 15-17 15-53c-1-64 63-63 125-63 3-35-9-54-41-54-24 1-41 7-42 31l-33-3c5-37 33-52 76-52 45 0 72 20 72 64v82c-1 20 7 32 28 27v20c-31 9-61-2-59-35zM48-53c0 20 12 33 32 33 41-3 63-29 60-74-43 2-92-5-92 41" id="x"/><path fill="#147eba" d="M115-194c55 1 70 41 70 98S169 2 115 4C84 4 66-9 55-30l1 105H24l-1-265h31l2 30c10-21 28-34 59-34zm-8 174c40 0 45-34 45-75s-6-73-45-74c-42 0-51 32-51 76 0 43 10 73 51 73" id="y"/><path fill="#147eba" d="M16-82v-28h88v28H16" id="z"/><path fill="#147eba" d="M135-143c-3-34-86-38-87 0 15 53 115 12 119 90S17 21 10-45l28-5c4 36 97 45 98 0-10-56-113-15-118-90-4-57 82-63 122-42 12 7 21 19 24 35" id="A"/><path fill="#147eba" d="M84 4C-5 8 30-112 23-190h32v120c0 31 7 50 39 49 72-2 45-101 50-169h31l1 190h-30c-1-10 1-25-2-33-11 22-28 36-60 37" id="B"/><path fill="#147eba" d="M59-47c-2 24 18 29 38 22v24C64 9 27 4 27-40v-127H5v-23h24l9-43h21v43h35v23H59v120" id="C"/><path fill="#147eba" d="M106-169C34-169 62-67 57 0H25v-261h32l-1 103c12-21 28-36 61-36 89 0 53 116 60 194h-32v-121c2-32-8-49-39-48" id="D"/><path fill="#147eba" d="M101-251c82-7 93 87 43 132L82-64C71-53 59-42 53-27h129V0H18c2-99 128-94 128-182 0-28-16-43-45-43s-46 15-49 41l-32-3c6-41 34-60 81-64" id="E"/><g id="b"><use transform="matrix(0.05,0,0,0.05,0,0)" xlink:href="#x"/><use transform="matrix(0.05,0,0,0.05,10,0)" xlink:href="#y"/><use transform="matrix(0.05,0,0,0.05,20,0)" xlink:href="#z"/><use transform="matrix(0.05,0,0,0.05,25.950000000000003,0)" xlink:href="#A"/><use transform="matrix(0.05,0,0,0.05,34.95,0)" xlink:href="#u"/><use transform="matrix(0.05,0,0,0.05,44.95,0)" xlink:href="#B"/><use transform="matrix(0.05,0,0,0.05,54.95,0)" xlink:href="#C"/><use transform="matrix(0.05,0,0,0.05,59.95,0)" xlink:href="#D"/><use transform="matrix(0.05,0,0,0.05,69.95,0)" xlink:href="#r"/><use transform="matrix(0.05,0,0,0.05,79.95,0)" xlink:href="#x"/><use transform="matrix(0.05,0,0,0.05,89.95,0)" xlink:href="#A"/><use transform="matrix(0.05,0,0,0.05,98.95,0)" xlink:href="#C"/><use transform="matrix(0.05,0,0,0.05,103.95,0)" xlink:href="#z"/><use transform="matrix(0.05,0,0,0.05,109.9,0)" xlink:href="#E"/></g><path fill="#147eba" d="M27 0v-27h64v-190l-56 39v-29l58-41h29v221h61V0H27" id="F"/><g id="c"><use transform="matrix(0.05,0,0,0.05,0,0)" xlink:href="#B"/><use transform="matrix(0.05,0,0,0.05,10,0)" xlink:href="#A"/><use transform="matrix(0.05,0,0,0.05,19,0)" xlink:href="#z"/><use transform="matrix(0.05,0,0,0.05,24.95,0)" xlink:href="#r"/><use transform="matrix(0.05,0,0,0.05,34.95,0)" xlink:href="#x"/><use transform="matrix(0.05,0,0,0.05,44.95,0)" xlink:href="#A"/><use transform="matrix(0.05,0,0,0.05,53.95,0)" xlink:href="#C"/><use transform="matrix(0.05,0,0,0.05,58.95,0)" xlink:href="#z"/><use transform="matrix(0.05,0,0,0.05,64.9,0)" xlink:href="#F"/></g><path fill="#5a6c86" d="M205 0l-28-72H64L36 0H1l101-248h38L239 0h-34zm-38-99l-47-123c-12 45-31 82-46 123h93" id="G"/><path fill="#5a6c86" d="M115-194c55 1 70 41 70 98S169 2 115 4C84 4 66-9 55-30l1 105H24l-1-265h31l2 30c10-21 28-34 59-34zm-8 174c40 0 45-34 45-75s-6-73-45-74c-42 0-51 32-51 76 0 43 10 73 51 73" id="H"/><path fill="#5a6c86" d="M24 0v-261h32V0H24" id="I"/><path fill="#5a6c86" d="M24-231v-30h32v30H24zM24 0v-190h32V0H24" id="J"/><path fill="#5a6c86" d="M96-169c-40 0-48 33-48 73s9 75 48 75c24 0 41-14 43-38l32 2c-6 37-31 61-74 61-59 0-76-41-82-99-10-93 101-131 147-64 4 7 5 14 7 22l-32 3c-4-21-16-35-41-35" id="K"/><path fill="#5a6c86" d="M141-36C126-15 110 5 73 4 37 3 15-17 15-53c-1-64 63-63 125-63 3-35-9-54-41-54-24 1-41 7-42 31l-33-3c5-37 33-52 76-52 45 0 72 20 72 64v82c-1 20 7 32 28 27v20c-31 9-61-2-59-35zM48-53c0 20 12 33 32 33 41-3 63-29 60-74-43 2-92-5-92 41" id="L"/><path fill="#5a6c86" d="M59-47c-2 24 18 29 38 22v24C64 9 27 4 27-40v-127H5v-23h24l9-43h21v43h35v23H59v120" id="M"/><path fill="#5a6c86" d="M100-194c62-1 85 37 85 99 1 63-27 99-86 99S16-35 15-95c0-66 28-99 85-99zM99-20c44 1 53-31 53-75 0-43-8-75-51-75s-53 32-53 75 10 74 51 75" id="N"/><path fill="#5a6c86" d="M117-194c89-4 53 116 60 194h-32v-121c0-31-8-49-39-48C34-167 62-67 57 0H25l-1-190h30c1 10-1 24 2 32 11-22 29-35 61-36" id="O"/><g id="d"><use transform="matrix(0.05,0,0,0.05,0,0)" xlink:href="#G"/><use transform="matrix(0.05,0,0,0.05,12,0)" xlink:href="#H"/><use transform="matrix(0.05,0,0,0.05,22,0)" xlink:href="#H"/><use transform="matrix(0.05,0,0,0.05,32,0)" xlink:href="#I"/><use transform="matrix(0.05,0,0,0.05,35.95,0)" xlink:href="#J"/><use transform="matrix(0.05,0,0,0.05,39.900000000000006,0)" xlink:href="#K"/><use transform="matrix(0.05,0,0,0.05,48.900000000000006,0)" xlink:href="#L"/><use transform="matrix(0.05,0,0,0.05,58.900000000000006,0)" xlink:href="#M"/><use transform="matrix(0.05,0,0,0.05,63.900000000000006,0)" xlink:href="#J"/><use transform="matrix(0.05,0,0,0.05,67.85000000000001,0)" xlink:href="#N"/><use transform="matrix(0.05,0,0,0.05,77.85000000000001,0)" xlink:href="#O"/></g><path fill="#5a6c86" d="M135-143c-3-34-86-38-87 0 15 53 115 12 119 90S17 21 10-45l28-5c4 36 97 45 98 0-10-56-113-15-118-90-4-57 82-63 122-42 12 7 21 19 24 35" id="P"/><path fill="#5a6c86" d="M143 0L79-87 56-68V0H24v-261h32v163l83-92h37l-77 82L181 0h-38" id="Q"/><g id="e"><use transform="matrix(0.05,0,0,0.05,0,0)" xlink:href="#P"/><use transform="matrix(0.05,0,0,0.05,9,0)" xlink:href="#M"/><use transform="matrix(0.05,0,0,0.05,14,0)" xlink:href="#L"/><use transform="matrix(0.05,0,0,0.05,24,0)" xlink:href="#K"/><use transform="matrix(0.05,0,0,0.05,33,0)" xlink:href="#Q"/><use transform="matrix(0.05,0,0,0.05,42,0)" xlink:href="#P"/></g><path d="M59-47c-2 24 18 29 38 22v24C64 9 27 4 27-40v-127H5v-23h24l9-43h21v43h35v23H59v120" id="R"/><path d="M115-194c53 0 69 39 70 98 0 66-23 100-70 100C84 3 66-7 56-30L54 0H23l1-261h32v101c10-23 28-34 59-34zm-8 174c40 0 45-34 45-75 0-40-5-75-45-74-42 0-51 32-51 76 0 43 10 73 51 73" id="S"/><path d="M135-143c-3-34-86-38-87 0 15 53 115 12 119 90S17 21 10-45l28-5c4 36 97 45 98 0-10-56-113-15-118-90-4-57 82-63 122-42 12 7 21 19 24 35" id="T"/><path d="M16-82v-28h88v28H16" id="U"/><path d="M141-36C126-15 110 5 73 4 37 3 15-17 15-53c-1-64 63-63 125-63 3-35-9-54-41-54-24 1-41 7-42 31l-33-3c5-37 33-52 76-52 45 0 72 20 72 64v82c-1 20 7 32 28 27v20c-31 9-61-2-59-35zM48-53c0 20 12 33 32 33 41-3 63-29 60-74-43 2-92-5-92 41" id="V"/><path d="M115-194c55 1 70 41 70 98S169 2 115 4C84 4 66-9 55-30l1 105H24l-1-265h31l2 30c10-21 28-34 59-34zm-8 174c40 0 45-34 45-75s-6-73-45-74c-42 0-51 32-51 76 0 43 10 73 51 73" id="W"/><path d="M114-163C36-179 61-72 57 0H25l-1-190h30c1 12-1 29 2 39 6-27 23-49 58-41v29" id="X"/><path d="M100-194c63 0 86 42 84 106H49c0 40 14 67 53 68 26 1 43-12 49-29l28 8c-11 28-37 45-77 45C44 4 14-33 15-96c1-61 26-98 85-98zm52 81c6-60-76-77-97-28-3 7-6 17-6 28h103" id="Y"/><path d="M100-194c62-1 85 37 85 99 1 63-27 99-86 99S16-35 15-95c0-66 28-99 85-99zM99-20c44 1 53-31 53-75 0-43-8-75-51-75s-53 32-53 75 10 74 51 75" id="Z"/><g id="f"><use transform="matrix(0.06172839506172839,0,0,0.06172839506172839,0,0)" xlink:href="#R"/><use transform="matrix(0.06172839506172839,0,0,0.06172839506172839,6.172839506172839,0)" xlink:href="#S"/><use transform="matrix(0.06172839506172839,0,0,0.06172839506172839,18.51851851851852,0)" xlink:href="#T"/><use transform="matrix(0.06172839506172839,0,0,0.06172839506172839,29.62962962962963,0)" xlink:href="#U"/><use transform="matrix(0.06172839506172839,0,0,0.06172839506172839,36.97530864197531,0)" xlink:href="#V"/><use transform="matrix(0.06172839506172839,0,0,0.06172839506172839,49.32098765432099,0)" xlink:href="#W"/><use transform="matrix(0.06172839506172839,0,0,0.06172839506172839,61.666666666666664,0)" xlink:href="#W"/><use transform="matrix(0.06172839506172839,0,0,0.06172839506172839,74.01234567901234,0)" xlink:href="#U"/><use transform="matrix(0.06172839506172839,0,0,0.06172839506172839,81.35802469135803,0)" xlink:href="#X"/><use transform="matrix(0.06172839506172839,0,0,0.06172839506172839,88.70370370370371,0)" xlink:href="#Y"/><use transform="matrix(0.06172839506172839,0,0,0.06172839506172839,101.0493827160494,0)" xlink:href="#W"/><use transform="matrix(0.06172839506172839,0,0,0.06172839506172839,113.39506172839508,0)" xlink:href="#Z"/><use transform="matrix(0.06172839506172839,0,0,0.06172839506172839,125.74074074074076,0)" xlink:href="#X"/><use transform="matrix(0.06172839506172839,0,0,0.06172839506172839,133.08641975308643,0)" xlink:href="#R"/><use transform="matrix(0.06172839506172839,0,0,0.06172839506172839,139.25925925925927,0)" xlink:href="#T"/></g><path d="M24-231v-30h32v30H24zM24 0v-190h32V0H24" id="aa"/><path d="M117-194c89-4 53 116 60 194h-32v-121c0-31-8-49-39-48C34-167 62-67 57 0H25l-1-190h30c1 10-1 24 2 32 11-22 29-35 61-36" id="ab"/><path d="M101-234c-31-9-42 10-38 44h38v23H63V0H32v-167H5v-23h27c-7-52 17-82 69-68v24" id="ac"/><g id="g"><use transform="matrix(0.06172839506172839,0,0,0.06172839506172839,0,0)" xlink:href="#R"/><use transform="matrix(0.06172839506172839,0,0,0.06172839506172839,6.172839506172839,0)" xlink:href="#S"/><use transform="matrix(0.06172839506172839,0,0,0.06172839506172839,18.51851851851852,0)" xlink:href="#T"/><use transform="matrix(0.06172839506172839,0,0,0.06172839506172839,29.62962962962963,0)" xlink:href="#U"/><use transform="matrix(0.06172839506172839,0,0,0.06172839506172839,36.97530864197531,0)" xlink:href="#aa"/><use transform="matrix(0.06172839506172839,0,0,0.06172839506172839,41.851851851851855,0)" xlink:href="#ab"/><use transform="matrix(0.06172839506172839,0,0,0.06172839506172839,54.19753086419753,0)" xlink:href="#ac"/><use transform="matrix(0.06172839506172839,0,0,0.06172839506172839,60.370370370370374,0)" xlink:href="#X"/><use transform="matrix(0.06172839506172839,0,0,0.06172839506172839,67.71604938271605,0)" xlink:href="#V"/></g><path d="M108 0H70L1-190h34L89-25l56-165h34" id="ad"/><path d="M96-169c-40 0-48 33-48 73s9 75 48 75c24 0 41-14 43-38l32 2c-6 37-31 61-74 61-59 0-76-41-82-99-10-93 101-131 147-64 4 7 5 14 7 22l-32 3c-4-21-16-35-41-35" id="ae"/><g id="h"><use transform="matrix(0.06172839506172839,0,0,0.06172839506172839,0,0)" xlink:href="#R"/><use transform="matrix(0.06172839506172839,0,0,0.06172839506172839,6.172839506172839,0)" xlink:href="#S"/><use transform="matrix(0.06172839506172839,0,0,0.06172839506172839,18.51851851851852,0)" xlink:href="#T"/><use transform="matrix(0.06172839506172839,0,0,0.06172839506172839,29.62962962962963,0)" xlink:href="#U"/><use transform="matrix(0.06172839506172839,0,0,0.06172839506172839,36.97530864197531,0)" xlink:href="#aa"/><use transform="matrix(0.06172839506172839,0,0,0.06172839506172839,41.851851851851855,0)" xlink:href="#ab"/><use transform="matrix(0.06172839506172839,0,0,0.06172839506172839,54.19753086419753,0)" xlink:href="#ac"/><use transform="matrix(0.06172839506172839,0,0,0.06172839506172839,60.370370370370374,0)" xlink:href="#X"/><use transform="matrix(0.06172839506172839,0,0,0.06172839506172839,67.71604938271605,0)" xlink:href="#V"/><use transform="matrix(0.06172839506172839,0,0,0.06172839506172839,80.06172839506173,0)" xlink:href="#U"/><use transform="matrix(0.06172839506172839,0,0,0.06172839506172839,87.40740740740742,0)" xlink:href="#ad"/><use transform="matrix(0.06172839506172839,0,0,0.06172839506172839,98.51851851851853,0)" xlink:href="#W"/><use transform="matrix(0.06172839506172839,0,0,0.06172839506172839,110.86419753086422,0)" xlink:href="#ae"/></g><path d="M143 0L79-87 56-68V0H24v-261h32v163l83-92h37l-77 82L181 0h-38" id="af"/><path d="M210-169c-67 3-38 105-44 169h-31v-121c0-29-5-50-35-48C34-165 62-65 56 0H25l-1-190h30c1 10-1 24 2 32 10-44 99-50 107 0 11-21 27-35 58-36 85-2 47 119 55 194h-31v-121c0-29-5-49-35-48" id="ag"/><g id="i"><use transform="matrix(0.06172839506172839,0,0,0.06172839506172839,0,0)" xlink:href="#R"/><use transform="matrix(0.06172839506172839,0,0,0.06172839506172839,6.172839506172839,0)" xlink:href="#S"/><use transform="matrix(0.06172839506172839,0,0,0.06172839506172839,18.51851851851852,0)" xlink:href="#T"/><use transform="matrix(0.06172839506172839,0,0,0.06172839506172839,29.62962962962963,0)" xlink:href="#U"/><use transform="matrix(0.06172839506172839,0,0,0.06172839506172839,36.97530864197531,0)" xlink:href="#T"/><use transform="matrix(0.06172839506172839,0,0,0.06172839506172839,48.08641975308642,0)" xlink:href="#Y"/><use transform="matrix(0.06172839506172839,0,0,0.06172839506172839,60.432098765432094,0)" xlink:href="#ae"/><use transform="matrix(0.06172839506172839,0,0,0.06172839506172839,71.5432098765432,0)" xlink:href="#U"/><use transform="matrix(0.06172839506172839,0,0,0.06172839506172839,78.88888888888889,0)" xlink:href="#af"/><use transform="matrix(0.06172839506172839,0,0,0.06172839506172839,90,0)" xlink:href="#ag"/><use transform="matrix(0.06172839506172839,0,0,0.06172839506172839,108.45679012345678,0)" xlink:href="#T"/></g><path d="M84 4C-5 8 30-112 23-190h32v120c0 31 7 50 39 49 72-2 45-101 50-169h31l1 190h-30c-1-10 1-25-2-33-11 22-28 36-60 37" id="ah"/><path d="M24 0v-261h32V0H24" id="ai"/><g id="j"><use transform="matrix(0.06172839506172839,0,0,0.06172839506172839,0,0)" xlink:href="#R"/><use transform="matrix(0.06172839506172839,0,0,0.06172839506172839,6.172839506172839,0)" xlink:href="#S"/><use transform="matrix(0.06172839506172839,0,0,0.06172839506172839,18.51851851851852,0)" xlink:href="#T"/><use transform="matrix(0.06172839506172839,0,0,0.06172839506172839,29.62962962962963,0)" xlink:href="#U"/><use transform="matrix(0.06172839506172839,0,0,0.06172839506172839,36.97530864197531,0)" xlink:href="#V"/><use transform="matrix(0.06172839506172839,0,0,0.06172839506172839,49.32098765432099,0)" xlink:href="#W"/><use transform="matrix(0.06172839506172839,0,0,0.06172839506172839,61.666666666666664,0)" xlink:href="#W"/><use transform="matrix(0.06172839506172839,0,0,0.06172839506172839,74.01234567901234,0)" xlink:href="#U"/><use transform="matrix(0.06172839506172839,0,0,0.06172839506172839,81.35802469135803,0)" xlink:href="#ac"/><use transform="matrix(0.06172839506172839,0,0,0.06172839506172839,87.53086419753086,0)" xlink:href="#ah"/><use transform="matrix(0.06172839506172839,0,0,0.06172839506172839,99.87654320987654,0)" xlink:href="#ai"/><use transform="matrix(0.06172839506172839,0,0,0.06172839506172839,104.75308641975309,0)" xlink:href="#ac"/><use transform="matrix(0.06172839506172839,0,0,0.06172839506172839,110.92592592592592,0)" xlink:href="#aa"/><use transform="matrix(0.06172839506172839,0,0,0.06172839506172839,115.80246913580247,0)" xlink:href="#ai"/><use transform="matrix(0.06172839506172839,0,0,0.06172839506172839,120.67901234567901,0)" xlink:href="#ai"/><use transform="matrix(0.06172839506172839,0,0,0.06172839506172839,125.55555555555556,0)" xlink:href="#ag"/><use transform="matrix(0.06172839506172839,0,0,0.06172839506172839,144.01234567901236,0)" xlink:href="#Y"/><use transform="matrix(0.06172839506172839,0,0,0.06172839506172839,156.35802469135803,0)" xlink:href="#ab"/><use transform="matrix(0.06172839506172839,0,0,0.06172839506172839,168.7037037037037,0)" xlink:href="#R"/></g><path d="M177-190C167-65 218 103 67 71c-23-6-38-20-44-43l32-5c15 47 100 32 89-28v-30C133-14 115 1 83 1 29 1 15-40 15-95c0-56 16-97 71-98 29-1 48 16 59 35 1-10 0-23 2-32h30zM94-22c36 0 50-32 50-73 0-42-14-75-50-75-39 0-46 34-46 75s6 73 46 73" id="aj"/><g id="k"><use transform="matrix(0.06172839506172839,0,0,0.06172839506172839,0,0)" xlink:href="#R"/><use transform="matrix(0.06172839506172839,0,0,0.06172839506172839,6.172839506172839,0)" xlink:href="#S"/><use transform="matrix(0.06172839506172839,0,0,0.06172839506172839,18.51851851851852,0)" xlink:href="#T"/><use transform="matrix(0.06172839506172839,0,0,0.06172839506172839,29.62962962962963,0)" xlink:href="#U"/><use transform="matrix(0.06172839506172839,0,0,0.06172839506172839,36.97530864197531,0)" xlink:href="#V"/><use transform="matrix(0.06172839506172839,0,0,0.06172839506172839,49.32098765432099,0)" xlink:href="#W"/><use transform="matrix(0.06172839506172839,0,0,0.06172839506172839,61.666666666666664,0)" xlink:href="#W"/><use transform="matrix(0.06172839506172839,0,0,0.06172839506172839,74.01234567901234,0)" xlink:href="#U"/><use transform="matrix(0.06172839506172839,0,0,0.06172839506172839,81.35802469135803,0)" xlink:href="#ai"/><use transform="matrix(0.06172839506172839,0,0,0.06172839506172839,86.23456790123457,0)" xlink:href="#Z"/><use transform="matrix(0.06172839506172839,0,0,0.06172839506172839,98.58024691358025,0)" xlink:href="#aj"/><use transform="matrix(0.06172839506172839,0,0,0.06172839506172839,110.92592592592594,0)" xlink:href="#aa"/><use transform="matrix(0.06172839506172839,0,0,0.06172839506172839,115.80246913580248,0)" xlink:href="#ab"/></g><path d="M85-194c31 0 48 13 60 33l-1-100h32l1 261h-30c-2-10 0-23-3-31C134-8 116 4 85 4 32 4 16-35 15-94c0-66 23-100 70-100zm9 24c-40 0-46 34-46 75 0 40 6 74 45 74 42 0 51-32 51-76 0-42-9-74-50-73" id="ak"/><g id="l"><use transform="matrix(0.06172839506172839,0,0,0.06172839506172839,0,0)" xlink:href="#R"/><use transform="matrix(0.06172839506172839,0,0,0.06172839506172839,6.172839506172839,0)" xlink:href="#S"/><use transform="matrix(0.06172839506172839,0,0,0.06172839506172839,18.51851851851852,0)" xlink:href="#T"/><use transform="matrix(0.06172839506172839,0,0,0.06172839506172839,29.62962962962963,0)" xlink:href="#U"/><use transform="matrix(0.06172839506172839,0,0,0.06172839506172839,36.97530864197531,0)" xlink:href="#V"/><use transform="matrix(0.06172839506172839,0,0,0.06172839506172839,49.32098765432099,0)" xlink:href="#W"/><use transform="matrix(0.06172839506172839,0,0,0.06172839506172839,61.666666666666664,0)" xlink:href="#W"/><use transform="matrix(0.06172839506172839,0,0,0.06172839506172839,74.01234567901234,0)" xlink:href="#U"/><use transform="matrix(0.06172839506172839,0,0,0.06172839506172839,81.35802469135803,0)" xlink:href="#Z"/><use transform="matrix(0.06172839506172839,0,0,0.06172839506172839,93.70370370370371,0)" xlink:href="#X"/><use transform="matrix(0.06172839506172839,0,0,0.06172839506172839,101.0493827160494,0)" xlink:href="#ak"/><use transform="matrix(0.06172839506172839,0,0,0.06172839506172839,113.39506172839508,0)" xlink:href="#Y"/><use transform="matrix(0.06172839506172839,0,0,0.06172839506172839,125.74074074074076,0)" xlink:href="#X"/></g><path d="M179-190L93 31C79 59 56 82 12 73V49c39 6 53-20 64-50L1-190h34L92-34l54-156h33" id="al"/><g id="m"><use transform="matrix(0.06172839506172839,0,0,0.06172839506172839,0,0)" xlink:href="#R"/><use transform="matrix(0.06172839506172839,0,0,0.06172839506172839,6.172839506172839,0)" xlink:href="#S"/><use transform="matrix(0.06172839506172839,0,0,0.06172839506172839,18.51851851851852,0)" xlink:href="#T"/><use transform="matrix(0.06172839506172839,0,0,0.06172839506172839,29.62962962962963,0)" xlink:href="#U"/><use transform="matrix(0.06172839506172839,0,0,0.06172839506172839,36.97530864197531,0)" xlink:href="#V"/><use transform="matrix(0.06172839506172839,0,0,0.06172839506172839,49.32098765432099,0)" xlink:href="#W"/><use transform="matrix(0.06172839506172839,0,0,0.06172839506172839,61.666666666666664,0)" xlink:href="#W"/><use transform="matrix(0.06172839506172839,0,0,0.06172839506172839,74.01234567901234,0)" xlink:href="#U"/><use transform="matrix(0.06172839506172839,0,0,0.06172839506172839,81.35802469135803,0)" xlink:href="#aa"/><use transform="matrix(0.06172839506172839,0,0,0.06172839506172839,86.23456790123457,0)" xlink:href="#ab"/><use transform="matrix(0.06172839506172839,0,0,0.06172839506172839,98.58024691358025,0)" xlink:href="#ad"/><use transform="matrix(0.06172839506172839,0,0,0.06172839506172839,109.69135802469137,0)" xlink:href="#Y"/><use transform="matrix(0.06172839506172839,0,0,0.06172839506172839,122.03703703703705,0)" xlink:href="#ab"/><use transform="matrix(0.06172839506172839,0,0,0.06172839506172839,134.38271604938274,0)" xlink:href="#R"/><use transform="matrix(0.06172839506172839,0,0,0.06172839506172839,140.55555555555557,0)" xlink:href="#Z"/><use transform="matrix(0.06172839506172839,0,0,0.06172839506172839,152.90123456790124,0)" xlink:href="#X"/><use transform="matrix(0.06172839506172839,0,0,0.06172839506172839,160.2469135802469,0)" xlink:href="#al"/></g><g id="n"><use transform="matrix(0.06172839506172839,0,0,0.06172839506172839,0,0)" xlink:href="#R"/><use transform="matrix(0.06172839506172839,0,0,0.06172839506172839,6.172839506172839,0)" xlink:href="#S"/><use transform="matrix(0.06172839506172839,0,0,0.06172839506172839,18.51851851851852,0)" xlink:href="#T"/><use transform="matrix(0.06172839506172839,0,0,0.06172839506172839,29.62962962962963,0)" xlink:href="#U"/><use transform="matrix(0.06172839506172839,0,0,0.06172839506172839,36.97530864197531,0)" xlink:href="#V"/><use transform="matrix(0.06172839506172839,0,0,0.06172839506172839,49.32098765432099,0)" xlink:href="#W"/><use transform="matrix(0.06172839506172839,0,0,0.06172839506172839,61.666666666666664,0)" xlink:href="#W"/><use transform="matrix(0.06172839506172839,0,0,0.06172839506172839,74.01234567901234,0)" xlink:href="#U"/><use transform="matrix(0.06172839506172839,0,0,0.06172839506172839,81.35802469135803,0)" xlink:href="#W"/><use transform="matrix(0.06172839506172839,0,0,0.06172839506172839,93.70370370370371,0)" xlink:href="#X"/><use transform="matrix(0.06172839506172839,0,0,0.06172839506172839,101.0493827160494,0)" xlink:href="#Z"/><use transform="matrix(0.06172839506172839,0,0,0.06172839506172839,113.39506172839508,0)" xlink:href="#ak"/><use transform="matrix(0.06172839506172839,0,0,0.06172839506172839,125.74074074074076,0)" xlink:href="#ah"/><use transform="matrix(0.06172839506172839,0,0,0.06172839506172839,138.08641975308643,0)" xlink:href="#ae"/><use transform="matrix(0.06172839506172839,0,0,0.06172839506172839,149.19753086419755,0)" xlink:href="#R"/></g><g id="o"><use transform="matrix(0.06172839506172839,0,0,0.06172839506172839,0,0)" xlink:href="#R"/><use transform="matrix(0.06172839506172839,0,0,0.06172839506172839,6.172839506172839,0)" xlink:href="#S"/><use transform="matrix(0.06172839506172839,0,0,0.06172839506172839,18.51851851851852,0)" xlink:href="#T"/><use transform="matrix(0.06172839506172839,0,0,0.06172839506172839,29.62962962962963,0)" xlink:href="#U"/><use transform="matrix(0.06172839506172839,0,0,0.06172839506172839,36.97530864197531,0)" xlink:href="#aa"/><use transform="matrix(0.06172839506172839,0,0,0.06172839506172839,41.851851851851855,0)" xlink:href="#ab"/><use transform="matrix(0.06172839506172839,0,0,0.06172839506172839,54.19753086419753,0)" xlink:href="#ac"/><use transform="matrix(0.06172839506172839,0,0,0.06172839506172839,60.370370370370374,0)" xlink:href="#X"/><use transform="matrix(0.06172839506172839,0,0,0.06172839506172839,67.71604938271605,0)" xlink:href="#V"/></g><path d="M206 0h-36l-40-164L89 0H53L-1-190h32L70-26l43-164h34l41 164 42-164h31" id="am"/><g id="p"><use transform="matrix(0.06172839506172839,0,0,0.06172839506172839,0,0)" xlink:href="#R"/><use transform="matrix(0.06172839506172839,0,0,0.06172839506172839,6.172839506172839,0)" xlink:href="#S"/><use transform="matrix(0.06172839506172839,0,0,0.06172839506172839,18.51851851851852,0)" xlink:href="#T"/><use transform="matrix(0.06172839506172839,0,0,0.06172839506172839,29.62962962962963,0)" xlink:href="#U"/><use transform="matrix(0.06172839506172839,0,0,0.06172839506172839,36.97530864197531,0)" xlink:href="#am"/><use transform="matrix(0.06172839506172839,0,0,0.06172839506172839,52.96296296296296,0)" xlink:href="#Y"/><use transform="matrix(0.06172839506172839,0,0,0.06172839506172839,65.30864197530865,0)" xlink:href="#S"/><use transform="matrix(0.06172839506172839,0,0,0.06172839506172839,77.65432098765433,0)" xlink:href="#U"/><use transform="matrix(0.06172839506172839,0,0,0.06172839506172839,85.00000000000001,0)" xlink:href="#ag"/><use transform="matrix(0.06172839506172839,0,0,0.06172839506172839,103.4567901234568,0)" xlink:href="#V"/><use transform="matrix(0.06172839506172839,0,0,0.06172839506172839,115.80246913580248,0)" xlink:href="#aa"/><use transform="matrix(0.06172839506172839,0,0,0.06172839506172839,120.67901234567903,0)" xlink:href="#ab"/></g></defs></g></svg>