<svg xmlns="http://www.w3.org/2000/svg" xmlns:xlink="http://www.w3.org/1999/xlink" xmlns:lucid="lucid" width="1899.84" height="1002.73"><g transform="translate(-2.2407407407407334 -98.32734225929119)" lucid:page-tab-id="g5cleE3Nyd99"><path d="M0 0h3677.73v1322.84H0z" fill="#fff"/><path d="M1186.25 222.55v10.08m0 10.07v20.15m0 10.07v20.15m0 10.08v20.15m0 10.07v20.15m0 10.08v20.15m0 10.07v20.15m0 10.08v20.14m0 10.07v20.15m0 10.07v20.14m0 10.08v20.15m0 10.07v20.15m0 10.07v20.15m0 10.07v20.14m0 10.08v20.14m0 10.08V686m0 10.06v20.15m0 10.1v20.14m0 10.07v20.16m0 10.08v20.15m0 10.06v20.15m0 10.08v20.15m0 10.08v20.16m0 10.07v20.15m0 10.08V958m0 10.08v20.15m0 10.07v20.16m0 10.07v20.15m0 10.07v20.15m0 10.08v10.07" stroke="#5e5e5e" stroke-width="2" fill="none"/><path d="M1187.22 222.58h-1.94v-1.03h1.94z" stroke="#5e5e5e" stroke-width=".05" fill="#5e5e5e"/><path d="M1186.25 1099.03v1.02" stroke="#5e5e5e" stroke-width="2" fill="none"/><path d="M1166.25 326a6 6 0 0 1 6-6h28a6 6 0 0 1 6 6v308a6 6 0 0 1-6 6h-28a6 6 0 0 1-6-6zM100 106a6 6 0 0 1 6-6h148a6 6 0 0 1 6 6v108a6 6 0 0 1-6 6H106a6 6 0 0 1-6-6z" stroke="#5e5e5e" stroke-width="3" fill="#fff"/><use xlink:href="#a" transform="matrix(1,0,0,1,100,100) translate(15.079999999999993 51.9)"/><use xlink:href="#b" transform="matrix(1,0,0,1,100,100) translate(8.904999999999996 73.5)"/><use xlink:href="#c" transform="matrix(1,0,0,1,100,100) translate(54.20499999999999 73.5)"/><path d="M180 222.5v10.07m0 10.08v20.15m0 10.07v20.15m0 10.08v20.15m0 10.07v20.15m0 10.08v20.14m0 10.07v20.15m0 10.07v20.14m0 10.08v20.15m0 10.07v20.15m0 10.07v20.15m0 10.07v20.14m0 10.08v20.14m0 10.08v20.15m0 10.06v20.15m0 10.1v20.14m0 10.07v20.16m0 10.08v20.14m0 10.08v20.15m0 10.08v20.15m0 10.08v20.16m0 10.07v20.15m0 10.08v20.15m0 10.08v20.15m0 10.07v20.15m0 10.08v20.15m0 10.07v20.15m0 10.08v20.15m0 10.07v20.15m0 10.08V1099" stroke="#5e5e5e" stroke-width="2" fill="none"/><path d="M180.97 222.53h-1.94v-1.03h1.94z" stroke="#5e5e5e" stroke-width=".05" fill="#5e5e5e"/><path d="M180 1098.97v1.03" stroke="#5e5e5e" stroke-width="2" fill="none"/><path d="M518.5 105.83a6 6 0 0 1 6-6h148a6 6 0 0 1 6 6v108a6 6 0 0 1-6 6h-148a6 6 0 0 1-6-6z" stroke="#5e5e5e" stroke-width="3" fill="#fff"/><use xlink:href="#a" transform="matrix(1,0,0,1,518.5000929686806,99.82734225929119) translate(15.079999999999993 40.65)"/><use xlink:href="#d" transform="matrix(1,0,0,1,518.5000929686806,99.82734225929119) translate(30.10499999999999 62.25)"/><use xlink:href="#e" transform="matrix(1,0,0,1,518.5000929686806,99.82734225929119) translate(20.129999999999995 83.85000000000001)"/><use xlink:href="#f" transform="matrix(1,0,0,1,518.5000929686806,99.82734225929119) translate(68.97999999999999 83.85000000000001)"/><path d="M598.5 222.33v10.07m0 10.08v20.15m0 10.07v20.15m0 10.07v20.15m0 10.08v20.15m0 10.07v20.15m0 10.08v20.15m0 10.07v20.15m0 10.08v20.14m0 10.07v20.15m0 10.07v20.14m0 10.08v20.15m0 10.07v20.15m0 10.07v20.15m0 10.07v20.14m0 10.08v20.14m0 10.08V716m0 10.06v20.15m0 10.1v20.14m0 10.07v20.16m0 10.08v20.14m0 10.08v20.15m0 10.08v20.15m0 10.08v20.16m0 10.07v20.15m0 10.08V988m0 10.08v20.15m0 10.07v20.15m0 10.08v20.15m0 10.07v10.08" stroke="#5e5e5e" stroke-width="2" fill="none"/><path d="M599.48 222.35h-1.96v-1.02h1.96z" stroke="#5e5e5e" stroke-width=".05" fill="#5e5e5e"/><path d="M598.5 1098.8v1.03" stroke="#5e5e5e" stroke-width="2" fill="none"/><path d="M897 106a6 6 0 0 1 6-6h148a6 6 0 0 1 6 6v108a6 6 0 0 1-6 6H903a6 6 0 0 1-6-6z" stroke="#5e5e5e" stroke-width="3" fill="#fff"/><use xlink:href="#a" transform="matrix(1,0,0,1,897.0001339408915,100.0004459784027) translate(15.079999999999993 51.9)"/><use xlink:href="#g" transform="matrix(1,0,0,1,897.0001339408915,100.0004459784027) translate(27.10499999999999 73.5)"/><path d="M977 222.5v10.07m0 10.08v20.15m0 10.07v20.15m0 10.08v20.15m0 10.07v20.15m0 10.08v20.15m0 10.07v20.15m0 10.07v20.14m0 10.08v20.15m0 10.07v20.15m0 10.07v20.15m0 10.07v20.14m0 10.08v20.14m0 10.08v20.15m0 10.06v20.15m0 10.1v20.14m0 10.07v20.16m0 10.08v20.14m0 10.08v20.15m0 10.08v20.15m0 10.08v20.16m0 10.07v20.15m0 10.08v20.15m0 10.08v20.15m0 10.07v20.15m0 10.08v20.15m0 10.07v20.15m0 10.08v20.15m0 10.07v20.15m0 10.08V1099" stroke="#5e5e5e" stroke-width="2" fill="none"/><path d="M977.98 222.53H976v-1.03H978z" stroke="#5e5e5e" stroke-width=".05" fill="#5e5e5e"/><path d="M977 1098.97v1.03" stroke="#5e5e5e" stroke-width="2" fill="none"/><path d="M1740 106.05a6 6 0 0 1 6-6h148a6 6 0 0 1 6 6v108a6 6 0 0 1-6 6h-148a6 6 0 0 1-6-6z" stroke="#5e5e5e" stroke-width="3" fill="#fff"/><use xlink:href="#h" transform="matrix(1,0,0,1,1740,100.05125263013599) translate(6.079999999999993 51.9)"/><use xlink:href="#i" transform="matrix(1,0,0,1,1740,100.05125263013599) translate(31.054999999999993 73.5)"/><path d="M1820 222.55v10.08m0 10.07v20.15m0 10.07v20.15m0 10.08v20.15m0 10.07v20.15m0 10.08v20.15m0 10.07v20.15m0 10.08v20.14m0 10.07v20.15m0 10.07v20.14m0 10.08v20.15m0 10.07v20.15m0 10.07v20.15m0 10.07v20.14m0 10.08v20.14m0 10.08V686m0 10.06v20.15m0 10.1v20.14m0 10.07v20.16m0 10.08v20.15m0 10.06v20.15m0 10.08v20.15m0 10.08v20.16m0 10.07v20.15m0 10.08V958m0 10.08v20.15m0 10.07v20.16m0 10.07v20.15m0 10.07v20.15m0 10.08v10.07" stroke="#5e5e5e" stroke-width="2" fill="none"/><path d="M1820.97 222.58h-1.94v-1.03h1.94z" stroke="#5e5e5e" stroke-width=".05" fill="#5e5e5e"/><path d="M1820 1099.03v1.02" stroke="#5e5e5e" stroke-width="2" fill="none"/><path d="M160 266a6 6 0 0 1 6-6h28a6 6 0 0 1 6 6v648a6 6 0 0 1-6 6h-28a6 6 0 0 1-6-6z" stroke="#5e5e5e" stroke-width="3" fill="#fff"/><path d="M72.5 299.98H140" stroke="#5e5e5e" stroke-width="2" fill="none"/><path d="M72.53 300.95H71.5V299h1.03z" stroke="#5e5e5e" stroke-width=".05" fill="#5e5e5e"/><path d="M155.26 299.98L141 304.6v-9.26z" stroke="#5e5e5e" stroke-width="2" fill="#5e5e5e"/><use xlink:href="#j" transform="matrix(1,0,0,1,104.1697365700822,270.0095978019283) translate(0 14.222222222222223)"/><path d="M578.5 285.83a6 6 0 0 1 6-6h28a6 6 0 0 1 6 6v88a6 6 0 0 1-6 6h-28a6 6 0 0 1-6-6z" stroke="#5e5e5e" stroke-width="3" fill="#fff"/><path d="M202.5 320h186.65a.1.1 0 0 0 .1-.1.1.1 0 0 1 .1-.1H558.5" stroke="#5e5e5e" stroke-width="2" fill="none"/><path d="M202.53 320.98h-1.03v-1.95h1.03z" stroke="#5e5e5e" stroke-width=".05" fill="#5e5e5e"/><path d="M573.76 319.8l-14.26 4.65v-9.27z" stroke="#5e5e5e" stroke-width="2" fill="#5e5e5e"/><use xlink:href="#k" transform="matrix(1,0,0,1,333.04801850973166,294.47737036298474) translate(0 14.222222222222223)"/><path d="M957 306a6 6 0 0 1 6-6h28a6 6 0 0 1 6 6v488a6 6 0 0 1-6 6h-28a6 6 0 0 1-6-6zM1800 706a6 6 0 0 1 6-6h28a6 6 0 0 1 6 6v88a6 6 0 0 1-6 6h-28a6 6 0 0 1-6-6zM1315.5 106.03a6 6 0 0 1 6-6h148a6 6 0 0 1 6 6v108a6 6 0 0 1-6 6h-148a6 6 0 0 1-6-6z" stroke="#5e5e5e" stroke-width="3" fill="#fff"/><use xlink:href="#h" transform="matrix(1,0,0,1,1315.500185939335,100.02978224089316) translate(6.079999999999993 51.9)"/><use xlink:href="#l" transform="matrix(1,0,0,1,1315.500185939335,100.02978224089316) translate(14.130000000000004 73.5)"/><path d="M1395.5 222.53v10.07m0 10.08v20.15m0 10.07v20.15m0 10.08v20.15m0 10.07v20.15m0 10.08v20.15m0 10.07v20.15m0 10.07v20.15m0 10.08v20.15m0 10.07v20.15m0 10.08v20.15m0 10.07v20.15m0 10.07v20.15m0 10.07v20.15m0 10.07v20.14m0 10.08v20.15m0 10.07v20.15m0 10.07v20.15m0 10.07v20.14m0 10.08v20.14m0 10.08v20.15m0 10.06v20.15m0 10.1v20.14m0 10.07v20.16m0 10.08v20.14m0 10.08v20.15m0 10.08v20.15m0 10.08v20.16m0 10.07v20.15m0 10.08v10.07" stroke="#5e5e5e" stroke-width="2" fill="none"/><path d="M1396.47 222.56h-1.94v-1.03h1.94z" stroke="#5e5e5e" stroke-width=".05" fill="#5e5e5e"/><path d="M1395.5 1099v1.03" stroke="#5e5e5e" stroke-width="2" fill="none"/><path d="M1525.5 106.03a6 6 0 0 1 6-6h148a6 6 0 0 1 6 6v108a6 6 0 0 1-6 6h-148a6 6 0 0 1-6-6z" stroke="#5e5e5e" stroke-width="3" fill="#fff"/><use xlink:href="#h" transform="matrix(1,0,0,1,1525.5001859393346,100.02978224089316) translate(6.079999999999993 51.9)"/><use xlink:href="#m" transform="matrix(1,0,0,1,1525.5001859393346,100.02978224089316) translate(34.07999999999999 73.5)"/><path d="M1605.5 222.53v10.07m0 10.08v20.15m0 10.07v20.15m0 10.08v20.15m0 10.07v20.15m0 10.08v20.15m0 10.07v20.15m0 10.07v20.15m0 10.08v20.15m0 10.07v20.15m0 10.08v20.15m0 10.07v20.15m0 10.07v20.15m0 10.07v20.15m0 10.07v20.14m0 10.08v20.15m0 10.07v20.15m0 10.07v20.15m0 10.07v20.14m0 10.08v20.14m0 10.08v20.15m0 10.06v20.15m0 10.1v20.14m0 10.07v20.16m0 10.08v20.14m0 10.08v20.15m0 10.08v20.15m0 10.08v20.16m0 10.07v20.15m0 10.08v10.07" stroke="#5e5e5e" stroke-width="2" fill="none"/><path d="M1606.47 222.56h-1.94v-1.03h1.94z" stroke="#5e5e5e" stroke-width=".05" fill="#5e5e5e"/><path d="M1605.5 1099v1.03" stroke="#5e5e5e" stroke-width="2" fill="none"/><path d="M1585.5 406a6 6 0 0 1 6-6h28a6 6 0 0 1 6 6v48a6 6 0 0 1-6 6h-28a6 6 0 0 1-6-6zM1375.5 366a6 6 0 0 1 6-6h28a6 6 0 0 1 6 6v148.03a6 6 0 0 1-6 6h-28a6 6 0 0 1-6-6zM1106.25 106.05a6 6 0 0 1 6-6h148a6 6 0 0 1 6 6v108a6 6 0 0 1-6 6h-148a6 6 0 0 1-6-6z" stroke="#5e5e5e" stroke-width="3" fill="#fff"/><use xlink:href="#n" transform="matrix(1,0,0,1,1106.250159940113,100.05125263013599) translate(26.054999999999993 51.9)"/><use xlink:href="#o" transform="matrix(1,0,0,1,1106.250159940113,100.05125263013599) translate(56.555 73.5)"/><path d="M1418 420h147.5" stroke="#5e5e5e" stroke-width="2" fill="none"/><path d="M1418.03 420.97H1417v-1.95h1.03z" stroke="#5e5e5e" stroke-width=".05" fill="#5e5e5e"/><path d="M1580.76 420l-14.26 4.63v-9.27z" stroke="#5e5e5e" stroke-width="2" fill="#5e5e5e"/><use xlink:href="#p" transform="matrix(1,0,0,1,1480.8705391190974,394.6572770834179) translate(0 14.222222222222223)"/><path d="M49.98 113.64l17.52 13.14v3.56c0 9.3-7.85 16.83-17.52 16.83s-17.5-7.54-17.5-16.83v-3.56zM59.96 151.84c11.1 0 20.04 6.46 20.04 16.96v21.24H68.48v-14.9H66.5v14.9H33.86v-14.9h-1.98v14.9H20V168.8c0-10.5 8.94-16.96 20.04-16.96z" fill="#7d7c7c"/><path d="M49.97 110.05c9.6.07 17.3 7.62 17.24 16.84-.06 9.2-7.92 16.63-17.5 16.56-9.53-.07-17.22-7.48-17.25-16.67 0-9.27 7.85-16.75 17.48-16.75h.04zM59.96 148.3c11.1 0 20.04 6.45 20.04 16.95v21.24H68.48v-14.94H66.5v14.93H33.86v-14.94h-1.98v14.93H20v-21.25c0-10.5 8.94-16.96 20.04-16.96z" fill="#d2d3d3"/><use xlink:href="#q" transform="matrix(1,0,0,1,20,190.051252630136) translate(8.425925925925927 17.77777777777778)"/><use xlink:href="#r" transform="matrix(1,0,0,1,20,190.051252630136) translate(-16.759259259259267 44.44444444444444)"/><path d="M999.5 358.67h146.75" stroke="#5e5e5e" stroke-width="2" fill="none"/><path d="M999.53 359.64h-1.03v-1.95h1.03z" stroke="#5e5e5e" stroke-width=".05" fill="#5e5e5e"/><path d="M1161.5 358.67l-14.25 4.63v-9.27z" stroke="#5e5e5e" stroke-width="2" fill="#5e5e5e"/><use xlink:href="#s" transform="matrix(1,0,0,1,1018.4892859673405,311.99996198743804) translate(0 14.222222222222223)"/><use xlink:href="#t" transform="matrix(1,0,0,1,1018.4892859673405,311.99996198743804) translate(0 35.55555555555556)"/><use xlink:href="#u" transform="matrix(1,0,0,1,1018.4892859673405,311.99996198743804) translate(53.135802469135804 35.55555555555556)"/><path d="M999.5 405.33h356" stroke="#5e5e5e" stroke-width="2" fill="none"/><path d="M999.53 406.3h-1.03v-1.94h1.03z" stroke="#5e5e5e" stroke-width=".05" fill="#5e5e5e"/><path d="M1370.76 405.33l-14.26 4.64v-9.27z" stroke="#5e5e5e" stroke-width="2" fill="#5e5e5e"/><use xlink:href="#v" transform="matrix(1,0,0,1,1113.7808295221907,380.00045902345755) translate(0 14.222222222222223)"/><path d="M954.5 436h-9.64m-9.64 0h-19.28m-9.65 0H887m-9.63 0H858.1m-9.65 0h-19.28m-9.64 0h-19.3m-9.63 0h-19.28m-9.64 0H742.4m-9.64 0h-19.3m-9.63 0h-19.28m-9.64 0h-19.27m-9.64 0h-19.3m-9.64 0h-19.28m-9.64 0h-19.28m-9.64 0h-19.28m-9.64 0h-19.28m-9.64 0H482.1m-9.64 0H453.2m-9.65 0h-19.28m-9.64 0h-19.28m-9.64 0h-19.27m-9.64 0h-19.3m-9.63 0H308.6m-9.65 0h-19.28m-9.64 0h-19.28m-9.64 0h-19.27m-9.64 0h-9.65" stroke="#5e5e5e" stroke-width="2" fill="none"/><path d="M955.5 436.98h-1.02v-1.96h1.02z" stroke="#5e5e5e" stroke-width=".05" fill="#5e5e5e"/><path d="M202 436l18.2-10.5" stroke="#5e5e5e" stroke-width="2" fill="none"/><use xlink:href="#w" transform="matrix(1,0,0,1,461.73461123906975,440.00038703101154) translate(0 14.222222222222223)"/><use xlink:href="#x" transform="matrix(1,0,0,1,461.73461123906975,440.00038703101154) translate(56.14814814814816 14.222222222222223)"/><use xlink:href="#y" transform="matrix(1,0,0,1,461.73461123906975,440.00038703101154) translate(111.35802469135804 14.222222222222223)"/><path d="M72.5 517.33h1073.75" stroke="#5e5e5e" stroke-width="2" fill="none"/><path d="M72.53 518.3H71.5v-1.94h1.03z" stroke="#5e5e5e" stroke-width=".05" fill="#5e5e5e"/><path d="M1161.5 517.33l-14.25 4.64v-9.27z" stroke="#5e5e5e" stroke-width="2" fill="#5e5e5e"/><use xlink:href="#z" transform="matrix(1,0,0,1,542.7423644790249,492.00025600925665) translate(0 14.222222222222223)"/><path d="M707.75 106.05a6 6 0 0 1 6-6h148a6 6 0 0 1 6 6v108a6 6 0 0 1-6 6h-148a6 6 0 0 1-6-6z" stroke="#5e5e5e" stroke-width="3" fill="#fff"/><use xlink:href="#a" transform="matrix(1,0,0,1,707.7501134547861,100.05125263013599) translate(15.079999999999993 40.65)"/><use xlink:href="#A" transform="matrix(1,0,0,1,707.7501134547861,100.05125263013599) translate(25.654999999999987 62.25)"/><use xlink:href="#B" transform="matrix(1,0,0,1,707.7501134547861,100.05125263013599) translate(16.07999999999999 83.85000000000001)"/><use xlink:href="#f" transform="matrix(1,0,0,1,707.7501134547861,100.05125263013599) translate(73.03 83.85000000000001)"/><path d="M787.75 222.55v10.08m0 10.07v20.15m0 10.07v20.15m0 10.08v20.15m0 10.07v20.15m0 10.08v20.15m0 10.07v20.15m0 10.07v20.15m0 10.07v20.15m0 10.07v20.14m0 10.08v20.15m0 10.07v20.15m0 10.07v20.15m0 10.07v20.14m0 10.07v20.16m0 10.08V686m0 10.06v20.15m0 10.1v20.14m0 10.07v20.16m0 10.08v20.14m0 10.08v20.15m0 10.08v20.15m0 10.08v20.16m0 10.07v20.15m0 10.08V958m0 10.08v20.15m0 10.07v20.15m0 10.08v20.15m0 10.07v20.15m0 10.08v10.07" stroke="#5e5e5e" stroke-width="2" fill="none"/><path d="M788.73 222.58h-1.96v-1.03h1.96z" stroke="#5e5e5e" stroke-width=".05" fill="#5e5e5e"/><path d="M787.75 1099.03v1.02" stroke="#5e5e5e" stroke-width="2" fill="none"/><path d="M767.75 656a6 6 0 0 1 6-6h28a6 6 0 0 1 6 6v88a6 6 0 0 1-6 6h-28a6 6 0 0 1-6-6z" stroke="#5e5e5e" stroke-width="3" fill="#fff"/><path d="M621 329.83h316" stroke="#5e5e5e" stroke-width="2" fill="none"/><path d="M621.03 330.8H620v-1.95h1.03z" stroke="#5e5e5e" stroke-width=".05" fill="#5e5e5e"/><path d="M952.26 329.83L938 334.46v-9.27z" stroke="#5e5e5e" stroke-width="2" fill="#5e5e5e"/><use xlink:href="#k" transform="matrix(1,0,0,1,731.5523785147975,304.49400352877245) translate(0 14.222222222222223)"/><path d="M1163.75 598.77h-10m-10.02 0h-20.03m-10 0h-20.03m-10 0h-20.03m-10 0h-20.04m-10 0h-20.03m-10 0h-20.03m-10 0H943.5m-10 0h-20.03m-10 0h-20.03m-10.02 0H853.4m-10 0h-20.03m-10 0h-20.03m-10.02 0H763.3m-10 0h-20.03m-10 0h-20.04m-10 0H683.16v.02h-.02v.05l-.02.02v.02h-.02v.02h-.02l-.03.02h-10.3m-10.3 0H641.9m-10.3 0h-20.57m-10.28 0h-20.58m-10.3 0h-20.57m-10.3 0H518.4m-10.3 0h-20.57m-10.28 0h-20.58m-10.3 0H425.8m-10.3 0h-20.57m-10.3 0h-20.57m-10.3 0H333.2m-10.3 0h-20.58m-10.3 0h-20.57m-10.3 0H240.6m-10.3 0H220" stroke="#5e5e5e" stroke-width="2" fill="none"/><path d="M1164.75 599.74h-1.03v-1.95h1.03z" stroke="#5e5e5e" stroke-width=".05" fill="#5e5e5e"/><path d="M204.74 598.94L219 594.3v9.27z" stroke="#5e5e5e" stroke-width="2" fill="#5e5e5e"/><use xlink:href="#C" transform="matrix(1,0,0,1,503.8738938650973,573.6053228580835) translate(0 14.222222222222223)"/><use xlink:href="#D" transform="matrix(1,0,0,1,503.8738938650973,573.6053228580835) translate(239.50617283950618 14.222222222222223)"/><path d="M202.5 676.63h81.83a.3.3 0 0 0 .3-.3.3.3 0 0 1 .3-.3h64.32" stroke="#5e5e5e" stroke-width="2" fill="none"/><path d="M202.53 677.6h-1.03v-1.94h1.03z" stroke="#5e5e5e" stroke-width=".05" fill="#5e5e5e"/><path d="M364.5 676.04l-14.25 4.63v-9.27z" stroke="#5e5e5e" stroke-width="2" fill="#5e5e5e"/><use xlink:href="#E" transform="matrix(1,0,0,1,222.04444293816783,650.7067797374328) translate(0 14.222222222222223)"/><path d="M309.25 105.83a6 6 0 0 1 6-6h148a6 6 0 0 1 6 6v108a6 6 0 0 1-6 6h-148a6 6 0 0 1-6-6z" stroke="#5e5e5e" stroke-width="3" fill="#fff"/><use xlink:href="#h" transform="matrix(1,0,0,1,309.2500464843404,99.82734225929119) translate(6.079999999999993 51.9)"/><use xlink:href="#F" transform="matrix(1,0,0,1,309.2500464843404,99.82734225929119) translate(61.005 73.5)"/><path d="M389.25 222.33v10.07m0 10.08v20.15m0 10.07v20.15m0 10.07v20.15m0 10.08v20.15m0 10.07v20.15m0 10.08v20.15m0 10.07v20.15m0 10.08v20.15m0 10.07v20.15m0 10.07v20.14m0 10.08v20.15m0 10.07v20.15m0 10.07v20.15m0 10.07v20.14m0 10.08v20.14m0 10.08V716m0 10.06v20.15m0 10.1v20.14m0 10.07v20.16m0 10.08v20.15m0 10.06v20.15m0 10.08v20.15m0 10.08v20.16m0 10.07v20.15m0 10.08V988m0 10.08v20.15m0 10.08v20.15m0 10.08v20.15m0 10.07v10.08" stroke="#5e5e5e" stroke-width="2" fill="none"/><path d="M390.23 222.35h-1.96v-1.02h1.96z" stroke="#5e5e5e" stroke-width=".05" fill="#5e5e5e"/><path d="M389.25 1098.8v1.03" stroke="#5e5e5e" stroke-width="2" fill="none"/><path d="M369.25 646a6 6 0 0 1 6-6h28a6 6 0 0 1 6 6v108a6 6 0 0 1-6 6h-28a6 6 0 0 1-6-6z" stroke="#5e5e5e" stroke-width="3" fill="#fff"/><path d="M411.75 700h10.18m10.18 0h20.38m10.18 0h20.36m10.18 0h20.37m10.18 0h20.36m10.2 0h20.36m10.18 0h20.36m10.18 0h20.37m10.18 0h20.36m10.18 0h20.36m10.18 0h20.37m10.17 0h10.18" stroke="#5e5e5e" stroke-width="2" fill="none"/><path d="M411.78 700.98h-1.03V699h1.03z" stroke="#5e5e5e" stroke-width=".05" fill="#5e5e5e"/><path d="M763 700l-14.25 4.63v-9.26z" stroke="#5e5e5e" stroke-width="2" fill="#5e5e5e"/><g><use xlink:href="#E" transform="matrix(1,0,0,1,525.9321787349952,674.6666666666667) translate(0 14.222222222222223)"/></g><path d="M810.25 717.08H937" stroke="#5e5e5e" stroke-width="2" fill="none"/><path d="M810.28 718.06h-1.03v-1.95h1.03z" stroke="#5e5e5e" stroke-width=".05" fill="#5e5e5e"/><path d="M952.26 717.08L938 721.72v-9.27z" stroke="#5e5e5e" stroke-width="2" fill="#5e5e5e"/><g><use xlink:href="#E" transform="matrix(1,0,0,1,819.8072501487229,687.1153316470809) translate(0 14.222222222222223)"/></g><path d="M999.5 751.93h398a1 1 0 0 0 1-1 1 1 0 0 1 1-1H1780" stroke="#5e5e5e" stroke-width="2" fill="none"/><path d="M999.53 752.9h-1.03v-1.95h1.03z" stroke="#5e5e5e" stroke-width=".05" fill="#5e5e5e"/><path d="M1795.26 749.92l-14.26 4.64v-9.27z" stroke="#5e5e5e" stroke-width="2" fill="#5e5e5e"/><g><use xlink:href="#G" transform="matrix(1,0,0,1,1354.6640193650871,724.5952251094045) translate(0 14.222222222222223)"/></g><path d="M50 191.04v10.1m0 10.08v20.18m0 10.1v20.16m0 10.1v20.17m0 10.1v20.16m0 10.08v20.18m0 10.1v20.16m0 10.1v20.17m0 10.08v20.17m0 10.1v20.17m0 10.1v20.16m0 10.1v20.17m0 10.1v20.16m0 10.1v20.18m0 10.1v20.17m0 10.08v20.18m0 10.1v20.17m0 10.1v20.17m0 10.1v20.17m0 10.1v20.17m0 10.1v20.17m0 10.08v20.18m0 10.1v20.17m0 10.08v20.18m0 10.1v20.17m0 10.1v20.16m0 10.1v20.17m0 10.1v20.16m0 10.08v20.18m0 10.1v20.16m0 10.1V1099" stroke="#5e5e5e" stroke-width="2" fill="none"/><path d="M50.98 191.07h-1.95v-1.03h1.95z" stroke="#5e5e5e" stroke-width=".05" fill="#5e5e5e"/><path d="M50 1098.97v1.03" stroke="#5e5e5e" stroke-width="2" fill="none"/><path d="M30 266a6 6 0 0 1 6-6h28a6 6 0 0 1 6 6v648a6 6 0 0 1-6 6H36a6 6 0 0 1-6-6z" stroke="#5e5e5e" stroke-width="3" fill="#fff"/><defs><path d="M18-100v-36l175-74v27L42-118l151 64v27" id="H"/><path d="M205 0l-28-72H64L36 0H1l101-248h38L239 0h-34zm-38-99l-47-123c-12 45-31 82-46 123h93" id="I"/><path d="M115-194c55 1 70 41 70 98S169 2 115 4C84 4 66-9 55-30l1 105H24l-1-265h31l2 30c10-21 28-34 59-34zm-8 174c40 0 45-34 45-75s-6-73-45-74c-42 0-51 32-51 76 0 43 10 73 51 73" id="J"/><path d="M24 0v-261h32V0H24" id="K"/><path d="M24-231v-30h32v30H24zM24 0v-190h32V0H24" id="L"/><path d="M96-169c-40 0-48 33-48 73s9 75 48 75c24 0 41-14 43-38l32 2c-6 37-31 61-74 61-59 0-76-41-82-99-10-93 101-131 147-64 4 7 5 14 7 22l-32 3c-4-21-16-35-41-35" id="M"/><path d="M141-36C126-15 110 5 73 4 37 3 15-17 15-53c-1-64 63-63 125-63 3-35-9-54-41-54-24 1-41 7-42 31l-33-3c5-37 33-52 76-52 45 0 72 20 72 64v82c-1 20 7 32 28 27v20c-31 9-61-2-59-35zM48-53c0 20 12 33 32 33 41-3 63-29 60-74-43 2-92-5-92 41" id="N"/><path d="M59-47c-2 24 18 29 38 22v24C64 9 27 4 27-40v-127H5v-23h24l9-43h21v43h35v23H59v120" id="O"/><path d="M100-194c62-1 85 37 85 99 1 63-27 99-86 99S16-35 15-95c0-66 28-99 85-99zM99-20c44 1 53-31 53-75 0-43-8-75-51-75s-53 32-53 75 10 74 51 75" id="P"/><path d="M117-194c89-4 53 116 60 194h-32v-121c0-31-8-49-39-48C34-167 62-67 57 0H25l-1-190h30c1 10-1 24 2 32 11-22 29-35 61-36" id="Q"/><path d="M18-27v-27l151-64-151-65v-27l175 74v36" id="R"/><g id="a"><use transform="matrix(0.05,0,0,0.05,0,0)" xlink:href="#H"/><use transform="matrix(0.05,0,0,0.05,10.5,0)" xlink:href="#H"/><use transform="matrix(0.05,0,0,0.05,21,0)" xlink:href="#I"/><use transform="matrix(0.05,0,0,0.05,33,0)" xlink:href="#J"/><use transform="matrix(0.05,0,0,0.05,43,0)" xlink:href="#J"/><use transform="matrix(0.05,0,0,0.05,53,0)" xlink:href="#K"/><use transform="matrix(0.05,0,0,0.05,56.95,0)" xlink:href="#L"/><use transform="matrix(0.05,0,0,0.05,60.900000000000006,0)" xlink:href="#M"/><use transform="matrix(0.05,0,0,0.05,69.9,0)" xlink:href="#N"/><use transform="matrix(0.05,0,0,0.05,79.9,0)" xlink:href="#O"/><use transform="matrix(0.05,0,0,0.05,84.9,0)" xlink:href="#L"/><use transform="matrix(0.05,0,0,0.05,88.85000000000001,0)" xlink:href="#P"/><use transform="matrix(0.05,0,0,0.05,98.85000000000001,0)" xlink:href="#Q"/><use transform="matrix(0.05,0,0,0.05,108.85000000000001,0)" xlink:href="#R"/><use transform="matrix(0.05,0,0,0.05,119.35000000000001,0)" xlink:href="#R"/><path d="M-.9 1.25h131.65v1.32H-.9z"/></g><path d="M266 0h-40l-56-210L115 0H75L2-248h35L96-30l15-64 43-154h32l59 218 59-218h35" id="S"/><path d="M185-189c-5-48-123-54-124 2 14 75 158 14 163 119 3 78-121 87-175 55-17-10-28-26-33-46l33-7c5 56 141 63 141-1 0-78-155-14-162-118-5-82 145-84 179-34 5 7 8 16 11 25" id="T"/><g id="b"><use transform="matrix(0.05,0,0,0.05,0,0)" xlink:href="#I"/><use transform="matrix(0.05,0,0,0.05,11.35,0)" xlink:href="#S"/><use transform="matrix(0.05,0,0,0.05,28.299999999999997,0)" xlink:href="#T"/><path d="M-.9 1.25h47.1v1.32H-.9z"/></g><path d="M143 4C61 4 22-44 18-125c-5-107 100-154 193-111 17 8 29 25 37 43l-32 9c-13-25-37-40-76-40-61 0-88 39-88 99 0 61 29 100 91 101 35 0 62-11 79-27v-45h-74v-28h105v86C228-13 192 4 143 4" id="U"/><path d="M100-194c63 0 86 42 84 106H49c0 40 14 67 53 68 26 1 43-12 49-29l28 8c-11 28-37 45-77 45C44 4 14-33 15-96c1-61 26-98 85-98zm52 81c6-60-76-77-97-28-3 7-6 17-6 28h103" id="V"/><path d="M206 0h-36l-40-164L89 0H53L-1-190h32L70-26l43-164h34l41 164 42-164h31" id="W"/><path d="M179-190L93 31C79 59 56 82 12 73V49c39 6 53-20 64-50L1-190h34L92-34l54-156h33" id="X"/><g id="c"><use transform="matrix(0.05,0,0,0.05,0,0)" xlink:href="#I"/><use transform="matrix(0.05,0,0,0.05,12,0)" xlink:href="#J"/><use transform="matrix(0.05,0,0,0.05,22,0)" xlink:href="#L"/><use transform="matrix(0.05,0,0,0.05,25.950000000000003,0)" xlink:href="#U"/><use transform="matrix(0.05,0,0,0.05,39.95,0)" xlink:href="#N"/><use transform="matrix(0.05,0,0,0.05,49.95,0)" xlink:href="#O"/><use transform="matrix(0.05,0,0,0.05,54.95,0)" xlink:href="#V"/><use transform="matrix(0.05,0,0,0.05,64.95,0)" xlink:href="#W"/><use transform="matrix(0.05,0,0,0.05,77.9,0)" xlink:href="#N"/><use transform="matrix(0.05,0,0,0.05,87.9,0)" xlink:href="#X"/><path d="M-.9 1.25h98.7v1.32H-.9z"/></g><path d="M212-179c-10-28-35-45-73-45-59 0-87 40-87 99 0 60 29 101 89 101 43 0 62-24 78-52l27 14C228-24 195 4 139 4 59 4 22-46 18-125c-6-104 99-153 187-111 19 9 31 26 39 46" id="Y"/><path d="M114-163C36-179 61-72 57 0H25l-1-190h30c1 12-1 29 2 39 6-27 23-49 58-41v29" id="Z"/><path d="M140-251c81 0 123 46 123 126C263-46 219 4 140 4 59 4 17-45 17-125s42-126 123-126zm0 227c63 0 89-41 89-101s-29-99-89-99c-61 0-89 39-89 99S79-25 140-24" id="aa"/><path d="M85-194c31 0 48 13 60 33l-1-100h32l1 261h-30c-2-10 0-23-3-31C134-8 116 4 85 4 32 4 16-35 15-94c0-66 23-100 70-100zm9 24c-40 0-46 34-46 75 0 40 6 74 45 74 42 0 51-32 51-76 0-42-9-74-50-73" id="ab"/><g id="d"><use transform="matrix(0.05,0,0,0.05,0,0)" xlink:href="#Y"/><use transform="matrix(0.05,0,0,0.05,12.950000000000001,0)" xlink:href="#Z"/><use transform="matrix(0.05,0,0,0.05,18.900000000000002,0)" xlink:href="#V"/><use transform="matrix(0.05,0,0,0.05,28.900000000000002,0)" xlink:href="#N"/><use transform="matrix(0.05,0,0,0.05,38.900000000000006,0)" xlink:href="#O"/><use transform="matrix(0.05,0,0,0.05,43.900000000000006,0)" xlink:href="#V"/><use transform="matrix(0.05,0,0,0.05,53.900000000000006,0)" xlink:href="#aa"/><use transform="matrix(0.05,0,0,0.05,67.9,0)" xlink:href="#Z"/><use transform="matrix(0.05,0,0,0.05,73.85000000000001,0)" xlink:href="#ab"/><use transform="matrix(0.05,0,0,0.05,83.85000000000001,0)" xlink:href="#V"/><use transform="matrix(0.05,0,0,0.05,93.85000000000001,0)" xlink:href="#Z"/><path d="M-.9 1.25h101.6v1.32H-.9z"/></g><path d="M87 75C49 33 22-17 22-94c0-76 28-126 65-167h31c-38 41-64 92-64 168S80 34 118 75H87" id="ac"/><path d="M210-169c-67 3-38 105-44 169h-31v-121c0-29-5-50-35-48C34-165 62-65 56 0H25l-1-190h30c1 10-1 24 2 32 10-44 99-50 107 0 11-21 27-35 58-36 85-2 47 119 55 194h-31v-121c0-29-5-49-35-48" id="ad"/><g id="e"><use transform="matrix(0.05,0,0,0.05,0,0)" xlink:href="#ac"/><use transform="matrix(0.05,0,0,0.05,5.95,0)" xlink:href="#Y"/><use transform="matrix(0.05,0,0,0.05,18.900000000000002,0)" xlink:href="#ad"/><use transform="matrix(0.05,0,0,0.05,33.85,0)" xlink:href="#ab"/><path d="M-.9 1.25h50.65v1.32H-.9z"/></g><path d="M30 0v-248h33v221h125V0H30" id="ae"/><path d="M115-194c53 0 69 39 70 98 0 66-23 100-70 100C84 3 66-7 56-30L54 0H23l1-261h32v101c10-23 28-34 59-34zm-8 174c40 0 45-34 45-75 0-40-5-75-45-74-42 0-51 32-51 76 0 43 10 73 51 73" id="af"/><path d="M33-261c38 41 65 92 65 168S71 34 33 75H2C39 34 66-17 66-93S39-220 2-261h31" id="ag"/><g id="f"><use transform="matrix(0.05,0,0,0.05,0,0)" xlink:href="#ae"/><use transform="matrix(0.05,0,0,0.05,10,0)" xlink:href="#N"/><use transform="matrix(0.05,0,0,0.05,20,0)" xlink:href="#ad"/><use transform="matrix(0.05,0,0,0.05,34.95,0)" xlink:href="#af"/><use transform="matrix(0.05,0,0,0.05,44.95,0)" xlink:href="#ab"/><use transform="matrix(0.05,0,0,0.05,54.95,0)" xlink:href="#N"/><use transform="matrix(0.05,0,0,0.05,64.95,0)" xlink:href="#ag"/><path d="M-.9 1.25h72.7v1.32H-.9z"/></g><path d="M108 0H70L1-190h34L89-25l56-165h34" id="ah"/><g id="g"><use transform="matrix(0.05,0,0,0.05,0,0)" xlink:href="#aa"/><use transform="matrix(0.05,0,0,0.05,14,0)" xlink:href="#Z"/><use transform="matrix(0.05,0,0,0.05,19.95,0)" xlink:href="#ab"/><use transform="matrix(0.05,0,0,0.05,29.950000000000003,0)" xlink:href="#V"/><use transform="matrix(0.05,0,0,0.05,39.95,0)" xlink:href="#Z"/><use transform="matrix(0.05,0,0,0.05,45.900000000000006,0)" xlink:href="#T"/><use transform="matrix(0.05,0,0,0.05,57.900000000000006,0)" xlink:href="#V"/><use transform="matrix(0.05,0,0,0.05,67.9,0)" xlink:href="#Z"/><use transform="matrix(0.05,0,0,0.05,73.85000000000001,0)" xlink:href="#ah"/><use transform="matrix(0.05,0,0,0.05,82.85000000000001,0)" xlink:href="#L"/><use transform="matrix(0.05,0,0,0.05,86.80000000000001,0)" xlink:href="#M"/><use transform="matrix(0.05,0,0,0.05,95.80000000000001,0)" xlink:href="#V"/><path d="M-.9 1.25h107.6v1.32H-.9z"/></g><path d="M33 0v-248h34V0H33" id="ai"/><path d="M101-234c-31-9-42 10-38 44h38v23H63V0H32v-167H5v-23h27c-7-52 17-82 69-68v24" id="aj"/><path d="M135-143c-3-34-86-38-87 0 15 53 115 12 119 90S17 21 10-45l28-5c4 36 97 45 98 0-10-56-113-15-118-90-4-57 82-63 122-42 12 7 21 19 24 35" id="ak"/><path d="M84 4C-5 8 30-112 23-190h32v120c0 31 7 50 39 49 72-2 45-101 50-169h31l1 190h-30c-1-10 1-25-2-33-11 22-28 36-60 37" id="al"/><g id="h"><use transform="matrix(0.05,0,0,0.05,0,0)" xlink:href="#H"/><use transform="matrix(0.05,0,0,0.05,10.5,0)" xlink:href="#H"/><use transform="matrix(0.05,0,0,0.05,21,0)" xlink:href="#ai"/><use transform="matrix(0.05,0,0,0.05,26,0)" xlink:href="#Q"/><use transform="matrix(0.05,0,0,0.05,36,0)" xlink:href="#aj"/><use transform="matrix(0.05,0,0,0.05,41,0)" xlink:href="#Z"/><use transform="matrix(0.05,0,0,0.05,46.95,0)" xlink:href="#N"/><use transform="matrix(0.05,0,0,0.05,56.95,0)" xlink:href="#ak"/><use transform="matrix(0.05,0,0,0.05,65.95,0)" xlink:href="#O"/><use transform="matrix(0.05,0,0,0.05,70.95,0)" xlink:href="#Z"/><use transform="matrix(0.05,0,0,0.05,76.9,0)" xlink:href="#al"/><use transform="matrix(0.05,0,0,0.05,86.9,0)" xlink:href="#M"/><use transform="matrix(0.05,0,0,0.05,95.9,0)" xlink:href="#O"/><use transform="matrix(0.05,0,0,0.05,100.9,0)" xlink:href="#al"/><use transform="matrix(0.05,0,0,0.05,110.9,0)" xlink:href="#Z"/><use transform="matrix(0.05,0,0,0.05,116.85000000000001,0)" xlink:href="#V"/><use transform="matrix(0.05,0,0,0.05,126.85000000000001,0)" xlink:href="#R"/><use transform="matrix(0.05,0,0,0.05,137.35000000000002,0)" xlink:href="#R"/><path d="M-.9 1.25h149.65v1.32H-.9z"/></g><path d="M30 0v-248h187v28H63v79h144v27H63v87h162V0H30" id="am"/><path d="M160-131c35 5 61 23 61 61C221 17 115-2 30 0v-248c76 3 177-17 177 60 0 33-19 50-47 57zm-97-11c50-1 110 9 110-42 0-47-63-36-110-37v79zm0 115c55-2 124 14 124-45 0-56-70-42-124-44v89" id="an"/><path d="M177-190C167-65 218 103 67 71c-23-6-38-20-44-43l32-5c15 47 100 32 89-28v-30C133-14 115 1 83 1 29 1 15-40 15-95c0-56 16-97 71-98 29-1 48 16 59 35 1-10 0-23 2-32h30zM94-22c36 0 50-32 50-73 0-42-14-75-50-75-39 0-46 34-46 75s6 73 46 73" id="ao"/><g id="i"><use transform="matrix(0.05,0,0,0.05,0,0)" xlink:href="#am"/><use transform="matrix(0.05,0,0,0.05,12,0)" xlink:href="#ah"/><use transform="matrix(0.05,0,0,0.05,21,0)" xlink:href="#V"/><use transform="matrix(0.05,0,0,0.05,31,0)" xlink:href="#Q"/><use transform="matrix(0.05,0,0,0.05,41,0)" xlink:href="#O"/><use transform="matrix(0.05,0,0,0.05,46,0)" xlink:href="#an"/><use transform="matrix(0.05,0,0,0.05,58,0)" xlink:href="#Z"/><use transform="matrix(0.05,0,0,0.05,63.95,0)" xlink:href="#L"/><use transform="matrix(0.05,0,0,0.05,67.9,0)" xlink:href="#ab"/><use transform="matrix(0.05,0,0,0.05,77.9,0)" xlink:href="#ao"/><use transform="matrix(0.05,0,0,0.05,87.9,0)" xlink:href="#V"/><path d="M-.9 1.25h99.7v1.32H-.9z"/></g><path fill="#333" d="M24-248c93 1 206-16 204 79-1 75-69 88-152 82V0H24v-248zm52 121c47 0 100 7 100-41 0-47-54-39-100-39v80" id="ap"/><path fill="#333" d="M140-251c80 0 125 45 125 126S219 4 139 4C58 4 15-44 15-125s44-126 125-126zm-1 214c52 0 73-35 73-88 0-50-21-86-72-86-52 0-73 35-73 86s22 88 72 88" id="aq"/><path fill="#333" d="M169-182c-1-43-94-46-97-3 18 66 151 10 154 114 3 95-165 93-204 36-6-8-10-19-12-30l50-8c3 46 112 56 116 5-17-69-150-10-154-114-4-87 153-88 188-35 5 8 8 18 10 28" id="ar"/><path fill="#333" d="M136-208V0H84v-208H4v-40h212v40h-80" id="as"/><g id="j"><use transform="matrix(0.04938271604938272,0,0,0.04938271604938272,0,0)" xlink:href="#ap"/><use transform="matrix(0.04938271604938272,0,0,0.04938271604938272,11.851851851851853,0)" xlink:href="#aq"/><use transform="matrix(0.04938271604938272,0,0,0.04938271604938272,25.679012345679016,0)" xlink:href="#ar"/><use transform="matrix(0.04938271604938272,0,0,0.04938271604938272,37.53086419753087,0)" xlink:href="#as"/></g><path fill="#333" d="M190-63c-7 42-38 67-86 67-59 0-84-38-90-98-12-110 154-137 174-36l-49 2c-2-19-15-32-35-32-30 0-35 28-38 64-6 74 65 87 74 30" id="at"/><path fill="#333" d="M135-150c-39-12-60 13-60 57V0H25l-1-190h47c2 13-1 29 3 40 6-28 27-53 61-41v41" id="au"/><path fill="#333" d="M185-48c-13 30-37 53-82 52C43 2 14-33 14-96s30-98 90-98c62 0 83 45 84 108H66c0 31 8 55 39 56 18 0 30-7 34-22zm-45-69c5-46-57-63-70-21-2 6-4 13-4 21h74" id="av"/><path fill="#333" d="M133-34C117-15 103 5 69 4 32 3 11-16 11-54c-1-60 55-63 116-61 1-26-3-47-28-47-18 1-26 9-28 27l-52-2c7-38 36-58 82-57s74 22 75 68l1 82c-1 14 12 18 25 15v27c-30 8-71 5-69-32zm-48 3c29 0 43-24 42-57-32 0-66-3-65 30 0 17 8 27 23 27" id="aw"/><path fill="#333" d="M115-3C79 11 28 4 28-45v-112H4v-33h27l15-45h31v45h36v33H77v99c-1 23 16 31 38 25v30" id="ax"/><path fill="#333" d="M88-194c31-1 46 15 58 34l-1-101h50l1 261h-48c-2-10 0-23-3-31C134-8 116 4 84 4 32 4 16-41 15-95c0-56 19-97 73-99zm17 164c33 0 40-30 41-66 1-37-9-64-41-64s-38 30-39 65c0 43 13 65 39 65" id="ay"/><path fill="#333" d="M67-93c0 74 22 123 53 168H70C40 30 18-18 18-93s22-123 52-168h50c-32 44-53 94-53 168" id="az"/><path fill="#333" d="M102-93c0 74-22 123-52 168H0C30 29 54-18 53-93c0-74-22-123-53-168h50c30 45 52 94 52 168" id="aA"/><g id="k"><use transform="matrix(0.04938271604938272,0,0,0.04938271604938272,0,0)" xlink:href="#at"/><use transform="matrix(0.04938271604938272,0,0,0.04938271604938272,9.876543209876544,0)" xlink:href="#au"/><use transform="matrix(0.04938271604938272,0,0,0.04938271604938272,16.790123456790127,0)" xlink:href="#av"/><use transform="matrix(0.04938271604938272,0,0,0.04938271604938272,26.666666666666668,0)" xlink:href="#aw"/><use transform="matrix(0.04938271604938272,0,0,0.04938271604938272,36.543209876543216,0)" xlink:href="#ax"/><use transform="matrix(0.04938271604938272,0,0,0.04938271604938272,42.41975308641976,0)" xlink:href="#av"/><use transform="matrix(0.04938271604938272,0,0,0.04938271604938272,52.2962962962963,0)" xlink:href="#aq"/><use transform="matrix(0.04938271604938272,0,0,0.04938271604938272,66.12345679012347,0)" xlink:href="#au"/><use transform="matrix(0.04938271604938272,0,0,0.04938271604938272,73.03703703703705,0)" xlink:href="#ay"/><use transform="matrix(0.04938271604938272,0,0,0.04938271604938272,83.85185185185186,0)" xlink:href="#av"/><use transform="matrix(0.04938271604938272,0,0,0.04938271604938272,93.7283950617284,0)" xlink:href="#au"/><use transform="matrix(0.04938271604938272,0,0,0.04938271604938272,100.64197530864199,0)" xlink:href="#az"/><use transform="matrix(0.04938271604938272,0,0,0.04938271604938272,106.51851851851853,0)" xlink:href="#aA"/></g><path d="M233-177c-1 41-23 64-60 70L243 0h-38l-65-103H63V0H30v-248c88 3 205-21 203 71zM63-129c60-2 137 13 137-47 0-61-80-42-137-45v92" id="aB"/><g id="l"><use transform="matrix(0.05,0,0,0.05,0,0)" xlink:href="#aa"/><use transform="matrix(0.05,0,0,0.05,14,0)" xlink:href="#Z"/><use transform="matrix(0.05,0,0,0.05,19.95,0)" xlink:href="#ab"/><use transform="matrix(0.05,0,0,0.05,29.950000000000003,0)" xlink:href="#V"/><use transform="matrix(0.05,0,0,0.05,39.95,0)" xlink:href="#Z"/><use transform="matrix(0.05,0,0,0.05,45.900000000000006,0)" xlink:href="#aB"/><use transform="matrix(0.05,0,0,0.05,58.85,0)" xlink:href="#V"/><use transform="matrix(0.05,0,0,0.05,68.85000000000001,0)" xlink:href="#J"/><use transform="matrix(0.05,0,0,0.05,78.85000000000001,0)" xlink:href="#P"/><use transform="matrix(0.05,0,0,0.05,88.85000000000001,0)" xlink:href="#ak"/><use transform="matrix(0.05,0,0,0.05,97.85000000000001,0)" xlink:href="#L"/><use transform="matrix(0.05,0,0,0.05,101.80000000000001,0)" xlink:href="#O"/><use transform="matrix(0.05,0,0,0.05,106.80000000000001,0)" xlink:href="#P"/><use transform="matrix(0.05,0,0,0.05,116.80000000000001,0)" xlink:href="#Z"/><use transform="matrix(0.05,0,0,0.05,122.75,0)" xlink:href="#X"/><path d="M-.9 1.25h133.55v1.32H-.9z"/></g><path d="M30-248c118-7 216 8 213 122C240-48 200 0 122 0H30v-248zM63-27c89 8 146-16 146-99s-60-101-146-95v194" id="aC"/><g id="m"><use transform="matrix(0.05,0,0,0.05,0,0)" xlink:href="#aC"/><use transform="matrix(0.05,0,0,0.05,12.950000000000001,0)" xlink:href="#X"/><use transform="matrix(0.05,0,0,0.05,21.950000000000003,0)" xlink:href="#Q"/><use transform="matrix(0.05,0,0,0.05,31.950000000000003,0)" xlink:href="#N"/><use transform="matrix(0.05,0,0,0.05,41.95,0)" xlink:href="#ad"/><use transform="matrix(0.05,0,0,0.05,56.900000000000006,0)" xlink:href="#P"/><use transform="matrix(0.05,0,0,0.05,66.9,0)" xlink:href="#aC"/><use transform="matrix(0.05,0,0,0.05,79.85000000000001,0)" xlink:href="#an"/><path d="M-.9 1.25h93.65v1.32H-.9z"/></g><path d="M141 0L90-78 38 0H4l68-98-65-92h35l48 74 47-74h35l-64 92 68 98h-35" id="aD"/><g id="n"><use transform="matrix(0.05,0,0,0.05,0,0)" xlink:href="#H"/><use transform="matrix(0.05,0,0,0.05,10.5,0)" xlink:href="#H"/><use transform="matrix(0.05,0,0,0.05,21,0)" xlink:href="#am"/><use transform="matrix(0.05,0,0,0.05,33,0)" xlink:href="#aD"/><use transform="matrix(0.05,0,0,0.05,42,0)" xlink:href="#O"/><use transform="matrix(0.05,0,0,0.05,47,0)" xlink:href="#V"/><use transform="matrix(0.05,0,0,0.05,57,0)" xlink:href="#Z"/><use transform="matrix(0.05,0,0,0.05,62.95,0)" xlink:href="#Q"/><use transform="matrix(0.05,0,0,0.05,72.95,0)" xlink:href="#N"/><use transform="matrix(0.05,0,0,0.05,82.95,0)" xlink:href="#K"/><use transform="matrix(0.05,0,0,0.05,86.9,0)" xlink:href="#R"/><use transform="matrix(0.05,0,0,0.05,97.4,0)" xlink:href="#R"/><path d="M-.9 1.25h109.7v1.32H-.9z"/></g><g id="o"><use transform="matrix(0.05,0,0,0.05,0,0)" xlink:href="#T"/><use transform="matrix(0.05,0,0,0.05,12,0)" xlink:href="#O"/><use transform="matrix(0.05,0,0,0.05,17,0)" xlink:href="#Z"/><use transform="matrix(0.05,0,0,0.05,22.95,0)" xlink:href="#L"/><use transform="matrix(0.05,0,0,0.05,26.899999999999995,0)" xlink:href="#J"/><use transform="matrix(0.05,0,0,0.05,36.9,0)" xlink:href="#V"/><path d="M-.9 1.25h48.7v1.32H-.9z"/></g><path fill="#333" d="M135-194c53 0 70 44 70 98 0 56-19 98-73 100-31 1-45-17-59-34 3 33 2 69 2 105H25l-1-265h48c2 10 0 23 3 31 11-24 29-35 60-35zM114-30c33 0 39-31 40-66 0-38-9-64-40-64-56 0-55 130 0 130" id="aE"/><path fill="#333" d="M85 4C-2 5 27-109 22-190h50c7 57-23 150 33 157 60-5 35-97 40-157h50l1 190h-47c-2-12 1-28-3-38-12 25-28 42-61 42" id="aF"/><g id="p"><use transform="matrix(0.04938271604938272,0,0,0.04938271604938272,0,0)" xlink:href="#aE"/><use transform="matrix(0.04938271604938272,0,0,0.04938271604938272,10.814814814814815,0)" xlink:href="#aF"/><use transform="matrix(0.04938271604938272,0,0,0.04938271604938272,21.62962962962963,0)" xlink:href="#ax"/><use transform="matrix(0.04938271604938272,0,0,0.04938271604938272,27.506172839506174,0)" xlink:href="#az"/><use transform="matrix(0.04938271604938272,0,0,0.04938271604938272,33.382716049382715,0)" xlink:href="#aA"/></g><path fill="#333" d="M84 4C-5 8 30-112 23-190h32v120c0 31 7 50 39 49 72-2 45-101 50-169h31l1 190h-30c-1-10 1-25-2-33-11 22-28 36-60 37" id="aG"/><path fill="#333" d="M135-143c-3-34-86-38-87 0 15 53 115 12 119 90S17 21 10-45l28-5c4 36 97 45 98 0-10-56-113-15-118-90-4-57 82-63 122-42 12 7 21 19 24 35" id="aH"/><path fill="#333" d="M100-194c63 0 86 42 84 106H49c0 40 14 67 53 68 26 1 43-12 49-29l28 8c-11 28-37 45-77 45C44 4 14-33 15-96c1-61 26-98 85-98zm52 81c6-60-76-77-97-28-3 7-6 17-6 28h103" id="aI"/><path fill="#333" d="M114-163C36-179 61-72 57 0H25l-1-190h30c1 12-1 29 2 39 6-27 23-49 58-41v29" id="aJ"/><g id="q"><use transform="matrix(0.06172839506172839,0,0,0.06172839506172839,0,0)" xlink:href="#aG"/><use transform="matrix(0.06172839506172839,0,0,0.06172839506172839,12.345679012345679,0)" xlink:href="#aH"/><use transform="matrix(0.06172839506172839,0,0,0.06172839506172839,23.45679012345679,0)" xlink:href="#aI"/><use transform="matrix(0.06172839506172839,0,0,0.06172839506172839,35.80246913580247,0)" xlink:href="#aJ"/></g><path fill="#333" d="M87 75C49 33 22-17 22-94c0-76 28-126 65-167h31c-38 41-64 92-64 168S80 34 118 75H87" id="aK"/><path fill="#333" d="M115-194c53 0 69 39 70 98 0 66-23 100-70 100C84 3 66-7 56-30L54 0H23l1-261h32v101c10-23 28-34 59-34zm-8 174c40 0 45-34 45-75 0-40-5-75-45-74-42 0-51 32-51 76 0 43 10 73 51 73" id="aL"/><path fill="#333" d="M100-194c62-1 85 37 85 99 1 63-27 99-86 99S16-35 15-95c0-66 28-99 85-99zM99-20c44 1 53-31 53-75 0-43-8-75-51-75s-53 32-53 75 10 74 51 75" id="aM"/><path fill="#333" d="M206 0h-36l-40-164L89 0H53L-1-190h32L70-26l43-164h34l41 164 42-164h31" id="aN"/><path fill="#333" d="M33-261c38 41 65 92 65 168S71 34 33 75H2C39 34 66-17 66-93S39-220 2-261h31" id="aO"/><g id="r"><use transform="matrix(0.06172839506172839,0,0,0.06172839506172839,0,0)" xlink:href="#aK"/><use transform="matrix(0.06172839506172839,0,0,0.06172839506172839,7.345679012345679,0)" xlink:href="#aL"/><use transform="matrix(0.06172839506172839,0,0,0.06172839506172839,19.691358024691358,0)" xlink:href="#aJ"/><use transform="matrix(0.06172839506172839,0,0,0.06172839506172839,27.037037037037038,0)" xlink:href="#aM"/><use transform="matrix(0.06172839506172839,0,0,0.06172839506172839,39.382716049382715,0)" xlink:href="#aN"/><use transform="matrix(0.06172839506172839,0,0,0.06172839506172839,55.37037037037037,0)" xlink:href="#aH"/><use transform="matrix(0.06172839506172839,0,0,0.06172839506172839,66.48148148148148,0)" xlink:href="#aI"/><use transform="matrix(0.06172839506172839,0,0,0.06172839506172839,78.82716049382717,0)" xlink:href="#aJ"/><use transform="matrix(0.06172839506172839,0,0,0.06172839506172839,86.17283950617285,0)" xlink:href="#aO"/></g><path fill="#333" d="M123 10C108 53 80 86 19 72V37c35 8 53-11 59-39L3-190h52l48 148c12-52 28-100 44-148h51" id="aP"/><path fill="#333" d="M220-157c-53 9-28 100-34 157h-49v-107c1-27-5-49-29-50C55-147 81-57 75 0H25l-1-190h47c2 12-1 28 3 38 10-53 101-56 108 0 13-22 24-43 59-42 82 1 51 116 57 194h-49v-107c-1-25-5-48-29-50" id="aQ"/><path fill="#333" d="M135-194c87-1 58 113 63 194h-50c-7-57 23-157-34-157-59 0-34 97-39 157H25l-1-190h47c2 12-1 28 3 38 12-26 28-41 61-42" id="aR"/><g id="s"><use transform="matrix(0.04938271604938272,0,0,0.04938271604938272,0,0)" xlink:href="#at"/><use transform="matrix(0.04938271604938272,0,0,0.04938271604938272,9.876543209876544,0)" xlink:href="#au"/><use transform="matrix(0.04938271604938272,0,0,0.04938271604938272,16.790123456790127,0)" xlink:href="#av"/><use transform="matrix(0.04938271604938272,0,0,0.04938271604938272,26.666666666666668,0)" xlink:href="#aw"/><use transform="matrix(0.04938271604938272,0,0,0.04938271604938272,36.543209876543216,0)" xlink:href="#ax"/><use transform="matrix(0.04938271604938272,0,0,0.04938271604938272,42.41975308641976,0)" xlink:href="#av"/><use transform="matrix(0.04938271604938272,0,0,0.04938271604938272,52.2962962962963,0)" xlink:href="#ap"/><use transform="matrix(0.04938271604938272,0,0,0.04938271604938272,64.14814814814815,0)" xlink:href="#aw"/><use transform="matrix(0.04938271604938272,0,0,0.04938271604938272,74.0246913580247,0)" xlink:href="#aP"/><use transform="matrix(0.04938271604938272,0,0,0.04938271604938272,83.90123456790124,0)" xlink:href="#aQ"/><use transform="matrix(0.04938271604938272,0,0,0.04938271604938272,99.70370370370371,0)" xlink:href="#av"/><use transform="matrix(0.04938271604938272,0,0,0.04938271604938272,109.58024691358025,0)" xlink:href="#aR"/><use transform="matrix(0.04938271604938272,0,0,0.04938271604938272,120.39506172839508,0)" xlink:href="#ax"/></g><path fill="#333" d="M24 0v-248h52V0H24" id="aS"/><g id="t"><use transform="matrix(0.04938271604938272,0,0,0.04938271604938272,0,0)" xlink:href="#aS"/><use transform="matrix(0.04938271604938272,0,0,0.04938271604938272,4.938271604938272,0)" xlink:href="#aR"/><use transform="matrix(0.04938271604938272,0,0,0.04938271604938272,15.753086419753087,0)" xlink:href="#ax"/><use transform="matrix(0.04938271604938272,0,0,0.04938271604938272,21.62962962962963,0)" xlink:href="#av"/><use transform="matrix(0.04938271604938272,0,0,0.04938271604938272,31.506172839506174,0)" xlink:href="#aR"/><use transform="matrix(0.04938271604938272,0,0,0.04938271604938272,42.32098765432099,0)" xlink:href="#ax"/></g><g id="u"><use transform="matrix(0.04938271604938272,0,0,0.04938271604938272,0,0)" xlink:href="#az"/><use transform="matrix(0.04938271604938272,0,0,0.04938271604938272,5.8765432098765435,0)" xlink:href="#aA"/></g><path fill="#333" d="M240-174c0 40-23 61-54 70L253 0h-59l-57-94H76V0H24v-248c93 4 217-23 216 74zM76-134c48-2 112 12 112-38 0-48-66-32-112-35v73" id="aT"/><g id="v"><use transform="matrix(0.04938271604938272,0,0,0.04938271604938272,0,0)" xlink:href="#at"/><use transform="matrix(0.04938271604938272,0,0,0.04938271604938272,9.876543209876544,0)" xlink:href="#au"/><use transform="matrix(0.04938271604938272,0,0,0.04938271604938272,16.790123456790127,0)" xlink:href="#av"/><use transform="matrix(0.04938271604938272,0,0,0.04938271604938272,26.666666666666668,0)" xlink:href="#aw"/><use transform="matrix(0.04938271604938272,0,0,0.04938271604938272,36.543209876543216,0)" xlink:href="#ax"/><use transform="matrix(0.04938271604938272,0,0,0.04938271604938272,42.41975308641976,0)" xlink:href="#av"/><use transform="matrix(0.04938271604938272,0,0,0.04938271604938272,52.2962962962963,0)" xlink:href="#aq"/><use transform="matrix(0.04938271604938272,0,0,0.04938271604938272,66.12345679012347,0)" xlink:href="#au"/><use transform="matrix(0.04938271604938272,0,0,0.04938271604938272,73.03703703703705,0)" xlink:href="#ay"/><use transform="matrix(0.04938271604938272,0,0,0.04938271604938272,83.85185185185186,0)" xlink:href="#av"/><use transform="matrix(0.04938271604938272,0,0,0.04938271604938272,93.7283950617284,0)" xlink:href="#au"/><use transform="matrix(0.04938271604938272,0,0,0.04938271604938272,100.64197530864199,0)" xlink:href="#aT"/><use transform="matrix(0.04938271604938272,0,0,0.04938271604938272,113.4320987654321,0)" xlink:href="#av"/><use transform="matrix(0.04938271604938272,0,0,0.04938271604938272,123.30864197530865,0)" xlink:href="#at"/><use transform="matrix(0.04938271604938272,0,0,0.04938271604938272,133.18518518518522,0)" xlink:href="#az"/><use transform="matrix(0.04938271604938272,0,0,0.04938271604938272,139.06172839506175,0)" xlink:href="#aA"/></g><g id="w"><use transform="matrix(0.04938271604938272,0,0,0.04938271604938272,0,0)" xlink:href="#au"/><use transform="matrix(0.04938271604938272,0,0,0.04938271604938272,6.913580246913581,0)" xlink:href="#av"/><use transform="matrix(0.04938271604938272,0,0,0.04938271604938272,16.790123456790127,0)" xlink:href="#ax"/><use transform="matrix(0.04938271604938272,0,0,0.04938271604938272,22.66666666666667,0)" xlink:href="#aF"/><use transform="matrix(0.04938271604938272,0,0,0.04938271604938272,33.48148148148149,0)" xlink:href="#au"/><use transform="matrix(0.04938271604938272,0,0,0.04938271604938272,40.39506172839507,0)" xlink:href="#aR"/></g><path fill="#333" d="M25-224v-37h50v37H25zM25 0v-190h50V0H25" id="aU"/><g id="x"><use transform="matrix(0.04938271604938272,0,0,0.04938271604938272,0,0)" xlink:href="#ar"/><use transform="matrix(0.04938271604938272,0,0,0.04938271604938272,11.851851851851853,0)" xlink:href="#ax"/><use transform="matrix(0.04938271604938272,0,0,0.04938271604938272,17.728395061728396,0)" xlink:href="#au"/><use transform="matrix(0.04938271604938272,0,0,0.04938271604938272,24.641975308641975,0)" xlink:href="#aU"/><use transform="matrix(0.04938271604938272,0,0,0.04938271604938272,29.58024691358025,0)" xlink:href="#aE"/><use transform="matrix(0.04938271604938272,0,0,0.04938271604938272,40.39506172839506,0)" xlink:href="#av"/></g><g id="y"><use transform="matrix(0.04938271604938272,0,0,0.04938271604938272,0,0)" xlink:href="#ap"/><use transform="matrix(0.04938271604938272,0,0,0.04938271604938272,11.851851851851853,0)" xlink:href="#aw"/><use transform="matrix(0.04938271604938272,0,0,0.04938271604938272,21.7283950617284,0)" xlink:href="#aP"/><use transform="matrix(0.04938271604938272,0,0,0.04938271604938272,31.60493827160494,0)" xlink:href="#aQ"/><use transform="matrix(0.04938271604938272,0,0,0.04938271604938272,47.40740740740741,0)" xlink:href="#av"/><use transform="matrix(0.04938271604938272,0,0,0.04938271604938272,57.283950617283956,0)" xlink:href="#aR"/><use transform="matrix(0.04938271604938272,0,0,0.04938271604938272,68.09876543209877,0)" xlink:href="#ax"/><use transform="matrix(0.04938271604938272,0,0,0.04938271604938272,73.97530864197532,0)" xlink:href="#aS"/><use transform="matrix(0.04938271604938272,0,0,0.04938271604938272,78.9135802469136,0)" xlink:href="#aR"/><use transform="matrix(0.04938271604938272,0,0,0.04938271604938272,89.7283950617284,0)" xlink:href="#ax"/><use transform="matrix(0.04938271604938272,0,0,0.04938271604938272,95.60493827160495,0)" xlink:href="#av"/><use transform="matrix(0.04938271604938272,0,0,0.04938271604938272,105.4814814814815,0)" xlink:href="#aR"/><use transform="matrix(0.04938271604938272,0,0,0.04938271604938272,116.2962962962963,0)" xlink:href="#ax"/></g><path fill="#333" d="M110-194c64 0 96 36 96 99 0 64-35 99-97 99-61 0-95-36-95-99 0-62 34-99 96-99zm-1 164c35 0 45-28 45-65 0-40-10-65-43-65-34 0-45 26-45 65 0 36 10 65 43 65" id="aV"/><path fill="#333" d="M121-226c-27-7-43 5-38 36h38v33H83V0H34v-157H6v-33h28c-9-59 32-81 87-68v32" id="aW"/><g id="z"><use transform="matrix(0.04938271604938272,0,0,0.04938271604938272,0,0)" xlink:href="#at"/><use transform="matrix(0.04938271604938272,0,0,0.04938271604938272,9.876543209876544,0)" xlink:href="#aV"/><use transform="matrix(0.04938271604938272,0,0,0.04938271604938272,20.69135802469136,0)" xlink:href="#aR"/><use transform="matrix(0.04938271604938272,0,0,0.04938271604938272,31.506172839506174,0)" xlink:href="#aW"/><use transform="matrix(0.04938271604938272,0,0,0.04938271604938272,37.38271604938272,0)" xlink:href="#aU"/><use transform="matrix(0.04938271604938272,0,0,0.04938271604938272,42.320987654320994,0)" xlink:href="#au"/><use transform="matrix(0.04938271604938272,0,0,0.04938271604938272,49.23456790123458,0)" xlink:href="#aQ"/><use transform="matrix(0.04938271604938272,0,0,0.04938271604938272,65.03703703703705,0)" xlink:href="#ap"/><use transform="matrix(0.04938271604938272,0,0,0.04938271604938272,76.8888888888889,0)" xlink:href="#aw"/><use transform="matrix(0.04938271604938272,0,0,0.04938271604938272,86.76543209876544,0)" xlink:href="#aP"/><use transform="matrix(0.04938271604938272,0,0,0.04938271604938272,96.64197530864199,0)" xlink:href="#aQ"/><use transform="matrix(0.04938271604938272,0,0,0.04938271604938272,112.44444444444446,0)" xlink:href="#av"/><use transform="matrix(0.04938271604938272,0,0,0.04938271604938272,122.320987654321,0)" xlink:href="#aR"/><use transform="matrix(0.04938271604938272,0,0,0.04938271604938272,133.13580246913583,0)" xlink:href="#ax"/><use transform="matrix(0.04938271604938272,0,0,0.04938271604938272,139.01234567901236,0)" xlink:href="#az"/><use transform="matrix(0.04938271604938272,0,0,0.04938271604938272,144.88888888888889,0)" xlink:href="#aA"/></g><g id="A"><use transform="matrix(0.05,0,0,0.05,0,0)" xlink:href="#Y"/><use transform="matrix(0.05,0,0,0.05,12.950000000000001,0)" xlink:href="#P"/><use transform="matrix(0.05,0,0,0.05,22.950000000000003,0)" xlink:href="#Q"/><use transform="matrix(0.05,0,0,0.05,32.95,0)" xlink:href="#aj"/><use transform="matrix(0.05,0,0,0.05,37.95,0)" xlink:href="#L"/><use transform="matrix(0.05,0,0,0.05,41.900000000000006,0)" xlink:href="#Z"/><use transform="matrix(0.05,0,0,0.05,47.85000000000001,0)" xlink:href="#ad"/><use transform="matrix(0.05,0,0,0.05,62.80000000000001,0)" xlink:href="#aa"/><use transform="matrix(0.05,0,0,0.05,76.80000000000001,0)" xlink:href="#Z"/><use transform="matrix(0.05,0,0,0.05,82.75000000000001,0)" xlink:href="#ab"/><use transform="matrix(0.05,0,0,0.05,92.75000000000001,0)" xlink:href="#V"/><use transform="matrix(0.05,0,0,0.05,102.75,0)" xlink:href="#Z"/><path d="M-.9 1.25h110.5v1.32H-.9z"/></g><g id="B"><use transform="matrix(0.05,0,0,0.05,0,0)" xlink:href="#ac"/><use transform="matrix(0.05,0,0,0.05,5.95,0)" xlink:href="#am"/><use transform="matrix(0.05,0,0,0.05,17.95,0)" xlink:href="#ah"/><use transform="matrix(0.05,0,0,0.05,26.950000000000003,0)" xlink:href="#V"/><use transform="matrix(0.05,0,0,0.05,36.95,0)" xlink:href="#Q"/><use transform="matrix(0.05,0,0,0.05,46.95,0)" xlink:href="#O"/><path d="M-.9 1.25h58.75v1.32H-.9z"/></g><path fill="#333" d="M67-125c0 53 21 87 73 88 37 1 54-22 65-47l45 17C233-25 199 4 140 4 58 4 20-42 15-125 8-235 124-281 211-232c18 10 29 29 36 50l-46 12c-8-25-30-41-62-41-52 0-71 34-72 86" id="aX"/><path fill="#333" d="M25 0v-261h50V0H25" id="aY"/><path fill="#333" d="M135-194c52 0 70 43 70 98 0 56-19 99-73 100-30 1-46-15-58-35L72 0H24l1-261h50v104c11-23 29-37 60-37zM114-30c31 0 40-27 40-66 0-37-7-63-39-63s-41 28-41 65c0 36 8 64 40 64" id="aZ"/><path fill="#333" d="M147 0L96-86 75-71V0H25v-261h50v150l67-79h53l-66 74L201 0h-54" id="ba"/><g id="C"><use transform="matrix(0.04938271604938272,0,0,0.04938271604938272,0,0)" xlink:href="#aE"/><use transform="matrix(0.04938271604938272,0,0,0.04938271604938272,10.814814814814815,0)" xlink:href="#aw"/><use transform="matrix(0.04938271604938272,0,0,0.04938271604938272,20.69135802469136,0)" xlink:href="#aP"/><use transform="matrix(0.04938271604938272,0,0,0.04938271604938272,30.567901234567906,0)" xlink:href="#aQ"/><use transform="matrix(0.04938271604938272,0,0,0.04938271604938272,46.370370370370374,0)" xlink:href="#av"/><use transform="matrix(0.04938271604938272,0,0,0.04938271604938272,56.24691358024692,0)" xlink:href="#aR"/><use transform="matrix(0.04938271604938272,0,0,0.04938271604938272,67.06172839506173,0)" xlink:href="#ax"/><use transform="matrix(0.04938271604938272,0,0,0.04938271604938272,72.93827160493828,0)" xlink:href="#aX"/><use transform="matrix(0.04938271604938272,0,0,0.04938271604938272,85.7283950617284,0)" xlink:href="#aV"/><use transform="matrix(0.04938271604938272,0,0,0.04938271604938272,96.54320987654322,0)" xlink:href="#aR"/><use transform="matrix(0.04938271604938272,0,0,0.04938271604938272,107.35802469135804,0)" xlink:href="#aW"/><use transform="matrix(0.04938271604938272,0,0,0.04938271604938272,113.23456790123458,0)" xlink:href="#aU"/><use transform="matrix(0.04938271604938272,0,0,0.04938271604938272,118.17283950617282,0)" xlink:href="#au"/><use transform="matrix(0.04938271604938272,0,0,0.04938271604938272,125.0864197530864,0)" xlink:href="#aQ"/><use transform="matrix(0.04938271604938272,0,0,0.04938271604938272,140.88888888888889,0)" xlink:href="#av"/><use transform="matrix(0.04938271604938272,0,0,0.04938271604938272,150.76543209876542,0)" xlink:href="#ay"/><use transform="matrix(0.04938271604938272,0,0,0.04938271604938272,161.58024691358023,0)" xlink:href="#aX"/><use transform="matrix(0.04938271604938272,0,0,0.04938271604938272,174.37037037037035,0)" xlink:href="#aw"/><use transform="matrix(0.04938271604938272,0,0,0.04938271604938272,184.24691358024688,0)" xlink:href="#aY"/><use transform="matrix(0.04938271604938272,0,0,0.04938271604938272,189.18518518518516,0)" xlink:href="#aY"/><use transform="matrix(0.04938271604938272,0,0,0.04938271604938272,194.12345679012344,0)" xlink:href="#aZ"/><use transform="matrix(0.04938271604938272,0,0,0.04938271604938272,204.93827160493825,0)" xlink:href="#aw"/><use transform="matrix(0.04938271604938272,0,0,0.04938271604938272,214.81481481481478,0)" xlink:href="#at"/><use transform="matrix(0.04938271604938272,0,0,0.04938271604938272,224.69135802469134,0)" xlink:href="#ba"/></g><path fill="#333" d="M137-138c1-29-70-34-71-4 15 46 118 7 119 86 1 83-164 76-172 9l43-7c4 19 20 25 44 25 33 8 57-30 24-41C81-84 22-81 20-136c-2-80 154-74 161-7" id="bb"/><g id="D"><use transform="matrix(0.04938271604938272,0,0,0.04938271604938272,0,0)" xlink:href="#az"/><use transform="matrix(0.04938271604938272,0,0,0.04938271604938272,5.8765432098765435,0)" xlink:href="#aw"/><use transform="matrix(0.04938271604938272,0,0,0.04938271604938272,15.753086419753087,0)" xlink:href="#bb"/><use transform="matrix(0.04938271604938272,0,0,0.04938271604938272,25.629629629629633,0)" xlink:href="#aP"/><use transform="matrix(0.04938271604938272,0,0,0.04938271604938272,35.50617283950618,0)" xlink:href="#aR"/><use transform="matrix(0.04938271604938272,0,0,0.04938271604938272,46.320987654320994,0)" xlink:href="#at"/><use transform="matrix(0.04938271604938272,0,0,0.04938271604938272,56.19753086419754,0)" xlink:href="#aA"/></g><g id="E"><use transform="matrix(0.04938271604938272,0,0,0.04938271604938272,0,0)" xlink:href="#at"/><use transform="matrix(0.04938271604938272,0,0,0.04938271604938272,9.876543209876544,0)" xlink:href="#aV"/><use transform="matrix(0.04938271604938272,0,0,0.04938271604938272,20.69135802469136,0)" xlink:href="#aR"/><use transform="matrix(0.04938271604938272,0,0,0.04938271604938272,31.506172839506174,0)" xlink:href="#aW"/><use transform="matrix(0.04938271604938272,0,0,0.04938271604938272,37.38271604938272,0)" xlink:href="#aU"/><use transform="matrix(0.04938271604938272,0,0,0.04938271604938272,42.320987654320994,0)" xlink:href="#au"/><use transform="matrix(0.04938271604938272,0,0,0.04938271604938272,49.23456790123458,0)" xlink:href="#aQ"/><use transform="matrix(0.04938271604938272,0,0,0.04938271604938272,65.03703703703705,0)" xlink:href="#aq"/><use transform="matrix(0.04938271604938272,0,0,0.04938271604938272,78.86419753086422,0)" xlink:href="#au"/><use transform="matrix(0.04938271604938272,0,0,0.04938271604938272,85.7777777777778,0)" xlink:href="#ay"/><use transform="matrix(0.04938271604938272,0,0,0.04938271604938272,96.59259259259261,0)" xlink:href="#av"/><use transform="matrix(0.04938271604938272,0,0,0.04938271604938272,106.46913580246914,0)" xlink:href="#au"/><use transform="matrix(0.04938271604938272,0,0,0.04938271604938272,113.38271604938272,0)" xlink:href="#az"/><use transform="matrix(0.04938271604938272,0,0,0.04938271604938272,119.2592592592593,0)" xlink:href="#aA"/></g><path d="M140-251c81 0 123 46 123 126C263-53 228-8 163 1c7 30 30 48 69 40v23c-55 16-95-15-103-61C56-3 17-48 17-125c0-80 42-126 123-126zm0 227c63 0 89-41 89-101s-29-99-89-99c-61 0-89 39-89 99S79-25 140-24" id="bc"/><g id="F"><use transform="matrix(0.05,0,0,0.05,0,0)" xlink:href="#T"/><use transform="matrix(0.05,0,0,0.05,12,0)" xlink:href="#bc"/><use transform="matrix(0.05,0,0,0.05,26,0)" xlink:href="#T"/><path d="M-.9 1.25h39.8v1.32H-.9z"/></g><path fill="#333" d="M24 0v-248h195v40H76v63h132v40H76v65h150V0H24" id="bd"/><path fill="#333" d="M128 0H69L1-190h53L99-40l48-150h52" id="be"/><g id="G"><use transform="matrix(0.04938271604938272,0,0,0.04938271604938272,0,0)" xlink:href="#aE"/><use transform="matrix(0.04938271604938272,0,0,0.04938271604938272,10.814814814814815,0)" xlink:href="#aF"/><use transform="matrix(0.04938271604938272,0,0,0.04938271604938272,21.62962962962963,0)" xlink:href="#ax"/><use transform="matrix(0.04938271604938272,0,0,0.04938271604938272,27.506172839506174,0)" xlink:href="#bd"/><use transform="matrix(0.04938271604938272,0,0,0.04938271604938272,39.358024691358025,0)" xlink:href="#be"/><use transform="matrix(0.04938271604938272,0,0,0.04938271604938272,49.23456790123457,0)" xlink:href="#av"/><use transform="matrix(0.04938271604938272,0,0,0.04938271604938272,59.111111111111114,0)" xlink:href="#aR"/><use transform="matrix(0.04938271604938272,0,0,0.04938271604938272,69.92592592592592,0)" xlink:href="#ax"/><use transform="matrix(0.04938271604938272,0,0,0.04938271604938272,75.80246913580247,0)" xlink:href="#az"/><use transform="matrix(0.04938271604938272,0,0,0.04938271604938272,81.67901234567901,0)" xlink:href="#aA"/></g></defs></g></svg>