<svg xmlns="http://www.w3.org/2000/svg" xmlns:xlink="http://www.w3.org/1999/xlink" xmlns:lucid="lucid" width="961.5" height="780"><g transform="translate(-278.5 -140)" lucid:page-tab-id="0Ee8AjNTonjm"><path d="M0 0h1870.87v1322.84H0z" fill="#fff"/><path d="M563.53 146a6 6 0 0 1 6-6H1234a6 6 0 0 1 6 6v768a6 6 0 0 1-6 6H569.53a6 6 0 0 1-6-6z" fill="#e3fae3"/><use xlink:href="#a" transform="matrix(1,0,0,1,563.5332312037036,160) translate(258.64814814814815 21.333333333333336)"/><path d="M614.7 397.65h78.05v78.04H614.7v-78.05z" stroke="#fff" stroke-opacity="0" fill="#693cc5"/><path d="M665.18 461.65c-.24 0-.42-.1-.6-.2-.3-.2-.45-.5-.45-.85v-47.87c0-.35.2-.7.5-.9.3-.2.7-.2 1.03-.05l13.54 6.65c.36.14.58.5.58.9v36.78c.02.5-.26.9-.72 1.06l-13.52 4.5h-.36zm1.05-47.22v44.72l11.44-3.8v-35.38zM642.27 461.65h-.33l-13.53-4.5c-.42-.15-.7-.6-.7-1.04v-36.78c0-.4.23-.75.6-.9l13.52-6.64c.34-.15.72-.15 1.05.05.3.2.48.55.48.9v47.87c0 .35-.16.65-.44.85-.17.15-.38.2-.63.2zm-12.48-6.25l11.44 3.8v-44.77l-11.45 5.6z" stroke="#fff" stroke-opacity="0" fill="#fff"/><path d="M664.13 426.26H661v-2.08h3.13zm-6.25 0h-3.12v-2.08h3.12zm-6.23 0h-3.12v-2.08h3.12zm-6.25 0h-3.12v-2.08h3.12zM664.13 449.15H661v-2.08h3.13zm-6.25 0h-3.12v-2.08h3.12zm-6.23 0h-3.12v-2.08h3.12zm-6.25 0h-3.12v-2.08h3.12zM649.16 440.25l-3.9-3.34c-.45-.36-.5-1.02-.13-1.46l.12-.12 3.9-3.34 1.35 1.58-2.98 2.6 2.98 2.53zM658.3 440.25l-1.35-1.58 2.97-2.52-2.98-2.55 1.35-1.62 3.9 3.33c.44.4.5 1.05.12 1.48-.04.05-.07.08-.12.1z" stroke="#fff" stroke-opacity="0" fill="#fff"/><path d="M650.66 442.44l4.14-12.23 1.97.68-4.13 12.23-1.98-.66z" stroke="#fff" stroke-opacity="0" stroke-width=".32" fill="#fff"/><use xlink:href="#b" transform="matrix(1,0,0,1,584.7041156018516,484.6875) translate(41.87037037037037 14.222222222222223)"/><path d="M623.73 700h60v40h-60v-40z" fill="#876929"/><path d="M623.73 700h60v37.27h-60z" fill="#d9a741"/><path d="M640.38 705.02h6.38v28.1h-6.38v-28.1zM650.53 705.02h6.4v28.1h-6.4v-28.1zM660.67 705.02h6.4v28.1h-6.4v-28.1zM631.13 712.97v12.2l5.48-6.1-5.47-6.1zM670.83 712.97v12.2l5.48-6.1-5.47-6.1z" fill="#fff"/><use xlink:href="#c" transform="matrix(1,0,0,1,623.724948935185,740) translate(-58.998745555555544 13.937813333333333)"/><use xlink:href="#d" transform="matrix(1,0,0,1,623.724948935185,740) translate(-18.395185185185177 34.84453333333333)"/><path d="M966.77 265.74h10.92v2.76h-10.93c-6 0-10.86-4.92-10.86-10.92s4.87-10.92 10.87-10.92h16.38c4.5 0 8.16-3.66 8.16-8.16s-3.65-8.16-8.15-8.16h-10.92v-2.76h10.92c6 0 10.92 4.92 10.92 10.92s-4.92 10.92-10.92 10.92h-16.38c-4.5 0-8.16 3.66-8.16 8.16s3.67 8.16 8.17 8.16zm30.54 9.6H988l-4.67-8.22 4.68-8.16h9.3l4.7 8.16-4.7 8.22zm7.45-8.88l-5.46-9.54c-.25-.42-.67-.72-1.2-.72h-10.87c-.54 0-.96.3-1.2.72l-5.46 9.54c-.24.42-.24.9 0 1.32l5.46 9.6c.24.42.66.66 1.2.66h10.86c.53 0 .95-.24 1.2-.66l5.45-9.6c.24-.42.24-.9 0-1.32zm-52.2-29.34l-4.68-8.16 4.68-8.22h9.3l4.68 8.22-4.68 8.16h-9.3zm11.28 2.04l5.46-9.54c.23-.42.23-.9 0-1.32l-5.47-9.6c-.24-.42-.66-.66-1.2-.66h-10.86c-.54 0-.96.24-1.2.66l-5.46 9.6c-.23.42-.23.9 0 1.32l5.47 9.54c.24.42.66.72 1.2.72h10.86c.54 0 .96-.3 1.2-.72z" stroke="#000" stroke-opacity="0" fill="#e7157b"/><use xlink:href="#e" transform="matrix(1,0,0,1,914.9328647613547,287.04166666666674) translate(10.599999999999994 14.4)"/><use xlink:href="#f" transform="matrix(1,0,0,1,914.9328647613547,287.04166666666674) translate(51.5 14.4)"/><use xlink:href="#g" transform="matrix(1,0,0,1,914.9328647613547,287.04166666666674) translate(16.525 36)"/><use xlink:href="#h" transform="matrix(1,0,0,1,914.9328647613547,287.04166666666674) translate(67.525 36)"/><path d="M1173.03 268.03h-9.7c-.5 0-.95-.3-1.14-.74l-13.62-29.18h-5.5c-.67 0-1.26-.57-1.26-1.26v-8.42c0-.7.6-1.27 1.27-1.27h12.1c.52 0 .95.3 1.14.74l13.58 29.18h3.1c.7 0 1.28.57 1.28 1.3v8.38c0 .7-.58 1.27-1.27 1.27zm-8.93-2.58h7.63v-5.8h-2.63c-.48 0-.94-.28-1.13-.73l-13.55-29.2h-10.03v5.83h5c.5 0 .96.28 1.16.73z" stroke="#fff" stroke-opacity="0" fill="#d86613"/><path d="M1146.68 268.03h-10.37c-.67 0-1.25-.58-1.25-1.3 0-.2.04-.35.13-.52l10.83-22.7c.24-.45.66-.73 1.17-.73.5 0 .92.26 1.15.7l5.18 10.74c.17.37.17.75 0 1.1l-5.66 12c-.23.45-.66.73-1.16.73zm-8.32-2.55h7.5l5.12-10.7-3.83-7.8z" stroke="#fff" stroke-opacity="0" fill="#d86613"/><path d="M1155.08 280c-16.56 0-30-13.44-30-30 0-16.56 13.44-30 30-30 16.56 0 30 13.44 30 30 0 16.56-13.44 30-30 30zm0-57.42c-15.18 0-27.42 12.24-27.42 27.42 0 15.18 12.23 27.42 27.4 27.42 15.2 0 27.43-12.24 27.43-27.42 0-15.18-12.24-27.42-27.42-27.42z" stroke="#fff" stroke-opacity="0" fill="#d86613"/><use xlink:href="#i" transform="matrix(1,0,0,1,1095.0748978703705,289) translate(3.654320987654323 14.222222222222223)"/><use xlink:href="#j" transform="matrix(1,0,0,1,1095.0748978703705,289) translate(4.246913580246911 35.55555555555556)"/><path d="M623.73 800h60v40h-60v-40z" fill="#876929"/><path d="M623.73 800h60v37.27h-60z" fill="#d9a741"/><path d="M640.38 805.02h6.38v28.1h-6.38v-28.1zM650.53 805.02h6.4v28.1h-6.4v-28.1zM660.67 805.02h6.4v28.1h-6.4v-28.1zM631.13 812.97v12.2l5.48-6.1-5.47-6.1zM670.83 812.97v12.2l5.48-6.1-5.47-6.1z" fill="#fff"/><use xlink:href="#k" transform="matrix(1,0,0,1,623.724948935185,840) translate(-60.814814814814866 14.222222222222223)"/><use xlink:href="#l" transform="matrix(1,0,0,1,623.724948935185,840) translate(-10.962962962962969 35.55555555555556)"/><path d="M984.13 621.44h-8.94c-.45 0-.87-.26-1.05-.68l-12.52-26.83h-5.05c-.63 0-1.17-.53-1.17-1.17v-7.74c0-.64.55-1.17 1.18-1.17h11.14c.48 0 .87.26 1.05.68l12.5 26.84h2.86c.63 0 1.16.52 1.16 1.2v7.7c0 .64-.54 1.17-1.17 1.17zm-8.22-2.37h7.03v-5.34h-2.42c-.43 0-.85-.26-1.03-.67L967 586.18h-9.23v5.38h4.6c.48 0 .9.26 1.08.67z" stroke="#fff" stroke-opacity="0" fill="#d86613"/><path d="M959.88 621.44h-9.54c-.63 0-1.16-.53-1.16-1.18 0-.2.03-.33.12-.5l9.97-20.88c.2-.42.6-.67 1.06-.67.46 0 .85.24 1.06.66l4.76 9.87c.15.33.15.67 0 1l-5.22 11.04c-.2.4-.6.67-1.06.67zm-7.66-2.35h6.9l4.7-9.86-3.5-7.15z" stroke="#fff" stroke-opacity="0" fill="#d86613"/><path d="M967.6 632.46c-15.23 0-27.6-12.37-27.6-27.6 0-15.24 12.37-27.6 27.6-27.6 15.24 0 27.6 12.36 27.6 27.6 0 15.23-12.36 27.6-27.6 27.6zm0-52.84c-13.96 0-25.23 11.27-25.23 25.24 0 13.96 11.27 25.23 25.24 25.23 13.97 0 25.24-11.28 25.24-25.25 0-13.96-11.27-25.23-25.24-25.23z" stroke="#fff" stroke-opacity="0" fill="#d86613"/><use xlink:href="#m" transform="matrix(1,0,0,1,910,641.4591683476609) translate(-32.814814814814866 14.222222222222223)"/><path d="M670.25 615.66h-8.93c-.45 0-.87-.26-1.05-.68l-12.52-26.84h-5.05c-.63 0-1.17-.52-1.17-1.16v-7.75c0-.63.54-1.16 1.17-1.16h11.14c.48 0 .87.26 1.05.68l12.48 26.84h2.87c.63 0 1.16.5 1.16 1.2v7.7c0 .63-.52 1.16-1.15 1.16zm-8.22-2.37h7.02v-5.35h-2.42c-.44 0-.86-.26-1.04-.67l-12.47-26.88h-9.24v5.38h4.6c.47 0 .9.26 1.07.67z" stroke="#fff" stroke-opacity="0" fill="#d86613"/><path d="M646 615.66h-9.54c-.63 0-1.16-.54-1.16-1.2 0-.17.03-.3.12-.47l9.97-20.9c.2-.42.6-.68 1.05-.68.46 0 .85.24 1.06.65l4.78 9.88c.15.32.15.67 0 1l-5.22 11.03c-.2.42-.6.68-1.06.68zm-7.66-2.35h6.9l4.7-9.84-3.5-7.16z" stroke="#fff" stroke-opacity="0" fill="#d86613"/><path d="M653.73 626.68c-15.24 0-27.6-12.37-27.6-27.6 0-15.25 12.36-27.6 27.6-27.6 15.23 0 27.6 12.36 27.6 27.6 0 15.23-12.37 27.6-27.6 27.6zm0-52.84c-13.97 0-25.24 11.26-25.24 25.23s11.26 25.23 25.23 25.23c13.96 0 25.23-11.26 25.23-25.23s-11.27-25.23-25.24-25.23z" stroke="#fff" stroke-opacity="0" fill="#d86613"/><use xlink:href="#n" transform="matrix(1,0,0,1,596.1203647613545,635.6770833333334) translate(8.716049382716044 14.222222222222223)"/><path d="M280 406a6 6 0 0 1 6-6h168a6 6 0 0 1 6 6v108a6 6 0 0 1-6 6H286a6 6 0 0 1-6-6z" stroke="#5e5e5e" stroke-width="3" fill="#b2d6ef"/><use xlink:href="#o" transform="matrix(1,0,0,1,292,412) translate(-3.327160493827165 52.44444444444444)"/><path d="M280 607.42a6 6 0 0 1 6-6h168a6 6 0 0 1 6 6v108a6 6 0 0 1-6 6H286a6 6 0 0 1-6-6z" stroke="#5e5e5e" stroke-width="3" fill="#b2d6ef"/><use xlink:href="#p" transform="matrix(1,0,0,1,292,613.4173228346456) translate(18.21604938271605 53.77777777777778)"/><path d="M632.62 253.64v-17.56h59.35v17.56zm0 20.14V256.3h59.35v17.48zm0 20.2v-17.55h59.35V294zm0 20.14v-17.48h59.35v17.5zm3.67-3.58h52v-10.38h-52zm0-20.14h52v-10.38h-52zm0-40.35h52v-10.38h-52zm0 20.14h52v-10.4h-52zm-24.32-16.56v-17.56h17.92v17.56zm0 40.35v-17.57h17.92V294zm0-20.22V256.3h17.92v17.48zm0 40.35v-17.5h17.92v17.5zm3.68-23.73h10.64v-10.38h-10.64zm0 20.14h10.64v-10.38h-10.64zm0-60.5h10.64v-10.37h-10.64zm0 20.15h10.64v-10.4h-10.64z" stroke="#000" stroke-opacity="0" fill="#2e27ad"/><path d="M614 238.14h75.9v74.3H614v-74.3z" stroke="#000" stroke-opacity="0" fill-opacity="0"/><use xlink:href="#q" transform="matrix(1,0,0,1,581.9784631374021,323.1250000000002) translate(2.6499999999999915 14.4)"/><use xlink:href="#r" transform="matrix(1,0,0,1,581.9784631374021,323.1250000000002) translate(53.55 14.4)"/><use xlink:href="#s" transform="matrix(1,0,0,1,581.9784631374021,323.1250000000002) translate(94.45 14.4)"/><path d="M847.76 281.72h-.48l-17.52-4.6c-.48-.16-.88-.47-1.12-.86-.24-.4-.24-.94-.16-1.33l10.4-37.7c.16-.46.4-.85.88-1.08.4-.24.88-.3 1.36-.16l17.52 4.6c.96.23 1.52 1.24 1.28 2.18l-10.4 37.7c-.08.38-.4.77-.8 1-.32.17-.64.24-.96.24zM800 278.37h-18.15c-1.04 0-1.84-.78-1.84-1.8v-39.02c0-1 .8-1.8 1.85-1.8H800c.97 0 1.77.8 1.77 1.8v39.02c0 1.02-.8 1.8-1.76 1.8zm23.6 0h-18.15c-1.04 0-1.84-.78-1.84-1.8v-39.02c0-1 .8-1.8 1.85-1.8h18.15c1.04 0 1.85.8 1.85 1.8v39.02c0 1.02-.8 1.8-1.85 1.8zm-40-3.6h14.57v-35.42H783.6zm23.7 0h14.47v-35.42H807.3zm25.18-.62l14 3.67 9.44-34.26-14-3.67zM780 221.55v-3.5h79.92v3.5zm0 74.53v-3.5h79.92v3.5z" stroke="#000" stroke-opacity="0" fill="#2e27ad"/><path d="M782.1 219.75h75.92v74.92h-75.9v-74.92z" stroke="#000" stroke-opacity="0" fill-opacity="0"/><use xlink:href="#q" transform="matrix(1,0,0,1,750.0104320156798,305.0833333333335) translate(26.599999999999994 14.4)"/><use xlink:href="#t" transform="matrix(1,0,0,1,750.0104320156798,305.0833333333335) translate(77.5 14.4)"/><use xlink:href="#u" transform="matrix(1,0,0,1,750.0104320156798,305.0833333333335) translate(41.05 36)"/><path d="M786.67 400H860v73.33h-73.33V400z" stroke="#fff" stroke-opacity="0" stroke-width="2" fill="#d6242d"/><path d="M834.4 449.15l1.4-1.38 11.7 11.7-1.4 1.37-11.7-11.7zM799.17 413.9l1.38-1.38 12.96 12.96-1.36 1.38-12.97-12.96zM802.1 456.56l6.85-6.84 1.38 1.38-6.84 6.84-1.4-1.38zM836.33 422.33l6.84-6.84 1.4 1.37-6.86 6.84-1.37-1.37z" stroke="#fff" stroke-opacity="0" stroke-width="1.41" fill="#fff"/><path d="M845.8 435.7c-.2-4.57-1.54-8.44-4.23-12.15l-1.6 1.15c2.45 3.37 3.67 6.85 3.86 11h-1.96v1.95h1.96c-.17 4.2-1.4 7.7-3.85 11.1l1.6 1.12c2.7-3.74 4.03-7.6 4.2-12.22h1.96v-1.97zM811.32 420.06c3.38-2.44 6.86-3.66 11.04-3.84v1.9h1.95v-1.9c4.18.18 7.67 1.4 11.05 3.84l1.18-1.58c-3.75-2.7-7.6-4.04-12.22-4.2v-2.04h-1.94v2.03c-4.62.17-8.48 1.5-12.23 4.2zM835.35 453.37c-3.38 2.44-6.87 3.66-11.04 3.84v-1.95h-1.94v1.96c-4.18-.17-7.66-1.4-11.04-3.83l-1.2 1.58c3.76 2.7 7.62 4.04 12.24 4.22v1.95h1.95v-1.95c4.63-.18 8.5-1.52 12.23-4.22zM805.1 449.87l1.58-1.16c-2.46-3.36-3.67-6.87-3.84-11.06h1.96v-1.94h-1.96c.2-4.17 1.4-7.64 3.84-11.02l-1.58-1.16c-2.7 3.72-4.02 7.6-4.22 12.18h-1.95v1.94h1.95c.17 4.6 1.5 8.5 4.22 12.23zM828.12 423.7c-1.4-1.15-2.97-1.7-4.8-1.68-3.76 0-6.83 2.67-6.83 5.97v4.76h-1.97c-.54 0-.97.45-.97.98v13.7c0 .27.1.5.3.7.16.17.4.28.67.28h17.6c.55 0 .98-.45.98-.98v-13.7c0-.26-.1-.47-.26-.66-.2-.2-.43-.32-.7-.32h-1.96V428c-.02-1.73-.73-3.2-2.06-4.3zm-9.68 4.3c0-2.23 2.2-4.03 4.9-4.03 1.32-.02 2.48.37 3.5 1.22.9.7 1.36 1.65 1.4 2.8v4.76h-9.78zm12.72 9.67h-2.94v1.96h2.94v1.95h-2.94v1.96h2.94v2.93H815.5v-11.75h15.66z" stroke="#fff" stroke-opacity="0" stroke-width="2" fill="#fff"/><path d="M822.35 441.8v2.7h1.96v-2.7c.84-.3 1.42-.88 1.73-1.7.54-1.5-.23-3.14-1.72-3.68-1.48-.53-3.12.24-3.66 1.72-.54 1.5.23 3.13 1.7 3.67zm.98-3.72c.6 0 1.06.46 1.07 1.05 0 .57-.47 1.05-1.05 1.06-.58 0-1.06-.47-1.07-1.06v-.03c0-.56.48-1.02 1.05-1.02z" stroke="#fff" stroke-opacity="0" stroke-width="2" fill="#fff"/><use xlink:href="#v" transform="matrix(1,0,0,1,756.6666666666667,482.33333333333326) translate(15.716049382716044 14.222222222222223)"/><use xlink:href="#w" transform="matrix(1,0,0,1,756.6666666666667,482.33333333333326) translate(66.97530864197532 14.222222222222223)"/><path d="M1183.56 443.52c-1.03 1.04-2.55 1.62-4.07 1.62-1.37 0-2.73-.42-3.77-1.25l-9.43-7.46c-3.36 1.88-7.27 2.97-11.5 2.97-9.28 0-17.1-5.3-19.83-12.6h3.92c2.47 5.53 8.7 9.5 15.9 9.5 9.5 0 17.17-6.73 17.17-15 0-8.3-7.67-15-17.18-15-7.92 0-14.55 4.68-16.55 11.03h-3.76c2.07-8.12 10.38-14.16 20.3-14.16 11.5 0 20.77 8.12 20.77 18.12 0 2.8-.72 5.46-2 7.8l9.6 7.6c2.3 1.77 2.47 4.84.4 6.82zm-28.77-34.05c7.5 0 13.58 5.3 13.58 11.82 0 6.5-6.08 11.8-13.6 11.8-5.18 0-9.66-2.54-11.97-6.3h4.32c1.84 1.94 4.64 3.18 7.67 3.18 5.5 0 9.98-3.9 9.98-8.7 0-4.78-4.47-8.7-10-8.7-3.82 0-7.18 1.94-8.78 4.75h-4c1.92-4.58 6.96-7.86 12.8-7.86zm-49.72 14.16v-3.12h48.83v3.13zm0-25.2v-3.18h37.96v3.18zm0 48.9v-3.18h34.37v3.17zm0-36.3v-3.18h23.5v3.18zm0 23.7v-3.18h23.5v3.17zm75.7 4.3l-9.12-7.17c-.72.94-1.6 1.77-2.56 2.55l9.03 7.14c.8.63 2.08.58 2.8-.15.64-.7.64-1.73-.16-2.35z" stroke="#000" stroke-opacity="0" fill="#b0084d"/><path d="M1105.15 395.26l37.76-.05.17 3.15 11.2 4.8c8-.25 12.57 3.15 16.88 6.8 1.76 2.8 3.92 5.3 4.4 8.9.16 3.4.25 6.87-2 10.27l10.5 8.32c1.03 2.15 1.9 4.3-.58 6.28-2.48 2-4.7 1.57-6.88.78l-10.32-8.16c-3.2 2.04-6.8 3.04-10.64 3.04-2.97.2-5.37-.16-7.37-1l-8.88 5.7.07 3.46-34.4-.2z" stroke="#000" stroke-opacity="0" fill-opacity="0"/><use xlink:href="#x" transform="matrix(1,0,0,1,1075.0748978703705,456.54083165233897) translate(21.4 14.4)"/><use xlink:href="#y" transform="matrix(1,0,0,1,1075.0748978703705,456.54083165233897) translate(32.05 36)"/><use xlink:href="#z" transform="matrix(1,0,0,1,1075.0748978703705,456.54083165233897) translate(76.05 36)"/><use xlink:href="#A" transform="matrix(1,0,0,1,1075.0748978703705,456.54083165233897) translate(32.074999999999996 57.6)"/><path d="M1014.7 431.55c-.34-.4-.6-.77-.84-1.16-1.42-2.45-2.17-4.7-2.67-7.4-2.1-8.95-7.62-15.83-16.3-20.46-6.1-3.35-12.28-5.54-19.55-4.7-9.7 1.1-17.88 4.37-23.56 11.97-3.26 4.5-5.52 8.63-7.44 13.77-1.75 4.44-1.6 9.27-3.76 13.58-.5.9-1 1.6-1.6 2.44-1.5 2.1-3.5 4.04-4.58 6.3-2.67 5.6-1.17 8.8 4.76 11.58.67.25 1.25.5 1.92.77 6.93 2.5 23.22 5.66 33.25 2.2 2.5-.72 4.5-1.5 6.76-2.65 8.03-3.86 16.05-7.85 24.07-11.78 3.76-1.73 6.77-3.73 9.6-6.62 2.6-2.7 2.5-5.2-.07-7.85z" fill="#4b612c"/><path d="M986.38 400.96c4.46 1.44 8.03 3.3 11.67 6.2 2.53 1.8 9.37 8.2 10.93 16.15.15 1.22.3 2.43.52 3.57.22.54.52.96.9 1.4l.8 1.86s1.5 2.16 2.3 3.2c1.05 1.3 1.42 2.64.3 3.97-2.6 3-5.94 5.12-10.03 7.05l.38-3.92-2.68-.72c-1.04 2.12-.37 3.68 2.16 4.83-2.38 1.14-4.54 2.17-6.62 3.13-6.46 3.13-12.85 6.33-19.32 9.4-4.97 2.35-9.8 3.32-15.38 3.2-6.47-.25-11.97-1.2-18.06-3.14-2.6-.9-4.76-4.64-3.94-7 .37-1.13 1.7-1.86 2.97-1.62 4.53.43 9.07.9 13.6 1.4 4.98.53 10.04 1.56 15.02 1.56 5.7 0 11.14-1.57 16.5-3.56-1.65.12-3.28.18-4.84.3-4.54.3-9 .43-13.46.97-5.57.66-10.77-.43-16.05-1.63-4.3-.84-7.73-2.95-10.18-6.27-.97-1.32-1.57-2.77-.82-4.15.6.48 1.26 1.38 1.7 1.32.53-.06 1.42-.84 1.72-1.5.67-1.63 1.1-3.32 1.63-5 .82-3.2 1.7-5.9 2.9-9.05 2.3-5.3 4.83-10.6 8.77-15.2 1.5-1.8 2.9-3.25 4.83-4.75 2.3-1.87 5.36-2.47 8.4-2.77 3.5-.3 7.06-.13 10.7-.2.15 0 .38.2.6.25z" fill="#759c3e"/><path d="M1009 423.33c-.75-1.5-1.46-2.7-2.37-4.1-.83-1.04-1.7-1.83-2.9-2.56-5.24-3.3-12.43-2.1-16.06 2.63-2.98 3.77-4.33 8.06-5.13 12.52-.24 1.34-.4 2.7-.68 4.4-1.56-2.42-2.27-4.8-2.3-7.6-.3-5.4.56-10.63 4.3-15.13 2.66-3.22 5.8-5.84 10.44-6.43 1.3-.05 2.42-.02 3.72.12 1.42 1.1 3.1 2 4.2 3.32 3.05 3.4 5.03 6.8 6.47 11 .14.6.23 1.17.3 1.8z" fill="#b7ca9d"/><path d="M986.36 400.96c-5.14 1.3-8.12 4.73-10.57 8.7-3.52 5.7-6.1 11.7-5.95 18.3.02 4.02.82 7.38 2.6 11.03.2.35.32.75.57 1.35-1.9.08-3.54-.68-4.56-2.12-1.96-2.57-2.8-5.25-2.64-8.38.2-8.53 2.04-16.75 8.23-23.64 1.42-1.5 2.73-2.75 4.42-4.07 1.66-1.37 3.6-1.97 5.83-1.85z" fill="#b7ca9d"/><path d="M1011.2 430.14c0 2.1-1.6 3.22-3.16 4.35-7.84 5.65-16.97 8.64-26.67 10.26-4.3.72-8.68 1.36-13.05 1.84-5.28.57-10.23-1.1-15.24-2.28-2.06-.48-4.05-1.07-6.17-1.63 0-.2 0-.4.07-.6.97-.07 1.8-.07 2.77 0 4.05.63 8.03 1.57 12.08 1.94 3.92.37 7.33.37 11.25 0 7.33-.68 13.5-1.97 20.45-4.33 4.05-1.45 7.32-2.9 11.05-4.86 2.83-1.44 5.47-3.25 5.8-6.56zM1001.48 439.72c1.94-1.05 3.84-2.2 5.85-3.12.92-.26 1.74-.36 2.7-.33l.2.43-6.08 3.72z" fill="#b7ca9d"/><use xlink:href="#B" transform="matrix(1,0,0,1,933.166249159503,461.97916666666663) translate(1.0864197530864104 14.222222222222223)"/><use xlink:href="#C" transform="matrix(1,0,0,1,933.166249159503,461.97916666666663) translate(37.58024691358025 14.222222222222223)"/><use xlink:href="#D" transform="matrix(1,0,0,1,933.166249159503,461.97916666666663) translate(26.24691358024691 35.55555555555556)"/><use xlink:href="#E" transform="matrix(1,0,0,1,933.166249159503,461.97916666666663) translate(4.543209876543209 56.88888888888889)"/><path d="M839.86 621.44h-8.94c-.44 0-.86-.26-1.04-.68l-12.52-26.83h-5.05c-.62 0-1.16-.53-1.16-1.17v-7.74c0-.64.54-1.17 1.17-1.17h11.15c.48 0 .87.26 1.05.68l12.5 26.84h2.86c.63 0 1.16.52 1.16 1.2v7.7c0 .64-.53 1.17-1.16 1.17zm-8.22-2.37h7.02v-5.34h-2.42c-.45 0-.86-.26-1.04-.67l-12.47-26.88h-9.23v5.38h4.6c.48 0 .9.26 1.08.67z" stroke="#fff" stroke-opacity="0" fill="#d86613"/><path d="M815.6 621.44h-9.53c-.63 0-1.16-.53-1.16-1.18 0-.2.04-.33.13-.5L815 598.9c.2-.42.6-.67 1.06-.67.46 0 .85.24 1.06.66l4.77 9.87c.14.33.14.67 0 1l-5.23 11.04c-.2.4-.6.67-1.06.67zm-7.65-2.35h6.9l4.7-9.86-3.5-7.15z" stroke="#fff" stroke-opacity="0" fill="#d86613"/><path d="M823.33 632.46c-15.23 0-27.6-12.37-27.6-27.6 0-15.24 12.37-27.6 27.6-27.6 15.24 0 27.6 12.36 27.6 27.6 0 15.23-12.36 27.6-27.6 27.6zm0-52.84c-13.97 0-25.23 11.27-25.23 25.24 0 13.96 11.26 25.23 25.23 25.23s25.23-11.28 25.23-25.25c0-13.96-11.26-25.23-25.23-25.23z" stroke="#fff" stroke-opacity="0" fill="#d86613"/><use xlink:href="#F" transform="matrix(1,0,0,1,765.7287491595027,641.4591683476609) translate(16.5679012345679 14.222222222222223)"/><path d="M280 206a6 6 0 0 1 6-6h168a6 6 0 0 1 6 6v108a6 6 0 0 1-6 6H286a6 6 0 0 1-6-6z" stroke="#5e5e5e" stroke-width="3" fill="#b2d6ef"/><use xlink:href="#G" transform="matrix(1,0,0,1,292,212) translate(10.222222222222214 53.77777777777778)"/><path d="M933.17 700h60v40h-60v-40z" fill="#876929"/><path d="M933.17 700h60v37.27h-60z" fill="#d9a741"/><path d="M949.82 705.02h6.4v28.1h-6.4v-28.1zM959.97 705.02h6.4v28.1h-6.4v-28.1zM970.1 705.02h6.4v28.1h-6.4v-28.1zM940.57 712.97v12.2l5.48-6.1-5.48-6.1zM980.27 712.97v12.2l5.48-6.1-5.48-6.1z" fill="#fff"/><g><use xlink:href="#H" transform="matrix(1,0,0,1,933.166249159503,740) translate(-37.580246913580254 14.222222222222223)"/><use xlink:href="#I" transform="matrix(1,0,0,1,933.166249159503,740) translate(-6.000000000000007 35.55555555555556)"/></g><path d="M562.7 323.9l-9.52-6m-9.5-6l-19-12m-9.52-6l-19-12m-9.5-6.02l-9.52-6" stroke="#5e5e5e" stroke-width="2" fill="none"/><path d="M563.53 323.3v2.3l-1.38-.88 1.04-1.65z" stroke="#5e5e5e" stroke-width=".05" fill="#5e5e5e"/><path d="M464.24 261.73l14.53 3.7-4.95 7.83z" stroke="#5e5e5e" stroke-width="2" fill="#5e5e5e"/><path d="M562.7 529.43l-9.54-6.55m-9.55-6.55l-19.1-13.1m-9.54-6.56l-19.1-13.1m-9.55-6.55l-9.54-6.55" stroke="#5e5e5e" stroke-width="2" fill="none"/><path d="M563.53 528.82v2.36l-1.4-.96 1.1-1.6z" stroke="#5e5e5e" stroke-width=".05" fill="#5e5e5e"/><path d="M464.17 461.83l14.38 4.25-5.24 7.64z" stroke="#5e5e5e" stroke-width="2" fill="#5e5e5e"/><path d="M562.57 632.1l-9.25 2.68m-9.26 2.68l-18.5 5.37m-9.27 2.7l-18.52 5.36m-9.25 2.68l-9.26 2.68" stroke="#5e5e5e" stroke-width="2" fill="none"/><path d="M563.53 632.83l-.7.2-.55-1.87 1.25-.36z" stroke="#5e5e5e" stroke-width=".05" fill="#5e5e5e"/><path d="M464.6 660.52l12.42-8.43 2.58 8.9z" stroke="#5e5e5e" stroke-width="2" fill="#5e5e5e"/><defs><path d="M59-47c-2 24 18 29 38 22v24C64 9 27 4 27-40v-127H5v-23h24l9-43h21v43h35v23H59v120" id="J"/><path d="M115-194c53 0 69 39 70 98 0 66-23 100-70 100C84 3 66-7 56-30L54 0H23l1-261h32v101c10-23 28-34 59-34zm-8 174c40 0 45-34 45-75 0-40-5-75-45-74-42 0-51 32-51 76 0 43 10 73 51 73" id="K"/><path d="M135-143c-3-34-86-38-87 0 15 53 115 12 119 90S17 21 10-45l28-5c4 36 97 45 98 0-10-56-113-15-118-90-4-57 82-63 122-42 12 7 21 19 24 35" id="L"/><path d="M16-82v-28h88v28H16" id="M"/><path d="M141-36C126-15 110 5 73 4 37 3 15-17 15-53c-1-64 63-63 125-63 3-35-9-54-41-54-24 1-41 7-42 31l-33-3c5-37 33-52 76-52 45 0 72 20 72 64v82c-1 20 7 32 28 27v20c-31 9-61-2-59-35zM48-53c0 20 12 33 32 33 41-3 63-29 60-74-43 2-92-5-92 41" id="N"/><path d="M115-194c55 1 70 41 70 98S169 2 115 4C84 4 66-9 55-30l1 105H24l-1-265h31l2 30c10-21 28-34 59-34zm-8 174c40 0 45-34 45-75s-6-73-45-74c-42 0-51 32-51 76 0 43 10 73 51 73" id="O"/><path d="M100-194c62-1 85 37 85 99 1 63-27 99-86 99S16-35 15-95c0-66 28-99 85-99zM99-20c44 1 53-31 53-75 0-43-8-75-51-75s-53 32-53 75 10 74 51 75" id="P"/><path d="M114-163C36-179 61-72 57 0H25l-1-190h30c1 12-1 29 2 39 6-27 23-49 58-41v29" id="Q"/><path d="M85-194c31 0 48 13 60 33l-1-100h32l1 261h-30c-2-10 0-23-3-31C134-8 116 4 85 4 32 4 16-35 15-94c0-66 23-100 70-100zm9 24c-40 0-46 34-46 75 0 40 6 74 45 74 42 0 51-32 51-76 0-42-9-74-50-73" id="R"/><path d="M100-194c63 0 86 42 84 106H49c0 40 14 67 53 68 26 1 43-12 49-29l28 8c-11 28-37 45-77 45C44 4 14-33 15-96c1-61 26-98 85-98zm52 81c6-60-76-77-97-28-3 7-6 17-6 28h103" id="S"/><g id="a"><use transform="matrix(0.07407407407407408,0,0,0.07407407407407408,0,0)" xlink:href="#J"/><use transform="matrix(0.07407407407407408,0,0,0.07407407407407408,7.407407407407408,0)" xlink:href="#K"/><use transform="matrix(0.07407407407407408,0,0,0.07407407407407408,22.222222222222225,0)" xlink:href="#L"/><use transform="matrix(0.07407407407407408,0,0,0.07407407407407408,35.55555555555556,0)" xlink:href="#M"/><use transform="matrix(0.07407407407407408,0,0,0.07407407407407408,44.370370370370374,0)" xlink:href="#N"/><use transform="matrix(0.07407407407407408,0,0,0.07407407407407408,59.18518518518519,0)" xlink:href="#O"/><use transform="matrix(0.07407407407407408,0,0,0.07407407407407408,74,0)" xlink:href="#O"/><use transform="matrix(0.07407407407407408,0,0,0.07407407407407408,88.81481481481481,0)" xlink:href="#M"/><use transform="matrix(0.07407407407407408,0,0,0.07407407407407408,97.62962962962962,0)" xlink:href="#P"/><use transform="matrix(0.07407407407407408,0,0,0.07407407407407408,112.44444444444443,0)" xlink:href="#Q"/><use transform="matrix(0.07407407407407408,0,0,0.07407407407407408,121.25925925925924,0)" xlink:href="#R"/><use transform="matrix(0.07407407407407408,0,0,0.07407407407407408,136.07407407407405,0)" xlink:href="#S"/><use transform="matrix(0.07407407407407408,0,0,0.07407407407407408,150.88888888888886,0)" xlink:href="#Q"/></g><path d="M205 0l-28-72H64L36 0H1l101-248h38L239 0h-34zm-38-99l-47-123c-12 45-31 82-46 123h93" id="T"/><path d="M30-248c87 1 191-15 191 75 0 78-77 80-158 76V0H30v-248zm33 125c57 0 124 11 124-50 0-59-68-47-124-48v98" id="U"/><path d="M33 0v-248h34V0H33" id="V"/><path d="M143 4C61 4 22-44 18-125c-5-107 100-154 193-111 17 8 29 25 37 43l-32 9c-13-25-37-40-76-40-61 0-88 39-88 99 0 61 29 100 91 101 35 0 62-11 79-27v-45h-74v-28h105v86C228-13 192 4 143 4" id="W"/><path d="M206 0h-36l-40-164L89 0H53L-1-190h32L70-26l43-164h34l41 164 42-164h31" id="X"/><g id="b"><use transform="matrix(0.04938271604938272,0,0,0.04938271604938272,0,0)" xlink:href="#T"/><use transform="matrix(0.04938271604938272,0,0,0.04938271604938272,11.851851851851853,0)" xlink:href="#U"/><use transform="matrix(0.04938271604938272,0,0,0.04938271604938272,23.703703703703706,0)" xlink:href="#V"/><use transform="matrix(0.04938271604938272,0,0,0.04938271604938272,28.641975308641978,0)" xlink:href="#W"/><use transform="matrix(0.04938271604938272,0,0,0.04938271604938272,42.46913580246914,0)" xlink:href="#X"/></g><path d="M179-190L93 31C79 59 56 82 12 73V49c39 6 53-20 64-50L1-190h34L92-34l54-156h33" id="Y"/><path d="M210-169c-67 3-38 105-44 169h-31v-121c0-29-5-50-35-48C34-165 62-65 56 0H25l-1-190h30c1 10-1 24 2 32 10-44 99-50 107 0 11-21 27-35 58-36 85-2 47 119 55 194h-31v-121c0-29-5-49-35-48" id="Z"/><path d="M117-194c89-4 53 116 60 194h-32v-121c0-31-8-49-39-48C34-167 62-67 57 0H25l-1-190h30c1 10-1 24 2 32 11-22 29-35 61-36" id="aa"/><path d="M232-93c-1 65-40 97-104 97C67 4 28-28 28-90v-158h33c8 89-33 224 67 224 102 0 64-133 71-224h33v155" id="ab"/><g id="c"><use transform="matrix(0.04839518518518518,0,0,0.04839518518518518,0,0)" xlink:href="#U"/><use transform="matrix(0.04839518518518518,0,0,0.04839518518518518,11.614844444444444,0)" xlink:href="#N"/><use transform="matrix(0.04839518518518518,0,0,0.04839518518518518,21.293881481481478,0)" xlink:href="#Y"/><use transform="matrix(0.04839518518518518,0,0,0.04839518518518518,30.00501481481481,0)" xlink:href="#Z"/><use transform="matrix(0.04839518518518518,0,0,0.04839518518518518,44.47517518518518,0)" xlink:href="#S"/><use transform="matrix(0.04839518518518518,0,0,0.04839518518518518,54.15421222222221,0)" xlink:href="#aa"/><use transform="matrix(0.04839518518518518,0,0,0.04839518518518518,63.833249259259254,0)" xlink:href="#J"/><use transform="matrix(0.04839518518518518,0,0,0.04839518518518518,68.67276777777776,0)" xlink:href="#V"/><use transform="matrix(0.04839518518518518,0,0,0.04839518518518518,73.51228629629628,0)" xlink:href="#aa"/><use transform="matrix(0.04839518518518518,0,0,0.04839518518518518,83.19132333333332,0)" xlink:href="#J"/><use transform="matrix(0.04839518518518518,0,0,0.04839518518518518,88.03084185185183,0)" xlink:href="#S"/><use transform="matrix(0.04839518518518518,0,0,0.04839518518518518,97.70987888888887,0)" xlink:href="#aa"/><use transform="matrix(0.04839518518518518,0,0,0.04839518518518518,107.38891592592589,0)" xlink:href="#J"/><use transform="matrix(0.04839518518518518,0,0,0.04839518518518518,112.22843444444442,0)" xlink:href="#ab"/><use transform="matrix(0.04839518518518518,0,0,0.04839518518518518,124.76278740740737,0)" xlink:href="#O"/><use transform="matrix(0.04839518518518518,0,0,0.04839518518518518,134.44182444444442,0)" xlink:href="#R"/><use transform="matrix(0.04839518518518518,0,0,0.04839518518518518,144.12086148148146,0)" xlink:href="#N"/><use transform="matrix(0.04839518518518518,0,0,0.04839518518518518,153.7998985185185,0)" xlink:href="#J"/><use transform="matrix(0.04839518518518518,0,0,0.04839518518518518,158.63941703703702,0)" xlink:href="#S"/><use transform="matrix(0.04839518518518518,0,0,0.04839518518518518,168.31845407407405,0)" xlink:href="#R"/></g><path d="M30 0v-248h187v28H63v79h144v27H63v87h162V0H30" id="ac"/><path d="M108 0H70L1-190h34L89-25l56-165h34" id="ad"/><path d="M140-251c81 0 123 46 123 126C263-53 228-8 163 1c7 30 30 48 69 40v23c-55 16-95-15-103-61C56-3 17-48 17-125c0-80 42-126 123-126zm0 227c63 0 89-41 89-101s-29-99-89-99c-61 0-89 39-89 99S79-25 140-24" id="ae"/><path d="M84 4C-5 8 30-112 23-190h32v120c0 31 7 50 39 49 72-2 45-101 50-169h31l1 190h-30c-1-10 1-25-2-33-11 22-28 36-60 37" id="af"/><g id="d"><use transform="matrix(0.04839518518518518,0,0,0.04839518518518518,0,0)" xlink:href="#ac"/><use transform="matrix(0.04839518518518518,0,0,0.04839518518518518,11.614844444444444,0)" xlink:href="#ad"/><use transform="matrix(0.04839518518518518,0,0,0.04839518518518518,20.325977777777776,0)" xlink:href="#S"/><use transform="matrix(0.04839518518518518,0,0,0.04839518518518518,30.00501481481481,0)" xlink:href="#aa"/><use transform="matrix(0.04839518518518518,0,0,0.04839518518518518,39.68405185185185,0)" xlink:href="#J"/><use transform="matrix(0.04839518518518518,0,0,0.04839518518518518,44.523570370370365,0)" xlink:href="#ae"/><use transform="matrix(0.04839518518518518,0,0,0.04839518518518518,58.07422222222222,0)" xlink:href="#af"/><use transform="matrix(0.04839518518518518,0,0,0.04839518518518518,67.75325925925925,0)" xlink:href="#S"/><use transform="matrix(0.04839518518518518,0,0,0.04839518518518518,77.43229629629629,0)" xlink:href="#af"/><use transform="matrix(0.04839518518518518,0,0,0.04839518518518518,87.11133333333332,0)" xlink:href="#S"/></g><path d="M30-248c118-7 216 8 213 122C240-48 200 0 122 0H30v-248zM63-27c89 8 146-16 146-99s-60-101-146-95v194" id="ag"/><g id="e"><use transform="matrix(0.05,0,0,0.05,0,0)" xlink:href="#ag"/><use transform="matrix(0.05,0,0,0.05,12.950000000000001,0)" xlink:href="#ag"/><use transform="matrix(0.05,0,0,0.05,25.900000000000002,0)" xlink:href="#K"/></g><path d="M185-189c-5-48-123-54-124 2 14 75 158 14 163 119 3 78-121 87-175 55-17-10-28-26-33-46l33-7c5 56 141 63 141-1 0-78-155-14-162-118-5-82 145-84 179-34 5 7 8 16 11 25" id="ah"/><g id="f"><use transform="matrix(0.05,0,0,0.05,0,0)" xlink:href="#ah"/><use transform="matrix(0.05,0,0,0.05,12,0)" xlink:href="#J"/><use transform="matrix(0.05,0,0,0.05,17,0)" xlink:href="#Q"/><use transform="matrix(0.05,0,0,0.05,22.95,0)" xlink:href="#S"/><use transform="matrix(0.05,0,0,0.05,32.95,0)" xlink:href="#N"/><use transform="matrix(0.05,0,0,0.05,42.95,0)" xlink:href="#Z"/></g><g id="g"><use transform="matrix(0.05,0,0,0.05,0,0)" xlink:href="#ac"/><use transform="matrix(0.05,0,0,0.05,12,0)" xlink:href="#ad"/><use transform="matrix(0.05,0,0,0.05,21,0)" xlink:href="#S"/><use transform="matrix(0.05,0,0,0.05,31,0)" xlink:href="#aa"/><use transform="matrix(0.05,0,0,0.05,41,0)" xlink:href="#J"/></g><path d="M24-231v-30h32v30H24zM24 0v-190h32V0H24" id="ai"/><g id="h"><use transform="matrix(0.05,0,0,0.05,0,0)" xlink:href="#U"/><use transform="matrix(0.05,0,0,0.05,12,0)" xlink:href="#ai"/><use transform="matrix(0.05,0,0,0.05,15.949999999999998,0)" xlink:href="#O"/><use transform="matrix(0.05,0,0,0.05,25.950000000000003,0)" xlink:href="#S"/></g><path d="M127-220V0H93v-220H8v-28h204v28h-85" id="aj"/><path d="M101-234c-31-9-42 10-38 44h38v23H63V0H32v-167H5v-23h27c-7-52 17-82 69-68v24" id="ak"/><g id="i"><use transform="matrix(0.04938271604938272,0,0,0.04938271604938272,0,0)" xlink:href="#aj"/><use transform="matrix(0.04938271604938272,0,0,0.04938271604938272,10.17283950617284,0)" xlink:href="#Q"/><use transform="matrix(0.04938271604938272,0,0,0.04938271604938272,16.049382716049383,0)" xlink:href="#N"/><use transform="matrix(0.04938271604938272,0,0,0.04938271604938272,25.925925925925927,0)" xlink:href="#aa"/><use transform="matrix(0.04938271604938272,0,0,0.04938271604938272,35.80246913580247,0)" xlink:href="#L"/><use transform="matrix(0.04938271604938272,0,0,0.04938271604938272,44.691358024691354,0)" xlink:href="#ak"/><use transform="matrix(0.04938271604938272,0,0,0.04938271604938272,49.629629629629626,0)" xlink:href="#P"/><use transform="matrix(0.04938271604938272,0,0,0.04938271604938272,59.50617283950616,0)" xlink:href="#Q"/><use transform="matrix(0.04938271604938272,0,0,0.04938271604938272,65.38271604938271,0)" xlink:href="#Z"/><use transform="matrix(0.04938271604938272,0,0,0.04938271604938272,80.14814814814814,0)" xlink:href="#ag"/><use transform="matrix(0.04938271604938272,0,0,0.04938271604938272,92.93827160493827,0)" xlink:href="#R"/><use transform="matrix(0.04938271604938272,0,0,0.04938271604938272,102.8148148148148,0)" xlink:href="#K"/></g><g id="j"><use transform="matrix(0.04938271604938272,0,0,0.04938271604938272,0,0)" xlink:href="#ah"/><use transform="matrix(0.04938271604938272,0,0,0.04938271604938272,11.851851851851853,0)" xlink:href="#J"/><use transform="matrix(0.04938271604938272,0,0,0.04938271604938272,16.790123456790127,0)" xlink:href="#Q"/><use transform="matrix(0.04938271604938272,0,0,0.04938271604938272,22.66666666666667,0)" xlink:href="#S"/><use transform="matrix(0.04938271604938272,0,0,0.04938271604938272,32.543209876543216,0)" xlink:href="#N"/><use transform="matrix(0.04938271604938272,0,0,0.04938271604938272,42.41975308641976,0)" xlink:href="#Z"/><use transform="matrix(0.04938271604938272,0,0,0.04938271604938272,57.18518518518519,0)" xlink:href="#ac"/><use transform="matrix(0.04938271604938272,0,0,0.04938271604938272,69.03703703703704,0)" xlink:href="#ad"/><use transform="matrix(0.04938271604938272,0,0,0.04938271604938272,77.92592592592592,0)" xlink:href="#S"/><use transform="matrix(0.04938271604938272,0,0,0.04938271604938272,87.80246913580247,0)" xlink:href="#aa"/><use transform="matrix(0.04938271604938272,0,0,0.04938271604938272,97.67901234567901,0)" xlink:href="#J"/><use transform="matrix(0.04938271604938272,0,0,0.04938271604938272,102.61728395061729,0)" xlink:href="#L"/></g><g id="k"><use transform="matrix(0.04938271604938272,0,0,0.04938271604938272,0,0)" xlink:href="#U"/><use transform="matrix(0.04938271604938272,0,0,0.04938271604938272,11.851851851851853,0)" xlink:href="#N"/><use transform="matrix(0.04938271604938272,0,0,0.04938271604938272,21.7283950617284,0)" xlink:href="#Y"/><use transform="matrix(0.04938271604938272,0,0,0.04938271604938272,30.617283950617285,0)" xlink:href="#Z"/><use transform="matrix(0.04938271604938272,0,0,0.04938271604938272,45.38271604938272,0)" xlink:href="#S"/><use transform="matrix(0.04938271604938272,0,0,0.04938271604938272,55.25925925925927,0)" xlink:href="#aa"/><use transform="matrix(0.04938271604938272,0,0,0.04938271604938272,65.13580246913581,0)" xlink:href="#J"/><use transform="matrix(0.04938271604938272,0,0,0.04938271604938272,70.07407407407408,0)" xlink:href="#V"/><use transform="matrix(0.04938271604938272,0,0,0.04938271604938272,75.01234567901236,0)" xlink:href="#aa"/><use transform="matrix(0.04938271604938272,0,0,0.04938271604938272,84.8888888888889,0)" xlink:href="#J"/><use transform="matrix(0.04938271604938272,0,0,0.04938271604938272,89.82716049382717,0)" xlink:href="#S"/><use transform="matrix(0.04938271604938272,0,0,0.04938271604938272,99.70370370370371,0)" xlink:href="#aa"/><use transform="matrix(0.04938271604938272,0,0,0.04938271604938272,109.58024691358025,0)" xlink:href="#J"/><use transform="matrix(0.04938271604938272,0,0,0.04938271604938272,114.51851851851853,0)" xlink:href="#ab"/><use transform="matrix(0.04938271604938272,0,0,0.04938271604938272,127.30864197530865,0)" xlink:href="#O"/><use transform="matrix(0.04938271604938272,0,0,0.04938271604938272,137.18518518518522,0)" xlink:href="#R"/><use transform="matrix(0.04938271604938272,0,0,0.04938271604938272,147.06172839506178,0)" xlink:href="#N"/><use transform="matrix(0.04938271604938272,0,0,0.04938271604938272,156.93827160493834,0)" xlink:href="#J"/><use transform="matrix(0.04938271604938272,0,0,0.04938271604938272,161.87654320987662,0)" xlink:href="#S"/><use transform="matrix(0.04938271604938272,0,0,0.04938271604938272,171.75308641975317,0)" xlink:href="#R"/></g><path d="M30 0v-248h33v221h125V0H30" id="al"/><g id="l"><use transform="matrix(0.04938271604938272,0,0,0.04938271604938272,0,0)" xlink:href="#ac"/><use transform="matrix(0.04938271604938272,0,0,0.04938271604938272,11.851851851851853,0)" xlink:href="#ad"/><use transform="matrix(0.04938271604938272,0,0,0.04938271604938272,20.74074074074074,0)" xlink:href="#S"/><use transform="matrix(0.04938271604938272,0,0,0.04938271604938272,30.617283950617285,0)" xlink:href="#aa"/><use transform="matrix(0.04938271604938272,0,0,0.04938271604938272,40.49382716049383,0)" xlink:href="#J"/><use transform="matrix(0.04938271604938272,0,0,0.04938271604938272,45.4320987654321,0)" xlink:href="#ag"/><use transform="matrix(0.04938271604938272,0,0,0.04938271604938272,58.22222222222223,0)" xlink:href="#al"/><use transform="matrix(0.04938271604938272,0,0,0.04938271604938272,68.09876543209877,0)" xlink:href="#ae"/></g><g id="m"><use transform="matrix(0.04938271604938272,0,0,0.04938271604938272,0,0)" xlink:href="#U"/><use transform="matrix(0.04938271604938272,0,0,0.04938271604938272,11.851851851851853,0)" xlink:href="#N"/><use transform="matrix(0.04938271604938272,0,0,0.04938271604938272,21.7283950617284,0)" xlink:href="#Y"/><use transform="matrix(0.04938271604938272,0,0,0.04938271604938272,30.617283950617285,0)" xlink:href="#Z"/><use transform="matrix(0.04938271604938272,0,0,0.04938271604938272,45.38271604938272,0)" xlink:href="#S"/><use transform="matrix(0.04938271604938272,0,0,0.04938271604938272,55.25925925925927,0)" xlink:href="#aa"/><use transform="matrix(0.04938271604938272,0,0,0.04938271604938272,65.13580246913581,0)" xlink:href="#J"/><use transform="matrix(0.04938271604938272,0,0,0.04938271604938272,70.07407407407408,0)" xlink:href="#V"/><use transform="matrix(0.04938271604938272,0,0,0.04938271604938272,75.01234567901236,0)" xlink:href="#aa"/><use transform="matrix(0.04938271604938272,0,0,0.04938271604938272,84.8888888888889,0)" xlink:href="#J"/><use transform="matrix(0.04938271604938272,0,0,0.04938271604938272,89.82716049382717,0)" xlink:href="#S"/><use transform="matrix(0.04938271604938272,0,0,0.04938271604938272,99.70370370370371,0)" xlink:href="#aa"/><use transform="matrix(0.04938271604938272,0,0,0.04938271604938272,109.58024691358025,0)" xlink:href="#J"/><use transform="matrix(0.04938271604938272,0,0,0.04938271604938272,114.51851851851853,0)" xlink:href="#ab"/><use transform="matrix(0.04938271604938272,0,0,0.04938271604938272,127.30864197530865,0)" xlink:href="#O"/><use transform="matrix(0.04938271604938272,0,0,0.04938271604938272,137.18518518518522,0)" xlink:href="#R"/><use transform="matrix(0.04938271604938272,0,0,0.04938271604938272,147.06172839506178,0)" xlink:href="#N"/><use transform="matrix(0.04938271604938272,0,0,0.04938271604938272,156.93827160493834,0)" xlink:href="#J"/><use transform="matrix(0.04938271604938272,0,0,0.04938271604938272,161.87654320987662,0)" xlink:href="#S"/><use transform="matrix(0.04938271604938272,0,0,0.04938271604938272,171.75308641975317,0)" xlink:href="#R"/></g><path d="M212-179c-10-28-35-45-73-45-59 0-87 40-87 99 0 60 29 101 89 101 43 0 62-24 78-52l27 14C228-24 195 4 139 4 59 4 22-46 18-125c-6-104 99-153 187-111 19 9 31 26 39 46" id="am"/><path d="M140-251c81 0 123 46 123 126C263-46 219 4 140 4 59 4 17-45 17-125s42-126 123-126zm0 227c63 0 89-41 89-101s-29-99-89-99c-61 0-89 39-89 99S79-25 140-24" id="an"/><g id="n"><use transform="matrix(0.04938271604938272,0,0,0.04938271604938272,0,0)" xlink:href="#am"/><use transform="matrix(0.04938271604938272,0,0,0.04938271604938272,12.790123456790125,0)" xlink:href="#Q"/><use transform="matrix(0.04938271604938272,0,0,0.04938271604938272,18.666666666666668,0)" xlink:href="#S"/><use transform="matrix(0.04938271604938272,0,0,0.04938271604938272,28.543209876543212,0)" xlink:href="#N"/><use transform="matrix(0.04938271604938272,0,0,0.04938271604938272,38.41975308641976,0)" xlink:href="#J"/><use transform="matrix(0.04938271604938272,0,0,0.04938271604938272,43.35802469135803,0)" xlink:href="#S"/><use transform="matrix(0.04938271604938272,0,0,0.04938271604938272,53.23456790123457,0)" xlink:href="#an"/><use transform="matrix(0.04938271604938272,0,0,0.04938271604938272,67.06172839506173,0)" xlink:href="#Q"/><use transform="matrix(0.04938271604938272,0,0,0.04938271604938272,72.93827160493828,0)" xlink:href="#R"/><use transform="matrix(0.04938271604938272,0,0,0.04938271604938272,82.81481481481482,0)" xlink:href="#S"/><use transform="matrix(0.04938271604938272,0,0,0.04938271604938272,92.69135802469137,0)" xlink:href="#Q"/></g><path d="M54-142c48-35 137-8 131 61C196 18 31 33 14-55l32-4c7 23 22 37 52 37 35-1 51-22 54-58 4-55-73-65-99-34H22l8-134h141v27H59" id="ao"/><path d="M126-127c33 6 58 20 58 59 0 88-139 92-164 29-3-8-5-16-6-25l32-3c6 27 21 44 54 44 32 0 52-15 52-46 0-38-36-46-79-43v-28c39 1 72-4 72-42 0-27-17-43-46-43-28 0-47 15-49 41l-32-3c6-42 35-63 81-64 48-1 79 21 79 65 0 36-21 52-52 59" id="ap"/><g id="o"><use transform="matrix(0.06172839506172839,0,0,0.06172839506172839,0,0)" xlink:href="#J"/><use transform="matrix(0.06172839506172839,0,0,0.06172839506172839,6.172839506172839,0)" xlink:href="#K"/><use transform="matrix(0.06172839506172839,0,0,0.06172839506172839,18.51851851851852,0)" xlink:href="#L"/><use transform="matrix(0.06172839506172839,0,0,0.06172839506172839,29.62962962962963,0)" xlink:href="#M"/><use transform="matrix(0.06172839506172839,0,0,0.06172839506172839,36.97530864197531,0)" xlink:href="#ai"/><use transform="matrix(0.06172839506172839,0,0,0.06172839506172839,41.851851851851855,0)" xlink:href="#aa"/><use transform="matrix(0.06172839506172839,0,0,0.06172839506172839,54.19753086419753,0)" xlink:href="#ak"/><use transform="matrix(0.06172839506172839,0,0,0.06172839506172839,60.370370370370374,0)" xlink:href="#Q"/><use transform="matrix(0.06172839506172839,0,0,0.06172839506172839,67.71604938271605,0)" xlink:href="#N"/><use transform="matrix(0.06172839506172839,0,0,0.06172839506172839,80.06172839506173,0)" xlink:href="#M"/><use transform="matrix(0.06172839506172839,0,0,0.06172839506172839,87.40740740740742,0)" xlink:href="#Q"/><use transform="matrix(0.06172839506172839,0,0,0.06172839506172839,94.7530864197531,0)" xlink:href="#P"/><use transform="matrix(0.06172839506172839,0,0,0.06172839506172839,107.09876543209879,0)" xlink:href="#af"/><use transform="matrix(0.06172839506172839,0,0,0.06172839506172839,119.44444444444447,0)" xlink:href="#J"/><use transform="matrix(0.06172839506172839,0,0,0.06172839506172839,125.6172839506173,0)" xlink:href="#S"/><use transform="matrix(0.06172839506172839,0,0,0.06172839506172839,137.962962962963,0)" xlink:href="#ao"/><use transform="matrix(0.06172839506172839,0,0,0.06172839506172839,150.30864197530866,0)" xlink:href="#ap"/></g><path d="M96-169c-40 0-48 33-48 73s9 75 48 75c24 0 41-14 43-38l32 2c-6 37-31 61-74 61-59 0-76-41-82-99-10-93 101-131 147-64 4 7 5 14 7 22l-32 3c-4-21-16-35-41-35" id="aq"/><path d="M143 0L79-87 56-68V0H24v-261h32v163l83-92h37l-77 82L181 0h-38" id="ar"/><g id="p"><use transform="matrix(0.06172839506172839,0,0,0.06172839506172839,0,0)" xlink:href="#J"/><use transform="matrix(0.06172839506172839,0,0,0.06172839506172839,6.172839506172839,0)" xlink:href="#K"/><use transform="matrix(0.06172839506172839,0,0,0.06172839506172839,18.51851851851852,0)" xlink:href="#L"/><use transform="matrix(0.06172839506172839,0,0,0.06172839506172839,29.62962962962963,0)" xlink:href="#M"/><use transform="matrix(0.06172839506172839,0,0,0.06172839506172839,36.97530864197531,0)" xlink:href="#L"/><use transform="matrix(0.06172839506172839,0,0,0.06172839506172839,48.08641975308642,0)" xlink:href="#S"/><use transform="matrix(0.06172839506172839,0,0,0.06172839506172839,60.432098765432094,0)" xlink:href="#aq"/><use transform="matrix(0.06172839506172839,0,0,0.06172839506172839,71.5432098765432,0)" xlink:href="#M"/><use transform="matrix(0.06172839506172839,0,0,0.06172839506172839,78.88888888888889,0)" xlink:href="#ar"/><use transform="matrix(0.06172839506172839,0,0,0.06172839506172839,90,0)" xlink:href="#Z"/><use transform="matrix(0.06172839506172839,0,0,0.06172839506172839,108.45679012345678,0)" xlink:href="#L"/></g><g id="q"><use transform="matrix(0.05,0,0,0.05,0,0)" xlink:href="#an"/><use transform="matrix(0.05,0,0,0.05,14,0)" xlink:href="#Q"/><use transform="matrix(0.05,0,0,0.05,19.95,0)" xlink:href="#R"/><use transform="matrix(0.05,0,0,0.05,29.950000000000003,0)" xlink:href="#S"/><use transform="matrix(0.05,0,0,0.05,39.95,0)" xlink:href="#Q"/></g><g id="r"><use transform="matrix(0.05,0,0,0.05,0,0)" xlink:href="#ag"/><use transform="matrix(0.05,0,0,0.05,12.950000000000001,0)" xlink:href="#ag"/><use transform="matrix(0.05,0,0,0.05,25.900000000000002,0)" xlink:href="#K"/></g><path d="M24 0v-261h32V0H24" id="as"/><g id="s"><use transform="matrix(0.05,0,0,0.05,0,0)" xlink:href="#aj"/><use transform="matrix(0.05,0,0,0.05,8.950000000000001,0)" xlink:href="#N"/><use transform="matrix(0.05,0,0,0.05,18.950000000000003,0)" xlink:href="#K"/><use transform="matrix(0.05,0,0,0.05,28.950000000000003,0)" xlink:href="#as"/><use transform="matrix(0.05,0,0,0.05,32.900000000000006,0)" xlink:href="#S"/></g><g id="t"><use transform="matrix(0.05,0,0,0.05,0,0)" xlink:href="#ag"/><use transform="matrix(0.05,0,0,0.05,12.950000000000001,0)" xlink:href="#ag"/><use transform="matrix(0.05,0,0,0.05,25.900000000000002,0)" xlink:href="#K"/></g><g id="u"><use transform="matrix(0.05,0,0,0.05,0,0)" xlink:href="#ah"/><use transform="matrix(0.05,0,0,0.05,12,0)" xlink:href="#J"/><use transform="matrix(0.05,0,0,0.05,17,0)" xlink:href="#Q"/><use transform="matrix(0.05,0,0,0.05,22.95,0)" xlink:href="#S"/><use transform="matrix(0.05,0,0,0.05,32.95,0)" xlink:href="#N"/><use transform="matrix(0.05,0,0,0.05,42.95,0)" xlink:href="#Z"/></g><g id="v"><use transform="matrix(0.04938271604938272,0,0,0.04938271604938272,0,0)" xlink:href="#ah"/><use transform="matrix(0.04938271604938272,0,0,0.04938271604938272,11.851851851851853,0)" xlink:href="#J"/><use transform="matrix(0.04938271604938272,0,0,0.04938271604938272,16.790123456790127,0)" xlink:href="#Q"/><use transform="matrix(0.04938271604938272,0,0,0.04938271604938272,22.66666666666667,0)" xlink:href="#ai"/><use transform="matrix(0.04938271604938272,0,0,0.04938271604938272,26.567901234567902,0)" xlink:href="#O"/><use transform="matrix(0.04938271604938272,0,0,0.04938271604938272,36.44444444444445,0)" xlink:href="#S"/></g><g id="w"><use transform="matrix(0.04938271604938272,0,0,0.04938271604938272,0,0)" xlink:href="#ah"/><use transform="matrix(0.04938271604938272,0,0,0.04938271604938272,11.851851851851853,0)" xlink:href="#S"/><use transform="matrix(0.04938271604938272,0,0,0.04938271604938272,21.7283950617284,0)" xlink:href="#aq"/><use transform="matrix(0.04938271604938272,0,0,0.04938271604938272,30.617283950617285,0)" xlink:href="#Q"/><use transform="matrix(0.04938271604938272,0,0,0.04938271604938272,36.49382716049383,0)" xlink:href="#S"/><use transform="matrix(0.04938271604938272,0,0,0.04938271604938272,46.370370370370374,0)" xlink:href="#J"/></g><path d="M266 0h-40l-56-210L115 0H75L2-248h35L96-30l15-64 43-154h32l59 218 59-218h35" id="at"/><path d="M106-169C34-169 62-67 57 0H25v-261h32l-1 103c12-21 28-36 61-36 89 0 53 116 60 194h-32v-121c2-32-8-49-39-48" id="au"/><g id="x"><use transform="matrix(0.05,0,0,0.05,0,0)" xlink:href="#am"/><use transform="matrix(0.05,0,0,0.05,12.950000000000001,0)" xlink:href="#as"/><use transform="matrix(0.05,0,0,0.05,16.900000000000002,0)" xlink:href="#P"/><use transform="matrix(0.05,0,0,0.05,26.900000000000002,0)" xlink:href="#af"/><use transform="matrix(0.05,0,0,0.05,36.900000000000006,0)" xlink:href="#R"/><use transform="matrix(0.05,0,0,0.05,46.900000000000006,0)" xlink:href="#at"/><use transform="matrix(0.05,0,0,0.05,63.2,0)" xlink:href="#N"/><use transform="matrix(0.05,0,0,0.05,73.2,0)" xlink:href="#J"/><use transform="matrix(0.05,0,0,0.05,78.2,0)" xlink:href="#aq"/><use transform="matrix(0.05,0,0,0.05,87.2,0)" xlink:href="#au"/></g><path d="M177-190C167-65 218 103 67 71c-23-6-38-20-44-43l32-5c15 47 100 32 89-28v-30C133-14 115 1 83 1 29 1 15-40 15-95c0-56 16-97 71-98 29-1 48 16 59 35 1-10 0-23 2-32h30zM94-22c36 0 50-32 50-73 0-42-14-75-50-75-39 0-46 34-46 75s6 73 46 73" id="av"/><g id="y"><use transform="matrix(0.05,0,0,0.05,0,0)" xlink:href="#al"/><use transform="matrix(0.05,0,0,0.05,10,0)" xlink:href="#P"/><use transform="matrix(0.05,0,0,0.05,20,0)" xlink:href="#av"/><use transform="matrix(0.05,0,0,0.05,30,0)" xlink:href="#L"/></g><path d="M87 75C49 33 22-17 22-94c0-76 28-126 65-167h31c-38 41-64 92-64 168S80 34 118 75H87" id="aw"/><g id="z"><use transform="matrix(0.05,0,0,0.05,0,0)" xlink:href="#aw"/><use transform="matrix(0.05,0,0,0.05,5.95,0)" xlink:href="#O"/><use transform="matrix(0.05,0,0,0.05,15.949999999999998,0)" xlink:href="#S"/><use transform="matrix(0.05,0,0,0.05,25.950000000000003,0)" xlink:href="#Q"/></g><path d="M33-261c38 41 65 92 65 168S71 34 33 75H2C39 34 66-17 66-93S39-220 2-261h31" id="ax"/><g id="A"><use transform="matrix(0.05,0,0,0.05,0,0)" xlink:href="#Q"/><use transform="matrix(0.05,0,0,0.05,5.95,0)" xlink:href="#S"/><use transform="matrix(0.05,0,0,0.05,15.949999999999998,0)" xlink:href="#L"/><use transform="matrix(0.05,0,0,0.05,24.95,0)" xlink:href="#P"/><use transform="matrix(0.05,0,0,0.05,34.95,0)" xlink:href="#af"/><use transform="matrix(0.05,0,0,0.05,44.95,0)" xlink:href="#Q"/><use transform="matrix(0.05,0,0,0.05,50.900000000000006,0)" xlink:href="#aq"/><use transform="matrix(0.05,0,0,0.05,59.900000000000006,0)" xlink:href="#S"/><use transform="matrix(0.05,0,0,0.05,69.9,0)" xlink:href="#ax"/></g><path d="M240 0l2-218c-23 76-54 145-80 218h-23L58-218 59 0H30v-248h44l77 211c21-75 51-140 76-211h43V0h-30" id="ay"/><g id="B"><use transform="matrix(0.04938271604938272,0,0,0.04938271604938272,0,0)" xlink:href="#V"/><use transform="matrix(0.04938271604938272,0,0,0.04938271604938272,4.938271604938272,0)" xlink:href="#T"/><use transform="matrix(0.04938271604938272,0,0,0.04938271604938272,16.790123456790127,0)" xlink:href="#ay"/></g><path d="M233-177c-1 41-23 64-60 70L243 0h-38l-65-103H63V0H30v-248c88 3 205-21 203 71zM63-129c60-2 137 13 137-47 0-61-80-42-137-45v92" id="az"/><g id="C"><use transform="matrix(0.04938271604938272,0,0,0.04938271604938272,0,0)" xlink:href="#az"/><use transform="matrix(0.04938271604938272,0,0,0.04938271604938272,12.790123456790125,0)" xlink:href="#P"/><use transform="matrix(0.04938271604938272,0,0,0.04938271604938272,22.66666666666667,0)" xlink:href="#as"/><use transform="matrix(0.04938271604938272,0,0,0.04938271604938272,26.567901234567902,0)" xlink:href="#S"/><use transform="matrix(0.04938271604938272,0,0,0.04938271604938272,36.44444444444445,0)" xlink:href="#L"/></g><g id="D"><use transform="matrix(0.04938271604938272,0,0,0.04938271604938272,0,0)" xlink:href="#aw"/><use transform="matrix(0.04938271604938272,0,0,0.04938271604938272,5.8765432098765435,0)" xlink:href="#O"/><use transform="matrix(0.04938271604938272,0,0,0.04938271604938272,15.753086419753087,0)" xlink:href="#S"/><use transform="matrix(0.04938271604938272,0,0,0.04938271604938272,25.629629629629633,0)" xlink:href="#Q"/></g><g id="E"><use transform="matrix(0.04938271604938272,0,0,0.04938271604938272,0,0)" xlink:href="#Q"/><use transform="matrix(0.04938271604938272,0,0,0.04938271604938272,5.8765432098765435,0)" xlink:href="#S"/><use transform="matrix(0.04938271604938272,0,0,0.04938271604938272,15.753086419753087,0)" xlink:href="#L"/><use transform="matrix(0.04938271604938272,0,0,0.04938271604938272,24.641975308641978,0)" xlink:href="#P"/><use transform="matrix(0.04938271604938272,0,0,0.04938271604938272,34.51851851851852,0)" xlink:href="#af"/><use transform="matrix(0.04938271604938272,0,0,0.04938271604938272,44.39506172839506,0)" xlink:href="#Q"/><use transform="matrix(0.04938271604938272,0,0,0.04938271604938272,50.27160493827161,0)" xlink:href="#aq"/><use transform="matrix(0.04938271604938272,0,0,0.04938271604938272,59.1604938271605,0)" xlink:href="#S"/><use transform="matrix(0.04938271604938272,0,0,0.04938271604938272,69.03703703703704,0)" xlink:href="#ax"/></g><g id="F"><use transform="matrix(0.04938271604938272,0,0,0.04938271604938272,0,0)" xlink:href="#W"/><use transform="matrix(0.04938271604938272,0,0,0.04938271604938272,13.827160493827162,0)" xlink:href="#S"/><use transform="matrix(0.04938271604938272,0,0,0.04938271604938272,23.703703703703706,0)" xlink:href="#J"/><use transform="matrix(0.04938271604938272,0,0,0.04938271604938272,28.641975308641978,0)" xlink:href="#an"/><use transform="matrix(0.04938271604938272,0,0,0.04938271604938272,42.46913580246914,0)" xlink:href="#Q"/><use transform="matrix(0.04938271604938272,0,0,0.04938271604938272,48.345679012345684,0)" xlink:href="#R"/><use transform="matrix(0.04938271604938272,0,0,0.04938271604938272,58.22222222222223,0)" xlink:href="#S"/><use transform="matrix(0.04938271604938272,0,0,0.04938271604938272,68.09876543209877,0)" xlink:href="#Q"/><use transform="matrix(0.04938271604938272,0,0,0.04938271604938272,73.97530864197532,0)" xlink:href="#L"/></g><g id="G"><use transform="matrix(0.06172839506172839,0,0,0.06172839506172839,0,0)" xlink:href="#J"/><use transform="matrix(0.06172839506172839,0,0,0.06172839506172839,6.172839506172839,0)" xlink:href="#K"/><use transform="matrix(0.06172839506172839,0,0,0.06172839506172839,18.51851851851852,0)" xlink:href="#L"/><use transform="matrix(0.06172839506172839,0,0,0.06172839506172839,29.62962962962963,0)" xlink:href="#M"/><use transform="matrix(0.06172839506172839,0,0,0.06172839506172839,36.97530864197531,0)" xlink:href="#ai"/><use transform="matrix(0.06172839506172839,0,0,0.06172839506172839,41.851851851851855,0)" xlink:href="#aa"/><use transform="matrix(0.06172839506172839,0,0,0.06172839506172839,54.19753086419753,0)" xlink:href="#ak"/><use transform="matrix(0.06172839506172839,0,0,0.06172839506172839,60.370370370370374,0)" xlink:href="#Q"/><use transform="matrix(0.06172839506172839,0,0,0.06172839506172839,67.71604938271605,0)" xlink:href="#N"/><use transform="matrix(0.06172839506172839,0,0,0.06172839506172839,80.06172839506173,0)" xlink:href="#M"/><use transform="matrix(0.06172839506172839,0,0,0.06172839506172839,87.40740740740742,0)" xlink:href="#K"/><use transform="matrix(0.06172839506172839,0,0,0.06172839506172839,99.7530864197531,0)" xlink:href="#N"/><use transform="matrix(0.06172839506172839,0,0,0.06172839506172839,112.09876543209879,0)" xlink:href="#L"/><use transform="matrix(0.06172839506172839,0,0,0.06172839506172839,123.2098765432099,0)" xlink:href="#S"/></g><g id="H"><use transform="matrix(0.04938271604938272,0,0,0.04938271604938272,0,0)" xlink:href="#ag"/><use transform="matrix(0.04938271604938272,0,0,0.04938271604938272,12.790123456790125,0)" xlink:href="#R"/><use transform="matrix(0.04938271604938272,0,0,0.04938271604938272,22.66666666666667,0)" xlink:href="#K"/><use transform="matrix(0.04938271604938272,0,0,0.04938271604938272,32.543209876543216,0)" xlink:href="#ah"/><use transform="matrix(0.04938271604938272,0,0,0.04938271604938272,44.39506172839507,0)" xlink:href="#J"/><use transform="matrix(0.04938271604938272,0,0,0.04938271604938272,49.33333333333334,0)" xlink:href="#Q"/><use transform="matrix(0.04938271604938272,0,0,0.04938271604938272,55.209876543209894,0)" xlink:href="#S"/><use transform="matrix(0.04938271604938272,0,0,0.04938271604938272,65.08641975308643,0)" xlink:href="#N"/><use transform="matrix(0.04938271604938272,0,0,0.04938271604938272,74.96296296296298,0)" xlink:href="#Z"/><use transform="matrix(0.04938271604938272,0,0,0.04938271604938272,89.7283950617284,0)" xlink:href="#ac"/><use transform="matrix(0.04938271604938272,0,0,0.04938271604938272,101.58024691358025,0)" xlink:href="#ad"/><use transform="matrix(0.04938271604938272,0,0,0.04938271604938272,110.46913580246914,0)" xlink:href="#S"/><use transform="matrix(0.04938271604938272,0,0,0.04938271604938272,120.34567901234568,0)" xlink:href="#aa"/><use transform="matrix(0.04938271604938272,0,0,0.04938271604938272,130.22222222222223,0)" xlink:href="#J"/></g><g id="I"><use transform="matrix(0.04938271604938272,0,0,0.04938271604938272,0,0)" xlink:href="#U"/><use transform="matrix(0.04938271604938272,0,0,0.04938271604938272,11.851851851851853,0)" xlink:href="#ai"/><use transform="matrix(0.04938271604938272,0,0,0.04938271604938272,15.753086419753087,0)" xlink:href="#O"/><use transform="matrix(0.04938271604938272,0,0,0.04938271604938272,25.629629629629633,0)" xlink:href="#S"/><use transform="matrix(0.04938271604938272,0,0,0.04938271604938272,35.50617283950618,0)" xlink:href="#ag"/><use transform="matrix(0.04938271604938272,0,0,0.04938271604938272,48.296296296296305,0)" xlink:href="#al"/><use transform="matrix(0.04938271604938272,0,0,0.04938271604938272,58.17283950617284,0)" xlink:href="#ae"/></g></defs></g></svg>