<svg xmlns="http://www.w3.org/2000/svg" xmlns:xlink="http://www.w3.org/1999/xlink" xmlns:lucid="lucid" width="942" height="511.5"><g transform="translate(-79.5 -341.83333333333337)" lucid:page-tab-id="G8S9E9lpXhYs"><path d="M0 0h1870.87v1322.84H0z" fill="#fff"/><path d="M460 538a6 6 0 0 1 6-6h128a6 6 0 0 1 6 6v68a6 6 0 0 1-6 6H466a6 6 0 0 1-6-6z" stroke="#5e5e5e" stroke-width="3" fill="#5abaa7"/><use xlink:href="#a" transform="matrix(1,0,0,1,472,544) translate(29.66666666666667 21.27777777777778)"/><use xlink:href="#b" transform="matrix(1,0,0,1,472,544) translate(21.02469135802469 47.94444444444444)"/><path d="M800 526a6 6 0 0 1 6-6h208a6 6 0 0 1 6 6v92a6 6 0 0 1-6 6H806a6 6 0 0 1-6-6z" stroke="#5e5e5e" stroke-width="3" fill="#5abaa7"/><use xlink:href="#c" transform="matrix(1,0,0,1,812,532) translate(7.506172839506178 45.27777777777778)"/><use xlink:href="#b" transform="matrix(1,0,0,1,812,532) translate(114.54320987654322 45.27777777777778)"/><path d="M630.5 573.48H603v-2.96h27.5zm147.38 0h-36.13v-2.96h36.13z" stroke="#5e5e5e" stroke-width=".05" fill="#5e5e5e"/><path d="M603.04 573.48h-1.54v-2.96h1.54z" fill="#5e5e5e"/><path stroke="#5e5e5e" stroke-width=".05" fill="#5e5e5e"/><path d="M793.65 572l-14.27 4.63v-9.26z" fill="#5e5e5e"/><path d="M798.42 572l-20.5 6.66v-13.32zm-17.56 2.6l8-2.6-8-2.6z" stroke="#5e5e5e" stroke-width=".05" fill="#5e5e5e"/><use xlink:href="#d" transform="matrix(1,0,0,1,630.4952122976748,550.6666666666666) translate(0 14.222222222222223)"/><use xlink:href="#e" transform="matrix(1,0,0,1,630.4952122976748,550.6666666666666) translate(19.75308641975309 14.222222222222223)"/><use xlink:href="#f" transform="matrix(1,0,0,1,630.4952122976748,550.6666666666666) translate(65.92592592592592 14.222222222222223)"/><use xlink:href="#g" transform="matrix(1,0,0,1,630.4952122976748,550.6666666666666) translate(0 35.55555555555556)"/><path d="M693.9 705.5v2.96c0 1.35-3.92 3.57-11.35 4.84-4.16.7-8.33 1.04-12.55 1.03-15.47 0-24-3.87-24-5.85v-2.98c0 1.98 8.43 5.85 24 5.85 4.46.02 8.2-.27 12.6-1 7.38-1.32 11.3-3.5 11.3-4.85z" fill="#0c79b0"/><path d="M700 728.93v2.6c-.42 16.1-14.22 28.77-30.78 28.34-16.02-.44-28.8-12.8-29.22-28.35v-2.6h60z" fill-opacity="0"/><path d="M693.7 706.05v3c-.8 1.3-4.64 3.16-11.16 4.24-4.12.7-8.34 1.03-12.56 1.03-15.5 0-23.98-3.87-23.98-5.83v-3c0 1.96 8.44 5.83 23.98 5.83 4.46.06 8.24-.27 12.6-.98 6.58-1.1 10.37-2.94 11.23-4.3m.06 43.86c.04-.1.1-.2.1-.37v4.96l-.06.2c-.04.06-.1.17-.14.28v.05l-.14.17-.2.27-.2.22-.32.2-.3.23-.33.27-.38.16-.5.27-.37.22-.67.27-.4.17c-.37.15-.75.26-1.2.42l-.42.1-.96.28-.62.17-.9.22-.73.15-1 .22-.82.1-1.1.23-.9.1-1.25.1-.9.12-1.5.1-.96.12-1.7.05h-3.6c-8.7 0-15.28-1.04-19.65-2.4-3.16-1.1-5.46-2.3-5.7-3.16v-4.75c.24.87 2.25 1.96 5.08 3l-.05-.28c6.9 2.07 13.05 2.94 20.3 2.94h3.58l1.73-.05.9-.05 1.44-.16.9-.07 1.3-.16.82-.1 1.2-.17 5.47-1.3c.43-.17.86-.28 1.24-.44l1.06-.44.24-.16.67-.33.24-.16.48-.28.2-.17.37-.33.15-.1.28-.33v-.22l.2-.44z" fill="#0c79b0"/><path d="M670 700c4.22-.03 8.43.3 12.6 1 7.38 1.26 11.3 3.48 11.3 4.86 0 1.4-3.92 3.54-11.35 4.82-4.16.68-8.33 1.02-12.55 1-15.47 0-24-3.87-24-5.84 0-2 8.48-5.84 24-5.84z" fill="#3aa6dd"/><path d="M682.25 715.4c-.68.13-1.3.18-1.97.32-.34 0-.67.1-1.05.14l-1.83.18c-.43 0-.86.1-1.24.1l-2.4.13h-.43c-.96 0-1.92.05-2.93.1h-.62c-9.5 0-19.1-1.62-23.74-4.65v40.14c.24.92 2.54 2.1 5.7 3.17 4.28 1.33 10.9 2.4 19.62 2.4 15.97.04 22.63-3.73 22.63-5.76v-40.23c-2.5 1.66-6.53 3.08-11.75 3.96z" fill="#3aa6dd"/><use xlink:href="#a" transform="matrix(1,0,0,1,640,760) translate(1.6666666666666714 17.77777777777778)"/><use xlink:href="#h" transform="matrix(1,0,0,1,640,760) translate(8.395061728395063 44.44444444444444)"/><use xlink:href="#i" transform="matrix(1,0,0,1,640,760) translate(5.33950617283951 71.11111111111111)"/><path d="M634.47 688.1l-2.18 1.97-67.8-74.47 2.18-1.98z" stroke="#282c33" stroke-width=".05" fill="#282c33"/><path d="M566.7 613.64l-2.17 2-1.94-2.14h3.98z" fill="#282c33"/><path stroke="#282c33" stroke-width=".05" fill="#282c33"/><path d="M644 700.74l-13.04-7.43 6.86-6.23z" fill="#282c33"/><path d="M647.2 704.27l-18.74-10.68 9.86-9zm-13.75-11.24l7.33 4.18-3.47-7.67z" stroke="#282c33" stroke-width=".05" fill="#282c33"/><use xlink:href="#j" transform="matrix(1,0,0,1,629.2594494136823,662.7036986678121) translate(0 14.222222222222223)"/><use xlink:href="#k" transform="matrix(1,0,0,1,629.2594494136823,662.7036986678121) translate(19.75308641975309 14.222222222222223)"/><use xlink:href="#l" transform="matrix(1,0,0,1,629.2594494136823,662.7036986678121) translate(77.92592592592594 14.222222222222223)"/><path d="M911.48 699.84h-2.96v-16.2h2.96zm0-37.53h-2.96V627h2.96z" stroke="#282c33" stroke-width=".05" fill="#282c33"/><path d="M911.48 627.04h-2.96v-1.54h2.96z" fill="#282c33"/><path stroke="#282c33" stroke-width=".05" fill="#282c33"/><path d="M910 715.6l-4.63-14.26h9.26z" fill="#282c33"/><path d="M910 720.38l-6.66-20.5h13.32zm-2.6-17.56l2.6 8 2.6-8z" stroke="#282c33" stroke-width=".05" fill="#282c33"/><use xlink:href="#m" transform="matrix(1,0,0,1,858.1481481481482,662.3139873648295) translate(0 14.222222222222223)"/><use xlink:href="#n" transform="matrix(1,0,0,1,858.1481481481482,662.3139873648295) translate(19.75308641975309 14.222222222222223)"/><use xlink:href="#o" transform="matrix(1,0,0,1,858.1481481481482,662.3139873648295) translate(56.296296296296305 14.222222222222223)"/><path d="M180 349.33a6 6 0 0 1 6-6h128a6 6 0 0 1 6 6v68a6 6 0 0 1-6 6H186a6 6 0 0 1-6-6z" stroke="#5e5e5e" stroke-width="3" fill="#b2d6ef"/><use xlink:href="#p" transform="matrix(1,0,0,1,192,355.33333333333337) translate(46.91975308641975 31.77777777777778)"/><path d="M180 512.67a6 6 0 0 1 6-6h128a6 6 0 0 1 6 6v118.66a6 6 0 0 1-6 6H186a6 6 0 0 1-6-6z" stroke="#5e5e5e" stroke-width="3" fill="#b2b2b2"/><use xlink:href="#q" transform="matrix(1,0,0,1,192,518.6666666666667) translate(3.8024691358024683 21.12152777777778)"/><use xlink:href="#r" transform="matrix(1,0,0,1,192,518.6666666666667) translate(3.70987654320988 47.78819444444444)"/><use xlink:href="#s" transform="matrix(1,0,0,1,192,518.6666666666667) translate(97.47530864197532 47.78819444444444)"/><use xlink:href="#t" transform="matrix(1,0,0,1,192,518.6666666666667) translate(20.407407407407412 74.45486111111111)"/><use xlink:href="#u" transform="matrix(1,0,0,1,192,518.6666666666667) translate(20.99382716049383 101.12152777777777)"/><path d="M440 572H322.5" stroke="#5e5e5e" stroke-width="2" fill="none"/><path d="M455.26 572L441 576.63v-9.26z" stroke="#5e5e5e" stroke-width="2" fill="#5e5e5e"/><path d="M322.53 572.98h-1.03V571h1.03z" stroke="#5e5e5e" stroke-width=".05" fill="#5e5e5e"/><use xlink:href="#v" transform="matrix(1,0,0,1,349.1111111111104,504) translate(0 14.222222222222223)"/><use xlink:href="#w" transform="matrix(1,0,0,1,349.1111111111104,504) translate(19.75308641975309 14.222222222222223)"/><use xlink:href="#x" transform="matrix(1,0,0,1,349.1111111111104,504) translate(0 35.55555555555556)"/><use xlink:href="#g" transform="matrix(1,0,0,1,349.1111111111104,504) translate(0 56.88888888888889)"/><path d="M250.97 486.67h-1.94v-10.14h1.94zm0-32.34h-1.94v-8.22h1.94zm0-18.36h-1.94v-10.14h1.94z" stroke="#5e5e5e" stroke-width=".05" fill="#5e5e5e"/><path d="M250.97 425.86h-1.94v-1.03h1.94z" fill="#5e5e5e"/><path stroke="#5e5e5e" stroke-width=".05" fill="#5e5e5e"/><path d="M250 501.93l-4.63-14.26h9.26z" fill="#5e5e5e"/><path d="M250 505.1l-5.98-18.4h11.96zm-3.3-16.46l3.3 10.13 3.3-10.13z" stroke="#5e5e5e" stroke-width=".05" fill="#5e5e5e"/><use xlink:href="#y" transform="matrix(1,0,0,1,170.5679012345679,454.33333333333337) translate(0 14.222222222222223)"/><use xlink:href="#z" transform="matrix(1,0,0,1,170.5679012345679,454.33333333333337) translate(19.75308641975309 14.222222222222223)"/><use xlink:href="#A" transform="matrix(1,0,0,1,170.5679012345679,454.33333333333337) translate(88.79012345679013 14.222222222222223)"/><path d="M524.98 512H523v-10.22H525zm0-20.45H523V471.1H525zm0-30.66H523v-20.46H525zm0-30.68H523v-20.44H525zm-5.9-47.78l1.08.26 1 .42.94.57.83.7.72.83.57.94.42 1 .25 1.07.08 1.06v10.25H523v-10.18l-.06-.82-.18-.77-.3-.73-.42-.67-.5-.6-.6-.5-.68-.42-.73-.3-.76-.2-.84-.05h-9.27v-1.94h9.34zm-187.27 1.87h-9.3v-1.94h9.3zm27.94 0h-18.62v-1.94h18.62zm27.93 0h-18.62v-1.94h18.62zm83.78 0h-18.62v-1.94h18.62zm27.93 0h-18.62v-1.94h18.62z" stroke="#5e5e5e" stroke-width=".05" fill="#5e5e5e"/><path d="M322.53 384.3h-1.03v-1.94h1.03z" fill="#5e5e5e"/><path stroke="#5e5e5e" stroke-width=".05" fill="#5e5e5e"/><path d="M524 527.26L519.37 513h9.26z" fill="#5e5e5e"/><path d="M524 530.42l-5.98-18.4h11.96zm-3.3-16.45l3.3 10.14 3.3-10.13z" stroke="#5e5e5e" stroke-width=".05" fill="#5e5e5e"/><use xlink:href="#B" transform="matrix(1,0,0,1,387.76656105201585,362.00000000000006) translate(0 14.222222222222223)"/><use xlink:href="#C" transform="matrix(1,0,0,1,387.76656105201585,362.00000000000006) translate(17.77777777777778 14.222222222222223)"/><use xlink:href="#l" transform="matrix(1,0,0,1,387.76656105201585,362.00000000000006) translate(17.77777777777778 35.55555555555556)"/><path d="M129.2 394.26c9.76 5.1 15.8 14.46 15.8 24.36 0 .78-.72 1.38-1.63 1.38H81.63c-.9 0-1.62-.6-1.62-1.38 0-13.32 10.66-24.54 24.9-27.54-6.83-2.52-11.58-8.22-11.58-14.88 0-8.94 8.6-16.2 19.18-16.2 10.6 0 19.18 7.26 19.18 16.2 0 6.66-4.75 12.36-11.58 14.88 3.2.66 6.25 1.68 9.1 3.18zM83.33 417.3h58.37c-.53-8.52-5.86-16.32-14.25-20.7-4.48-2.4-9.7-3.6-14.95-3.6-15.6 0-28.4 10.74-29.2 24.3zm13.26-41.1c0 7.44 7.14 13.44 15.92 13.44 8.78 0 15.93-6 15.93-13.44 0-7.44-7.16-13.5-15.93-13.5-8.78 0-15.92 6.06-15.92 13.5z" stroke="#000" stroke-opacity="0" fill="#242f3e"/><g><use xlink:href="#D" transform="matrix(1,0,0,1,50,429) translate(43.55 14.4)"/></g><path d="M530.98 733.96l.06.83.18.75.3.73.42.67.5.6.6.5.68.43.73.3.76.18.84.06h87.02V741h-87.1l-1.05-.1-1.06-.24-1-.42-.94-.58-.83-.7-.72-.84-.57-.93-.42-1-.25-1.08-.08-1.06v-28.97H531zm0-50.23H529V614.5H531z" stroke="#5e5e5e" stroke-width=".05" fill="#5e5e5e"/><path d="M530.98 614.53H529v-1.03H531z" fill="#5e5e5e"/><path stroke="#5e5e5e" stroke-width=".05" fill="#5e5e5e"/><path d="M638.32 740l-14.26 4.63v-9.26z" fill="#5e5e5e"/><path d="M641.48 740l-18.4 5.98v-11.96zm-16.45 3.3l10.14-3.3-10.14-3.3z" stroke="#5e5e5e" stroke-width=".05" fill="#5e5e5e"/><g><use xlink:href="#E" transform="matrix(1,0,0,1,465.3333333333333,683.7333333333333) translate(0 14.222222222222223)"/><use xlink:href="#F" transform="matrix(1,0,0,1,465.3333333333333,683.7333333333333) translate(19.75308641975309 14.222222222222223)"/><use xlink:href="#o" transform="matrix(1,0,0,1,465.3333333333333,683.7333333333333) translate(81.92592592592594 14.222222222222223)"/></g><path d="M343.8 600c-1.9 0-3.8 4.13-3.8 10.33 0 5.17 1.9 10.34 3.8 10.34h94.3V600h-94.3z" stroke="#5e5e5e" fill="#818181"/><path d="M440 610.33c0 5.17-1 10.34-1.9 10.34-1.9 0-2.9-5.17-2.9-10.34 0-6.2 1-10.33 2.9-10.33.9 0 1.9 4.13 1.9 10.33z" stroke="#5e5e5e" fill="#818181"/><g><use xlink:href="#G" transform="matrix(1,0,0,1,340,625.6666666666667) translate(23.33333333333333 23.555555555555557)"/></g><path d="M942.55 725.5v2.96c0 1.35-3.93 3.57-11.35 4.84-4.17.7-8.34 1.04-12.56 1.03-15.47 0-24-3.87-24-5.85v-2.98c0 1.98 8.43 5.85 24 5.85 4.46.02 8.2-.27 12.6-1 7.38-1.32 11.3-3.5 11.3-4.85z" fill="#0c79b0"/><path d="M948.64 748.93v2.6c-.42 16.1-14.22 28.77-30.78 28.34-16.02-.44-28.8-12.8-29.22-28.35v-2.6h60z" fill-opacity="0"/><path d="M942.36 726.05v3c-.82 1.3-4.66 3.16-11.18 4.24-4.12.7-8.34 1.03-12.56 1.03-15.5 0-23.98-3.87-23.98-5.83v-3c0 1.96 8.44 5.83 23.98 5.83 4.46.06 8.25-.27 12.6-.98 6.58-1.1 10.37-2.94 11.23-4.3m.05 43.86c.05-.1.1-.2.1-.37v4.96l-.05.2c-.05.06-.1.17-.15.28v.05l-.14.17-.2.27-.18.22-.34.2-.3.23-.32.27-.4.16-.47.27-.38.22-.67.27-.4.17c-.37.15-.75.26-1.2.42l-.42.1-.96.28-.62.17-.9.22-.73.15-1 .22-.82.1-1.1.23-.92.1-1.24.1-.92.12-1.5.1-.95.12-1.68.05h-3.6c-8.72 0-15.3-1.04-19.65-2.4-3.17-1.1-5.47-2.3-5.7-3.16v-4.75c.23.87 2.24 1.96 5.07 3l-.04-.28c6.9 2.07 13.04 2.94 20.28 2.94h3.6l1.73-.05.9-.05 1.45-.16.9-.07 1.3-.16.82-.1 1.2-.17 5.47-1.3c.43-.17.86-.28 1.24-.44l1.07-.44.24-.16.68-.33.24-.16.48-.28.2-.17.38-.33.14-.1.3-.33v-.22l.18-.44z" fill="#0c79b0"/><path d="M918.64 720c4.22-.03 8.44.3 12.6 1 7.38 1.26 11.3 3.48 11.3 4.86 0 1.4-3.92 3.54-11.34 4.82-4.17.68-8.34 1.02-12.56 1-15.47 0-24-3.87-24-5.84 0-2 8.48-5.84 24-5.84z" fill="#3aa6dd"/><path d="M930.9 735.4c-.68.13-1.3.18-1.98.32-.33 0-.67.1-1.05.14l-1.83.18c-.43 0-.86.1-1.24.1l-2.4.13h-.43c-.96 0-1.92.05-2.93.1h-.62c-9.5 0-19.08-1.62-23.74-4.65v40.14c.24.92 2.55 2.1 5.7 3.17 4.28 1.33 10.9 2.4 19.62 2.4 15.97.04 22.64-3.73 22.64-5.76v-40.23c-2.5 1.66-6.52 3.08-11.75 3.96z" fill="#3aa6dd"/><g><use xlink:href="#H" transform="matrix(1,0,0,1,888.6422975502468,780) translate(-20.4320987654321 17.77777777777778)"/><use xlink:href="#h" transform="matrix(1,0,0,1,888.6422975502468,780) translate(8.395061728395063 44.44444444444444)"/><use xlink:href="#i" transform="matrix(1,0,0,1,888.6422975502468,780) translate(5.33950617283951 71.11111111111111)"/></g><path d="M643.8 591.33c-1.9 0-3.8 4.14-3.8 10.34 0 5.16 1.9 10.33 3.8 10.33h94.3v-20.67h-94.3z" stroke="#5e5e5e" fill="#818181"/><path d="M740 601.67c0 5.16-1 10.33-1.9 10.33-1.9 0-2.9-5.17-2.9-10.33 0-6.2 1-10.34 2.9-10.34.9 0 1.9 4.14 1.9 10.34z" stroke="#5e5e5e" fill="#818181"/><g><use xlink:href="#I" transform="matrix(1,0,0,1,640,617) translate(9.50617283950617 23.555555555555557)"/><use xlink:href="#J" transform="matrix(1,0,0,1,640,617) translate(59.876543209876544 23.555555555555557)"/></g><defs><path fill="#333" d="M140-251c81 0 123 46 123 126C263-46 219 4 140 4 59 4 17-45 17-125s42-126 123-126zm0 227c63 0 89-41 89-101s-29-99-89-99c-61 0-89 39-89 99S79-25 140-24" id="K"/><path fill="#333" d="M114-163C36-179 61-72 57 0H25l-1-190h30c1 12-1 29 2 39 6-27 23-49 58-41v29" id="L"/><path fill="#333" d="M85-194c31 0 48 13 60 33l-1-100h32l1 261h-30c-2-10 0-23-3-31C134-8 116 4 85 4 32 4 16-35 15-94c0-66 23-100 70-100zm9 24c-40 0-46 34-46 75 0 40 6 74 45 74 42 0 51-32 51-76 0-42-9-74-50-73" id="M"/><path fill="#333" d="M100-194c63 0 86 42 84 106H49c0 40 14 67 53 68 26 1 43-12 49-29l28 8c-11 28-37 45-77 45C44 4 14-33 15-96c1-61 26-98 85-98zm52 81c6-60-76-77-97-28-3 7-6 17-6 28h103" id="N"/><g id="a"><use transform="matrix(0.06172839506172839,0,0,0.06172839506172839,0,0)" xlink:href="#K"/><use transform="matrix(0.06172839506172839,0,0,0.06172839506172839,17.28395061728395,0)" xlink:href="#L"/><use transform="matrix(0.06172839506172839,0,0,0.06172839506172839,24.629629629629626,0)" xlink:href="#M"/><use transform="matrix(0.06172839506172839,0,0,0.06172839506172839,36.9753086419753,0)" xlink:href="#N"/><use transform="matrix(0.06172839506172839,0,0,0.06172839506172839,49.32098765432098,0)" xlink:href="#L"/></g><path fill="#333" d="M185-189c-5-48-123-54-124 2 14 75 158 14 163 119 3 78-121 87-175 55-17-10-28-26-33-46l33-7c5 56 141 63 141-1 0-78-155-14-162-118-5-82 145-84 179-34 5 7 8 16 11 25" id="O"/><path fill="#333" d="M108 0H70L1-190h34L89-25l56-165h34" id="P"/><path fill="#333" d="M24-231v-30h32v30H24zM24 0v-190h32V0H24" id="Q"/><path fill="#333" d="M96-169c-40 0-48 33-48 73s9 75 48 75c24 0 41-14 43-38l32 2c-6 37-31 61-74 61-59 0-76-41-82-99-10-93 101-131 147-64 4 7 5 14 7 22l-32 3c-4-21-16-35-41-35" id="R"/><g id="b"><use transform="matrix(0.06172839506172839,0,0,0.06172839506172839,0,0)" xlink:href="#O"/><use transform="matrix(0.06172839506172839,0,0,0.06172839506172839,14.814814814814813,0)" xlink:href="#N"/><use transform="matrix(0.06172839506172839,0,0,0.06172839506172839,27.160493827160494,0)" xlink:href="#L"/><use transform="matrix(0.06172839506172839,0,0,0.06172839506172839,34.50617283950617,0)" xlink:href="#P"/><use transform="matrix(0.06172839506172839,0,0,0.06172839506172839,45.61728395061728,0)" xlink:href="#Q"/><use transform="matrix(0.06172839506172839,0,0,0.06172839506172839,50.49382716049382,0)" xlink:href="#R"/><use transform="matrix(0.06172839506172839,0,0,0.06172839506172839,61.60493827160494,0)" xlink:href="#N"/></g><path fill="#333" d="M63-220v92h138v28H63V0H30v-248h175v28H63" id="S"/><path fill="#333" d="M84 4C-5 8 30-112 23-190h32v120c0 31 7 50 39 49 72-2 45-101 50-169h31l1 190h-30c-1-10 1-25-2-33-11 22-28 36-60 37" id="T"/><path fill="#333" d="M24 0v-261h32V0H24" id="U"/><path fill="#333" d="M101-234c-31-9-42 10-38 44h38v23H63V0H32v-167H5v-23h27c-7-52 17-82 69-68v24" id="V"/><path fill="#333" d="M210-169c-67 3-38 105-44 169h-31v-121c0-29-5-50-35-48C34-165 62-65 56 0H25l-1-190h30c1 10-1 24 2 32 10-44 99-50 107 0 11-21 27-35 58-36 85-2 47 119 55 194h-31v-121c0-29-5-49-35-48" id="W"/><path fill="#333" d="M117-194c89-4 53 116 60 194h-32v-121c0-31-8-49-39-48C34-167 62-67 57 0H25l-1-190h30c1 10-1 24 2 32 11-22 29-35 61-36" id="X"/><path fill="#333" d="M59-47c-2 24 18 29 38 22v24C64 9 27 4 27-40v-127H5v-23h24l9-43h21v43h35v23H59v120" id="Y"/><g id="c"><use transform="matrix(0.06172839506172839,0,0,0.06172839506172839,0,0)" xlink:href="#S"/><use transform="matrix(0.06172839506172839,0,0,0.06172839506172839,13.518518518518517,0)" xlink:href="#T"/><use transform="matrix(0.06172839506172839,0,0,0.06172839506172839,25.864197530864196,0)" xlink:href="#U"/><use transform="matrix(0.06172839506172839,0,0,0.06172839506172839,30.74074074074074,0)" xlink:href="#V"/><use transform="matrix(0.06172839506172839,0,0,0.06172839506172839,36.91358024691358,0)" xlink:href="#Q"/><use transform="matrix(0.06172839506172839,0,0,0.06172839506172839,41.79012345679013,0)" xlink:href="#U"/><use transform="matrix(0.06172839506172839,0,0,0.06172839506172839,46.66666666666667,0)" xlink:href="#U"/><use transform="matrix(0.06172839506172839,0,0,0.06172839506172839,51.543209876543216,0)" xlink:href="#W"/><use transform="matrix(0.06172839506172839,0,0,0.06172839506172839,70,0)" xlink:href="#N"/><use transform="matrix(0.06172839506172839,0,0,0.06172839506172839,82.34567901234568,0)" xlink:href="#X"/><use transform="matrix(0.06172839506172839,0,0,0.06172839506172839,94.69135802469137,0)" xlink:href="#Y"/></g><path fill="#333" d="M110-160c48 1 74 30 74 79 0 53-28 85-80 85-65 0-83-55-86-122-5-90 50-162 133-122 14 7 22 21 27 39l-31 6c-5-40-67-38-82-6-9 19-15 44-15 74 11-20 30-34 60-33zm-7 138c34 0 49-23 49-58s-16-56-50-56c-29 0-50 16-49 49 1 36 15 65 50 65" id="Z"/><path fill="#333" d="M33 0v-38h34V0H33" id="aa"/><g id="d"><use transform="matrix(0.04938271604938272,0,0,0.04938271604938272,0,0)" xlink:href="#Z"/><use transform="matrix(0.04938271604938272,0,0,0.04938271604938272,9.876543209876544,0)" xlink:href="#aa"/></g><g id="e"><use transform="matrix(0.04938271604938272,0,0,0.04938271604938272,0,0)" xlink:href="#S"/><use transform="matrix(0.04938271604938272,0,0,0.04938271604938272,10.814814814814815,0)" xlink:href="#T"/><use transform="matrix(0.04938271604938272,0,0,0.04938271604938272,20.69135802469136,0)" xlink:href="#U"/><use transform="matrix(0.04938271604938272,0,0,0.04938271604938272,24.592592592592595,0)" xlink:href="#V"/><use transform="matrix(0.04938271604938272,0,0,0.04938271604938272,29.530864197530867,0)" xlink:href="#Q"/><use transform="matrix(0.04938271604938272,0,0,0.04938271604938272,33.4320987654321,0)" xlink:href="#U"/><use transform="matrix(0.04938271604938272,0,0,0.04938271604938272,37.333333333333336,0)" xlink:href="#U"/></g><g id="f"><use transform="matrix(0.04938271604938272,0,0,0.04938271604938272,0,0)" xlink:href="#K"/><use transform="matrix(0.04938271604938272,0,0,0.04938271604938272,13.827160493827162,0)" xlink:href="#L"/><use transform="matrix(0.04938271604938272,0,0,0.04938271604938272,19.703703703703706,0)" xlink:href="#M"/><use transform="matrix(0.04938271604938272,0,0,0.04938271604938272,29.58024691358025,0)" xlink:href="#N"/><use transform="matrix(0.04938271604938272,0,0,0.04938271604938272,39.4567901234568,0)" xlink:href="#L"/></g><path fill="#333" d="M87 75C49 33 22-17 22-94c0-76 28-126 65-167h31c-38 41-64 92-64 168S80 34 118 75H87" id="ab"/><path fill="#333" d="M205 0l-28-72H64L36 0H1l101-248h38L239 0h-34zm-38-99l-47-123c-12 45-31 82-46 123h93" id="ac"/><path fill="#333" d="M135-143c-3-34-86-38-87 0 15 53 115 12 119 90S17 21 10-45l28-5c4 36 97 45 98 0-10-56-113-15-118-90-4-57 82-63 122-42 12 7 21 19 24 35" id="ad"/><path fill="#333" d="M179-190L93 31C79 59 56 82 12 73V49c39 6 53-20 64-50L1-190h34L92-34l54-156h33" id="ae"/><path fill="#333" d="M33-261c38 41 65 92 65 168S71 34 33 75H2C39 34 66-17 66-93S39-220 2-261h31" id="af"/><g id="g"><use transform="matrix(0.04938271604938272,0,0,0.04938271604938272,0,0)" xlink:href="#ab"/><use transform="matrix(0.04938271604938272,0,0,0.04938271604938272,5.8765432098765435,0)" xlink:href="#ac"/><use transform="matrix(0.04938271604938272,0,0,0.04938271604938272,17.728395061728396,0)" xlink:href="#ad"/><use transform="matrix(0.04938271604938272,0,0,0.04938271604938272,26.617283950617285,0)" xlink:href="#ae"/><use transform="matrix(0.04938271604938272,0,0,0.04938271604938272,35.50617283950618,0)" xlink:href="#X"/><use transform="matrix(0.04938271604938272,0,0,0.04938271604938272,45.38271604938272,0)" xlink:href="#R"/><use transform="matrix(0.04938271604938272,0,0,0.04938271604938272,54.27160493827161,0)" xlink:href="#af"/></g><path fill="#333" d="M141-36C126-15 110 5 73 4 37 3 15-17 15-53c-1-64 63-63 125-63 3-35-9-54-41-54-24 1-41 7-42 31l-33-3c5-37 33-52 76-52 45 0 72 20 72 64v82c-1 20 7 32 28 27v20c-31 9-61-2-59-35zM48-53c0 20 12 33 32 33 41-3 63-29 60-74-43 2-92-5-92 41" id="ag"/><g id="h"><use transform="matrix(0.06172839506172839,0,0,0.06172839506172839,0,0)" xlink:href="#M"/><use transform="matrix(0.06172839506172839,0,0,0.06172839506172839,12.345679012345679,0)" xlink:href="#ag"/><use transform="matrix(0.06172839506172839,0,0,0.06172839506172839,24.691358024691358,0)" xlink:href="#Y"/><use transform="matrix(0.06172839506172839,0,0,0.06172839506172839,30.864197530864196,0)" xlink:href="#ag"/></g><path fill="#333" d="M100-194c62-1 85 37 85 99 1 63-27 99-86 99S16-35 15-95c0-66 28-99 85-99zM99-20c44 1 53-31 53-75 0-43-8-75-51-75s-53 32-53 75 10 74 51 75" id="ah"/><g id="i"><use transform="matrix(0.06172839506172839,0,0,0.06172839506172839,0,0)" xlink:href="#ad"/><use transform="matrix(0.06172839506172839,0,0,0.06172839506172839,11.11111111111111,0)" xlink:href="#Y"/><use transform="matrix(0.06172839506172839,0,0,0.06172839506172839,17.28395061728395,0)" xlink:href="#ah"/><use transform="matrix(0.06172839506172839,0,0,0.06172839506172839,29.629629629629626,0)" xlink:href="#L"/><use transform="matrix(0.06172839506172839,0,0,0.06172839506172839,36.9753086419753,0)" xlink:href="#N"/></g><path fill="#333" d="M101-251c82-7 93 87 43 132L82-64C71-53 59-42 53-27h129V0H18c2-99 128-94 128-182 0-28-16-43-45-43s-46 15-49 41l-32-3c6-41 34-60 81-64" id="ai"/><g id="j"><use transform="matrix(0.04938271604938272,0,0,0.04938271604938272,0,0)" xlink:href="#ai"/><use transform="matrix(0.04938271604938272,0,0,0.04938271604938272,9.876543209876544,0)" xlink:href="#aa"/></g><path fill="#333" d="M212-179c-10-28-35-45-73-45-59 0-87 40-87 99 0 60 29 101 89 101 43 0 62-24 78-52l27 14C228-24 195 4 139 4 59 4 22-46 18-125c-6-104 99-153 187-111 19 9 31 26 39 46" id="aj"/><g id="k"><use transform="matrix(0.04938271604938272,0,0,0.04938271604938272,0,0)" xlink:href="#aj"/><use transform="matrix(0.04938271604938272,0,0,0.04938271604938272,12.790123456790125,0)" xlink:href="#L"/><use transform="matrix(0.04938271604938272,0,0,0.04938271604938272,18.666666666666668,0)" xlink:href="#N"/><use transform="matrix(0.04938271604938272,0,0,0.04938271604938272,28.543209876543212,0)" xlink:href="#ag"/><use transform="matrix(0.04938271604938272,0,0,0.04938271604938272,38.41975308641976,0)" xlink:href="#Y"/><use transform="matrix(0.04938271604938272,0,0,0.04938271604938272,43.35802469135803,0)" xlink:href="#N"/></g><g id="l"><use transform="matrix(0.04938271604938272,0,0,0.04938271604938272,0,0)" xlink:href="#K"/><use transform="matrix(0.04938271604938272,0,0,0.04938271604938272,13.827160493827162,0)" xlink:href="#L"/><use transform="matrix(0.04938271604938272,0,0,0.04938271604938272,19.703703703703706,0)" xlink:href="#M"/><use transform="matrix(0.04938271604938272,0,0,0.04938271604938272,29.58024691358025,0)" xlink:href="#N"/><use transform="matrix(0.04938271604938272,0,0,0.04938271604938272,39.4567901234568,0)" xlink:href="#L"/></g><path fill="#333" d="M64 0c3-98 48-159 88-221H18v-27h164v26C143-157 98-101 97 0H64" id="ak"/><g id="m"><use transform="matrix(0.04938271604938272,0,0,0.04938271604938272,0,0)" xlink:href="#ak"/><use transform="matrix(0.04938271604938272,0,0,0.04938271604938272,9.876543209876544,0)" xlink:href="#aa"/></g><g id="n"><use transform="matrix(0.04938271604938272,0,0,0.04938271604938272,0,0)" xlink:href="#ac"/><use transform="matrix(0.04938271604938272,0,0,0.04938271604938272,11.851851851851853,0)" xlink:href="#M"/><use transform="matrix(0.04938271604938272,0,0,0.04938271604938272,21.7283950617284,0)" xlink:href="#M"/></g><g id="o"><use transform="matrix(0.04938271604938272,0,0,0.04938271604938272,0,0)" xlink:href="#ad"/><use transform="matrix(0.04938271604938272,0,0,0.04938271604938272,8.88888888888889,0)" xlink:href="#Y"/><use transform="matrix(0.04938271604938272,0,0,0.04938271604938272,13.827160493827162,0)" xlink:href="#ag"/><use transform="matrix(0.04938271604938272,0,0,0.04938271604938272,23.703703703703706,0)" xlink:href="#Y"/><use transform="matrix(0.04938271604938272,0,0,0.04938271604938272,28.641975308641978,0)" xlink:href="#T"/><use transform="matrix(0.04938271604938272,0,0,0.04938271604938272,38.51851851851852,0)" xlink:href="#ad"/></g><path fill="#333" d="M232-93c-1 65-40 97-104 97C67 4 28-28 28-90v-158h33c8 89-33 224 67 224 102 0 64-133 71-224h33v155" id="al"/><path fill="#333" d="M33 0v-248h34V0H33" id="am"/><g id="p"><use transform="matrix(0.06172839506172839,0,0,0.06172839506172839,0,0)" xlink:href="#al"/><use transform="matrix(0.06172839506172839,0,0,0.06172839506172839,15.987654320987653,0)" xlink:href="#am"/></g><path fill="#333" d="M30-248c87 1 191-15 191 75 0 78-77 80-158 76V0H30v-248zm33 125c57 0 124 11 124-50 0-59-68-47-124-48v98" id="an"/><path fill="#333" d="M115-194c55 1 70 41 70 98S169 2 115 4C84 4 66-9 55-30l1 105H24l-1-265h31l2 30c10-21 28-34 59-34zm-8 174c40 0 45-34 45-75s-6-73-45-74c-42 0-51 32-51 76 0 43 10 73 51 73" id="ao"/><g id="q"><use transform="matrix(0.06172839506172839,0,0,0.06172839506172839,0,0)" xlink:href="#an"/><use transform="matrix(0.06172839506172839,0,0,0.06172839506172839,14.814814814814813,0)" xlink:href="#L"/><use transform="matrix(0.06172839506172839,0,0,0.06172839506172839,22.160493827160494,0)" xlink:href="#ah"/><use transform="matrix(0.06172839506172839,0,0,0.06172839506172839,34.50617283950617,0)" xlink:href="#ao"/><use transform="matrix(0.06172839506172839,0,0,0.06172839506172839,46.85185185185185,0)" xlink:href="#L"/><use transform="matrix(0.06172839506172839,0,0,0.06172839506172839,54.197530864197525,0)" xlink:href="#Q"/><use transform="matrix(0.06172839506172839,0,0,0.06172839506172839,59.07407407407407,0)" xlink:href="#N"/><use transform="matrix(0.06172839506172839,0,0,0.06172839506172839,71.41975308641975,0)" xlink:href="#Y"/><use transform="matrix(0.06172839506172839,0,0,0.06172839506172839,77.59259259259258,0)" xlink:href="#ag"/><use transform="matrix(0.06172839506172839,0,0,0.06172839506172839,89.93827160493827,0)" xlink:href="#L"/><use transform="matrix(0.06172839506172839,0,0,0.06172839506172839,97.28395061728395,0)" xlink:href="#ae"/></g><g id="r"><use transform="matrix(0.06172839506172839,0,0,0.06172839506172839,0,0)" xlink:href="#an"/><use transform="matrix(0.06172839506172839,0,0,0.06172839506172839,14.814814814814813,0)" xlink:href="#ag"/><use transform="matrix(0.06172839506172839,0,0,0.06172839506172839,27.160493827160494,0)" xlink:href="#ae"/><use transform="matrix(0.06172839506172839,0,0,0.06172839506172839,38.27160493827161,0)" xlink:href="#W"/><use transform="matrix(0.06172839506172839,0,0,0.06172839506172839,56.72839506172839,0)" xlink:href="#N"/><use transform="matrix(0.06172839506172839,0,0,0.06172839506172839,69.07407407407408,0)" xlink:href="#X"/><use transform="matrix(0.06172839506172839,0,0,0.06172839506172839,81.41975308641976,0)" xlink:href="#Y"/></g><path fill="#333" d="M234-2c-28 10-62 0-77-18C117 19 8 12 13-65c3-43 29-61 60-76-25-40-17-114 47-108 35 3 59 15 59 50 0 44-40 53-71 69 14 26 32 50 51 72 14-21 24-43 30-72l26 8c-9 33-21 57-38 82 13 13 33 22 57 15v23zM97-151c25-10 52-18 56-48-1-18-13-29-33-29-42 0-39 50-23 77zM42-66c-3 51 71 58 98 28-20-24-41-51-56-80-23 10-40 24-42 52" id="ap"/><use transform="matrix(0.06172839506172839,0,0,0.06172839506172839,0,0)" xlink:href="#ap" id="s"/><path fill="#333" d="M233-177c-1 41-23 64-60 70L243 0h-38l-65-103H63V0H30v-248c88 3 205-21 203 71zM63-129c60-2 137 13 137-47 0-61-80-42-137-45v92" id="aq"/><g id="t"><use transform="matrix(0.06172839506172839,0,0,0.06172839506172839,0,0)" xlink:href="#aq"/><use transform="matrix(0.06172839506172839,0,0,0.06172839506172839,15.987654320987653,0)" xlink:href="#N"/><use transform="matrix(0.06172839506172839,0,0,0.06172839506172839,28.333333333333332,0)" xlink:href="#R"/><use transform="matrix(0.06172839506172839,0,0,0.06172839506172839,39.44444444444444,0)" xlink:href="#N"/><use transform="matrix(0.06172839506172839,0,0,0.06172839506172839,51.79012345679012,0)" xlink:href="#Q"/><use transform="matrix(0.06172839506172839,0,0,0.06172839506172839,56.666666666666664,0)" xlink:href="#ao"/><use transform="matrix(0.06172839506172839,0,0,0.06172839506172839,69.01234567901234,0)" xlink:href="#Y"/></g><g id="u"><use transform="matrix(0.06172839506172839,0,0,0.06172839506172839,0,0)" xlink:href="#O"/><use transform="matrix(0.06172839506172839,0,0,0.06172839506172839,14.814814814814813,0)" xlink:href="#ae"/><use transform="matrix(0.06172839506172839,0,0,0.06172839506172839,25.925925925925924,0)" xlink:href="#ad"/><use transform="matrix(0.06172839506172839,0,0,0.06172839506172839,37.03703703703704,0)" xlink:href="#Y"/><use transform="matrix(0.06172839506172839,0,0,0.06172839506172839,43.20987654320988,0)" xlink:href="#N"/><use transform="matrix(0.06172839506172839,0,0,0.06172839506172839,55.55555555555556,0)" xlink:href="#W"/></g><path fill="#333" d="M155-56V0h-30v-56H8v-25l114-167h33v167h35v25h-35zm-30-156c-27 46-58 90-88 131h88v-131" id="ar"/><g id="v"><use transform="matrix(0.04938271604938272,0,0,0.04938271604938272,0,0)" xlink:href="#ar"/><use transform="matrix(0.04938271604938272,0,0,0.04938271604938272,9.876543209876544,0)" xlink:href="#aa"/></g><g id="w"><use transform="matrix(0.04938271604938272,0,0,0.04938271604938272,0,0)" xlink:href="#aj"/><use transform="matrix(0.04938271604938272,0,0,0.04938271604938272,12.790123456790125,0)" xlink:href="#ah"/><use transform="matrix(0.04938271604938272,0,0,0.04938271604938272,22.66666666666667,0)" xlink:href="#X"/><use transform="matrix(0.04938271604938272,0,0,0.04938271604938272,32.543209876543216,0)" xlink:href="#V"/><use transform="matrix(0.04938271604938272,0,0,0.04938271604938272,37.48148148148149,0)" xlink:href="#Q"/><use transform="matrix(0.04938271604938272,0,0,0.04938271604938272,41.38271604938272,0)" xlink:href="#L"/><use transform="matrix(0.04938271604938272,0,0,0.04938271604938272,47.25925925925927,0)" xlink:href="#W"/></g><g id="x"><use transform="matrix(0.04938271604938272,0,0,0.04938271604938272,0,0)" xlink:href="#an"/><use transform="matrix(0.04938271604938272,0,0,0.04938271604938272,11.851851851851853,0)" xlink:href="#ag"/><use transform="matrix(0.04938271604938272,0,0,0.04938271604938272,21.7283950617284,0)" xlink:href="#ae"/><use transform="matrix(0.04938271604938272,0,0,0.04938271604938272,30.617283950617285,0)" xlink:href="#W"/><use transform="matrix(0.04938271604938272,0,0,0.04938271604938272,45.38271604938272,0)" xlink:href="#N"/><use transform="matrix(0.04938271604938272,0,0,0.04938271604938272,55.25925925925927,0)" xlink:href="#X"/><use transform="matrix(0.04938271604938272,0,0,0.04938271604938272,65.13580246913581,0)" xlink:href="#Y"/></g><path fill="#333" d="M126-127c33 6 58 20 58 59 0 88-139 92-164 29-3-8-5-16-6-25l32-3c6 27 21 44 54 44 32 0 52-15 52-46 0-38-36-46-79-43v-28c39 1 72-4 72-42 0-27-17-43-46-43-28 0-47 15-49 41l-32-3c6-42 35-63 81-64 48-1 79 21 79 65 0 36-21 52-52 59" id="as"/><g id="y"><use transform="matrix(0.04938271604938272,0,0,0.04938271604938272,0,0)" xlink:href="#as"/><use transform="matrix(0.04938271604938272,0,0,0.04938271604938272,9.876543209876544,0)" xlink:href="#aa"/></g><path fill="#333" d="M115-194c53 0 69 39 70 98 0 66-23 100-70 100C84 3 66-7 56-30L54 0H23l1-261h32v101c10-23 28-34 59-34zm-8 174c40 0 45-34 45-75 0-40-5-75-45-74-42 0-51 32-51 76 0 43 10 73 51 73" id="at"/><g id="z"><use transform="matrix(0.04938271604938272,0,0,0.04938271604938272,0,0)" xlink:href="#O"/><use transform="matrix(0.04938271604938272,0,0,0.04938271604938272,11.851851851851853,0)" xlink:href="#T"/><use transform="matrix(0.04938271604938272,0,0,0.04938271604938272,21.7283950617284,0)" xlink:href="#at"/><use transform="matrix(0.04938271604938272,0,0,0.04938271604938272,31.60493827160494,0)" xlink:href="#W"/><use transform="matrix(0.04938271604938272,0,0,0.04938271604938272,46.37037037037038,0)" xlink:href="#Q"/><use transform="matrix(0.04938271604938272,0,0,0.04938271604938272,50.271604938271615,0)" xlink:href="#Y"/><use transform="matrix(0.04938271604938272,0,0,0.04938271604938272,55.209876543209894,0)" xlink:href="#ad"/></g><g id="A"><use transform="matrix(0.04938271604938272,0,0,0.04938271604938272,0,0)" xlink:href="#an"/><use transform="matrix(0.04938271604938272,0,0,0.04938271604938272,11.851851851851853,0)" xlink:href="#ag"/><use transform="matrix(0.04938271604938272,0,0,0.04938271604938272,21.7283950617284,0)" xlink:href="#ae"/><use transform="matrix(0.04938271604938272,0,0,0.04938271604938272,30.617283950617285,0)" xlink:href="#W"/><use transform="matrix(0.04938271604938272,0,0,0.04938271604938272,45.38271604938272,0)" xlink:href="#N"/><use transform="matrix(0.04938271604938272,0,0,0.04938271604938272,55.25925925925927,0)" xlink:href="#X"/><use transform="matrix(0.04938271604938272,0,0,0.04938271604938272,65.13580246913581,0)" xlink:href="#Y"/></g><path fill="#333" d="M27 0v-27h64v-190l-56 39v-29l58-41h29v221h61V0H27" id="au"/><g id="B"><use transform="matrix(0.04938271604938272,0,0,0.04938271604938272,0,0)" xlink:href="#au"/><use transform="matrix(0.04938271604938272,0,0,0.04938271604938272,9.876543209876544,0)" xlink:href="#aa"/></g><g id="C"><use transform="matrix(0.04938271604938272,0,0,0.04938271604938272,0,0)" xlink:href="#O"/><use transform="matrix(0.04938271604938272,0,0,0.04938271604938272,11.851851851851853,0)" xlink:href="#T"/><use transform="matrix(0.04938271604938272,0,0,0.04938271604938272,21.7283950617284,0)" xlink:href="#at"/><use transform="matrix(0.04938271604938272,0,0,0.04938271604938272,31.60493827160494,0)" xlink:href="#W"/><use transform="matrix(0.04938271604938272,0,0,0.04938271604938272,46.37037037037038,0)" xlink:href="#Q"/><use transform="matrix(0.04938271604938272,0,0,0.04938271604938272,50.271604938271615,0)" xlink:href="#Y"/><use transform="matrix(0.04938271604938272,0,0,0.04938271604938272,55.209876543209894,0)" xlink:href="#ad"/></g><path d="M232-93c-1 65-40 97-104 97C67 4 28-28 28-90v-158h33c8 89-33 224 67 224 102 0 64-133 71-224h33v155" id="av"/><path d="M135-143c-3-34-86-38-87 0 15 53 115 12 119 90S17 21 10-45l28-5c4 36 97 45 98 0-10-56-113-15-118-90-4-57 82-63 122-42 12 7 21 19 24 35" id="aw"/><path d="M100-194c63 0 86 42 84 106H49c0 40 14 67 53 68 26 1 43-12 49-29l28 8c-11 28-37 45-77 45C44 4 14-33 15-96c1-61 26-98 85-98zm52 81c6-60-76-77-97-28-3 7-6 17-6 28h103" id="ax"/><path d="M114-163C36-179 61-72 57 0H25l-1-190h30c1 12-1 29 2 39 6-27 23-49 58-41v29" id="ay"/><g id="D"><use transform="matrix(0.05,0,0,0.05,0,0)" xlink:href="#av"/><use transform="matrix(0.05,0,0,0.05,12.950000000000001,0)" xlink:href="#aw"/><use transform="matrix(0.05,0,0,0.05,21.950000000000003,0)" xlink:href="#ax"/><use transform="matrix(0.05,0,0,0.05,31.950000000000003,0)" xlink:href="#ay"/></g><path fill="#333" d="M54-142c48-35 137-8 131 61C196 18 31 33 14-55l32-4c7 23 22 37 52 37 35-1 51-22 54-58 4-55-73-65-99-34H22l8-134h141v27H59" id="az"/><g id="E"><use transform="matrix(0.04938271604938272,0,0,0.04938271604938272,0,0)" xlink:href="#az"/><use transform="matrix(0.04938271604938272,0,0,0.04938271604938272,9.876543209876544,0)" xlink:href="#aa"/></g><g id="F"><use transform="matrix(0.04938271604938272,0,0,0.04938271604938272,0,0)" xlink:href="#al"/><use transform="matrix(0.04938271604938272,0,0,0.04938271604938272,12.790123456790125,0)" xlink:href="#ao"/><use transform="matrix(0.04938271604938272,0,0,0.04938271604938272,22.66666666666667,0)" xlink:href="#M"/><use transform="matrix(0.04938271604938272,0,0,0.04938271604938272,32.543209876543216,0)" xlink:href="#ag"/><use transform="matrix(0.04938271604938272,0,0,0.04938271604938272,42.41975308641976,0)" xlink:href="#Y"/><use transform="matrix(0.04938271604938272,0,0,0.04938271604938272,47.35802469135803,0)" xlink:href="#N"/></g><path d="M140-251c81 0 123 46 123 126C263-53 228-8 163 1c7 30 30 48 69 40v23c-55 16-95-15-103-61C56-3 17-48 17-125c0-80 42-126 123-126zm0 227c63 0 89-41 89-101s-29-99-89-99c-61 0-89 39-89 99S79-25 140-24" id="aA"/><path d="M84 4C-5 8 30-112 23-190h32v120c0 31 7 50 39 49 72-2 45-101 50-169h31l1 190h-30c-1-10 1-25-2-33-11 22-28 36-60 37" id="aB"/><g id="G"><use transform="matrix(0.04938271604938272,0,0,0.04938271604938272,0,0)" xlink:href="#aA"/><use transform="matrix(0.04938271604938272,0,0,0.04938271604938272,13.827160493827162,0)" xlink:href="#aB"/><use transform="matrix(0.04938271604938272,0,0,0.04938271604938272,23.703703703703706,0)" xlink:href="#ax"/><use transform="matrix(0.04938271604938272,0,0,0.04938271604938272,33.580246913580254,0)" xlink:href="#aB"/><use transform="matrix(0.04938271604938272,0,0,0.04938271604938272,43.4567901234568,0)" xlink:href="#ax"/></g><g id="H"><use transform="matrix(0.06172839506172839,0,0,0.06172839506172839,0,0)" xlink:href="#S"/><use transform="matrix(0.06172839506172839,0,0,0.06172839506172839,13.518518518518517,0)" xlink:href="#T"/><use transform="matrix(0.06172839506172839,0,0,0.06172839506172839,25.864197530864196,0)" xlink:href="#U"/><use transform="matrix(0.06172839506172839,0,0,0.06172839506172839,30.74074074074074,0)" xlink:href="#V"/><use transform="matrix(0.06172839506172839,0,0,0.06172839506172839,36.91358024691358,0)" xlink:href="#Q"/><use transform="matrix(0.06172839506172839,0,0,0.06172839506172839,41.79012345679013,0)" xlink:href="#U"/><use transform="matrix(0.06172839506172839,0,0,0.06172839506172839,46.66666666666667,0)" xlink:href="#U"/><use transform="matrix(0.06172839506172839,0,0,0.06172839506172839,51.543209876543216,0)" xlink:href="#W"/><use transform="matrix(0.06172839506172839,0,0,0.06172839506172839,70,0)" xlink:href="#N"/><use transform="matrix(0.06172839506172839,0,0,0.06172839506172839,82.34567901234568,0)" xlink:href="#X"/><use transform="matrix(0.06172839506172839,0,0,0.06172839506172839,94.69135802469137,0)" xlink:href="#Y"/></g><path d="M30 0v-248h187v28H63v79h144v27H63v87h162V0H30" id="aC"/><path d="M108 0H70L1-190h34L89-25l56-165h34" id="aD"/><path d="M117-194c89-4 53 116 60 194h-32v-121c0-31-8-49-39-48C34-167 62-67 57 0H25l-1-190h30c1 10-1 24 2 32 11-22 29-35 61-36" id="aE"/><path d="M59-47c-2 24 18 29 38 22v24C64 9 27 4 27-40v-127H5v-23h24l9-43h21v43h35v23H59v120" id="aF"/><g id="I"><use transform="matrix(0.04938271604938272,0,0,0.04938271604938272,0,0)" xlink:href="#aC"/><use transform="matrix(0.04938271604938272,0,0,0.04938271604938272,11.851851851851853,0)" xlink:href="#aD"/><use transform="matrix(0.04938271604938272,0,0,0.04938271604938272,20.74074074074074,0)" xlink:href="#ax"/><use transform="matrix(0.04938271604938272,0,0,0.04938271604938272,30.617283950617285,0)" xlink:href="#aE"/><use transform="matrix(0.04938271604938272,0,0,0.04938271604938272,40.49382716049383,0)" xlink:href="#aF"/></g><path d="M160-131c35 5 61 23 61 61C221 17 115-2 30 0v-248c76 3 177-17 177 60 0 33-19 50-47 57zm-97-11c50-1 110 9 110-42 0-47-63-36-110-37v79zm0 115c55-2 124 14 124-45 0-56-70-42-124-44v89" id="aG"/><g id="J"><use transform="matrix(0.04938271604938272,0,0,0.04938271604938272,0,0)" xlink:href="#aG"/><use transform="matrix(0.04938271604938272,0,0,0.04938271604938272,11.851851851851853,0)" xlink:href="#aB"/><use transform="matrix(0.04938271604938272,0,0,0.04938271604938272,21.7283950617284,0)" xlink:href="#aw"/></g></defs></g></svg>