<svg xmlns="http://www.w3.org/2000/svg" xmlns:xlink="http://www.w3.org/1999/xlink" xmlns:lucid="lucid" width="1085.74" height="583.17"><g transform="translate(-335.7609068518519 -198.49999994542938)" lucid:page-tab-id="baG8KV2xqurh"><path d="M0 0h1870.87v1322.84H0z" fill="#fff"/><path d="M600 206a6 6 0 0 1 6-6h108a6 6 0 0 1 6 6v233a6 6 0 0 1-6 6H606a6 6 0 0 1-6-6z" fill="#fff" fill-opacity="0"/><path d="M622.2 200H633m10.8 0h10.8m10.8 0h10.8m10.8 0h10.8m10.8 0h5.4l.94.07.9.22.88.35.8.5.72.6.6.72.5.8.37.88.23.9.07.95v5.82m0 11.66v11.65m0 11.65v11.65m0 11.64v11.66m0 11.64v11.65m0 11.66v11.64m0 11.66v11.64m0 11.65v11.66m0 11.64v11.66m0 11.64v11.65m0 11.66V439l-.07.94-.22.9-.35.88-.5.8-.6.72-.72.6-.8.5-.88.37-.9.23-.95.07h-5.4m-10.8 0H687m-10.8 0h-10.8m-10.8 0h-10.8m-10.8 0h-10.8m-10.8 0H606l-.94-.07-.9-.22-.88-.35-.8-.5-.72-.6-.6-.72-.5-.8-.37-.88-.23-.9-.07-.95v-5.82m0-11.66V409.9m0-11.65v-11.66m0-11.64v-11.66m0-11.64v-11.65m0-11.66V316.7m0-11.66V293.4m0-11.65v-11.66m0-11.64v-11.66m0-11.65v-11.65m0-11.65V206l.07-.94.22-.9.35-.88.5-.8.6-.72.72-.6.8-.5.88-.37.9-.23.95-.07h5.4" stroke="#008a0e" stroke-width="3" fill="none"/><use xlink:href="#a" transform="matrix(1,0,0,1,600,220) translate(12.382716049382715 17.77777777777778)"/><use xlink:href="#b" transform="matrix(1,0,0,1,600,220) translate(37.074074074074076 17.77777777777778)"/><use xlink:href="#c" transform="matrix(1,0,0,1,600,220) translate(42.01234567901235 44.44444444444444)"/><path d="M1140 206a6 6 0 0 1 6-6h108a6 6 0 0 1 6 6v233a6 6 0 0 1-6 6h-108a6 6 0 0 1-6-6z" fill="#fff" fill-opacity="0"/><path d="M1162.2 200h10.8m10.8 0h10.8m10.8 0h10.8m10.8 0h10.8m10.8 0h5.4l.94.07.9.22.88.35.8.5.72.6.6.72.5.8.37.88.23.9.07.95v5.82m0 11.66v11.65m0 11.65v11.65m0 11.64v11.66m0 11.64v11.65m0 11.66v11.64m0 11.66v11.64m0 11.65v11.66m0 11.64v11.66m0 11.64v11.65m0 11.66V439l-.07.94-.22.9-.35.88-.5.8-.6.72-.72.6-.8.5-.88.37-.9.23-.95.07h-5.4m-10.8 0H1227m-10.8 0h-10.8m-10.8 0h-10.8m-10.8 0h-10.8m-10.8 0h-5.4l-.94-.07-.9-.22-.88-.35-.8-.5-.72-.6-.6-.72-.5-.8-.37-.88-.23-.9-.07-.95v-5.82m0-11.66V409.9m0-11.65v-11.66m0-11.64v-11.66m0-11.64v-11.65m0-11.66V316.7m0-11.66V293.4m0-11.65v-11.66m0-11.64v-11.66m0-11.65v-11.65m0-11.65V206l.07-.94.22-.9.35-.88.5-.8.6-.72.72-.6.8-.5.88-.37.9-.23.95-.07h5.4" stroke="#008a0e" stroke-width="3" fill="none"/><use xlink:href="#d" transform="matrix(1,0,0,1,1140,220) translate(12.382716049382715 17.77777777777778)"/><use xlink:href="#b" transform="matrix(1,0,0,1,1140,220) translate(37.074074074074076 17.77777777777778)"/><use xlink:href="#c" transform="matrix(1,0,0,1,1140,220) translate(42.01234567901235 44.44444444444444)"/><path d="M1300 206a6 6 0 0 1 6-6h108a6 6 0 0 1 6 6v233a6 6 0 0 1-6 6h-108a6 6 0 0 1-6-6z" fill="#fff" fill-opacity="0"/><path d="M1322.2 200h10.8m10.8 0h10.8m10.8 0h10.8m10.8 0h10.8m10.8 0h5.4l.94.07.9.22.88.35.8.5.72.6.6.72.5.8.37.88.23.9.07.95v5.82m0 11.66v11.65m0 11.65v11.65m0 11.64v11.66m0 11.64v11.65m0 11.66v11.64m0 11.66v11.64m0 11.65v11.66m0 11.64v11.66m0 11.64v11.65m0 11.66V439l-.07.94-.22.9-.35.88-.5.8-.6.72-.72.6-.8.5-.88.37-.9.23-.95.07h-5.4m-10.8 0H1387m-10.8 0h-10.8m-10.8 0h-10.8m-10.8 0h-10.8m-10.8 0h-5.4l-.94-.07-.9-.22-.88-.35-.8-.5-.72-.6-.6-.72-.5-.8-.37-.88-.23-.9-.07-.95v-5.82m0-11.66V409.9m0-11.65v-11.66m0-11.64v-11.66m0-11.64v-11.65m0-11.66V316.7m0-11.66V293.4m0-11.65v-11.66m0-11.64v-11.66m0-11.65v-11.65m0-11.65V206l.07-.94.22-.9.35-.88.5-.8.6-.72.72-.6.8-.5.88-.37.9-.23.95-.07h5.4" stroke="#e81313" stroke-width="3" fill="none"/><use xlink:href="#e" transform="matrix(1,0,0,1,1300,220) translate(5.654320987654323 17.77777777777778)"/><use xlink:href="#f" transform="matrix(1,0,0,1,1300,220) translate(30.34567901234568 17.77777777777778)"/><use xlink:href="#c" transform="matrix(1,0,0,1,1300,220) translate(42.01234567901235 44.44444444444444)"/><path d="M740 206a6 6 0 0 1 6-6h108a6 6 0 0 1 6 6v233a6 6 0 0 1-6 6H746a6 6 0 0 1-6-6z" fill="#fff" fill-opacity="0"/><path d="M762.2 200H773m10.8 0h10.8m10.8 0h10.8m10.8 0h10.8m10.8 0h5.4l.94.07.9.22.88.35.8.5.72.6.6.72.5.8.37.88.23.9.07.95v5.82m0 11.66v11.65m0 11.65v11.65m0 11.64v11.66m0 11.64v11.65m0 11.66v11.64m0 11.66v11.64m0 11.65v11.66m0 11.64v11.66m0 11.64v11.65m0 11.66V439l-.07.94-.22.9-.35.88-.5.8-.6.72-.72.6-.8.5-.88.37-.9.23-.95.07h-5.4m-10.8 0H827m-10.8 0h-10.8m-10.8 0h-10.8m-10.8 0h-10.8m-10.8 0H746l-.94-.07-.9-.22-.88-.35-.8-.5-.72-.6-.6-.72-.5-.8-.37-.88-.23-.9-.07-.95v-5.82m0-11.66V409.9m0-11.65v-11.66m0-11.64v-11.66m0-11.64v-11.65m0-11.66V316.7m0-11.66V293.4m0-11.65v-11.66m0-11.64v-11.66m0-11.65v-11.65m0-11.65V206l.07-.94.22-.9.35-.88.5-.8.6-.72.72-.6.8-.5.88-.37.9-.23.95-.07h5.4" stroke="#e81313" stroke-width="3" fill="none"/><use xlink:href="#g" transform="matrix(1,0,0,1,740,220) translate(5.654320987654323 17.77777777777778)"/><use xlink:href="#f" transform="matrix(1,0,0,1,740,220) translate(30.34567901234568 17.77777777777778)"/><use xlink:href="#c" transform="matrix(1,0,0,1,740,220) translate(42.01234567901235 44.44444444444444)"/><path d="M413.56 640h-57.48c-.66 0-1.26-.57-1.26-1.27v-3.84c0-13.65 8.94-25.08 22.14-28.3.36-.06.66-.03.96.14 4.44 2.4 9.36 2.4 13.8 0 .3-.17.6-.2.9-.13 13.26 3.22 22.2 14.65 22.2 28.3v3.83c0 .7-.6 1.27-1.26 1.27zm-56.16-2.57h54.84v-2.54c.06-12.28-7.92-22.58-19.74-25.65-2.52 1.23-4.86 1.8-7.68 1.8-2.82 0-5.16-.53-7.68-1.8-11.82 3.07-19.8 13.37-19.74 25.64z" stroke="#fff" stroke-opacity="0" fill="#232f3e"/><path d="M384.82 610.98c-2.75 0-5.1-.6-7.52-1.93-7.47-4.18-10.13-13.66-5.95-21.12 4.18-7.46 13.63-10.13 21.06-5.95 5.06 2.82 7.94 7.75 7.94 13.54 0 5.82-2.94 10.78-8.05 13.53-2.43 1.3-4.75 1.93-7.48 1.93zm0-28.38c-4.95-.12-9.2 2.4-11.58 6.72-3.38 6.3-1.06 14.1 5.2 17.5 4.06 2.2 8.52 2.2 12.58 0 4.27-2.32 6.75-6.5 6.72-11.4-.03-7.12-5.82-12.85-12.92-12.82z" stroke="#fff" stroke-opacity="0" fill="#232f3e"/><use xlink:href="#h" transform="matrix(1,0,0,1,324.81646240740747,649) translate(11.944444444444443 17.77777777777778)"/><path d="M401.62 609.92L620 607.7" stroke="#008573" stroke-width="2" fill="none"/><path d="M401.65 610.5l-2.78-1.53 2.76-.03z" stroke="#008573" stroke-width=".05" fill="#008573"/><path d="M635.26 607.53l-14.2 4.78-.1-9.26z" stroke="#008573" stroke-width="2" fill="#008573"/><use xlink:href="#i" transform="matrix(1,0,0,1,411.818550289337,557.4342374193837) translate(0 14.222222222222223)"/><use xlink:href="#j" transform="matrix(1,0,0,1,411.818550289337,557.4342374193837) translate(17.77777777777778 14.222222222222223)"/><use xlink:href="#k" transform="matrix(1,0,0,1,411.818550289337,557.4342374193837) translate(105.4814814814815 14.222222222222223)"/><use xlink:href="#l" transform="matrix(1,0,0,1,411.818550289337,557.4342374193837) translate(0 35.55555555555556)"/><use xlink:href="#m" transform="matrix(1,0,0,1,411.818550289337,557.4342374193837) translate(4.938271604938272 35.55555555555556)"/><use xlink:href="#n" transform="matrix(1,0,0,1,411.818550289337,557.4342374193837) translate(55.20987654320988 35.55555555555556)"/><use xlink:href="#o" transform="matrix(1,0,0,1,411.818550289337,557.4342374193837) translate(91.65432098765433 35.55555555555556)"/><use xlink:href="#p" transform="matrix(1,0,0,1,411.818550289337,557.4342374193837) translate(134.07407407407408 35.55555555555556)"/><path d="M640 573.5a6 6 0 0 1 6-6h148a6 6 0 0 1 6 6v68a6 6 0 0 1-6 6H646a6 6 0 0 1-6-6z" stroke="#5e5e5e" stroke-width="3" fill="#c3f7c8"/><use xlink:href="#q" transform="matrix(1,0,0,1,652,579.5) translate(39.66666666666667 21.27777777777778)"/><use xlink:href="#r" transform="matrix(1,0,0,1,652,579.5) translate(31.02469135802469 47.94444444444444)"/><path d="M1200 556.2a6 6 0 0 1 6-6h148a6 6 0 0 1 6 6v68a6 6 0 0 1-6 6h-148a6 6 0 0 1-6-6z" stroke="#5e5e5e" stroke-width="3" fill="#c3f7c8"/><use xlink:href="#s" transform="matrix(1,0,0,1,1212,562.2091683476611) translate(17.5679012345679 21.27777777777778)"/><use xlink:href="#r" transform="matrix(1,0,0,1,1212,562.2091683476611) translate(31.02469135802469 47.94444444444444)"/><path d="M1280.06 380c17.64 0 29.94 4.36 29.94 10.6v43.8c0 2.74-2.16 7.6-16.56 9.7-2.28.3-4.68.57-7.14.7-1.02.07-2.04.13-3.12.13-1.02.07-2.04.07-3.12.07s-2.1 0-3.18-.06c-1.02 0-2.04-.07-3.06-.13-2.46-.13-4.86-.38-7.14-.7-14.52-2.1-16.68-6.97-16.68-9.7v-43.8c0-6.25 12.36-10.6 30.06-10.6zm12.84 61.17c8.52-1.24 13.62-3.78 13.62-6.77v-41.33c-5.22 2.73-15 4.48-26.46 4.48s-21.42-1.75-26.58-4.55v41.4c0 2.93 5.28 5.53 13.74 6.77 2.16.32 4.5.5 6.9.7.96.07 1.92.07 2.94.14 1.98.07 4.02.07 6 0 1.02-.06 1.98-.06 2.94-.12 2.4-.2 4.68-.4 6.9-.7zM1280.06 383c-14.88 0-24.6 3.18-26.28 6.56l.06-.07c2.76 2.46 12.18 5.06 26.22 5.06s23.28-2.6 26.16-5c-1.68-3.38-11.4-6.57-26.16-6.57z" stroke="#000" stroke-opacity="0" fill="#232f3d"/><use xlink:href="#t" transform="matrix(1,0,0,1,1220,454) translate(8.049999999999997 14.4)"/><use xlink:href="#u" transform="matrix(1,0,0,1,1220,454) translate(87 14.4)"/><path d="M730.06 340c17.64 0 29.94 4.36 29.94 10.6v43.8c0 2.74-2.16 7.6-16.56 9.7-2.28.3-4.68.57-7.14.7-1.02.07-2.04.13-3.12.13-1.02.07-2.04.07-3.12.07s-2.1 0-3.18-.06c-1.02 0-2.04-.07-3.06-.13-2.46-.13-4.86-.38-7.14-.7-14.52-2.1-16.68-6.97-16.68-9.7v-43.8c0-6.25 12.36-10.6 30.06-10.6zm12.84 61.17c8.52-1.24 13.62-3.78 13.62-6.77v-41.33c-5.22 2.73-15 4.48-26.46 4.48s-21.42-1.75-26.58-4.55v41.4c0 2.93 5.28 5.53 13.74 6.77 2.16.32 4.5.5 6.9.7.96.07 1.92.07 2.94.14 1.98.07 4.02.07 6 0 1.02-.06 1.98-.06 2.94-.12 2.4-.2 4.68-.4 6.9-.7zM730.06 343c-14.88 0-24.6 3.18-26.28 6.56l.06-.07c2.76 2.46 12.18 5.06 26.22 5.06s23.28-2.6 26.16-5c-1.68-3.38-11.4-6.57-26.16-6.57z" stroke="#000" stroke-opacity="0" fill="#232f3d"/><use xlink:href="#v" transform="matrix(1,0,0,1,670,414) translate(22.074999999999996 14.4)"/><use xlink:href="#u" transform="matrix(1,0,0,1,670,414) translate(72.975 14.4)"/><path d="M1280.97 547.7h-1.94v-29.68h1.94zm0-51h-1.94V475h1.94z" stroke="#5e5e5e" stroke-width=".05" fill="#5e5e5e"/><path d="M1280.97 548.7h-1.94v-1.02h1.94z" fill="#5e5e5e"/><path stroke="#5e5e5e" stroke-width=".05" fill="#5e5e5e"/><path d="M1281.55 453h-3.1l1.55-4.76z" fill="#5e5e5e"/><path d="M1282.57 453h-2.05l-.52-1.6-.52 1.6h-2.05l2.57-7.92z" stroke="#5e5e5e" stroke-width=".05" fill="#5e5e5e"/><use xlink:href="#w" transform="matrix(1,0,0,1,1181.432098765432,496.6887834500149) translate(0 14.222222222222223)"/><use xlink:href="#x" transform="matrix(1,0,0,1,1181.432098765432,496.6887834500149) translate(19.75308641975309 14.222222222222223)"/><use xlink:href="#y" transform="matrix(1,0,0,1,1181.432098765432,496.6887834500149) translate(150.8148148148148 14.222222222222223)"/><path d="M946.08 440c-3.04 0-6.08 6-6.08 15 0 7.5 3.04 15 6.08 15h150.88v-30H946.08z" stroke="#5e5e5e" fill="#818181"/><path d="M1100 455c0 7.5-1.6 15-3.04 15-3.04 0-4.64-7.5-4.64-15 0-9 1.6-15 4.64-15 1.44 0 3.04 6 3.04 15z" stroke="#5e5e5e" fill="#818181"/><use xlink:href="#z" transform="matrix(1,0,0,1,940,475) translate(14.629629629629633 17.77777777777778)"/><use xlink:href="#A" transform="matrix(1,0,0,1,940,475) translate(77.46913580246914 17.77777777777778)"/><use xlink:href="#B" transform="matrix(1,0,0,1,940,475) translate(38.7037037037037 44.44444444444444)"/><path d="M926.08 700c-3.04 0-6.08 6-6.08 15 0 7.5 3.04 15 6.08 15h150.88v-30H926.08z" stroke="#5e5e5e" fill="#818181"/><path d="M1080 715c0 7.5-1.6 15-3.04 15-3.04 0-4.64-7.5-4.64-15 0-9 1.6-15 4.64-15 1.44 0 3.04 6 3.04 15z" stroke="#5e5e5e" fill="#818181"/><use xlink:href="#C" transform="matrix(1,0,0,1,920,735) translate(34.35185185185185 17.77777777777778)"/><use xlink:href="#D" transform="matrix(1,0,0,1,920,735) translate(1.6666666666666714 44.44444444444444)"/><use xlink:href="#E" transform="matrix(1,0,0,1,920,735) translate(75.74074074074073 44.44444444444444)"/><path d="M672.64 565h-1.95v-76.7h1.94zm8.86-191.52h-3.8l-.82.06-.77.18-.72.3-.67.42-.6.5-.5.6-.4.68-.3.73-.2.76-.06.84v67.1h-1.95v-67.18l.07-1.05.26-1.06.42-1 .57-.94.7-.83.84-.7.94-.6 1-.4 1.07-.26 1.05-.08h3.88z" stroke="#008573" stroke-width=".05" fill="#008573"/><path d="M672.64 566h-1.95v-1.03h1.94z" fill="#008573"/><path stroke="#008573" stroke-width=".05" fill="#008573"/><path d="M696.76 372.5l-14.26 4.63v-9.26z" fill="#008573"/><path d="M699.92 372.5l-18.4 5.98v-11.96zm-16.45 3.3l10.14-3.3-10.13-3.3z" stroke="#008573" stroke-width=".05" fill="#008573"/><use xlink:href="#F" transform="matrix(1,0,0,1,585.3667050142396,445.6387716085955) translate(0 14.222222222222223)"/><use xlink:href="#G" transform="matrix(1,0,0,1,585.3667050142396,445.6387716085955) translate(19.75308641975309 14.222222222222223)"/><use xlink:href="#H" transform="matrix(1,0,0,1,585.3667050142396,445.6387716085955) translate(73.03703703703704 14.222222222222223)"/><use xlink:href="#I" transform="matrix(1,0,0,1,585.3667050142396,445.6387716085955) translate(141.08641975308643 14.222222222222223)"/><use xlink:href="#J" transform="matrix(1,0,0,1,585.3667050142396,445.6387716085955) translate(0 35.55555555555556)"/><use xlink:href="#K" transform="matrix(1,0,0,1,585.3667050142396,445.6387716085955) translate(77.87654320987656 35.55555555555556)"/><path d="M921 455.98h-44.46l-.83.06-.75.18-.73.3-.67.42-.6.5-.52.6-.4.68-.3.73-.2.76-.06.84V586.1l-.08 1.06-.26 1.07-.42 1-.58.94-.7.83-.84.7-.93.6-1 .4-1.08.26-1.06.08H802.5v-1.95h61.96l.82-.07.77-.18.73-.3.67-.42.6-.5.5-.6.42-.68.3-.73.2-.77.05-.82V460.96l.1-1.05.24-1.06.42-1 .57-.94.7-.83.85-.7.93-.6 1-.4 1.08-.26 1.06-.08H921z" stroke="#008573" stroke-width=".05" fill="#008573"/><path d="M802.53 593.04h-1.03v-1.95h1.03z" fill="#008573"/><path stroke="#008573" stroke-width=".05" fill="#008573"/><path d="M936.26 455L922 459.63v-9.26z" fill="#008573"/><path d="M939.42 455l-18.4 5.98v-11.96zm-16.45 3.3l10.13-3.3-10.13-3.3z" stroke="#008573" stroke-width=".05" fill="#008573"/><g><use xlink:href="#L" transform="matrix(1,0,0,1,878.4981774033156,549.0864475867911) translate(0 14.222222222222223)"/><use xlink:href="#G" transform="matrix(1,0,0,1,878.4981774033156,549.0864475867911) translate(19.75308641975309 14.222222222222223)"/><use xlink:href="#M" transform="matrix(1,0,0,1,878.4981774033156,549.0864475867911) translate(73.03703703703704 14.222222222222223)"/><use xlink:href="#N" transform="matrix(1,0,0,1,878.4981774033156,549.0864475867911) translate(0 35.55555555555556)"/><use xlink:href="#O" transform="matrix(1,0,0,1,878.4981774033156,549.0864475867911) translate(51.25925925925927 35.55555555555556)"/></g><path d="M1150.48 584.17l.06.83.18.76.3.73.42.66.5.6.6.5.68.42.73.3.77.2.82.05h13.96v1.95h-14.04l-1.05-.08-1.06-.25-1-.42-.94-.57-.83-.72-.7-.83-.6-.92-.4-1-.26-1.08-.07-1.05v-10.3h1.95zm47.02 7h-14v-1.94h14zm-47.02-27.5h-1.95v-9.8h1.95zm0-31.14h-1.95v-20.2h1.95zm0-30.46h-1.95v-20.53h1.95zm-5.9-47.96l1.08.26 1 .42.94.58.84.7.7.84.58.93.42 1 .25 1.08.08 1.06v10.3h-1.95v-10.22l-.07-.83-.18-.75-.3-.73-.42-.67-.5-.6-.6-.5-.68-.43-.73-.3-.76-.18-.84-.06h-8.12v-1.96h8.2zm-17.4 1.88H1119v-1.96h8.17z" stroke="#5e5e5e" stroke-width=".05" fill="#5e5e5e"/><path d="M1118 459.63l-14.26-4.63 14.27-4.63z" fill="#5e5e5e"/><path d="M1118.98 460.98l-18.4-5.98 18.4-5.98zm-12.1-5.98l10.15 3.3v-6.6z" stroke="#5e5e5e" stroke-width=".05" fill="#5e5e5e"/><path d="M1198.5 591.18h-1.03v-1.95h1.03z" fill="#5e5e5e"/><path stroke="#5e5e5e" stroke-width=".05" fill="#5e5e5e"/><g><use xlink:href="#P" transform="matrix(1,0,0,1,1091.7976336362099,532.5285624103773) translate(0 14.222222222222223)"/><use xlink:href="#Q" transform="matrix(1,0,0,1,1091.7976336362099,532.5285624103773) translate(19.75308641975309 14.222222222222223)"/></g><path d="M1280 632.7V709a6 6 0 0 1-6 6h-175" stroke="#e81313" stroke-width="2" fill="none"/><path d="M1280.97 632.74h-1.94v-1.03h1.94z" stroke="#e81313" stroke-width=".05" fill="#e81313"/><path d="M1083.74 715l14.27-4.63v9.26z" stroke="#e81313" stroke-width="2" fill="#e81313"/><g><use xlink:href="#R" transform="matrix(1,0,0,1,1116.4067884874462,723.6352549156242) translate(0 14.222222222222223)"/><use xlink:href="#S" transform="matrix(1,0,0,1,1116.4067884874462,723.6352549156242) translate(19.75308641975309 14.222222222222223)"/><use xlink:href="#T" transform="matrix(1,0,0,1,1116.4067884874462,723.6352549156242) translate(72.98765432098766 14.222222222222223)"/><use xlink:href="#U" transform="matrix(1,0,0,1,1116.4067884874462,723.6352549156242) translate(0 35.55555555555556)"/></g><path d="M720.98 708.96l.06.83.18.75.3.73.42.67.5.6.6.5.68.43.73.3.76.18.84.06h3V716h-3.08l-1.05-.1-1.06-.24-1-.42-.94-.58-.83-.7-.72-.84-.57-.93-.42-1-.25-1.08-.08-1.06v-9.87H721zm160.57 7H862.1v-1.94h19.45zm19.45 0h-9.73v-1.94H901zm-48.62 0h-7.93v-1.94h7.93zM721 689.35H719v-19.66H721zm0-29.5H719V650H721z" stroke="#e81313" stroke-width=".05" fill="#e81313"/><path d="M720.98 650.03H719V649H721z" fill="#e81313"/><path stroke="#e81313" stroke-width=".05" fill="#e81313"/><path d="M916.26 715L902 719.63v-9.26z" fill="#e81313"/><path d="M919.42 715l-18.4 5.98v-11.96zm-16.45 3.3l10.13-3.3-10.13-3.3z" stroke="#e81313" stroke-width=".05" fill="#e81313"/><g><use xlink:href="#V" transform="matrix(1,0,0,1,729.044485046051,704.3333333333334) translate(0 14.222222222222223)"/><use xlink:href="#Q" transform="matrix(1,0,0,1,729.044485046051,704.3333333333334) translate(19.75308641975309 14.222222222222223)"/></g><path d="M678.22 709.04l-.08 1.05-.25 1.06-.43 1-.58.94-.72.83-.83.72-.93.57-1 .42-1.08.25-1.05.08h-10.44V714h10.35l.83-.06.77-.18.73-.3.67-.42.6-.5.5-.6.42-.68.3-.73.2-.76.05-.84v-9.8h1.95zm-27.74 6.94H629.7V714h20.78zm-31.16 0h-20.78V714h20.78zm-31.16 0H567.4V714h20.76zm-31.16 0h-20.77V714H557zm-31.16 0h-20.77V714h20.77zm-31.16 0H473.9V714h20.78zm-31.16 0h-20.77V714h20.77zm-31.16 0H411.6V714h20.76zm-46.57-7.02l.06.83.18.75.3.73.4.67.52.6.6.5.68.43.72.3.77.18.83.06h10.34V716h-10.42l-1.05-.1-1.07-.24-1-.42-.95-.58-.82-.7-.7-.84-.58-.93-.42-1-.26-1.08-.08-1.06v-8.46h1.95zm0-16.8h-1.96v-16.82h1.95zm292.42-2.83h-1.95v-19.66h1.95zm0-29.5h-1.95V650h1.95z" stroke="#e81313" stroke-width=".05" fill="#e81313"/><path d="M678.22 650.03h-1.95V649h1.95z" fill="#e81313"/><path stroke="#e81313" stroke-width=".05" fill="#e81313"/><path d="M386.7 649h-3.76l1.88-5.76z" fill="#e81313"/><path d="M387.7 649h-2.04l-.84-2.6-.85 2.6h-2.05l2.9-8.92z" stroke="#e81313" stroke-width=".05" fill="#e81313"/><g><use xlink:href="#W" transform="matrix(1,0,0,1,429.0263440086065,718.9999999999999) translate(0 14.222222222222223)"/><use xlink:href="#X" transform="matrix(1,0,0,1,429.0263440086065,718.9999999999999) translate(19.75308641975309 14.222222222222223)"/><use xlink:href="#n" transform="matrix(1,0,0,1,429.0263440086065,718.9999999999999) translate(95.55555555555557 14.222222222222223)"/><use xlink:href="#Y" transform="matrix(1,0,0,1,429.0263440086065,718.9999999999999) translate(132.00000000000003 14.222222222222223)"/><use xlink:href="#Z" transform="matrix(1,0,0,1,429.0263440086065,718.9999999999999) translate(0 35.55555555555556)"/><use xlink:href="#aa" transform="matrix(1,0,0,1,429.0263440086065,718.9999999999999) translate(4.938271604938272 35.55555555555556)"/></g><path d="M781.56 565h-1.95v-39.57h1.96zm-2.58-193.44l.47.1.44.2.4.25.36.32.32.36.25.4.18.45.12.47.04.44v108.22h-1.95V374.42l-.05-.18-.07-.16-.1-.15-.1-.13-.13-.1-.15-.1-.16-.07-.17-.04-.25-.03.16-1.94z" stroke="#e81313" stroke-width=".05" fill="#e81313"/><path d="M781.56 566h-1.95v-1.03h1.96z" fill="#e81313"/><path stroke="#e81313" stroke-width=".05" fill="#e81313"/><path d="M777.5 377.13l-14.26-4.63 14.26-4.63z" fill="#e81313"/><path d="M778.48 378.48l-18.4-5.98 18.4-5.98zm-12.1-5.98l10.15 3.3v-6.6z" stroke="#e81313" stroke-width=".05" fill="#e81313"/><g><use xlink:href="#ab" transform="matrix(1,0,0,1,720.4825518984878,482.763010360273) translate(0 14.222222222222223)"/><use xlink:href="#ac" transform="matrix(1,0,0,1,720.4825518984878,482.763010360273) translate(19.75308641975309 14.222222222222223)"/><use xlink:href="#ad" transform="matrix(1,0,0,1,720.4825518984878,482.763010360273) translate(0 35.55555555555556)"/><use xlink:href="#ae" transform="matrix(1,0,0,1,720.4825518984878,482.763010360273) translate(74.8641975308642 35.55555555555556)"/></g><defs><path fill="#5a6c86" d="M101-251c82-7 93 87 43 132L82-64C71-53 59-42 53-27h129V0H18c2-99 128-94 128-182 0-28-16-43-45-43s-46 15-49 41l-32-3c6-41 34-60 81-64" id="af"/><path fill="#5a6c86" d="M33 0v-38h34V0H33" id="ag"/><g id="a"><use transform="matrix(0.06172839506172839,0,0,0.06172839506172839,0,0)" xlink:href="#af"/><use transform="matrix(0.06172839506172839,0,0,0.06172839506172839,12.345679012345679,0)" xlink:href="#ag"/></g><path fill="#5a6c86" d="M232-93c-1 65-40 97-104 97C67 4 28-28 28-90v-158h33c8 89-33 224 67 224 102 0 64-133 71-224h33v155" id="ah"/><path fill="#5a6c86" d="M115-194c55 1 70 41 70 98S169 2 115 4C84 4 66-9 55-30l1 105H24l-1-265h31l2 30c10-21 28-34 59-34zm-8 174c40 0 45-34 45-75s-6-73-45-74c-42 0-51 32-51 76 0 43 10 73 51 73" id="ai"/><path fill="#5a6c86" d="M85-194c31 0 48 13 60 33l-1-100h32l1 261h-30c-2-10 0-23-3-31C134-8 116 4 85 4 32 4 16-35 15-94c0-66 23-100 70-100zm9 24c-40 0-46 34-46 75 0 40 6 74 45 74 42 0 51-32 51-76 0-42-9-74-50-73" id="aj"/><path fill="#5a6c86" d="M141-36C126-15 110 5 73 4 37 3 15-17 15-53c-1-64 63-63 125-63 3-35-9-54-41-54-24 1-41 7-42 31l-33-3c5-37 33-52 76-52 45 0 72 20 72 64v82c-1 20 7 32 28 27v20c-31 9-61-2-59-35zM48-53c0 20 12 33 32 33 41-3 63-29 60-74-43 2-92-5-92 41" id="ak"/><path fill="#5a6c86" d="M59-47c-2 24 18 29 38 22v24C64 9 27 4 27-40v-127H5v-23h24l9-43h21v43h35v23H59v120" id="al"/><path fill="#5a6c86" d="M100-194c63 0 86 42 84 106H49c0 40 14 67 53 68 26 1 43-12 49-29l28 8c-11 28-37 45-77 45C44 4 14-33 15-96c1-61 26-98 85-98zm52 81c6-60-76-77-97-28-3 7-6 17-6 28h103" id="am"/><g id="b"><use transform="matrix(0.06172839506172839,0,0,0.06172839506172839,0,0)" xlink:href="#ah"/><use transform="matrix(0.06172839506172839,0,0,0.06172839506172839,15.987654320987653,0)" xlink:href="#ai"/><use transform="matrix(0.06172839506172839,0,0,0.06172839506172839,28.333333333333332,0)" xlink:href="#aj"/><use transform="matrix(0.06172839506172839,0,0,0.06172839506172839,40.67901234567901,0)" xlink:href="#ak"/><use transform="matrix(0.06172839506172839,0,0,0.06172839506172839,53.02469135802469,0)" xlink:href="#al"/><use transform="matrix(0.06172839506172839,0,0,0.06172839506172839,59.19753086419753,0)" xlink:href="#am"/></g><path fill="#5a6c86" d="M127-220V0H93v-220H8v-28h204v28h-85" id="an"/><path fill="#5a6c86" d="M141 0L90-78 38 0H4l68-98-65-92h35l48 74 47-74h35l-64 92 68 98h-35" id="ao"/><path fill="#5a6c86" d="M117-194c89-4 53 116 60 194h-32v-121c0-31-8-49-39-48C34-167 62-67 57 0H25l-1-190h30c1 10-1 24 2 32 11-22 29-35 61-36" id="ap"/><g id="c"><use transform="matrix(0.06172839506172839,0,0,0.06172839506172839,0,0)" xlink:href="#an"/><use transform="matrix(0.06172839506172839,0,0,0.06172839506172839,13.518518518518517,0)" xlink:href="#ao"/><use transform="matrix(0.06172839506172839,0,0,0.06172839506172839,24.629629629629626,0)" xlink:href="#ap"/></g><path fill="#5a6c86" d="M155-56V0h-30v-56H8v-25l114-167h33v167h35v25h-35zm-30-156c-27 46-58 90-88 131h88v-131" id="aq"/><g id="d"><use transform="matrix(0.06172839506172839,0,0,0.06172839506172839,0,0)" xlink:href="#aq"/><use transform="matrix(0.06172839506172839,0,0,0.06172839506172839,12.345679012345679,0)" xlink:href="#ag"/></g><path fill="#5a6c86" d="M110-160c48 1 74 30 74 79 0 53-28 85-80 85-65 0-83-55-86-122-5-90 50-162 133-122 14 7 22 21 27 39l-31 6c-5-40-67-38-82-6-9 19-15 44-15 74 11-20 30-34 60-33zm-7 138c34 0 49-23 49-58s-16-56-50-56c-29 0-50 16-49 49 1 36 15 65 50 65" id="ar"/><g id="e"><use transform="matrix(0.06172839506172839,0,0,0.06172839506172839,0,0)" xlink:href="#ar"/><use transform="matrix(0.06172839506172839,0,0,0.06172839506172839,12.345679012345679,0)" xlink:href="#ag"/></g><path fill="#5a6c86" d="M233-177c-1 41-23 64-60 70L243 0h-38l-65-103H63V0H30v-248c88 3 205-21 203 71zM63-129c60-2 137 13 137-47 0-61-80-42-137-45v92" id="as"/><path fill="#5a6c86" d="M100-194c62-1 85 37 85 99 1 63-27 99-86 99S16-35 15-95c0-66 28-99 85-99zM99-20c44 1 53-31 53-75 0-43-8-75-51-75s-53 32-53 75 10 74 51 75" id="at"/><path fill="#5a6c86" d="M24 0v-261h32V0H24" id="au"/><path fill="#5a6c86" d="M115-194c53 0 69 39 70 98 0 66-23 100-70 100C84 3 66-7 56-30L54 0H23l1-261h32v101c10-23 28-34 59-34zm-8 174c40 0 45-34 45-75 0-40-5-75-45-74-42 0-51 32-51 76 0 43 10 73 51 73" id="av"/><path fill="#5a6c86" d="M96-169c-40 0-48 33-48 73s9 75 48 75c24 0 41-14 43-38l32 2c-6 37-31 61-74 61-59 0-76-41-82-99-10-93 101-131 147-64 4 7 5 14 7 22l-32 3c-4-21-16-35-41-35" id="aw"/><path fill="#5a6c86" d="M143 0L79-87 56-68V0H24v-261h32v163l83-92h37l-77 82L181 0h-38" id="ax"/><g id="f"><use transform="matrix(0.06172839506172839,0,0,0.06172839506172839,0,0)" xlink:href="#as"/><use transform="matrix(0.06172839506172839,0,0,0.06172839506172839,15.987654320987653,0)" xlink:href="#at"/><use transform="matrix(0.06172839506172839,0,0,0.06172839506172839,28.333333333333332,0)" xlink:href="#au"/><use transform="matrix(0.06172839506172839,0,0,0.06172839506172839,33.20987654320987,0)" xlink:href="#au"/><use transform="matrix(0.06172839506172839,0,0,0.06172839506172839,38.08641975308642,0)" xlink:href="#av"/><use transform="matrix(0.06172839506172839,0,0,0.06172839506172839,50.432098765432094,0)" xlink:href="#ak"/><use transform="matrix(0.06172839506172839,0,0,0.06172839506172839,62.77777777777777,0)" xlink:href="#aw"/><use transform="matrix(0.06172839506172839,0,0,0.06172839506172839,73.88888888888889,0)" xlink:href="#ax"/></g><path fill="#5a6c86" d="M134-131c28 9 52 24 51 62-1 50-34 73-85 73S17-19 16-69c0-36 21-54 49-61-75-25-45-126 34-121 46 3 78 18 79 63 0 33-17 51-44 57zm-34-11c31 1 46-15 46-44 0-28-17-43-47-42-29 0-46 13-45 42 1 28 16 44 46 44zm1 122c35 0 51-18 51-52 0-30-18-46-53-46-33 0-51 17-51 47 0 34 19 51 53 51" id="ay"/><g id="g"><use transform="matrix(0.06172839506172839,0,0,0.06172839506172839,0,0)" xlink:href="#ay"/><use transform="matrix(0.06172839506172839,0,0,0.06172839506172839,12.345679012345679,0)" xlink:href="#ag"/></g><path d="M212-179c-10-28-35-45-73-45-59 0-87 40-87 99 0 60 29 101 89 101 43 0 62-24 78-52l27 14C228-24 195 4 139 4 59 4 22-46 18-125c-6-104 99-153 187-111 19 9 31 26 39 46" id="az"/><path d="M84 4C-5 8 30-112 23-190h32v120c0 31 7 50 39 49 72-2 45-101 50-169h31l1 190h-30c-1-10 1-25-2-33-11 22-28 36-60 37" id="aA"/><path d="M135-143c-3-34-86-38-87 0 15 53 115 12 119 90S17 21 10-45l28-5c4 36 97 45 98 0-10-56-113-15-118-90-4-57 82-63 122-42 12 7 21 19 24 35" id="aB"/><path d="M59-47c-2 24 18 29 38 22v24C64 9 27 4 27-40v-127H5v-23h24l9-43h21v43h35v23H59v120" id="aC"/><path d="M100-194c62-1 85 37 85 99 1 63-27 99-86 99S16-35 15-95c0-66 28-99 85-99zM99-20c44 1 53-31 53-75 0-43-8-75-51-75s-53 32-53 75 10 74 51 75" id="aD"/><path d="M210-169c-67 3-38 105-44 169h-31v-121c0-29-5-50-35-48C34-165 62-65 56 0H25l-1-190h30c1 10-1 24 2 32 10-44 99-50 107 0 11-21 27-35 58-36 85-2 47 119 55 194h-31v-121c0-29-5-49-35-48" id="aE"/><path d="M100-194c63 0 86 42 84 106H49c0 40 14 67 53 68 26 1 43-12 49-29l28 8c-11 28-37 45-77 45C44 4 14-33 15-96c1-61 26-98 85-98zm52 81c6-60-76-77-97-28-3 7-6 17-6 28h103" id="aF"/><path d="M114-163C36-179 61-72 57 0H25l-1-190h30c1 12-1 29 2 39 6-27 23-49 58-41v29" id="aG"/><g id="h"><use transform="matrix(0.06172839506172839,0,0,0.06172839506172839,0,0)" xlink:href="#az"/><use transform="matrix(0.06172839506172839,0,0,0.06172839506172839,15.987654320987653,0)" xlink:href="#aA"/><use transform="matrix(0.06172839506172839,0,0,0.06172839506172839,28.333333333333332,0)" xlink:href="#aB"/><use transform="matrix(0.06172839506172839,0,0,0.06172839506172839,39.44444444444444,0)" xlink:href="#aC"/><use transform="matrix(0.06172839506172839,0,0,0.06172839506172839,45.617283950617285,0)" xlink:href="#aD"/><use transform="matrix(0.06172839506172839,0,0,0.06172839506172839,57.96296296296296,0)" xlink:href="#aE"/><use transform="matrix(0.06172839506172839,0,0,0.06172839506172839,76.41975308641975,0)" xlink:href="#aF"/><use transform="matrix(0.06172839506172839,0,0,0.06172839506172839,88.76543209876543,0)" xlink:href="#aG"/></g><path fill="#333" d="M23 0v-37h61v-169l-59 37v-38l62-41h46v211h57V0H23" id="aH"/><path fill="#333" d="M24 0v-54h51V0H24" id="aI"/><g id="i"><use transform="matrix(0.04938271604938272,0,0,0.04938271604938272,0,0)" xlink:href="#aH"/><use transform="matrix(0.04938271604938272,0,0,0.04938271604938272,9.876543209876544,0)" xlink:href="#aI"/></g><path fill="#333" d="M67-125c0 53 21 87 73 88 37 1 54-22 65-47l45 17C233-25 199 4 140 4 58 4 20-42 15-125 8-235 124-281 211-232c18 10 29 29 36 50l-46 12c-8-25-30-41-62-41-52 0-71 34-72 86" id="aJ"/><path fill="#333" d="M85 4C-2 5 27-109 22-190h50c7 57-23 150 33 157 60-5 35-97 40-157h50l1 190h-47c-2-12 1-28-3-38-12 25-28 42-61 42" id="aK"/><path fill="#333" d="M137-138c1-29-70-34-71-4 15 46 118 7 119 86 1 83-164 76-172 9l43-7c4 19 20 25 44 25 33 8 57-30 24-41C81-84 22-81 20-136c-2-80 154-74 161-7" id="aL"/><path fill="#333" d="M115-3C79 11 28 4 28-45v-112H4v-33h27l15-45h31v45h36v33H77v99c-1 23 16 31 38 25v30" id="aM"/><path fill="#333" d="M110-194c64 0 96 36 96 99 0 64-35 99-97 99-61 0-95-36-95-99 0-62 34-99 96-99zm-1 164c35 0 45-28 45-65 0-40-10-65-43-65-34 0-45 26-45 65 0 36 10 65 43 65" id="aN"/><path fill="#333" d="M220-157c-53 9-28 100-34 157h-49v-107c1-27-5-49-29-50C55-147 81-57 75 0H25l-1-190h47c2 12-1 28 3 38 10-53 101-56 108 0 13-22 24-43 59-42 82 1 51 116 57 194h-49v-107c-1-25-5-48-29-50" id="aO"/><path fill="#333" d="M185-48c-13 30-37 53-82 52C43 2 14-33 14-96s30-98 90-98c62 0 83 45 84 108H66c0 31 8 55 39 56 18 0 30-7 34-22zm-45-69c5-46-57-63-70-21-2 6-4 13-4 21h74" id="aP"/><path fill="#333" d="M135-150c-39-12-60 13-60 57V0H25l-1-190h47c2 13-1 29 3 40 6-28 27-53 61-41v41" id="aQ"/><g id="j"><use transform="matrix(0.04938271604938272,0,0,0.04938271604938272,0,0)" xlink:href="#aJ"/><use transform="matrix(0.04938271604938272,0,0,0.04938271604938272,12.790123456790125,0)" xlink:href="#aK"/><use transform="matrix(0.04938271604938272,0,0,0.04938271604938272,23.60493827160494,0)" xlink:href="#aL"/><use transform="matrix(0.04938271604938272,0,0,0.04938271604938272,33.48148148148148,0)" xlink:href="#aM"/><use transform="matrix(0.04938271604938272,0,0,0.04938271604938272,39.358024691358025,0)" xlink:href="#aN"/><use transform="matrix(0.04938271604938272,0,0,0.04938271604938272,50.17283950617284,0)" xlink:href="#aO"/><use transform="matrix(0.04938271604938272,0,0,0.04938271604938272,65.97530864197532,0)" xlink:href="#aP"/><use transform="matrix(0.04938271604938272,0,0,0.04938271604938272,75.85185185185186,0)" xlink:href="#aQ"/></g><path fill="#333" d="M135-194c52 0 70 43 70 98 0 56-19 99-73 100-30 1-46-15-58-35L72 0H24l1-261h50v104c11-23 29-37 60-37zM114-30c31 0 40-27 40-66 0-37-7-63-39-63s-41 28-41 65c0 36 8 64 40 64" id="aR"/><path fill="#333" d="M25-224v-37h50v37H25zM25 0v-190h50V0H25" id="aS"/><g id="k"><use transform="matrix(0.04938271604938272,0,0,0.04938271604938272,0,0)" xlink:href="#aL"/><use transform="matrix(0.04938271604938272,0,0,0.04938271604938272,9.876543209876544,0)" xlink:href="#aK"/><use transform="matrix(0.04938271604938272,0,0,0.04938271604938272,20.69135802469136,0)" xlink:href="#aR"/><use transform="matrix(0.04938271604938272,0,0,0.04938271604938272,31.506172839506174,0)" xlink:href="#aO"/><use transform="matrix(0.04938271604938272,0,0,0.04938271604938272,47.308641975308646,0)" xlink:href="#aS"/><use transform="matrix(0.04938271604938272,0,0,0.04938271604938272,52.24691358024692,0)" xlink:href="#aM"/><use transform="matrix(0.04938271604938272,0,0,0.04938271604938272,58.12345679012346,0)" xlink:href="#aL"/></g><path fill="#333" d="M88-194c31-1 46 15 58 34l-1-101h50l1 261h-48c-2-10 0-23-3-31C134-8 116 4 84 4 32 4 16-41 15-95c0-56 19-97 73-99zm17 164c33 0 40-30 41-66 1-37-9-64-41-64s-38 30-39 65c0 43 13 65 39 65" id="aT"/><g id="m"><use transform="matrix(0.04938271604938272,0,0,0.04938271604938272,0,0)" xlink:href="#aN"/><use transform="matrix(0.04938271604938272,0,0,0.04938271604938272,10.814814814814815,0)" xlink:href="#aQ"/><use transform="matrix(0.04938271604938272,0,0,0.04938271604938272,17.728395061728396,0)" xlink:href="#aT"/><use transform="matrix(0.04938271604938272,0,0,0.04938271604938272,28.543209876543205,0)" xlink:href="#aP"/><use transform="matrix(0.04938271604938272,0,0,0.04938271604938272,38.41975308641975,0)" xlink:href="#aQ"/></g><path fill="#333" d="M133-34C117-15 103 5 69 4 32 3 11-16 11-54c-1-60 55-63 116-61 1-26-3-47-28-47-18 1-26 9-28 27l-52-2c7-38 36-58 82-57s74 22 75 68l1 82c-1 14 12 18 25 15v27c-30 8-71 5-69-32zm-48 3c29 0 43-24 42-57-32 0-66-3-65 30 0 17 8 27 23 27" id="aU"/><path fill="#333" d="M135-194c87-1 58 113 63 194h-50c-7-57 23-157-34-157-59 0-34 97-39 157H25l-1-190h47c2 12-1 28 3 38 12-26 28-41 61-42" id="aV"/><g id="n"><use transform="matrix(0.04938271604938272,0,0,0.04938271604938272,0,0)" xlink:href="#aU"/><use transform="matrix(0.04938271604938272,0,0,0.04938271604938272,9.876543209876544,0)" xlink:href="#aV"/><use transform="matrix(0.04938271604938272,0,0,0.04938271604938272,20.69135802469136,0)" xlink:href="#aT"/></g><path fill="#333" d="M190-63c-7 42-38 67-86 67-59 0-84-38-90-98-12-110 154-137 174-36l-49 2c-2-19-15-32-35-32-30 0-35 28-38 64-6 74 65 87 74 30" id="aW"/><g id="o"><use transform="matrix(0.04938271604938272,0,0,0.04938271604938272,0,0)" xlink:href="#aW"/><use transform="matrix(0.04938271604938272,0,0,0.04938271604938272,9.876543209876544,0)" xlink:href="#aU"/><use transform="matrix(0.04938271604938272,0,0,0.04938271604938272,19.75308641975309,0)" xlink:href="#aQ"/><use transform="matrix(0.04938271604938272,0,0,0.04938271604938272,26.666666666666668,0)" xlink:href="#aT"/></g><path fill="#333" d="M135-194c53 0 70 44 70 98 0 56-19 98-73 100-31 1-45-17-59-34 3 33 2 69 2 105H25l-1-265h48c2 10 0 23 3 31 11-24 29-35 60-35zM114-30c33 0 39-31 40-66 0-38-9-64-40-64-56 0-55 130 0 130" id="aX"/><path fill="#333" d="M123 10C108 53 80 86 19 72V37c35 8 53-11 59-39L3-190h52l48 148c12-52 28-100 44-148h51" id="aY"/><g id="p"><use transform="matrix(0.04938271604938272,0,0,0.04938271604938272,0,0)" xlink:href="#aX"/><use transform="matrix(0.04938271604938272,0,0,0.04938271604938272,10.814814814814815,0)" xlink:href="#aU"/><use transform="matrix(0.04938271604938272,0,0,0.04938271604938272,20.69135802469136,0)" xlink:href="#aY"/><use transform="matrix(0.04938271604938272,0,0,0.04938271604938272,30.567901234567906,0)" xlink:href="#aO"/><use transform="matrix(0.04938271604938272,0,0,0.04938271604938272,46.370370370370374,0)" xlink:href="#aP"/><use transform="matrix(0.04938271604938272,0,0,0.04938271604938272,56.24691358024692,0)" xlink:href="#aV"/><use transform="matrix(0.04938271604938272,0,0,0.04938271604938272,67.06172839506173,0)" xlink:href="#aM"/></g><path d="M140-251c81 0 123 46 123 126C263-46 219 4 140 4 59 4 17-45 17-125s42-126 123-126zm0 227c63 0 89-41 89-101s-29-99-89-99c-61 0-89 39-89 99S79-25 140-24" id="aZ"/><path d="M85-194c31 0 48 13 60 33l-1-100h32l1 261h-30c-2-10 0-23-3-31C134-8 116 4 85 4 32 4 16-35 15-94c0-66 23-100 70-100zm9 24c-40 0-46 34-46 75 0 40 6 74 45 74 42 0 51-32 51-76 0-42-9-74-50-73" id="ba"/><g id="q"><use transform="matrix(0.06172839506172839,0,0,0.06172839506172839,0,0)" xlink:href="#aZ"/><use transform="matrix(0.06172839506172839,0,0,0.06172839506172839,17.28395061728395,0)" xlink:href="#aG"/><use transform="matrix(0.06172839506172839,0,0,0.06172839506172839,24.629629629629626,0)" xlink:href="#ba"/><use transform="matrix(0.06172839506172839,0,0,0.06172839506172839,36.9753086419753,0)" xlink:href="#aF"/><use transform="matrix(0.06172839506172839,0,0,0.06172839506172839,49.32098765432098,0)" xlink:href="#aG"/></g><path d="M185-189c-5-48-123-54-124 2 14 75 158 14 163 119 3 78-121 87-175 55-17-10-28-26-33-46l33-7c5 56 141 63 141-1 0-78-155-14-162-118-5-82 145-84 179-34 5 7 8 16 11 25" id="bb"/><path d="M108 0H70L1-190h34L89-25l56-165h34" id="bc"/><path d="M24-231v-30h32v30H24zM24 0v-190h32V0H24" id="bd"/><path d="M96-169c-40 0-48 33-48 73s9 75 48 75c24 0 41-14 43-38l32 2c-6 37-31 61-74 61-59 0-76-41-82-99-10-93 101-131 147-64 4 7 5 14 7 22l-32 3c-4-21-16-35-41-35" id="be"/><g id="r"><use transform="matrix(0.06172839506172839,0,0,0.06172839506172839,0,0)" xlink:href="#bb"/><use transform="matrix(0.06172839506172839,0,0,0.06172839506172839,14.814814814814813,0)" xlink:href="#aF"/><use transform="matrix(0.06172839506172839,0,0,0.06172839506172839,27.160493827160494,0)" xlink:href="#aG"/><use transform="matrix(0.06172839506172839,0,0,0.06172839506172839,34.50617283950617,0)" xlink:href="#bc"/><use transform="matrix(0.06172839506172839,0,0,0.06172839506172839,45.61728395061728,0)" xlink:href="#bd"/><use transform="matrix(0.06172839506172839,0,0,0.06172839506172839,50.49382716049382,0)" xlink:href="#be"/><use transform="matrix(0.06172839506172839,0,0,0.06172839506172839,61.60493827160494,0)" xlink:href="#aF"/></g><path d="M63-220v92h138v28H63V0H30v-248h175v28H63" id="bf"/><path d="M24 0v-261h32V0H24" id="bg"/><path d="M101-234c-31-9-42 10-38 44h38v23H63V0H32v-167H5v-23h27c-7-52 17-82 69-68v24" id="bh"/><path d="M117-194c89-4 53 116 60 194h-32v-121c0-31-8-49-39-48C34-167 62-67 57 0H25l-1-190h30c1 10-1 24 2 32 11-22 29-35 61-36" id="bi"/><g id="s"><use transform="matrix(0.06172839506172839,0,0,0.06172839506172839,0,0)" xlink:href="#bf"/><use transform="matrix(0.06172839506172839,0,0,0.06172839506172839,13.518518518518517,0)" xlink:href="#aA"/><use transform="matrix(0.06172839506172839,0,0,0.06172839506172839,25.864197530864196,0)" xlink:href="#bg"/><use transform="matrix(0.06172839506172839,0,0,0.06172839506172839,30.74074074074074,0)" xlink:href="#bh"/><use transform="matrix(0.06172839506172839,0,0,0.06172839506172839,36.91358024691358,0)" xlink:href="#bd"/><use transform="matrix(0.06172839506172839,0,0,0.06172839506172839,41.79012345679013,0)" xlink:href="#bg"/><use transform="matrix(0.06172839506172839,0,0,0.06172839506172839,46.66666666666667,0)" xlink:href="#bg"/><use transform="matrix(0.06172839506172839,0,0,0.06172839506172839,51.543209876543216,0)" xlink:href="#aE"/><use transform="matrix(0.06172839506172839,0,0,0.06172839506172839,70,0)" xlink:href="#aF"/><use transform="matrix(0.06172839506172839,0,0,0.06172839506172839,82.34567901234568,0)" xlink:href="#bi"/><use transform="matrix(0.06172839506172839,0,0,0.06172839506172839,94.69135802469137,0)" xlink:href="#aC"/></g><path d="M33 0v-248h34V0H33" id="bj"/><path d="M179-190L93 31C79 59 56 82 12 73V49c39 6 53-20 64-50L1-190h34L92-34l54-156h33" id="bk"/><g id="t"><use transform="matrix(0.05,0,0,0.05,0,0)" xlink:href="#bj"/><use transform="matrix(0.05,0,0,0.05,5,0)" xlink:href="#bi"/><use transform="matrix(0.05,0,0,0.05,15,0)" xlink:href="#bc"/><use transform="matrix(0.05,0,0,0.05,24,0)" xlink:href="#aF"/><use transform="matrix(0.05,0,0,0.05,34,0)" xlink:href="#bi"/><use transform="matrix(0.05,0,0,0.05,44,0)" xlink:href="#aC"/><use transform="matrix(0.05,0,0,0.05,49,0)" xlink:href="#aD"/><use transform="matrix(0.05,0,0,0.05,59,0)" xlink:href="#aG"/><use transform="matrix(0.05,0,0,0.05,64.95,0)" xlink:href="#bk"/></g><path d="M30-248c118-7 216 8 213 122C240-48 200 0 122 0H30v-248zM63-27c89 8 146-16 146-99s-60-101-146-95v194" id="bl"/><path d="M160-131c35 5 61 23 61 61C221 17 115-2 30 0v-248c76 3 177-17 177 60 0 33-19 50-47 57zm-97-11c50-1 110 9 110-42 0-47-63-36-110-37v79zm0 115c55-2 124 14 124-45 0-56-70-42-124-44v89" id="bm"/><g id="u"><use transform="matrix(0.05,0,0,0.05,0,0)" xlink:href="#bl"/><use transform="matrix(0.05,0,0,0.05,12.950000000000001,0)" xlink:href="#bm"/></g><g id="v"><use transform="matrix(0.05,0,0,0.05,0,0)" xlink:href="#aZ"/><use transform="matrix(0.05,0,0,0.05,14,0)" xlink:href="#aG"/><use transform="matrix(0.05,0,0,0.05,19.95,0)" xlink:href="#ba"/><use transform="matrix(0.05,0,0,0.05,29.950000000000003,0)" xlink:href="#aF"/><use transform="matrix(0.05,0,0,0.05,39.95,0)" xlink:href="#aG"/></g><path fill="#333" d="M139-81c0-46-55-55-73-27H18l9-140h149v37H72l-4 63c44-38 133-4 122 66C201 21 21 35 11-62l49-4c5 18 15 30 39 30 26 0 40-18 40-45" id="bn"/><g id="w"><use transform="matrix(0.04938271604938272,0,0,0.04938271604938272,0,0)" xlink:href="#bn"/><use transform="matrix(0.04938271604938272,0,0,0.04938271604938272,9.876543209876544,0)" xlink:href="#aI"/></g><path fill="#333" d="M114-157C55-157 80-60 75 0H25v-261h50l-1 109c12-26 28-41 61-42 86-1 58 113 63 194h-50c-7-57 23-157-34-157" id="bo"/><path fill="#333" d="M147 0L96-86 75-71V0H25v-261h50v150l67-79h53l-66 74L201 0h-54" id="bp"/><path fill="#333" d="M4 7l51-268h42L46 7H4" id="bq"/><g id="x"><use transform="matrix(0.04938271604938272,0,0,0.04938271604938272,0,0)" xlink:href="#aJ"/><use transform="matrix(0.04938271604938272,0,0,0.04938271604938272,12.790123456790125,0)" xlink:href="#bo"/><use transform="matrix(0.04938271604938272,0,0,0.04938271604938272,23.60493827160494,0)" xlink:href="#aP"/><use transform="matrix(0.04938271604938272,0,0,0.04938271604938272,33.48148148148148,0)" xlink:href="#aW"/><use transform="matrix(0.04938271604938272,0,0,0.04938271604938272,43.358024691358025,0)" xlink:href="#bp"/><use transform="matrix(0.04938271604938272,0,0,0.04938271604938272,53.23456790123457,0)" xlink:href="#bq"/><use transform="matrix(0.04938271604938272,0,0,0.04938271604938272,58.17283950617284,0)" xlink:href="#aT"/><use transform="matrix(0.04938271604938272,0,0,0.04938271604938272,68.98765432098766,0)" xlink:href="#aP"/><use transform="matrix(0.04938271604938272,0,0,0.04938271604938272,78.8641975308642,0)" xlink:href="#aT"/><use transform="matrix(0.04938271604938272,0,0,0.04938271604938272,89.67901234567901,0)" xlink:href="#aK"/><use transform="matrix(0.04938271604938272,0,0,0.04938271604938272,100.49382716049382,0)" xlink:href="#aW"/><use transform="matrix(0.04938271604938272,0,0,0.04938271604938272,110.37037037037035,0)" xlink:href="#aM"/><use transform="matrix(0.04938271604938272,0,0,0.04938271604938272,116.2469135802469,0)" xlink:href="#aL"/></g><g id="y"><use transform="matrix(0.04938271604938272,0,0,0.04938271604938272,0,0)" xlink:href="#aL"/><use transform="matrix(0.04938271604938272,0,0,0.04938271604938272,9.876543209876544,0)" xlink:href="#aM"/><use transform="matrix(0.04938271604938272,0,0,0.04938271604938272,15.753086419753087,0)" xlink:href="#aN"/><use transform="matrix(0.04938271604938272,0,0,0.04938271604938272,26.567901234567902,0)" xlink:href="#aW"/><use transform="matrix(0.04938271604938272,0,0,0.04938271604938272,36.44444444444445,0)" xlink:href="#bp"/></g><g id="z"><use transform="matrix(0.06172839506172839,0,0,0.06172839506172839,0,0)" xlink:href="#aZ"/><use transform="matrix(0.06172839506172839,0,0,0.06172839506172839,17.28395061728395,0)" xlink:href="#aG"/><use transform="matrix(0.06172839506172839,0,0,0.06172839506172839,24.629629629629626,0)" xlink:href="#ba"/><use transform="matrix(0.06172839506172839,0,0,0.06172839506172839,36.9753086419753,0)" xlink:href="#aF"/><use transform="matrix(0.06172839506172839,0,0,0.06172839506172839,49.32098765432098,0)" xlink:href="#aG"/></g><path d="M30 0v-248h187v28H63v79h144v27H63v87h162V0H30" id="br"/><g id="A"><use transform="matrix(0.06172839506172839,0,0,0.06172839506172839,0,0)" xlink:href="#br"/><use transform="matrix(0.06172839506172839,0,0,0.06172839506172839,14.814814814814813,0)" xlink:href="#bc"/><use transform="matrix(0.06172839506172839,0,0,0.06172839506172839,25.925925925925924,0)" xlink:href="#aF"/><use transform="matrix(0.06172839506172839,0,0,0.06172839506172839,38.2716049382716,0)" xlink:href="#bi"/><use transform="matrix(0.06172839506172839,0,0,0.06172839506172839,50.61728395061728,0)" xlink:href="#aC"/><use transform="matrix(0.06172839506172839,0,0,0.06172839506172839,56.79012345679012,0)" xlink:href="#aB"/></g><path d="M106-169C34-169 62-67 57 0H25v-261h32l-1 103c12-21 28-36 61-36 89 0 53 116 60 194h-32v-121c2-32-8-49-39-48" id="bs"/><path d="M141-36C126-15 110 5 73 4 37 3 15-17 15-53c-1-64 63-63 125-63 3-35-9-54-41-54-24 1-41 7-42 31l-33-3c5-37 33-52 76-52 45 0 72 20 72 64v82c-1 20 7 32 28 27v20c-31 9-61-2-59-35zM48-53c0 20 12 33 32 33 41-3 63-29 60-74-43 2-92-5-92 41" id="bt"/><g id="B"><use transform="matrix(0.06172839506172839,0,0,0.06172839506172839,0,0)" xlink:href="#az"/><use transform="matrix(0.06172839506172839,0,0,0.06172839506172839,15.987654320987653,0)" xlink:href="#bs"/><use transform="matrix(0.06172839506172839,0,0,0.06172839506172839,28.333333333333332,0)" xlink:href="#bt"/><use transform="matrix(0.06172839506172839,0,0,0.06172839506172839,40.67901234567901,0)" xlink:href="#bi"/><use transform="matrix(0.06172839506172839,0,0,0.06172839506172839,53.02469135802469,0)" xlink:href="#bi"/><use transform="matrix(0.06172839506172839,0,0,0.06172839506172839,65.37037037037037,0)" xlink:href="#aF"/><use transform="matrix(0.06172839506172839,0,0,0.06172839506172839,77.71604938271605,0)" xlink:href="#bg"/></g><g id="C"><use transform="matrix(0.06172839506172839,0,0,0.06172839506172839,0,0)" xlink:href="#bj"/><use transform="matrix(0.06172839506172839,0,0,0.06172839506172839,6.172839506172839,0)" xlink:href="#bi"/><use transform="matrix(0.06172839506172839,0,0,0.06172839506172839,18.51851851851852,0)" xlink:href="#bc"/><use transform="matrix(0.06172839506172839,0,0,0.06172839506172839,29.62962962962963,0)" xlink:href="#aF"/><use transform="matrix(0.06172839506172839,0,0,0.06172839506172839,41.97530864197531,0)" xlink:href="#bi"/><use transform="matrix(0.06172839506172839,0,0,0.06172839506172839,54.32098765432099,0)" xlink:href="#aC"/><use transform="matrix(0.06172839506172839,0,0,0.06172839506172839,60.49382716049383,0)" xlink:href="#aD"/><use transform="matrix(0.06172839506172839,0,0,0.06172839506172839,72.8395061728395,0)" xlink:href="#aG"/><use transform="matrix(0.06172839506172839,0,0,0.06172839506172839,80.18518518518519,0)" xlink:href="#bk"/></g><g id="D"><use transform="matrix(0.06172839506172839,0,0,0.06172839506172839,0,0)" xlink:href="#br"/><use transform="matrix(0.06172839506172839,0,0,0.06172839506172839,14.814814814814813,0)" xlink:href="#bc"/><use transform="matrix(0.06172839506172839,0,0,0.06172839506172839,25.925925925925924,0)" xlink:href="#aF"/><use transform="matrix(0.06172839506172839,0,0,0.06172839506172839,38.2716049382716,0)" xlink:href="#bi"/><use transform="matrix(0.06172839506172839,0,0,0.06172839506172839,50.61728395061728,0)" xlink:href="#aC"/><use transform="matrix(0.06172839506172839,0,0,0.06172839506172839,56.79012345679012,0)" xlink:href="#aB"/></g><g id="E"><use transform="matrix(0.06172839506172839,0,0,0.06172839506172839,0,0)" xlink:href="#az"/><use transform="matrix(0.06172839506172839,0,0,0.06172839506172839,15.987654320987653,0)" xlink:href="#bs"/><use transform="matrix(0.06172839506172839,0,0,0.06172839506172839,28.333333333333332,0)" xlink:href="#bt"/><use transform="matrix(0.06172839506172839,0,0,0.06172839506172839,40.67901234567901,0)" xlink:href="#bi"/><use transform="matrix(0.06172839506172839,0,0,0.06172839506172839,53.02469135802469,0)" xlink:href="#bi"/><use transform="matrix(0.06172839506172839,0,0,0.06172839506172839,65.37037037037037,0)" xlink:href="#aF"/><use transform="matrix(0.06172839506172839,0,0,0.06172839506172839,77.71604938271605,0)" xlink:href="#bg"/></g><path fill="#333" d="M182-182c0 78-84 86-111 141h115V0H12c-6-101 99-100 120-180 1-22-12-31-33-32-23 0-32 14-35 34l-49-3c5-45 32-70 84-70 51 0 83 22 83 69" id="bu"/><g id="F"><use transform="matrix(0.04938271604938272,0,0,0.04938271604938272,0,0)" xlink:href="#bu"/><use transform="matrix(0.04938271604938272,0,0,0.04938271604938272,9.876543209876544,0)" xlink:href="#aI"/></g><path fill="#333" d="M140-251c80 0 125 45 125 126S219 4 139 4C58 4 15-44 15-125s44-126 125-126zm-1 214c52 0 73-35 73-88 0-50-21-86-72-86-52 0-73 35-73 86s22 88 72 88" id="bv"/><g id="G"><use transform="matrix(0.04938271604938272,0,0,0.04938271604938272,0,0)" xlink:href="#bv"/><use transform="matrix(0.04938271604938272,0,0,0.04938271604938272,13.827160493827162,0)" xlink:href="#aQ"/><use transform="matrix(0.04938271604938272,0,0,0.04938271604938272,20.74074074074074,0)" xlink:href="#aT"/><use transform="matrix(0.04938271604938272,0,0,0.04938271604938272,31.555555555555557,0)" xlink:href="#aP"/><use transform="matrix(0.04938271604938272,0,0,0.04938271604938272,41.4320987654321,0)" xlink:href="#aQ"/></g><g id="H"><use transform="matrix(0.04938271604938272,0,0,0.04938271604938272,0,0)" xlink:href="#aW"/><use transform="matrix(0.04938271604938272,0,0,0.04938271604938272,9.876543209876544,0)" xlink:href="#aQ"/><use transform="matrix(0.04938271604938272,0,0,0.04938271604938272,16.790123456790127,0)" xlink:href="#aP"/><use transform="matrix(0.04938271604938272,0,0,0.04938271604938272,26.666666666666668,0)" xlink:href="#aU"/><use transform="matrix(0.04938271604938272,0,0,0.04938271604938272,36.543209876543216,0)" xlink:href="#aM"/><use transform="matrix(0.04938271604938272,0,0,0.04938271604938272,42.41975308641976,0)" xlink:href="#aP"/><use transform="matrix(0.04938271604938272,0,0,0.04938271604938272,52.2962962962963,0)" xlink:href="#aT"/></g><g id="I"><use transform="matrix(0.04938271604938272,0,0,0.04938271604938272,0,0)" xlink:href="#aU"/><use transform="matrix(0.04938271604938272,0,0,0.04938271604938272,9.876543209876544,0)" xlink:href="#aV"/><use transform="matrix(0.04938271604938272,0,0,0.04938271604938272,20.69135802469136,0)" xlink:href="#aT"/></g><g id="J"><use transform="matrix(0.04938271604938272,0,0,0.04938271604938272,0,0)" xlink:href="#aX"/><use transform="matrix(0.04938271604938272,0,0,0.04938271604938272,10.814814814814815,0)" xlink:href="#aU"/><use transform="matrix(0.04938271604938272,0,0,0.04938271604938272,20.69135802469136,0)" xlink:href="#aY"/><use transform="matrix(0.04938271604938272,0,0,0.04938271604938272,30.567901234567906,0)" xlink:href="#aO"/><use transform="matrix(0.04938271604938272,0,0,0.04938271604938272,46.370370370370374,0)" xlink:href="#aP"/><use transform="matrix(0.04938271604938272,0,0,0.04938271604938272,56.24691358024692,0)" xlink:href="#aV"/><use transform="matrix(0.04938271604938272,0,0,0.04938271604938272,67.06172839506173,0)" xlink:href="#aM"/></g><g id="K"><use transform="matrix(0.04938271604938272,0,0,0.04938271604938272,0,0)" xlink:href="#aM"/><use transform="matrix(0.04938271604938272,0,0,0.04938271604938272,5.8765432098765435,0)" xlink:href="#aU"/><use transform="matrix(0.04938271604938272,0,0,0.04938271604938272,15.753086419753087,0)" xlink:href="#bp"/><use transform="matrix(0.04938271604938272,0,0,0.04938271604938272,25.629629629629633,0)" xlink:href="#aP"/><use transform="matrix(0.04938271604938272,0,0,0.04938271604938272,35.50617283950618,0)" xlink:href="#aV"/></g><path fill="#333" d="M128-127c34 4 56 21 59 58 7 91-148 94-172 28-4-9-6-17-7-26l51-5c1 24 16 35 40 36 23 0 39-12 38-36-1-31-31-36-65-34v-40c32 2 59-3 59-33 0-20-13-33-34-33s-33 13-35 32l-50-3c6-44 37-68 86-68 50 0 83 20 83 66 0 35-22 52-53 58" id="bw"/><g id="L"><use transform="matrix(0.04938271604938272,0,0,0.04938271604938272,0,0)" xlink:href="#bw"/><use transform="matrix(0.04938271604938272,0,0,0.04938271604938272,9.876543209876544,0)" xlink:href="#aI"/></g><g id="M"><use transform="matrix(0.04938271604938272,0,0,0.04938271604938272,0,0)" xlink:href="#aW"/><use transform="matrix(0.04938271604938272,0,0,0.04938271604938272,9.876543209876544,0)" xlink:href="#aQ"/><use transform="matrix(0.04938271604938272,0,0,0.04938271604938272,16.790123456790127,0)" xlink:href="#aP"/><use transform="matrix(0.04938271604938272,0,0,0.04938271604938272,26.666666666666668,0)" xlink:href="#aU"/><use transform="matrix(0.04938271604938272,0,0,0.04938271604938272,36.543209876543216,0)" xlink:href="#aM"/><use transform="matrix(0.04938271604938272,0,0,0.04938271604938272,42.41975308641976,0)" xlink:href="#aP"/><use transform="matrix(0.04938271604938272,0,0,0.04938271604938272,52.2962962962963,0)" xlink:href="#aT"/></g><path fill="#333" d="M128 0H69L1-190h53L99-40l48-150h52" id="bx"/><g id="N"><use transform="matrix(0.04938271604938272,0,0,0.04938271604938272,0,0)" xlink:href="#aP"/><use transform="matrix(0.04938271604938272,0,0,0.04938271604938272,9.876543209876544,0)" xlink:href="#bx"/><use transform="matrix(0.04938271604938272,0,0,0.04938271604938272,19.75308641975309,0)" xlink:href="#aP"/><use transform="matrix(0.04938271604938272,0,0,0.04938271604938272,29.629629629629633,0)" xlink:href="#aV"/><use transform="matrix(0.04938271604938272,0,0,0.04938271604938272,40.44444444444445,0)" xlink:href="#aM"/></g><path fill="#333" d="M25 0v-261h50V0H25" id="by"/><g id="O"><use transform="matrix(0.04938271604938272,0,0,0.04938271604938272,0,0)" xlink:href="#aX"/><use transform="matrix(0.04938271604938272,0,0,0.04938271604938272,10.814814814814815,0)" xlink:href="#aK"/><use transform="matrix(0.04938271604938272,0,0,0.04938271604938272,21.62962962962963,0)" xlink:href="#aR"/><use transform="matrix(0.04938271604938272,0,0,0.04938271604938272,32.44444444444444,0)" xlink:href="#by"/><use transform="matrix(0.04938271604938272,0,0,0.04938271604938272,37.382716049382715,0)" xlink:href="#aS"/><use transform="matrix(0.04938271604938272,0,0,0.04938271604938272,42.32098765432099,0)" xlink:href="#aL"/><use transform="matrix(0.04938271604938272,0,0,0.04938271604938272,52.19753086419754,0)" xlink:href="#bo"/><use transform="matrix(0.04938271604938272,0,0,0.04938271604938272,63.01234567901235,0)" xlink:href="#aP"/><use transform="matrix(0.04938271604938272,0,0,0.04938271604938272,72.88888888888889,0)" xlink:href="#aT"/></g><path fill="#333" d="M165-50V0h-47v-50H5v-38l105-160h55v161h33v37h-33zm-47-37l2-116L46-87h72" id="bz"/><g id="P"><use transform="matrix(0.04938271604938272,0,0,0.04938271604938272,0,0)" xlink:href="#bz"/><use transform="matrix(0.04938271604938272,0,0,0.04938271604938272,9.876543209876544,0)" xlink:href="#aI"/></g><path fill="#333" d="M169-182c-1-43-94-46-97-3 18 66 151 10 154 114 3 95-165 93-204 36-6-8-10-19-12-30l50-8c3 46 112 56 116 5-17-69-150-10-154-114-4-87 153-88 188-35 5 8 8 18 10 28" id="bA"/><g id="Q"><use transform="matrix(0.04938271604938272,0,0,0.04938271604938272,0,0)" xlink:href="#bA"/><use transform="matrix(0.04938271604938272,0,0,0.04938271604938272,11.851851851851853,0)" xlink:href="#aK"/><use transform="matrix(0.04938271604938272,0,0,0.04938271604938272,22.666666666666668,0)" xlink:href="#aR"/><use transform="matrix(0.04938271604938272,0,0,0.04938271604938272,33.48148148148148,0)" xlink:href="#aL"/><use transform="matrix(0.04938271604938272,0,0,0.04938271604938272,43.358024691358025,0)" xlink:href="#aW"/><use transform="matrix(0.04938271604938272,0,0,0.04938271604938272,53.23456790123457,0)" xlink:href="#aQ"/><use transform="matrix(0.04938271604938272,0,0,0.04938271604938272,60.14814814814815,0)" xlink:href="#aS"/><use transform="matrix(0.04938271604938272,0,0,0.04938271604938272,65.08641975308643,0)" xlink:href="#aR"/><use transform="matrix(0.04938271604938272,0,0,0.04938271604938272,75.90123456790124,0)" xlink:href="#aP"/><use transform="matrix(0.04938271604938272,0,0,0.04938271604938272,85.77777777777779,0)" xlink:href="#aL"/></g><path fill="#333" d="M115-159c48 0 72 30 72 78 0 54-30 85-83 85-64 0-91-50-91-122 0-98 58-163 141-120 15 8 21 24 27 44l-47 6c-5-31-48-31-61-4-7 14-11 33-11 60 9-17 28-27 53-27zM102-35c24 0 36-20 36-45s-11-43-37-43c-23 0-36 14-36 38 0 27 11 50 37 50" id="bB"/><g id="R"><use transform="matrix(0.04938271604938272,0,0,0.04938271604938272,0,0)" xlink:href="#bB"/><use transform="matrix(0.04938271604938272,0,0,0.04938271604938272,9.876543209876544,0)" xlink:href="#aI"/></g><g id="S"><use transform="matrix(0.04938271604938272,0,0,0.04938271604938272,0,0)" xlink:href="#bA"/><use transform="matrix(0.04938271604938272,0,0,0.04938271604938272,11.851851851851853,0)" xlink:href="#aM"/><use transform="matrix(0.04938271604938272,0,0,0.04938271604938272,17.728395061728396,0)" xlink:href="#aN"/><use transform="matrix(0.04938271604938272,0,0,0.04938271604938272,28.543209876543205,0)" xlink:href="#aW"/><use transform="matrix(0.04938271604938272,0,0,0.04938271604938272,38.41975308641975,0)" xlink:href="#bp"/></g><g id="T"><use transform="matrix(0.04938271604938272,0,0,0.04938271604938272,0,0)" xlink:href="#aK"/><use transform="matrix(0.04938271604938272,0,0,0.04938271604938272,10.814814814814815,0)" xlink:href="#aV"/><use transform="matrix(0.04938271604938272,0,0,0.04938271604938272,21.62962962962963,0)" xlink:href="#aU"/><use transform="matrix(0.04938271604938272,0,0,0.04938271604938272,31.506172839506174,0)" xlink:href="#bx"/><use transform="matrix(0.04938271604938272,0,0,0.04938271604938272,41.38271604938272,0)" xlink:href="#aU"/><use transform="matrix(0.04938271604938272,0,0,0.04938271604938272,51.25925925925927,0)" xlink:href="#aS"/><use transform="matrix(0.04938271604938272,0,0,0.04938271604938272,56.19753086419754,0)" xlink:href="#by"/><use transform="matrix(0.04938271604938272,0,0,0.04938271604938272,61.13580246913581,0)" xlink:href="#aU"/><use transform="matrix(0.04938271604938272,0,0,0.04938271604938272,71.01234567901236,0)" xlink:href="#aR"/><use transform="matrix(0.04938271604938272,0,0,0.04938271604938272,81.82716049382717,0)" xlink:href="#by"/><use transform="matrix(0.04938271604938272,0,0,0.04938271604938272,86.76543209876544,0)" xlink:href="#aP"/></g><g id="U"><use transform="matrix(0.04938271604938272,0,0,0.04938271604938272,0,0)" xlink:href="#aP"/><use transform="matrix(0.04938271604938272,0,0,0.04938271604938272,9.876543209876544,0)" xlink:href="#aQ"/><use transform="matrix(0.04938271604938272,0,0,0.04938271604938272,16.790123456790127,0)" xlink:href="#aQ"/><use transform="matrix(0.04938271604938272,0,0,0.04938271604938272,23.70370370370371,0)" xlink:href="#aN"/><use transform="matrix(0.04938271604938272,0,0,0.04938271604938272,34.518518518518526,0)" xlink:href="#aQ"/></g><path fill="#333" d="M52 0c1-96 47-148 87-207H15v-41h169v40c-36 62-79 113-81 208H52" id="bC"/><g id="V"><use transform="matrix(0.04938271604938272,0,0,0.04938271604938272,0,0)" xlink:href="#bC"/><use transform="matrix(0.04938271604938272,0,0,0.04938271604938272,9.876543209876544,0)" xlink:href="#aI"/></g><path fill="#333" d="M99-251c69 0 84 53 88 123 5 99-61 162-144 118-15-8-21-25-26-45l46-6c4 31 50 33 63 7 7-15 12-36 12-60-9 18-29 28-54 28-48 0-72-32-72-82 0-55 31-83 87-83zm-1 128c24 0 37-16 37-39 0-27-10-51-37-51-25 0-35 19-35 45 0 25 10 45 35 45" id="bD"/><g id="W"><use transform="matrix(0.04938271604938272,0,0,0.04938271604938272,0,0)" xlink:href="#bD"/><use transform="matrix(0.04938271604938272,0,0,0.04938271604938272,9.876543209876544,0)" xlink:href="#aI"/></g><path fill="#333" d="M240-174c0 40-23 61-54 70L253 0h-59l-57-94H76V0H24v-248c93 4 217-23 216 74zM76-134c48-2 112 12 112-38 0-48-66-32-112-35v73" id="bE"/><path fill="#333" d="M121-226c-27-7-43 5-38 36h38v33H83V0H34v-157H6v-33h28c-9-59 32-81 87-68v32" id="bF"/><g id="X"><use transform="matrix(0.04938271604938272,0,0,0.04938271604938272,0,0)" xlink:href="#bE"/><use transform="matrix(0.04938271604938272,0,0,0.04938271604938272,12.790123456790125,0)" xlink:href="#aP"/><use transform="matrix(0.04938271604938272,0,0,0.04938271604938272,22.66666666666667,0)" xlink:href="#bF"/><use transform="matrix(0.04938271604938272,0,0,0.04938271604938272,28.54320987654322,0)" xlink:href="#aK"/><use transform="matrix(0.04938271604938272,0,0,0.04938271604938272,39.35802469135803,0)" xlink:href="#aV"/><use transform="matrix(0.04938271604938272,0,0,0.04938271604938272,50.17283950617285,0)" xlink:href="#aT"/><use transform="matrix(0.04938271604938272,0,0,0.04938271604938272,60.98765432098767,0)" xlink:href="#aL"/></g><g id="Y"><use transform="matrix(0.04938271604938272,0,0,0.04938271604938272,0,0)" xlink:href="#aV"/><use transform="matrix(0.04938271604938272,0,0,0.04938271604938272,10.814814814814815,0)" xlink:href="#aN"/><use transform="matrix(0.04938271604938272,0,0,0.04938271604938272,21.62962962962963,0)" xlink:href="#aM"/><use transform="matrix(0.04938271604938272,0,0,0.04938271604938272,27.506172839506174,0)" xlink:href="#aS"/><use transform="matrix(0.04938271604938272,0,0,0.04938271604938272,32.44444444444444,0)" xlink:href="#bF"/><use transform="matrix(0.04938271604938272,0,0,0.04938271604938272,38.32098765432099,0)" xlink:href="#aS"/><use transform="matrix(0.04938271604938272,0,0,0.04938271604938272,43.25925925925926,0)" xlink:href="#aP"/><use transform="matrix(0.04938271604938272,0,0,0.04938271604938272,53.135802469135804,0)" xlink:href="#aL"/></g><g id="aa"><use transform="matrix(0.04938271604938272,0,0,0.04938271604938272,0,0)" xlink:href="#aW"/><use transform="matrix(0.04938271604938272,0,0,0.04938271604938272,9.876543209876544,0)" xlink:href="#aK"/><use transform="matrix(0.04938271604938272,0,0,0.04938271604938272,20.69135802469136,0)" xlink:href="#aL"/><use transform="matrix(0.04938271604938272,0,0,0.04938271604938272,30.567901234567906,0)" xlink:href="#aM"/><use transform="matrix(0.04938271604938272,0,0,0.04938271604938272,36.44444444444445,0)" xlink:href="#aN"/><use transform="matrix(0.04938271604938272,0,0,0.04938271604938272,47.25925925925927,0)" xlink:href="#aO"/><use transform="matrix(0.04938271604938272,0,0,0.04938271604938272,63.061728395061735,0)" xlink:href="#aP"/><use transform="matrix(0.04938271604938272,0,0,0.04938271604938272,72.93827160493828,0)" xlink:href="#aQ"/></g><path fill="#333" d="M138-131c27 9 52 24 51 61 0 53-36 74-89 74S11-19 11-69c0-35 22-54 51-61-78-25-46-121 38-121 51 0 83 19 83 66 0 30-18 49-45 54zm-38-16c24 0 32-13 32-36 1-23-11-34-32-34-22 0-33 12-32 34 0 22 9 36 32 36zm1 116c27 0 37-17 37-43 0-25-13-39-39-39-24 0-37 15-37 40 0 27 11 42 39 42" id="bG"/><g id="ab"><use transform="matrix(0.04938271604938272,0,0,0.04938271604938272,0,0)" xlink:href="#bG"/><use transform="matrix(0.04938271604938272,0,0,0.04938271604938272,9.876543209876544,0)" xlink:href="#aI"/></g><g id="ac"><use transform="matrix(0.04938271604938272,0,0,0.04938271604938272,0,0)" xlink:href="#aJ"/><use transform="matrix(0.04938271604938272,0,0,0.04938271604938272,12.790123456790125,0)" xlink:href="#aU"/><use transform="matrix(0.04938271604938272,0,0,0.04938271604938272,22.66666666666667,0)" xlink:href="#aV"/><use transform="matrix(0.04938271604938272,0,0,0.04938271604938272,33.48148148148149,0)" xlink:href="#aW"/><use transform="matrix(0.04938271604938272,0,0,0.04938271604938272,43.35802469135803,0)" xlink:href="#aP"/><use transform="matrix(0.04938271604938272,0,0,0.04938271604938272,53.23456790123457,0)" xlink:href="#by"/><use transform="matrix(0.04938271604938272,0,0,0.04938271604938272,58.17283950617284,0)" xlink:href="#aL"/></g><g id="ad"><use transform="matrix(0.04938271604938272,0,0,0.04938271604938272,0,0)" xlink:href="#bq"/><use transform="matrix(0.04938271604938272,0,0,0.04938271604938272,4.938271604938272,0)" xlink:href="#aQ"/><use transform="matrix(0.04938271604938272,0,0,0.04938271604938272,11.851851851851853,0)" xlink:href="#aP"/><use transform="matrix(0.04938271604938272,0,0,0.04938271604938272,21.7283950617284,0)" xlink:href="#bF"/><use transform="matrix(0.04938271604938272,0,0,0.04938271604938272,27.604938271604947,0)" xlink:href="#aK"/><use transform="matrix(0.04938271604938272,0,0,0.04938271604938272,38.41975308641976,0)" xlink:href="#aV"/><use transform="matrix(0.04938271604938272,0,0,0.04938271604938272,49.23456790123458,0)" xlink:href="#aT"/><use transform="matrix(0.04938271604938272,0,0,0.04938271604938272,60.0493827160494,0)" xlink:href="#aL"/></g><g id="ae"><use transform="matrix(0.04938271604938272,0,0,0.04938271604938272,0,0)" xlink:href="#aN"/><use transform="matrix(0.04938271604938272,0,0,0.04938271604938272,10.814814814814815,0)" xlink:href="#aQ"/><use transform="matrix(0.04938271604938272,0,0,0.04938271604938272,17.728395061728396,0)" xlink:href="#aT"/><use transform="matrix(0.04938271604938272,0,0,0.04938271604938272,28.543209876543205,0)" xlink:href="#aP"/><use transform="matrix(0.04938271604938272,0,0,0.04938271604938272,38.41975308641975,0)" xlink:href="#aQ"/></g></defs></g></svg>