<svg xmlns="http://www.w3.org/2000/svg" xmlns:xlink="http://www.w3.org/1999/xlink" xmlns:lucid="lucid" width="2079" height="772"><g transform="translate(0 -60)" lucid:page-tab-id="g5cleE3Nyd99"><path d="M0 0h3677.73v1322.83H0z" fill="#fff"/><path d="M100 106a6 6 0 0 1 6-6h148a6 6 0 0 1 6 6v108a6 6 0 0 1-6 6H106a6 6 0 0 1-6-6z" stroke="#5e5e5e" stroke-width="3" fill="#fff"/><use xlink:href="#a" transform="matrix(1,0,0,1,100,100) translate(15.079999999999993 51.9)"/><use xlink:href="#b" transform="matrix(1,0,0,1,100,100) translate(8.904999999999996 73.5)"/><use xlink:href="#c" transform="matrix(1,0,0,1,100,100) translate(54.20499999999999 73.5)"/><path d="M180 222.46v10.08m0 10.07v20.16m0 10.08V293m0 10.06v20.15m0 10.1v20.14m0 10.08v20.15m0 10.07v20.15m0 10.07v20.15m0 10.07v20.14m0 10.08v20.15m0 10.07v20.15m0 10.07v20.15m0 10.07v20.14m0 10.08v20.15m0 10.07v20.15m0 10.07v20.15m0 10.07v20.14m0 10.08v20.15m0 10.08v20.15m0 10.07v20.15m0 10.08v20.15m0 10.07v20.15m0 10.08v20.15m0 10.07v20.15m0 10.08v20.15m0 10.07v20.15m0 10.08v20.15m0 10.07v20.15m0 10.08v20.15m0 10.07V1099" stroke="#5e5e5e" stroke-width="2" fill="none"/><path d="M181 222.5h-2v-1.04h2z" stroke="#5e5e5e" stroke-width=".05" fill="#5e5e5e"/><path d="M180 1098.97v1.03" stroke="#5e5e5e" stroke-width="2" fill="none"/><path d="M340 106a6 6 0 0 1 6-6h148a6 6 0 0 1 6 6v108a6 6 0 0 1-6 6H346a6 6 0 0 1-6-6z" stroke="#5e5e5e" stroke-width="3" fill="#fff"/><use xlink:href="#a" transform="matrix(1,0,0,1,340,100) translate(15.079999999999993 40.65)"/><use xlink:href="#d" transform="matrix(1,0,0,1,340,100) translate(25.654999999999987 62.25)"/><use xlink:href="#e" transform="matrix(1,0,0,1,340,100) translate(41.57999999999999 83.85000000000001)"/><path d="M420 222.46v10.08m0 10.07v20.16m0 10.08V293m0 10.06v20.15m0 10.1v20.14m0 10.08v20.15m0 10.07v20.15m0 10.07v20.15m0 10.07v20.14m0 10.08v20.15m0 10.07v20.15m0 10.07v20.15m0 10.07v20.14m0 10.08v20.15m0 10.07v20.15m0 10.07v20.15m0 10.07v20.14m0 10.08v20.15m0 10.08v20.15m0 10.07v20.15m0 10.08v20.15m0 10.07v20.15m0 10.08v20.15m0 10.07v20.15m0 10.08v20.15m0 10.07v20.15m0 10.08v20.15m0 10.07v20.15m0 10.08v20.15m0 10.07V1099" stroke="#5e5e5e" stroke-width="2" fill="none"/><path d="M421 222.5h-2v-1.04h2z" stroke="#5e5e5e" stroke-width=".05" fill="#5e5e5e"/><path d="M420 1098.97v1.03" stroke="#5e5e5e" stroke-width="2" fill="none"/><path d="M560 106a6 6 0 0 1 6-6h148a6 6 0 0 1 6 6v108a6 6 0 0 1-6 6H566a6 6 0 0 1-6-6z" stroke="#5e5e5e" stroke-width="3" fill="#fff"/><use xlink:href="#a" transform="matrix(1,0,0,1,560,100) translate(15.079999999999993 51.9)"/><use xlink:href="#f" transform="matrix(1,0,0,1,560,100) translate(27.10499999999999 73.5)"/><path d="M640 222.46v10.08m0 10.07v20.16m0 10.08V293m0 10.06v20.15m0 10.1v20.14m0 10.08v20.15m0 10.07v20.15m0 10.07v20.15m0 10.07v20.14m0 10.08v20.15m0 10.07v20.15m0 10.07v20.15m0 10.07v20.14m0 10.08v20.15m0 10.07v20.15m0 10.07v20.15m0 10.07v20.14m0 10.08v20.15m0 10.08v20.15m0 10.07v20.15m0 10.08v20.15m0 10.07v20.15m0 10.08v20.15m0 10.07v20.15m0 10.08v20.15m0 10.07v20.15m0 10.08v20.15m0 10.07v20.15m0 10.08v20.15m0 10.07V1099" stroke="#5e5e5e" stroke-width="2" fill="none"/><path d="M641 222.5h-2v-1.04h2z" stroke="#5e5e5e" stroke-width=".05" fill="#5e5e5e"/><path d="M640 1098.97v1.03" stroke="#5e5e5e" stroke-width="2" fill="none"/><path d="M800 106a6 6 0 0 1 6-6h148a6 6 0 0 1 6 6v108a6 6 0 0 1-6 6H806a6 6 0 0 1-6-6z" stroke="#5e5e5e" stroke-width="3" fill="#fff"/><use xlink:href="#g" transform="matrix(1,0,0,1,800,100) translate(6.079999999999993 51.9)"/><use xlink:href="#h" transform="matrix(1,0,0,1,800,100) translate(20.62999999999999 73.5)"/><path d="M880 222.46v10.08m0 10.07v20.16m0 10.08V293m0 10.06v20.15m0 10.1v20.14m0 10.08v20.15m0 10.07v20.15m0 10.07v20.15m0 10.07v20.14m0 10.08v20.15m0 10.07v20.15m0 10.07v20.15m0 10.07v20.14m0 10.08v20.15m0 10.07v20.15m0 10.07v20.15m0 10.07v20.14m0 10.08v20.15m0 10.08v20.15m0 10.07v20.15m0 10.08v20.15m0 10.07v20.15m0 10.08v20.15m0 10.07v20.15m0 10.08v20.15m0 10.07v20.15m0 10.08v20.15m0 10.07v20.15m0 10.08v20.15m0 10.07V1099" stroke="#5e5e5e" stroke-width="2" fill="none"/><path d="M881 222.5h-2v-1.04h2z" stroke="#5e5e5e" stroke-width=".05" fill="#5e5e5e"/><path d="M880 1098.97v1.03" stroke="#5e5e5e" stroke-width="2" fill="none"/><path d="M1020 106a6 6 0 0 1 6-6h148a6 6 0 0 1 6 6v108a6 6 0 0 1-6 6h-148a6 6 0 0 1-6-6z" stroke="#5e5e5e" stroke-width="3" fill="#fff"/><use xlink:href="#a" transform="matrix(1,0,0,1,1020,100) translate(15.079999999999993 29.4)"/><use xlink:href="#i" transform="matrix(1,0,0,1,1020,100) translate(57.055 51)"/><use xlink:href="#j" transform="matrix(1,0,0,1,1020,100) translate(38.57999999999999 72.60000000000001)"/><use xlink:href="#k" transform="matrix(1,0,0,1,1020,100) translate(48.57999999999999 94.20000000000002)"/><path d="M1100 222.46v10.08m0 10.07v20.16m0 10.08V293m0 10.06v20.15m0 10.1v20.14m0 10.08v20.15m0 10.07v20.15m0 10.07v20.15m0 10.07v20.14m0 10.08v20.15m0 10.07v20.15m0 10.07v20.15m0 10.07v20.14m0 10.08v20.15m0 10.07v20.15m0 10.07v20.15m0 10.07v20.14m0 10.08v20.15m0 10.08v20.15m0 10.07v20.15m0 10.08v20.15m0 10.07v20.15m0 10.08v20.15m0 10.07v20.15m0 10.08v20.15m0 10.07v20.15m0 10.08v20.15m0 10.07v20.15m0 10.08v20.15m0 10.07V1099" stroke="#5e5e5e" stroke-width="2" fill="none"/><path d="M1101 222.5h-2v-1.04h2z" stroke="#5e5e5e" stroke-width=".05" fill="#5e5e5e"/><path d="M1100 1098.97v1.03" stroke="#5e5e5e" stroke-width="2" fill="none"/><path d="M1660 106a6 6 0 0 1 6-6h148a6 6 0 0 1 6 6v108a6 6 0 0 1-6 6h-148a6 6 0 0 1-6-6z" stroke="#5e5e5e" stroke-width="3" fill="#fff"/><use xlink:href="#g" transform="matrix(1,0,0,1,1660,99.99848388289593) translate(6.079999999999993 51.9)"/><use xlink:href="#l" transform="matrix(1,0,0,1,1660,99.99848388289593) translate(31.054999999999993 73.5)"/><path d="M1740 222.46v10.08m0 10.07v20.16m0 10.08V293m0 10.06v20.15m0 10.1v20.14m0 10.07v20.16m0 10.08v20.15m0 10.06v20.16m0 10.07v20.14m0 10.08v20.15m0 10.07v20.15m0 10.07v20.15m0 10.07v20.14m0 10.08v20.15m0 10.07v20.15m0 10.07v20.15m0 10.07v20.14m0 10.08v20.15m0 10.07v20.16m0 10.07v20.15m0 10.08v20.15m0 10.07v20.15m0 10.08v20.15m0 10.07v20.15m0 10.08v20.15m0 10.07v20.15m0 10.08v20.15m0 10.07v20.15m0 10.08v20.15m0 10.07V1099" stroke="#5e5e5e" stroke-width="2" fill="none"/><path d="M1741 222.5h-2v-1.04h2z" stroke="#5e5e5e" stroke-width=".05" fill="#5e5e5e"/><path d="M1740 1098.97v1.03" stroke="#5e5e5e" stroke-width="2" fill="none"/><path d="M160 266a6 6 0 0 1 6-6h28a6 6 0 0 1 6 6v108a6 6 0 0 1-6 6h-28a6 6 0 0 1-6-6z" stroke="#5e5e5e" stroke-width="3" fill="#fff"/><path d="M51 300h89.02" stroke="#5e5e5e" stroke-width="2" fill="none"/><path d="M51 300.14l-1.03-.14h-.04l-.93.12v-1.14h2z" stroke="#5e5e5e" stroke-width=".05" fill="#5e5e5e"/><path d="M155.3 300L141 304.64v-9.28z" stroke="#5e5e5e" stroke-width="2" fill="#5e5e5e"/><use xlink:href="#m" transform="matrix(1,0,0,1,40.461328989449235,274.66666666666663) translate(0 14.222222222222223)"/><path d="M400 286a6 6 0 0 1 6-6h28a6 6 0 0 1 6 6v88a6 6 0 0 1-6 6h-28a6 6 0 0 1-6-6z" stroke="#5e5e5e" stroke-width="3" fill="#fff"/><path d="M202.46 320h177.56" stroke="#5e5e5e" stroke-width="2" fill="none"/><path d="M202.5 321h-1.04v-2h1.03z" stroke="#5e5e5e" stroke-width=".05" fill="#5e5e5e"/><path d="M395.3 320l-14.27 4.63v-9.27z" stroke="#5e5e5e" stroke-width="2" fill="#5e5e5e"/><use xlink:href="#n" transform="matrix(1,0,0,1,262.0944425835954,294.6627744087341) translate(0 14.222222222222223)"/><path d="M620 306a6 6 0 0 1 6-6h28a6 6 0 0 1 6 6v328a6 6 0 0 1-6 6h-28a6 6 0 0 1-6-6z" stroke="#5e5e5e" stroke-width="3" fill="#fff"/><path d="M442.46 330h87.46a.07.07 0 0 0 .06-.07.07.07 0 0 1 .07-.07H600" stroke="#5e5e5e" stroke-width="2" fill="none"/><path d="M442.5 331h-1.04v-2h1.03z" stroke="#5e5e5e" stroke-width=".05" fill="#5e5e5e"/><path d="M615.27 329.86L601 334.5v-9.27z" stroke="#5e5e5e" stroke-width="2" fill="#5e5e5e"/><use xlink:href="#o" transform="matrix(1,0,0,1,467.41353039243904,304.5287469546401) translate(0 14.222222222222223)"/><path d="M860 326a6 6 0 0 1 6-6h28a6 6 0 0 1 6 6v88a6 6 0 0 1-6 6h-28a6 6 0 0 1-6-6z" stroke="#5e5e5e" stroke-width="3" fill="#fff"/><path d="M662.44 360.28h97.4a.14.14 0 0 0 .14-.14.14.14 0 0 1 .14-.14h79.9" stroke="#5e5e5e" stroke-width="2" fill="none"/><path d="M662.46 361.28h-1.02v-2h1.02z" stroke="#5e5e5e" stroke-width=".05" fill="#5e5e5e"/><path d="M855.3 360l-14.27 4.64v-9.27z" stroke="#5e5e5e" stroke-width="2" fill="#5e5e5e"/><use xlink:href="#p" transform="matrix(1,0,0,1,735.4028237043318,334.67144243579463) translate(0 14.222222222222223)"/><path d="M1720 546a6 6 0 0 1 6-6h28a6 6 0 0 1 6 6v68a6 6 0 0 1-6 6h-28a6 6 0 0 1-6-6z" stroke="#5e5e5e" stroke-width="3" fill="#fff"/><path d="M902.47 380H1918.55" stroke="#5e5e5e" stroke-width="2" fill="none"/><path d="M902.5 381h-1.03v-2h1.03z" stroke="#5e5e5e" stroke-width=".05" fill="#5e5e5e"/><path d="M1933.8 380l-14.25 4.64v-9.27z" stroke="#5e5e5e" stroke-width="2" fill="#5e5e5e"/><use xlink:href="#q" transform="matrix(1,0,0,1,1400.5692234729843,354.67057582221037) translate(0 14.222222222222223)"/><path d="M1080 446a6 6 0 0 1 6-6h28a6 6 0 0 1 6 6v168a6 6 0 0 1-6 6h-28a6 6 0 0 1-6-6z" stroke="#5e5e5e" stroke-width="3" fill="#fff"/><path d="M662.46 463.46h207.52v-.02h190.03" stroke="#5e5e5e" stroke-width="2" fill="none"/><path d="M662.5 464.46h-1.04v-2h1.03z" stroke="#5e5e5e" stroke-width=".05" fill="#5e5e5e"/><path d="M1075.27 463.44l-14.26 4.63v-9.27z" stroke="#5e5e5e" stroke-width="2" fill="#5e5e5e"/><use xlink:href="#r" transform="matrix(1,0,0,1,740.4042068380866,438.106054436888) translate(0 14.222222222222223)"/><path d="M1240 106a6 6 0 0 1 6-6h148a6 6 0 0 1 6 6v108a6 6 0 0 1-6 6h-148a6 6 0 0 1-6-6z" stroke="#5e5e5e" stroke-width="3" fill="#fff"/><use xlink:href="#g" transform="matrix(1,0,0,1,1240,100) translate(6.079999999999993 51.9)"/><use xlink:href="#s" transform="matrix(1,0,0,1,1240,100) translate(14.130000000000004 73.5)"/><path d="M1320 222.46v10.08m0 10.07v20.16m0 10.08V293m0 10.06v20.15m0 10.1v20.14m0 10.08v20.15m0 10.07v20.15m0 10.07v20.15m0 10.07v20.14m0 10.08v20.15m0 10.07v20.15m0 10.07v20.15m0 10.07v20.14m0 10.08v20.15m0 10.07v20.15m0 10.07v20.15m0 10.08v20.15m0 10.07v20.15m0 10.08v20.15m0 10.07v20.15m0 10.08v20.15m0 10.07v20.15m0 10.08v20.15m0 10.07v20.15m0 10.08v20.15m0 10.07v20.15m0 10.08v20.15m0 10.08v20.15m0 10.07v20.15m0 10.08V1099" stroke="#5e5e5e" stroke-width="2" fill="none"/><path d="M1321 222.5h-2v-1.04h2z" stroke="#5e5e5e" stroke-width=".05" fill="#5e5e5e"/><path d="M1320 1098.98v1.02" stroke="#5e5e5e" stroke-width="2" fill="none"/><path d="M1450 106a6 6 0 0 1 6-6h148a6 6 0 0 1 6 6v108a6 6 0 0 1-6 6h-148a6 6 0 0 1-6-6z" stroke="#5e5e5e" stroke-width="3" fill="#fff"/><use xlink:href="#g" transform="matrix(1,0,0,1,1450,100) translate(6.079999999999993 51.9)"/><use xlink:href="#t" transform="matrix(1,0,0,1,1450,100) translate(34.07999999999999 73.5)"/><path d="M1530 222.46v10.08m0 10.07v20.16m0 10.08V293m0 10.06v20.15m0 10.1v20.14m0 10.08v20.15m0 10.07v20.15m0 10.07v20.15m0 10.07v20.14m0 10.08v20.15m0 10.07v20.15m0 10.07v20.15m0 10.07v20.14m0 10.08v20.15m0 10.07v20.15m0 10.07v20.15m0 10.08v20.15m0 10.07v20.15m0 10.08v20.15m0 10.07v20.15m0 10.08v20.15m0 10.07v20.15m0 10.08v20.15m0 10.07v20.15m0 10.08v20.15m0 10.07v20.15m0 10.08v20.15m0 10.08v20.15m0 10.07v20.15m0 10.08V1099" stroke="#5e5e5e" stroke-width="2" fill="none"/><path d="M1531 222.5h-2v-1.04h2z" stroke="#5e5e5e" stroke-width=".05" fill="#5e5e5e"/><path d="M1530 1098.98v1.02" stroke="#5e5e5e" stroke-width="2" fill="none"/><path d="M1510 476a6 6 0 0 1 6-6h28a6 6 0 0 1 6 6v48a6 6 0 0 1-6 6h-28a6 6 0 0 1-6-6zM1300 466a6 6 0 0 1 6-6h28a6 6 0 0 1 6 6v48a6 6 0 0 1-6 6h-28a6 6 0 0 1-6-6z" stroke="#5e5e5e" stroke-width="3" fill="#fff"/><path d="M1122.44 479.75h87.53a.02.02 0 0 0 0-.02.02.02 0 0 1 .03-.02h70.02" stroke="#5e5e5e" stroke-width="2" fill="none"/><path d="M1122.47 480.75h-1.03v-2h1.03z" stroke="#5e5e5e" stroke-width=".05" fill="#5e5e5e"/><path d="M1295.28 479.7l-14.26 4.65v-9.27z" stroke="#5e5e5e" stroke-width="2" fill="#5e5e5e"/><use xlink:href="#u" transform="matrix(1,0,0,1,1153.7827089552243,454.38076534544604) translate(0 14.222222222222223)"/><path d="M1878.53 106a6 6 0 0 1 6-6h148a6 6 0 0 1 6 6v108a6 6 0 0 1-6 6h-148a6 6 0 0 1-6-6z" stroke="#5e5e5e" stroke-width="3" fill="#fff"/><use xlink:href="#v" transform="matrix(1,0,0,1,1878.5282682066065,99.99848388289593) translate(26.054999999999993 51.9)"/><use xlink:href="#w" transform="matrix(1,0,0,1,1878.5282682066065,99.99848388289593) translate(56.555 73.5)"/><path d="M1958.53 222.46v10.08m0 10.07v20.16m0 10.08V293m0 10.06v20.15m0 10.1v20.14m0 10.07v20.16m0 10.08v20.15m0 10.06v20.16m0 10.07v20.14m0 10.08v20.15m0 10.07v20.15m0 10.07v20.15m0 10.07v20.14m0 10.08v20.15m0 10.07v20.15m0 10.07v20.15m0 10.07v20.14m0 10.08v20.15m0 10.07v20.16m0 10.07v20.15m0 10.08v20.15m0 10.07v20.15m0 10.08v20.15m0 10.07v20.15m0 10.08v20.15m0 10.07v20.15m0 10.08v20.15m0 10.07v20.15m0 10.08v20.15m0 10.07V1099" stroke="#5e5e5e" stroke-width="2" fill="none"/><path d="M1959.53 222.5h-2v-1.04h2z" stroke="#5e5e5e" stroke-width=".05" fill="#5e5e5e"/><path d="M1958.53 1098.97v1.03" stroke="#5e5e5e" stroke-width="2" fill="none"/><path d="M1938.53 366a6 6 0 0 1 6-6h28a6 6 0 0 1 6 6v48a6 6 0 0 1-6 6h-28a6 6 0 0 1-6-6z" stroke="#5e5e5e" stroke-width="3" fill="#fff"/><path d="M1342.46 490H1490" stroke="#5e5e5e" stroke-width="2" fill="none"/><path d="M1342.5 491h-1.03v-2h1.02z" stroke="#5e5e5e" stroke-width=".05" fill="#5e5e5e"/><path d="M1505.28 490l-14.26 4.64v-9.28z" stroke="#5e5e5e" stroke-width="2" fill="#5e5e5e"/><g><use xlink:href="#x" transform="matrix(1,0,0,1,1405.362814474107,464.66666666666663) translate(0 14.222222222222223)"/></g><path d="M1122.48 569.05h297.5l.02-.02h280.02" stroke="#5e5e5e" stroke-width="2" fill="none"/><path d="M1122.5 570.05h-1.02v-2h1.03z" stroke="#5e5e5e" stroke-width=".05" fill="#5e5e5e"/><path d="M1715.3 569.02l-14.28 4.64v-9.27z" stroke="#5e5e5e" stroke-width="2" fill="#5e5e5e"/><g><use xlink:href="#y" transform="matrix(1,0,0,1,1393.4334958008924,543.6875854833239) translate(0 14.222222222222223)"/></g><path d="M49.98 303.58l17.52 13.15v3.55c0 9.3-7.85 16.84-17.52 16.84s-17.5-7.55-17.5-16.84v-3.55zM59.96 341.8c11.1 0 20.04 6.45 20.04 16.95V380H68.48v-14.9H66.5V380H33.86v-14.9h-1.98V380H20v-21.25c0-10.5 8.94-16.96 20.04-16.96z" fill="#7d7c7c"/><path d="M49.97 300c9.6.07 17.3 7.62 17.24 16.84-.06 9.22-7.92 16.63-17.5 16.57-9.53-.06-17.22-7.48-17.25-16.66 0-9.26 7.86-16.74 17.48-16.74h.04zM59.96 338.24c11.1 0 20.04 6.46 20.04 16.96v21.24H68.48V361.5H66.5v14.94H33.86V361.5h-1.98v14.94H20V355.2c0-10.5 8.94-16.96 20.04-16.96z" fill="#d2d3d3"/><g><use xlink:href="#z" transform="matrix(1,0,0,1,20,380) translate(8.425925925925927 17.77777777777778)"/></g><defs><path d="M18-100v-36l175-74v27L42-118l151 64v27" id="A"/><path d="M205 0l-28-72H64L36 0H1l101-248h38L239 0h-34zm-38-99l-47-123c-12 45-31 82-46 123h93" id="B"/><path d="M115-194c55 1 70 41 70 98S169 2 115 4C84 4 66-9 55-30l1 105H24l-1-265h31l2 30c10-21 28-34 59-34zm-8 174c40 0 45-34 45-75s-6-73-45-74c-42 0-51 32-51 76 0 43 10 73 51 73" id="C"/><path d="M24 0v-261h32V0H24" id="D"/><path d="M24-231v-30h32v30H24zM24 0v-190h32V0H24" id="E"/><path d="M96-169c-40 0-48 33-48 73s9 75 48 75c24 0 41-14 43-38l32 2c-6 37-31 61-74 61-59 0-76-41-82-99-10-93 101-131 147-64 4 7 5 14 7 22l-32 3c-4-21-16-35-41-35" id="F"/><path d="M141-36C126-15 110 5 73 4 37 3 15-17 15-53c-1-64 63-63 125-63 3-35-9-54-41-54-24 1-41 7-42 31l-33-3c5-37 33-52 76-52 45 0 72 20 72 64v82c-1 20 7 32 28 27v20c-31 9-61-2-59-35zM48-53c0 20 12 33 32 33 41-3 63-29 60-74-43 2-92-5-92 41" id="G"/><path d="M59-47c-2 24 18 29 38 22v24C64 9 27 4 27-40v-127H5v-23h24l9-43h21v43h35v23H59v120" id="H"/><path d="M100-194c62-1 85 37 85 99 1 63-27 99-86 99S16-35 15-95c0-66 28-99 85-99zM99-20c44 1 53-31 53-75 0-43-8-75-51-75s-53 32-53 75 10 74 51 75" id="I"/><path d="M117-194c89-4 53 116 60 194h-32v-121c0-31-8-49-39-48C34-167 62-67 57 0H25l-1-190h30c1 10-1 24 2 32 11-22 29-35 61-36" id="J"/><path d="M18-27v-27l151-64-151-65v-27l175 74v36" id="K"/><g id="a"><use transform="matrix(0.05,0,0,0.05,0,0)" xlink:href="#A"/><use transform="matrix(0.05,0,0,0.05,10.5,0)" xlink:href="#A"/><use transform="matrix(0.05,0,0,0.05,21,0)" xlink:href="#B"/><use transform="matrix(0.05,0,0,0.05,33,0)" xlink:href="#C"/><use transform="matrix(0.05,0,0,0.05,43,0)" xlink:href="#C"/><use transform="matrix(0.05,0,0,0.05,53,0)" xlink:href="#D"/><use transform="matrix(0.05,0,0,0.05,56.95,0)" xlink:href="#E"/><use transform="matrix(0.05,0,0,0.05,60.900000000000006,0)" xlink:href="#F"/><use transform="matrix(0.05,0,0,0.05,69.9,0)" xlink:href="#G"/><use transform="matrix(0.05,0,0,0.05,79.9,0)" xlink:href="#H"/><use transform="matrix(0.05,0,0,0.05,84.9,0)" xlink:href="#E"/><use transform="matrix(0.05,0,0,0.05,88.85000000000001,0)" xlink:href="#I"/><use transform="matrix(0.05,0,0,0.05,98.85000000000001,0)" xlink:href="#J"/><use transform="matrix(0.05,0,0,0.05,108.85000000000001,0)" xlink:href="#K"/><use transform="matrix(0.05,0,0,0.05,119.35000000000001,0)" xlink:href="#K"/><path d="M-.9 1.25h131.65v1.32H-.9z"/></g><path d="M266 0h-40l-56-210L115 0H75L2-248h35L96-30l15-64 43-154h32l59 218 59-218h35" id="L"/><path d="M185-189c-5-48-123-54-124 2 14 75 158 14 163 119 3 78-121 87-175 55-17-10-28-26-33-46l33-7c5 56 141 63 141-1 0-78-155-14-162-118-5-82 145-84 179-34 5 7 8 16 11 25" id="M"/><g id="b"><use transform="matrix(0.05,0,0,0.05,0,0)" xlink:href="#B"/><use transform="matrix(0.05,0,0,0.05,11.35,0)" xlink:href="#L"/><use transform="matrix(0.05,0,0,0.05,28.299999999999997,0)" xlink:href="#M"/><path d="M-.9 1.25h47.1v1.32H-.9z"/></g><path d="M143 4C61 4 22-44 18-125c-5-107 100-154 193-111 17 8 29 25 37 43l-32 9c-13-25-37-40-76-40-61 0-88 39-88 99 0 61 29 100 91 101 35 0 62-11 79-27v-45h-74v-28h105v86C228-13 192 4 143 4" id="N"/><path d="M100-194c63 0 86 42 84 106H49c0 40 14 67 53 68 26 1 43-12 49-29l28 8c-11 28-37 45-77 45C44 4 14-33 15-96c1-61 26-98 85-98zm52 81c6-60-76-77-97-28-3 7-6 17-6 28h103" id="O"/><path d="M206 0h-36l-40-164L89 0H53L-1-190h32L70-26l43-164h34l41 164 42-164h31" id="P"/><path d="M179-190L93 31C79 59 56 82 12 73V49c39 6 53-20 64-50L1-190h34L92-34l54-156h33" id="Q"/><g id="c"><use transform="matrix(0.05,0,0,0.05,0,0)" xlink:href="#B"/><use transform="matrix(0.05,0,0,0.05,12,0)" xlink:href="#C"/><use transform="matrix(0.05,0,0,0.05,22,0)" xlink:href="#E"/><use transform="matrix(0.05,0,0,0.05,25.950000000000003,0)" xlink:href="#N"/><use transform="matrix(0.05,0,0,0.05,39.95,0)" xlink:href="#G"/><use transform="matrix(0.05,0,0,0.05,49.95,0)" xlink:href="#H"/><use transform="matrix(0.05,0,0,0.05,54.95,0)" xlink:href="#O"/><use transform="matrix(0.05,0,0,0.05,64.95,0)" xlink:href="#P"/><use transform="matrix(0.05,0,0,0.05,77.9,0)" xlink:href="#G"/><use transform="matrix(0.05,0,0,0.05,87.9,0)" xlink:href="#Q"/><path d="M-.9 1.25h98.7v1.32H-.9z"/></g><path d="M212-179c-10-28-35-45-73-45-59 0-87 40-87 99 0 60 29 101 89 101 43 0 62-24 78-52l27 14C228-24 195 4 139 4 59 4 22-46 18-125c-6-104 99-153 187-111 19 9 31 26 39 46" id="R"/><path d="M101-234c-31-9-42 10-38 44h38v23H63V0H32v-167H5v-23h27c-7-52 17-82 69-68v24" id="S"/><path d="M114-163C36-179 61-72 57 0H25l-1-190h30c1 12-1 29 2 39 6-27 23-49 58-41v29" id="T"/><path d="M210-169c-67 3-38 105-44 169h-31v-121c0-29-5-50-35-48C34-165 62-65 56 0H25l-1-190h30c1 10-1 24 2 32 10-44 99-50 107 0 11-21 27-35 58-36 85-2 47 119 55 194h-31v-121c0-29-5-49-35-48" id="U"/><path d="M140-251c81 0 123 46 123 126C263-46 219 4 140 4 59 4 17-45 17-125s42-126 123-126zm0 227c63 0 89-41 89-101s-29-99-89-99c-61 0-89 39-89 99S79-25 140-24" id="V"/><path d="M85-194c31 0 48 13 60 33l-1-100h32l1 261h-30c-2-10 0-23-3-31C134-8 116 4 85 4 32 4 16-35 15-94c0-66 23-100 70-100zm9 24c-40 0-46 34-46 75 0 40 6 74 45 74 42 0 51-32 51-76 0-42-9-74-50-73" id="W"/><g id="d"><use transform="matrix(0.05,0,0,0.05,0,0)" xlink:href="#R"/><use transform="matrix(0.05,0,0,0.05,12.950000000000001,0)" xlink:href="#I"/><use transform="matrix(0.05,0,0,0.05,22.950000000000003,0)" xlink:href="#J"/><use transform="matrix(0.05,0,0,0.05,32.95,0)" xlink:href="#S"/><use transform="matrix(0.05,0,0,0.05,37.95,0)" xlink:href="#E"/><use transform="matrix(0.05,0,0,0.05,41.900000000000006,0)" xlink:href="#T"/><use transform="matrix(0.05,0,0,0.05,47.85000000000001,0)" xlink:href="#U"/><use transform="matrix(0.05,0,0,0.05,62.80000000000001,0)" xlink:href="#V"/><use transform="matrix(0.05,0,0,0.05,76.80000000000001,0)" xlink:href="#T"/><use transform="matrix(0.05,0,0,0.05,82.75000000000001,0)" xlink:href="#W"/><use transform="matrix(0.05,0,0,0.05,92.75000000000001,0)" xlink:href="#O"/><use transform="matrix(0.05,0,0,0.05,102.75,0)" xlink:href="#T"/><path d="M-.9 1.25h110.5v1.32H-.9z"/></g><path d="M87 75C49 33 22-17 22-94c0-76 28-126 65-167h31c-38 41-64 92-64 168S80 34 118 75H87" id="X"/><path d="M30 0v-248h33v221h125V0H30" id="Y"/><path d="M115-194c53 0 69 39 70 98 0 66-23 100-70 100C84 3 66-7 56-30L54 0H23l1-261h32v101c10-23 28-34 59-34zm-8 174c40 0 45-34 45-75 0-40-5-75-45-74-42 0-51 32-51 76 0 43 10 73 51 73" id="Z"/><path d="M33-261c38 41 65 92 65 168S71 34 33 75H2C39 34 66-17 66-93S39-220 2-261h31" id="aa"/><g id="e"><use transform="matrix(0.05,0,0,0.05,0,0)" xlink:href="#X"/><use transform="matrix(0.05,0,0,0.05,5.95,0)" xlink:href="#Y"/><use transform="matrix(0.05,0,0,0.05,15.949999999999998,0)" xlink:href="#G"/><use transform="matrix(0.05,0,0,0.05,25.950000000000003,0)" xlink:href="#U"/><use transform="matrix(0.05,0,0,0.05,40.9,0)" xlink:href="#Z"/><use transform="matrix(0.05,0,0,0.05,50.9,0)" xlink:href="#W"/><use transform="matrix(0.05,0,0,0.05,60.900000000000006,0)" xlink:href="#G"/><use transform="matrix(0.05,0,0,0.05,70.9,0)" xlink:href="#aa"/><path d="M-.9 1.25h78.65v1.32H-.9z"/></g><path d="M108 0H70L1-190h34L89-25l56-165h34" id="ab"/><g id="f"><use transform="matrix(0.05,0,0,0.05,0,0)" xlink:href="#V"/><use transform="matrix(0.05,0,0,0.05,14,0)" xlink:href="#T"/><use transform="matrix(0.05,0,0,0.05,19.95,0)" xlink:href="#W"/><use transform="matrix(0.05,0,0,0.05,29.950000000000003,0)" xlink:href="#O"/><use transform="matrix(0.05,0,0,0.05,39.95,0)" xlink:href="#T"/><use transform="matrix(0.05,0,0,0.05,45.900000000000006,0)" xlink:href="#M"/><use transform="matrix(0.05,0,0,0.05,57.900000000000006,0)" xlink:href="#O"/><use transform="matrix(0.05,0,0,0.05,67.9,0)" xlink:href="#T"/><use transform="matrix(0.05,0,0,0.05,73.85000000000001,0)" xlink:href="#ab"/><use transform="matrix(0.05,0,0,0.05,82.85000000000001,0)" xlink:href="#E"/><use transform="matrix(0.05,0,0,0.05,86.80000000000001,0)" xlink:href="#F"/><use transform="matrix(0.05,0,0,0.05,95.80000000000001,0)" xlink:href="#O"/><path d="M-.9 1.25h107.6v1.32H-.9z"/></g><path d="M33 0v-248h34V0H33" id="ac"/><path d="M135-143c-3-34-86-38-87 0 15 53 115 12 119 90S17 21 10-45l28-5c4 36 97 45 98 0-10-56-113-15-118-90-4-57 82-63 122-42 12 7 21 19 24 35" id="ad"/><path d="M84 4C-5 8 30-112 23-190h32v120c0 31 7 50 39 49 72-2 45-101 50-169h31l1 190h-30c-1-10 1-25-2-33-11 22-28 36-60 37" id="ae"/><g id="g"><use transform="matrix(0.05,0,0,0.05,0,0)" xlink:href="#A"/><use transform="matrix(0.05,0,0,0.05,10.5,0)" xlink:href="#A"/><use transform="matrix(0.05,0,0,0.05,21,0)" xlink:href="#ac"/><use transform="matrix(0.05,0,0,0.05,26,0)" xlink:href="#J"/><use transform="matrix(0.05,0,0,0.05,36,0)" xlink:href="#S"/><use transform="matrix(0.05,0,0,0.05,41,0)" xlink:href="#T"/><use transform="matrix(0.05,0,0,0.05,46.95,0)" xlink:href="#G"/><use transform="matrix(0.05,0,0,0.05,56.95,0)" xlink:href="#ad"/><use transform="matrix(0.05,0,0,0.05,65.95,0)" xlink:href="#H"/><use transform="matrix(0.05,0,0,0.05,70.95,0)" xlink:href="#T"/><use transform="matrix(0.05,0,0,0.05,76.9,0)" xlink:href="#ae"/><use transform="matrix(0.05,0,0,0.05,86.9,0)" xlink:href="#F"/><use transform="matrix(0.05,0,0,0.05,95.9,0)" xlink:href="#H"/><use transform="matrix(0.05,0,0,0.05,100.9,0)" xlink:href="#ae"/><use transform="matrix(0.05,0,0,0.05,110.9,0)" xlink:href="#T"/><use transform="matrix(0.05,0,0,0.05,116.85000000000001,0)" xlink:href="#O"/><use transform="matrix(0.05,0,0,0.05,126.85000000000001,0)" xlink:href="#K"/><use transform="matrix(0.05,0,0,0.05,137.35000000000002,0)" xlink:href="#K"/><path d="M-.9 1.25h149.65v1.32H-.9z"/></g><path d="M233-177c-1 41-23 64-60 70L243 0h-38l-65-103H63V0H30v-248c88 3 205-21 203 71zM63-129c60-2 137 13 137-47 0-61-80-42-137-45v92" id="af"/><g id="h"><use transform="matrix(0.05,0,0,0.05,0,0)" xlink:href="#af"/><use transform="matrix(0.05,0,0,0.05,12.950000000000001,0)" xlink:href="#O"/><use transform="matrix(0.05,0,0,0.05,22.950000000000003,0)" xlink:href="#ad"/><use transform="matrix(0.05,0,0,0.05,31.950000000000003,0)" xlink:href="#H"/><use transform="matrix(0.05,0,0,0.05,36.95,0)" xlink:href="#O"/><use transform="matrix(0.05,0,0,0.05,46.95,0)" xlink:href="#B"/><use transform="matrix(0.05,0,0,0.05,58.95,0)" xlink:href="#C"/><use transform="matrix(0.05,0,0,0.05,68.95,0)" xlink:href="#E"/><use transform="matrix(0.05,0,0,0.05,72.9,0)" xlink:href="#R"/><use transform="matrix(0.05,0,0,0.05,85.85000000000001,0)" xlink:href="#D"/><use transform="matrix(0.05,0,0,0.05,89.80000000000001,0)" xlink:href="#E"/><use transform="matrix(0.05,0,0,0.05,93.75000000000001,0)" xlink:href="#O"/><use transform="matrix(0.05,0,0,0.05,103.75,0)" xlink:href="#J"/><use transform="matrix(0.05,0,0,0.05,113.75,0)" xlink:href="#H"/><path d="M-.9 1.25h120.55v1.32H-.9z"/></g><g id="i"><use transform="matrix(0.05,0,0,0.05,0,0)" xlink:href="#V"/><use transform="matrix(0.05,0,0,0.05,14,0)" xlink:href="#T"/><use transform="matrix(0.05,0,0,0.05,19.95,0)" xlink:href="#W"/><use transform="matrix(0.05,0,0,0.05,29.950000000000003,0)" xlink:href="#O"/><use transform="matrix(0.05,0,0,0.05,39.95,0)" xlink:href="#T"/><path d="M-.9 1.25h47.7v1.32H-.9z"/></g><g id="j"><use transform="matrix(0.05,0,0,0.05,0,0)" xlink:href="#R"/><use transform="matrix(0.05,0,0,0.05,12.950000000000001,0)" xlink:href="#I"/><use transform="matrix(0.05,0,0,0.05,22.950000000000003,0)" xlink:href="#U"/><use transform="matrix(0.05,0,0,0.05,37.900000000000006,0)" xlink:href="#U"/><use transform="matrix(0.05,0,0,0.05,52.85,0)" xlink:href="#G"/><use transform="matrix(0.05,0,0,0.05,62.85,0)" xlink:href="#J"/><use transform="matrix(0.05,0,0,0.05,72.85000000000001,0)" xlink:href="#W"/><path d="M-.9 1.25h84.65v1.32H-.9z"/></g><path d="M197 0v-115H63V0H30v-248h33v105h134v-105h34V0h-34" id="ag"/><g id="k"><use transform="matrix(0.05,0,0,0.05,0,0)" xlink:href="#ag"/><use transform="matrix(0.05,0,0,0.05,12.950000000000001,0)" xlink:href="#G"/><use transform="matrix(0.05,0,0,0.05,22.950000000000003,0)" xlink:href="#J"/><use transform="matrix(0.05,0,0,0.05,32.95,0)" xlink:href="#W"/><use transform="matrix(0.05,0,0,0.05,42.95,0)" xlink:href="#D"/><use transform="matrix(0.05,0,0,0.05,46.900000000000006,0)" xlink:href="#O"/><use transform="matrix(0.05,0,0,0.05,56.900000000000006,0)" xlink:href="#T"/><path d="M-.9 1.25h64.65v1.32H-.9z"/></g><path d="M30 0v-248h187v28H63v79h144v27H63v87h162V0H30" id="ah"/><path d="M160-131c35 5 61 23 61 61C221 17 115-2 30 0v-248c76 3 177-17 177 60 0 33-19 50-47 57zm-97-11c50-1 110 9 110-42 0-47-63-36-110-37v79zm0 115c55-2 124 14 124-45 0-56-70-42-124-44v89" id="ai"/><path d="M177-190C167-65 218 103 67 71c-23-6-38-20-44-43l32-5c15 47 100 32 89-28v-30C133-14 115 1 83 1 29 1 15-40 15-95c0-56 16-97 71-98 29-1 48 16 59 35 1-10 0-23 2-32h30zM94-22c36 0 50-32 50-73 0-42-14-75-50-75-39 0-46 34-46 75s6 73 46 73" id="aj"/><g id="l"><use transform="matrix(0.05,0,0,0.05,0,0)" xlink:href="#ah"/><use transform="matrix(0.05,0,0,0.05,12,0)" xlink:href="#ab"/><use transform="matrix(0.05,0,0,0.05,21,0)" xlink:href="#O"/><use transform="matrix(0.05,0,0,0.05,31,0)" xlink:href="#J"/><use transform="matrix(0.05,0,0,0.05,41,0)" xlink:href="#H"/><use transform="matrix(0.05,0,0,0.05,46,0)" xlink:href="#ai"/><use transform="matrix(0.05,0,0,0.05,58,0)" xlink:href="#T"/><use transform="matrix(0.05,0,0,0.05,63.95,0)" xlink:href="#E"/><use transform="matrix(0.05,0,0,0.05,67.9,0)" xlink:href="#W"/><use transform="matrix(0.05,0,0,0.05,77.9,0)" xlink:href="#aj"/><use transform="matrix(0.05,0,0,0.05,87.9,0)" xlink:href="#O"/><path d="M-.9 1.25h99.7v1.32H-.9z"/></g><path fill="#333" d="M24-248c93 1 206-16 204 79-1 75-69 88-152 82V0H24v-248zm52 121c47 0 100 7 100-41 0-47-54-39-100-39v80" id="ak"/><path fill="#333" d="M140-251c80 0 125 45 125 126S219 4 139 4C58 4 15-44 15-125s44-126 125-126zm-1 214c52 0 73-35 73-88 0-50-21-86-72-86-52 0-73 35-73 86s22 88 72 88" id="al"/><path fill="#333" d="M169-182c-1-43-94-46-97-3 18 66 151 10 154 114 3 95-165 93-204 36-6-8-10-19-12-30l50-8c3 46 112 56 116 5-17-69-150-10-154-114-4-87 153-88 188-35 5 8 8 18 10 28" id="am"/><path fill="#333" d="M136-208V0H84v-208H4v-40h212v40h-80" id="an"/><g id="m"><use transform="matrix(0.04938271604938272,0,0,0.04938271604938272,0,0)" xlink:href="#ak"/><use transform="matrix(0.04938271604938272,0,0,0.04938271604938272,11.851851851851853,0)" xlink:href="#al"/><use transform="matrix(0.04938271604938272,0,0,0.04938271604938272,25.679012345679016,0)" xlink:href="#am"/><use transform="matrix(0.04938271604938272,0,0,0.04938271604938272,37.53086419753087,0)" xlink:href="#an"/></g><path fill="#333" d="M135-150c-39-12-60 13-60 57V0H25l-1-190h47c2 13-1 29 3 40 6-28 27-53 61-41v41" id="ao"/><path fill="#333" d="M185-48c-13 30-37 53-82 52C43 2 14-33 14-96s30-98 90-98c62 0 83 45 84 108H66c0 31 8 55 39 56 18 0 30-7 34-22zm-45-69c5-46-57-63-70-21-2 6-4 13-4 21h74" id="ap"/><path fill="#333" d="M84 4C32 4 15-41 15-95c0-55 18-99 73-99 29 0 47 12 58 34l2-30h48l-1 265h-49V-32C136-9 114 4 84 4zm21-34c32 0 41-29 41-66 0-36-9-64-40-64-33 0-39 30-40 65 0 43 13 65 39 65" id="aq"/><path fill="#333" d="M85 4C-2 5 27-109 22-190h50c7 57-23 150 33 157 60-5 35-97 40-157h50l1 190h-47c-2-12 1-28-3-38-12 25-28 42-61 42" id="ar"/><path fill="#333" d="M137-138c1-29-70-34-71-4 15 46 118 7 119 86 1 83-164 76-172 9l43-7c4 19 20 25 44 25 33 8 57-30 24-41C81-84 22-81 20-136c-2-80 154-74 161-7" id="as"/><path fill="#333" d="M115-3C79 11 28 4 28-45v-112H4v-33h27l15-45h31v45h36v33H77v99c-1 23 16 31 38 25v30" id="at"/><path fill="#333" d="M67-93c0 74 22 123 53 168H70C40 30 18-18 18-93s22-123 52-168h50c-32 44-53 94-53 168" id="au"/><path fill="#333" d="M102-93c0 74-22 123-52 168H0C30 29 54-18 53-93c0-74-22-123-53-168h50c30 45 52 94 52 168" id="av"/><g id="n"><use transform="matrix(0.04938271604938272,0,0,0.04938271604938272,0,0)" xlink:href="#ao"/><use transform="matrix(0.04938271604938272,0,0,0.04938271604938272,6.913580246913581,0)" xlink:href="#ap"/><use transform="matrix(0.04938271604938272,0,0,0.04938271604938272,16.790123456790127,0)" xlink:href="#aq"/><use transform="matrix(0.04938271604938272,0,0,0.04938271604938272,27.604938271604947,0)" xlink:href="#ar"/><use transform="matrix(0.04938271604938272,0,0,0.04938271604938272,38.41975308641976,0)" xlink:href="#ap"/><use transform="matrix(0.04938271604938272,0,0,0.04938271604938272,48.296296296296305,0)" xlink:href="#as"/><use transform="matrix(0.04938271604938272,0,0,0.04938271604938272,58.17283950617284,0)" xlink:href="#at"/><use transform="matrix(0.04938271604938272,0,0,0.04938271604938272,64.0493827160494,0)" xlink:href="#au"/><use transform="matrix(0.04938271604938272,0,0,0.04938271604938272,69.92592592592594,0)" xlink:href="#av"/></g><path fill="#333" d="M190-63c-7 42-38 67-86 67-59 0-84-38-90-98-12-110 154-137 174-36l-49 2c-2-19-15-32-35-32-30 0-35 28-38 64-6 74 65 87 74 30" id="aw"/><path fill="#333" d="M110-194c64 0 96 36 96 99 0 64-35 99-97 99-61 0-95-36-95-99 0-62 34-99 96-99zm-1 164c35 0 45-28 45-65 0-40-10-65-43-65-34 0-45 26-45 65 0 36 10 65 43 65" id="ax"/><path fill="#333" d="M135-194c87-1 58 113 63 194h-50c-7-57 23-157-34-157-59 0-34 97-39 157H25l-1-190h47c2 12-1 28 3 38 12-26 28-41 61-42" id="ay"/><path fill="#333" d="M121-226c-27-7-43 5-38 36h38v33H83V0H34v-157H6v-33h28c-9-59 32-81 87-68v32" id="az"/><path fill="#333" d="M25-224v-37h50v37H25zM25 0v-190h50V0H25" id="aA"/><path fill="#333" d="M220-157c-53 9-28 100-34 157h-49v-107c1-27-5-49-29-50C55-147 81-57 75 0H25l-1-190h47c2 12-1 28 3 38 10-53 101-56 108 0 13-22 24-43 59-42 82 1 51 116 57 194h-49v-107c-1-25-5-48-29-50" id="aB"/><path fill="#333" d="M88-194c31-1 46 15 58 34l-1-101h50l1 261h-48c-2-10 0-23-3-31C134-8 116 4 84 4 32 4 16-41 15-95c0-56 19-97 73-99zm17 164c33 0 40-30 41-66 1-37-9-64-41-64s-38 30-39 65c0 43 13 65 39 65" id="aC"/><g id="o"><use transform="matrix(0.04938271604938272,0,0,0.04938271604938272,0,0)" xlink:href="#aw"/><use transform="matrix(0.04938271604938272,0,0,0.04938271604938272,9.876543209876544,0)" xlink:href="#ax"/><use transform="matrix(0.04938271604938272,0,0,0.04938271604938272,20.69135802469136,0)" xlink:href="#ay"/><use transform="matrix(0.04938271604938272,0,0,0.04938271604938272,31.506172839506174,0)" xlink:href="#az"/><use transform="matrix(0.04938271604938272,0,0,0.04938271604938272,37.38271604938272,0)" xlink:href="#aA"/><use transform="matrix(0.04938271604938272,0,0,0.04938271604938272,42.320987654320994,0)" xlink:href="#ao"/><use transform="matrix(0.04938271604938272,0,0,0.04938271604938272,49.23456790123458,0)" xlink:href="#aB"/><use transform="matrix(0.04938271604938272,0,0,0.04938271604938272,65.03703703703705,0)" xlink:href="#al"/><use transform="matrix(0.04938271604938272,0,0,0.04938271604938272,78.86419753086422,0)" xlink:href="#ao"/><use transform="matrix(0.04938271604938272,0,0,0.04938271604938272,85.7777777777778,0)" xlink:href="#aC"/><use transform="matrix(0.04938271604938272,0,0,0.04938271604938272,96.59259259259261,0)" xlink:href="#ap"/><use transform="matrix(0.04938271604938272,0,0,0.04938271604938272,106.46913580246914,0)" xlink:href="#ao"/><use transform="matrix(0.04938271604938272,0,0,0.04938271604938272,113.38271604938272,0)" xlink:href="#au"/><use transform="matrix(0.04938271604938272,0,0,0.04938271604938272,119.2592592592593,0)" xlink:href="#av"/></g><path fill="#333" d="M135-194c53 0 70 44 70 98 0 56-19 98-73 100-31 1-45-17-59-34 3 33 2 69 2 105H25l-1-265h48c2 10 0 23 3 31 11-24 29-35 60-35zM114-30c33 0 39-31 40-66 0-38-9-64-40-64-56 0-55 130 0 130" id="aD"/><g id="p"><use transform="matrix(0.04938271604938272,0,0,0.04938271604938272,0,0)" xlink:href="#aD"/><use transform="matrix(0.04938271604938272,0,0,0.04938271604938272,10.814814814814815,0)" xlink:href="#ax"/><use transform="matrix(0.04938271604938272,0,0,0.04938271604938272,21.62962962962963,0)" xlink:href="#as"/><use transform="matrix(0.04938271604938272,0,0,0.04938271604938272,31.506172839506174,0)" xlink:href="#at"/><use transform="matrix(0.04938271604938272,0,0,0.04938271604938272,37.382716049382715,0)" xlink:href="#au"/><use transform="matrix(0.04938271604938272,0,0,0.04938271604938272,43.25925925925926,0)" xlink:href="#av"/></g><g id="q"><use transform="matrix(0.04938271604938272,0,0,0.04938271604938272,0,0)" xlink:href="#aD"/><use transform="matrix(0.04938271604938272,0,0,0.04938271604938272,10.814814814814815,0)" xlink:href="#ax"/><use transform="matrix(0.04938271604938272,0,0,0.04938271604938272,21.62962962962963,0)" xlink:href="#as"/><use transform="matrix(0.04938271604938272,0,0,0.04938271604938272,31.506172839506174,0)" xlink:href="#at"/></g><path fill="#333" d="M114-157C55-157 80-60 75 0H25v-261h50l-1 109c12-26 28-41 61-42 86-1 58 113 63 194h-50c-7-57 23-157-34-157" id="aE"/><path fill="#333" d="M133-34C117-15 103 5 69 4 32 3 11-16 11-54c-1-60 55-63 116-61 1-26-3-47-28-47-18 1-26 9-28 27l-52-2c7-38 36-58 82-57s74 22 75 68l1 82c-1 14 12 18 25 15v27c-30 8-71 5-69-32zm-48 3c29 0 43-24 42-57-32 0-66-3-65 30 0 17 8 27 23 27" id="aF"/><path fill="#333" d="M25 0v-261h50V0H25" id="aG"/><path fill="#333" d="M67-125c0 53 21 87 73 88 37 1 54-22 65-47l45 17C233-25 199 4 140 4 58 4 20-42 15-125 8-235 124-281 211-232c18 10 29 29 36 50l-46 12c-8-25-30-41-62-41-52 0-71 34-72 86" id="aH"/><g id="r"><use transform="matrix(0.04938271604938272,0,0,0.04938271604938272,0,0)" xlink:href="#aE"/><use transform="matrix(0.04938271604938272,0,0,0.04938271604938272,10.814814814814815,0)" xlink:href="#aF"/><use transform="matrix(0.04938271604938272,0,0,0.04938271604938272,20.69135802469136,0)" xlink:href="#ay"/><use transform="matrix(0.04938271604938272,0,0,0.04938271604938272,31.506172839506174,0)" xlink:href="#aC"/><use transform="matrix(0.04938271604938272,0,0,0.04938271604938272,42.320987654320994,0)" xlink:href="#aG"/><use transform="matrix(0.04938271604938272,0,0,0.04938271604938272,47.25925925925927,0)" xlink:href="#ap"/><use transform="matrix(0.04938271604938272,0,0,0.04938271604938272,57.135802469135804,0)" xlink:href="#aH"/><use transform="matrix(0.04938271604938272,0,0,0.04938271604938272,69.92592592592594,0)" xlink:href="#ao"/><use transform="matrix(0.04938271604938272,0,0,0.04938271604938272,76.83950617283952,0)" xlink:href="#ap"/><use transform="matrix(0.04938271604938272,0,0,0.04938271604938272,86.71604938271606,0)" xlink:href="#aF"/><use transform="matrix(0.04938271604938272,0,0,0.04938271604938272,96.59259259259261,0)" xlink:href="#at"/><use transform="matrix(0.04938271604938272,0,0,0.04938271604938272,102.46913580246914,0)" xlink:href="#ap"/><use transform="matrix(0.04938271604938272,0,0,0.04938271604938272,112.34567901234568,0)" xlink:href="#al"/><use transform="matrix(0.04938271604938272,0,0,0.04938271604938272,126.17283950617288,0)" xlink:href="#ao"/><use transform="matrix(0.04938271604938272,0,0,0.04938271604938272,133.08641975308643,0)" xlink:href="#aC"/><use transform="matrix(0.04938271604938272,0,0,0.04938271604938272,143.90123456790124,0)" xlink:href="#ap"/><use transform="matrix(0.04938271604938272,0,0,0.04938271604938272,153.77777777777777,0)" xlink:href="#ao"/><use transform="matrix(0.04938271604938272,0,0,0.04938271604938272,160.69135802469134,0)" xlink:href="#aH"/><use transform="matrix(0.04938271604938272,0,0,0.04938271604938272,173.48148148148147,0)" xlink:href="#ax"/><use transform="matrix(0.04938271604938272,0,0,0.04938271604938272,184.29629629629628,0)" xlink:href="#aB"/><use transform="matrix(0.04938271604938272,0,0,0.04938271604938272,200.09876543209876,0)" xlink:href="#aB"/><use transform="matrix(0.04938271604938272,0,0,0.04938271604938272,215.90123456790124,0)" xlink:href="#aF"/><use transform="matrix(0.04938271604938272,0,0,0.04938271604938272,225.77777777777774,0)" xlink:href="#ay"/><use transform="matrix(0.04938271604938272,0,0,0.04938271604938272,236.59259259259258,0)" xlink:href="#aC"/><use transform="matrix(0.04938271604938272,0,0,0.04938271604938272,247.4074074074074,0)" xlink:href="#au"/><use transform="matrix(0.04938271604938272,0,0,0.04938271604938272,253.28395061728392,0)" xlink:href="#av"/></g><g id="s"><use transform="matrix(0.05,0,0,0.05,0,0)" xlink:href="#V"/><use transform="matrix(0.05,0,0,0.05,14,0)" xlink:href="#T"/><use transform="matrix(0.05,0,0,0.05,19.95,0)" xlink:href="#W"/><use transform="matrix(0.05,0,0,0.05,29.950000000000003,0)" xlink:href="#O"/><use transform="matrix(0.05,0,0,0.05,39.95,0)" xlink:href="#T"/><use transform="matrix(0.05,0,0,0.05,45.900000000000006,0)" xlink:href="#af"/><use transform="matrix(0.05,0,0,0.05,58.85,0)" xlink:href="#O"/><use transform="matrix(0.05,0,0,0.05,68.85000000000001,0)" xlink:href="#C"/><use transform="matrix(0.05,0,0,0.05,78.85000000000001,0)" xlink:href="#I"/><use transform="matrix(0.05,0,0,0.05,88.85000000000001,0)" xlink:href="#ad"/><use transform="matrix(0.05,0,0,0.05,97.85000000000001,0)" xlink:href="#E"/><use transform="matrix(0.05,0,0,0.05,101.80000000000001,0)" xlink:href="#H"/><use transform="matrix(0.05,0,0,0.05,106.80000000000001,0)" xlink:href="#I"/><use transform="matrix(0.05,0,0,0.05,116.80000000000001,0)" xlink:href="#T"/><use transform="matrix(0.05,0,0,0.05,122.75,0)" xlink:href="#Q"/><path d="M-.9 1.25h133.55v1.32H-.9z"/></g><path d="M30-248c118-7 216 8 213 122C240-48 200 0 122 0H30v-248zM63-27c89 8 146-16 146-99s-60-101-146-95v194" id="aI"/><g id="t"><use transform="matrix(0.05,0,0,0.05,0,0)" xlink:href="#aI"/><use transform="matrix(0.05,0,0,0.05,12.950000000000001,0)" xlink:href="#Q"/><use transform="matrix(0.05,0,0,0.05,21.950000000000003,0)" xlink:href="#J"/><use transform="matrix(0.05,0,0,0.05,31.950000000000003,0)" xlink:href="#G"/><use transform="matrix(0.05,0,0,0.05,41.95,0)" xlink:href="#U"/><use transform="matrix(0.05,0,0,0.05,56.900000000000006,0)" xlink:href="#I"/><use transform="matrix(0.05,0,0,0.05,66.9,0)" xlink:href="#aI"/><use transform="matrix(0.05,0,0,0.05,79.85000000000001,0)" xlink:href="#ai"/><path d="M-.9 1.25h93.65v1.32H-.9z"/></g><g id="u"><use transform="matrix(0.04938271604938272,0,0,0.04938271604938272,0,0)" xlink:href="#aw"/><use transform="matrix(0.04938271604938272,0,0,0.04938271604938272,9.876543209876544,0)" xlink:href="#ao"/><use transform="matrix(0.04938271604938272,0,0,0.04938271604938272,16.790123456790127,0)" xlink:href="#ap"/><use transform="matrix(0.04938271604938272,0,0,0.04938271604938272,26.666666666666668,0)" xlink:href="#aF"/><use transform="matrix(0.04938271604938272,0,0,0.04938271604938272,36.543209876543216,0)" xlink:href="#at"/><use transform="matrix(0.04938271604938272,0,0,0.04938271604938272,42.41975308641976,0)" xlink:href="#ap"/><use transform="matrix(0.04938271604938272,0,0,0.04938271604938272,52.2962962962963,0)" xlink:href="#al"/><use transform="matrix(0.04938271604938272,0,0,0.04938271604938272,66.12345679012347,0)" xlink:href="#ao"/><use transform="matrix(0.04938271604938272,0,0,0.04938271604938272,73.03703703703705,0)" xlink:href="#aC"/><use transform="matrix(0.04938271604938272,0,0,0.04938271604938272,83.85185185185186,0)" xlink:href="#ap"/><use transform="matrix(0.04938271604938272,0,0,0.04938271604938272,93.7283950617284,0)" xlink:href="#ao"/><use transform="matrix(0.04938271604938272,0,0,0.04938271604938272,100.64197530864199,0)" xlink:href="#au"/><use transform="matrix(0.04938271604938272,0,0,0.04938271604938272,106.51851851851853,0)" xlink:href="#av"/></g><path d="M141 0L90-78 38 0H4l68-98-65-92h35l48 74 47-74h35l-64 92 68 98h-35" id="aJ"/><g id="v"><use transform="matrix(0.05,0,0,0.05,0,0)" xlink:href="#A"/><use transform="matrix(0.05,0,0,0.05,10.5,0)" xlink:href="#A"/><use transform="matrix(0.05,0,0,0.05,21,0)" xlink:href="#ah"/><use transform="matrix(0.05,0,0,0.05,33,0)" xlink:href="#aJ"/><use transform="matrix(0.05,0,0,0.05,42,0)" xlink:href="#H"/><use transform="matrix(0.05,0,0,0.05,47,0)" xlink:href="#O"/><use transform="matrix(0.05,0,0,0.05,57,0)" xlink:href="#T"/><use transform="matrix(0.05,0,0,0.05,62.95,0)" xlink:href="#J"/><use transform="matrix(0.05,0,0,0.05,72.95,0)" xlink:href="#G"/><use transform="matrix(0.05,0,0,0.05,82.95,0)" xlink:href="#D"/><use transform="matrix(0.05,0,0,0.05,86.9,0)" xlink:href="#K"/><use transform="matrix(0.05,0,0,0.05,97.4,0)" xlink:href="#K"/><path d="M-.9 1.25h109.7v1.32H-.9z"/></g><g id="w"><use transform="matrix(0.05,0,0,0.05,0,0)" xlink:href="#M"/><use transform="matrix(0.05,0,0,0.05,12,0)" xlink:href="#H"/><use transform="matrix(0.05,0,0,0.05,17,0)" xlink:href="#T"/><use transform="matrix(0.05,0,0,0.05,22.95,0)" xlink:href="#E"/><use transform="matrix(0.05,0,0,0.05,26.899999999999995,0)" xlink:href="#C"/><use transform="matrix(0.05,0,0,0.05,36.9,0)" xlink:href="#O"/><path d="M-.9 1.25h48.7v1.32H-.9z"/></g><g id="x"><use transform="matrix(0.04938271604938272,0,0,0.04938271604938272,0,0)" xlink:href="#aD"/><use transform="matrix(0.04938271604938272,0,0,0.04938271604938272,10.814814814814815,0)" xlink:href="#ar"/><use transform="matrix(0.04938271604938272,0,0,0.04938271604938272,21.62962962962963,0)" xlink:href="#at"/><use transform="matrix(0.04938271604938272,0,0,0.04938271604938272,27.506172839506174,0)" xlink:href="#au"/><use transform="matrix(0.04938271604938272,0,0,0.04938271604938272,33.382716049382715,0)" xlink:href="#av"/></g><g id="y"><use transform="matrix(0.04938271604938272,0,0,0.04938271604938272,0,0)" xlink:href="#as"/><use transform="matrix(0.04938271604938272,0,0,0.04938271604938272,9.876543209876544,0)" xlink:href="#ap"/><use transform="matrix(0.04938271604938272,0,0,0.04938271604938272,19.75308641975309,0)" xlink:href="#ay"/><use transform="matrix(0.04938271604938272,0,0,0.04938271604938272,30.567901234567906,0)" xlink:href="#aC"/><use transform="matrix(0.04938271604938272,0,0,0.04938271604938272,41.38271604938272,0)" xlink:href="#au"/><use transform="matrix(0.04938271604938272,0,0,0.04938271604938272,47.25925925925927,0)" xlink:href="#av"/></g><path fill="#333" d="M84 4C-5 8 30-112 23-190h32v120c0 31 7 50 39 49 72-2 45-101 50-169h31l1 190h-30c-1-10 1-25-2-33-11 22-28 36-60 37" id="aK"/><path fill="#333" d="M135-143c-3-34-86-38-87 0 15 53 115 12 119 90S17 21 10-45l28-5c4 36 97 45 98 0-10-56-113-15-118-90-4-57 82-63 122-42 12 7 21 19 24 35" id="aL"/><path fill="#333" d="M100-194c63 0 86 42 84 106H49c0 40 14 67 53 68 26 1 43-12 49-29l28 8c-11 28-37 45-77 45C44 4 14-33 15-96c1-61 26-98 85-98zm52 81c6-60-76-77-97-28-3 7-6 17-6 28h103" id="aM"/><path fill="#333" d="M114-163C36-179 61-72 57 0H25l-1-190h30c1 12-1 29 2 39 6-27 23-49 58-41v29" id="aN"/><g id="z"><use transform="matrix(0.06172839506172839,0,0,0.06172839506172839,0,0)" xlink:href="#aK"/><use transform="matrix(0.06172839506172839,0,0,0.06172839506172839,12.345679012345679,0)" xlink:href="#aL"/><use transform="matrix(0.06172839506172839,0,0,0.06172839506172839,23.45679012345679,0)" xlink:href="#aM"/><use transform="matrix(0.06172839506172839,0,0,0.06172839506172839,35.80246913580247,0)" xlink:href="#aN"/></g></defs></g></svg>