<svg xmlns="http://www.w3.org/2000/svg" xmlns:xlink="http://www.w3.org/1999/xlink" xmlns:lucid="lucid" width="1540" height="1336"><g transform="translate(-160 -164)" lucid:page-tab-id="rlLn3JWZ49P9"><path d="M0 0h1870.87v2581.67H0z" fill="#fff"/><path d="M180 406c0-3.3 2.7-6 6-6h528c3.3 0 6 2.7 6 6v128c0 3.3-2.7 6-6 6H186c-3.3 0-6-2.7-6-6z" fill-opacity="0"/><path d="M215.33 400h29.34m14.66 0h29.34m14.66 0h29.34m14.66 0h29.34m14.66 0h29.34m14.66 0h29.34m14.66 0h29.34m14.66 0h29.34m14.66 0h29.34m14.66 0h29.34m14.66 0h29.34m14.66 0H714l3.03.82 2.15 2.15.82 3.03v14.22m0 14.22v28.45m0 14.2v28.46m0 14.22V534l-.82 3.03-2.15 2.15-3.03.82h-14.67m-14.66 0h-29.34m-14.66 0h-29.34m-14.66 0h-29.34m-14.66 0h-29.34m-14.66 0h-29.34m-14.66 0h-29.34m-14.66 0h-29.34m-14.66 0h-29.34m-14.66 0h-29.34m-14.66 0h-29.34m-14.66 0h-29.34m-14.66 0H186l-3.03-.82-2.15-2.15L180 534v-14.22m0-14.22V477.1m0-14.2v-28.46m0-14.22V406l.82-3.03 2.15-2.15L186 400h14.67" stroke="#5e5e5e" stroke-width="3" fill="none"/><use xlink:href="#a" transform="matrix(1,0,0,1,188,408) translate(176.25925925925924 17.77777777777778)"/><use xlink:href="#b" transform="matrix(1,0,0,1,188,408) translate(218.23456790123456 17.77777777777778)"/><path d="M560 206c0-3.3 2.7-6 6-6h148c3.3 0 6 2.7 6 6v88c0 3.3-2.7 6-6 6H566c-3.3 0-6-2.7-6-6z" stroke="#5e5e5e" stroke-width="3" fill="#b2d6ef"/><use xlink:href="#c" transform="matrix(1,0,0,1,572,212) translate(18.648148148148152 29.65277777777778)"/><use xlink:href="#d" transform="matrix(1,0,0,1,572,212) translate(63.03086419753087 29.65277777777778)"/><use xlink:href="#e" transform="matrix(1,0,0,1,572,212) translate(27.320987654320987 56.31944444444445)"/><use xlink:href="#f" transform="matrix(1,0,0,1,572,212) translate(86.5185185185185 56.31944444444445)"/><path d="M1120 190c0-3.3 2.7-6 6-6h148c3.3 0 6 2.7 6 6v108c0 3.3-2.7 6-6 6h-148c-3.3 0-6-2.7-6-6z" stroke="#5e5e5e" stroke-width="3" fill="#ffbbb1"/><use xlink:href="#g" transform="matrix(1,0,0,1,1132,196) translate(29.759259259259267 26.77777777777778)"/><use xlink:href="#h" transform="matrix(1,0,0,1,1132,196) translate(13.462962962962962 53.44444444444445)"/><use xlink:href="#i" transform="matrix(1,0,0,1,1132,196) translate(34.04938271604939 80.11111111111111)"/><path d="M940 206c0-3.3 2.7-6 6-6h148c3.3 0 6 2.7 6 6v92c0 3.3-2.7 6-6 6H946c-3.3 0-6-2.7-6-6z" stroke="#5e5e5e" stroke-width="3" fill="#f5b5c8"/><use xlink:href="#j" transform="matrix(1,0,0,1,952,212) translate(16.24074074074074 17.77777777777778)"/><use xlink:href="#k" transform="matrix(1,0,0,1,952,212) translate(34.141975308641975 44.44444444444444)"/><use xlink:href="#l" transform="matrix(1,0,0,1,952,212) translate(32.25925925925927 71.11111111111111)"/><path d="M211.08 341H201v-2h10.08m30.22 2h-20.15v-2h20.15m30.23 2h-20.15v-2h20.15m30.23 2H281.6v-2h20.16m30.23 2h-20.16v-2H332m30.2 2h-20.14v-2h20.15m30.24 2H372.3v-2h20.14m30.23 2h-20.15v-2h20.15m30.23 2h-20.15v-2h20.15m30.23 2h-20.16v-2h20.16m30.22 2H493.2v-2h20.15m30.23 2h-20.15v-2h20.15m30.23 2h-20.14v-2h20.15m30.24 2H583.9v-2h20.14m30.22 2H614.1v-2h20.16m30.23 2h-20.16v-2h20.15m30.22 2h-20.15v-2h20.15m30.23 2H704.8v-2h20.15m30.23 2h-20.16v-2h20.16m30.22 2h-20.15v-2h20.15m30.23 2h-20.15v-2h20.15m30.23 2H825.7v-2h20.16m30.23 2h-20.17v-2h20.16m30.2 2h-20.14v-2h20.15m30.24 2H916.4v-2h20.14m30.23 2h-20.15v-2h20.15m30.23 2h-20.15v-2H997m30.23 2h-20.16v-2h20.16m30.22 2h-20.15v-2h20.15m30.23 2h-20.15v-2h20.15m30.23 2h-20.14v-2h20.15m30.24 2h-20.16v-2h20.16m30.22 2h-20.15v-2h20.16m30.23 2h-20.16v-2h20.15m30.22 2h-20.15v-2h20.15m20.15 2h-10.07v-2h10.07" fill="#5e5e5e"/><path d="M201.03 341H200v-2h1.03M1259.97 341h-1.02v-2h1.02" fill="#5e5e5e"/><path d="M200 446c0-3.3 2.7-6 6-6h128c3.3 0 6 2.7 6 6v68c0 3.3-2.7 6-6 6H206c-3.3 0-6-2.7-6-6z" stroke="#5e5e5e" stroke-width="3" fill="#b2b2b2"/><use xlink:href="#m" transform="matrix(1,0,0,1,212,452) translate(7.475308641975303 17.77777777777778)"/><use xlink:href="#n" transform="matrix(1,0,0,1,212,452) translate(29.049382716049383 44.44444444444444)"/><path d="M380 446c0-3.3 2.7-6 6-6h128c3.3 0 6 2.7 6 6v68c0 3.3-2.7 6-6 6H386c-3.3 0-6-2.7-6-6z" stroke="#5e5e5e" stroke-width="3" fill="#b2b2b2"/><use xlink:href="#o" transform="matrix(1,0,0,1,392,452) translate(11.79629629629629 17.77777777777778)"/><use xlink:href="#n" transform="matrix(1,0,0,1,392,452) translate(29.049382716049383 44.44444444444444)"/><path d="M560 446c0-3.3 2.7-6 6-6h128c3.3 0 6 2.7 6 6v68c0 3.3-2.7 6-6 6H566c-3.3 0-6-2.7-6-6z" stroke="#5e5e5e" stroke-width="3" fill="#3aa6dd"/><use xlink:href="#p" transform="matrix(1,0,0,1,572,452) translate(40.098765432098766 17.77777777777778)"/><use xlink:href="#q" transform="matrix(1,0,0,1,572,452) translate(14.203703703703702 44.44444444444444)"/><path d="M640 302.5V420" stroke="#5e5e5e" stroke-width="2" fill="none"/><path d="M641 302.53h-2v-1.03h2" fill="#5e5e5e"/><path d="M640 435.26L635.36 421h9.28z" stroke="#5e5e5e" stroke-width="2" fill="#5e5e5e"/><path d="M520 726c0-3.3 2.7-6 6-6h128c3.3 0 6 2.7 6 6v68c0 3.3-2.7 6-6 6H526c-3.3 0-6-2.7-6-6z" stroke="#5e5e5e" stroke-width="3" fill="#5abaa7"/><use xlink:href="#r" transform="matrix(1,0,0,1,532,732) translate(29.66666666666667 17.77777777777778)"/><use xlink:href="#s" transform="matrix(1,0,0,1,532,732) translate(21.02469135802469 44.44444444444444)"/><path d="M1201 600h-2v-8.6h2m0-8.62h-2v-11.5h2m0-21.33h-2v-10.23h2m0-8.6h-2v-8.62h2" fill="#5e5e5e"/><path d="M1201 522.53h-2v-1.03h2M1200 615.26l-4.64-14.26h9.28z" fill="#5e5e5e"/><path d="M1200 618.5l-6-18.5h12m-9.26 2l3.26 10.03 3.26-10.03" fill="#5e5e5e"/><use xlink:href="#t" transform="matrix(1,0,0,1,1159.604938271605,549.9469079285083) translate(0 14.222222222222223)"/><path d="M1200 306.5V420" stroke="#5e5e5e" stroke-width="2" fill="none"/><path d="M1201 306.53h-2v-1.03h2" fill="#5e5e5e"/><path d="M1200 435.26l-4.64-14.26h9.28z" stroke="#5e5e5e" stroke-width="2" fill="#5e5e5e"/><path d="M592.33 689.97l-.33 3.13-.43 6.97-2-.12.44-7.02.34-3.17m6.97-29.74l-1.35 5.8-1.57 8.27-.86 5.8-1.98-.28.86-5.86 1.6-8.34 1.37-5.86M600 650l-.05.24-1.92-.54.07-.26 1.84-5.67h2.1m15.74-41.06l-3.48 9.3-3.8 9.72-1.86-.72 3.8-9.7 3.47-9.3m10.36-28.75l-.25 1.33-1.86 7.97-2.24 8-.8 2.5-1.9-.62.8-2.44 2.2-7.95 1.85-7.88.25-1.3m5.95-29.98l-.26 4.17-1.07 10.13-.88 6-1.98-.3.87-5.95L628 546.9l.25-4.13m2.73-20.25l-.2 10.17-2-.05.2-10.17" fill="#5e5e5e"/><path d="M630.98 522.55l-2-.04.02-1h2M595.17 701.15l-5.07 14.12-4.2-14.4z" fill="#5e5e5e"/><path d="M596.58 700.2L590 718.5l-5.44-18.68m5.64 12.2l3.57-9.9-6.52-.2" fill="#5e5e5e"/><use xlink:href="#u" transform="matrix(1,0,0,1,528.5859734658105,622.4387059601032) translate(0 14.222222222222223)"/><use xlink:href="#v" transform="matrix(1,0,0,1,528.5859734658105,622.4387059601032) translate(25.629629629629633 14.222222222222223)"/><path d="M613.9 835.5v2.96c0 1.35-3.92 3.57-11.34 4.84-4.17.7-8.34 1.04-12.56 1.03-15.47 0-24-3.87-24-5.84v-3c0 1.98 8.43 5.84 24 5.84 4.46.03 8.2-.26 12.6-.98 7.38-1.33 11.3-3.5 11.3-4.86z" fill="#0c79b0"/><path d="M620 858.93v2.6c-.42 16.08-14.22 28.77-30.78 28.34-16.02-.44-28.8-12.8-29.22-28.34v-2.6h60z" fill-opacity="0"/><path d="M613.7 836.05v3c-.8 1.3-4.64 3.15-11.16 4.24-4.12.7-8.34 1.03-12.56 1.03-15.5 0-23.98-3.87-23.98-5.83v-3c0 1.96 8.44 5.83 23.98 5.83 4.46.06 8.24-.27 12.6-.98 6.58-1.1 10.37-2.94 11.23-4.3m.06 43.86c.04-.1.1-.2.1-.37v4.96l-.06.2c-.04.06-.1.17-.14.28v.06l-.14.16-.2.27-.2.22-.32.2-.3.23-.33.27-.38.16-.5.27-.37.22-.67.27-.4.17c-.37.15-.76.26-1.2.42l-.42.1-.96.28-.62.17-.9.22-.73.15-1 .22-.82.1-1.1.22-.9.1-1.25.1-.92.12-1.48.1-.96.12-1.7.05h-3.6c-8.7 0-15.28-1.04-19.65-2.4-3.16-1.1-5.46-2.3-5.7-3.16v-4.74c.24.87 2.25 1.96 5.08 3l-.05-.28c6.9 2.07 13.05 2.94 20.3 2.94h3.58l1.73-.05.9-.05 1.44-.16.9-.06 1.3-.17.82-.1 1.2-.17 5.47-1.3c.43-.17.86-.28 1.24-.44l1.06-.44.24-.16.67-.33.24-.16.48-.28.2-.17.37-.33.15-.1.28-.33v-.22l.2-.44z" fill="#0c79b0"/><path d="M590 830c4.22-.04 8.44.3 12.6 1 7.38 1.27 11.3 3.48 11.3 4.86 0 1.4-3.92 3.54-11.34 4.82-4.17.68-8.34 1.02-12.56 1-15.47 0-24-3.87-24-5.84 0-2 8.48-5.84 24-5.84z" fill="#3aa6dd"/><path d="M602.25 845.4c-.68.13-1.3.18-1.97.32-.34 0-.67.1-1.06.14l-1.82.18c-.43 0-.86.1-1.24.1l-2.4.13h-.43c-.96 0-1.92.05-2.93.1h-.62c-9.5 0-19.1-1.62-23.74-4.65v40.14c.24.92 2.54 2.1 5.7 3.17 4.28 1.33 10.9 2.4 19.62 2.4 15.97.04 22.63-3.73 22.63-5.76v-40.23c-2.5 1.66-6.53 3.08-11.75 3.96z" fill="#3aa6dd"/><use xlink:href="#w" transform="matrix(1,0,0,1,560,890) translate(8.395061728395063 17.77777777777778)"/><use xlink:href="#x" transform="matrix(1,0,0,1,560,890) translate(5.33950617283951 44.44444444444444)"/><path d="M497.97 758.93L500.23 920h-2l-2.26-161.08.58-32.95h2m59.85-217.7l-2.48 2.14-3.17 3-3.13 3.2-3.1 3.45-3.08 3.73-3.07 4.04-3.05 4.4-3.06 4.83-3.06 5.3-3.06 5.9-3.08 6.55-3.1 7.37-3.1 8.36-3.1 9.6-3.08 11.12-3.06 13.14-3 15.8-2.86 19.6-2.6 25.27-2.15 35.1-.07 4.47h-2l.08-4.55 2.15-35.2 2.62-25.36 2.88-19.67 3-15.9 3.1-13.2 3.1-11.23 3.13-9.66 3.13-8.44 3.13-7.45 3.1-6.64 3.12-5.96 3.1-5.38 3.1-4.9 3.1-4.47 3.12-4.12 3.13-3.8 3.16-3.5 3.2-3.26 3.22-3.04 2.5-2.17" fill="#5e5e5e"/><path d="M558.5 508.18l-.12.1-1.3-1.5 1.42-1.24M499.45 935.26l-4.84-14.2 9.28-.13z" fill="#5e5e5e"/><path d="M499.5 938.5l-6.28-18.42 12.03-.16m-9.25 2.13l3.4 9.98 3.12-10.08" fill="#5e5e5e"/><use xlink:href="#y" transform="matrix(1,0,0,1,463.76697652237175,704.6362318547066) translate(0 14.222222222222223)"/><path d="M860 1186c0-3.3 2.7-6 6-6h128c3.3 0 6 2.7 6 6v68c0 3.3-2.7 6-6 6H866c-3.3 0-6-2.7-6-6z" stroke="#5e5e5e" stroke-width="3" fill="#5abaa7"/><use xlink:href="#z" transform="matrix(1,0,0,1,872,1192) translate(9.944444444444443 17.77777777777778)"/><use xlink:href="#s" transform="matrix(1,0,0,1,872,1192) translate(21.02469135802469 44.44444444444444)"/><path d="M1153.9 1205.5v2.96c0 1.35-3.92 3.57-11.34 4.84-4.17.7-8.34 1.04-12.56 1.03-15.47 0-24-3.87-24-5.84v-3c0 1.98 8.43 5.84 24 5.84 4.46.03 8.2-.26 12.6-.98 7.38-1.33 11.3-3.5 11.3-4.86z" fill="#0c79b0"/><path d="M1160 1228.93v2.6c-.42 16.08-14.22 28.77-30.78 28.34-16.02-.44-28.8-12.8-29.22-28.34v-2.6h60z" fill-opacity="0"/><path d="M1153.7 1206.05v3c-.8 1.3-4.64 3.15-11.16 4.24-4.12.7-8.34 1.03-12.56 1.03-15.5 0-23.98-3.87-23.98-5.83v-3c0 1.96 8.44 5.83 23.98 5.83 4.46.06 8.24-.27 12.6-.98 6.58-1.1 10.37-2.94 11.23-4.3m.06 43.86c.04-.1.1-.2.1-.37v4.96l-.06.2c-.04.06-.1.17-.14.28v.06l-.14.16-.2.27-.2.22-.32.2-.3.23-.33.27-.38.16-.5.27-.37.22-.67.27-.4.17c-.37.15-.76.26-1.2.42l-.42.1-.96.28-.62.17-.9.22-.73.15-1 .22-.82.1-1.1.22-.9.1-1.25.1-.92.12-1.48.1-.96.12-1.7.05h-3.6c-8.7 0-15.28-1.04-19.65-2.4-3.16-1.1-5.46-2.3-5.7-3.16v-4.74c.24.87 2.25 1.96 5.08 3l-.05-.28c6.9 2.07 13.05 2.94 20.3 2.94h3.58l1.73-.05.9-.05 1.44-.16.9-.06 1.3-.17.82-.1 1.2-.17 5.47-1.3c.43-.17.86-.28 1.24-.44l1.06-.44.24-.16.67-.33.24-.16.48-.28.2-.17.37-.33.15-.1.28-.33v-.22l.2-.44z" fill="#0c79b0"/><path d="M1130 1200c4.22-.04 8.44.3 12.6 1 7.38 1.27 11.3 3.48 11.3 4.86 0 1.4-3.92 3.54-11.34 4.82-4.17.68-8.34 1.02-12.56 1-15.47 0-24-3.87-24-5.84 0-2 8.48-5.84 24-5.84z" fill="#3aa6dd"/><path d="M1142.25 1215.4c-.68.13-1.3.18-1.97.32-.34 0-.67.1-1.06.14l-1.82.18c-.43 0-.86.1-1.24.1l-2.4.13h-.43c-.96 0-1.92.05-2.93.1h-.62c-9.5 0-19.1-1.62-23.74-4.65v40.14c.24.92 2.54 2.1 5.7 3.17 4.28 1.33 10.9 2.4 19.62 2.4 15.97.04 22.63-3.73 22.63-5.76v-40.23c-2.5 1.66-6.53 3.08-11.75 3.96z" fill="#3aa6dd"/><use xlink:href="#w" transform="matrix(1,0,0,1,1100,1260) translate(8.395061728395063 17.77777777777778)"/><use xlink:href="#x" transform="matrix(1,0,0,1,1100,1260) translate(5.33950617283951 44.44444444444444)"/><path d="M1002.48 1220.2l98.1 19.6" stroke="#5e5e5e" stroke-width="2" fill="none"/><path d="M1002.7 1219.22l-.4 1.96-.8-.16v-2.04M1101.27 1238.92l.4 1.5.32.68-1.64-.32.4-1.96" fill="#5e5e5e"/><path d="M451.12 946c0-3.3 2.7-6 6-6h128c3.3 0 6 2.7 6 6v68c0 3.3-2.7 6-6 6h-128c-3.3 0-6-2.7-6-6z" stroke="#5e5e5e" stroke-width="3" fill="#5abaa7"/><use xlink:href="#A" transform="matrix(1,0,0,1,463.11913357400715,952) translate(14.203703703703702 17.77777777777778)"/><use xlink:href="#s" transform="matrix(1,0,0,1,463.11913357400715,952) translate(21.02469135802469 44.44444444444444)"/><path d="M1360 986c0-3.3 2.7-6 6-6h128c3.3 0 6 2.7 6 6v68c0 3.3-2.7 6-6 6h-128c-3.3 0-6-2.7-6-6z" stroke="#5e5e5e" stroke-width="3" fill="#5abaa7"/><use xlink:href="#B" transform="matrix(1,0,0,1,1372,992) translate(7.567901234567898 17.77777777777778)"/><use xlink:href="#s" transform="matrix(1,0,0,1,1372,992) translate(21.02469135802469 44.44444444444444)"/><path d="M600 1210c0-3.3 2.7-6 6-6h128c3.3 0 6 2.7 6 6v68c0 3.3-2.7 6-6 6H606c-3.3 0-6-2.7-6-6z" stroke="#5e5e5e" stroke-width="3" fill="#ffeca9"/><use xlink:href="#C" transform="matrix(1,0,0,1,612,1216) translate(20.407407407407412 17.77777777777778)"/><use xlink:href="#s" transform="matrix(1,0,0,1,612,1216) translate(21.02469135802469 44.44444444444444)"/><path d="M955.87 611.16l-3.06.78-3.92.84-3.22.54-.34-1.97 3.2-.54 3.83-.8 3.03-.78m28.5-12l-1.24 1-2.5 1.8-2.55 1.7-2.65 1.6-2.74 1.5-2.85 1.42-2.98 1.33-.56.22-.73-1.87.53-.2 2.9-1.3 2.78-1.38 2.67-1.46 2.57-1.57 2.5-1.65 2.4-1.76 1.23-.97m21.38-22.37l-1.22 2.13-2.1 3.34-2.15 3.08-2.16 2.85-2.2 2.65-2.22 2.47-.35.34-1.43-1.4.32-.32 2.16-2.4 2.14-2.6 2.1-2.77 2.1-3 2.08-3.28 1.2-2.1m13.54-27.94l-.72 2.58-2 6.16-2.02 5.46-2.05 4.87-.27.58-1.8-.85.25-.55 2-4.8 2-5.37 1.98-6.07.72-2.54m8.12-30.05l-1.25 8.5-1.82 9.52-.58 2.47-1.95-.45.57-2.44 1.8-9.45 1.24-8.44m3.18-10.04l-2-.2.67-6.35h2.03m1.65-44.35l-.38 19.8-2-.05.38-19.73-.03-.95 2-.07m-.36-10.36l-2 .06-.7-20.72 2-.06m-.37-10.36l-2 .07-.7-20.72 2-.07m-.36-10.36l-2 .07-.7-20.72 2-.07m-.3-10.35l-2 .05-.52-20.73 2-.05m-.26-10.36l-2 .05-.27-10.37 2-.05" fill="#5e5e5e"/><path d="M1021.03 306.5l-2 .05-.03-1.05h2M944.86 617.03l-14.57-3.55 13.87-5.7z" fill="#5e5e5e"/><path d="M945.96 618.33l-18.9-4.6 18-7.4m-11.55 6.9l10.26 2.5-.5-6.5" fill="#5e5e5e"/><use xlink:href="#t" transform="matrix(1,0,0,1,983.1968339060322,475.5390368437715) translate(0 14.222222222222223)"/><path d="M785.56 1406c0-3.3 2.7-6 6-6h128c3.3 0 6 2.7 6 6v68c0 3.3-2.7 6-6 6h-128c-3.3 0-6-2.7-6-6z" stroke="#5e5e5e" stroke-width="3" fill="#ffeca9"/><use xlink:href="#D" transform="matrix(1,0,0,1,797.5595667870036,1412) translate(22.845679012345677 17.77777777777778)"/><use xlink:href="#s" transform="matrix(1,0,0,1,797.5595667870036,1412) translate(21.02469135802469 44.44444444444444)"/><path d="M240 1162c0-3.3 2.7-6 6-6h128c3.3 0 6 2.7 6 6v92c0 3.3-2.7 6-6 6H246c-3.3 0-6-2.7-6-6z" stroke="#5e5e5e" stroke-width="3" fill="#b2b2b2"/><use xlink:href="#E" transform="matrix(1,0,0,1,252,1168) translate(3.8024691358024683 17.77777777777778)"/><use xlink:href="#F" transform="matrix(1,0,0,1,252,1168) translate(14.203703703703702 44.44444444444444)"/><use xlink:href="#G" transform="matrix(1,0,0,1,252,1168) translate(20.99382716049383 71.11111111111111)"/><path d="M842.5 974.1l73.66 1.44 54 3.35 45.7 4.8 53.54 8 114.73 18.7 45.72 4.8 54 3.34 56.15 1.1" stroke="#5e5e5e" stroke-width="2" fill="none"/><path d="M842.55 973.1l-.04 2-1-.02v-2" fill="#5e5e5e"/><path d="M1355.26 1019.94l-14.35 4.35.2-9.28z" stroke="#5e5e5e" stroke-width="2" fill="#5e5e5e"/><path d="M1563.75 1156.35l7.87 4.76 5.9 3.92 4.7 3.42 3.9 3.08 3.28 2.83 2.82 2.64 2.45 2.5 2.14 2.37 1.9 2.3 1.7 2.2 1.5 2.16 1.33 2.12 1.2 2.08 1.08 2.05.97 2.05.86 2.04.43 1.15-1.87.7-.43-1.12-.83-1.96-.92-1.97-1.04-1.98-1.16-2.02-1.3-2.04-1.45-2.1-1.63-2.14-1.84-2.22-2.1-2.32-2.38-2.44-2.76-2.6-3.22-2.76-3.82-3.03-4.63-3.36-5.85-3.87-7.78-4.7-30.93-15.82h4.4m-85.2-78.45l.15 2.25.22 2.17.3 2.12.4 2.06.48 2.03.56 2 .64 1.97.73 1.97.83 1.96.92 1.97 1.04 1.98 1.16 2.02 1.3 2.04 1.45 2.1 1.63 2.14 1.84 2.22 2.1 2.32 2.38 2.44 2.76 2.6 3.22 2.76 3.82 3.03 4.63 3.36 5.85 3.87 6.2 3.75h-3.86l-3.42-2.06-5.9-3.92-4.7-3.42-3.9-3.08-3.28-2.83-2.82-2.64-2.45-2.5-2.14-2.37-1.9-2.3-1.7-2.2-1.5-2.16-1.33-2.12-1.2-2.08-1.08-2.05-.97-2.05-.86-2.04-.76-2.04-.66-2.06-.58-2.08-.5-2.1-.4-2.16-.33-2.2-.23-2.25-.15-2.33-.03-1.4 2-.04" fill="#5e5e5e"/><path d="M1451.02 1062.5l-2 .05-.02-1.05h2M1609.44 1215.3l-7.03-13.24 9.14-1.6z" fill="#5e5e5e"/><path d="M1610 1218.5l-9.12-17.2 11.85-2.06m-8.8 3.57l4.95 9.33 1.48-10.45" fill="#5e5e5e"/><use xlink:href="#t" transform="matrix(1,0,0,1,1472.7868828666342,1120.9501795171927) translate(0 14.222222222222223)"/><path d="M1429.42 1062.3l-6.15 8.62m-6.15 8.6l-12.3 17.23m-6.15 8.6l-12.3 17.22m-6.15 8.6l-12.3 17.23m-6.14 8.6l-12.3 17.23m-6.15 8.6l-6.15 8.6" stroke="#333" stroke-width="2" fill="none"/><path d="M1430.22 1062.92l-1.63-1.17.17-.25h2.46" fill="#333"/><path d="M1328.3 1203.87l4.53-14.3 7.54 5.38z" stroke="#333" stroke-width="2" fill="#333"/><use xlink:href="#H" transform="matrix(1,0,0,1,1173.494475908651,1133.9650428135549) translate(0 14.222222222222223)"/><use xlink:href="#I" transform="matrix(1,0,0,1,1173.494475908651,1133.9650428135549) translate(68.98765432098764 14.222222222222223)"/><use xlink:href="#J" transform="matrix(1,0,0,1,1173.494475908651,1133.9650428135549) translate(104.49382716049382 14.222222222222223)"/><path d="M864.5 1375.04l-4.7 8-1.73-1 4.7-8M878.6 1351l-9.4 16.03-1.73-1.02 9.4-16m6.44-7l-1.7-1.02.76-1.3h2.32m22.15-37.75l-9.4 16.02-1.73-1 9.4-16.03m15.85-23.03l-9.4 16.02-1.74-1.02 9.42-16.02m11.14-15l-4.7 8-1.73-1 4.7-8.02" fill="#5e5e5e"/><path d="M930.34 1262.9l-1.72-1.02.22-.38h2.32M862.42 1385.75l-11.22 9.96 3.22-14.64z" fill="#5e5e5e"/><path d="M864.1 1385.6l-14.54 12.9 4.18-19m-.9 13.42l7.9-7-5.64-3.3" fill="#5e5e5e"/><use xlink:href="#K" transform="matrix(1,0,0,1,857.7550920354771,1319.3333333333333) translate(0 14.222222222222223)"/><path d="M358.55 1103.92l-8.72 4.3-6.33 3.48-4.9 2.97-3.96 2.62-3.27 2.36-2.75 2.18-2.35 2.03-2.02 1.9-1.76 1.8-1.56 1.7-1.36 1.65-1.2 1.58-1.07 1.54-.94 1.5-.85 1.46-.1.22-1.77-.93.13-.26.9-1.54 1-1.57 1.1-1.6 1.26-1.65 1.4-1.7 1.6-1.8 1.83-1.84 2.1-1.96 2.4-2.08 2.8-2.23 3.35-2.42 4.03-2.67 4.97-3 6.4-3.52 8.82-4.37 7.86-3.26h5.23m107.96-76.32v.65l-.1 1.63-.18 1.6-.23 1.54-.3 1.53-.34 1.5-.4 1.5-.5 1.5-.55 1.48-.63 1.5-.7 1.5-.8 1.5-.88 1.55-1 1.57-1.12 1.6-1.25 1.65-1.4 1.7-1.6 1.8-1.83 1.84-2.1 1.96-2.4 2.08-2.82 2.23-3.33 2.42-4.04 2.67-4.98 3-6.4 3.52-8.8 4.36-8.16 3.6h-4.94l12.25-5.4 8.73-4.33 6.32-3.47 4.9-2.97 3.96-2.62 3.27-2.36 2.76-2.18 2.35-2.03 2.04-1.9 1.76-1.8 1.54-1.7 1.36-1.65 1.2-1.58 1.07-1.54.96-1.5.84-1.46.76-1.45.67-1.42.6-1.4.52-1.42.45-1.4.4-1.42.33-1.43.28-1.44.22-1.47.16-1.5.1-1.54v-.62" fill="#5e5e5e"/><path d="M478.76 1022.55l-2-.04.03-1h2M318.8 1138.68l-8 12.68-.98-14.96z" fill="#5e5e5e"/><path d="M320.4 1138.05L310 1154.5l-1.26-19.4m2.86 13.13l5.63-8.92-6.32-1.6" fill="#5e5e5e"/><use xlink:href="#u" transform="matrix(1,0,0,1,357.49789354219865,1077.5090338141245) translate(0 14.222222222222223)"/><use xlink:href="#L" transform="matrix(1,0,0,1,357.49789354219865,1077.5090338141245) translate(25.629629629629633 14.222222222222223)"/><path d="M705.56 606c0-3.3 2.7-6 6-6h208c3.3 0 6 2.7 6 6v68c0 3.3-2.7 6-6 6h-208c-3.3 0-6-2.7-6-6z" stroke="#5e5e5e" stroke-width="3" fill="#5abaa7"/><use xlink:href="#M" transform="matrix(1,0,0,1,717.5595667870036,612) translate(6.117283950617292 17.77777777777778)"/><use xlink:href="#N" transform="matrix(1,0,0,1,717.5595667870036,612) translate(88.7716049382716 17.77777777777778)"/><use xlink:href="#s" transform="matrix(1,0,0,1,717.5595667870036,612) translate(61.02469135802469 44.44444444444444)"/><path d="M680.3 522.96l.07.47.1.48.1.48.14.48.16.48.18.5.2.48.25.5.26.52.3.54.36.55.4.57.45.6.52.63.6.66.67.7.8.73.92.8 1.08.87 1.3.93 1.54 1.03 1.88 1.13 2.3 1.26 2.9 1.44 3.75 1.66 4.98 1.96 6.96 2.42 10.65 3.2 21.37 5.4 61.84 14.6 10.75 3.22 7.05 2.44 5.05 2 3.8 1.7 3 1.46 2.38 1.3 1.95 1.2 1 .65-1.1 1.68-.97-.64-1.88-1.13-2.3-1.26-2.92-1.44-3.73-1.66-4.98-1.96-6.96-2.42-10.66-3.2-61.8-14.57-21.43-5.44-10.73-3.22-7.04-2.44-5.05-2-3.82-1.7-2.97-1.46-2.4-1.3-1.95-1.2-1.62-1.06-1.36-1-1.15-.9-1-.86-.85-.8-.74-.76-.65-.73-.58-.7-.5-.65-.45-.64-.4-.63-.34-.6-.3-.58-.28-.6-.24-.56-.2-.56-.2-.56-.14-.56-.13-.56-.1-.55-.08-.56-.07-.6 2-.2" fill="#5e5e5e"/><path d="M680.23 522.5l-2 .05-.02-1.05h2M849.95 595.83l-11.87-9.17 7.65-5.23z" fill="#5e5e5e"/><path d="M851.77 598.5l-15.4-11.9 9.94-6.77m-6.52 6.88l8.34 6.45-2.96-10.12" fill="#5e5e5e"/><path d="M839.47 745.5v2.96c0 1.35-3.93 3.57-11.36 4.84-4.15.7-8.32 1.04-12.54 1.03-15.47 0-24-3.87-24-5.84v-3c0 1.98 8.43 5.84 24 5.84 4.46.03 8.2-.26 12.6-.98 7.38-1.33 11.3-3.5 11.3-4.86z" fill="#0c79b0"/><path d="M845.56 768.93v2.6c-.42 16.08-14.22 28.77-30.78 28.34-16.02-.44-28.8-12.8-29.22-28.34v-2.6h60z" fill-opacity="0"/><path d="M839.27 746.05v3c-.8 1.3-4.65 3.15-11.17 4.24-4.12.7-8.34 1.03-12.56 1.03-15.5 0-23.98-3.87-23.98-5.83v-3c0 1.96 8.44 5.83 23.98 5.83 4.46.06 8.24-.27 12.6-.98 6.58-1.1 10.36-2.94 11.23-4.3m.05 43.86c.04-.1.1-.2.1-.37v4.96l-.06.2c-.04.06-.1.17-.14.28v.06l-.14.16-.2.27-.2.22-.32.2-.3.23-.33.27-.38.16-.48.27-.38.22-.68.27-.4.17c-.37.15-.76.26-1.2.42l-.42.1-.96.28-.62.17-.9.22-.73.15-1.02.22-.8.1-1.12.22-.9.1-1.25.1-.9.12-1.5.1-.95.12-1.68.05h-3.6c-8.72 0-15.3-1.04-19.66-2.4-3.15-1.1-5.45-2.3-5.7-3.16v-4.74c.25.87 2.26 1.96 5.1 3l-.06-.28c6.9 2.07 13.05 2.94 20.3 2.94h3.58l1.73-.05.9-.05 1.45-.16.9-.06 1.3-.17.82-.1 1.2-.17 5.46-1.3c.44-.17.87-.28 1.25-.44l1.06-.44.23-.16.67-.33.24-.16.48-.28.2-.17.37-.33.14-.1.28-.33v-.22l.2-.44z" fill="#0c79b0"/><path d="M815.56 740c4.22-.04 8.43.3 12.6 1 7.38 1.27 11.3 3.48 11.3 4.86 0 1.4-3.92 3.54-11.35 4.82-4.15.68-8.32 1.02-12.54 1-15.47 0-24-3.87-24-5.84 0-2 8.48-5.84 24-5.84z" fill="#3aa6dd"/><path d="M827.8 755.4c-.67.13-1.3.18-1.96.32-.34 0-.67.1-1.06.14l-1.82.18c-.43 0-.86.1-1.24.1l-2.4.13h-.43c-.97 0-1.93.05-2.94.1h-.62c-9.5 0-19.1-1.62-23.74-4.65v40.14c.24.92 2.54 2.1 5.7 3.17 4.28 1.33 10.9 2.4 19.62 2.4 15.97.04 22.63-3.73 22.63-5.76v-40.23c-2.5 1.66-6.52 3.08-11.74 3.96z" fill="#3aa6dd"/><use xlink:href="#w" transform="matrix(1,0,0,1,785.5595667870036,800) translate(8.395061728395063 17.77777777777778)"/><use xlink:href="#x" transform="matrix(1,0,0,1,785.5595667870036,800) translate(5.33950617283951 44.44444444444444)"/><path d="M815.56 682.5v39" stroke="#5e5e5e" stroke-width="2" fill="none"/><path d="M816.56 682.53h-2v-1.03h2" fill="#5e5e5e"/><path d="M815.56 736.76l-4.64-14.26h9.27z" stroke="#5e5e5e" stroke-width="2" fill="#5e5e5e"/><path d="M1280 1214c0-3.3 2.7-6 6-6h128c3.3 0 6 2.7 6 6v92c0 3.3-2.7 6-6 6h-128c-3.3 0-6-2.7-6-6z" stroke="#5e5e5e" stroke-width="3" fill="#b2b2b2"/><use xlink:href="#E" transform="matrix(1,0,0,1,1292,1220) translate(3.8024691358024683 17.77777777777778)"/><use xlink:href="#O" transform="matrix(1,0,0,1,1292,1220) translate(14.851851851851848 44.44444444444444)"/><use xlink:href="#G" transform="matrix(1,0,0,1,1292,1220) translate(20.99382716049383 71.11111111111111)"/><path d="M1540 1226c0-3.3 2.7-6 6-6h128c3.3 0 6 2.7 6 6v68c0 3.3-2.7 6-6 6h-128c-3.3 0-6-2.7-6-6z" stroke="#5e5e5e" stroke-width="3" fill="#ffeca9"/><use xlink:href="#P" transform="matrix(1,0,0,1,1552,1232) translate(3.1851851851851762 17.77777777777778)"/><use xlink:href="#s" transform="matrix(1,0,0,1,1552,1232) translate(21.02469135802469 44.44444444444444)"/><path d="M591.12 1066c0-3.3 2.7-6 6-6h128c3.3 0 6 2.7 6 6v68c0 3.3-2.7 6-6 6h-128c-3.3 0-6-2.7-6-6z" stroke="#5e5e5e" stroke-width="3" fill="#ffc374"/><use xlink:href="#Q" transform="matrix(1,0,0,1,603.1191335740072,1072) translate(29.60493827160494 17.77777777777778)"/><use xlink:href="#R" transform="matrix(1,0,0,1,603.1191335740072,1072) translate(25.345679012345684 44.44444444444444)"/><path d="M521.25 1022.5l.03.1.06.18.06.16.07.17.08.18.1.18.1.2.12.18.14.2.17.2.18.22.2.24.25.24.28.27.33.3.4.3.46.33.56.37.67.4.82.46 1.05.52 1.34.6 1.78.7 2.4.83 3.4 1.03 5.15 1.3 8.66 1.83 20 3.3 55.92 8.38 8.67 1.82 5.14 1.3.34.1" stroke="#5e5e5e" stroke-width="2" fill="none"/><path d="M522.14 1022.5l-2 .05-.02-1.05h2" fill="#5e5e5e"/><path d="M652.27 1056.76l-14.53-3.74 4.98-7.82z" stroke="#5e5e5e" stroke-width="2" fill="#5e5e5e"/><path d="M671 1184h-2v-1.33h2m-8.88-21.34h-2v-2.12h2m0-8.35h-2v-8.35h2" fill="#5e5e5e"/><path d="M662.12 1142.53h-2v-1.03h2M670 1199.26l-4.64-14.26h9.28z" fill="#5e5e5e"/><path d="M670 1202.5l-6-18.5h12m-9.26 2l3.26 10.03 3.26-10.03" fill="#5e5e5e"/><use xlink:href="#t" transform="matrix(1,0,0,1,625.1645050586086,1161.3333333333333) translate(0 14.222222222222223)"/><path d="M717.54 929.75l-.3 10.3-2-.07.3-10.3m2.94-30.8l-.63 20.58-2-.07.63-20.6m2.27-28.16l-.04 17.9h-2l.05-17.86-.1-2.68 2-.08m-2.15-27.16l.6 4.7h-2.03l-.55-4.4-.62-3.67 1.98-.34m-8.62-27.53l1.2 2.45 1.22 2.72 1.2 3.02 1.18 3.4 1.17 3.87.5 1.9-1.95.5-.48-1.87-1.14-3.8-1.16-3.3-1.16-2.96-1.18-2.64-1.18-2.38-1.06-1.93 1.75-.97m-22.9-20.45l1.76.74 1.7.8 1.62.85 1.56.9 1.53.95 1.47 1.02 1.43 1.1 1.4 1.14 1.35 1.24 1.33 1.3 1.33 1.4.4.45-1.53 1.3-.36-.42-1.26-1.34-1.27-1.24-1.3-1.18-1.32-1.1-1.36-1.03-1.4-.98-1.44-.92-1.5-.86-1.55-.8-1.62-.77-1.68-.7-.2-.1.7-1.86m-18.32-3.6l2.93.18 2.7.3 2.5.35-.3 1.98-2.44-.35-2.63-.27-2.85-.18-2.14-.05.04-2M662.55 783.35l-.04 2-1-.02v-2M720.83 941.15l-5.06 14.12-4.2-14.4z" fill="#5e5e5e"/><path d="M722.24 940.2l-6.57 18.3-5.45-18.68m5.64 12.2l3.57-9.92-6.52-.2" fill="#5e5e5e"/><g><use xlink:href="#S" transform="matrix(1,0,0,1,672.7698058369476,845.4708197836526) translate(0 14.222222222222223)"/></g><path d="M700 966c0-3.3 2.7-6 6-6h128c3.3 0 6 2.7 6 6v68c0 3.3-2.7 6-6 6H706c-3.3 0-6-2.7-6-6z" stroke="#5e5e5e" stroke-width="3" fill="#ffc374"/><g><use xlink:href="#Q" transform="matrix(1,0,0,1,712,972) translate(29.60493827160494 17.77777777777778)"/><use xlink:href="#R" transform="matrix(1,0,0,1,712,972) translate(25.345679012345684 44.44444444444444)"/></g><path d="M865.25 1123.03l4.62 3.98 3.57 3.35 2.92 2.98 2.48 2.75 2.14 2.6 1.88 2.46 1.66 2.4 1.5 2.34 1.32 2.3 1.2 2.3 1.07 2.27.97 2.3.87 2.32.76 2.35.07.25-1.93.54-.05-.2-.75-2.28-.84-2.24-.92-2.2-1.04-2.22-1.16-2.2-1.28-2.25-1.44-2.25-1.62-2.33-1.83-2.4-2.08-2.53-2.42-2.7-2.86-2.92-3.5-3.28-4.54-3.9-5.13-3.84h3.34m-62.37-76.3l.18 2.82.3 2.68.37 2.56.47 2.47.56 2.38.65 2.32.74 2.28.82 2.24.93 2.2 1.04 2.22 1.15 2.2 1.3 2.25 1.43 2.25 1.62 2.33 1.83 2.4 2.08 2.53 2.43 2.7 2.87 2.92 3.5 3.28 4.55 3.92 5.08 4h-3.23l-3.13-2.46-4.6-3.97-3.57-3.35-2.92-2.98-2.48-2.75-2.14-2.6-1.88-2.46-1.67-2.4-1.47-2.34-1.33-2.3-1.2-2.3-1.07-2.27-.97-2.3-.86-2.32-.77-2.35-.67-2.4-.58-2.48-.48-2.55-.4-2.64-.28-2.75-.18-2.9-.05-2.03 2-.04" fill="#5e5e5e"/><path d="M799.8 1042.5l-2 .05-.03-1.05h2M893.4 1175.3l-6.55-13.5 9.18-1.28z" fill="#5e5e5e"/><path d="M893.86 1178.5l-8.5-17.5 11.9-1.66m-8.9 3.27l4.6 9.5 1.84-10.4" fill="#5e5e5e"/><g><use xlink:href="#t" transform="matrix(1,0,0,1,805.8503493788173,1099.4291754405738) translate(0 14.222222222222223)"/></g><path d="M1130 446c0-3.3 2.7-6 6-6h128c3.3 0 6 2.7 6 6v68c0 3.3-2.7 6-6 6h-128c-3.3 0-6-2.7-6-6z" stroke="#5e5e5e" stroke-width="3" fill="#ffc374"/><g><use xlink:href="#Q" transform="matrix(1,0,0,1,1142,452) translate(29.60493827160494 17.77777777777778)"/><use xlink:href="#R" transform="matrix(1,0,0,1,1142,452) translate(25.345679012345684 44.44444444444444)"/></g><path d="M780 422c0-3.3 2.7-6 6-6h128c3.3 0 6 2.7 6 6v92c0 3.3-2.7 6-6 6H786c-3.3 0-6-2.7-6-6z" stroke="#5e5e5e" stroke-width="3" fill="#b2b2b2"/><g><use xlink:href="#E" transform="matrix(1,0,0,1,792,428) translate(3.8024691358024683 17.77777777777778)"/><use xlink:href="#F" transform="matrix(1,0,0,1,792,428) translate(14.203703703703702 44.44444444444444)"/><use xlink:href="#G" transform="matrix(1,0,0,1,792,428) translate(20.99382716049383 71.11111111111111)"/></g><path d="M811.38 371.63l6.9 3.4 5.15 2.83 4.05 2.45 3.3 2.2 2.75 2 2.32 1.84 2 1.7 1.72 1.63 1.5 1.54 1.33 1.48 1.17 1.4 1.03 1.38.76 1.1-1.64 1.13-.73-1.07-1-1.3-1.12-1.34-1.26-1.42-1.45-1.48-1.67-1.56-1.93-1.66-2.25-1.8-2.68-1.93-3.23-2.15-3.97-2.4-5.07-2.78-6.8-3.37-22.4-8.96h5.38m-92.15-61.72l.07 1.24.12 1.22.17 1.2.22 1.16.26 1.15.33 1.15.36 1.15.42 1.14.5 1.15.53 1.16.63 1.18.7 1.2.77 1.23.88 1.27.98 1.3 1.12 1.34 1.27 1.42 1.44 1.48 1.66 1.56 1.93 1.66 2.24 1.8 2.68 1.93 3.23 2.15 3.98 2.4 5.07 2.78 6.8 3.38 1.36.6h-4.65l-4.42-2.2-5.15-2.82-4.05-2.45-3.3-2.2-2.74-2-2.33-1.84-1.98-1.7-1.73-1.63-1.5-1.54-1.34-1.48-1.16-1.4-1.04-1.38-.93-1.32-.82-1.3-.72-1.27-.66-1.25-.58-1.24-.52-1.23-.45-1.22-.4-1.22-.34-1.23-.3-1.24-.23-1.24-.2-1.27-.13-1.3-.08-1.34-.02-.34 2-.04" fill="#5e5e5e"/><path d="M701.38 302.5l-2 .05-.02-1.05h2M849.03 411.4l-8.7-12.2 8.85-2.8z" fill="#5e5e5e"/><path d="M850 414.5l-11.28-15.85 11.47-3.6m-8.25 4.68l6.1 8.6.1-10.55" fill="#5e5e5e"/><g><use xlink:href="#T" transform="matrix(1,0,0,1,705.3117270935794,343.15344435201393) translate(0 14.222222222222223)"/></g><path d="M590 802.5v9" stroke="#5e5e5e" stroke-width="2" fill="none"/><path d="M591 802.53h-2v-1.03h2" fill="#5e5e5e"/><path d="M590 826.76l-4.64-14.26h9.28z" stroke="#5e5e5e" stroke-width="2" fill="#5e5e5e"/><path d="M1130 626c0-3.3 2.7-6 6-6h128c3.3 0 6 2.7 6 6v68c0 3.3-2.7 6-6 6h-128c-3.3 0-6-2.7-6-6z" stroke="#5e5e5e" stroke-width="3" fill="#5abaa7"/><g><use xlink:href="#U" transform="matrix(1,0,0,1,1142,632) translate(12.351851851851848 17.77777777777778)"/><use xlink:href="#s" transform="matrix(1,0,0,1,1142,632) translate(21.02469135802469 44.44444444444444)"/></g><path d="M1200.04 702.5v.22l.07.6.1.58.1.6.15.57.16.6.2.58.22.6.26.6.28.6.33.6.35.65.42.65.47.68.53.7.5.62m8.07 6.68l1.95 1.17 2.55 1.4 3.23 1.6 4.17 1.86 5.64 2.23 1.48.5m9.97 3.3l11.04 3.3 9.14 2.5m10.13 2.76l20.27 5.52m10.14 2.76l10.03 2.73 8.2 2.84 1.8.72m9.64 4.17l1.6.8 2.57 1.4 2.1 1.26 1.73 1.14 1.02.75" stroke="#5e5e5e" stroke-width="2" fill="none"/><path d="M1201.02 702.5l-2 .05-.02-1.05h2" fill="#5e5e5e"/><path d="M1348.3 775.75l-11.43-9.7 7.9-4.88z" stroke="#5e5e5e" stroke-width="2" fill="#5e5e5e"/><path d="M1280 786c0-3.3 2.7-6 6-6h128c3.3 0 6 2.7 6 6v68c0 3.3-2.7 6-6 6h-128c-3.3 0-6-2.7-6-6z" stroke="#5e5e5e" stroke-width="3" fill="#ffc374"/><g><use xlink:href="#Q" transform="matrix(1,0,0,1,1292,792) translate(29.60493827160494 17.77777777777778)"/><use xlink:href="#R" transform="matrix(1,0,0,1,1292,792) translate(25.345679012345684 44.44444444444444)"/></g><path d="M1350.02 862.5l.04 1.66.16 2.52.25 2.4.35 2.28.43 2.2.5 2.14.6 2.07.68 2.04.76 2 .84 2 .95 1.96 1.05 2 1.18 2 1.33 2.03 1.5 2.08 1.7 2.18 1.95 2.3 2.3 2.47 2.76 2.72 3.48 3.16 4.83 4.02 29.5 22.57 3.47 3.15 2.75 2.72 2.3 2.47 1.94 2.3 1.7 2.18 1.5 2.1 1.33 2.03 1.18 2 1.06 2 .96 1.96.85 2 .77 2 .05.13" stroke="#5e5e5e" stroke-width="2" fill="none"/><path d="M1351.02 862.5l-2 .05-.02-1.05h2" fill="#5e5e5e"/><path d="M1429.48 975.3l-6.9-13.32 9.16-1.5z" stroke="#5e5e5e" stroke-width="2" fill="#5e5e5e"/><defs><path fill="#333" d="M205 0l-28-72H64L36 0H1l101-248h38L239 0h-34zm-38-99l-47-123c-12 45-31 82-46 123h93" id="V"/><path fill="#333" d="M30-248c87 1 191-15 191 75 0 78-77 80-158 76V0H30v-248zm33 125c57 0 124 11 124-50 0-59-68-47-124-48v98" id="W"/><path fill="#333" d="M33 0v-248h34V0H33" id="X"/><g id="a"><use transform="matrix(0.06172839506172839,0,0,0.06172839506172839,0,0)" xlink:href="#V"/><use transform="matrix(0.06172839506172839,0,0,0.06172839506172839,14.814814814814813,0)" xlink:href="#W"/><use transform="matrix(0.06172839506172839,0,0,0.06172839506172839,29.629629629629626,0)" xlink:href="#X"/></g><path fill="#333" d="M240 0l2-218c-23 76-54 145-80 218h-23L58-218 59 0H30v-248h44l77 211c21-75 51-140 76-211h43V0h-30" id="Y"/><path fill="#333" d="M141-36C126-15 110 5 73 4 37 3 15-17 15-53c-1-64 63-63 125-63 3-35-9-54-41-54-24 1-41 7-42 31l-33-3c5-37 33-52 76-52 45 0 72 20 72 64v82c-1 20 7 32 28 27v20c-31 9-61-2-59-35zM48-53c0 20 12 33 32 33 41-3 63-29 60-74-43 2-92-5-92 41" id="Z"/><path fill="#333" d="M117-194c89-4 53 116 60 194h-32v-121c0-31-8-49-39-48C34-167 62-67 57 0H25l-1-190h30c1 10-1 24 2 32 11-22 29-35 61-36" id="aa"/><path fill="#333" d="M177-190C167-65 218 103 67 71c-23-6-38-20-44-43l32-5c15 47 100 32 89-28v-30C133-14 115 1 83 1 29 1 15-40 15-95c0-56 16-97 71-98 29-1 48 16 59 35 1-10 0-23 2-32h30zM94-22c36 0 50-32 50-73 0-42-14-75-50-75-39 0-46 34-46 75s6 73 46 73" id="ab"/><path fill="#333" d="M100-194c63 0 86 42 84 106H49c0 40 14 67 53 68 26 1 43-12 49-29l28 8c-11 28-37 45-77 45C44 4 14-33 15-96c1-61 26-98 85-98zm52 81c6-60-76-77-97-28-3 7-6 17-6 28h103" id="ac"/><path fill="#333" d="M210-169c-67 3-38 105-44 169h-31v-121c0-29-5-50-35-48C34-165 62-65 56 0H25l-1-190h30c1 10-1 24 2 32 10-44 99-50 107 0 11-21 27-35 58-36 85-2 47 119 55 194h-31v-121c0-29-5-49-35-48" id="ad"/><path fill="#333" d="M59-47c-2 24 18 29 38 22v24C64 9 27 4 27-40v-127H5v-23h24l9-43h21v43h35v23H59v120" id="ae"/><g id="b"><use transform="matrix(0.06172839506172839,0,0,0.06172839506172839,0,0)" xlink:href="#Y"/><use transform="matrix(0.06172839506172839,0,0,0.06172839506172839,18.456790123456788,0)" xlink:href="#Z"/><use transform="matrix(0.06172839506172839,0,0,0.06172839506172839,30.80246913580247,0)" xlink:href="#aa"/><use transform="matrix(0.06172839506172839,0,0,0.06172839506172839,43.148148148148145,0)" xlink:href="#Z"/><use transform="matrix(0.06172839506172839,0,0,0.06172839506172839,55.49382716049382,0)" xlink:href="#ab"/><use transform="matrix(0.06172839506172839,0,0,0.06172839506172839,67.8395061728395,0)" xlink:href="#ac"/><use transform="matrix(0.06172839506172839,0,0,0.06172839506172839,80.18518518518519,0)" xlink:href="#ad"/><use transform="matrix(0.06172839506172839,0,0,0.06172839506172839,98.64197530864197,0)" xlink:href="#ac"/><use transform="matrix(0.06172839506172839,0,0,0.06172839506172839,110.98765432098766,0)" xlink:href="#aa"/><use transform="matrix(0.06172839506172839,0,0,0.06172839506172839,123.33333333333334,0)" xlink:href="#ae"/></g><path fill="#333" d="M127-220V0H93v-220H8v-28h204v28h-85" id="af"/><path fill="#333" d="M106-169C34-169 62-67 57 0H25v-261h32l-1 103c12-21 28-36 61-36 89 0 53 116 60 194h-32v-121c2-32-8-49-39-48" id="ag"/><g id="c"><use transform="matrix(0.06172839506172839,0,0,0.06172839506172839,0,0)" xlink:href="#af"/><use transform="matrix(0.06172839506172839,0,0,0.06172839506172839,13.518518518518517,0)" xlink:href="#ag"/><use transform="matrix(0.06172839506172839,0,0,0.06172839506172839,25.864197530864196,0)" xlink:href="#ac"/></g><path fill="#333" d="M143 4C61 4 22-44 18-125c-5-107 100-154 193-111 17 8 29 25 37 43l-32 9c-13-25-37-40-76-40-61 0-88 39-88 99 0 61 29 100 91 101 35 0 62-11 79-27v-45h-74v-28h105v86C228-13 192 4 143 4" id="ah"/><path fill="#333" d="M100-194c62-1 85 37 85 99 1 63-27 99-86 99S16-35 15-95c0-66 28-99 85-99zM99-20c44 1 53-31 53-75 0-43-8-75-51-75s-53 32-53 75 10 74 51 75" id="ai"/><path fill="#333" d="M85-194c31 0 48 13 60 33l-1-100h32l1 261h-30c-2-10 0-23-3-31C134-8 116 4 85 4 32 4 16-35 15-94c0-66 23-100 70-100zm9 24c-40 0-46 34-46 75 0 40 6 74 45 74 42 0 51-32 51-76 0-42-9-74-50-73" id="aj"/><g id="d"><use transform="matrix(0.06172839506172839,0,0,0.06172839506172839,0,0)" xlink:href="#ah"/><use transform="matrix(0.06172839506172839,0,0,0.06172839506172839,17.28395061728395,0)" xlink:href="#ai"/><use transform="matrix(0.06172839506172839,0,0,0.06172839506172839,29.629629629629626,0)" xlink:href="#ai"/><use transform="matrix(0.06172839506172839,0,0,0.06172839506172839,41.9753086419753,0)" xlink:href="#aj"/></g><path fill="#333" d="M185-189c-5-48-123-54-124 2 14 75 158 14 163 119 3 78-121 87-175 55-17-10-28-26-33-46l33-7c5 56 141 63 141-1 0-78-155-14-162-118-5-82 145-84 179-34 5 7 8 16 11 25" id="ak"/><path fill="#333" d="M114-163C36-179 61-72 57 0H25l-1-190h30c1 12-1 29 2 39 6-27 23-49 58-41v29" id="al"/><g id="e"><use transform="matrix(0.06172839506172839,0,0,0.06172839506172839,0,0)" xlink:href="#ak"/><use transform="matrix(0.06172839506172839,0,0,0.06172839506172839,14.814814814814813,0)" xlink:href="#ae"/><use transform="matrix(0.06172839506172839,0,0,0.06172839506172839,20.98765432098765,0)" xlink:href="#ai"/><use transform="matrix(0.06172839506172839,0,0,0.06172839506172839,33.33333333333333,0)" xlink:href="#al"/><use transform="matrix(0.06172839506172839,0,0,0.06172839506172839,40.679012345679006,0)" xlink:href="#ac"/></g><path fill="#333" d="M232-93c-1 65-40 97-104 97C67 4 28-28 28-90v-158h33c8 89-33 224 67 224 102 0 64-133 71-224h33v155" id="am"/><g id="f"><use transform="matrix(0.06172839506172839,0,0,0.06172839506172839,0,0)" xlink:href="#am"/><use transform="matrix(0.06172839506172839,0,0,0.06172839506172839,15.987654320987653,0)" xlink:href="#X"/></g><path fill="#333" d="M84 4C-5 8 30-112 23-190h32v120c0 31 7 50 39 49 72-2 45-101 50-169h31l1 190h-30c-1-10 1-25-2-33-11 22-28 36-60 37" id="an"/><path fill="#333" d="M96-169c-40 0-48 33-48 73s9 75 48 75c24 0 41-14 43-38l32 2c-6 37-31 61-74 61-59 0-76-41-82-99-10-93 101-131 147-64 4 7 5 14 7 22l-32 3c-4-21-16-35-41-35" id="ao"/><g id="g"><use transform="matrix(0.06172839506172839,0,0,0.06172839506172839,0,0)" xlink:href="#W"/><use transform="matrix(0.06172839506172839,0,0,0.06172839506172839,14.814814814814813,0)" xlink:href="#al"/><use transform="matrix(0.06172839506172839,0,0,0.06172839506172839,22.160493827160494,0)" xlink:href="#ai"/><use transform="matrix(0.06172839506172839,0,0,0.06172839506172839,34.50617283950617,0)" xlink:href="#aj"/><use transform="matrix(0.06172839506172839,0,0,0.06172839506172839,46.85185185185185,0)" xlink:href="#an"/><use transform="matrix(0.06172839506172839,0,0,0.06172839506172839,59.197530864197525,0)" xlink:href="#ao"/><use transform="matrix(0.06172839506172839,0,0,0.06172839506172839,70.30864197530863,0)" xlink:href="#ae"/></g><path fill="#333" d="M108 0H70L1-190h34L89-25l56-165h34" id="ap"/><path fill="#333" d="M24-231v-30h32v30H24zM24 0v-190h32V0H24" id="aq"/><path fill="#333" d="M24 0v-261h32V0H24" id="ar"/><path fill="#333" d="M115-194c53 0 69 39 70 98 0 66-23 100-70 100C84 3 66-7 56-30L54 0H23l1-261h32v101c10-23 28-34 59-34zm-8 174c40 0 45-34 45-75 0-40-5-75-45-74-42 0-51 32-51 76 0 43 10 73 51 73" id="as"/><path fill="#333" d="M179-190L93 31C79 59 56 82 12 73V49c39 6 53-20 64-50L1-190h34L92-34l54-156h33" id="at"/><g id="h"><use transform="matrix(0.06172839506172839,0,0,0.06172839506172839,0,0)" xlink:href="#V"/><use transform="matrix(0.06172839506172839,0,0,0.06172839506172839,14.382716049382715,0)" xlink:href="#ap"/><use transform="matrix(0.06172839506172839,0,0,0.06172839506172839,25.493827160493826,0)" xlink:href="#Z"/><use transform="matrix(0.06172839506172839,0,0,0.06172839506172839,37.839506172839506,0)" xlink:href="#aq"/><use transform="matrix(0.06172839506172839,0,0,0.06172839506172839,42.71604938271605,0)" xlink:href="#ar"/><use transform="matrix(0.06172839506172839,0,0,0.06172839506172839,47.592592592592595,0)" xlink:href="#Z"/><use transform="matrix(0.06172839506172839,0,0,0.06172839506172839,59.93827160493827,0)" xlink:href="#aq"/><use transform="matrix(0.06172839506172839,0,0,0.06172839506172839,64.81481481481481,0)" xlink:href="#as"/><use transform="matrix(0.06172839506172839,0,0,0.06172839506172839,77.1604938271605,0)" xlink:href="#aq"/><use transform="matrix(0.06172839506172839,0,0,0.06172839506172839,82.03703703703704,0)" xlink:href="#ar"/><use transform="matrix(0.06172839506172839,0,0,0.06172839506172839,86.91358024691358,0)" xlink:href="#aq"/><use transform="matrix(0.06172839506172839,0,0,0.06172839506172839,91.79012345679013,0)" xlink:href="#ae"/><use transform="matrix(0.06172839506172839,0,0,0.06172839506172839,97.96296296296296,0)" xlink:href="#at"/></g><path fill="#333" d="M30 0v-248h187v28H63v79h144v27H63v87h162V0H30" id="au"/><path fill="#333" d="M135-143c-3-34-86-38-87 0 15 53 115 12 119 90S17 21 10-45l28-5c4 36 97 45 98 0-10-56-113-15-118-90-4-57 82-63 122-42 12 7 21 19 24 35" id="av"/><g id="i"><use transform="matrix(0.06172839506172839,0,0,0.06172839506172839,0,0)" xlink:href="#au"/><use transform="matrix(0.06172839506172839,0,0,0.06172839506172839,14.814814814814813,0)" xlink:href="#ap"/><use transform="matrix(0.06172839506172839,0,0,0.06172839506172839,25.925925925925924,0)" xlink:href="#ac"/><use transform="matrix(0.06172839506172839,0,0,0.06172839506172839,38.2716049382716,0)" xlink:href="#aa"/><use transform="matrix(0.06172839506172839,0,0,0.06172839506172839,50.61728395061728,0)" xlink:href="#ae"/><use transform="matrix(0.06172839506172839,0,0,0.06172839506172839,56.79012345679012,0)" xlink:href="#av"/></g><path fill="#333" d="M266 0h-40l-56-210L115 0H75L2-248h35L96-30l15-64 43-154h32l59 218 59-218h35" id="aw"/><g id="j"><use transform="matrix(0.06172839506172839,0,0,0.06172839506172839,0,0)" xlink:href="#aw"/><use transform="matrix(0.06172839506172839,0,0,0.06172839506172839,20.925925925925924,0)" xlink:href="#ag"/><use transform="matrix(0.06172839506172839,0,0,0.06172839506172839,33.2716049382716,0)" xlink:href="#ai"/><use transform="matrix(0.06172839506172839,0,0,0.06172839506172839,45.61728395061728,0)" xlink:href="#ar"/><use transform="matrix(0.06172839506172839,0,0,0.06172839506172839,50.49382716049382,0)" xlink:href="#ac"/><use transform="matrix(0.06172839506172839,0,0,0.06172839506172839,62.8395061728395,0)" xlink:href="#av"/><use transform="matrix(0.06172839506172839,0,0,0.06172839506172839,73.9506172839506,0)" xlink:href="#Z"/><use transform="matrix(0.06172839506172839,0,0,0.06172839506172839,86.29629629629629,0)" xlink:href="#ar"/><use transform="matrix(0.06172839506172839,0,0,0.06172839506172839,91.17283950617283,0)" xlink:href="#ac"/></g><g id="k"><use transform="matrix(0.06172839506172839,0,0,0.06172839506172839,0,0)" xlink:href="#W"/><use transform="matrix(0.06172839506172839,0,0,0.06172839506172839,14.814814814814813,0)" xlink:href="#al"/><use transform="matrix(0.06172839506172839,0,0,0.06172839506172839,22.160493827160494,0)" xlink:href="#aq"/><use transform="matrix(0.06172839506172839,0,0,0.06172839506172839,27.037037037037038,0)" xlink:href="#ao"/><use transform="matrix(0.06172839506172839,0,0,0.06172839506172839,38.14814814814815,0)" xlink:href="#aq"/><use transform="matrix(0.06172839506172839,0,0,0.06172839506172839,43.0246913580247,0)" xlink:href="#aa"/><use transform="matrix(0.06172839506172839,0,0,0.06172839506172839,55.370370370370374,0)" xlink:href="#ab"/></g><g id="l"><use transform="matrix(0.06172839506172839,0,0,0.06172839506172839,0,0)" xlink:href="#ak"/><use transform="matrix(0.06172839506172839,0,0,0.06172839506172839,14.814814814814813,0)" xlink:href="#ae"/><use transform="matrix(0.06172839506172839,0,0,0.06172839506172839,20.98765432098765,0)" xlink:href="#al"/><use transform="matrix(0.06172839506172839,0,0,0.06172839506172839,28.33333333333333,0)" xlink:href="#ac"/><use transform="matrix(0.06172839506172839,0,0,0.06172839506172839,40.679012345679006,0)" xlink:href="#Z"/><use transform="matrix(0.06172839506172839,0,0,0.06172839506172839,53.02469135802468,0)" xlink:href="#ad"/></g><path fill="#333" d="M30-248c118-7 216 8 213 122C240-48 200 0 122 0H30v-248zM63-27c89 8 146-16 146-99s-60-101-146-95v194" id="ax"/><path fill="#333" d="M115-194c55 1 70 41 70 98S169 2 115 4C84 4 66-9 55-30l1 105H24l-1-265h31l2 30c10-21 28-34 59-34zm-8 174c40 0 45-34 45-75s-6-73-45-74c-42 0-51 32-51 76 0 43 10 73 51 73" id="ay"/><g id="m"><use transform="matrix(0.06172839506172839,0,0,0.06172839506172839,0,0)" xlink:href="#ax"/><use transform="matrix(0.06172839506172839,0,0,0.06172839506172839,15.987654320987653,0)" xlink:href="#ac"/><use transform="matrix(0.06172839506172839,0,0,0.06172839506172839,28.333333333333332,0)" xlink:href="#ap"/><use transform="matrix(0.06172839506172839,0,0,0.06172839506172839,39.44444444444444,0)" xlink:href="#ac"/><use transform="matrix(0.06172839506172839,0,0,0.06172839506172839,51.79012345679012,0)" xlink:href="#ar"/><use transform="matrix(0.06172839506172839,0,0,0.06172839506172839,56.666666666666664,0)" xlink:href="#ai"/><use transform="matrix(0.06172839506172839,0,0,0.06172839506172839,69.01234567901234,0)" xlink:href="#ay"/><use transform="matrix(0.06172839506172839,0,0,0.06172839506172839,81.35802469135803,0)" xlink:href="#ac"/><use transform="matrix(0.06172839506172839,0,0,0.06172839506172839,93.70370370370371,0)" xlink:href="#al"/></g><g id="n"><use transform="matrix(0.06172839506172839,0,0,0.06172839506172839,0,0)" xlink:href="#W"/><use transform="matrix(0.06172839506172839,0,0,0.06172839506172839,14.814814814814813,0)" xlink:href="#ai"/><use transform="matrix(0.06172839506172839,0,0,0.06172839506172839,27.160493827160494,0)" xlink:href="#al"/><use transform="matrix(0.06172839506172839,0,0,0.06172839506172839,34.50617283950617,0)" xlink:href="#ae"/><use transform="matrix(0.06172839506172839,0,0,0.06172839506172839,40.67901234567901,0)" xlink:href="#Z"/><use transform="matrix(0.06172839506172839,0,0,0.06172839506172839,53.02469135802469,0)" xlink:href="#ar"/></g><g id="o"><use transform="matrix(0.06172839506172839,0,0,0.06172839506172839,0,0)" xlink:href="#W"/><use transform="matrix(0.06172839506172839,0,0,0.06172839506172839,14.814814814814813,0)" xlink:href="#an"/><use transform="matrix(0.06172839506172839,0,0,0.06172839506172839,27.160493827160494,0)" xlink:href="#as"/><use transform="matrix(0.06172839506172839,0,0,0.06172839506172839,39.50617283950617,0)" xlink:href="#ar"/><use transform="matrix(0.06172839506172839,0,0,0.06172839506172839,44.382716049382715,0)" xlink:href="#aq"/><use transform="matrix(0.06172839506172839,0,0,0.06172839506172839,49.25925925925926,0)" xlink:href="#av"/><use transform="matrix(0.06172839506172839,0,0,0.06172839506172839,60.37037037037037,0)" xlink:href="#ag"/><use transform="matrix(0.06172839506172839,0,0,0.06172839506172839,72.71604938271605,0)" xlink:href="#ac"/><use transform="matrix(0.06172839506172839,0,0,0.06172839506172839,85.06172839506173,0)" xlink:href="#al"/></g><g id="p"><use transform="matrix(0.06172839506172839,0,0,0.06172839506172839,0,0)" xlink:href="#V"/><use transform="matrix(0.06172839506172839,0,0,0.06172839506172839,14.814814814814813,0)" xlink:href="#W"/><use transform="matrix(0.06172839506172839,0,0,0.06172839506172839,29.629629629629626,0)" xlink:href="#X"/></g><path fill="#333" d="M206 0h-36l-40-164L89 0H53L-1-190h32L70-26l43-164h34l41 164 42-164h31" id="az"/><g id="q"><use transform="matrix(0.06172839506172839,0,0,0.06172839506172839,0,0)" xlink:href="#ah"/><use transform="matrix(0.06172839506172839,0,0,0.06172839506172839,17.28395061728395,0)" xlink:href="#Z"/><use transform="matrix(0.06172839506172839,0,0,0.06172839506172839,29.629629629629626,0)" xlink:href="#ae"/><use transform="matrix(0.06172839506172839,0,0,0.06172839506172839,35.80246913580247,0)" xlink:href="#ac"/><use transform="matrix(0.06172839506172839,0,0,0.06172839506172839,48.148148148148145,0)" xlink:href="#az"/><use transform="matrix(0.06172839506172839,0,0,0.06172839506172839,64.1358024691358,0)" xlink:href="#Z"/><use transform="matrix(0.06172839506172839,0,0,0.06172839506172839,76.48148148148148,0)" xlink:href="#at"/></g><path fill="#333" d="M140-251c81 0 123 46 123 126C263-46 219 4 140 4 59 4 17-45 17-125s42-126 123-126zm0 227c63 0 89-41 89-101s-29-99-89-99c-61 0-89 39-89 99S79-25 140-24" id="aA"/><g id="r"><use transform="matrix(0.06172839506172839,0,0,0.06172839506172839,0,0)" xlink:href="#aA"/><use transform="matrix(0.06172839506172839,0,0,0.06172839506172839,17.28395061728395,0)" xlink:href="#al"/><use transform="matrix(0.06172839506172839,0,0,0.06172839506172839,24.629629629629626,0)" xlink:href="#aj"/><use transform="matrix(0.06172839506172839,0,0,0.06172839506172839,36.9753086419753,0)" xlink:href="#ac"/><use transform="matrix(0.06172839506172839,0,0,0.06172839506172839,49.32098765432098,0)" xlink:href="#al"/></g><g id="s"><use transform="matrix(0.06172839506172839,0,0,0.06172839506172839,0,0)" xlink:href="#ak"/><use transform="matrix(0.06172839506172839,0,0,0.06172839506172839,14.814814814814813,0)" xlink:href="#ac"/><use transform="matrix(0.06172839506172839,0,0,0.06172839506172839,27.160493827160494,0)" xlink:href="#al"/><use transform="matrix(0.06172839506172839,0,0,0.06172839506172839,34.50617283950617,0)" xlink:href="#ap"/><use transform="matrix(0.06172839506172839,0,0,0.06172839506172839,45.61728395061728,0)" xlink:href="#aq"/><use transform="matrix(0.06172839506172839,0,0,0.06172839506172839,50.49382716049382,0)" xlink:href="#ao"/><use transform="matrix(0.06172839506172839,0,0,0.06172839506172839,61.60493827160494,0)" xlink:href="#ac"/></g><path fill="#333" d="M67-125c0 53 21 87 73 88 37 1 54-22 65-47l45 17C233-25 199 4 140 4 58 4 20-42 15-125 8-235 124-281 211-232c18 10 29 29 36 50l-46 12c-8-25-30-41-62-41-52 0-71 34-72 86" id="aB"/><path fill="#333" d="M110-194c64 0 96 36 96 99 0 64-35 99-97 99-61 0-95-36-95-99 0-62 34-99 96-99zm-1 164c35 0 45-28 45-65 0-40-10-65-43-65-34 0-45 26-45 65 0 36 10 65 43 65" id="aC"/><path fill="#333" d="M135-194c87-1 58 113 63 194h-50c-7-57 23-157-34-157-59 0-34 97-39 157H25l-1-190h47c2 12-1 28 3 38 12-26 28-41 61-42" id="aD"/><path fill="#333" d="M137-138c1-29-70-34-71-4 15 46 118 7 119 86 1 83-164 76-172 9l43-7c4 19 20 25 44 25 33 8 57-30 24-41C81-84 22-81 20-136c-2-80 154-74 161-7" id="aE"/><path fill="#333" d="M85 4C-2 5 27-109 22-190h50c7 57-23 150 33 157 60-5 35-97 40-157h50l1 190h-47c-2-12 1-28-3-38-12 25-28 42-61 42" id="aF"/><path fill="#333" d="M220-157c-53 9-28 100-34 157h-49v-107c1-27-5-49-29-50C55-147 81-57 75 0H25l-1-190h47c2 12-1 28 3 38 10-53 101-56 108 0 13-22 24-43 59-42 82 1 51 116 57 194h-49v-107c-1-25-5-48-29-50" id="aG"/><path fill="#333" d="M185-48c-13 30-37 53-82 52C43 2 14-33 14-96s30-98 90-98c62 0 83 45 84 108H66c0 31 8 55 39 56 18 0 30-7 34-22zm-45-69c5-46-57-63-70-21-2 6-4 13-4 21h74" id="aH"/><g id="t"><use transform="matrix(0.04938271604938272,0,0,0.04938271604938272,0,0)" xlink:href="#aB"/><use transform="matrix(0.04938271604938272,0,0,0.04938271604938272,12.790123456790125,0)" xlink:href="#aC"/><use transform="matrix(0.04938271604938272,0,0,0.04938271604938272,23.60493827160494,0)" xlink:href="#aD"/><use transform="matrix(0.04938271604938272,0,0,0.04938271604938272,34.41975308641975,0)" xlink:href="#aE"/><use transform="matrix(0.04938271604938272,0,0,0.04938271604938272,44.2962962962963,0)" xlink:href="#aF"/><use transform="matrix(0.04938271604938272,0,0,0.04938271604938272,55.111111111111114,0)" xlink:href="#aG"/><use transform="matrix(0.04938271604938272,0,0,0.04938271604938272,70.91358024691358,0)" xlink:href="#aH"/></g><path fill="#333" d="M195-6C206 82 75 100 31 46c-4-6-6-13-8-21l49-6c3 16 16 24 34 25 40 0 42-37 40-79-11 22-30 35-61 35-53 0-70-43-70-97 0-56 18-96 73-97 30 0 46 14 59 34l2-30h47zm-90-29c32 0 41-27 41-63 0-35-9-62-40-62-32 0-39 29-40 63 0 36 9 62 39 62" id="aI"/><g id="u"><use transform="matrix(0.04938271604938272,0,0,0.04938271604938272,0,0)" xlink:href="#aH"/><use transform="matrix(0.04938271604938272,0,0,0.04938271604938272,9.876543209876544,0)" xlink:href="#aI"/></g><path fill="#333" d="M240-174c0 40-23 61-54 70L253 0h-59l-57-94H76V0H24v-248c93 4 217-23 216 74zM76-134c48-2 112 12 112-38 0-48-66-32-112-35v73" id="aJ"/><path fill="#333" d="M24 0v-248h195v40H76v63h132v40H76v65h150V0H24" id="aK"/><path fill="#333" d="M169-182c-1-43-94-46-97-3 18 66 151 10 154 114 3 95-165 93-204 36-6-8-10-19-12-30l50-8c3 46 112 56 116 5-17-69-150-10-154-114-4-87 153-88 188-35 5 8 8 18 10 28" id="aL"/><path fill="#333" d="M136-208V0H84v-208H4v-40h212v40h-80" id="aM"/><path fill="#333" d="M4 7l51-268h42L46 7H4" id="aN"/><path fill="#333" d="M140-251c80 0 125 45 125 126S219 4 139 4C58 4 15-44 15-125s44-126 125-126zm-1 214c52 0 73-35 73-88 0-50-21-86-72-86-52 0-73 35-73 86s22 88 72 88" id="aO"/><path fill="#333" d="M135-194c53 0 70 44 70 98 0 56-19 98-73 100-31 1-45-17-59-34 3 33 2 69 2 105H25l-1-265h48c2 10 0 23 3 31 11-24 29-35 60-35zM114-30c33 0 39-31 40-66 0-38-9-64-40-64-56 0-55 130 0 130" id="aP"/><path fill="#333" d="M199 0l-22-63H83L61 0H9l90-248h61L250 0h-51zm-33-102l-36-108c-10 38-24 72-36 108h72" id="aQ"/><path fill="#333" d="M24-248c93 1 206-16 204 79-1 75-69 88-152 82V0H24v-248zm52 121c47 0 100 7 100-41 0-47-54-39-100-39v80" id="aR"/><path fill="#333" d="M24 0v-248h52V0H24" id="aS"/><g id="v"><use transform="matrix(0.04938271604938272,0,0,0.04938271604938272,0,0)" xlink:href="#aJ"/><use transform="matrix(0.04938271604938272,0,0,0.04938271604938272,12.790123456790125,0)" xlink:href="#aK"/><use transform="matrix(0.04938271604938272,0,0,0.04938271604938272,24.641975308641978,0)" xlink:href="#aL"/><use transform="matrix(0.04938271604938272,0,0,0.04938271604938272,36.49382716049383,0)" xlink:href="#aM"/><use transform="matrix(0.04938271604938272,0,0,0.04938271604938272,47.308641975308646,0)" xlink:href="#aN"/><use transform="matrix(0.04938271604938272,0,0,0.04938271604938272,52.24691358024692,0)" xlink:href="#aO"/><use transform="matrix(0.04938271604938272,0,0,0.04938271604938272,66.07407407407408,0)" xlink:href="#aP"/><use transform="matrix(0.04938271604938272,0,0,0.04938271604938272,76.88888888888889,0)" xlink:href="#aH"/><use transform="matrix(0.04938271604938272,0,0,0.04938271604938272,86.76543209876543,0)" xlink:href="#aD"/><use transform="matrix(0.04938271604938272,0,0,0.04938271604938272,97.58024691358024,0)" xlink:href="#aQ"/><use transform="matrix(0.04938271604938272,0,0,0.04938271604938272,110.37037037037035,0)" xlink:href="#aR"/><use transform="matrix(0.04938271604938272,0,0,0.04938271604938272,122.22222222222221,0)" xlink:href="#aS"/></g><g id="w"><use transform="matrix(0.06172839506172839,0,0,0.06172839506172839,0,0)" xlink:href="#aj"/><use transform="matrix(0.06172839506172839,0,0,0.06172839506172839,12.345679012345679,0)" xlink:href="#Z"/><use transform="matrix(0.06172839506172839,0,0,0.06172839506172839,24.691358024691358,0)" xlink:href="#ae"/><use transform="matrix(0.06172839506172839,0,0,0.06172839506172839,30.864197530864196,0)" xlink:href="#Z"/></g><g id="x"><use transform="matrix(0.06172839506172839,0,0,0.06172839506172839,0,0)" xlink:href="#av"/><use transform="matrix(0.06172839506172839,0,0,0.06172839506172839,11.11111111111111,0)" xlink:href="#ae"/><use transform="matrix(0.06172839506172839,0,0,0.06172839506172839,17.28395061728395,0)" xlink:href="#ai"/><use transform="matrix(0.06172839506172839,0,0,0.06172839506172839,29.629629629629626,0)" xlink:href="#al"/><use transform="matrix(0.06172839506172839,0,0,0.06172839506172839,36.9753086419753,0)" xlink:href="#ac"/></g><path fill="#333" d="M121-226c-27-7-43 5-38 36h38v33H83V0H34v-157H6v-33h28c-9-59 32-81 87-68v32" id="aT"/><path fill="#333" d="M25-224v-37h50v37H25zM25 0v-190h50V0H25" id="aU"/><path fill="#333" d="M135-150c-39-12-60 13-60 57V0H25l-1-190h47c2 13-1 29 3 40 6-28 27-53 61-41v41" id="aV"/><g id="y"><use transform="matrix(0.04938271604938272,0,0,0.04938271604938272,0,0)" xlink:href="#aB"/><use transform="matrix(0.04938271604938272,0,0,0.04938271604938272,12.790123456790125,0)" xlink:href="#aC"/><use transform="matrix(0.04938271604938272,0,0,0.04938271604938272,23.60493827160494,0)" xlink:href="#aD"/><use transform="matrix(0.04938271604938272,0,0,0.04938271604938272,34.41975308641975,0)" xlink:href="#aT"/><use transform="matrix(0.04938271604938272,0,0,0.04938271604938272,40.2962962962963,0)" xlink:href="#aU"/><use transform="matrix(0.04938271604938272,0,0,0.04938271604938272,45.23456790123457,0)" xlink:href="#aV"/><use transform="matrix(0.04938271604938272,0,0,0.04938271604938272,52.14814814814815,0)" xlink:href="#aG"/></g><path fill="#333" d="M212-179c-10-28-35-45-73-45-59 0-87 40-87 99 0 60 29 101 89 101 43 0 62-24 78-52l27 14C228-24 195 4 139 4 59 4 22-46 18-125c-6-104 99-153 187-111 19 9 31 26 39 46" id="aW"/><g id="z"><use transform="matrix(0.06172839506172839,0,0,0.06172839506172839,0,0)" xlink:href="#aW"/><use transform="matrix(0.06172839506172839,0,0,0.06172839506172839,15.987654320987653,0)" xlink:href="#an"/><use transform="matrix(0.06172839506172839,0,0,0.06172839506172839,28.333333333333332,0)" xlink:href="#av"/><use transform="matrix(0.06172839506172839,0,0,0.06172839506172839,39.44444444444444,0)" xlink:href="#ae"/><use transform="matrix(0.06172839506172839,0,0,0.06172839506172839,45.617283950617285,0)" xlink:href="#ai"/><use transform="matrix(0.06172839506172839,0,0,0.06172839506172839,57.96296296296296,0)" xlink:href="#ad"/><use transform="matrix(0.06172839506172839,0,0,0.06172839506172839,76.41975308641975,0)" xlink:href="#ac"/><use transform="matrix(0.06172839506172839,0,0,0.06172839506172839,88.76543209876543,0)" xlink:href="#al"/></g><g id="A"><use transform="matrix(0.06172839506172839,0,0,0.06172839506172839,0,0)" xlink:href="#W"/><use transform="matrix(0.06172839506172839,0,0,0.06172839506172839,14.814814814814813,0)" xlink:href="#Z"/><use transform="matrix(0.06172839506172839,0,0,0.06172839506172839,27.160493827160494,0)" xlink:href="#at"/><use transform="matrix(0.06172839506172839,0,0,0.06172839506172839,38.27160493827161,0)" xlink:href="#ad"/><use transform="matrix(0.06172839506172839,0,0,0.06172839506172839,56.72839506172839,0)" xlink:href="#ac"/><use transform="matrix(0.06172839506172839,0,0,0.06172839506172839,69.07407407407408,0)" xlink:href="#aa"/><use transform="matrix(0.06172839506172839,0,0,0.06172839506172839,81.41975308641976,0)" xlink:href="#ae"/></g><path fill="#333" d="M63-220v92h138v28H63V0H30v-248h175v28H63" id="aX"/><path fill="#333" d="M101-234c-31-9-42 10-38 44h38v23H63V0H32v-167H5v-23h27c-7-52 17-82 69-68v24" id="aY"/><g id="B"><use transform="matrix(0.06172839506172839,0,0,0.06172839506172839,0,0)" xlink:href="#aX"/><use transform="matrix(0.06172839506172839,0,0,0.06172839506172839,13.518518518518517,0)" xlink:href="#an"/><use transform="matrix(0.06172839506172839,0,0,0.06172839506172839,25.864197530864196,0)" xlink:href="#ar"/><use transform="matrix(0.06172839506172839,0,0,0.06172839506172839,30.74074074074074,0)" xlink:href="#aY"/><use transform="matrix(0.06172839506172839,0,0,0.06172839506172839,36.91358024691358,0)" xlink:href="#aq"/><use transform="matrix(0.06172839506172839,0,0,0.06172839506172839,41.79012345679013,0)" xlink:href="#ar"/><use transform="matrix(0.06172839506172839,0,0,0.06172839506172839,46.66666666666667,0)" xlink:href="#ar"/><use transform="matrix(0.06172839506172839,0,0,0.06172839506172839,51.543209876543216,0)" xlink:href="#ad"/><use transform="matrix(0.06172839506172839,0,0,0.06172839506172839,70,0)" xlink:href="#ac"/><use transform="matrix(0.06172839506172839,0,0,0.06172839506172839,82.34567901234568,0)" xlink:href="#aa"/><use transform="matrix(0.06172839506172839,0,0,0.06172839506172839,94.69135802469137,0)" xlink:href="#ae"/></g><path fill="#333" d="M233-177c-1 41-23 64-60 70L243 0h-38l-65-103H63V0H30v-248c88 3 205-21 203 71zM63-129c60-2 137 13 137-47 0-61-80-42-137-45v92" id="aZ"/><g id="C"><use transform="matrix(0.06172839506172839,0,0,0.06172839506172839,0,0)" xlink:href="#aZ"/><use transform="matrix(0.06172839506172839,0,0,0.06172839506172839,15.987654320987653,0)" xlink:href="#ac"/><use transform="matrix(0.06172839506172839,0,0,0.06172839506172839,28.333333333333332,0)" xlink:href="#ao"/><use transform="matrix(0.06172839506172839,0,0,0.06172839506172839,39.44444444444444,0)" xlink:href="#ac"/><use transform="matrix(0.06172839506172839,0,0,0.06172839506172839,51.79012345679012,0)" xlink:href="#aq"/><use transform="matrix(0.06172839506172839,0,0,0.06172839506172839,56.666666666666664,0)" xlink:href="#ay"/><use transform="matrix(0.06172839506172839,0,0,0.06172839506172839,69.01234567901234,0)" xlink:href="#ae"/></g><path fill="#333" d="M30 0v-248h33v221h125V0H30" id="ba"/><g id="D"><use transform="matrix(0.06172839506172839,0,0,0.06172839506172839,0,0)" xlink:href="#ba"/><use transform="matrix(0.06172839506172839,0,0,0.06172839506172839,12.345679012345679,0)" xlink:href="#ai"/><use transform="matrix(0.06172839506172839,0,0,0.06172839506172839,24.691358024691358,0)" xlink:href="#at"/><use transform="matrix(0.06172839506172839,0,0,0.06172839506172839,35.80246913580247,0)" xlink:href="#Z"/><use transform="matrix(0.06172839506172839,0,0,0.06172839506172839,48.148148148148145,0)" xlink:href="#ar"/><use transform="matrix(0.06172839506172839,0,0,0.06172839506172839,53.02469135802469,0)" xlink:href="#ae"/><use transform="matrix(0.06172839506172839,0,0,0.06172839506172839,59.19753086419753,0)" xlink:href="#at"/></g><g id="E"><use transform="matrix(0.06172839506172839,0,0,0.06172839506172839,0,0)" xlink:href="#W"/><use transform="matrix(0.06172839506172839,0,0,0.06172839506172839,14.814814814814813,0)" xlink:href="#al"/><use transform="matrix(0.06172839506172839,0,0,0.06172839506172839,22.160493827160494,0)" xlink:href="#ai"/><use transform="matrix(0.06172839506172839,0,0,0.06172839506172839,34.50617283950617,0)" xlink:href="#ay"/><use transform="matrix(0.06172839506172839,0,0,0.06172839506172839,46.85185185185185,0)" xlink:href="#al"/><use transform="matrix(0.06172839506172839,0,0,0.06172839506172839,54.197530864197525,0)" xlink:href="#aq"/><use transform="matrix(0.06172839506172839,0,0,0.06172839506172839,59.07407407407407,0)" xlink:href="#ac"/><use transform="matrix(0.06172839506172839,0,0,0.06172839506172839,71.41975308641975,0)" xlink:href="#ae"/><use transform="matrix(0.06172839506172839,0,0,0.06172839506172839,77.59259259259258,0)" xlink:href="#Z"/><use transform="matrix(0.06172839506172839,0,0,0.06172839506172839,89.93827160493827,0)" xlink:href="#al"/><use transform="matrix(0.06172839506172839,0,0,0.06172839506172839,97.28395061728395,0)" xlink:href="#at"/></g><g id="F"><use transform="matrix(0.06172839506172839,0,0,0.06172839506172839,0,0)" xlink:href="#W"/><use transform="matrix(0.06172839506172839,0,0,0.06172839506172839,14.814814814814813,0)" xlink:href="#Z"/><use transform="matrix(0.06172839506172839,0,0,0.06172839506172839,27.160493827160494,0)" xlink:href="#at"/><use transform="matrix(0.06172839506172839,0,0,0.06172839506172839,38.27160493827161,0)" xlink:href="#ad"/><use transform="matrix(0.06172839506172839,0,0,0.06172839506172839,56.72839506172839,0)" xlink:href="#ac"/><use transform="matrix(0.06172839506172839,0,0,0.06172839506172839,69.07407407407408,0)" xlink:href="#aa"/><use transform="matrix(0.06172839506172839,0,0,0.06172839506172839,81.41975308641976,0)" xlink:href="#ae"/></g><g id="G"><use transform="matrix(0.06172839506172839,0,0,0.06172839506172839,0,0)" xlink:href="#ak"/><use transform="matrix(0.06172839506172839,0,0,0.06172839506172839,14.814814814814813,0)" xlink:href="#at"/><use transform="matrix(0.06172839506172839,0,0,0.06172839506172839,25.925925925925924,0)" xlink:href="#av"/><use transform="matrix(0.06172839506172839,0,0,0.06172839506172839,37.03703703703704,0)" xlink:href="#ae"/><use transform="matrix(0.06172839506172839,0,0,0.06172839506172839,43.20987654320988,0)" xlink:href="#ac"/><use transform="matrix(0.06172839506172839,0,0,0.06172839506172839,55.55555555555556,0)" xlink:href="#ad"/></g><path fill="#333" d="M135-194c52 0 70 43 70 98 0 56-19 99-73 100-30 1-46-15-58-35L72 0H24l1-261h50v104c11-23 29-37 60-37zM114-30c31 0 40-27 40-66 0-37-7-63-39-63s-41 28-41 65c0 36 8 64 40 64" id="bb"/><path fill="#333" d="M25 0v-261h50V0H25" id="bc"/><path fill="#333" d="M114-157C55-157 80-60 75 0H25v-261h50l-1 109c12-26 28-41 61-42 86-1 58 113 63 194h-50c-7-57 23-157-34-157" id="bd"/><g id="H"><use transform="matrix(0.04938271604938272,0,0,0.04938271604938272,0,0)" xlink:href="#aR"/><use transform="matrix(0.04938271604938272,0,0,0.04938271604938272,11.851851851851853,0)" xlink:href="#aF"/><use transform="matrix(0.04938271604938272,0,0,0.04938271604938272,22.666666666666668,0)" xlink:href="#bb"/><use transform="matrix(0.04938271604938272,0,0,0.04938271604938272,33.48148148148148,0)" xlink:href="#bc"/><use transform="matrix(0.04938271604938272,0,0,0.04938271604938272,38.41975308641975,0)" xlink:href="#aU"/><use transform="matrix(0.04938271604938272,0,0,0.04938271604938272,43.358024691358025,0)" xlink:href="#aE"/><use transform="matrix(0.04938271604938272,0,0,0.04938271604938272,53.23456790123457,0)" xlink:href="#bd"/></g><path fill="#333" d="M24 0v-54h51V0H24" id="be"/><g id="I"><use transform="matrix(0.04938271604938272,0,0,0.04938271604938272,0,0)" xlink:href="#aH"/><use transform="matrix(0.04938271604938272,0,0,0.04938271604938272,9.876543209876544,0)" xlink:href="#be"/><use transform="matrix(0.04938271604938272,0,0,0.04938271604938272,14.814814814814817,0)" xlink:href="#aI"/><use transform="matrix(0.04938271604938272,0,0,0.04938271604938272,25.629629629629633,0)" xlink:href="#be"/></g><path fill="#333" d="M133-34C117-15 103 5 69 4 32 3 11-16 11-54c-1-60 55-63 116-61 1-26-3-47-28-47-18 1-26 9-28 27l-52-2c7-38 36-58 82-57s74 22 75 68l1 82c-1 14 12 18 25 15v27c-30 8-71 5-69-32zm-48 3c29 0 43-24 42-57-32 0-66-3-65 30 0 17 8 27 23 27" id="bf"/><path fill="#333" d="M115-3C79 11 28 4 28-45v-112H4v-33h27l15-45h31v45h36v33H77v99c-1 23 16 31 38 25v30" id="bg"/><path fill="#333" d="M230 0l2-204L168 0h-37L68-204 70 0H24v-248h70l56 185 57-185h69V0h-46" id="bh"/><path fill="#333" d="M140-251c80 0 125 45 125 126 0 70-33 111-92 124 6 28 34 38 68 31l-1 36C177 83 129 55 120 2 51-6 15-50 15-125c0-81 44-126 125-126zm-1 214c52 0 73-35 73-88 0-50-21-86-72-86-52 0-73 35-73 86s22 88 72 88" id="bi"/><g id="J"><use transform="matrix(0.04938271604938272,0,0,0.04938271604938272,0,0)" xlink:href="#aJ"/><use transform="matrix(0.04938271604938272,0,0,0.04938271604938272,12.790123456790125,0)" xlink:href="#bf"/><use transform="matrix(0.04938271604938272,0,0,0.04938271604938272,22.66666666666667,0)" xlink:href="#bb"/><use transform="matrix(0.04938271604938272,0,0,0.04938271604938272,33.48148148148149,0)" xlink:href="#bb"/><use transform="matrix(0.04938271604938272,0,0,0.04938271604938272,44.296296296296305,0)" xlink:href="#aU"/><use transform="matrix(0.04938271604938272,0,0,0.04938271604938272,49.23456790123458,0)" xlink:href="#bg"/><use transform="matrix(0.04938271604938272,0,0,0.04938271604938272,55.111111111111114,0)" xlink:href="#bh"/><use transform="matrix(0.04938271604938272,0,0,0.04938271604938272,69.87654320987656,0)" xlink:href="#bi"/></g><g id="K"><use transform="matrix(0.04938271604938272,0,0,0.04938271604938272,0,0)" xlink:href="#aR"/><use transform="matrix(0.04938271604938272,0,0,0.04938271604938272,11.851851851851853,0)" xlink:href="#aF"/><use transform="matrix(0.04938271604938272,0,0,0.04938271604938272,22.666666666666668,0)" xlink:href="#bb"/><use transform="matrix(0.04938271604938272,0,0,0.04938271604938272,33.48148148148148,0)" xlink:href="#bc"/><use transform="matrix(0.04938271604938272,0,0,0.04938271604938272,38.41975308641975,0)" xlink:href="#aU"/><use transform="matrix(0.04938271604938272,0,0,0.04938271604938272,43.358024691358025,0)" xlink:href="#aE"/><use transform="matrix(0.04938271604938272,0,0,0.04938271604938272,53.23456790123457,0)" xlink:href="#bd"/></g><g id="L"><use transform="matrix(0.04938271604938272,0,0,0.04938271604938272,0,0)" xlink:href="#aJ"/><use transform="matrix(0.04938271604938272,0,0,0.04938271604938272,12.790123456790125,0)" xlink:href="#aK"/><use transform="matrix(0.04938271604938272,0,0,0.04938271604938272,24.641975308641978,0)" xlink:href="#aL"/><use transform="matrix(0.04938271604938272,0,0,0.04938271604938272,36.49382716049383,0)" xlink:href="#aM"/></g><g id="M"><use transform="matrix(0.06172839506172839,0,0,0.06172839506172839,0,0)" xlink:href="#W"/><use transform="matrix(0.06172839506172839,0,0,0.06172839506172839,14.814814814814813,0)" xlink:href="#al"/><use transform="matrix(0.06172839506172839,0,0,0.06172839506172839,22.160493827160494,0)" xlink:href="#ai"/><use transform="matrix(0.06172839506172839,0,0,0.06172839506172839,34.50617283950617,0)" xlink:href="#aj"/><use transform="matrix(0.06172839506172839,0,0,0.06172839506172839,46.85185185185185,0)" xlink:href="#an"/><use transform="matrix(0.06172839506172839,0,0,0.06172839506172839,59.197530864197525,0)" xlink:href="#ao"/><use transform="matrix(0.06172839506172839,0,0,0.06172839506172839,70.30864197530863,0)" xlink:href="#ae"/></g><g id="N"><use transform="matrix(0.06172839506172839,0,0,0.06172839506172839,0,0)" xlink:href="#aW"/><use transform="matrix(0.06172839506172839,0,0,0.06172839506172839,15.987654320987653,0)" xlink:href="#Z"/><use transform="matrix(0.06172839506172839,0,0,0.06172839506172839,28.333333333333332,0)" xlink:href="#ae"/><use transform="matrix(0.06172839506172839,0,0,0.06172839506172839,34.50617283950617,0)" xlink:href="#Z"/><use transform="matrix(0.06172839506172839,0,0,0.06172839506172839,46.85185185185185,0)" xlink:href="#ar"/><use transform="matrix(0.06172839506172839,0,0,0.06172839506172839,51.72839506172839,0)" xlink:href="#ai"/><use transform="matrix(0.06172839506172839,0,0,0.06172839506172839,64.07407407407408,0)" xlink:href="#ab"/><use transform="matrix(0.06172839506172839,0,0,0.06172839506172839,76.41975308641976,0)" xlink:href="#an"/><use transform="matrix(0.06172839506172839,0,0,0.06172839506172839,88.76543209876544,0)" xlink:href="#ac"/></g><g id="O"><use transform="matrix(0.06172839506172839,0,0,0.06172839506172839,0,0)" xlink:href="#ak"/><use transform="matrix(0.06172839506172839,0,0,0.06172839506172839,14.814814814814813,0)" xlink:href="#ag"/><use transform="matrix(0.06172839506172839,0,0,0.06172839506172839,27.160493827160494,0)" xlink:href="#aq"/><use transform="matrix(0.06172839506172839,0,0,0.06172839506172839,32.03703703703704,0)" xlink:href="#ay"/><use transform="matrix(0.06172839506172839,0,0,0.06172839506172839,44.382716049382715,0)" xlink:href="#ay"/><use transform="matrix(0.06172839506172839,0,0,0.06172839506172839,56.72839506172839,0)" xlink:href="#aq"/><use transform="matrix(0.06172839506172839,0,0,0.06172839506172839,61.60493827160494,0)" xlink:href="#aa"/><use transform="matrix(0.06172839506172839,0,0,0.06172839506172839,73.95061728395062,0)" xlink:href="#ab"/></g><path fill="#333" d="M190 0L58-211 59 0H30v-248h39L202-35l-2-213h31V0h-41" id="bj"/><g id="P"><use transform="matrix(0.06172839506172839,0,0,0.06172839506172839,0,0)" xlink:href="#bj"/><use transform="matrix(0.06172839506172839,0,0,0.06172839506172839,15.987654320987653,0)" xlink:href="#ai"/><use transform="matrix(0.06172839506172839,0,0,0.06172839506172839,28.333333333333332,0)" xlink:href="#ae"/><use transform="matrix(0.06172839506172839,0,0,0.06172839506172839,34.50617283950617,0)" xlink:href="#aq"/><use transform="matrix(0.06172839506172839,0,0,0.06172839506172839,39.382716049382715,0)" xlink:href="#aY"/><use transform="matrix(0.06172839506172839,0,0,0.06172839506172839,45.55555555555556,0)" xlink:href="#aq"/><use transform="matrix(0.06172839506172839,0,0,0.06172839506172839,50.4320987654321,0)" xlink:href="#ao"/><use transform="matrix(0.06172839506172839,0,0,0.06172839506172839,61.543209876543216,0)" xlink:href="#Z"/><use transform="matrix(0.06172839506172839,0,0,0.06172839506172839,73.8888888888889,0)" xlink:href="#ae"/><use transform="matrix(0.06172839506172839,0,0,0.06172839506172839,80.06172839506173,0)" xlink:href="#aq"/><use transform="matrix(0.06172839506172839,0,0,0.06172839506172839,84.93827160493828,0)" xlink:href="#ai"/><use transform="matrix(0.06172839506172839,0,0,0.06172839506172839,97.28395061728396,0)" xlink:href="#aa"/></g><g id="Q"><use transform="matrix(0.06172839506172839,0,0,0.06172839506172839,0,0)" xlink:href="#au"/><use transform="matrix(0.06172839506172839,0,0,0.06172839506172839,14.814814814814813,0)" xlink:href="#ap"/><use transform="matrix(0.06172839506172839,0,0,0.06172839506172839,25.925925925925924,0)" xlink:href="#ac"/><use transform="matrix(0.06172839506172839,0,0,0.06172839506172839,38.2716049382716,0)" xlink:href="#aa"/><use transform="matrix(0.06172839506172839,0,0,0.06172839506172839,50.61728395061728,0)" xlink:href="#ae"/></g><path fill="#333" d="M160-131c35 5 61 23 61 61C221 17 115-2 30 0v-248c76 3 177-17 177 60 0 33-19 50-47 57zm-97-11c50-1 110 9 110-42 0-47-63-36-110-37v79zm0 115c55-2 124 14 124-45 0-56-70-42-124-44v89" id="bk"/><path fill="#333" d="M143 0L79-87 56-68V0H24v-261h32v163l83-92h37l-77 82L181 0h-38" id="bl"/><g id="R"><use transform="matrix(0.06172839506172839,0,0,0.06172839506172839,0,0)" xlink:href="#bk"/><use transform="matrix(0.06172839506172839,0,0,0.06172839506172839,14.814814814814813,0)" xlink:href="#al"/><use transform="matrix(0.06172839506172839,0,0,0.06172839506172839,22.160493827160494,0)" xlink:href="#ai"/><use transform="matrix(0.06172839506172839,0,0,0.06172839506172839,34.50617283950617,0)" xlink:href="#bl"/><use transform="matrix(0.06172839506172839,0,0,0.06172839506172839,45.61728395061728,0)" xlink:href="#ac"/><use transform="matrix(0.06172839506172839,0,0,0.06172839506172839,57.962962962962955,0)" xlink:href="#al"/></g><path fill="#333" d="M88-194c31-1 46 15 58 34l-1-101h50l1 261h-48c-2-10 0-23-3-31C134-8 116 4 84 4 32 4 16-41 15-95c0-56 19-97 73-99zm17 164c33 0 40-30 41-66 1-37-9-64-41-64s-38 30-39 65c0 43 13 65 39 65" id="bm"/><g id="S"><use transform="matrix(0.04938271604938272,0,0,0.04938271604938272,0,0)" xlink:href="#aB"/><use transform="matrix(0.04938271604938272,0,0,0.04938271604938272,12.790123456790125,0)" xlink:href="#aC"/><use transform="matrix(0.04938271604938272,0,0,0.04938271604938272,23.60493827160494,0)" xlink:href="#aD"/><use transform="matrix(0.04938271604938272,0,0,0.04938271604938272,34.41975308641975,0)" xlink:href="#aT"/><use transform="matrix(0.04938271604938272,0,0,0.04938271604938272,40.2962962962963,0)" xlink:href="#aU"/><use transform="matrix(0.04938271604938272,0,0,0.04938271604938272,45.23456790123457,0)" xlink:href="#aV"/><use transform="matrix(0.04938271604938272,0,0,0.04938271604938272,52.14814814814815,0)" xlink:href="#aG"/><use transform="matrix(0.04938271604938272,0,0,0.04938271604938272,67.95061728395062,0)" xlink:href="#aH"/><use transform="matrix(0.04938271604938272,0,0,0.04938271604938272,77.82716049382717,0)" xlink:href="#bm"/></g><path fill="#333" d="M147 0L96-86 75-71V0H25v-261h50v150l67-79h53l-66 74L201 0h-54" id="bn"/><g id="T"><use transform="matrix(0.04938271604938272,0,0,0.04938271604938272,0,0)" xlink:href="#aI"/><use transform="matrix(0.04938271604938272,0,0,0.04938271604938272,10.814814814814815,0)" xlink:href="#aH"/><use transform="matrix(0.04938271604938272,0,0,0.04938271604938272,20.69135802469136,0)" xlink:href="#bg"/><use transform="matrix(0.04938271604938272,0,0,0.04938271604938272,26.567901234567902,0)" xlink:href="#aQ"/><use transform="matrix(0.04938271604938272,0,0,0.04938271604938272,39.35802469135803,0)" xlink:href="#aF"/><use transform="matrix(0.04938271604938272,0,0,0.04938271604938272,50.17283950617285,0)" xlink:href="#bg"/><use transform="matrix(0.04938271604938272,0,0,0.04938271604938272,56.0493827160494,0)" xlink:href="#bd"/><use transform="matrix(0.04938271604938272,0,0,0.04938271604938272,66.8641975308642,0)" xlink:href="#aM"/><use transform="matrix(0.04938271604938272,0,0,0.04938271604938272,76.34567901234568,0)" xlink:href="#aC"/><use transform="matrix(0.04938271604938272,0,0,0.04938271604938272,87.1604938271605,0)" xlink:href="#bn"/><use transform="matrix(0.04938271604938272,0,0,0.04938271604938272,97.03703703703704,0)" xlink:href="#aH"/><use transform="matrix(0.04938271604938272,0,0,0.04938271604938272,106.91358024691358,0)" xlink:href="#aD"/></g><g id="U"><use transform="matrix(0.06172839506172839,0,0,0.06172839506172839,0,0)" xlink:href="#X"/><use transform="matrix(0.06172839506172839,0,0,0.06172839506172839,6.172839506172839,0)" xlink:href="#aa"/><use transform="matrix(0.06172839506172839,0,0,0.06172839506172839,18.51851851851852,0)" xlink:href="#ap"/><use transform="matrix(0.06172839506172839,0,0,0.06172839506172839,29.62962962962963,0)" xlink:href="#ac"/><use transform="matrix(0.06172839506172839,0,0,0.06172839506172839,41.97530864197531,0)" xlink:href="#aa"/><use transform="matrix(0.06172839506172839,0,0,0.06172839506172839,54.32098765432099,0)" xlink:href="#ae"/><use transform="matrix(0.06172839506172839,0,0,0.06172839506172839,60.49382716049383,0)" xlink:href="#ai"/><use transform="matrix(0.06172839506172839,0,0,0.06172839506172839,72.8395061728395,0)" xlink:href="#al"/><use transform="matrix(0.06172839506172839,0,0,0.06172839506172839,80.18518518518519,0)" xlink:href="#at"/></g></defs></g></svg>