<?xml version="1.0" encoding="utf-8"?>
<svg viewBox="0 0 1620.25 398.17" xmlns="http://www.w3.org/2000/svg">
  <g id="graph0" class="graph" transform="matrix(1, 0, 0, 1, 4, 394.170013)">
    <title>ContextMapGraph</title>
    <polygon fill="white" stroke="transparent" points="-4,4 -4,-394.17 1616.25,-394.17 1616.25,4 -4,4"/>
    <g id="node1" class="node">
      <title>AdministrationContext</title>
      <polygon fill="none" stroke="black" stroke-width="2" points="422.14,-344.29 421.69,-347.15 420.86,-349.99 419.64,-352.79 418.04,-355.55 416.07,-358.24 413.73,-360.87 411.02,-363.41 407.95,-365.87 404.53,-368.22 400.77,-370.47 396.68,-372.61 392.28,-374.62 387.56,-376.5 382.55,-378.25 377.26,-379.86 371.7,-381.33 365.89,-382.65 359.85,-383.82 353.59,-384.85 347.12,-385.72 340.48,-386.44 333.67,-387.01 326.71,-387.43 319.63,-387.71 312.44,-387.84 305.17,-387.83 297.83,-387.69 290.45,-387.41 283.04,-387 275.63,-386.47 268.23,-385.83 260.87,-385.07 253.57,-384.21 246.35,-383.24 239.23,-382.18 232.23,-381.04 225.37,-379.81 218.66,-378.51 212.13,-377.14 205.8,-375.71 199.67,-374.22 193.78,-372.67 188.13,-371.08 182.74,-369.44 177.62,-367.77 172.8,-366.06 168.27,-364.32 164.07,-362.55 160.18,-360.76 156.64,-358.95 153.44,-357.12 150.59,-355.28 148.11,-353.42 146,-351.55 144.25,-349.67 142.89,-347.78 141.91,-345.88 141.31,-343.98 141.1,-342.07 141.27,-340.16 141.82,-338.25 142.76,-336.33 144.08,-334.42 145.77,-332.51 147.83,-330.6 150.26,-328.7 153.04,-326.81 156.17,-324.92 159.64,-323.05 163.45,-321.2 167.57,-319.37 172,-317.56 176.73,-315.77 181.74,-314.03 187.02,-312.31 192.55,-310.64 198.33,-309.02 204.33,-307.45 210.53,-305.94 216.93,-304.5 223.51,-303.13 230.23,-301.83 237.1,-300.62 244.09,-299.51 251.18,-298.49 258.35,-297.57 265.58,-296.76 272.85,-296.07 280.15,-295.51 287.46,-295.07 294.75,-294.76 302,-294.6 309.2,-294.57 316.32,-294.69 323.36,-294.96 330.28,-295.39 337.07,-295.96 343.71,-296.69 350.19,-297.57 356.48,-298.61 362.57,-299.8 368.44,-301.15 374.08,-302.64 379.47,-304.28 384.6,-306.05 389.44,-307.96 394,-310 398.25,-312.16 402.19,-314.44 405.8,-316.82 409.07,-319.3 412,-321.87 414.57,-324.52 416.78,-327.23 418.62,-330 420.09,-332.81 421.17,-335.66 421.88,-338.53 422.2,-341.41 422.14,-344.29"/>
      <text text-anchor="middle" x="281.62" y="-337.7" font-family="sans-serif" font-size="16.00" style="white-space: pre;">AdministrationContext</text>
    </g>
    <g id="node2" class="node">
      <title>CustomerContext</title>
      <polygon fill="none" stroke="black" stroke-width="2" points="1126.54,-344.29 1126.17,-347.15 1125.47,-349.99 1124.46,-352.79 1123.13,-355.55 1121.49,-358.24 1119.54,-360.87 1117.29,-363.41 1114.73,-365.87 1111.89,-368.22 1108.76,-370.47 1105.36,-372.61 1101.69,-374.62 1097.77,-376.5 1093.6,-378.25 1089.2,-379.86 1084.57,-381.33 1079.74,-382.65 1074.71,-383.82 1069.5,-384.85 1064.12,-385.72 1058.59,-386.44 1052.93,-387.01 1047.14,-387.43 1041.25,-387.71 1035.27,-387.84 1029.22,-387.83 1023.11,-387.69 1016.96,-387.41 1010.8,-387 1004.63,-386.47 998.48,-385.83 992.36,-385.07 986.29,-384.21 980.28,-383.24 974.35,-382.18 968.53,-381.04 962.82,-379.81 957.24,-378.51 951.8,-377.14 946.53,-375.71 941.43,-374.22 936.53,-372.67 931.83,-371.08 927.34,-369.44 923.09,-367.77 919.07,-366.06 915.31,-364.32 911.81,-362.55 908.58,-360.76 905.63,-358.95 902.97,-357.12 900.6,-355.28 898.53,-353.42 896.77,-351.55 895.32,-349.67 894.19,-347.78 893.37,-345.88 892.87,-343.98 892.7,-342.07 892.84,-340.16 893.3,-338.25 894.08,-336.33 895.18,-334.42 896.58,-332.51 898.3,-330.6 900.32,-328.7 902.63,-326.81 905.24,-324.92 908.13,-323.05 911.29,-321.2 914.72,-319.37 918.41,-317.56 922.34,-315.77 926.51,-314.03 930.9,-312.31 935.51,-310.64 940.32,-309.02 945.31,-307.45 950.47,-305.94 955.8,-304.5 961.27,-303.13 966.86,-301.83 972.58,-300.62 978.39,-299.51 984.29,-298.49 990.25,-297.57 996.27,-296.76 1002.33,-296.07 1008.4,-295.51 1014.48,-295.07 1020.54,-294.76 1026.58,-294.6 1032.57,-294.57 1038.5,-294.69 1044.35,-294.96 1050.11,-295.39 1055.76,-295.96 1061.28,-296.69 1066.67,-297.57 1071.91,-298.61 1076.97,-299.8 1081.86,-301.15 1086.55,-302.64 1091.04,-304.28 1095.3,-306.05 1099.34,-307.96 1103.13,-310 1106.66,-312.16 1109.94,-314.44 1112.94,-316.82 1115.67,-319.3 1118.1,-321.87 1120.24,-324.52 1122.08,-327.23 1123.61,-330 1124.83,-332.81 1125.74,-335.66 1126.33,-338.53 1126.59,-341.41 1126.54,-344.29"/>
      <text text-anchor="middle" x="1009.62" y="-337.7" font-family="sans-serif" font-size="16.00" style="white-space: pre;">CustomerContext</text>
    </g>
    <g id="node3" class="node">
      <title>FulfillmentContext</title>
      <polygon fill="none" stroke="black" stroke-width="2" points="671.19,-228.14 665.2,-226.26 659.47,-224.3 654.03,-222.27 648.89,-220.17 644.08,-218.01 639.61,-215.81 635.52,-213.57 631.81,-211.29 628.5,-208.99 625.6,-206.68 623.13,-204.35 621.09,-202.01 619.49,-199.69 618.34,-197.37 617.64,-195.07 617.4,-192.79 617.6,-190.54 618.25,-188.32 619.34,-186.14 620.87,-184.01 622.82,-181.92 625.18,-179.89 627.94,-177.91 631.09,-175.99 634.61,-174.14 638.48,-172.35 642.68,-170.63 647.2,-168.98 652,-167.4 657.07,-165.9 662.39,-164.47 667.93,-163.12 673.67,-161.86 679.59,-160.67 685.65,-159.57 691.85,-158.55 698.14,-157.61 704.52,-156.76 710.95,-156 717.42,-155.32 723.91,-154.73 730.39,-154.23 736.84,-153.82 743.25,-153.51 749.59,-153.28 755.86,-153.15 762.03,-153.11 768.1,-153.16 774.04,-153.31 779.85,-153.55 785.52,-153.89 791.03,-154.33 796.38,-154.87 801.57,-155.5 806.58,-156.24 811.4,-157.07 816.04,-158 820.49,-159.03 824.75,-160.16 828.81,-161.38 832.68,-162.7 836.34,-164.11 839.8,-165.62 843.06,-167.22 846.11,-168.91 848.96,-170.69 851.61,-172.54 854.04,-174.48 856.27,-176.49 858.28,-178.58 860.08,-180.73 861.67,-182.94 863.04,-185.21 864.19,-187.53 865.11,-189.89 865.81,-192.29 866.28,-194.72 866.51,-197.17 866.51,-199.63 866.26,-202.11 865.76,-204.58 865.01,-207.04 864,-209.48 862.73,-211.9 861.2,-214.28 859.4,-216.61 857.32,-218.9 854.96,-221.12 852.33,-223.27 849.42,-225.34 846.22,-227.33 842.75,-229.22 838.99,-231.02 834.96,-232.7 830.65,-234.27 826.07,-235.72 821.23,-237.04 816.12,-238.22 810.78,-239.27 805.19,-240.18 799.37,-240.95 793.35,-241.57 787.12,-242.04 780.72,-242.36 774.14,-242.52 767.42,-242.54 760.58,-242.4 753.63,-242.11 746.6,-241.68 739.52,-241.09 732.4,-240.37 725.27,-239.5 718.16,-238.5 711.1,-237.37 704.1,-236.11 697.21,-234.73 690.45,-233.24 683.84,-231.64 677.41,-229.94 671.19,-228.14"/>
      <text text-anchor="middle" x="751.62" y="-191.39" font-family="sans-serif" font-size="16.00" style="white-space: pre;">FulfillmentContext</text>
    </g>
    <g id="edge1" class="edge">
      <title>CustomerContext-&gt;FulfillmentContext</title>
      <path fill="none" stroke="black" stroke-width="2" d="M927,-313.61C899.86,-303.23 870.14,-290.14 844.62,-274.83 828.85,-265.37 813.05,-253.25 799.08,-241.38"/>
      <text text-anchor="middle" x="920.12" y="-265.23" font-family="sans-serif" font-size="12.00" style="white-space: pre;">                                        </text>
      <polygon fill="white" stroke="transparent" points="793.08,-232.38 793.08,-249.38 806.08,-249.38 806.08,-232.38 793.08,-232.38"/>
      <text text-anchor="start" x="795.08" y="-237.78" font-family="sans-serif" font-size="12.00" style="white-space: pre;">D</text>
      <polygon fill="white" stroke="transparent" points="894,-303.61 894,-322.61 909,-322.61 909,-303.61 894,-303.61"/>
      <polyline fill="none" stroke="black" points="909,-303.61 909,-322.61 "/>
      <text text-anchor="start" x="897" y="-310.01" font-family="sans-serif" font-size="12.00" style="white-space: pre;">U</text>
      <polygon fill="white" stroke="transparent" points="909,-303.61 909,-322.61 960,-322.61 960,-303.61 909,-303.61"/>
      <polygon fill="none" stroke="black" points="909,-303.61 909,-322.61 960,-322.61 960,-303.61 909,-303.61"/>
      <text text-anchor="start" x="912" y="-310.01" font-family="sans-serif" font-size="12.00" style="white-space: pre;">OHS, PL</text>
    </g>
    <g id="node4" class="node">
      <title>OrderContext</title>
      <polygon fill="none" stroke="black" stroke-width="2" points="497.33,-20.87 501.33,-18.65 505.52,-16.51 509.87,-14.47 514.38,-12.55 519.01,-10.73 523.77,-9.05 528.62,-7.49 533.56,-6.07 538.56,-4.8 543.62,-3.67 548.71,-2.7 553.82,-1.88 558.93,-1.22 564.04,-0.73 569.12,-0.4 574.16,-0.23 579.16,-0.22 584.09,-0.38 588.95,-0.7 593.72,-1.18 598.4,-1.81 602.97,-2.59 607.43,-3.52 611.77,-4.59 615.98,-5.8 620.06,-7.13 623.99,-8.59 627.77,-10.16 631.4,-11.84 634.87,-13.62 638.18,-15.49 641.32,-17.45 644.29,-19.48 647.09,-21.57 649.7,-23.72 652.14,-25.92 654.39,-28.16 656.45,-30.44 658.33,-32.73 660.01,-35.05 661.5,-37.37 662.79,-39.69 663.87,-42.01 664.76,-44.31 665.44,-46.59 665.91,-48.85 666.18,-51.08 666.23,-53.27 666.07,-55.42 665.69,-57.53 665.09,-59.58 664.28,-61.59 663.24,-63.54 661.98,-65.43 660.49,-67.27 658.79,-69.04 656.86,-70.75 654.7,-72.39 652.32,-73.97 649.73,-75.47 646.91,-76.91 643.88,-78.29 640.63,-79.59 637.18,-80.82 633.52,-81.98 629.67,-83.07 625.63,-84.09 621.4,-85.04 617,-85.91 612.44,-86.71 607.72,-87.43 602.87,-88.08 597.88,-88.66 592.77,-89.15 587.56,-89.57 582.27,-89.9 576.9,-90.16 571.48,-90.32 566.01,-90.41 560.53,-90.4 555.04,-90.31 549.56,-90.12 544.12,-89.84 538.73,-89.47 533.42,-89 528.19,-88.43 523.07,-87.76 518.08,-86.98 513.24,-86.11 508.56,-85.13 504.07,-84.04 499.77,-82.85 495.7,-81.56 491.85,-80.16 488.25,-78.66 484.92,-77.06 481.85,-75.35 479.08,-73.55 476.6,-71.66 474.42,-69.67 472.56,-67.6 471.02,-65.45 469.81,-63.21 468.92,-60.91 468.37,-58.54 468.14,-56.12 468.25,-53.64 468.7,-51.12 469.46,-48.57 470.56,-45.99 471.96,-43.4 473.68,-40.79 475.7,-38.19 478.01,-35.6 480.6,-33.03 483.46,-30.5 486.58,-28 489.94,-25.56 493.53,-23.18 497.33,-20.87"/>
      <text text-anchor="middle" x="572.62" y="-44.97" font-family="sans-serif" font-size="16.00" style="white-space: pre;">OrderContext</text>
    </g>
    <g id="edge2" class="edge">
      <title>FulfillmentContext-&gt;OrderContext</title>
      <path fill="none" stroke="black" stroke-width="2" d="M744.44,-153.17C740.44,-139.89 734.23,-125.93 724.62,-115.55 706.27,-95.71 680.9,-81.57 656.14,-71.62"/>
      <text text-anchor="middle" x="771.62" y="-118.95" font-family="sans-serif" font-size="12.00" style="white-space: pre;">Shared Kernel</text>
    </g>
    <g id="edge4" class="edge">
      <title>FulfillmentContext-&gt;OrderContext</title>
      <path fill="none" stroke="black" stroke-width="2" d="M662.15,-164.4C617.68,-149.17 572.69,-132.92 569.62,-128.55 561.99,-117.69 560.58,-103.75 561.76,-90.62"/>
      <text text-anchor="middle" x="645.12" y="-118.95" font-family="sans-serif" font-size="12.00" style="white-space: pre;">                                        </text>
      <polygon fill="white" stroke="transparent" points="555.76,-81.62 555.76,-98.62 568.76,-98.62 568.76,-81.62 555.76,-81.62"/>
      <text text-anchor="start" x="557.76" y="-87.02" font-family="sans-serif" font-size="12.00" style="white-space: pre;">D</text>
      <polygon fill="white" stroke="transparent" points="639.15,-154.4 639.15,-173.4 654.15,-173.4 654.15,-154.4 639.15,-154.4"/>
      <polyline fill="none" stroke="black" points="654.15,-154.4 654.15,-173.4 "/>
      <text text-anchor="start" x="642.15" y="-160.8" font-family="sans-serif" font-size="12.00" style="white-space: pre;">U</text>
      <polygon fill="white" stroke="transparent" points="654.15,-154.4 654.15,-173.4 685.15,-173.4 685.15,-154.4 654.15,-154.4"/>
      <polygon fill="none" stroke="black" points="654.15,-154.4 654.15,-173.4 685.15,-173.4 685.15,-154.4 654.15,-154.4"/>
      <text text-anchor="start" x="657.15" y="-160.8" font-family="sans-serif" font-size="12.00" style="white-space: pre;">OHS</text>
    </g>
    <g id="node5" class="node">
      <title>LoyaltyContext</title>
      <polygon fill="none" stroke="black" stroke-width="2" points="1015.92,-90.06 1009.58,-91.04 1003.18,-91.91 996.75,-92.65 990.31,-93.27 983.9,-93.75 977.53,-94.11 971.23,-94.32 965.02,-94.4 958.92,-94.34 952.96,-94.14 947.16,-93.8 941.53,-93.33 936.09,-92.71 930.85,-91.96 925.84,-91.07 921.06,-90.05 916.52,-88.91 912.24,-87.63 908.22,-86.24 904.48,-84.73 901,-83.11 897.81,-81.39 894.89,-79.56 892.26,-77.64 889.91,-75.64 887.84,-73.56 886.05,-71.4 884.53,-69.18 883.29,-66.9 882.31,-64.57 881.59,-62.21 881.12,-59.81 880.9,-57.38 880.91,-54.94 881.16,-52.49 881.64,-50.05 882.33,-47.61 883.22,-45.18 884.32,-42.78 885.62,-40.41 887.1,-38.07 888.76,-35.79 890.59,-33.55 892.59,-31.37 894.76,-29.26 897.08,-27.21 899.55,-25.24 902.18,-23.35 904.95,-21.54 907.86,-19.82 910.91,-18.19 914.09,-16.66 917.41,-15.23 920.86,-13.89 924.44,-12.66 928.15,-11.54 931.99,-10.52 935.94,-9.61 940.02,-8.8 944.22,-8.11 948.53,-7.52 952.95,-7.04 957.48,-6.67 962.11,-6.41 966.85,-6.26 971.67,-6.21 976.58,-6.27 981.57,-6.43 986.62,-6.7 991.73,-7.06 996.9,-7.53 1002.09,-8.09 1007.32,-8.75 1012.55,-9.5 1017.78,-10.35 1023,-11.28 1028.18,-12.3 1033.3,-13.41 1038.36,-14.59 1043.33,-15.86 1048.2,-17.21 1052.94,-18.63 1057.53,-20.12 1061.97,-21.68 1066.21,-23.31 1070.26,-25.01 1074.09,-26.76 1077.67,-28.58 1081,-30.44 1084.05,-32.36 1086.8,-34.33 1089.25,-36.34 1091.37,-38.39 1093.15,-40.47 1094.59,-42.59 1095.66,-44.73 1096.36,-46.9 1096.68,-49.08 1096.63,-51.28 1096.18,-53.49 1095.34,-55.69 1094.11,-57.89 1092.5,-60.09 1090.49,-62.27 1088.11,-64.43 1085.36,-66.56 1082.24,-68.65 1078.77,-70.71 1074.96,-72.72 1070.83,-74.68 1066.39,-76.59 1061.65,-78.42 1056.65,-80.19 1051.4,-81.88 1045.92,-83.48 1040.24,-85 1034.37,-86.42 1028.34,-87.74 1022.19,-88.95 1015.92,-90.06"/>
      <text text-anchor="middle" x="981.62" y="-44.97" font-family="sans-serif" font-size="16.00" style="white-space: pre;">LoyaltyContext</text>
    </g>
    <g id="edge3" class="edge">
      <title>FulfillmentContext-&gt;LoyaltyContext</title>
      <path fill="none" stroke="black" stroke-width="2" d="M811.15,-156.81C844.03,-136.17 884.86,-110.53 918.32,-89.52"/>
      <text text-anchor="middle" x="949.12" y="-118.95" font-family="sans-serif" font-size="12.00" style="white-space: pre;">                                        </text>
      <polygon fill="white" stroke="transparent" points="912.32,-80.52 912.32,-97.52 925.32,-97.52 925.32,-80.52 912.32,-80.52"/>
      <text text-anchor="start" x="914.32" y="-85.92" font-family="sans-serif" font-size="12.00" style="white-space: pre;">D</text>
      <polygon fill="white" stroke="transparent" points="778.15,-146.81 778.15,-165.81 793.15,-165.81 793.15,-146.81 778.15,-146.81"/>
      <polyline fill="none" stroke="black" points="793.15,-146.81 793.15,-165.81 "/>
      <text text-anchor="start" x="781.15" y="-153.21" font-family="sans-serif" font-size="12.00" style="white-space: pre;">U</text>
      <polygon fill="white" stroke="transparent" points="793.15,-146.81 793.15,-165.81 844.15,-165.81 844.15,-146.81 793.15,-146.81"/>
      <polygon fill="none" stroke="black" points="793.15,-146.81 793.15,-165.81 844.15,-165.81 844.15,-146.81 793.15,-146.81"/>
      <text text-anchor="start" x="796.15" y="-153.21" font-family="sans-serif" font-size="12.00" style="white-space: pre;">OHS, PL</text>
    </g>
    <g id="edge5" class="edge">
      <title>OrderContext-&gt;CustomerContext</title>
      <path fill="none" stroke="black" stroke-width="2" d="M662.02,-65.62C718.12,-75.35 792,-87.77 857.62,-97.55 888.21,-102.11 974.51,-92.96 995.62,-115.55 1007.58,-128.34 1009.66,-233.22 1009.83,-295.16"/>
      <text text-anchor="middle" x="1046.62" y="-192.09" font-family="sans-serif" font-size="12.00" style="white-space: pre;">Shared Kernel</text>
    </g>
    <g id="edge6" class="edge">
      <title>LoyaltyContext-&gt;CustomerContext</title>
      <path fill="none" stroke="black" stroke-width="2" d="M1037.45,-85.85C1057.15,-101.83 1077.01,-122.5 1087.62,-146.55 1105.07,-186.11 1102.02,-203.06 1087.62,-243.83 1080.94,-262.74 1068.82,-280.67 1056.1,-295.83"/>
      <text text-anchor="middle" x="1175.12" y="-192.09" font-family="sans-serif" font-size="12.00" style="white-space: pre;">                                        </text>
      <polygon fill="white" stroke="transparent" points="1050.1,-286.83 1050.1,-303.83 1063.1,-303.83 1063.1,-286.83 1050.1,-286.83"/>
      <text text-anchor="start" x="1052.1" y="-292.23" font-family="sans-serif" font-size="12.00" style="white-space: pre;">D</text>
      <polygon fill="white" stroke="transparent" points="1004.45,-75.85 1004.45,-94.85 1019.45,-94.85 1019.45,-75.85 1004.45,-75.85"/>
      <polyline fill="none" stroke="black" points="1019.45,-75.85 1019.45,-94.85 "/>
      <text text-anchor="start" x="1007.45" y="-82.25" font-family="sans-serif" font-size="12.00" style="white-space: pre;">U</text>
      <polygon fill="white" stroke="transparent" points="1019.45,-75.85 1019.45,-94.85 1070.45,-94.85 1070.45,-75.85 1019.45,-75.85"/>
      <polygon fill="none" stroke="black" points="1019.45,-75.85 1019.45,-94.85 1070.45,-94.85 1070.45,-75.85 1019.45,-75.85"/>
      <text text-anchor="start" x="1022.45" y="-82.25" font-family="sans-serif" font-size="12.00" style="white-space: pre;">OHS, PL</text>
    </g>
    <g id="node6" class="node">
      <title>InventoryContext</title>
      <polygon fill="none" stroke="black" stroke-width="2" points="446.69,-328.91 448.77,-326.14 451.15,-323.43 453.81,-320.78 456.75,-318.2 459.96,-315.71 463.42,-313.32 467.14,-311.02 471.09,-308.84 475.26,-306.78 479.64,-304.85 484.23,-303.06 489,-301.4 493.94,-299.9 499.03,-298.54 504.27,-297.34 509.65,-296.3 515.13,-295.42 520.72,-294.7 526.4,-294.14 532.14,-293.74 537.95,-293.51 543.8,-293.43 549.67,-293.5 555.56,-293.73 561.45,-294.11 567.32,-294.63 573.17,-295.29 578.97,-296.08 584.72,-296.99 590.39,-298.03 595.99,-299.18 601.48,-300.44 606.86,-301.79 612.12,-303.24 617.25,-304.77 622.22,-306.38 627.04,-308.06 631.68,-309.8 636.14,-311.6 640.4,-313.44 644.46,-315.33 648.3,-317.25 651.92,-319.2 655.29,-321.18 658.43,-323.17 661.3,-325.18 663.92,-327.19 666.26,-329.21 668.33,-331.23 670.11,-333.25 671.6,-335.25 672.8,-337.25 673.7,-339.24 674.29,-341.22 674.57,-343.17 674.54,-345.11 674.2,-347.03 673.54,-348.93 672.57,-350.81 671.29,-352.66 669.7,-354.49 667.79,-356.29 665.58,-358.07 663.07,-359.81 660.26,-361.53 657.16,-363.22 653.78,-364.87 650.12,-366.49 646.19,-368.07 642.01,-369.61 637.58,-371.11 632.91,-372.56 628.03,-373.97 622.93,-375.32 617.63,-376.62 612.16,-377.86 606.52,-379.04 600.73,-380.15 594.81,-381.19 588.77,-382.15 582.64,-383.03 576.42,-383.82 570.15,-384.51 563.83,-385.11 557.49,-385.61 551.14,-386 544.81,-386.28 538.52,-386.44 532.28,-386.48 526.11,-386.4 520.04,-386.18 514.07,-385.84 508.24,-385.35 502.55,-384.74 497.03,-383.98 491.68,-383.08 486.54,-382.04 481.6,-380.86 476.9,-379.55 472.43,-378.09 468.22,-376.5 464.28,-374.78 460.61,-372.92 457.24,-370.95 454.16,-368.86 451.38,-366.65 448.92,-364.34 446.78,-361.93 444.96,-359.43 443.46,-356.86 442.3,-354.21 441.47,-351.5 440.98,-348.73 440.82,-345.93 440.99,-343.1 441.48,-340.25 442.31,-337.39 443.46,-334.54 444.92,-331.71 446.69,-328.91"/>
      <text text-anchor="middle" x="558.62" y="-337.7" font-family="sans-serif" font-size="16.00" style="white-space: pre;">InventoryContext</text>
    </g>
    <g id="edge8" class="edge">
      <title>InventoryContext-&gt;FulfillmentContext</title>
      <path fill="none" stroke="black" stroke-width="2" d="M609.58,-302.39C637.28,-281.69 671.47,-256.12 699.37,-235.26"/>
      <text text-anchor="middle" x="737.12" y="-265.23" font-family="sans-serif" font-size="12.00" style="white-space: pre;">                                        </text>
      <polygon fill="white" stroke="transparent" points="693.37,-226.26 693.37,-243.26 706.37,-243.26 706.37,-226.26 693.37,-226.26"/>
      <text text-anchor="start" x="695.37" y="-231.66" font-family="sans-serif" font-size="12.00" style="white-space: pre;">D</text>
      <polygon fill="white" stroke="transparent" points="592.58,-292.39 592.58,-311.39 607.58,-311.39 607.58,-292.39 592.58,-292.39"/>
      <polyline fill="none" stroke="black" points="607.58,-292.39 607.58,-311.39 "/>
      <text text-anchor="start" x="595.58" y="-298.79" font-family="sans-serif" font-size="12.00" style="white-space: pre;">U</text>
      <polygon fill="white" stroke="transparent" points="607.58,-292.39 607.58,-311.39 626.58,-311.39 626.58,-292.39 607.58,-292.39"/>
      <polygon fill="none" stroke="black" points="607.58,-292.39 607.58,-311.39 626.58,-311.39 626.58,-292.39 607.58,-292.39"/>
      <text text-anchor="start" x="610.58" y="-298.79" font-family="sans-serif" font-size="12.00" style="white-space: pre;">PL</text>
    </g>
    <g id="node7" class="node">
      <title>ProductCatalogueContext</title>
      <polygon fill="none" stroke="black" stroke-width="2" points="484.48,-235.99 475.03,-237.13 465.47,-238.14 455.85,-239.04 446.19,-239.8 436.54,-240.43 426.94,-240.93 417.41,-241.29 408,-241.5 398.73,-241.58 389.64,-241.51 380.77,-241.3 372.12,-240.94 363.75,-240.45 355.66,-239.81 347.88,-239.03 340.42,-238.11 333.32,-237.05 326.58,-235.87 320.22,-234.56 314.24,-233.12 308.66,-231.57 303.49,-229.9 298.72,-228.13 294.36,-226.25 290.41,-224.29 286.88,-222.24 283.75,-220.1 281.03,-217.9 278.71,-215.64 276.79,-213.32 275.25,-210.95 274.08,-208.54 273.29,-206.11 272.86,-203.65 272.77,-201.18 273.03,-198.7 273.62,-196.23 274.53,-193.77 275.74,-191.32 277.26,-188.91 279.07,-186.52 281.16,-184.18 283.52,-181.89 286.15,-179.65 289.04,-177.47 292.18,-175.36 295.57,-173.32 299.2,-171.36 303.07,-169.48 307.16,-167.68 311.49,-165.97 316.04,-164.36 320.81,-162.84 325.8,-161.42 331,-160.1 336.42,-158.89 342.05,-157.78 347.88,-156.77 353.92,-155.87 360.17,-155.07 366.6,-154.39 373.23,-153.81 380.04,-153.34 387.03,-152.97 394.18,-152.71 401.5,-152.56 408.96,-152.5 416.57,-152.56 424.29,-152.71 432.13,-152.97 440.05,-153.32 448.05,-153.77 456.11,-154.32 464.2,-154.96 472.3,-155.69 480.39,-156.51 488.45,-157.42 496.44,-158.42 504.35,-159.51 512.13,-160.67 519.77,-161.92 527.24,-163.24 534.5,-164.64 541.52,-166.12 548.28,-167.67 554.75,-169.28 560.89,-170.96 566.67,-172.71 572.07,-174.51 577.06,-176.38 581.62,-178.3 585.71,-180.27 589.32,-182.28 592.42,-184.34 594.99,-186.44 597.02,-188.58 598.5,-190.74 599.4,-192.93 599.73,-195.15 599.46,-197.38 598.61,-199.62 597.16,-201.86 595.11,-204.11 592.48,-206.35 589.27,-208.57 585.49,-210.78 581.15,-212.96 576.27,-215.11 570.86,-217.22 564.96,-219.29 558.57,-221.3 551.73,-223.26 544.47,-225.15 536.81,-226.97 528.79,-228.7 520.44,-230.36 511.8,-231.92 502.9,-233.38 493.78,-234.74 484.48,-235.99"/>
      <text text-anchor="middle" x="424.62" y="-191.39" font-family="sans-serif" font-size="16.00" style="white-space: pre;">ProductCatalogueContext</text>
    </g>
    <g id="edge7" class="edge">
      <title>InventoryContext-&gt;ProductCatalogueContext</title>
      <path fill="none" stroke="black" stroke-width="2" d="M505.29,-297.1C497.42,-289.94 489.61,-282.38 482.62,-274.83 472.6,-264 462.69,-251.45 453.97,-239.6"/>
      <text text-anchor="middle" x="558.12" y="-265.23" font-family="sans-serif" font-size="12.00" style="white-space: pre;">                                        </text>
      <polygon fill="white" stroke="transparent" points="447.97,-230.6 447.97,-247.6 460.97,-247.6 460.97,-230.6 447.97,-230.6"/>
      <text text-anchor="start" x="449.97" y="-236" font-family="sans-serif" font-size="12.00" style="white-space: pre;">D</text>
      <polygon fill="white" stroke="transparent" points="472.29,-287.1 472.29,-306.1 487.29,-306.1 487.29,-287.1 472.29,-287.1"/>
      <polyline fill="none" stroke="black" points="487.29,-287.1 487.29,-306.1 "/>
      <text text-anchor="start" x="475.29" y="-293.5" font-family="sans-serif" font-size="12.00" style="white-space: pre;">U</text>
      <polygon fill="white" stroke="transparent" points="487.29,-287.1 487.29,-306.1 538.29,-306.1 538.29,-287.1 487.29,-287.1"/>
      <polygon fill="none" stroke="black" points="487.29,-287.1 487.29,-306.1 538.29,-306.1 538.29,-287.1 487.29,-287.1"/>
      <text text-anchor="start" x="490.29" y="-293.5" font-family="sans-serif" font-size="12.00" style="white-space: pre;">OHS, PL</text>
    </g>
    <g id="edge9" class="edge">
      <title>ProductCatalogueContext-&gt;OrderContext</title>
      <path fill="none" stroke="black" stroke-width="2" d="M397.92,-152.48C393.29,-139.9 392.06,-126.52 399.62,-115.55 416.41,-91.21 443.47,-75.87 471.26,-66.21"/>
      <text text-anchor="middle" x="475.12" y="-118.95" font-family="sans-serif" font-size="12.00" style="white-space: pre;">                                        </text>
      <polygon fill="white" stroke="transparent" points="465.26,-57.21 465.26,-74.21 478.26,-74.21 478.26,-57.21 465.26,-57.21"/>
      <text text-anchor="start" x="467.26" y="-62.61" font-family="sans-serif" font-size="12.00" style="white-space: pre;">D</text>
      <polygon fill="white" stroke="transparent" points="380.92,-142.48 380.92,-161.48 395.92,-161.48 395.92,-142.48 380.92,-142.48"/>
      <polyline fill="none" stroke="black" points="395.92,-142.48 395.92,-161.48 "/>
      <text text-anchor="start" x="383.92" y="-148.88" font-family="sans-serif" font-size="12.00" style="white-space: pre;">U</text>
      <polygon fill="white" stroke="transparent" points="395.92,-142.48 395.92,-161.48 414.92,-161.48 414.92,-142.48 395.92,-142.48"/>
      <polygon fill="none" stroke="black" points="395.92,-142.48 395.92,-161.48 414.92,-161.48 414.92,-142.48 395.92,-142.48"/>
      <text text-anchor="start" x="398.92" y="-148.88" font-family="sans-serif" font-size="12.00" style="white-space: pre;">PL</text>
    </g>
    <g id="node8" class="node">
      <title>LoginContext</title>
      <polygon fill="none" stroke="black" stroke-width="2" points="1149.26,-350.91 1147.84,-348.12 1146.68,-345.31 1145.79,-342.5 1145.18,-339.71 1144.85,-336.94 1144.8,-334.21 1145.05,-331.53 1145.57,-328.9 1146.39,-326.33 1147.49,-323.84 1148.88,-321.43 1150.55,-319.12 1152.5,-316.9 1154.72,-314.78 1157.2,-312.77 1159.95,-310.88 1162.94,-309.1 1166.18,-307.45 1169.66,-305.93 1173.35,-304.53 1177.25,-303.26 1181.35,-302.13 1185.64,-301.12 1190.09,-300.24 1194.7,-299.5 1199.45,-298.88 1204.33,-298.39 1209.32,-298.02 1214.39,-297.77 1219.55,-297.65 1224.76,-297.63 1230.01,-297.73 1235.3,-297.93 1240.58,-298.24 1245.87,-298.64 1251.12,-299.14 1256.33,-299.73 1261.49,-300.41 1266.57,-301.17 1271.57,-302 1276.46,-302.91 1281.23,-303.9 1285.88,-304.94 1290.38,-306.06 1294.72,-307.23 1298.89,-308.46 1302.89,-309.75 1306.69,-311.09 1310.3,-312.48 1313.7,-313.91 1316.88,-315.4 1319.85,-316.93 1322.58,-318.51 1325.08,-320.13 1327.35,-321.79 1329.37,-323.49 1331.15,-325.24 1332.68,-327.02 1333.97,-328.84 1335,-330.69 1335.79,-332.59 1336.33,-334.51 1336.62,-336.47 1336.66,-338.46 1336.46,-340.47 1336.02,-342.51 1335.34,-344.58 1334.42,-346.66 1333.28,-348.76 1331.91,-350.88 1330.32,-353 1328.52,-355.12 1326.5,-357.25 1324.28,-359.37 1321.87,-361.47 1319.26,-363.56 1316.46,-365.62 1313.49,-367.64 1310.34,-369.63 1307.03,-371.58 1303.57,-373.46 1299.96,-375.29 1296.2,-377.05 1292.31,-378.73 1288.3,-380.32 1284.17,-381.82 1279.94,-383.22 1275.6,-384.51 1271.18,-385.69 1266.68,-386.74 1262.11,-387.66 1257.47,-388.45 1252.79,-389.09 1248.07,-389.59 1243.32,-389.93 1238.55,-390.12 1233.77,-390.15 1229,-390.02 1224.25,-389.73 1219.52,-389.27 1214.83,-388.64 1210.19,-387.86 1205.62,-386.91 1201.12,-385.79 1196.71,-384.52 1192.4,-383.1 1188.2,-381.53 1184.13,-379.81 1180.19,-377.96 1176.41,-375.97 1172.79,-373.86 1169.34,-371.64 1166.07,-369.31 1163,-366.89 1160.14,-364.38 1157.49,-361.8 1155.07,-359.15 1152.89,-356.44 1150.95,-353.69 1149.26,-350.91"/>
      <text text-anchor="middle" x="1242.62" y="-337.7" font-family="sans-serif" font-size="16.00" style="white-space: pre;">LoginContext</text>
    </g>
    <g id="node9" class="node">
      <title>PaymentContext</title>
      <polygon fill="none" stroke="black" stroke-width="2" points="225.36,-185.01 227.17,-187.8 228.66,-190.6 229.84,-193.41 230.68,-196.2 231.19,-198.96 231.37,-201.7 231.2,-204.39 230.7,-207.02 229.85,-209.6 228.66,-212.1 227.13,-214.52 225.27,-216.86 223.07,-219.1 220.54,-221.23 217.7,-223.26 214.55,-225.18 211.09,-226.98 207.34,-228.66 203.31,-230.21 199.02,-231.64 194.47,-232.94 189.68,-234.11 184.67,-235.16 179.45,-236.07 174.04,-236.85 168.47,-237.51 162.73,-238.04 156.87,-238.45 150.89,-238.74 144.81,-238.91 138.66,-238.96 132.46,-238.91 126.22,-238.75 119.96,-238.48 113.71,-238.12 107.49,-237.66 101.31,-237.11 95.2,-236.48 89.17,-235.76 83.23,-234.96 77.42,-234.09 71.75,-233.15 66.22,-232.13 60.86,-231.06 55.69,-229.92 50.71,-228.72 45.94,-227.46 41.39,-226.15 37.07,-224.79 32.99,-223.38 29.17,-221.92 25.6,-220.4 22.3,-218.85 19.28,-217.25 16.53,-215.6 14.07,-213.91 11.89,-212.18 10,-210.41 8.41,-208.6 7.1,-206.75 6.09,-204.86 5.37,-202.94 4.94,-200.98 4.8,-198.99 4.95,-196.97 5.38,-194.92 6.09,-192.85 7.07,-190.76 8.33,-188.65 9.85,-186.52 11.63,-184.38 13.66,-182.24 15.94,-180.1 18.47,-177.96 21.23,-175.83 24.21,-173.72 27.42,-171.64 30.84,-169.58 34.46,-167.57 38.27,-165.6 42.28,-163.68 46.46,-161.82 50.81,-160.03 55.33,-158.32 59.99,-156.69 64.79,-155.16 69.73,-153.72 74.78,-152.39 79.95,-151.18 85.22,-150.09 90.57,-149.13 96,-148.31 101.5,-147.63 107.05,-147.09 112.64,-146.71 118.26,-146.48 123.89,-146.41 129.53,-146.5 135.15,-146.76 140.75,-147.18 146.31,-147.77 151.82,-148.52 157.26,-149.43 162.62,-150.51 167.88,-151.75 173.03,-153.14 178.05,-154.68 182.93,-156.36 187.65,-158.19 192.21,-160.14 196.58,-162.23 200.75,-164.42 204.71,-166.73 208.44,-169.13 211.93,-171.62 215.16,-174.18 218.14,-176.82 220.84,-179.51 223.25,-182.24 225.36,-185.01"/>
      <text text-anchor="middle" x="115.62" y="-191.39" font-family="sans-serif" font-size="16.00" style="white-space: pre;">PaymentContext</text>
    </g>
    <g id="edge10" class="edge">
      <title>PaymentContext-&gt;OrderContext</title>
      <path fill="none" stroke="black" stroke-width="2" d="M171.76,-152.73C192.51,-139.1 216.8,-125.03 240.62,-115.55 313.92,-86.39 401.65,-69.73 468.51,-60.47"/>
      <text text-anchor="middle" x="316.12" y="-118.95" font-family="sans-serif" font-size="12.00" style="white-space: pre;">                                        </text>
      <polygon fill="white" stroke="transparent" points="462.51,-51.47 462.51,-68.47 475.51,-68.47 475.51,-51.47 462.51,-51.47"/>
      <text text-anchor="start" x="464.51" y="-56.87" font-family="sans-serif" font-size="12.00" style="white-space: pre;">D</text>
      <polygon fill="white" stroke="transparent" points="138.76,-142.73 138.76,-161.73 153.76,-161.73 153.76,-142.73 138.76,-142.73"/>
      <polyline fill="none" stroke="black" points="153.76,-142.73 153.76,-161.73 "/>
      <text text-anchor="start" x="141.76" y="-149.13" font-family="sans-serif" font-size="12.00" style="white-space: pre;">U</text>
      <polygon fill="white" stroke="transparent" points="153.76,-142.73 153.76,-161.73 204.76,-161.73 204.76,-142.73 153.76,-142.73"/>
      <polygon fill="none" stroke="black" points="153.76,-142.73 153.76,-161.73 204.76,-161.73 204.76,-142.73 153.76,-142.73"/>
      <text text-anchor="start" x="156.76" y="-149.13" font-family="sans-serif" font-size="12.00" style="white-space: pre;">OHS, PL</text>
    </g>
    <g id="node10" class="node">
      <title>ReportingContext</title>
      <polygon fill="none" stroke="black" stroke-width="2" points="1586.17,-318.56 1590.27,-321 1594.07,-323.48 1597.55,-326 1600.69,-328.56 1603.48,-331.13 1605.92,-333.71 1607.97,-336.29 1609.65,-338.86 1610.93,-341.41 1611.82,-343.94 1612.3,-346.43 1612.38,-348.87 1612.04,-351.27 1611.3,-353.61 1610.16,-355.88 1608.61,-358.09 1606.66,-360.22 1604.33,-362.27 1601.61,-364.23 1598.52,-366.11 1595.08,-367.9 1591.3,-369.59 1587.18,-371.19 1582.75,-372.69 1578.03,-374.09 1573.04,-375.39 1567.78,-376.58 1562.3,-377.68 1556.6,-378.68 1550.71,-379.57 1544.65,-380.37 1538.44,-381.07 1532.11,-381.67 1525.68,-382.17 1519.18,-382.58 1512.62,-382.9 1506.03,-383.12 1499.44,-383.25 1492.86,-383.3 1486.31,-383.26 1479.82,-383.13 1473.4,-382.92 1467.08,-382.62 1460.87,-382.24 1454.79,-381.78 1448.86,-381.24 1443.08,-380.63 1437.49,-379.93 1432.07,-379.15 1426.86,-378.3 1421.85,-377.37 1417.07,-376.36 1412.51,-375.28 1408.18,-374.12 1404.09,-372.89 1400.25,-371.58 1396.66,-370.2 1393.33,-368.74 1390.24,-367.21 1387.42,-365.6 1384.86,-363.93 1382.56,-362.19 1380.51,-360.38 1378.73,-358.5 1377.21,-356.56 1375.94,-354.56 1374.94,-352.5 1374.18,-350.39 1373.69,-348.23 1373.44,-346.02 1373.44,-343.77 1373.69,-341.49 1374.19,-339.18 1374.93,-336.84 1375.92,-334.48 1377.14,-332.11 1378.6,-329.74 1380.3,-327.37 1382.23,-325.02 1384.39,-322.68 1386.78,-320.37 1389.4,-318.1 1392.24,-315.87 1395.31,-313.69 1398.59,-311.58 1402.09,-309.54 1405.81,-307.58 1409.73,-305.71 1413.86,-303.93 1418.19,-302.26 1422.71,-300.7 1427.43,-299.26 1432.32,-297.94 1437.39,-296.76 1442.62,-295.72 1448.01,-294.83 1453.55,-294.08 1459.22,-293.49 1465.01,-293.05 1470.92,-292.78 1476.93,-292.66 1483.02,-292.71 1489.17,-292.93 1495.38,-293.31 1501.63,-293.85 1507.89,-294.55 1514.15,-295.41 1520.39,-296.42 1526.58,-297.59 1532.72,-298.9 1538.78,-300.35 1544.73,-301.94 1550.56,-303.65 1556.25,-305.49 1561.77,-307.43 1567.11,-309.49 1572.24,-311.63 1577.13,-313.87 1581.79,-316.18 1586.17,-318.56"/>
      <text text-anchor="middle" x="1485.62" y="-337.7" font-family="sans-serif" font-size="16.00" style="white-space: pre;">ReportingContext</text>
    </g>
  </g>
  <text style="fill: rgb(51, 51, 51); font-family: Arial, sans-serif; font-size: 18px; font-style: italic; font-weight: 700; white-space: pre;" x="367.339" y="178.73">Core</text>
  <text style="fill: rgb(51, 51, 51); font-family: Arial, sans-serif; font-size: 18px; font-style: italic; font-weight: 700; white-space: pre;" x="719.182" y="180.524">Core</text>
  <text style="fill: rgb(51, 51, 51); font-family: Arial, sans-serif; font-size: 18px; font-style: italic; font-weight: 700; white-space: pre;" x="994.912" y="32.331">Core</text>
  <text style="fill: rgb(51, 51, 51); font-family: Arial, sans-serif; font-size: 18px; font-style: italic; font-weight: 700; white-space: pre;" x="530.241" y="330.011">Core</text>
  <text style="fill: rgb(51, 51, 51); font-family: Arial, sans-serif; font-size: 18px; font-style: italic; font-weight: 700; white-space: pre;" x="256.153" y="34.158">Supporting</text>
  <text style="fill: rgb(51, 51, 51); font-family: Arial, sans-serif; font-size: 18px; font-style: italic; font-weight: 700; white-space: pre;" x="496.042" y="34.16">Supporting</text>
  <text style="fill: rgb(51, 51, 51); font-family: Arial, sans-serif; font-size: 18px; font-style: italic; font-weight: 700; white-space: pre;" x="86.85" y="180.523">Generic</text>
  <text style="fill: rgb(51, 51, 51); font-family: Arial, sans-serif; font-size: 18px; font-style: italic; font-weight: 700; white-space: pre;" x="939.824" y="323.612">Generic</text>
  <text style="fill: rgb(51, 51, 51); font-family: Arial, sans-serif; font-size: 18px; font-style: italic; font-weight: 700; white-space: pre;" x="1194.325" y="34.158">Generic</text>
  <text style="fill: rgb(51, 51, 51); font-family: Arial, sans-serif; font-size: 18px; font-style: italic; font-weight: 700; white-space: pre;" x="1427.334" y="35.643">Supporting</text>
</svg>