<?xml version="1.0" encoding="utf-8"?>
<!-- Generator: Adobe Illustrator 15.1.0, SVG Export Plug-In  -->
<!DOCTYPE svg PUBLIC "-//W3C//DTD SVG 1.1//EN" "http://www.w3.org/Graphics/SVG/1.1/DTD/svg11.dtd" [
	<!ENTITY ns_flows "http://ns.adobe.com/Flows/1.0/">
]>
<svg version="1.1"
	 xmlns="http://www.w3.org/2000/svg" xmlns:xlink="http://www.w3.org/1999/xlink" xmlns:a="http://ns.adobe.com/AdobeSVGViewerExtensions/3.0/"
	 x="0px" y="0px" width="612px" height="792px" viewBox="-149.5 -195.5 612 792" enable-background="new -149.5 -195.5 612 792"
	 xml:space="preserve">
<defs>
</defs>
<path fill="#ECD6E8" stroke="#000000" stroke-miterlimit="10" d="M416.5,209c0-115.245-93.031-208.5-208-208.5S0.5,93.755,0.5,209
	s93.031,208.5,208,208.5S416.5,324.245,416.5,209z"/>
<path fill="#FACCCE" stroke="#000000" stroke-miterlimit="10" d="M208.5,383.395c-96.18,0-173.977-77.983-173.977-174.395
	S112.32,34.605,208.5,34.605S382.477,112.589,382.477,209S304.68,383.395,208.5,383.395z"/>
<path fill="#87C399" stroke="#000000" stroke-miterlimit="10" d="M345,209c0-75.643-61.039-136.828-136.5-136.828S72,133.357,72,209
	s61.039,136.828,136.5,136.828S345,284.643,345,209z"/>
<path fill="#3FBC9B" stroke="#000000" stroke-miterlimit="10" d="M208.499,289c-44.178,0-79.999-35.819-79.999-79.999
	c0-44.179,35.821-80,79.999-80c44.18,0,80.001,35.821,80.001,80C288.5,253.181,252.679,289,208.499,289z"/>
<text transform="matrix(1 0 0 1 168.5 209)" font-family="'MyriadPro-Regular'" font-size="14">Domain Model</text>
<text transform="matrix(1 0 0 1 158.6328 109)" font-family="'MyriadPro-Regular'" font-size="14">Domain Services</text>
<text transform="matrix(1 0 0 1 156.5 64)" font-family="'MyriadPro-Regular'" font-size="14">Application Services</text>
<text transform="matrix(1 0 0 1 196.5 20.5)" font-family="'MyriadPro-Regular'" font-size="14">UI</text>
<text transform="matrix(-1.346898e-010 1 -1 -1.346898e-010 392.5 159.0127)" font-family="'MyriadPro-Regular'" font-size="14">Infrastructure</text>
<text transform="matrix(2.244830e-010 -1 1 2.244830e-010 20.5 222.0117)" font-family="'MyriadPro-Regular'" font-size="14">Tests</text>
</svg>
