<svg xmlns="http://www.w3.org/2000/svg" xmlns:xlink="http://www.w3.org/1999/xlink" xmlns:lucid="lucid" width="1537" height="845"><g transform="translate(0 -302)" lucid:page-tab-id="PoxVc0iB9eq."><path d="M0 0h2256.63v1657H0z" fill="#fff"/><path d="M440 480c0 33.14-58.2 60-130 60s-130-26.86-130-60 58.2-60 130-60 130 26.86 130 60z" stroke="#333" fill="#ffd9d9"/><use xlink:href="#a" transform="matrix(1,0,0,1,185,425) translate(56.75067901234568 48.359722222222224)"/><use xlink:href="#b" transform="matrix(1,0,0,1,185,425) translate(68.82716049382715 69.69305555555556)"/><path d="M400 840c0 33.14-58.2 60-130 60s-130-26.86-130-60 58.2-60 130-60 130 26.86 130 60z" stroke="#333" fill="#75b2ff"/><use xlink:href="#c" transform="matrix(1,0,0,1,145,785) translate(68.60253086419753 48.359722222222224)"/><use xlink:href="#d" transform="matrix(1,0,0,1,145,785) translate(89.96296296296298 69.69305555555556)"/><path d="M920 700c0 33.14-58.2 60-130 60s-130-26.86-130-60 58.2-60 130-60 130 26.86 130 60z" stroke="#333" fill="#99d5ca"/><use xlink:href="#e" transform="matrix(1,0,0,1,665,645) translate(80.45438271604938 48.359722222222224)"/><use xlink:href="#f" transform="matrix(1,0,0,1,665,645) translate(84.65432098765432 69.69305555555556)"/><path d="M280 640c0 33.14-58.2 60-130 60S20 673.14 20 640s58.2-60 130-60 130 26.86 130 60z" stroke="#333" fill="#ffd9d9"/><use xlink:href="#a" transform="matrix(1,0,0,1,25,585) translate(56.75067901234568 48.359722222222224)"/><use xlink:href="#g" transform="matrix(1,0,0,1,25,585) translate(86.55555555555556 69.69305555555556)"/><path d="M860 460c0 33.14-58.2 60-130 60s-130-26.86-130-60 58.2-60 130-60 130 26.86 130 60z" stroke="#333" fill="#99d5ca"/><use xlink:href="#a" transform="matrix(1,0,0,1,605,405) translate(56.75067901234568 48.359722222222224)"/><use xlink:href="#h" transform="matrix(1,0,0,1,605,405) translate(88.48148148148148 69.69305555555556)"/><path d="M580 680c0 33.14-58.2 60-130 60s-130-26.86-130-60 58.2-60 130-60 130 26.86 130 60z" stroke="#333" fill="#99d5ca"/><use xlink:href="#e" transform="matrix(1,0,0,1,325,625) translate(80.45438271604938 48.359722222222224)"/><use xlink:href="#i" transform="matrix(1,0,0,1,325,625) translate(53.962962962962976 69.69305555555556)"/><path d="M779.33 1020c0 33.14-58.2 60-130 60s-130-26.86-130-60 58.2-60 130-60 130 26.86 130 60z" stroke="#333" fill="#99d5ca"/><use xlink:href="#e" transform="matrix(1,0,0,1,524.3333333333334,965) translate(80.45438271604938 48.359722222222224)"/><use xlink:href="#j" transform="matrix(1,0,0,1,524.3333333333334,965) translate(102.33333333333333 69.69305555555556)"/><path d="M1480 620c0 33.14-58.2 60-130 60s-130-26.86-130-60 58.2-60 130-60 130 26.86 130 60z" stroke="#333" fill="#75b2ff"/><use xlink:href="#c" transform="matrix(1,0,0,1,1225,565) translate(68.60253086419753 48.359722222222224)"/><use xlink:href="#k" transform="matrix(1,0,0,1,1225,565) translate(103.2962962962963 69.69305555555556)"/><path d="M1200 520c0 33.14-58.2 60-130 60s-130-26.86-130-60 58.2-60 130-60 130 26.86 130 60z" stroke="#333" fill="#99d5ca"/><use xlink:href="#e" transform="matrix(1,0,0,1,945,465) translate(80.45438271604938 48.359722222222224)"/><use xlink:href="#l" transform="matrix(1,0,0,1,945,465) translate(86.55555555555556 69.69305555555556)"/><path d="M518.33 1020l-11.4-.25-11.2-.7-10.54-1.1-9.94-1.47-9.35-1.78-8.8-2.07-8.33-2.32-7.86-2.54-7.42-2.77-7.04-2.96-6.67-3.14-6.33-3.3-6.02-3.5-5.73-3.62-5.47-3.8-5.2-3.94-4.97-4.1-4.75-4.3-4.53-4.43-4.34-4.6-4.15-4.82-3.97-5-3.78-5.23-3.62-5.45-3.45-5.7-3.28-5.97-3.1-6.27-2.94-6.58-2.75-6.95-1.16-3.32" stroke="#333" stroke-linejoin="round" fill="none"/><path d="M518.84 1019.5v1h-.53l.03-1z" stroke="#333" stroke-width=".05" fill="#333"/><path d="M335.9 893.9l8.6 12.28-8.86 2.7z" stroke="#333" fill="#333"/><path d="M649.32 959l-.06-3.2-.23-3.55-.36-3.42-.5-3.32-.6-3.2-.74-3.17-.87-3.1-1-3.06-1.12-3.03-1.27-3.02-1.42-3-1.58-3.05-1.77-3.06-1.98-3.1-2.2-3.18-2.5-3.26-2.78-3.38-3.18-3.53-3.64-3.72-4.23-3.96-4.98-4.3-6-4.74-7.5-5.44-10-6.64-15.8-9.5-62.5-35.62-10-6.63-7.5-5.43-6-4.75-4.98-4.3-4.22-3.95-3.64-3.72-3.18-3.53-2.8-3.38-2.48-3.26-2.2-3.18-1.98-3.1-1.77-3.07-1.6-3.04-1.4-3.02-1.28-3.02-1.14-3.03-1-3.06-.86-3.1-.74-3.16-.17-.92" stroke="#333" stroke-linejoin="round" fill="none"/><path d="M649.83 959.5h-1v-.5l1-.03z" stroke="#333" stroke-width=".05" fill="#333"/><path d="M450.16 742.1l6 13.76-9.23.9z" stroke="#333" fill="#333"/><path d="M790 639l-.05-1.67-.12-2.06-.2-1.98-.3-1.92-.35-1.86-.42-1.8-.5-1.75-.55-1.73-.62-1.7-.7-1.67-.8-1.67-.87-1.67-.95-1.67-1.07-1.68-1.18-1.7-1.3-1.73-1.47-1.76-1.64-1.83-1.86-1.9-2.1-1.96-2.4-2.06-2.8-2.22-3.32-2.4-4.04-2.68-5.13-3.1-7.1-3.9-14.1-6.92-25.8-12.38-6.53-3.58-4.6-2.77-3.54-2.37-2.87-2.08-2.38-1.9-2.03-1.75-1.77-1.64L683 550l-1.34-1.5-1.2-1.43-1.04-1.4-.95-1.35-.85-1.34-.76-1.3-.68-1.3-.6-1.3-.55-1.3-.5-1.3-.42-1.33-.36-1.33-.32-1.36-.26-1.38-.03-.2" stroke="#333" stroke-linejoin="round" fill="none"/><path d="M790.5 639.5h-1v-.5l1-.03z" stroke="#333" stroke-width=".05" fill="#333"/><path d="M673.88 516.25l3.9 14.5-9.26-.5z" stroke="#333" fill="#333"/><path d="M529.4 631.44l2.77-7 3.08-6.9 3.23-6.5 3.44-6.26 3.7-6.1 4.1-6.16 4.67-6.42 5.68-7.16 8.07-9.32 35.68-39.04 6.8-8.6 5.87-8.03 1.9-2.84" stroke="#333" stroke-linejoin="round" fill="none"/><path d="M529.87 631.6l-.2.48-.92-.35.2-.48z" stroke="#333" stroke-width=".05" fill="#333"/><path d="M626.23 498.6l-3.65 14.55-7.86-4.93z" stroke="#333" fill="#333"/><path d="M690.1 962.05l.95-5.56 1.26-5.87 1.5-5.7 1.72-5.62 1.96-5.56 2.24-5.58 2.55-5.66 2.92-5.83 3.4-6.12 4.02-6.6 5-7.45 6.8-9.25 39.86-50.03 4.6-6.85 3.65-5.98 3.03-5.47 2.58-5.14 2.22-4.95 1.93-4.8 1.66-4.76 1.46-4.76 1.24-4.77 1.05-4.85.87-4.97.4-3.1" stroke="#333" stroke-linejoin="round" fill="none"/><path d="M690.58 962.12l-.1.5-.97-.15.1-.52z" stroke="#333" stroke-width=".05" fill="#333"/><path d="M789.9 762.1l3.73 14.54-9.25-.58z" stroke="#333" fill="#333"/><path d="M814.74 640.1l.77-6.34 1.1-6.65 1.35-6.43 1.57-6.23 1.8-6.03 2-5.8 2.2-5.6 2.36-5.4 2.55-5.18 2.7-4.97 2.85-4.76 3-4.55 3.13-4.35 3.26-4.14 3.38-3.94 3.48-3.74 3.6-3.55 3.7-3.36 3.8-3.18 3.9-3 4-2.8 4.1-2.62 4.2-2.45 4.3-2.27 4.4-2.1 4.5-1.9 4.63-1.75 4.73-1.54 4.84-1.38 4.98-1.18 5.1-1 5.25-.8.9-.1" stroke="#333" stroke-linejoin="round" fill="none"/><path d="M815.24 640.15l-.06.5-1-.1.06-.52z" stroke="#333" stroke-width=".05" fill="#333"/><path d="M937.88 520.1l-13.95 5.5-.57-9.25z" stroke="#333" fill="#333"/><path d="M1320 840c0 33.14-58.2 60-130 60s-130-26.86-130-60 58.2-60 130-60 130 26.86 130 60z" stroke="#333" fill="#75b2ff"/><g><use xlink:href="#c" transform="matrix(1,0,0,1,1065,785) translate(68.60253086419753 48.359722222222224)"/><use xlink:href="#m" transform="matrix(1,0,0,1,1065,785) translate(96.87654320987654 69.69305555555556)"/></g><path d="M1070 581l.1 4 .26 4.3.44 4.13.6 4 .73 3.9.9 3.8 1.04 3.74 1.2 3.7 1.38 3.7 1.56 3.72 1.77 3.74 2 3.82 2.28 3.94 2.6 4.1 3.03 4.35 3.55 4.68 4.32 5.2 5.5 6.1 7.8 7.96 42.8 40.62 5.52 6.1 4.34 5.25 3.6 4.7 3.03 4.38 2.62 4.14 2.3 3.96 2 3.85 1.8 3.8 1.57 3.74 1.4 3.74 1.2 3.74 1.06 3.8.9 3.84.7 3.67" stroke="#333" stroke-linejoin="round" fill="none"/><path d="M1070 580.5h.5v.5l-1 .03v-.54z" stroke="#333" stroke-width=".05" fill="#333"/><path d="M1187.2 777.92l-5.9-13.8 9.24-.82z" stroke="#333" fill="#333"/><path d="M776.2 1004.68l24.28-13.9 21.78-13.7 19.42-13.4 17.47-13.17L875 937.5l14.53-12.98 13.37-13 12.4-13.12 11.56-13.3 10.83-13.57 10.2-13.93 9.63-14.4 9.14-15 8.7-15.7 8.3-16.6 7.94-17.67 7.6-19.02 7.28-20.68 6.95-22.77 6.62-25.46 6.24-28.98 5.8-33.8 4.2-32.57" stroke="#333" stroke-linejoin="round" fill="none"/><path d="M776.46 1005.1l-.46.27-.48-.88.44-.26z" stroke="#333" stroke-width=".05" fill="#333"/><path d="M1038.02 580.26l2.95 14.7-9.2-1.07z" stroke="#333" fill="#333"/><defs><path fill="#333" d="M23-100v-36l175-74v27L47-118l151 64v27" id="n"/><path fill="#333" d="M194-120c59 52 2 134-86 124-53-6-90-18-98-63l31-7c8 30 29 43 70 43 46 0 84-17 71-62-32-43-135-20-137-98-3-89 178-90 191-16l-30 9c-8-48-127-53-127 5 0 53 81 35 115 65" id="o"/><path fill="#333" d="M67 3c-93-2-31-127-26-193h32L48-50c-3 39 53 32 70 12 30-34 30-101 43-152h32L157 0h-30c1-10 6-24 4-33-14 20-29 37-64 36" id="p"/><path fill="#333" d="M67-162c32-53 139-36 121 50C175-51 163 2 97 4 68 4 52-11 42-31 38 6 28 39 22 75H-9l50-265h29c-1 10 0 20-3 28zm89 36c0-26-10-43-35-43-54 0-67 50-69 103-1 29 14 45 42 46 53 0 62-58 62-106" id="q"/><path fill="#333" d="M30-147c31-64 166-65 159 27C183-49 158 1 86 4 9 8 1-88 30-147zM88-20c53 0 68-48 68-100 0-31-11-51-44-50-52 1-68 46-68 97 0 32 13 53 44 53" id="r"/><path fill="#333" d="M66-151c12-25 30-51 66-40l-6 26C45-176 58-65 38 0H6l36-190h30" id="s"/><path fill="#333" d="M51-54c-9 22 5 41 31 30L79-1C43 14 10-4 19-52l22-115H19l5-23h22l19-43h21l-9 43h35l-4 23H73" id="t"/><path fill="#333" d="M50-231l6-30h32l-6 30H50zM6 0l37-190h31L37 0H6" id="u"/><path fill="#333" d="M67-158c22-48 132-52 116 29L158 0h-32l25-140c3-38-53-32-70-12C52-117 51-52 38 0H6l36-190h30" id="v"/><path fill="#333" d="M103-194c29 0 47 14 56 36 2-11 5-23 8-32h30L160-5C157 61 82 97 21 62 9 55 4 45 1 30l28-7c7 42 83 31 92-3 4-16 9-38 13-55-13 20-29 36-62 36-40 0-60-25-60-64 0-71 23-131 91-131zm4 24c-53 0-58 54-61 104-2 27 10 44 36 44 49 0 65-50 67-102 1-29-15-46-42-46" id="w"/><path fill="#333" d="M23-27v-27l151-64-151-65v-27l175 74v36" id="x"/><g id="a"><use transform="matrix(0.04938271604938272,0,0,0.04938271604938272,0,0)" xlink:href="#n"/><use transform="matrix(0.04938271604938272,0,0,0.04938271604938272,10.370370370370372,0)" xlink:href="#n"/><use transform="matrix(0.04938271604938272,0,0,0.04938271604938272,20.740740740740744,0)" xlink:href="#o"/><use transform="matrix(0.04938271604938272,0,0,0.04938271604938272,32.592592592592595,0)" xlink:href="#p"/><use transform="matrix(0.04938271604938272,0,0,0.04938271604938272,42.46913580246914,0)" xlink:href="#q"/><use transform="matrix(0.04938271604938272,0,0,0.04938271604938272,52.345679012345684,0)" xlink:href="#q"/><use transform="matrix(0.04938271604938272,0,0,0.04938271604938272,62.22222222222223,0)" xlink:href="#r"/><use transform="matrix(0.04938271604938272,0,0,0.04938271604938272,72.09876543209877,0)" xlink:href="#s"/><use transform="matrix(0.04938271604938272,0,0,0.04938271604938272,77.97530864197532,0)" xlink:href="#t"/><use transform="matrix(0.04938271604938272,0,0,0.04938271604938272,82.9135802469136,0)" xlink:href="#u"/><use transform="matrix(0.04938271604938272,0,0,0.04938271604938272,86.81481481481484,0)" xlink:href="#v"/><use transform="matrix(0.04938271604938272,0,0,0.04938271604938272,96.69135802469138,0)" xlink:href="#w"/><use transform="matrix(0.04938271604938272,0,0,0.04938271604938272,106.56790123456793,0)" xlink:href="#x"/><use transform="matrix(0.04938271604938272,0,0,0.04938271604938272,116.93827160493831,0)" xlink:href="#x"/></g><path fill="#333" d="M205 0l-28-72H64L36 0H1l101-248h38L239 0h-34zm-38-99l-47-123c-12 45-31 82-46 123h93" id="y"/><path fill="#333" d="M85-194c31 0 48 13 60 33l-1-100h32l1 261h-30c-2-10 0-23-3-31C134-8 116 4 85 4 32 4 16-35 15-94c0-66 23-100 70-100zm9 24c-40 0-46 34-46 75 0 40 6 74 45 74 42 0 51-32 51-76 0-42-9-74-50-73" id="z"/><path fill="#333" d="M210-169c-67 3-38 105-44 169h-31v-121c0-29-5-50-35-48C34-165 62-65 56 0H25l-1-190h30c1 10-1 24 2 32 10-44 99-50 107 0 11-21 27-35 58-36 85-2 47 119 55 194h-31v-121c0-29-5-49-35-48" id="A"/><path fill="#333" d="M24-231v-30h32v30H24zM24 0v-190h32V0H24" id="B"/><path fill="#333" d="M117-194c89-4 53 116 60 194h-32v-121c0-31-8-49-39-48C34-167 62-67 57 0H25l-1-190h30c1 10-1 24 2 32 11-22 29-35 61-36" id="C"/><path fill="#333" d="M135-143c-3-34-86-38-87 0 15 53 115 12 119 90S17 21 10-45l28-5c4 36 97 45 98 0-10-56-113-15-118-90-4-57 82-63 122-42 12 7 21 19 24 35" id="D"/><path fill="#333" d="M59-47c-2 24 18 29 38 22v24C64 9 27 4 27-40v-127H5v-23h24l9-43h21v43h35v23H59v120" id="E"/><path fill="#333" d="M114-163C36-179 61-72 57 0H25l-1-190h30c1 12-1 29 2 39 6-27 23-49 58-41v29" id="F"/><path fill="#333" d="M141-36C126-15 110 5 73 4 37 3 15-17 15-53c-1-64 63-63 125-63 3-35-9-54-41-54-24 1-41 7-42 31l-33-3c5-37 33-52 76-52 45 0 72 20 72 64v82c-1 20 7 32 28 27v20c-31 9-61-2-59-35zM48-53c0 20 12 33 32 33 41-3 63-29 60-74-43 2-92-5-92 41" id="G"/><path fill="#333" d="M100-194c62-1 85 37 85 99 1 63-27 99-86 99S16-35 15-95c0-66 28-99 85-99zM99-20c44 1 53-31 53-75 0-43-8-75-51-75s-53 32-53 75 10 74 51 75" id="H"/><g id="b"><use transform="matrix(0.04938271604938272,0,0,0.04938271604938272,0,0)" xlink:href="#y"/><use transform="matrix(0.04938271604938272,0,0,0.04938271604938272,11.851851851851853,0)" xlink:href="#z"/><use transform="matrix(0.04938271604938272,0,0,0.04938271604938272,21.7283950617284,0)" xlink:href="#A"/><use transform="matrix(0.04938271604938272,0,0,0.04938271604938272,36.49382716049384,0)" xlink:href="#B"/><use transform="matrix(0.04938271604938272,0,0,0.04938271604938272,40.39506172839507,0)" xlink:href="#C"/><use transform="matrix(0.04938271604938272,0,0,0.04938271604938272,50.271604938271615,0)" xlink:href="#B"/><use transform="matrix(0.04938271604938272,0,0,0.04938271604938272,54.17283950617284,0)" xlink:href="#D"/><use transform="matrix(0.04938271604938272,0,0,0.04938271604938272,63.061728395061735,0)" xlink:href="#E"/><use transform="matrix(0.04938271604938272,0,0,0.04938271604938272,68,0)" xlink:href="#F"/><use transform="matrix(0.04938271604938272,0,0,0.04938271604938272,73.87654320987654,0)" xlink:href="#G"/><use transform="matrix(0.04938271604938272,0,0,0.04938271604938272,83.75308641975309,0)" xlink:href="#E"/><use transform="matrix(0.04938271604938272,0,0,0.04938271604938272,88.69135802469137,0)" xlink:href="#B"/><use transform="matrix(0.04938271604938272,0,0,0.04938271604938272,92.59259259259261,0)" xlink:href="#H"/><use transform="matrix(0.04938271604938272,0,0,0.04938271604938272,102.46913580246914,0)" xlink:href="#C"/></g><path fill="#333" d="M52-101C46-14 166-7 216-51l9-45h-74l6-28h105l-18 87C217-12 181 4 130 4 60 4 18-31 18-101c0-106 78-167 188-146 30 6 48 27 59 54l-34 9c-10-26-31-41-67-40-75 1-107 50-112 123" id="I"/><path fill="#333" d="M111-194c62-3 86 47 72 106H45c-7 38 6 69 45 68 27-1 43-14 53-32l24 11C152-15 129 4 87 4 38 3 12-23 12-71c0-70 32-119 99-123zm44 81c14-66-71-72-95-28-4 8-8 17-11 28h106" id="J"/><path fill="#333" d="M44-68c0 29 11 47 38 47 30 0 42-19 51-41l28 9C148-21 126 4 82 4 31 4 10-29 12-85c3-77 74-140 146-93 12 8 15 23 18 40l-31 5c-1-22-13-36-36-36-52 0-65 49-65 101" id="K"/><g id="c"><use transform="matrix(0.04938271604938272,0,0,0.04938271604938272,0,0)" xlink:href="#n"/><use transform="matrix(0.04938271604938272,0,0,0.04938271604938272,10.370370370370372,0)" xlink:href="#n"/><use transform="matrix(0.04938271604938272,0,0,0.04938271604938272,20.740740740740744,0)" xlink:href="#I"/><use transform="matrix(0.04938271604938272,0,0,0.04938271604938272,34.567901234567906,0)" xlink:href="#J"/><use transform="matrix(0.04938271604938272,0,0,0.04938271604938272,44.44444444444445,0)" xlink:href="#v"/><use transform="matrix(0.04938271604938272,0,0,0.04938271604938272,54.320987654320994,0)" xlink:href="#J"/><use transform="matrix(0.04938271604938272,0,0,0.04938271604938272,64.19753086419755,0)" xlink:href="#s"/><use transform="matrix(0.04938271604938272,0,0,0.04938271604938272,70.07407407407409,0)" xlink:href="#u"/><use transform="matrix(0.04938271604938272,0,0,0.04938271604938272,73.97530864197533,0)" xlink:href="#K"/><use transform="matrix(0.04938271604938272,0,0,0.04938271604938272,82.86419753086422,0)" xlink:href="#x"/><use transform="matrix(0.04938271604938272,0,0,0.04938271604938272,93.23456790123458,0)" xlink:href="#x"/></g><path fill="#333" d="M30-248c87 1 191-15 191 75 0 78-77 80-158 76V0H30v-248zm33 125c57 0 124 11 124-50 0-59-68-47-124-48v98" id="L"/><path fill="#333" d="M179-190L93 31C79 59 56 82 12 73V49c39 6 53-20 64-50L1-190h34L92-34l54-156h33" id="M"/><path fill="#333" d="M100-194c63 0 86 42 84 106H49c0 40 14 67 53 68 26 1 43-12 49-29l28 8c-11 28-37 45-77 45C44 4 14-33 15-96c1-61 26-98 85-98zm52 81c6-60-76-77-97-28-3 7-6 17-6 28h103" id="N"/><g id="d"><use transform="matrix(0.04938271604938272,0,0,0.04938271604938272,0,0)" xlink:href="#L"/><use transform="matrix(0.04938271604938272,0,0,0.04938271604938272,11.851851851851853,0)" xlink:href="#G"/><use transform="matrix(0.04938271604938272,0,0,0.04938271604938272,21.7283950617284,0)" xlink:href="#M"/><use transform="matrix(0.04938271604938272,0,0,0.04938271604938272,30.617283950617285,0)" xlink:href="#A"/><use transform="matrix(0.04938271604938272,0,0,0.04938271604938272,45.38271604938272,0)" xlink:href="#N"/><use transform="matrix(0.04938271604938272,0,0,0.04938271604938272,55.25925925925927,0)" xlink:href="#C"/><use transform="matrix(0.04938271604938272,0,0,0.04938271604938272,65.13580246913581,0)" xlink:href="#E"/></g><path fill="#333" d="M125-24c46 0 70-25 89-51l25 16C214-24 183 4 123 4 8 4-5-146 60-208c32-50 158-61 191-5 5 7 9 14 11 22l-32 10c-9-28-33-43-69-43-74 0-108 51-108 125 0 46 24 75 72 75" id="O"/><g id="e"><use transform="matrix(0.04938271604938272,0,0,0.04938271604938272,0,0)" xlink:href="#n"/><use transform="matrix(0.04938271604938272,0,0,0.04938271604938272,10.370370370370372,0)" xlink:href="#n"/><use transform="matrix(0.04938271604938272,0,0,0.04938271604938272,20.740740740740744,0)" xlink:href="#O"/><use transform="matrix(0.04938271604938272,0,0,0.04938271604938272,33.53086419753087,0)" xlink:href="#r"/><use transform="matrix(0.04938271604938272,0,0,0.04938271604938272,43.40740740740741,0)" xlink:href="#s"/><use transform="matrix(0.04938271604938272,0,0,0.04938271604938272,49.283950617283956,0)" xlink:href="#J"/><use transform="matrix(0.04938271604938272,0,0,0.04938271604938272,59.1604938271605,0)" xlink:href="#x"/><use transform="matrix(0.04938271604938272,0,0,0.04938271604938272,69.53086419753087,0)" xlink:href="#x"/></g><path fill="#333" d="M63-220v92h138v28H63V0H30v-248h175v28H63" id="P"/><path fill="#333" d="M84 4C-5 8 30-112 23-190h32v120c0 31 7 50 39 49 72-2 45-101 50-169h31l1 190h-30c-1-10 1-25-2-33-11 22-28 36-60 37" id="Q"/><path fill="#333" d="M24 0v-261h32V0H24" id="R"/><path fill="#333" d="M101-234c-31-9-42 10-38 44h38v23H63V0H32v-167H5v-23h27c-7-52 17-82 69-68v24" id="S"/><g id="f"><use transform="matrix(0.04938271604938272,0,0,0.04938271604938272,0,0)" xlink:href="#P"/><use transform="matrix(0.04938271604938272,0,0,0.04938271604938272,10.814814814814815,0)" xlink:href="#Q"/><use transform="matrix(0.04938271604938272,0,0,0.04938271604938272,20.69135802469136,0)" xlink:href="#R"/><use transform="matrix(0.04938271604938272,0,0,0.04938271604938272,24.592592592592595,0)" xlink:href="#S"/><use transform="matrix(0.04938271604938272,0,0,0.04938271604938272,29.530864197530867,0)" xlink:href="#B"/><use transform="matrix(0.04938271604938272,0,0,0.04938271604938272,33.4320987654321,0)" xlink:href="#R"/><use transform="matrix(0.04938271604938272,0,0,0.04938271604938272,37.333333333333336,0)" xlink:href="#R"/><use transform="matrix(0.04938271604938272,0,0,0.04938271604938272,41.23456790123457,0)" xlink:href="#A"/><use transform="matrix(0.04938271604938272,0,0,0.04938271604938272,56.00000000000001,0)" xlink:href="#N"/><use transform="matrix(0.04938271604938272,0,0,0.04938271604938272,65.87654320987654,0)" xlink:href="#C"/><use transform="matrix(0.04938271604938272,0,0,0.04938271604938272,75.75308641975309,0)" xlink:href="#E"/></g><path fill="#333" d="M233-177c-1 41-23 64-60 70L243 0h-38l-65-103H63V0H30v-248c88 3 205-21 203 71zM63-129c60-2 137 13 137-47 0-61-80-42-137-45v92" id="T"/><path fill="#333" d="M115-194c55 1 70 41 70 98S169 2 115 4C84 4 66-9 55-30l1 105H24l-1-265h31l2 30c10-21 28-34 59-34zm-8 174c40 0 45-34 45-75s-6-73-45-74c-42 0-51 32-51 76 0 43 10 73 51 73" id="U"/><path fill="#333" d="M177-190C167-65 218 103 67 71c-23-6-38-20-44-43l32-5c15 47 100 32 89-28v-30C133-14 115 1 83 1 29 1 15-40 15-95c0-56 16-97 71-98 29-1 48 16 59 35 1-10 0-23 2-32h30zM94-22c36 0 50-32 50-73 0-42-14-75-50-75-39 0-46 34-46 75s6 73 46 73" id="V"/><g id="g"><use transform="matrix(0.04938271604938272,0,0,0.04938271604938272,0,0)" xlink:href="#T"/><use transform="matrix(0.04938271604938272,0,0,0.04938271604938272,12.790123456790125,0)" xlink:href="#N"/><use transform="matrix(0.04938271604938272,0,0,0.04938271604938272,22.66666666666667,0)" xlink:href="#U"/><use transform="matrix(0.04938271604938272,0,0,0.04938271604938272,32.543209876543216,0)" xlink:href="#H"/><use transform="matrix(0.04938271604938272,0,0,0.04938271604938272,42.41975308641976,0)" xlink:href="#F"/><use transform="matrix(0.04938271604938272,0,0,0.04938271604938272,48.296296296296305,0)" xlink:href="#E"/><use transform="matrix(0.04938271604938272,0,0,0.04938271604938272,53.23456790123457,0)" xlink:href="#B"/><use transform="matrix(0.04938271604938272,0,0,0.04938271604938272,57.135802469135804,0)" xlink:href="#C"/><use transform="matrix(0.04938271604938272,0,0,0.04938271604938272,67.01234567901236,0)" xlink:href="#V"/></g><path fill="#333" d="M33 0v-248h34V0H33" id="W"/><path fill="#333" d="M108 0H70L1-190h34L89-25l56-165h34" id="X"/><g id="h"><use transform="matrix(0.04938271604938272,0,0,0.04938271604938272,0,0)" xlink:href="#W"/><use transform="matrix(0.04938271604938272,0,0,0.04938271604938272,4.938271604938272,0)" xlink:href="#C"/><use transform="matrix(0.04938271604938272,0,0,0.04938271604938272,14.814814814814817,0)" xlink:href="#X"/><use transform="matrix(0.04938271604938272,0,0,0.04938271604938272,23.703703703703706,0)" xlink:href="#N"/><use transform="matrix(0.04938271604938272,0,0,0.04938271604938272,33.580246913580254,0)" xlink:href="#C"/><use transform="matrix(0.04938271604938272,0,0,0.04938271604938272,43.4567901234568,0)" xlink:href="#E"/><use transform="matrix(0.04938271604938272,0,0,0.04938271604938272,48.39506172839507,0)" xlink:href="#H"/><use transform="matrix(0.04938271604938272,0,0,0.04938271604938272,58.27160493827161,0)" xlink:href="#F"/><use transform="matrix(0.04938271604938272,0,0,0.04938271604938272,64.14814814814815,0)" xlink:href="#M"/></g><path fill="#333" d="M96-169c-40 0-48 33-48 73s9 75 48 75c24 0 41-14 43-38l32 2c-6 37-31 61-74 61-59 0-76-41-82-99-10-93 101-131 147-64 4 7 5 14 7 22l-32 3c-4-21-16-35-41-35" id="Y"/><path fill="#333" d="M212-179c-10-28-35-45-73-45-59 0-87 40-87 99 0 60 29 101 89 101 43 0 62-24 78-52l27 14C228-24 195 4 139 4 59 4 22-46 18-125c-6-104 99-153 187-111 19 9 31 26 39 46" id="Z"/><g id="i"><use transform="matrix(0.04938271604938272,0,0,0.04938271604938272,0,0)" xlink:href="#L"/><use transform="matrix(0.04938271604938272,0,0,0.04938271604938272,11.851851851851853,0)" xlink:href="#F"/><use transform="matrix(0.04938271604938272,0,0,0.04938271604938272,17.728395061728396,0)" xlink:href="#H"/><use transform="matrix(0.04938271604938272,0,0,0.04938271604938272,27.60493827160494,0)" xlink:href="#z"/><use transform="matrix(0.04938271604938272,0,0,0.04938271604938272,37.48148148148148,0)" xlink:href="#Q"/><use transform="matrix(0.04938271604938272,0,0,0.04938271604938272,47.358024691358025,0)" xlink:href="#Y"/><use transform="matrix(0.04938271604938272,0,0,0.04938271604938272,56.246913580246904,0)" xlink:href="#E"/><use transform="matrix(0.04938271604938272,0,0,0.04938271604938272,61.185185185185176,0)" xlink:href="#Z"/><use transform="matrix(0.04938271604938272,0,0,0.04938271604938272,73.9753086419753,0)" xlink:href="#G"/><use transform="matrix(0.04938271604938272,0,0,0.04938271604938272,83.85185185185185,0)" xlink:href="#E"/><use transform="matrix(0.04938271604938272,0,0,0.04938271604938272,88.79012345679013,0)" xlink:href="#G"/><use transform="matrix(0.04938271604938272,0,0,0.04938271604938272,98.66666666666667,0)" xlink:href="#R"/><use transform="matrix(0.04938271604938272,0,0,0.04938271604938272,102.56790123456791,0)" xlink:href="#H"/><use transform="matrix(0.04938271604938272,0,0,0.04938271604938272,112.44444444444446,0)" xlink:href="#V"/><use transform="matrix(0.04938271604938272,0,0,0.04938271604938272,122.320987654321,0)" xlink:href="#Q"/><use transform="matrix(0.04938271604938272,0,0,0.04938271604938272,132.19753086419755,0)" xlink:href="#N"/></g><path fill="#333" d="M140-251c81 0 123 46 123 126C263-46 219 4 140 4 59 4 17-45 17-125s42-126 123-126zm0 227c63 0 89-41 89-101s-29-99-89-99c-61 0-89 39-89 99S79-25 140-24" id="aa"/><g id="j"><use transform="matrix(0.04938271604938272,0,0,0.04938271604938272,0,0)" xlink:href="#aa"/><use transform="matrix(0.04938271604938272,0,0,0.04938271604938272,13.827160493827162,0)" xlink:href="#F"/><use transform="matrix(0.04938271604938272,0,0,0.04938271604938272,19.703703703703706,0)" xlink:href="#z"/><use transform="matrix(0.04938271604938272,0,0,0.04938271604938272,29.58024691358025,0)" xlink:href="#N"/><use transform="matrix(0.04938271604938272,0,0,0.04938271604938272,39.4567901234568,0)" xlink:href="#F"/></g><path fill="#333" d="M30 0v-248h33v221h125V0H30" id="ab"/><g id="k"><use transform="matrix(0.04938271604938272,0,0,0.04938271604938272,0,0)" xlink:href="#ab"/><use transform="matrix(0.04938271604938272,0,0,0.04938271604938272,9.876543209876544,0)" xlink:href="#H"/><use transform="matrix(0.04938271604938272,0,0,0.04938271604938272,19.75308641975309,0)" xlink:href="#V"/><use transform="matrix(0.04938271604938272,0,0,0.04938271604938272,29.629629629629633,0)" xlink:href="#B"/><use transform="matrix(0.04938271604938272,0,0,0.04938271604938272,33.53086419753087,0)" xlink:href="#C"/></g><g id="l"><use transform="matrix(0.04938271604938272,0,0,0.04938271604938272,0,0)" xlink:href="#Z"/><use transform="matrix(0.04938271604938272,0,0,0.04938271604938272,12.790123456790125,0)" xlink:href="#Q"/><use transform="matrix(0.04938271604938272,0,0,0.04938271604938272,22.66666666666667,0)" xlink:href="#D"/><use transform="matrix(0.04938271604938272,0,0,0.04938271604938272,31.555555555555557,0)" xlink:href="#E"/><use transform="matrix(0.04938271604938272,0,0,0.04938271604938272,36.49382716049384,0)" xlink:href="#H"/><use transform="matrix(0.04938271604938272,0,0,0.04938271604938272,46.37037037037038,0)" xlink:href="#A"/><use transform="matrix(0.04938271604938272,0,0,0.04938271604938272,61.13580246913581,0)" xlink:href="#N"/><use transform="matrix(0.04938271604938272,0,0,0.04938271604938272,71.01234567901236,0)" xlink:href="#F"/></g><g id="m"><use transform="matrix(0.04938271604938272,0,0,0.04938271604938272,0,0)" xlink:href="#ab"/><use transform="matrix(0.04938271604938272,0,0,0.04938271604938272,9.876543209876544,0)" xlink:href="#H"/><use transform="matrix(0.04938271604938272,0,0,0.04938271604938272,19.75308641975309,0)" xlink:href="#M"/><use transform="matrix(0.04938271604938272,0,0,0.04938271604938272,28.641975308641978,0)" xlink:href="#G"/><use transform="matrix(0.04938271604938272,0,0,0.04938271604938272,38.51851851851852,0)" xlink:href="#R"/><use transform="matrix(0.04938271604938272,0,0,0.04938271604938272,42.41975308641975,0)" xlink:href="#E"/><use transform="matrix(0.04938271604938272,0,0,0.04938271604938272,47.358024691358025,0)" xlink:href="#M"/></g></defs></g></svg>