<svg xmlns="http://www.w3.org/2000/svg" xmlns:xlink="http://www.w3.org/1999/xlink" xmlns:lucid="lucid" width="1430.87" height="796.25"><g transform="translate(-159.99999999999997 -480)" lucid:page-tab-id="Zm-V9qRojuwK"><path d="M0 0h1870.87v1322.83H0z" fill="#fff"/><path d="M1180.4 750c0 138-134.4 250-300 250s-300-112-300-250 134.4-250 300-250 300 112 300 250z" stroke="#d2d3d3" stroke-width="3" fill-opacity="0"/><path d="M220 1014c-22.1 0-40-19.7-40-44 0-19.44 10.83-35.84 27.64-41.85C206.66 871 273.34 860 300 882c13.32-33 80-22 80 11 39.98-11 79.98 33 53.32 88 26.66 44 0 99-53.33 77-13.35 28.6-66.68 28.6-80 0-26.67 22-80 11-80-44z" stroke="#000" stroke-width="4" fill="#c7e8ac"/><use xlink:href="#a" transform="matrix(1,0,0,1,179.99999999999997,860) translate(34.214876543209876 114.02777777777777)"/><use xlink:href="#b" transform="matrix(1,0,0,1,179.99999999999997,860) translate(116.74574074074074 114.02777777777777)"/><path d="M280 506a6 6 0 0 1 6-6h148a6 6 0 0 1 6 6v114c-26.72-20.04-43.36-20.04-53.44-20.04-16 0-37.28 20.04-53.28 20.04-9.92 0-26.72 0-53.28-20.04z" stroke="#5e5e5e" stroke-width="3" fill="#c1e4f7"/><use xlink:href="#c" transform="matrix(1,0,0,1,285,505) translate(22.623456790123456 37.46527777777778)"/><use xlink:href="#d" transform="matrix(1,0,0,1,285,505) translate(25.617283950617278 64.13194444444446)"/><path d="M1570.87 915c0 66.24-71.68 120-160 120s-160-53.76-160-120c0-66.24 71.68-120 160-120s160 53.76 160 120z" stroke="#d2d3d3" stroke-width="3" fill-opacity="0"/><path d="M1412.05 882.22c11.06 0 18.8 6.98 18.8 16.92v21.58h-9.72v-14.64h-2.68v14.64h-14.96c-1-10.94-9.85-18.38-22.25-18.38h-8.62v-5.97c9.5-.85 17.12-4.5 17.93-14.2h.88zM1350.2 882.2h.94c.87 9.68 8.44 13.34 17.93 14.2v5.93h-8.44c-12.4 0-21.3 7.48-22.24 18.4h-14.67v-14.66h-2.68v14.65h-10.18V899.1c0-10 7.74-16.94 18.85-16.94z" fill="#7d7c7c"/><path d="M1381.16 911.43c11.06 0 18.8 6.98 18.8 16.93V950h-9.78v-14.7h-2.62v14.65h-33.07V935.3h-2.57v14.65h-10.2v-21.6c0-9.94 7.76-16.92 18.82-16.92zM1339.93 840.06l16.32 11.6v5c.1 9.14-7.18 16.6-16.3 16.7h-.02c-8.94 0-16.32-7.47-16.32-17.42v-4.4zM1401.73 840.06l16.32 11.6v5c.1 9.14-7.18 16.6-16.3 16.7h-.02c-8.94 0-16.32-7.47-16.32-17.42v-4.4zM1370.85 862.84l14.42 10.2v4.5c.14 8.07-6.3 14.72-14.36 14.87h-.05c-8.15-.2-14.6-6.94-14.4-15.1 0-.12 0-.2.02-.33v-4.02z" fill="#7d7c7c"/><path d="M1401.75 835c9.18-.17 16.76 7.16 16.92 16.35.17 9.2-7.15 16.78-16.32 16.94-9.18.16-16.76-7.17-16.93-16.35v-.34c-.06-9.08 7.22-16.53 16.33-16.6zM1370.82 857.7c8.15-.2 14.9 6.25 15.1 14.4.18 8.15-6.25 14.9-14.4 15.12-8.13.18-14.88-6.26-15.1-14.4v-.36c-.08-8.07 6.35-14.65 14.4-14.77zM1412.05 877.08c11.06 0 18.8 6.98 18.8 16.94v21.64h-9.72V901h-2.68v14.66h-14.96c-1-10.96-9.85-18.36-22.25-18.36h-8.62v-1.9c9.72-.96 17.12-8.52 17.93-18.24h.88zM1350.2 877.1h.94c.82 9.75 8.2 17.3 17.93 18.27v1.85h-8.44c-12.4 0-21.3 7.48-22.24 18.4h-14.67V901h-2.68v14.65h-10.18v-21.63c0-10 7.74-16.93 18.85-16.93z" fill="#d2d3d3"/><path d="M1381.16 906.37c11.06 0 18.8 6.98 18.8 16.93v21.63h-9.78v-14.65h-2.62v14.65h-33.07v-14.65h-2.57v14.65h-10.2V923.3c0-9.95 7.76-16.93 18.82-16.93zM1339.94 835c9.17-.17 16.76 7.16 16.92 16.35.17 9.2-7.15 16.78-16.32 16.94-9.18.16-16.76-7.17-16.93-16.35v-.34c-.06-9.08 7.23-16.5 16.34-16.6z" fill="#d2d3d3"/><use xlink:href="#e" transform="matrix(1,0,0,1,1310.8661417322833,950) translate(12.53086419753086 17.77777777777778)"/><use xlink:href="#f" transform="matrix(1,0,0,1,1310.8661417322833,950) translate(58.148148148148145 17.77777777777778)"/><path d="M1529.2 942.5h-76.65c-.88 0-1.68-.76-1.68-1.7v-5.12c0-18.18 11.92-33.43 29.52-37.7.47-.1.87-.05 1.27.17 5.92 3.2 12.48 3.2 18.4 0 .4-.22.8-.26 1.2-.17 17.68 4.27 29.6 19.52 29.6 37.7v5.13c0 .94-.8 1.7-1.68 1.7zm-74.9-3.43h73.13v-3.4c.08-16.35-10.56-30.07-26.32-34.17-3.35 1.65-6.47 2.4-10.23 2.4-3.76 0-6.88-.7-10.24-2.4-15.76 4.1-26.4 17.82-26.32 34.18z" stroke="#fff" stroke-opacity="0" fill="#232f3e"/><path d="M1490.87 903.8c-3.67 0-6.8-.78-10.03-2.56-9.95-5.58-13.5-18.2-7.93-28.17 5.58-9.95 18.18-13.5 28.1-7.93 6.72 3.76 10.56 10.33 10.56 18.05 0 7.76-3.92 14.36-10.73 18.04-3.22 1.73-6.32 2.56-9.96 2.56zm0-37.83c-6.6-.17-12.26 3.18-15.44 8.96-4.5 8.4-1.4 18.8 6.94 23.34 5.4 2.93 11.35 2.93 16.76 0 5.7-3.1 9-8.68 8.97-15.2-.05-9.5-7.77-17.14-17.23-17.1z" stroke="#fff" stroke-opacity="0" fill="#232f3e"/><use xlink:href="#g" transform="matrix(1,0,0,1,1420.8661417322833,951.5) translate(31.820987654320987 17.77777777777778)"/><use xlink:href="#h" transform="matrix(1,0,0,1,1420.8661417322833,951.5) translate(39.16666666666667 44.44444444444444)"/><path d="M626.26 1033.87l21.9 23.47 13.27 13.02 10.6 9.56 9.26 7.67 8.44 6.4 7.95 5.54 7.63 4.84 7.45 4.3 7.36 3.86 7.37 3.46 7.45 3.13 7.58 2.82 7.8 2.54 8.1 2.24 8.44 2 8.92 1.7 9.48 1.38 10.18 1.07 11.03.68 11.08.23-.04 2-11.14-.22-11.1-.7-10.27-1.07-9.57-1.4-9-1.72-8.54-2-8.17-2.28-7.88-2.56-7.66-2.85-7.5-3.17-7.45-3.5-7.44-3.9-7.5-4.34-7.72-4.9-8.02-5.57-8.52-6.48-9.32-7.72-10.66-9.62-13.32-13.06-21.95-23.5-55.74-61.42h2.7zm-226.24-272.2l19.24 40.2 8.58 16 6.93 11.68 6.54 10.02 6.74 9.43 7.44 9.55 8.84 10.4 11.43 12.37 16.82 16.7 32.1 29.24 14.7 13.36 12.1 11.87h-2.85L538 942.06l-14.68-13.33-32.13-29.27-16.9-16.76-11.48-12.42-8.9-10.47-7.5-9.6-6.77-9.5-6.57-10.1-7-11.76-8.6-16.06-19.27-40.24L339.3 638.6l1.8-.86z" stroke="#000" stroke-width=".05"/><path d="M818.56 1133.83v2l-1.05-.02.05-2z"/><path d="M818.58 1133.8v2.06l-1.1-.03.05-2.04zm-1.04 2h1v-1.94l-.96-.02z" stroke="#000" stroke-width=".05"/><path d="M343.94 635.28l-8.37 3.98-1.94-14.87z"/><path d="M345.6 635.6l-10.85 5.15-2.5-19.3zm-9.22 2.17l5.9-2.8-7.26-7.66z" stroke="#000" stroke-width=".05"/><use xlink:href="#i" transform="matrix(1,0,0,1,518.8242876582866,952.4901488311776) translate(0 14.222222222222223)"/><path d="M780.4 715c0 44.18-44.77 80-100 80s-100-35.82-100-80 44.77-80 100-80 100 35.82 100 80z" fill="#a3d977"/><path d="M772.95 745.3l-.88 1.7-1.84 3.18-2.05 3.17-2.28 3.16-2.5 3.15-2.77 3.1-3 3.08-3.28 3.02-1.03.86m-12.78 9.18l-1.94 1.18-4.6 2.5-4.85 2.3-5.1 2.14-5.32 1.9-5.54 1.7-1.63.4m-15.46 3l-.58.1-6.18.58-6.3.3-2.64.02-6.34-.16-6.23-.47-3.14-.4m-15.48-2.95l-4.88-1.38-5.4-1.82-5.2-2.04-4.96-2.25-4.7-2.42-3.83-2.2m-12.78-9.18l-2.97-2.63-3.1-3.06-2.87-3.1-2.62-3.12-2.36-3.15-2.15-3.17-1.94-3.17-1.62-3m-5.52-14.73l-.34-1.37-.64-3.2-.47-3.2-.3-3.23-.16-3.24V715l.08-3.26.24-3.23.4-3.2.57-3.2.6-2.7m5.55-14.7l.87-1.7 1.84-3.18 2.06-3.17 2.28-3.16 2.5-3.15 2.77-3.1 3-3.08 3.27-3.02 1.03-.86m12.8-9.18l1.92-1.18 4.6-2.5 4.85-2.3 5.1-2.14 5.32-1.9 5.53-1.7 1.63-.4m15.45-3l.6-.1 6.18-.58 6.3-.3 2.64-.02 6.34.16 6.23.47 3.14.4m15.47 2.95l4.88 1.38 5.42 1.82 5.2 2.04 4.95 2.25 4.7 2.42 3.83 2.2m12.78 9.18l2.97 2.63 3.1 3.06 2.87 3.1 2.62 3.12 2.36 3.15 2.15 3.17 1.93 3.17 1.63 3m5.52 14.73l.34 1.37.64 3.2.47 3.2.3 3.23.15 3.24.02 1.36-.08 3.26-.25 3.23-.4 3.2-.57 3.2-.6 2.7" stroke="#5e5e5e" stroke-width="3" fill="none"/><use xlink:href="#j" transform="matrix(1,0,0,1,585.3987624253614,640) translate(75.79512345679012 14.222222222222221)"/><use xlink:href="#k" transform="matrix(1,0,0,1,585.3987624253614,640) translate(51.597592592592605 35.55555555555556)"/><path d="M920.4 590c0 38.66-35.82 70-80 70s-80-31.34-80-70 35.82-70 80-70 80 31.34 80 70z" fill="#83bbe5"/><path d="M914.93 615.43l-.46 1.07-1.85 3.65-2.13 3.6-2.4 3.57-2.7 3.48-2.96 3.4-2.5 2.53M889.8 645l-2.12 1.47-4.37 2.62-4.6 2.38-4.86 2.13-5.05 1.86-2.56.76m-12.78 2.83l-.84.14-5.67.57-5.78.23h-.77l-5.8-.18-5.68-.53-1.58-.26m-12.78-2.8l-1.87-.55-5.1-1.83-4.86-2.1-4.65-2.35-4.42-2.6-2.7-1.8m-10.1-8.3l-2.1-2.08-3.02-3.38-2.72-3.48-2.44-3.54-2.15-3.6-1.9-3.66-.67-1.55M761.8 603l-.22-.95-.63-3.8-.4-3.85-.15-3.88V590l.12-3.9.36-3.84.6-3.8.33-1.46m4.07-12.43l.46-1.07 1.85-3.65 2.12-3.6 2.4-3.57 2.7-3.48 2.96-3.4 2.5-2.53M791 535l2.12-1.47 4.37-2.62 4.6-2.38 4.85-2.13 5.06-1.86 2.56-.76m12.78-2.83l.84-.14 5.67-.57 5.78-.23h.77l5.8.18 5.67.53 1.6.26m12.77 2.8l1.87.55 5.1 1.83 4.86 2.1 4.65 2.35 4.4 2.6 2.7 1.8m10.12 8.3l2.1 2.08 3 3.38 2.74 3.48 2.43 3.54 2.15 3.6 1.9 3.66.67 1.55M919 577l.22.95.63 3.8.4 3.85.15 3.88v.52l-.12 3.9-.36 3.84-.6 3.8-.33 1.46" stroke="#5e5e5e" stroke-width="3" fill="none"/><use xlink:href="#l" transform="matrix(1,0,0,1,765.3987624253614,525) translate(40.06055555555556 18.009999999999998)"/><use xlink:href="#m" transform="matrix(1,0,0,1,765.3987624253614,525) translate(26.171666666666667 42.01)"/><path d="M880 885.2c0 36.03-35.82 65.22-80 65.22s-80-29.2-80-65.2c0-36.02 35.82-65.22 80-65.22s80 29.2 80 65.2z" fill="#83bbe5"/><path d="M874.14 909.7l-1.02 2-1.92 3.28-2.2 3.24-2.47 3.22-2.78 3.17-3.1 3.13-2.07 1.85m-10.2 7.54l-3.3 1.97-4.68 2.4-4.98 2.2-5.24 1.92-5.06 1.5m-12.45 2.48l-5.65.57-6.2.25H800l-6.2-.2-6.1-.56-.37-.06m-12.45-2.5l-4.35-1.24-5.28-1.9-5-2.15-4.73-2.38-3.9-2.3m-10.2-7.54l-1.65-1.45-3.13-3.1-2.82-3.17-2.52-3.2-2.22-3.25-1.96-3.25-1.26-2.45m-4.35-11.9l-.47-2.1-.55-3.32-.34-3.35-.14-3.37v-.45l.1-3.37.32-3.34.52-3.34.57-2.53m4.36-11.9l1.02-2.02 1.92-3.26 2.2-3.24 2.47-3.22 2.78-3.17 3.1-3.1 2.07-1.85m10.2-7.54l3.3-1.97 4.68-2.42 4.98-2.17 5.24-1.93 5.06-1.5m12.45-2.47l5.65-.58 6.2-.25h.82l6.2.2 6.1.56.37.06m12.45 2.5l4.35 1.25 5.28 1.88 5 2.16 4.73 2.4 3.9 2.3m10.2 7.55l1.65 1.44 3.13 3.1 2.82 3.16 2.52 3.2 2.22 3.25 1.96 3.28 1.26 2.44m4.35 11.9l.47 2.1.55 3.33.34 3.34.14 3.36v.45l-.1 3.4-.32 3.34-.52 3.32-.57 2.54" stroke="#5e5e5e" stroke-width="3" fill="none"/><use xlink:href="#l" transform="matrix(1,0,0,1,725,825) translate(40.06055555555556 18.009999999999998)"/><use xlink:href="#m" transform="matrix(1,0,0,1,725,825) translate(26.171666666666667 42.01)"/><path d="M1120.4 647.5c0 37.28-35.82 67.5-80 67.5s-80-30.22-80-67.5 35.82-67.5 80-67.5 80 30.22 80 67.5z" fill="#d2d3d3"/><path d="M1114.75 672.45l-1.66 3.28-2.03 3.43-2.3 3.4-2.57 3.34-2.87 3.28-3.18 3.2-.7.63m-10.17 7.92l-.48.33-4.38 2.62-4.65 2.4-4.92 2.17-5.15 1.9-3.84 1.13m-12.6 2.66l-.2.03-5.87.6-6 .24h-.8l-6-.2-5.9-.54-.96-.15m-12.6-2.63l-3.14-.9-5.2-1.87-4.93-2.12-4.7-2.38-4.4-2.6-1.05-.7m-10.18-7.88l-.25-.22-3.23-3.2-2.9-3.26-2.63-3.34-2.33-3.4-2.04-3.42-1.8-3.45-.1-.28m-4.2-12.17l-.36-1.56-.6-3.55-.36-3.58-.14-3.62v-.48l.1-3.62.35-3.58.56-3.55.46-2.03m4.2-12.17l1.65-3.28 2.02-3.43 2.3-3.4 2.57-3.34 2.87-3.28 3.17-3.2.7-.63m10.18-7.92l.48-.33 4.38-2.62 4.65-2.4 4.92-2.17 5.15-1.9 3.84-1.13m12.6-2.66l.2-.03 5.87-.6 6-.24h.8l6 .2 5.88.54.97.15m12.6 2.63l3.15.9 5.18 1.87 4.95 2.12 4.7 2.38 4.4 2.6 1.04.7m10.2 7.88l.24.22 3.23 3.2 2.9 3.26 2.63 3.34 2.33 3.4 2.04 3.42 1.78 3.45.13.28m4.2 12.17l.35 1.56.6 3.55.35 3.58.15 3.62v.48l-.1 3.62-.35 3.58-.56 3.55-.46 2.03" stroke="#5e5e5e" stroke-width="3" fill="none"/><use xlink:href="#n" transform="matrix(1,0,0,1,965.3987624253614,585) translate(26.727222222222228 24.009999999999998)"/><use xlink:href="#m" transform="matrix(1,0,0,1,965.3987624253614,585) translate(26.171666666666667 48.01)"/><path d="M1120.4 840c0 44.18-44.77 80-100 80s-100-35.82-100-80 44.77-80 100-80 100 35.82 100 80z" fill="#d2d3d3"/><path d="M1112.95 870.3l-.88 1.7-1.84 3.18-2.05 3.17-2.28 3.16-2.5 3.15-2.77 3.1-3 3.08-3.28 3.02-1.03.86m-12.78 9.18l-1.94 1.18-4.6 2.5-4.85 2.3-5.1 2.14-5.32 1.9-5.54 1.7-1.63.4m-15.46 3l-.58.1-6.18.58-6.3.3-2.64.02-6.34-.16-6.23-.47-3.14-.4m-15.48-2.95l-4.88-1.38-5.4-1.82-5.2-2.04-4.96-2.25-4.7-2.42-3.83-2.2m-12.78-9.18l-2.97-2.63-3.1-3.06-2.87-3.1-2.62-3.12-2.36-3.15-2.15-3.17-1.94-3.17-1.62-3m-5.52-14.73l-.34-1.37-.64-3.2-.47-3.2-.3-3.23-.16-3.24V840l.08-3.26.24-3.23.4-3.2.57-3.2.6-2.7m5.55-14.7l.87-1.7 1.84-3.18 2.06-3.17 2.28-3.16 2.5-3.15 2.77-3.1 3-3.08 3.27-3.02 1.03-.86m12.8-9.18l1.92-1.18 4.6-2.5 4.85-2.3 5.1-2.14 5.32-1.9 5.53-1.7 1.63-.4m15.45-3l.6-.1 6.18-.58 6.3-.3 2.64-.02 6.34.16 6.23.47 3.14.4m15.47 2.95l4.88 1.38 5.42 1.82 5.2 2.04 4.95 2.25 4.7 2.42 3.83 2.2m12.78 9.18l2.97 2.63 3.1 3.06 2.87 3.1 2.62 3.12 2.36 3.15 2.15 3.17 1.93 3.17 1.63 3m5.52 14.73l.34 1.37.64 3.2.47 3.2.3 3.23.15 3.24.02 1.36-.08 3.26-.25 3.23-.4 3.2-.57 3.2-.6 2.7" stroke="#5e5e5e" stroke-width="3" fill="none"/><use xlink:href="#n" transform="matrix(1,0,0,1,925.3987624253614,765) translate(46.72722222222223 22.009999999999998)"/><use xlink:href="#m" transform="matrix(1,0,0,1,925.3987624253614,765) translate(45.67166666666667 46.01)"/><path d="M682.5 719.93l321.28-22.96" stroke="#5e5e5e" stroke-width="2" fill="none"/><path d="M682.6 720.92l-1.16.1.06-1-.03-1.02.98-.07zM1005.05 697.4l.34.46-1.58.1-.14-1.98.56-.04z" stroke="#5e5e5e" stroke-width=".05" fill="#5e5e5e"/><path d="M715.84 792.4l21 49.36" stroke="#5e5e5e" stroke-width="2" fill="none"/><path d="M716.77 792.03l-1.84.78-.44-1.03 1.92-.58zM738 841.9l-1.52 1.55-.56-1.32 1.84-.8z" stroke="#5e5e5e" stroke-width=".05" fill="#5e5e5e"/><path d="M882.87 620.25l121.57 31.7" stroke="#5e5e5e" stroke-width="2" fill="none"/><path d="M883.14 619.3l-.5 1.93-.8-.2.06-1-.04-1.07zM1005.97 651.3l-1.12 1.78-.7-.18.52-1.94z" stroke="#5e5e5e" stroke-width=".05" fill="#5e5e5e"/><path d="M680 720c0 22.1-17.9 40-40 40s-40-17.9-40-40 17.9-40 40-40 40 17.9 40 40z" stroke="#5e5e5e" stroke-width="3" fill="#ffdda6"/><use xlink:href="#o" transform="matrix(1,0,0,1,605,685) translate(-0.55555555555555 27.888888888888886)"/><use xlink:href="#p" transform="matrix(1,0,0,1,605,685) translate(4.407407407407415 49.22222222222222)"/><g filter="url(#q)"><path d="M820 1100a20 20 0 0 1 20-20h260a20 20 0 0 1 20 20v136.25a20 20 0 0 1-20 20H840a20 20 0 0 1-20-20z" stroke="#747474" stroke-width="3" fill="#fff"/><path d="M935 1218.25h183.5v3H935zM915 1155.13c0 20.7-16.8 37.5-37.5 37.5s-37.5-16.8-37.5-37.5 16.8-37.5 37.5-37.5 37.5 16.8 37.5 37.5z" fill="#e5e5e5"/><use xlink:href="#r" transform="matrix(1,0,0,1,935.0000000000001,1100) translate(0 20.213999999999995)"/><use xlink:href="#s" transform="matrix(1,0,0,1,935.0000000000001,1100) translate(63.81999999999999 20.213999999999995)"/><use xlink:href="#t" transform="matrix(1,0,0,1,935.0000000000001,1100) translate(0 48.418)"/><use xlink:href="#u" transform="matrix(1,0,0,1,935.0000000000001,1100) translate(67.24000000000001 48.418)"/><use xlink:href="#v" transform="matrix(1,0,0,1,935.0000000000001,1100) translate(0 76.622)"/><use xlink:href="#w" transform="matrix(1,0,0,1,935.0000000000001,1100) translate(72.9 76.622)"/><use xlink:href="#x" transform="matrix(1,0,0,1,935.0000000000001,1100) translate(0 104.82600000000001)"/></g><path d="M1080 675c0 22.1-17.9 40-40 40s-40-17.9-40-40 17.9-40 40-40 40 17.9 40 40z" stroke="#5e5e5e" stroke-width="3" fill="#ffdda6"/><use xlink:href="#o" transform="matrix(1,0,0,1,1005,640) translate(-0.55555555555555 27.888888888888886)"/><use xlink:href="#p" transform="matrix(1,0,0,1,1005,640) translate(4.407407407407415 49.22222222222222)"/><path d="M1000 860c0 22.1-17.9 40-40 40s-40-17.9-40-40 17.9-40 40-40 40 17.9 40 40z" stroke="#5e5e5e" stroke-width="3" fill="#ffdda6"/><use xlink:href="#o" transform="matrix(1,0,0,1,925,825) translate(-0.55555555555555 27.888888888888886)"/><use xlink:href="#p" transform="matrix(1,0,0,1,925,825) translate(4.407407407407415 49.22222222222222)"/><path d="M1120 860c0 22.1-17.9 40-40 40s-40-17.9-40-40 17.9-40 40-40 40 17.9 40 40z" stroke="#5e5e5e" stroke-width="3" fill="#ffdda6"/><use xlink:href="#o" transform="matrix(1,0,0,1,1045,825) translate(-0.55555555555555 27.888888888888886)"/><use xlink:href="#p" transform="matrix(1,0,0,1,1045,825) translate(4.407407407407415 49.22222222222222)"/><path d="M840 910.42c0 22.1-17.9 40-40 40s-40-17.9-40-40 17.9-40 40-40 40 17.9 40 40z" stroke="#5e5e5e" stroke-width="3" fill="#ffdda6"/><use xlink:href="#o" transform="matrix(1,0,0,1,765,875.422) translate(-0.55555555555555 27.888888888888886)"/><use xlink:href="#p" transform="matrix(1,0,0,1,765,875.422) translate(4.407407407407415 49.22222222222222)"/><path d="M880.4 620c0 22.1-17.9 40-40 40s-40-17.9-40-40 17.9-40 40-40 40 17.9 40 40z" stroke="#5e5e5e" stroke-width="3" fill="#ffdda6"/><use xlink:href="#o" transform="matrix(1,0,0,1,805.3987624253614,585) translate(-0.55555555555555 27.888888888888886)"/><use xlink:href="#p" transform="matrix(1,0,0,1,805.3987624253614,585) translate(4.407407407407415 49.22222222222222)"/><path d="M680.88 731.47l245.07 103.2" stroke="#5e5e5e" stroke-width="2" fill="none"/><path d="M681.3 730.56l-.78 1.84-.87-.36.56-1.74.05-.18zM927.54 834.26l-1.22 1.48-.1.14-.68-.3.78-1.83z" stroke="#5e5e5e" stroke-width=".05" fill="#5e5e5e"/><path d="M1002.5 860h39-39" stroke="#5e5e5e" stroke-width="2" fill="none"/><path d="M1002.53 861h-1.1l.07-.98-.03-1.02h1.06z" stroke="#5e5e5e" stroke-width=".05" fill="#5e5e5e"/><path d="M1002.53 861h-1.1l.07-.98-.03-1.02h1.06z" stroke="#5e5e5e" stroke-width=".05" fill="#5e5e5e"/><path d="M760.4 716a6 6 0 0 1 6-6h228a6 6 0 0 1 6 6v48a6 6 0 0 1-6 6h-228a6 6 0 0 1-6-6z" stroke="#000" stroke-opacity="0" stroke-width="3" fill="#fff" fill-opacity="0"/><use xlink:href="#y" transform="matrix(1,0,0,1,765.3987624253614,715) translate(48.549382716049394 30.27777777777778)"/><use xlink:href="#z" transform="matrix(1,0,0,1,765.3987624253614,715) translate(137.12962962962962 30.27777777777778)"/><path d="M656.9 619.75l15.4 1.28 16.27.66 21.32-.06 70.47-2.1.06 2-70.5 2.1-21.4.05-16.35-.68-15.5-1.3-16.26-2.03-5.84-1H648v-.07zm-132.18-31.32l29.5 8.94h-6.9l-23.22-7.04-82.02-28.73.66-1.9z" stroke="#5e5e5e" stroke-width=".05" fill="#5e5e5e"/><path d="M442.77 559.72l-.66 1.88-.64-.22v-2.12z" fill="#5e5e5e"/><path d="M442.8 559.7l-.68 1.94-.68-.24v-2.18zm-1.3 1.66l.6.2.63-1.83-1.24-.44z" stroke="#5e5e5e" stroke-width=".05" fill="#5e5e5e"/><path d="M795.66 620.1l-14.12 5.05-.27-9.26z" fill="#5e5e5e"/><path d="M798.9 620l-18.32 6.56-.35-12.02zm-16.4 3.75l9.93-3.56-10.12-2.97z" stroke="#5e5e5e" stroke-width=".05" fill="#5e5e5e"/><use xlink:href="#A" transform="matrix(1,0,0,1,529.7849453085296,597.3666045101951) translate(0 14.222222222222223)"/><use xlink:href="#B" transform="matrix(1,0,0,1,529.7849453085296,597.3666045101951) translate(71.01234567901236 14.222222222222223)"/><use xlink:href="#C" transform="matrix(1,0,0,1,529.7849453085296,597.3666045101951) translate(92.64197530864199 14.222222222222223)"/><path d="M525.75 666l11.53.97 9.4 1.18 8.02 1.35 7 1.5 6.24 1.58 5.62 1.7 5.12 1.78 4.7 1.87 4.38 1.94 4.07 2.02 1.27.7-.96 1.74-1.24-.68-4-1.98-4.28-1.9-4.64-1.84-5.04-1.76-5.54-1.67-6.15-1.56-6.92-1.47-7.93-1.34-9.33-1.17-11.45-.95-15.3-.62-19.17.22v-2l19.2-.22zm-164.67-50.74l.2 3.4.33 3.05.42 2.76.48 2.52.54 2.3.6 2.12.63 1.98.68 1.84.73 1.72.76 1.63.8 1.53.85 1.47.87 1.4.93 1.32.97 1.28 1.03 1.23 1.07 1.2 1.14 1.17 1.22 1.13 1.27 1.1 1.36 1.08 1.46 1.06 1.56 1.04 1.7 1.03 1.15.64h-3.97l-1.58-1.05-1.53-1.12-1.43-1.14-1.34-1.15-1.27-1.2-1.18-1.22-1.14-1.26-1.07-1.3-1.02-1.35-.97-1.4-.92-1.47-.9-1.53-.83-1.6-.8-1.7-.76-1.82-.72-1.9-.67-2.07-.6-2.2-.56-2.4-.5-2.58-.4-2.84-.34-3.14-.22-3.48-.06-2.87 2-.05z" stroke="#5e5e5e" stroke-width=".05" fill="#5e5e5e"/><path d="M361.02 612.45l-2 .04v-.56l1.97-1z" fill="#5e5e5e"/><path d="M361.05 612.47l-2.05.05v-.6l2-1.02zm-2-.5v.5l1.95-.04-.03-1.45z" stroke="#5e5e5e" stroke-width=".05" fill="#5e5e5e"/><path d="M605.3 691.9l-14.44-4.04 5.14-7.72z" fill="#5e5e5e"/><path d="M608 693.7l-18.74-5.25 6.67-10zm-15.55-6.43l10.16 2.85-6.53-8.28z" stroke="#5e5e5e" stroke-width=".05" fill="#5e5e5e"/><use xlink:href="#A" transform="matrix(1,0,0,1,372.9306704369096,656.2395443672483) translate(0 14.222222222222223)"/><use xlink:href="#B" transform="matrix(1,0,0,1,372.9306704369096,656.2395443672483) translate(71.01234567901236 14.222222222222223)"/><use xlink:href="#C" transform="matrix(1,0,0,1,372.9306704369096,656.2395443672483) translate(92.64197530864199 14.222222222222223)"/><path d="M960 1052.85l1.47 1.63 1.3 1.57 1.15 1.5 1.02 1.48.9 1.44.83 1.4.72 1.4.64 1.36.57 1.36.5 1.35.45 1.35.38 1.36.32 1.37.27 1.4.2 1.4.16 1.42.1 1.47v.48l-2 .04v-.44l-.1-1.38-.14-1.35-.2-1.32-.24-1.3-.3-1.3-.36-1.27-.42-1.27-.47-1.27-.54-1.28-.6-1.3-.7-1.3-.76-1.35-.86-1.36-.98-1.4-1.1-1.45-1.24-1.5-1.42-1.58-1.6-1.65-.6-.54h2.86zM806.72 970.4l.98 1.4 1.1 1.46 1.24 1.5 1.42 1.57 1.6 1.64 1.86 1.74 2.15 1.86 2.52 2 2.97 2.16 3.58 2.38 4.42 2.67 5.6 3.08 7.48 3.7 72.37 28.68 10.07 4.46h-4.95l-5.9-2.63-72.4-28.7-7.6-3.75-5.68-3.12-4.5-2.7-3.64-2.44-3.05-2.2-2.58-2.05-2.2-1.9-1.93-1.8-1.67-1.7-1.47-1.63-1.3-1.57-1.15-1.52-1.02-1.47-.9-1.4 1.7-1.08z" stroke="#5e5e5e" stroke-width=".05" fill="#5e5e5e"/><path d="M971 1078.62h-2l-.02-1 2-.05z" fill="#5e5e5e"/><path d="M971.03 1078.65h-2.05l-.03-1.06 2.05-.05zm-2.03-1l.02.95h1.95l-.02-1z" stroke="#5e5e5e" stroke-width=".05" fill="#5e5e5e"/><path d="M809.22 967.5l-8.92 2.52.58-14.98z" fill="#5e5e5e"/><path d="M810.82 968.1l-11.57 3.26.75-19.44zm-9.47.6l6.27-1.78-5.86-8.77z" stroke="#5e5e5e" stroke-width=".05" fill="#5e5e5e"/><use xlink:href="#A" transform="matrix(1,0,0,1,877.8357799611427,1030.6932482325537) translate(0 14.222222222222223)"/><use xlink:href="#B" transform="matrix(1,0,0,1,877.8357799611427,1030.6932482325537) translate(71.01234567901236 14.222222222222223)"/><use xlink:href="#D" transform="matrix(1,0,0,1,877.8357799611427,1030.6932482325537) translate(92.64197530864199 14.222222222222223)"/><path d="M962.72 923l.86 4.52 1 4.3 1.15 4.12 1.3 4 1.45 3.9 1.63 3.85 1.82 3.85 2.06 3.93 2.35 4.07 2.75 4.33 3.36 4.82 4.43 5.83 17.02 19.98 8.12 9.77 4.5 5.9 3.4 4.9 2.8 4.4 2.4 4.15 2.08 4 1.85 3.94 1.66 3.93 1.5 3.97 1.3 4.08 1.2 4.2 1 4.37.9 4.6.7 4.88.55 5.2.36 5.63.1 5.1-2 .05-.1-5.06-.34-5.54-.54-5.13-.7-4.8-.87-4.5-1-4.3-1.15-4.13-1.3-4-1.45-3.9-1.62-3.85-1.82-3.86-2.05-3.92-2.35-4.07-2.75-4.32-3.35-4.82-4.44-5.84-8.1-9.72-17.05-20-4.48-5.92-3.4-4.9-2.8-4.4-2.4-4.14-2.1-4-1.84-3.94-1.66-3.93-1.48-4-1.32-4.06-1.17-4.2-1.03-4.37-.88-4.6-.47-3.24 1.97-.3z" stroke="#5e5e5e" stroke-width=".05" fill="#5e5e5e"/><path d="M1038.33 1078.56h-2l-.02-1 2-.05z" fill="#5e5e5e"/><path d="M1038.36 1078.58h-2.05v-1.05l2.04-.05zm-2.02-1l.02.95h1.95v-1z" stroke="#5e5e5e" stroke-width=".05" fill="#5e5e5e"/><path d="M965.8 918.65l-9.24.63 3.66-14.55z" fill="#5e5e5e"/><path d="M967.25 919.55l-12 .82L960 901.5zm-9.38-1.36l6.5-.46-3.93-9.78z" stroke="#5e5e5e" stroke-width=".05" fill="#5e5e5e"/><path d="M1073.32 1077.52l-.5-23.4-5.48-92 .28-13.42.8-12.72 1.35-12.9.58-3.92" stroke="#5e5e5e" stroke-width="2" stroke-linejoin="round" fill="none"/><path d="M1074.34 1078.52h-2l-.02-1 2-.04z" stroke="#5e5e5e" stroke-width=".05" fill="#5e5e5e"/><path d="M1072.82 904.1l2.27 14.83-9.16-1.5z" stroke="#5e5e5e" stroke-width="2" fill="#5e5e5e"/><path d="M1251.84 1130.35l-6.7 4.64-6.86 4.3-7.02 4.03-7.2 3.74-7.45 3.47-7.67 3.2-7.98 2.95-8.3 2.66-8.7 2.4-9.1 2.1-9.6 1.8-10.14 1.46-10.77 1.1-4.4.26-.12-2 4.37-.25 10.7-1.1 10.06-1.45 9.5-1.78 9.04-2.1 8.6-2.36 8.23-2.64 7.9-2.9 7.6-3.2 7.36-3.42 7.14-3.7 6.95-4 6.78-4.26 6.64-4.6 1.72-1.28h3.3zm81.08-107.85l-5.74 12.8-6.17 12.33-6.16 11.15-6.16 10.12-6.17 9.23-6.17 8.46-6.2 7.76-6.23 7.18-4.32 4.57h-2.75l5.58-5.9 6.2-7.12 6.14-7.7 6.13-8.4 6.12-9.16 6.1-10.05 6.14-11.07 6.13-12.26 5.72-12.76z" stroke="#5e5e5e" stroke-width=".05" fill="#5e5e5e"/><path d="M1333.34 1021.57l-.44.96-1.82-.82.4-.9z" fill="#5e5e5e"/><path d="M1333.37 1021.55l-.45 1-1.87-.83.43-.96zm-2.26.14l1.8.8.4-.92-1.8-.76z" stroke="#5e5e5e" stroke-width=".05" fill="#5e5e5e"/><path d="M1139.03 1172.15l-14.42-4.14 14.1-5.1z" fill="#5e5e5e"/><path d="M1140.08 1173.5l-18.7-5.37 18.28-6.65zm-12.23-5.6l10.13 2.9-.22-6.5z" stroke="#5e5e5e" stroke-width=".05" fill="#5e5e5e"/><g><use xlink:href="#E" transform="matrix(1,0,0,1,1239.4731994876995,1106.1055201894244) translate(0 14.222222222222223)"/></g><path d="M342.17 1102.53l.73 5.8.9 5.3 1.03 4.9 1.16 4.52 1.27 4.22 1.37 3.95 1.47 3.72 1.58 3.5 1.65 3.33 1.74 3.17 1.83 3.03 1.92 2.9 2.03 2.78 2.13 2.7 2.24 2.6 2.37 2.5 2.5 2.47 2.66 2.4 2.82 2.32 3 2.3 3.23 2.23 3.48 2.2 3.73 2.15 4.06 2.12 4.42 2.08 4.85 2.03 5.34 2 5.95 1.92 6.66 1.85 7.55 1.77 8.65 1.64 2.27.33v2.02l-2.6-.4-8.73-1.65-7.63-1.8-6.76-1.87-6.02-1.95-5.43-2.02-4.93-2.06-4.5-2.1-4.12-2.17-3.8-2.2-3.54-2.24-3.3-2.28-3.06-2.34-2.9-2.38-2.7-2.44-2.58-2.52-2.42-2.58-2.3-2.66-2.18-2.76-2.08-2.85-1.97-2.96-1.87-3.1-1.78-3.24-1.68-3.4-1.6-3.6-1.5-3.78-1.4-4.03-1.3-4.3-1.2-4.63-1.04-4.97-.9-5.4-.75-5.87-.23-2.72 2-.16zm475.47 66.62l-24.37.53-35.93 2.32-73.18 8-39.42 4.68H627.8l56.13-6.67 73.24-8 36-2.32 24.42-.53z" stroke="#5e5e5e" stroke-width=".05" fill="#5e5e5e"/><path d="M818.62 1169.13l-1 .02-.05-2 1.05-.02z" fill="#5e5e5e"/><path d="M818.65 1169.15l-1.06.02-.06-2.05 1.1-.02zm-1.06-1.98l.04 1.95.96-.02v-1.95z" stroke="#5e5e5e" stroke-width=".05" fill="#5e5e5e"/><path d="M345.55 1098.78l-9.27.3 4.17-14.4z" fill="#5e5e5e"/><path d="M346.95 1099.74l-12 .4 5.4-18.7zm-9.33-1.7l6.52-.2-3.6-9.93z" stroke="#5e5e5e" stroke-width=".05" fill="#5e5e5e"/><g><use xlink:href="#F" transform="matrix(1,0,0,1,438.74604903961347,1184.682557489546) translate(0 14.222222222222223)"/><use xlink:href="#G" transform="matrix(1,0,0,1,438.74604903961347,1184.682557489546) translate(68.98765432098767 14.222222222222223)"/><use xlink:href="#H" transform="matrix(1,0,0,1,438.74604903961347,1184.682557489546) translate(196.98765432098767 14.222222222222223)"/></g><defs><path fill="#333" d="M30-248c118-7 216 8 213 122C240-48 200 0 122 0H30v-248zM63-27c89 8 146-16 146-99s-60-101-146-95v194" id="I"/><path fill="#333" d="M100-194c62-1 85 37 85 99 1 63-27 99-86 99S16-35 15-95c0-66 28-99 85-99zM99-20c44 1 53-31 53-75 0-43-8-75-51-75s-53 32-53 75 10 74 51 75" id="J"/><path fill="#333" d="M210-169c-67 3-38 105-44 169h-31v-121c0-29-5-50-35-48C34-165 62-65 56 0H25l-1-190h30c1 10-1 24 2 32 10-44 99-50 107 0 11-21 27-35 58-36 85-2 47 119 55 194h-31v-121c0-29-5-49-35-48" id="K"/><path fill="#333" d="M141-36C126-15 110 5 73 4 37 3 15-17 15-53c-1-64 63-63 125-63 3-35-9-54-41-54-24 1-41 7-42 31l-33-3c5-37 33-52 76-52 45 0 72 20 72 64v82c-1 20 7 32 28 27v20c-31 9-61-2-59-35zM48-53c0 20 12 33 32 33 41-3 63-29 60-74-43 2-92-5-92 41" id="L"/><path fill="#333" d="M24-231v-30h32v30H24zM24 0v-190h32V0H24" id="M"/><path fill="#333" d="M117-194c89-4 53 116 60 194h-32v-121c0-31-8-49-39-48C34-167 62-67 57 0H25l-1-190h30c1 10-1 24 2 32 11-22 29-35 61-36" id="N"/><g id="a"><use transform="matrix(0.06172839506172839,0,0,0.06172839506172839,0,0)" xlink:href="#I"/><use transform="matrix(0.06172839506172839,0,0,0.06172839506172839,15.987654320987653,0)" xlink:href="#J"/><use transform="matrix(0.06172839506172839,0,0,0.06172839506172839,28.333333333333332,0)" xlink:href="#K"/><use transform="matrix(0.06172839506172839,0,0,0.06172839506172839,46.79012345679012,0)" xlink:href="#L"/><use transform="matrix(0.06172839506172839,0,0,0.06172839506172839,59.1358024691358,0)" xlink:href="#M"/><use transform="matrix(0.06172839506172839,0,0,0.06172839506172839,64.01234567901234,0)" xlink:href="#N"/></g><path fill="#333" d="M143 0L79-87 56-68V0H24v-261h32v163l83-92h37l-77 82L181 0h-38" id="O"/><path fill="#333" d="M206 0h-36l-40-164L89 0H53L-1-190h32L70-26l43-164h34l41 164 42-164h31" id="P"/><path fill="#333" d="M24 0v-261h32V0H24" id="Q"/><path fill="#333" d="M100-194c63 0 86 42 84 106H49c0 40 14 67 53 68 26 1 43-12 49-29l28 8c-11 28-37 45-77 45C44 4 14-33 15-96c1-61 26-98 85-98zm52 81c6-60-76-77-97-28-3 7-6 17-6 28h103" id="R"/><path fill="#333" d="M85-194c31 0 48 13 60 33l-1-100h32l1 261h-30c-2-10 0-23-3-31C134-8 116 4 85 4 32 4 16-35 15-94c0-66 23-100 70-100zm9 24c-40 0-46 34-46 75 0 40 6 74 45 74 42 0 51-32 51-76 0-42-9-74-50-73" id="S"/><path fill="#333" d="M177-190C167-65 218 103 67 71c-23-6-38-20-44-43l32-5c15 47 100 32 89-28v-30C133-14 115 1 83 1 29 1 15-40 15-95c0-56 16-97 71-98 29-1 48 16 59 35 1-10 0-23 2-32h30zM94-22c36 0 50-32 50-73 0-42-14-75-50-75-39 0-46 34-46 75s6 73 46 73" id="T"/><g id="b"><use transform="matrix(0.06172839506172839,0,0,0.06172839506172839,0,0)" xlink:href="#O"/><use transform="matrix(0.06172839506172839,0,0,0.06172839506172839,11.11111111111111,0)" xlink:href="#N"/><use transform="matrix(0.06172839506172839,0,0,0.06172839506172839,23.45679012345679,0)" xlink:href="#J"/><use transform="matrix(0.06172839506172839,0,0,0.06172839506172839,35.80246913580247,0)" xlink:href="#P"/><use transform="matrix(0.06172839506172839,0,0,0.06172839506172839,51.79012345679012,0)" xlink:href="#Q"/><use transform="matrix(0.06172839506172839,0,0,0.06172839506172839,56.666666666666664,0)" xlink:href="#R"/><use transform="matrix(0.06172839506172839,0,0,0.06172839506172839,69.01234567901234,0)" xlink:href="#S"/><use transform="matrix(0.06172839506172839,0,0,0.06172839506172839,81.35802469135803,0)" xlink:href="#T"/><use transform="matrix(0.06172839506172839,0,0,0.06172839506172839,93.70370370370371,0)" xlink:href="#R"/></g><path fill="#333" d="M232-93c-1 65-40 97-104 97C67 4 28-28 28-90v-158h33c8 89-33 224 67 224 102 0 64-133 71-224h33v155" id="U"/><path fill="#333" d="M115-194c53 0 69 39 70 98 0 66-23 100-70 100C84 3 66-7 56-30L54 0H23l1-261h32v101c10-23 28-34 59-34zm-8 174c40 0 45-34 45-75 0-40-5-75-45-74-42 0-51 32-51 76 0 43 10 73 51 73" id="V"/><path fill="#333" d="M145-31C134-9 116 4 85 4 32 4 16-35 15-94c0-59 17-99 70-100 32-1 48 14 60 33 0-11-1-24 2-32h30l-1 268h-32zM93-21c41 0 51-33 51-76s-8-73-50-73c-40 0-46 35-46 75s5 74 45 74" id="W"/><path fill="#333" d="M84 4C-5 8 30-112 23-190h32v120c0 31 7 50 39 49 72-2 45-101 50-169h31l1 190h-30c-1-10 1-25-2-33-11 22-28 36-60 37" id="X"/><path fill="#333" d="M59-47c-2 24 18 29 38 22v24C64 9 27 4 27-40v-127H5v-23h24l9-43h21v43h35v23H59v120" id="Y"/><path fill="#333" d="M135-143c-3-34-86-38-87 0 15 53 115 12 119 90S17 21 10-45l28-5c4 36 97 45 98 0-10-56-113-15-118-90-4-57 82-63 122-42 12 7 21 19 24 35" id="Z"/><g id="c"><use transform="matrix(0.06172839506172839,0,0,0.06172839506172839,0,0)" xlink:href="#U"/><use transform="matrix(0.06172839506172839,0,0,0.06172839506172839,15.987654320987653,0)" xlink:href="#V"/><use transform="matrix(0.06172839506172839,0,0,0.06172839506172839,28.333333333333332,0)" xlink:href="#M"/><use transform="matrix(0.06172839506172839,0,0,0.06172839506172839,33.20987654320987,0)" xlink:href="#W"/><use transform="matrix(0.06172839506172839,0,0,0.06172839506172839,45.55555555555555,0)" xlink:href="#X"/><use transform="matrix(0.06172839506172839,0,0,0.06172839506172839,57.90123456790123,0)" xlink:href="#M"/><use transform="matrix(0.06172839506172839,0,0,0.06172839506172839,62.77777777777777,0)" xlink:href="#Y"/><use transform="matrix(0.06172839506172839,0,0,0.06172839506172839,68.9506172839506,0)" xlink:href="#J"/><use transform="matrix(0.06172839506172839,0,0,0.06172839506172839,81.29629629629629,0)" xlink:href="#X"/><use transform="matrix(0.06172839506172839,0,0,0.06172839506172839,93.64197530864197,0)" xlink:href="#Z"/></g><path fill="#333" d="M30 0v-248h33v221h125V0H30" id="aa"/><g id="d"><use transform="matrix(0.06172839506172839,0,0,0.06172839506172839,0,0)" xlink:href="#aa"/><use transform="matrix(0.06172839506172839,0,0,0.06172839506172839,12.345679012345679,0)" xlink:href="#L"/><use transform="matrix(0.06172839506172839,0,0,0.06172839506172839,24.691358024691358,0)" xlink:href="#N"/><use transform="matrix(0.06172839506172839,0,0,0.06172839506172839,37.03703703703704,0)" xlink:href="#T"/><use transform="matrix(0.06172839506172839,0,0,0.06172839506172839,49.382716049382715,0)" xlink:href="#X"/><use transform="matrix(0.06172839506172839,0,0,0.06172839506172839,61.72839506172839,0)" xlink:href="#L"/><use transform="matrix(0.06172839506172839,0,0,0.06172839506172839,74.07407407407408,0)" xlink:href="#T"/><use transform="matrix(0.06172839506172839,0,0,0.06172839506172839,86.41975308641976,0)" xlink:href="#R"/></g><path fill="#333" d="M108 0H70L1-190h34L89-25l56-165h34" id="ab"/><g id="e"><use transform="matrix(0.06172839506172839,0,0,0.06172839506172839,0,0)" xlink:href="#I"/><use transform="matrix(0.06172839506172839,0,0,0.06172839506172839,15.987654320987653,0)" xlink:href="#R"/><use transform="matrix(0.06172839506172839,0,0,0.06172839506172839,28.333333333333332,0)" xlink:href="#ab"/></g><g id="f"><use transform="matrix(0.06172839506172839,0,0,0.06172839506172839,0,0)" xlink:href="#Y"/><use transform="matrix(0.06172839506172839,0,0,0.06172839506172839,6.172839506172839,0)" xlink:href="#R"/><use transform="matrix(0.06172839506172839,0,0,0.06172839506172839,18.51851851851852,0)" xlink:href="#L"/><use transform="matrix(0.06172839506172839,0,0,0.06172839506172839,30.864197530864196,0)" xlink:href="#K"/></g><g id="g"><use transform="matrix(0.06172839506172839,0,0,0.06172839506172839,0,0)" xlink:href="#I"/><use transform="matrix(0.06172839506172839,0,0,0.06172839506172839,15.987654320987653,0)" xlink:href="#J"/><use transform="matrix(0.06172839506172839,0,0,0.06172839506172839,28.333333333333332,0)" xlink:href="#K"/><use transform="matrix(0.06172839506172839,0,0,0.06172839506172839,46.79012345679012,0)" xlink:href="#L"/><use transform="matrix(0.06172839506172839,0,0,0.06172839506172839,59.1358024691358,0)" xlink:href="#M"/><use transform="matrix(0.06172839506172839,0,0,0.06172839506172839,64.01234567901234,0)" xlink:href="#N"/></g><path fill="#333" d="M141 0L90-78 38 0H4l68-98-65-92h35l48 74 47-74h35l-64 92 68 98h-35" id="ac"/><path fill="#333" d="M115-194c55 1 70 41 70 98S169 2 115 4C84 4 66-9 55-30l1 105H24l-1-265h31l2 30c10-21 28-34 59-34zm-8 174c40 0 45-34 45-75s-6-73-45-74c-42 0-51 32-51 76 0 43 10 73 51 73" id="ad"/><path fill="#333" d="M114-163C36-179 61-72 57 0H25l-1-190h30c1 12-1 29 2 39 6-27 23-49 58-41v29" id="ae"/><g id="h"><use transform="matrix(0.06172839506172839,0,0,0.06172839506172839,0,0)" xlink:href="#R"/><use transform="matrix(0.06172839506172839,0,0,0.06172839506172839,12.345679012345679,0)" xlink:href="#ac"/><use transform="matrix(0.06172839506172839,0,0,0.06172839506172839,23.45679012345679,0)" xlink:href="#ad"/><use transform="matrix(0.06172839506172839,0,0,0.06172839506172839,35.80246913580247,0)" xlink:href="#R"/><use transform="matrix(0.06172839506172839,0,0,0.06172839506172839,48.148148148148145,0)" xlink:href="#ae"/><use transform="matrix(0.06172839506172839,0,0,0.06172839506172839,55.49382716049382,0)" xlink:href="#Y"/></g><path fill="#333" d="M24 0v-248h195v40H76v63h132v40H76v65h150V0H24" id="af"/><path fill="#333" d="M135-194c87-1 58 113 63 194h-50c-7-57 23-157-34-157-59 0-34 97-39 157H25l-1-190h47c2 12-1 28 3 38 12-26 28-41 61-42" id="ag"/><path fill="#333" d="M114-157C55-157 80-60 75 0H25v-261h50l-1 109c12-26 28-41 61-42 86-1 58 113 63 194h-50c-7-57 23-157-34-157" id="ah"/><path fill="#333" d="M133-34C117-15 103 5 69 4 32 3 11-16 11-54c-1-60 55-63 116-61 1-26-3-47-28-47-18 1-26 9-28 27l-52-2c7-38 36-58 82-57s74 22 75 68l1 82c-1 14 12 18 25 15v27c-30 8-71 5-69-32zm-48 3c29 0 43-24 42-57-32 0-66-3-65 30 0 17 8 27 23 27" id="ai"/><path fill="#333" d="M190-63c-7 42-38 67-86 67-59 0-84-38-90-98-12-110 154-137 174-36l-49 2c-2-19-15-32-35-32-30 0-35 28-38 64-6 74 65 87 74 30" id="aj"/><path fill="#333" d="M185-48c-13 30-37 53-82 52C43 2 14-33 14-96s30-98 90-98c62 0 83 45 84 108H66c0 31 8 55 39 56 18 0 30-7 34-22zm-45-69c5-46-57-63-70-21-2 6-4 13-4 21h74" id="ak"/><path fill="#333" d="M137-138c1-29-70-34-71-4 15 46 118 7 119 86 1 83-164 76-172 9l43-7c4 19 20 25 44 25 33 8 57-30 24-41C81-84 22-81 20-136c-2-80 154-74 161-7" id="al"/><g id="i"><use transform="matrix(0.04938271604938272,0,0,0.04938271604938272,0,0)" xlink:href="#af"/><use transform="matrix(0.04938271604938272,0,0,0.04938271604938272,11.851851851851853,0)" xlink:href="#ag"/><use transform="matrix(0.04938271604938272,0,0,0.04938271604938272,22.666666666666668,0)" xlink:href="#ah"/><use transform="matrix(0.04938271604938272,0,0,0.04938271604938272,33.48148148148148,0)" xlink:href="#ai"/><use transform="matrix(0.04938271604938272,0,0,0.04938271604938272,43.358024691358025,0)" xlink:href="#ag"/><use transform="matrix(0.04938271604938272,0,0,0.04938271604938272,54.17283950617284,0)" xlink:href="#aj"/><use transform="matrix(0.04938271604938272,0,0,0.04938271604938272,64.0493827160494,0)" xlink:href="#ak"/><use transform="matrix(0.04938271604938272,0,0,0.04938271604938272,73.92592592592594,0)" xlink:href="#al"/></g><path fill="#333" d="M212-179c-10-28-35-45-73-45-59 0-87 40-87 99 0 60 29 101 89 101 43 0 62-24 78-52l27 14C228-24 195 4 139 4 59 4 22-46 18-125c-6-104 99-153 187-111 19 9 31 26 39 46" id="am"/><g id="j"><use transform="matrix(0.049382716049382706,0,0,0.049382716049382706,0,0)" xlink:href="#am"/><use transform="matrix(0.049382716049382706,0,0,0.049382716049382706,12.790123456790122,0)" xlink:href="#J"/><use transform="matrix(0.049382716049382706,0,0,0.049382716049382706,22.666666666666664,0)" xlink:href="#ae"/><use transform="matrix(0.049382716049382706,0,0,0.049382716049382706,28.543209876543205,0)" xlink:href="#R"/></g><g id="k"><use transform="matrix(0.049382716049382706,0,0,0.049382716049382706,0,0)" xlink:href="#Z"/><use transform="matrix(0.049382716049382706,0,0,0.049382716049382706,8.888888888888888,0)" xlink:href="#X"/><use transform="matrix(0.049382716049382706,0,0,0.049382716049382706,18.76543209876543,0)" xlink:href="#V"/><use transform="matrix(0.049382716049382706,0,0,0.049382716049382706,28.64197530864197,0)" xlink:href="#S"/><use transform="matrix(0.049382716049382706,0,0,0.049382716049382706,38.51851851851851,0)" xlink:href="#J"/><use transform="matrix(0.049382716049382706,0,0,0.049382716049382706,48.39506172839505,0)" xlink:href="#K"/><use transform="matrix(0.049382716049382706,0,0,0.049382716049382706,63.16049382716048,0)" xlink:href="#L"/><use transform="matrix(0.049382716049382706,0,0,0.049382716049382706,73.03703703703702,0)" xlink:href="#M"/><use transform="matrix(0.049382716049382706,0,0,0.049382716049382706,76.93827160493825,0)" xlink:href="#N"/></g><path fill="#333" d="M143 4C61 4 22-44 18-125c-5-107 100-154 193-111 17 8 29 25 37 43l-32 9c-13-25-37-40-76-40-61 0-88 39-88 99 0 61 29 100 91 101 35 0 62-11 79-27v-45h-74v-28h105v86C228-13 192 4 143 4" id="an"/><path fill="#333" d="M96-169c-40 0-48 33-48 73s9 75 48 75c24 0 41-14 43-38l32 2c-6 37-31 61-74 61-59 0-76-41-82-99-10-93 101-131 147-64 4 7 5 14 7 22l-32 3c-4-21-16-35-41-35" id="ao"/><g id="l"><use transform="matrix(0.055555555555555546,0,0,0.055555555555555546,0,0)" xlink:href="#an"/><use transform="matrix(0.055555555555555546,0,0,0.055555555555555546,15.555555555555554,0)" xlink:href="#R"/><use transform="matrix(0.055555555555555546,0,0,0.055555555555555546,26.666666666666664,0)" xlink:href="#N"/><use transform="matrix(0.055555555555555546,0,0,0.055555555555555546,37.77777777777777,0)" xlink:href="#R"/><use transform="matrix(0.055555555555555546,0,0,0.055555555555555546,48.88888888888888,0)" xlink:href="#ae"/><use transform="matrix(0.055555555555555546,0,0,0.055555555555555546,55.499999999999986,0)" xlink:href="#M"/><use transform="matrix(0.055555555555555546,0,0,0.055555555555555546,59.888888888888864,0)" xlink:href="#ao"/></g><g id="m"><use transform="matrix(0.055555555555555546,0,0,0.055555555555555546,0,0)" xlink:href="#Z"/><use transform="matrix(0.055555555555555546,0,0,0.055555555555555546,9.999999999999998,0)" xlink:href="#X"/><use transform="matrix(0.055555555555555546,0,0,0.055555555555555546,21.111111111111107,0)" xlink:href="#V"/><use transform="matrix(0.055555555555555546,0,0,0.055555555555555546,32.222222222222214,0)" xlink:href="#S"/><use transform="matrix(0.055555555555555546,0,0,0.055555555555555546,43.33333333333332,0)" xlink:href="#J"/><use transform="matrix(0.055555555555555546,0,0,0.055555555555555546,54.44444444444443,0)" xlink:href="#K"/><use transform="matrix(0.055555555555555546,0,0,0.055555555555555546,71.05555555555554,0)" xlink:href="#L"/><use transform="matrix(0.055555555555555546,0,0,0.055555555555555546,82.16666666666666,0)" xlink:href="#M"/><use transform="matrix(0.055555555555555546,0,0,0.055555555555555546,86.55555555555554,0)" xlink:href="#N"/></g><path fill="#333" d="M185-189c-5-48-123-54-124 2 14 75 158 14 163 119 3 78-121 87-175 55-17-10-28-26-33-46l33-7c5 56 141 63 141-1 0-78-155-14-162-118-5-82 145-84 179-34 5 7 8 16 11 25" id="ap"/><g id="n"><use transform="matrix(0.055555555555555546,0,0,0.055555555555555546,0,0)" xlink:href="#ap"/><use transform="matrix(0.055555555555555546,0,0,0.055555555555555546,13.33333333333333,0)" xlink:href="#X"/><use transform="matrix(0.055555555555555546,0,0,0.055555555555555546,24.44444444444444,0)" xlink:href="#ad"/><use transform="matrix(0.055555555555555546,0,0,0.055555555555555546,35.55555555555555,0)" xlink:href="#ad"/><use transform="matrix(0.055555555555555546,0,0,0.055555555555555546,46.66666666666666,0)" xlink:href="#J"/><use transform="matrix(0.055555555555555546,0,0,0.055555555555555546,57.777777777777764,0)" xlink:href="#ae"/><use transform="matrix(0.055555555555555546,0,0,0.055555555555555546,64.38888888888887,0)" xlink:href="#Y"/><use transform="matrix(0.055555555555555546,0,0,0.055555555555555546,69.94444444444443,0)" xlink:href="#M"/><use transform="matrix(0.055555555555555546,0,0,0.055555555555555546,74.33333333333331,0)" xlink:href="#N"/><use transform="matrix(0.055555555555555546,0,0,0.055555555555555546,85.44444444444443,0)" xlink:href="#T"/></g><path fill="#333" d="M160-131c35 5 61 23 61 61C221 17 115-2 30 0v-248c76 3 177-17 177 60 0 33-19 50-47 57zm-97-11c50-1 110 9 110-42 0-47-63-36-110-37v79zm0 115c55-2 124 14 124-45 0-56-70-42-124-44v89" id="aq"/><g id="o"><use transform="matrix(0.049382716049382706,0,0,0.049382716049382706,0,0)" xlink:href="#aq"/><use transform="matrix(0.049382716049382706,0,0,0.049382716049382706,11.85185185185185,0)" xlink:href="#J"/><use transform="matrix(0.049382716049382706,0,0,0.049382716049382706,21.728395061728392,0)" xlink:href="#X"/><use transform="matrix(0.049382716049382706,0,0,0.049382716049382706,31.604938271604933,0)" xlink:href="#N"/><use transform="matrix(0.049382716049382706,0,0,0.049382716049382706,41.481481481481474,0)" xlink:href="#S"/><use transform="matrix(0.049382716049382706,0,0,0.049382716049382706,51.35802469135801,0)" xlink:href="#R"/><use transform="matrix(0.049382716049382706,0,0,0.049382716049382706,61.234567901234556,0)" xlink:href="#S"/></g><g id="p"><use transform="matrix(0.049382716049382706,0,0,0.049382716049382706,0,0)" xlink:href="#am"/><use transform="matrix(0.049382716049382706,0,0,0.049382716049382706,12.790123456790122,0)" xlink:href="#J"/><use transform="matrix(0.049382716049382706,0,0,0.049382716049382706,22.666666666666664,0)" xlink:href="#N"/><use transform="matrix(0.049382716049382706,0,0,0.049382716049382706,32.5432098765432,0)" xlink:href="#Y"/><use transform="matrix(0.049382716049382706,0,0,0.049382716049382706,37.481481481481474,0)" xlink:href="#R"/><use transform="matrix(0.049382716049382706,0,0,0.049382716049382706,47.35802469135801,0)" xlink:href="#ac"/><use transform="matrix(0.049382716049382706,0,0,0.049382716049382706,56.24691358024689,0)" xlink:href="#Y"/></g><path d="M821-708V0h-66c-1-209 3-424-1-630L482 0h-51c-92-210-180-423-274-630l1 630H94v-708h102c88 205 172 414 262 617l261-617h102" id="ar"/><path d="M300-518c157 0 251 108 249 265-2 163-87 267-249 267C139 14 56-91 53-253c-1-157 89-265 247-265zm0 52c-123-2-180 90-180 213 0 122 58 217 180 215 124 2 182-91 182-215 0-123-58-215-182-213" id="as"/><path d="M286-517c82 0 132 31 174 75v-266h65c3 236-7 481 6 708h-60c-5-22-3-56-9-87-37 67-99 101-186 101C129 16 52-102 53-251c4-153 81-261 233-266zm3 479c107-3 171-72 171-177v-163c-39-51-85-86-166-87-111-1-176 98-174 214-2 117 57 213 169 213" id="at"/><path d="M285-517c156-2 234 124 220 287H118c5 110 64 194 178 192 73-1 114-21 161-52l29 42c-53 37-108 62-193 62C139 16 51-99 53-255c3-155 78-259 232-262zm158 237c-2-108-52-188-159-187-106-2-164 84-166 187h325" id="au"/><path d="M91-708h65V0H91v-708" id="av"/><g id="r"><use transform="matrix(0.02,0,0,0.02,0,0)" xlink:href="#ar"/><use transform="matrix(0.02,0,0,0.02,18.32,0)" xlink:href="#as"/><use transform="matrix(0.02,0,0,0.02,30.36,0)" xlink:href="#at"/><use transform="matrix(0.02,0,0,0.02,42.660000000000004,0)" xlink:href="#au"/><use transform="matrix(0.02,0,0,0.02,53.83999999999999,0)" xlink:href="#av"/></g><path d="M312-708c233 0 365 118 363 354C677-124 541 0 314 0H94v-708h218zm-6 652c196 0 301-100 300-298 0-199-100-298-299-298H162v596h144" id="aw"/><path d="M340-459c-122-18-185 71-185 185V0H90c-3-167 7-346-7-503h62c5 26 3 60 8 89 32-76 95-111 190-101" id="ax"/><path d="M156-503V0H91v-503h65zM77-684c0-29 15-44 46-44 30 0 45 15 45 44s-15 44-45 44c-31 0-46-15-46-44" id="ay"/><path d="M466-503L277 0h-75L8-503h70L239-65h3l156-438h68" id="az"/><path d="M319-463c-102 3-164 69-164 170V0H90c-3-167 7-346-7-503h62c5 23 3 56 8 84 32-58 93-99 182-98 122-4 186 80 187 195V0h-65v-310c-1-89-44-156-138-153" id="aA"/><g id="s"><use transform="matrix(0.02,0,0,0.02,0,0)" xlink:href="#aw"/><use transform="matrix(0.02,0,0,0.02,14.56,0)" xlink:href="#ax"/><use transform="matrix(0.02,0,0,0.02,21.56,0)" xlink:href="#ay"/><use transform="matrix(0.02,0,0,0.02,26.500000000000004,0)" xlink:href="#az"/><use transform="matrix(0.02,0,0,0.02,35.82000000000001,0)" xlink:href="#au"/><use transform="matrix(0.02,0,0,0.02,47.00000000000001,0)" xlink:href="#aA"/></g><path d="M42-383c-3-155 244-166 338-82l-29 42c-39-29-83-43-132-43-80 0-142 58-100 124 22 35 64 41 119 55 89 23 149 53 153 149C396 35 130 52 27-45l30-41c44 30 80 46 148 49 86 4 149-69 107-145-33-61-191-61-234-111-21-24-36-52-36-90" id="aB"/><path d="M241 258c-125 1-219-39-219-150C22 29 68-1 134-33 99-48 81-70 81-99c2-43 37-66 77-77-66-21-107-73-107-160 0-146 146-208 290-167h172v52l-118-9c37 22 64 70 63 130 0 116-82 175-204 173-52 0-108 12-113 53 0 29 33 44 98 45 95 1 163 13 205 36s62 58 62 104c-4 128-121 178-265 177zM111-337c0 88 51 134 142 133 96 0 144-44 144-131 0-83-56-133-144-131-84-2-142 48-142 129zm132 544c109 0 199-27 199-120 0-59-41-74-102-86-37-7-89-10-154-10C127 16 85 38 85 105c0 68 53 102 158 102" id="aC"/><g id="t"><use transform="matrix(0.02,0,0,0.02,0,0)" xlink:href="#aw"/><use transform="matrix(0.02,0,0,0.02,14.56,0)" xlink:href="#au"/><use transform="matrix(0.02,0,0,0.02,25.740000000000002,0)" xlink:href="#aB"/><use transform="matrix(0.02,0,0,0.02,34.42,0)" xlink:href="#ay"/><use transform="matrix(0.02,0,0,0.02,39.36,0)" xlink:href="#aC"/><use transform="matrix(0.02,0,0,0.02,50.1,0)" xlink:href="#aA"/></g><path d="M249 120C149-18 68-137 68-354c0-216 82-336 181-474l42 27c-85 131-154 248-154 447S206-39 291 93" id="aD"/><path d="M84-38c0-31 15-46 45-46 31 0 46 15 46 46 0 29-15 44-46 44C99 6 84-9 84-38" id="aE"/><g id="u"><use transform="matrix(0.02,0,0,0.02,0,0)" xlink:href="#aD"/><use transform="matrix(0.02,0,0,0.02,7.18,0)" xlink:href="#au"/><use transform="matrix(0.02,0,0,0.02,17.96,0)" xlink:href="#aE"/><use transform="matrix(0.02,0,0,0.02,23.12,0)" xlink:href="#aC"/><use transform="matrix(0.02,0,0,0.02,33.46,0)" xlink:href="#aE"/></g><path d="M531-708v58H301V0h-67v-650H5v-58h526" id="aF"/><path d="M206 15C109 16 43-39 44-136c2-169 158-172 344-171 8-104-32-160-134-159-67 0-110 17-155 44l-23-44c52-34 112-51 181-51 134 0 194 62 196 194 1 110-5 222 7 323h-60c-5-20-3-51-9-77-37 61-99 92-185 92zm15-52c97-1 160-57 167-145v-78c-136 0-275-9-277 121 0 66 43 103 110 102" id="aG"/><path d="M53-252c-8-189 143-308 335-251 29 9 55 23 76 40l-27 45c-39-30-85-45-139-45-120-1-181 89-180 211-1 119 60 213 179 211 49 0 96-15 140-45l25 45c-42 31-100 55-169 55C132 12 56-94 53-252" id="aH"/><path d="M313 2C210 39 107-7 107-121v-332H15v-42l92-8v-129l65-23v152h139v50H172v328c-7 80 65 100 131 78" id="aI"/><g id="v"><use transform="matrix(0.02,0,0,0.02,0,0)" xlink:href="#aF"/><use transform="matrix(0.02,0,0,0.02,9.32,0)" xlink:href="#aG"/><use transform="matrix(0.02,0,0,0.02,20.020000000000003,0)" xlink:href="#aH"/><use transform="matrix(0.02,0,0,0.02,30.42,0)" xlink:href="#aI"/><use transform="matrix(0.02,0,0,0.02,37.28,0)" xlink:href="#ay"/><use transform="matrix(0.02,0,0,0.02,42.22,0)" xlink:href="#aH"/><use transform="matrix(0.02,0,0,0.02,52.22,0)" xlink:href="#aG"/><use transform="matrix(0.02,0,0,0.02,62.92,0)" xlink:href="#av"/></g><path d="M325-708c143 1 251 75 246 227-2 147-100 229-244 229H162V0H94v-708h231zm177 228c4-116-75-173-183-173H162v345h160c108-3 178-62 180-172" id="aJ"/><path d="M130-84c71 2 49 107 28 154-13 30-39 63-76 100l-26-22c42-53 64-75 71-148-28-3-42-17-42-42s18-43 45-42" id="aK"/><g id="w"><use transform="matrix(0.02,0,0,0.02,0,0)" xlink:href="#aJ"/><use transform="matrix(0.02,0,0,0.02,11.36,0)" xlink:href="#aG"/><use transform="matrix(0.02,0,0,0.02,21.96,0)" xlink:href="#aI"/><use transform="matrix(0.02,0,0,0.02,28.82,0)" xlink:href="#aI"/><use transform="matrix(0.02,0,0,0.02,35.480000000000004,0)" xlink:href="#au"/><use transform="matrix(0.02,0,0,0.02,46.660000000000004,0)" xlink:href="#ax"/><use transform="matrix(0.02,0,0,0.02,53.660000000000004,0)" xlink:href="#aA"/><use transform="matrix(0.02,0,0,0.02,65.76,0)" xlink:href="#aB"/><use transform="matrix(0.02,0,0,0.02,74.44,0)" xlink:href="#aK"/></g><path d="M110-828c100 138 181 257 181 474 0 216-82 336-181 474L68 93c85-132 154-247 154-447 0-199-69-316-154-447" id="aL"/><g id="x"><use transform="matrix(0.02,0,0,0.02,0,0)" xlink:href="#aH"/><use transform="matrix(0.02,0,0,0.02,9.7,0)" xlink:href="#as"/><use transform="matrix(0.02,0,0,0.02,21.740000000000002,0)" xlink:href="#at"/><use transform="matrix(0.02,0,0,0.02,34.040000000000006,0)" xlink:href="#au"/><use transform="matrix(0.02,0,0,0.02,45.22000000000001,0)" xlink:href="#aL"/></g><filter id="q" filterUnits="objectBoundingBox" x="-.02" y="-.01" width="1.03" height="1.06"><feOffset result="offOut" in="SourceAlpha" dy="3"/><feGaussianBlur result="blurOut" in="offOut" stdDeviation="2.5"/><feColorMatrix result="colorOut" in="blurOut" values="0 0 0 0 0.018823529411764708 0 0 0 0 0.018823529411764708 0 0 0 0 0.018823529411764708 0 0 0 0.2 0"/><feBlend in="SourceGraphic" in2="colorOut"/></filter><path fill="#333" d="M67-125c0 53 21 87 73 88 37 1 54-22 65-47l45 17C233-25 199 4 140 4 58 4 20-42 15-125 8-235 124-281 211-232c18 10 29 29 36 50l-46 12c-8-25-30-41-62-41-52 0-71 34-72 86" id="aM"/><path fill="#333" d="M110-194c64 0 96 36 96 99 0 64-35 99-97 99-61 0-95-36-95-99 0-62 34-99 96-99zm-1 164c35 0 45-28 45-65 0-40-10-65-43-65-34 0-45 26-45 65 0 36 10 65 43 65" id="aN"/><path fill="#333" d="M115-3C79 11 28 4 28-45v-112H4v-33h27l15-45h31v45h36v33H77v99c-1 23 16 31 38 25v30" id="aO"/><path fill="#333" d="M144 0l-44-69L55 0H2l70-98-66-92h53l41 62 40-62h54l-67 91 71 99h-54" id="aP"/><g id="y"><use transform="matrix(0.06172839506172839,0,0,0.06172839506172839,0,0)" xlink:href="#aM"/><use transform="matrix(0.06172839506172839,0,0,0.06172839506172839,15.987654320987653,0)" xlink:href="#aN"/><use transform="matrix(0.06172839506172839,0,0,0.06172839506172839,29.50617283950617,0)" xlink:href="#ag"/><use transform="matrix(0.06172839506172839,0,0,0.06172839506172839,43.02469135802469,0)" xlink:href="#aO"/><use transform="matrix(0.06172839506172839,0,0,0.06172839506172839,50.37037037037037,0)" xlink:href="#ak"/><use transform="matrix(0.06172839506172839,0,0,0.06172839506172839,62.716049382716044,0)" xlink:href="#aP"/><use transform="matrix(0.06172839506172839,0,0,0.06172839506172839,75.06172839506172,0)" xlink:href="#aO"/></g><path fill="#333" d="M230 0l2-204L168 0h-37L68-204 70 0H24v-248h70l56 185 57-185h69V0h-46" id="aQ"/><path fill="#333" d="M135-194c53 0 70 44 70 98 0 56-19 98-73 100-31 1-45-17-59-34 3 33 2 69 2 105H25l-1-265h48c2 10 0 23 3 31 11-24 29-35 60-35zM114-30c33 0 39-31 40-66 0-38-9-64-40-64-56 0-55 130 0 130" id="aR"/><g id="z"><use transform="matrix(0.06172839506172839,0,0,0.06172839506172839,0,0)" xlink:href="#aQ"/><use transform="matrix(0.06172839506172839,0,0,0.06172839506172839,18.456790123456788,0)" xlink:href="#ai"/><use transform="matrix(0.06172839506172839,0,0,0.06172839506172839,30.80246913580247,0)" xlink:href="#aR"/></g><path fill="#333" d="M25-224v-37h50v37H25zM25 0v-190h50V0H25" id="aS"/><path fill="#333" d="M121-226c-27-7-43 5-38 36h38v33H83V0H34v-157H6v-33h28c-9-59 32-81 87-68v32" id="aT"/><g id="A"><use transform="matrix(0.04938271604938272,0,0,0.04938271604938272,0,0)" xlink:href="#al"/><use transform="matrix(0.04938271604938272,0,0,0.04938271604938272,9.876543209876544,0)" xlink:href="#aR"/><use transform="matrix(0.04938271604938272,0,0,0.04938271604938272,20.69135802469136,0)" xlink:href="#ak"/><use transform="matrix(0.04938271604938272,0,0,0.04938271604938272,30.567901234567906,0)" xlink:href="#aj"/><use transform="matrix(0.04938271604938272,0,0,0.04938271604938272,40.44444444444445,0)" xlink:href="#aS"/><use transform="matrix(0.04938271604938272,0,0,0.04938271604938272,45.38271604938272,0)" xlink:href="#aT"/><use transform="matrix(0.04938271604938272,0,0,0.04938271604938272,51.25925925925927,0)" xlink:href="#aS"/><use transform="matrix(0.04938271604938272,0,0,0.04938271604938272,56.19753086419754,0)" xlink:href="#aj"/></g><g id="B"><use transform="matrix(0.04938271604938272,0,0,0.04938271604938272,0,0)" xlink:href="#aO"/><use transform="matrix(0.04938271604938272,0,0,0.04938271604938272,5.8765432098765435,0)" xlink:href="#aN"/></g><path fill="#333" d="M182-130c37 4 62 22 62 59C244 23 116-4 24 0v-248c84 5 203-23 205 63 0 31-19 50-47 55zM76-148c40-3 101 13 101-30 0-44-60-28-101-31v61zm0 110c48-3 116 14 116-37 0-48-69-32-116-35v72" id="aU"/><g id="C"><use transform="matrix(0.04938271604938272,0,0,0.04938271604938272,0,0)" xlink:href="#aU"/><use transform="matrix(0.04938271604938272,0,0,0.04938271604938272,12.790123456790125,0)" xlink:href="#aM"/></g><path fill="#333" d="M62-158H24l-5-90h48" id="aV"/><g id="D"><use transform="matrix(0.04938271604938272,0,0,0.04938271604938272,0,0)" xlink:href="#aU"/><use transform="matrix(0.04938271604938272,0,0,0.04938271604938272,12.790123456790125,0)" xlink:href="#aM"/><use transform="matrix(0.04938271604938272,0,0,0.04938271604938272,25.58024691358025,0)" xlink:href="#aV"/><use transform="matrix(0.04938271604938272,0,0,0.04938271604938272,29.77777777777778,0)" xlink:href="#al"/></g><path fill="#333" d="M135-150c-39-12-60 13-60 57V0H25l-1-190h47c2 13-1 29 3 40 6-28 27-53 61-41v41" id="aW"/><g id="E"><use transform="matrix(0.04938271604938272,0,0,0.04938271604938272,0,0)" xlink:href="#aM"/><use transform="matrix(0.04938271604938272,0,0,0.04938271604938272,12.790123456790125,0)" xlink:href="#aW"/><use transform="matrix(0.04938271604938272,0,0,0.04938271604938272,19.703703703703706,0)" xlink:href="#ak"/><use transform="matrix(0.04938271604938272,0,0,0.04938271604938272,29.58024691358025,0)" xlink:href="#ai"/><use transform="matrix(0.04938271604938272,0,0,0.04938271604938272,39.4567901234568,0)" xlink:href="#aO"/><use transform="matrix(0.04938271604938272,0,0,0.04938271604938272,45.33333333333334,0)" xlink:href="#ak"/></g><path fill="#333" d="M240-174c0 40-23 61-54 70L253 0h-59l-57-94H76V0H24v-248c93 4 217-23 216 74zM76-134c48-2 112 12 112-38 0-48-66-32-112-35v73" id="aX"/><g id="F"><use transform="matrix(0.04938271604938272,0,0,0.04938271604938272,0,0)" xlink:href="#aX"/><use transform="matrix(0.04938271604938272,0,0,0.04938271604938272,12.790123456790125,0)" xlink:href="#ak"/><use transform="matrix(0.04938271604938272,0,0,0.04938271604938272,22.66666666666667,0)" xlink:href="#aT"/><use transform="matrix(0.04938271604938272,0,0,0.04938271604938272,28.54320987654322,0)" xlink:href="#aS"/><use transform="matrix(0.04938271604938272,0,0,0.04938271604938272,33.48148148148149,0)" xlink:href="#ag"/><use transform="matrix(0.04938271604938272,0,0,0.04938271604938272,44.296296296296305,0)" xlink:href="#ak"/><use transform="matrix(0.04938271604938272,0,0,0.04938271604938272,54.17283950617284,0)" xlink:href="#al"/></g><path fill="#333" d="M85 4C-2 5 27-109 22-190h50c7 57-23 150 33 157 60-5 35-97 40-157h50l1 190h-47c-2-12 1-28-3-38-12 25-28 42-61 42" id="aY"/><path fill="#333" d="M88-194c31-1 46 15 58 34l-1-101h50l1 261h-48c-2-10 0-23-3-31C134-8 116 4 84 4 32 4 16-41 15-95c0-56 19-97 73-99zm17 164c33 0 40-30 41-66 1-37-9-64-41-64s-38 30-39 65c0 43 13 65 39 65" id="aZ"/><path fill="#333" d="M195-6C206 82 75 100 31 46c-4-6-6-13-8-21l49-6c3 16 16 24 34 25 40 0 42-37 40-79-11 22-30 35-61 35-53 0-70-43-70-97 0-56 18-96 73-97 30 0 46 14 59 34l2-30h47zm-90-29c32 0 41-27 41-63 0-35-9-62-40-62-32 0-39 29-40 63 0 36 9 62 39 62" id="ba"/><g id="G"><use transform="matrix(0.04938271604938272,0,0,0.04938271604938272,0,0)" xlink:href="#aY"/><use transform="matrix(0.04938271604938272,0,0,0.04938271604938272,10.814814814814815,0)" xlink:href="#ag"/><use transform="matrix(0.04938271604938272,0,0,0.04938271604938272,21.62962962962963,0)" xlink:href="#aZ"/><use transform="matrix(0.04938271604938272,0,0,0.04938271604938272,32.44444444444444,0)" xlink:href="#ak"/><use transform="matrix(0.04938271604938272,0,0,0.04938271604938272,42.32098765432099,0)" xlink:href="#aW"/><use transform="matrix(0.04938271604938272,0,0,0.04938271604938272,49.23456790123457,0)" xlink:href="#al"/><use transform="matrix(0.04938271604938272,0,0,0.04938271604938272,59.111111111111114,0)" xlink:href="#aO"/><use transform="matrix(0.04938271604938272,0,0,0.04938271604938272,64.98765432098766,0)" xlink:href="#ai"/><use transform="matrix(0.04938271604938272,0,0,0.04938271604938272,74.8641975308642,0)" xlink:href="#ag"/><use transform="matrix(0.04938271604938272,0,0,0.04938271604938272,85.67901234567901,0)" xlink:href="#aZ"/><use transform="matrix(0.04938271604938272,0,0,0.04938271604938272,96.49382716049382,0)" xlink:href="#aS"/><use transform="matrix(0.04938271604938272,0,0,0.04938271604938272,101.4320987654321,0)" xlink:href="#ag"/><use transform="matrix(0.04938271604938272,0,0,0.04938271604938272,112.2469135802469,0)" xlink:href="#ba"/></g><g id="H"><use transform="matrix(0.04938271604938272,0,0,0.04938271604938272,0,0)" xlink:href="#aN"/><use transform="matrix(0.04938271604938272,0,0,0.04938271604938272,10.814814814814815,0)" xlink:href="#aT"/></g></defs></g></svg>