<svg xmlns="http://www.w3.org/2000/svg" xmlns:xlink="http://www.w3.org/1999/xlink" xmlns:lucid="lucid" width="1631.2" height="1554.93"><g transform="translate(-39.5 -36.233333333333334)" lucid:page-tab-id="hG6RiC-E9HfR"><path d="M0 0h2256.63v1657H0z" fill="#fff"/><path d="M80 1333.87H48a8 8 0 0 1-8-8V48a8 8 0 0 1 8-8h32zM80.5 40H120v260H80.5M80.5 300H120v271.5H80.5M80.5 571.5H120v368.87H80.5M80.5 940.37H120v393.5H80.5" stroke="#333" fill="#fff"/><path d="M120 40h1492a8 8 0 0 1 8 8v252H120zM120 300h1500v271.5H120zM120 571.5h1500v368.87H120z" stroke="#333" fill="none"/><path d="M1620 940.37v385.5a8 8 0 0 1-8 8H120v-393.5z" stroke="#333" fill="none"/><use xlink:href="#a" transform="matrix(-1.8369701987210297e-16,-1,1,-1.8369701987210297e-16,80.00000000000001,300) translate(46.49876543209875 25.15555555555556)"/><use xlink:href="#b" transform="matrix(-1.8369701987210297e-16,-1,1,-1.8369701987210297e-16,80,571.5) translate(78.12839506172838 25.15555555555556)"/><use xlink:href="#c" transform="matrix(-1.8369701987210297e-16,-1,1,-1.8369701987210297e-16,80,940.3674304814549) translate(62.99876543209875 25.15555555555556)"/><use xlink:href="#d" transform="matrix(-1.8369701987210297e-16,-1,1,-1.8369701987210297e-16,80,940.3674304814549) translate(216.82592592592596 25.15555555555556)"/><use xlink:href="#e" transform="matrix(-1.8369701987210297e-16,-1,1,-1.8369701987210297e-16,80,1333.867430481455) translate(92.8074074074074 25.15555555555556)"/><use xlink:href="#f" transform="matrix(-1.8369701987210297e-16,-1,1,-1.8369701987210297e-16,80,1333.867430481455) translate(158.83209876543208 25.15555555555556)"/><path d="M560 1060.55a8 8 0 0 1 8-8h384a8 8 0 0 1 8 8v127a8 8 0 0 1-8 8H568a8 8 0 0 1-8-8z" stroke="#333" fill="#fff"/><path d="M560 1114.42h400m-400 40.53h400" stroke="#333" fill="none"/><use xlink:href="#g" transform="matrix(1,0,0,1,568,1060.5511457221824) translate(141.04197530864198 17.48888888888889)"/><use xlink:href="#h" transform="matrix(1,0,0,1,568,1060.5511457221824) translate(167.82716049382717 38.82222222222222)"/><path d="M1310 1101.24v5.8a5.8 5.8 0 0 0 5.8 5.82h23.2" stroke="#333" fill="none"/><path d="M1281.2 1100.38l14.4 15.3 15.3-14.42-14.4-15.28z" stroke="#333" fill="#fff"/><path d="M1339.5 1113.34h-.5v-.95h.5z" stroke="#333" stroke-width=".05" fill="#333"/><path d="M990.88 1150.94H998a12 12 0 0 1 12 12v94.34a12 12 0 0 0 12 12h37" stroke="#333" fill="none"/><path d="M961.2 1150.94l14.86 14.85 14.85-14.86-14.84-14.85z" stroke="#333" fill="#fff"/><path d="M1059.5 1269.75h-.5v-.95h.5z" stroke="#333" stroke-width=".05" fill="#333"/><path d="M1100 648a8 8 0 0 1 8-8h178a8 8 0 0 1 8 8v115a8 8 0 0 1-8 8h-178a8 8 0 0 1-8-8z" stroke="#333" fill="#fff"/><path d="M1100 699.2h194" stroke="#333" fill="none"/><use xlink:href="#i" transform="matrix(1,0,0,1,1108,648) translate(30.574999999999996 14.799999999999999)"/><use xlink:href="#j" transform="matrix(1,0,0,1,1108,648) translate(15.149999999999991 36.4)"/><path d="M1060 1034.86a8 8 0 0 1 8-8h204a8 8 0 0 1 8 8v131a8 8 0 0 1-8 8h-204a8 8 0 0 1-8-8z" stroke="#333" fill="#fff"/><path d="M1060 1088.73h220m-220 42.8h220" stroke="#333" fill="none"/><use xlink:href="#k" transform="matrix(1,0,0,1,1068,1034.861818347909) translate(24.86913580246913 17.488888888888887)"/><use xlink:href="#l" transform="matrix(1,0,0,1,1068,1034.861818347909) translate(59.580246913580254 38.82222222222222)"/><path d="M1000.7 1081.62l1.76.42 1.68.7 1.55.95 1.38 1.17 1.18 1.4.95 1.54.7 1.7.43 1.76.14 1.78.14 1.7.4 1.63.64 1.54.87 1.44 1.1 1.27 1.27 1.1 1.42.87 1.54.64 1.62.4 1.7.13h23.35v.95h-23.4l-1.8-.14-1.76-.43-1.68-.68-1.55-.95-1.38-1.2-1.18-1.37-.95-1.55-.7-1.7-.43-1.76-.14-1.8v.02l-.14-1.7-.4-1.63-.64-1.56-.87-1.42-1.1-1.27-1.27-1.1-1.42-.86-1.54-.65-1.62-.4-1.7-.13h-7.97v-.95h8.02zm58.3 22.1v.96h-7.57v-.95z" stroke="#333" stroke-width=".05" fill="#333"/><path d="M990.9 1081.95l-14.84 14.85-14.85-14.85 14.86-14.85z" fill="#333"/><path d="M991.58 1081.95l-15.52 15.52-15.52-15.52 15.52-15.52zm-29.7 0l14.18 14.18 14.17-14.18-14.17-14.18z" stroke="#333" stroke-width=".05" fill="#333"/><path d="M1059.5 1104.68h-.5v-.95h.5z" fill="#333"/><path stroke="#333" stroke-width=".05" fill="#333"/><use xlink:href="#m" transform="matrix(1,0,0,1,1044.5127557290984,1091.939083291664) translate(0 17.422222222222224)"/><path d="M760 654.7a8 8 0 0 1 8-8h158a8 8 0 0 1 8 8v85a8 8 0 0 1-8 8H768a8 8 0 0 1-8-8z" stroke="#333" fill="#fff"/><path d="M760 705.9h174" stroke="#333" fill="none"/><use xlink:href="#i" transform="matrix(1,0,0,1,768,654.7004213530158) translate(20.574999999999996 14.799999999999999)"/><use xlink:href="#n" transform="matrix(1,0,0,1,768,654.7004213530158) translate(22.525 36.4)"/><path d="M1120 349a8 8 0 0 1 8-8h157a8 8 0 0 1 8 8v84a8 8 0 0 1-8 8h-157a8 8 0 0 1-8-8z" stroke="#333" fill="#fff"/><path d="M1120 400.2h173" stroke="#333" fill="none"/><use xlink:href="#o" transform="matrix(1,0,0,1,1128,349) translate(10.625 14.799999999999999)"/><use xlink:href="#p" transform="matrix(1,0,0,1,1128,349) translate(7.1499999999999915 36.4)"/><path d="M835.53 1051.7l3.6-3.45m3.62-3.45l7.2-6.9m3.62-3.47l7.22-6.9m3.6-3.46l7.2-6.9m3.62-3.47l7.2-6.9m3.62-3.46l7.2-6.92m3.62-3.45l7.2-6.9m3.62-3.47l7.22-6.9m3.6-3.46l7.22-6.9m3.6-3.47l7.22-6.9m3.6-3.46l7.22-6.9m3.6-3.46l7.22-6.9m3.6-3.46l7.23-6.9m3.6-3.47l7.23-6.9m3.6-3.45l7.22-6.9m3.6-3.47l7.22-6.9m3.6-3.46l7.22-6.9m3.6-3.47l7.22-6.9m3.6-3.46l7.22-6.92m3.6-3.46l7.22-6.9m3.6-3.46l7.22-6.9m3.6-3.47l7.22-6.92m3.6-3.45l7.23-6.9m3.6-3.47l7.22-6.9m3.6-3.46l7.22-6.9m3.6-3.47l7.22-6.9m3.6-3.46l7.22-6.9m3.6-3.47l3.6-3.45" stroke="#333" fill="none"/><path d="M835.87 1052.04h-1.38l.72-.7zM1128.05 772.2l-.66-.7h1.38z" stroke="#333" stroke-width=".05" fill="#333"/><path d="M180 152.67a8 8 0 0 1 8-8h228a8 8 0 0 1 8 8v88a8 8 0 0 1-8 8H188a8 8 0 0 1-8-8z" stroke="#333" fill="#f2f3f5"/><path d="M180 182.27h244" stroke="#333" fill="none"/><use xlink:href="#q" transform="matrix(1,0,0,1,188,152.6674570735307) translate(74.55 14.6)"/><use xlink:href="#r" transform="matrix(1,0,0,1,192,190.2674570735307) translate(0 18.38888888888889)"/><use xlink:href="#s" transform="matrix(1,0,0,1,192,190.2674570735307) translate(0 42.922222222222224)"/><path d="M1186.2 616.35v-66.2a10.15 10.15 0 0 1 10.15-10.15 10.15 10.15 0 0 0 10.15-10.15V442" stroke="#333" fill="none"/><path d="M1186.2 638.5l-12.5-21.65h25z" stroke="#333" fill="#fff"/><path d="M1206.97 442h-.94v-.5h.94z" stroke="#333" stroke-width=".05" fill="#333"/><path d="M964.88 705.5H1099" stroke="#333" fill="none"/><path d="M935.2 705.5l14.86 14.85 14.85-14.85-14.84-14.85z" stroke="#333" fill="#fff"/><path d="M1099.5 705.98h-.5V705h.5z" stroke="#333" stroke-width=".05" fill="#333"/><path d="M940.9 242l-88.66 381.65" stroke="#333" fill="none"/><path d="M941.35 242.1l-.93-.2.1-.4h.97z" stroke="#333" stroke-width=".05" fill="#333"/><path d="M847.23 645.23l-7.28-23.92 24.35 5.67zM1340 1070.86a8 8 0 0 1 8-8h224a8 8 0 0 1 8 8v84a8 8 0 0 1-8 8h-224a8 8 0 0 1-8-8z" stroke="#333" fill="#fff"/><path d="M1340 1122.06h240" stroke="#333" fill="none"/><use xlink:href="#t" transform="matrix(1,0,0,1,1348,1070.861818347909) translate(39.57499999999999 14.799999999999999)"/><use xlink:href="#u" transform="matrix(1,0,0,1,1348,1070.861818347909) translate(70.125 36.4)"/><path d="M200 1094.7a8 8 0 0 1 8-8h224a8 8 0 0 1 8 8v84a8 8 0 0 1-8 8H208a8 8 0 0 1-8-8z" stroke="#333" fill="#fff"/><path d="M200 1145.9h240" stroke="#333" fill="none"/><use xlink:href="#t" transform="matrix(1,0,0,1,208,1094.6990852998924) translate(39.57499999999999 14.799999999999999)"/><use xlink:href="#v" transform="matrix(1,0,0,1,208,1094.6990852998924) translate(62.12499999999999 36.4)"/><path d="M529.13 1136.7H441" stroke="#333" fill="none"/><path d="M558.8 1136.7l-14.86-14.85-14.85 14.85 14.84 14.85z" stroke="#333" fill="#fff"/><path d="M441 1137.17h-.5v-.95h.5z" stroke="#333" stroke-width=".05" fill="#333"/><path d="M700 44.73a8 8 0 0 1 8-8h264a8 8 0 0 1 8 8v50.54a8 8 0 0 1-8 8H708a8 8 0 0 1-8-8z" stroke="#000" stroke-opacity="0" fill="#fff" fill-opacity="0"/><use xlink:href="#w" transform="matrix(1,0,0,1,705,41.733333333333334) translate(3.8444444444444628 31.665277777777778)"/><use xlink:href="#x" transform="matrix(1,0,0,1,705,41.733333333333334) translate(70.4493827160494 31.665277777777778)"/><use xlink:href="#y" transform="matrix(1,0,0,1,705,41.733333333333334) translate(172.54814814814816 31.665277777777778)"/><path d="M160 1394.93a8 8 0 0 1 8-8h304a8 8 0 0 1 8 8v64a8 8 0 0 1-8 8H168a8 8 0 0 1-8-8z" stroke="#333" fill="#fff"/><use xlink:href="#z" transform="matrix(1,0,0,1,165,1391.9337152407275) translate(2.3320987654321073 38.477777777777774)"/><use xlink:href="#x" transform="matrix(1,0,0,1,165,1391.9337152407275) translate(111.96172839506173 38.477777777777774)"/><use xlink:href="#y" transform="matrix(1,0,0,1,165,1391.9337152407275) translate(214.06049382716049 38.477777777777774)"/><path d="M1248.87 1394.93a8 8 0 0 1 8-8h405.33a8 8 0 0 1 8 8v64a8 8 0 0 1-8 8h-405.33a8 8 0 0 1-8-8z" stroke="#333" fill="#fff"/><use xlink:href="#A" transform="matrix(1,0,0,1,1253.8676569416884,1391.9337152407275) translate(6.572839506172869 38.477777777777774)"/><use xlink:href="#B" transform="matrix(1,0,0,1,1253.8676569416884,1391.9337152407275) translate(96.44938271604941 38.477777777777774)"/><use xlink:href="#C" transform="matrix(1,0,0,1,1253.8676569416884,1391.9337152407275) translate(209.72098765432102 38.477777777777774)"/><use xlink:href="#y" transform="matrix(1,0,0,1,1253.8676569416884,1391.9337152407275) translate(311.8197530864197 38.477777777777774)"/><path d="M1460 1163.86v4.9m-.02 4.92l-.02 9.82m0 4.9l-.03 9.83m0 4.9l-.03 9.82m0 4.9l-.03 9.83m0 4.9l-.03 9.83m0 4.92l-.04 9.82m0 4.9l-.03 9.83m0 4.9l-.03 9.82m0 4.9l-.03 9.82m0 4.9l-.02 9.83m0 4.9l-.03 9.83m0 4.9l-.03 9.82m0 4.9l-.03 9.83m-.02 4.9v4.92" stroke="#333" fill="none"/><path d="M1460.47 1163.88h-.95v-.52h.95z" stroke="#333" stroke-width=".05" fill="#333"/><path d="M1459.54 1384.82l-4.6-14.28 9.26.02z" stroke="#333" fill="#333"/><path d="M320 1187.7v5.06m0 5.07v10.13m0 5.07v10.13m0 5.06v10.13m0 5.07v10.13m0 5.06v10.14m0 5.07v10.14m0 5.07v10.14m0 5.06v10.13m0 5.07v10.13m0 5.06v10.12m0 5.07v10.12m0 5.06v5.07" stroke="#333" fill="none"/><path d="M320.48 1187.7h-.96v-.5h.96z" stroke="#333" stroke-width=".05" fill="#333"/><path d="M320 1384.82l-4.63-14.27h9.26z" stroke="#333" fill="#333"/><path d="M879.93 1394.93a8 8 0 0 1 8-8h304a8 8 0 0 1 8 8v64a8 8 0 0 1-8 8h-304a8 8 0 0 1-8-8z" stroke="#333" fill="#fff"/><use xlink:href="#D" transform="matrix(1,0,0,1,884.9338284708442,1391.9337152407275) translate(7.8259259259259295 38.477777777777774)"/><use xlink:href="#x" transform="matrix(1,0,0,1,884.9338284708442,1391.9337152407275) translate(106.4679012345679 38.477777777777774)"/><use xlink:href="#y" transform="matrix(1,0,0,1,884.9338284708442,1391.9337152407275) translate(208.56666666666666 38.477777777777774)"/><path d="M1060 1227.28a8 8 0 0 1 8-8h224a8 8 0 0 1 8 8v84a8 8 0 0 1-8 8h-224a8 8 0 0 1-8-8z" stroke="#333" fill="#fff"/><path d="M1060 1278.48h240" stroke="#333" fill="none"/><use xlink:href="#t" transform="matrix(1,0,0,1,1068,1227.2775873652179) translate(39.57499999999999 14.799999999999999)"/><use xlink:href="#E" transform="matrix(1,0,0,1,1068,1227.2775873652179) translate(66.57499999999999 36.4)"/><path d="M1099.98 1320.28v5.53m0 5.54v11.06m0 5.53V1359m0 5.52v5.53" stroke="#333" fill="none"/><path d="M1100.45 1320.3h-.95v-.52h.95z" stroke="#333" stroke-width=".05" fill="#333"/><path d="M1099.98 1384.82l-4.64-14.27h9.27z" stroke="#333" fill="#333"/><path d="M490 94.5a8 8 0 0 1 8-8h228a8 8 0 0 1 8 8v88a8 8 0 0 1-8 8H498a8 8 0 0 1-8-8z" stroke="#333" fill="#f2f3f5"/><path d="M490 124.1h244" stroke="#333" fill="none"/><use xlink:href="#F" transform="matrix(1,0,0,1,498,94.5) translate(35.125 14.6)"/><use xlink:href="#r" transform="matrix(1,0,0,1,502,132.1) translate(0 18.38888888888889)"/><use xlink:href="#s" transform="matrix(1,0,0,1,502,132.1) translate(0 42.922222222222224)"/><path d="M831 148a8 8 0 0 1 8-8h204a8 8 0 0 1 8 8v85a8 8 0 0 1-8 8H839a8 8 0 0 1-8-8z" stroke="#333" fill="#fff"/><path d="M831 199.2h220" stroke="#333" fill="none"/><use xlink:href="#G" transform="matrix(1,0,0,1,839,148) translate(32.14999999999999 14.799999999999999)"/><use xlink:href="#n" transform="matrix(1,0,0,1,839,148) translate(45.525 36.4)"/><path d="M764.88 138.5h5.62a12 12 0 0 1 12 12v4.8a12 12 0 0 0 12 12H830" stroke="#333" fill="none"/><path d="M735.2 138.5l14.86 14.85 14.85-14.85-14.84-14.85z" stroke="#333" fill="#fff"/><path d="M830.5 167.78h-.5v-.95h.5z" stroke="#333" stroke-width=".05" fill="#333"/><path d="M425 167.62h5.33m5.34 0h10.66m5.34 0h10.66m5.34 0h10.66m5.34 0H489" stroke="#333" fill="none"/><path d="M425 168.1h-.5v-.95h.5zM489.5 168.1h-.5v-.95h.5z" stroke="#333" stroke-width=".05" fill="#333"/><path d="M999.34 270.07l133.3 368.96" stroke="#333" fill="none"/><path d="M989.26 242.16l-8.92 19.02 19 8.92 8.93-19.02z" stroke="#333" fill="#fff"/><path d="M1133.3 639.5h-1l-.1-.32.88-.32z" stroke="#333" stroke-width=".05" fill="#333"/><path d="M490 208a8 8 0 0 1 8-8h228a8 8 0 0 1 8 8v63a8 8 0 0 1-8 8H498a8 8 0 0 1-8-8z" stroke="#333" fill="#f2f3f5"/><path d="M490 237.6h244" stroke="#333" fill="none"/><use xlink:href="#H" transform="matrix(1,0,0,1,498,208) translate(20.700000000000003 14.6)"/><use xlink:href="#I" transform="matrix(1,0,0,1,502,245.6) translate(0 18.155555555555555)"/><path d="M764.88 239.5H773a9.48 9.48 0 0 0 9.48-9.48 9.48 9.48 0 0 1 9.48-9.47H830" stroke="#333" fill="none"/><path d="M735.2 239.5l14.86 14.85 14.85-14.85-14.84-14.85z" stroke="#333" fill="#fff"/><path d="M830.5 221.02h-.5v-.95h.5z" stroke="#333" stroke-width=".05" fill="#333"/><path d="M425 226.72h5.33m5.34 0h10.66m5.34 0h10.66m5.34 0h10.66m5.34 0H489" stroke="#333" fill="none"/><path d="M425 227.2h-.5v-.96h.5zM489.5 227.2h-.5v-.96h.5z" stroke="#333" stroke-width=".05" fill="#333"/><path d="M170 1518.67a8 8 0 0 1 8-8h304a8 8 0 0 1 8 8v64a8 8 0 0 1-8 8H178a8 8 0 0 1-8-8z" stroke="#333" fill="#fff"/><use xlink:href="#J" transform="matrix(1,0,0,1,175,1515.6666666666674) translate(15.264197530864209 38.477777777777774)"/><use xlink:href="#x" transform="matrix(1,0,0,1,175,1515.6666666666674) translate(99.02962962962964 38.477777777777774)"/><use xlink:href="#y" transform="matrix(1,0,0,1,175,1515.6666666666674) translate(201.1283950617284 38.477777777777774)"/><path d="M320 1467.93v4.3m0 4.32v8.62m0 4.3v4.3" stroke="#333" fill="none"/><path d="M320.48 1467.95h-.96v-.52h.96z" stroke="#333" stroke-width=".05" fill="#333"/><path d="M320 1508.55l-4.63-14.27h9.26z" stroke="#333" fill="#333"/><path d="M380 404a8 8 0 0 1 8-8h144a8 8 0 0 1 8 8v84a8 8 0 0 1-8 8H388a8 8 0 0 1-8-8z" stroke="#333" fill="#fff"/><path d="M380 455.2h160" stroke="#333" fill="none"/><use xlink:href="#K" transform="matrix(1,0,0,1,388,404) translate(17.099999999999994 14.799999999999999)"/><use xlink:href="#L" transform="matrix(1,0,0,1,388,404) translate(13.17499999999999 36.4)"/><path d="M1360 328a8 8 0 0 1 8-8h198.4a8 8 0 0 1 8 8v105a8 8 0 0 1-8 8H1368a8 8 0 0 1-8-8z" stroke="#333" fill="#fff"/><path d="M1360 400.8h214.4" stroke="#333" fill="none"/><use xlink:href="#K" transform="matrix(1,0,0,1,1368,328) translate(44.599999999999994 14.500000000000002)"/><use xlink:href="#M" transform="matrix(1,0,0,1,1368,328) translate(32.825 36.1)"/><use xlink:href="#N" transform="matrix(1,0,0,1,1368,328) translate(74.57499999999999 57.7)"/><path d="M142 404a8 8 0 0 1 8-8h198.4a8 8 0 0 1 8 8v105a8 8 0 0 1-8 8H150a8 8 0 0 1-8-8z" stroke="#333" fill="#fff"/><path d="M142 476.8h214.4" stroke="#333" fill="none"/><use xlink:href="#K" transform="matrix(1,0,0,1,150,404) translate(44.599999999999994 14.500000000000002)"/><use xlink:href="#O" transform="matrix(1,0,0,1,150,404) translate(28.325000000000003 36.1)"/><use xlink:href="#N" transform="matrix(1,0,0,1,150,404) translate(74.57499999999999 57.7)"/><path d="M380 608a8 8 0 0 1 8-8h144a8 8 0 0 1 8 8v84a8 8 0 0 1-8 8H388a8 8 0 0 1-8-8z" stroke="#333" fill="#fff"/><path d="M380 659.2h160" stroke="#333" fill="none"/><use xlink:href="#i" transform="matrix(1,0,0,1,388,608) translate(13.574999999999996 14.799999999999999)"/><use xlink:href="#P" transform="matrix(1,0,0,1,388,608) translate(30.124999999999993 36.4)"/><path d="M1380 668a8 8 0 0 1 8-8h160.6a8 8 0 0 1 8 8v84a8 8 0 0 1-8 8H1388a8 8 0 0 1-8-8z" stroke="#333" fill="#fff"/><path d="M1380 719.2h176.6" stroke="#333" fill="none"/><use xlink:href="#i" transform="matrix(1,0,0,1,1388,668) translate(22.074999999999996 14.799999999999999)"/><use xlink:href="#Q" transform="matrix(1,0,0,1,1388,668) translate(42.625 36.4)"/><path d="M247.6 811a8 8 0 0 1 8-8H454a8 8 0 0 1 8 8v84a8 8 0 0 1-8 8H255.6a8 8 0 0 1-8-8z" stroke="#333" fill="#fff"/><path d="M247.6 862.2H462" stroke="#333" fill="none"/><g><use xlink:href="#i" transform="matrix(1,0,0,1,255.59554187821323,811) translate(41.074999999999996 14.799999999999999)"/><use xlink:href="#R" transform="matrix(1,0,0,1,255.59554187821323,811) translate(40.67499999999999 36.4)"/></g><path d="M249.38 517.97l97.38 262.82" stroke="#333" fill="none"/><path d="M249.83 517.82l-.9.33-.23-.65h1z" stroke="#333" stroke-width=".05" fill="#333"/><path d="M354.45 801.56L335.2 785.6l23.45-8.68z" stroke="#333" fill="#fff"/><path d="M1467.2 442v107.95a.55.55 0 0 0 .55.55.55.55 0 0 1 .55.55v85.3" stroke="#333" fill="none"/><path d="M1467.68 442h-.95v-.5h.95z" stroke="#333" stroke-width=".05" fill="#333"/><path d="M1468.3 658.5l-12.5-21.65h25z" stroke="#333" fill="#fff"/><path d="M460 497v79.35" stroke="#333" fill="none"/><path d="M460.48 497h-.96v-.5h.96z" stroke="#333" stroke-width=".05" fill="#333"/><path d="M460 598.5l-12.5-21.65h25z" stroke="#333" fill="#fff"/><path d="M1252.05 471.88v66.62a12 12 0 0 0 12 12h131.47a12 12 0 0 1 12 12V659" stroke="#333" fill="none"/><path d="M1252.05 442.2l-14.85 14.86 14.85 14.85 14.85-14.84z" stroke="#333" fill="#fff"/><path d="M1408 659.5h-.95v-.5h.94z" stroke="#333" stroke-width=".05" fill="#333"/><path d="M841.55 263.33l-325 335.8" stroke="#333" fill="none"/><path d="M862.18 242l-21 .35.35 21 21-.35z" stroke="#333" fill="#fff"/><path d="M516.9 599.46l-.04.04h-1.32l.67-.7z" stroke="#333" stroke-width=".05" fill="#333"/><path d="M872.37 266.4L462.8 852.6" stroke="#333" fill="none"/><path d="M889.36 242.08l-20.67 3.67 3.65 20.67 20.68-3.66z" stroke="#333" fill="#fff"/><path d="M463.18 852.85l-.68.98v-1.46z" stroke="#333" stroke-width=".05" fill="#333"/><path d="M1200 148a8 8 0 0 1 8-8h204a8 8 0 0 1 8 8v85a8 8 0 0 1-8 8h-204a8 8 0 0 1-8-8z" stroke="#333" fill="#fff"/><path d="M1200 199.2h220" stroke="#333" fill="none"/><g><use xlink:href="#G" transform="matrix(1,0,0,1,1208,148) translate(32.14999999999999 14.799999999999999)"/><use xlink:href="#S" transform="matrix(1,0,0,1,1208,148) translate(32.125 36.4)"/></g><path d="M1081.88 190.5H1199" stroke="#333" fill="none"/><path d="M1052.2 190.5l14.86 14.85 14.85-14.85-14.84-14.85z" stroke="#333" fill="#fff"/><path d="M1199.5 190.97h-.5v-.94h.5z" stroke="#333" stroke-width=".05" fill="#333"/><path d="M511 1394.93a8 8 0 0 1 8-8h304a8 8 0 0 1 8 8v64a8 8 0 0 1-8 8H519a8 8 0 0 1-8-8z" stroke="#333" fill="#fff"/><g><use xlink:href="#T" transform="matrix(1,0,0,1,516,1391.9337152407275) translate(42.33209876543211 25.352777777777778)"/><use xlink:href="#U" transform="matrix(1,0,0,1,516,1391.9337152407275) translate(160.541975308642 25.352777777777778)"/><use xlink:href="#y" transform="matrix(1,0,0,1,516,1391.9337152407275) translate(113.7962962962963 52.019444444444446)"/></g><path d="M760 1196.55v4.6m0 4.6v9.18m0 4.6v9.18m0 4.6v9.2m0 4.6v9.17m0 4.6v9.2m0 4.58v4.6l-.15 1.87-.44 1.83-.7 1.74-.34.52m-4.38 4.4l-.53.32-1.74.7-1.82.45-1.88.14h-5.42m-5.4 0h-10.85m-5.4 0h-10.85m-5.4 0h-10.85m-5.4 0H683l-1.88.15-1.83.43-1.75.72-.53.33m-4.38 4.38l-.33.54-.7 1.73-.45 1.84-.15 1.87v5.57m0 5.58v11.13m0 5.58v11.13m0 5.58v11.13m0 5.58v5.57" stroke="#333" fill="none"/><path d="M760.48 1196.56h-.96v-.5h.96z" stroke="#333" stroke-width=".05" fill="#333"/><path d="M671 1384.82l-4.63-14.27h9.26z" stroke="#333" fill="#333"/><defs><path fill="#333" d="M205 0l-28-72H64L36 0H1l101-248h38L239 0h-34zm-38-99l-47-123c-12 45-31 82-46 123h93" id="V"/><path fill="#333" d="M115-194c55 1 70 41 70 98S169 2 115 4C84 4 66-9 55-30l1 105H24l-1-265h31l2 30c10-21 28-34 59-34zm-8 174c40 0 45-34 45-75s-6-73-45-74c-42 0-51 32-51 76 0 43 10 73 51 73" id="W"/><path fill="#333" d="M24 0v-261h32V0H24" id="X"/><path fill="#333" d="M24-231v-30h32v30H24zM24 0v-190h32V0H24" id="Y"/><path fill="#333" d="M96-169c-40 0-48 33-48 73s9 75 48 75c24 0 41-14 43-38l32 2c-6 37-31 61-74 61-59 0-76-41-82-99-10-93 101-131 147-64 4 7 5 14 7 22l-32 3c-4-21-16-35-41-35" id="Z"/><path fill="#333" d="M141-36C126-15 110 5 73 4 37 3 15-17 15-53c-1-64 63-63 125-63 3-35-9-54-41-54-24 1-41 7-42 31l-33-3c5-37 33-52 76-52 45 0 72 20 72 64v82c-1 20 7 32 28 27v20c-31 9-61-2-59-35zM48-53c0 20 12 33 32 33 41-3 63-29 60-74-43 2-92-5-92 41" id="aa"/><path fill="#333" d="M59-47c-2 24 18 29 38 22v24C64 9 27 4 27-40v-127H5v-23h24l9-43h21v43h35v23H59v120" id="ab"/><path fill="#333" d="M100-194c62-1 85 37 85 99 1 63-27 99-86 99S16-35 15-95c0-66 28-99 85-99zM99-20c44 1 53-31 53-75 0-43-8-75-51-75s-53 32-53 75 10 74 51 75" id="ac"/><path fill="#333" d="M117-194c89-4 53 116 60 194h-32v-121c0-31-8-49-39-48C34-167 62-67 57 0H25l-1-190h30c1 10-1 24 2 32 11-22 29-35 61-36" id="ad"/><path fill="#333" d="M0 4l72-265h28L28 4H0" id="ae"/><path fill="#333" d="M232-93c-1 65-40 97-104 97C67 4 28-28 28-90v-158h33c8 89-33 224 67 224 102 0 64-133 71-224h33v155" id="af"/><path fill="#333" d="M33 0v-248h34V0H33" id="ag"/><path fill="#333" d="M127-220V0H93v-220H8v-28h204v28h-85" id="ah"/><path fill="#333" d="M100-194c63 0 86 42 84 106H49c0 40 14 67 53 68 26 1 43-12 49-29l28 8c-11 28-37 45-77 45C44 4 14-33 15-96c1-61 26-98 85-98zm52 81c6-60-76-77-97-28-3 7-6 17-6 28h103" id="ai"/><path fill="#333" d="M135-143c-3-34-86-38-87 0 15 53 115 12 119 90S17 21 10-45l28-5c4 36 97 45 98 0-10-56-113-15-118-90-4-57 82-63 122-42 12 7 21 19 24 35" id="aj"/><g id="a"><use transform="matrix(0.04938271604938272,0,0,0.04938271604938272,0,0)" xlink:href="#V"/><use transform="matrix(0.04938271604938272,0,0,0.04938271604938272,11.851851851851853,0)" xlink:href="#W"/><use transform="matrix(0.04938271604938272,0,0,0.04938271604938272,21.7283950617284,0)" xlink:href="#W"/><use transform="matrix(0.04938271604938272,0,0,0.04938271604938272,31.60493827160494,0)" xlink:href="#X"/><use transform="matrix(0.04938271604938272,0,0,0.04938271604938272,35.50617283950618,0)" xlink:href="#Y"/><use transform="matrix(0.04938271604938272,0,0,0.04938271604938272,39.40740740740741,0)" xlink:href="#Z"/><use transform="matrix(0.04938271604938272,0,0,0.04938271604938272,48.296296296296305,0)" xlink:href="#aa"/><use transform="matrix(0.04938271604938272,0,0,0.04938271604938272,58.17283950617284,0)" xlink:href="#ab"/><use transform="matrix(0.04938271604938272,0,0,0.04938271604938272,63.111111111111114,0)" xlink:href="#Y"/><use transform="matrix(0.04938271604938272,0,0,0.04938271604938272,67.01234567901236,0)" xlink:href="#ac"/><use transform="matrix(0.04938271604938272,0,0,0.04938271604938272,76.8888888888889,0)" xlink:href="#ad"/><use transform="matrix(0.04938271604938272,0,0,0.04938271604938272,86.76543209876544,0)" xlink:href="#ae"/><use transform="matrix(0.04938271604938272,0,0,0.04938271604938272,91.70370370370372,0)" xlink:href="#af"/><use transform="matrix(0.04938271604938272,0,0,0.04938271604938272,104.49382716049386,0)" xlink:href="#ag"/><use transform="matrix(0.04938271604938272,0,0,0.04938271604938272,109.43209876543213,0)" xlink:href="#ae"/><use transform="matrix(0.04938271604938272,0,0,0.04938271604938272,114.37037037037041,0)" xlink:href="#ah"/><use transform="matrix(0.04938271604938272,0,0,0.04938271604938272,123.20987654320992,0)" xlink:href="#ai"/><use transform="matrix(0.04938271604938272,0,0,0.04938271604938272,133.08641975308646,0)" xlink:href="#aj"/><use transform="matrix(0.04938271604938272,0,0,0.04938271604938272,141.97530864197535,0)" xlink:href="#ab"/><use transform="matrix(0.04938271604938272,0,0,0.04938271604938272,146.91358024691363,0)" xlink:href="#aj"/></g><path fill="#333" d="M101-234c-31-9-42 10-38 44h38v23H63V0H32v-167H5v-23h27c-7-52 17-82 69-68v24" id="ak"/><path fill="#333" d="M114-163C36-179 61-72 57 0H25l-1-190h30c1 12-1 29 2 39 6-27 23-49 58-41v29" id="al"/><path fill="#333" d="M84 4C-5 8 30-112 23-190h32v120c0 31 7 50 39 49 72-2 45-101 50-169h31l1 190h-30c-1-10 1-25-2-33-11 22-28 36-60 37" id="am"/><g id="b"><use transform="matrix(0.04938271604938272,0,0,0.04938271604938272,0,0)" xlink:href="#ag"/><use transform="matrix(0.04938271604938272,0,0,0.04938271604938272,4.938271604938272,0)" xlink:href="#ad"/><use transform="matrix(0.04938271604938272,0,0,0.04938271604938272,14.814814814814817,0)" xlink:href="#ak"/><use transform="matrix(0.04938271604938272,0,0,0.04938271604938272,19.75308641975309,0)" xlink:href="#al"/><use transform="matrix(0.04938271604938272,0,0,0.04938271604938272,25.629629629629633,0)" xlink:href="#aa"/><use transform="matrix(0.04938271604938272,0,0,0.04938271604938272,35.50617283950618,0)" xlink:href="#aj"/><use transform="matrix(0.04938271604938272,0,0,0.04938271604938272,44.39506172839506,0)" xlink:href="#ab"/><use transform="matrix(0.04938271604938272,0,0,0.04938271604938272,49.333333333333336,0)" xlink:href="#al"/><use transform="matrix(0.04938271604938272,0,0,0.04938271604938272,55.20987654320988,0)" xlink:href="#am"/><use transform="matrix(0.04938271604938272,0,0,0.04938271604938272,65.08641975308643,0)" xlink:href="#Z"/><use transform="matrix(0.04938271604938272,0,0,0.04938271604938272,73.97530864197532,0)" xlink:href="#ab"/><use transform="matrix(0.04938271604938272,0,0,0.04938271604938272,78.9135802469136,0)" xlink:href="#am"/><use transform="matrix(0.04938271604938272,0,0,0.04938271604938272,88.79012345679014,0)" xlink:href="#al"/><use transform="matrix(0.04938271604938272,0,0,0.04938271604938272,94.66666666666669,0)" xlink:href="#ai"/></g><path fill="#333" d="M185-189c-5-48-123-54-124 2 14 75 158 14 163 119 3 78-121 87-175 55-17-10-28-26-33-46l33-7c5 56 141 63 141-1 0-78-155-14-162-118-5-82 145-84 179-34 5 7 8 16 11 25" id="an"/><path fill="#333" d="M108 0H70L1-190h34L89-25l56-165h34" id="ao"/><path fill="#333" d="M233-177c-1 41-23 64-60 70L243 0h-38l-65-103H63V0H30v-248c88 3 205-21 203 71zM63-129c60-2 137 13 137-47 0-61-80-42-137-45v92" id="ap"/><path fill="#333" d="M179-190L93 31C79 59 56 82 12 73V49c39 6 53-20 64-50L1-190h34L92-34l54-156h33" id="aq"/><g id="c"><use transform="matrix(0.04938271604938272,0,0,0.04938271604938272,0,0)" xlink:href="#an"/><use transform="matrix(0.04938271604938272,0,0,0.04938271604938272,11.851851851851853,0)" xlink:href="#ai"/><use transform="matrix(0.04938271604938272,0,0,0.04938271604938272,21.7283950617284,0)" xlink:href="#al"/><use transform="matrix(0.04938271604938272,0,0,0.04938271604938272,27.604938271604947,0)" xlink:href="#ao"/><use transform="matrix(0.04938271604938272,0,0,0.04938271604938272,36.49382716049384,0)" xlink:href="#Y"/><use transform="matrix(0.04938271604938272,0,0,0.04938271604938272,40.39506172839507,0)" xlink:href="#Z"/><use transform="matrix(0.04938271604938272,0,0,0.04938271604938272,49.28395061728396,0)" xlink:href="#ai"/><use transform="matrix(0.04938271604938272,0,0,0.04938271604938272,59.16049382716051,0)" xlink:href="#ae"/><use transform="matrix(0.04938271604938272,0,0,0.04938271604938272,64.09876543209879,0)" xlink:href="#ap"/><use transform="matrix(0.04938271604938272,0,0,0.04938271604938272,76.88888888888891,0)" xlink:href="#ai"/><use transform="matrix(0.04938271604938272,0,0,0.04938271604938272,86.76543209876546,0)" xlink:href="#W"/><use transform="matrix(0.04938271604938272,0,0,0.04938271604938272,96.641975308642,0)" xlink:href="#ac"/><use transform="matrix(0.04938271604938272,0,0,0.04938271604938272,106.51851851851855,0)" xlink:href="#aj"/><use transform="matrix(0.04938271604938272,0,0,0.04938271604938272,115.40740740740743,0)" xlink:href="#Y"/><use transform="matrix(0.04938271604938272,0,0,0.04938271604938272,119.30864197530867,0)" xlink:href="#ab"/><use transform="matrix(0.04938271604938272,0,0,0.04938271604938272,124.24691358024694,0)" xlink:href="#ac"/><use transform="matrix(0.04938271604938272,0,0,0.04938271604938272,134.1234567901235,0)" xlink:href="#al"/><use transform="matrix(0.04938271604938272,0,0,0.04938271604938272,140.00000000000003,0)" xlink:href="#aq"/></g><g id="d"><use transform="matrix(0.04938271604938272,0,0,0.04938271604938272,0,0)" xlink:href="#ag"/><use transform="matrix(0.04938271604938272,0,0,0.04938271604938272,4.938271604938272,0)" xlink:href="#ad"/><use transform="matrix(0.04938271604938272,0,0,0.04938271604938272,14.814814814814817,0)" xlink:href="#ab"/><use transform="matrix(0.04938271604938272,0,0,0.04938271604938272,19.75308641975309,0)" xlink:href="#ai"/><use transform="matrix(0.04938271604938272,0,0,0.04938271604938272,29.629629629629633,0)" xlink:href="#al"/><use transform="matrix(0.04938271604938272,0,0,0.04938271604938272,35.50617283950618,0)" xlink:href="#ak"/><use transform="matrix(0.04938271604938272,0,0,0.04938271604938272,40.44444444444445,0)" xlink:href="#aa"/><use transform="matrix(0.04938271604938272,0,0,0.04938271604938272,50.320987654320994,0)" xlink:href="#Z"/><use transform="matrix(0.04938271604938272,0,0,0.04938271604938272,59.209876543209894,0)" xlink:href="#ai"/><use transform="matrix(0.04938271604938272,0,0,0.04938271604938272,69.08641975308643,0)" xlink:href="#aj"/></g><path fill="#333" d="M30-248c118-7 216 8 213 122C240-48 200 0 122 0H30v-248zM63-27c89 8 146-16 146-99s-60-101-146-95v194" id="ar"/><path fill="#333" d="M210-169c-67 3-38 105-44 169h-31v-121c0-29-5-50-35-48C34-165 62-65 56 0H25l-1-190h30c1 10-1 24 2 32 10-44 99-50 107 0 11-21 27-35 58-36 85-2 47 119 55 194h-31v-121c0-29-5-49-35-48" id="as"/><g id="e"><use transform="matrix(0.04938271604938272,0,0,0.04938271604938272,0,0)" xlink:href="#ar"/><use transform="matrix(0.04938271604938272,0,0,0.04938271604938272,12.790123456790125,0)" xlink:href="#ac"/><use transform="matrix(0.04938271604938272,0,0,0.04938271604938272,22.66666666666667,0)" xlink:href="#as"/><use transform="matrix(0.04938271604938272,0,0,0.04938271604938272,37.4320987654321,0)" xlink:href="#aa"/><use transform="matrix(0.04938271604938272,0,0,0.04938271604938272,47.308641975308646,0)" xlink:href="#Y"/><use transform="matrix(0.04938271604938272,0,0,0.04938271604938272,51.20987654320988,0)" xlink:href="#ad"/></g><path fill="#333" d="M30 0v-248h187v28H63v79h144v27H63v87h162V0H30" id="at"/><g id="f"><use transform="matrix(0.04938271604938272,0,0,0.04938271604938272,0,0)" xlink:href="#at"/><use transform="matrix(0.04938271604938272,0,0,0.04938271604938272,11.851851851851853,0)" xlink:href="#ad"/><use transform="matrix(0.04938271604938272,0,0,0.04938271604938272,21.7283950617284,0)" xlink:href="#ab"/><use transform="matrix(0.04938271604938272,0,0,0.04938271604938272,26.666666666666668,0)" xlink:href="#Y"/><use transform="matrix(0.04938271604938272,0,0,0.04938271604938272,30.567901234567906,0)" xlink:href="#ab"/><use transform="matrix(0.04938271604938272,0,0,0.04938271604938272,35.50617283950618,0)" xlink:href="#Y"/><use transform="matrix(0.04938271604938272,0,0,0.04938271604938272,39.40740740740741,0)" xlink:href="#ai"/><use transform="matrix(0.04938271604938272,0,0,0.04938271604938272,49.283950617283956,0)" xlink:href="#aj"/><use transform="matrix(0.04938271604938272,0,0,0.04938271604938272,58.17283950617284,0)" xlink:href="#ae"/><use transform="matrix(0.04938271604938272,0,0,0.04938271604938272,63.111111111111114,0)" xlink:href="#an"/><use transform="matrix(0.04938271604938272,0,0,0.04938271604938272,74.96296296296298,0)" xlink:href="#ai"/><use transform="matrix(0.04938271604938272,0,0,0.04938271604938272,84.83950617283952,0)" xlink:href="#al"/><use transform="matrix(0.04938271604938272,0,0,0.04938271604938272,90.71604938271606,0)" xlink:href="#ao"/><use transform="matrix(0.04938271604938272,0,0,0.04938271604938272,99.60493827160495,0)" xlink:href="#Y"/><use transform="matrix(0.04938271604938272,0,0,0.04938271604938272,103.50617283950618,0)" xlink:href="#Z"/><use transform="matrix(0.04938271604938272,0,0,0.04938271604938272,112.39506172839508,0)" xlink:href="#ai"/><use transform="matrix(0.04938271604938272,0,0,0.04938271604938272,122.27160493827162,0)" xlink:href="#aj"/></g><path fill="#333" d="M15-91v-56l181-69v40L49-119l147 57v40" id="au"/><path fill="#333" d="M24 0v-248h195v40H76v63h132v40H76v65h150V0H24" id="av"/><path fill="#333" d="M135-194c87-1 58 113 63 194h-50c-7-57 23-157-34-157-59 0-34 97-39 157H25l-1-190h47c2 12-1 28 3 38 12-26 28-41 61-42" id="aw"/><path fill="#333" d="M115-3C79 11 28 4 28-45v-112H4v-33h27l15-45h31v45h36v33H77v99c-1 23 16 31 38 25v30" id="ax"/><path fill="#333" d="M25-224v-37h50v37H25zM25 0v-190h50V0H25" id="ay"/><path fill="#333" d="M123 10C108 53 80 86 19 72V37c35 8 53-11 59-39L3-190h52l48 148c12-52 28-100 44-148h51" id="az"/><path fill="#333" d="M15-22v-40l146-57-146-57v-40l181 69v56" id="aA"/><g id="g"><use transform="matrix(0.049382716049382706,0,0,0.049382716049382706,0,0)" xlink:href="#au"/><use transform="matrix(0.049382716049382706,0,0,0.049382716049382706,10.370370370370368,0)" xlink:href="#au"/><use transform="matrix(0.049382716049382706,0,0,0.049382716049382706,20.740740740740737,0)" xlink:href="#av"/><use transform="matrix(0.049382716049382706,0,0,0.049382716049382706,32.59259259259259,0)" xlink:href="#aw"/><use transform="matrix(0.049382716049382706,0,0,0.049382716049382706,43.407407407407405,0)" xlink:href="#ax"/><use transform="matrix(0.049382716049382706,0,0,0.049382716049382706,49.28395061728395,0)" xlink:href="#ay"/><use transform="matrix(0.049382716049382706,0,0,0.049382716049382706,54.22222222222222,0)" xlink:href="#ax"/><use transform="matrix(0.049382716049382706,0,0,0.049382716049382706,60.098765432098766,0)" xlink:href="#az"/><use transform="matrix(0.049382716049382706,0,0,0.049382716049382706,69.9753086419753,0)" xlink:href="#aA"/><use transform="matrix(0.049382716049382706,0,0,0.049382716049382706,80.34567901234567,0)" xlink:href="#aA"/></g><path fill="#333" d="M140-251c80 0 125 45 125 126S219 4 139 4C58 4 15-44 15-125s44-126 125-126zm-1 214c52 0 73-35 73-88 0-50-21-86-72-86-52 0-73 35-73 86s22 88 72 88" id="aB"/><path fill="#333" d="M135-150c-39-12-60 13-60 57V0H25l-1-190h47c2 13-1 29 3 40 6-28 27-53 61-41v41" id="aC"/><path fill="#333" d="M88-194c31-1 46 15 58 34l-1-101h50l1 261h-48c-2-10 0-23-3-31C134-8 116 4 84 4 32 4 16-41 15-95c0-56 19-97 73-99zm17 164c33 0 40-30 41-66 1-37-9-64-41-64s-38 30-39 65c0 43 13 65 39 65" id="aD"/><path fill="#333" d="M185-48c-13 30-37 53-82 52C43 2 14-33 14-96s30-98 90-98c62 0 83 45 84 108H66c0 31 8 55 39 56 18 0 30-7 34-22zm-45-69c5-46-57-63-70-21-2 6-4 13-4 21h74" id="aE"/><g id="h"><use transform="matrix(0.049382716049382706,0,0,0.049382716049382706,0,0)" xlink:href="#aB"/><use transform="matrix(0.049382716049382706,0,0,0.049382716049382706,13.827160493827158,0)" xlink:href="#aC"/><use transform="matrix(0.049382716049382706,0,0,0.049382716049382706,20.740740740740737,0)" xlink:href="#aD"/><use transform="matrix(0.049382716049382706,0,0,0.049382716049382706,31.55555555555555,0)" xlink:href="#aE"/><use transform="matrix(0.049382716049382706,0,0,0.049382716049382706,41.43209876543209,0)" xlink:href="#aC"/></g><path d="M15-91v-56l181-69v40L49-119l147 57v40" id="aF"/><path d="M25-224v-37h50v37H25zM25 0v-190h50V0H25" id="aG"/><path d="M135-194c87-1 58 113 63 194h-50c-7-57 23-157-34-157-59 0-34 97-39 157H25l-1-190h47c2 12-1 28 3 38 12-26 28-41 61-42" id="aH"/><path d="M115-3C79 11 28 4 28-45v-112H4v-33h27l15-45h31v45h36v33H77v99c-1 23 16 31 38 25v30" id="aI"/><path d="M185-48c-13 30-37 53-82 52C43 2 14-33 14-96s30-98 90-98c62 0 83 45 84 108H66c0 31 8 55 39 56 18 0 30-7 34-22zm-45-69c5-46-57-63-70-21-2 6-4 13-4 21h74" id="aJ"/><path d="M135-150c-39-12-60 13-60 57V0H25l-1-190h47c2 13-1 29 3 40 6-28 27-53 61-41v41" id="aK"/><path d="M121-226c-27-7-43 5-38 36h38v33H83V0H34v-157H6v-33h28c-9-59 32-81 87-68v32" id="aL"/><path d="M133-34C117-15 103 5 69 4 32 3 11-16 11-54c-1-60 55-63 116-61 1-26-3-47-28-47-18 1-26 9-28 27l-52-2c7-38 36-58 82-57s74 22 75 68l1 82c-1 14 12 18 25 15v27c-30 8-71 5-69-32zm-48 3c29 0 43-24 42-57-32 0-66-3-65 30 0 17 8 27 23 27" id="aM"/><path d="M190-63c-7 42-38 67-86 67-59 0-84-38-90-98-12-110 154-137 174-36l-49 2c-2-19-15-32-35-32-30 0-35 28-38 64-6 74 65 87 74 30" id="aN"/><path d="M15-22v-40l146-57-146-57v-40l181 69v56" id="aO"/><g id="i"><use transform="matrix(0.05,0,0,0.05,0,0)" xlink:href="#aF"/><use transform="matrix(0.05,0,0,0.05,10.5,0)" xlink:href="#aF"/><use transform="matrix(0.05,0,0,0.05,21,0)" xlink:href="#aG"/><use transform="matrix(0.05,0,0,0.05,26,0)" xlink:href="#aH"/><use transform="matrix(0.05,0,0,0.05,36.95,0)" xlink:href="#aI"/><use transform="matrix(0.05,0,0,0.05,42.900000000000006,0)" xlink:href="#aJ"/><use transform="matrix(0.05,0,0,0.05,52.900000000000006,0)" xlink:href="#aK"/><use transform="matrix(0.05,0,0,0.05,59.900000000000006,0)" xlink:href="#aL"/><use transform="matrix(0.05,0,0,0.05,65.85000000000001,0)" xlink:href="#aM"/><use transform="matrix(0.05,0,0,0.05,75.85000000000001,0)" xlink:href="#aN"/><use transform="matrix(0.05,0,0,0.05,85.85000000000001,0)" xlink:href="#aJ"/><use transform="matrix(0.05,0,0,0.05,95.85000000000001,0)" xlink:href="#aO"/><use transform="matrix(0.05,0,0,0.05,106.35000000000001,0)" xlink:href="#aO"/></g><path d="M24 0v-248h52V0H24" id="aP"/><path d="M140-251c80 0 125 45 125 126S219 4 139 4C58 4 15-44 15-125s44-126 125-126zm-1 214c52 0 73-35 73-88 0-50-21-86-72-86-52 0-73 35-73 86s22 88 72 88" id="aQ"/><path d="M88-194c31-1 46 15 58 34l-1-101h50l1 261h-48c-2-10 0-23-3-31C134-8 116 4 84 4 32 4 16-41 15-95c0-56 19-97 73-99zm17 164c33 0 40-30 41-66 1-37-9-64-41-64s-38 30-39 65c0 43 13 65 39 65" id="aR"/><path d="M240-174c0 40-23 61-54 70L253 0h-59l-57-94H76V0H24v-248c93 4 217-23 216 74zM76-134c48-2 112 12 112-38 0-48-66-32-112-35v73" id="aS"/><path d="M135-194c53 0 70 44 70 98 0 56-19 98-73 100-31 1-45-17-59-34 3 33 2 69 2 105H25l-1-265h48c2 10 0 23 3 31 11-24 29-35 60-35zM114-30c33 0 39-31 40-66 0-38-9-64-40-64-56 0-55 130 0 130" id="aT"/><path d="M110-194c64 0 96 36 96 99 0 64-35 99-97 99-61 0-95-36-95-99 0-62 34-99 96-99zm-1 164c35 0 45-28 45-65 0-40-10-65-43-65-34 0-45 26-45 65 0 36 10 65 43 65" id="aU"/><path d="M137-138c1-29-70-34-71-4 15 46 118 7 119 86 1 83-164 76-172 9l43-7c4 19 20 25 44 25 33 8 57-30 24-41C81-84 22-81 20-136c-2-80 154-74 161-7" id="aV"/><path d="M123 10C108 53 80 86 19 72V37c35 8 53-11 59-39L3-190h52l48 148c12-52 28-100 44-148h51" id="aW"/><g id="j"><use transform="matrix(0.05,0,0,0.05,0,0)" xlink:href="#aP"/><use transform="matrix(0.05,0,0,0.05,5,0)" xlink:href="#aQ"/><use transform="matrix(0.05,0,0,0.05,19,0)" xlink:href="#aK"/><use transform="matrix(0.05,0,0,0.05,26,0)" xlink:href="#aR"/><use transform="matrix(0.05,0,0,0.05,36.95,0)" xlink:href="#aJ"/><use transform="matrix(0.05,0,0,0.05,46.95,0)" xlink:href="#aK"/><use transform="matrix(0.05,0,0,0.05,53.95,0)" xlink:href="#aS"/><use transform="matrix(0.05,0,0,0.05,66.9,0)" xlink:href="#aJ"/><use transform="matrix(0.05,0,0,0.05,76.9,0)" xlink:href="#aT"/><use transform="matrix(0.05,0,0,0.05,87.85000000000001,0)" xlink:href="#aU"/><use transform="matrix(0.05,0,0,0.05,98.80000000000001,0)" xlink:href="#aV"/><use transform="matrix(0.05,0,0,0.05,108.80000000000001,0)" xlink:href="#aG"/><use transform="matrix(0.05,0,0,0.05,113.80000000000001,0)" xlink:href="#aI"/><use transform="matrix(0.05,0,0,0.05,119.75,0)" xlink:href="#aU"/><use transform="matrix(0.05,0,0,0.05,130.70000000000002,0)" xlink:href="#aK"/><use transform="matrix(0.05,0,0,0.05,137.70000000000002,0)" xlink:href="#aW"/></g><path fill="#333" d="M147 0H94L2-248h55l64 206c17-72 42-137 63-206h54" id="aX"/><path fill="#333" d="M133-34C117-15 103 5 69 4 32 3 11-16 11-54c-1-60 55-63 116-61 1-26-3-47-28-47-18 1-26 9-28 27l-52-2c7-38 36-58 82-57s74 22 75 68l1 82c-1 14 12 18 25 15v27c-30 8-71 5-69-32zm-48 3c29 0 43-24 42-57-32 0-66-3-65 30 0 17 8 27 23 27" id="aY"/><path fill="#333" d="M25 0v-261h50V0H25" id="aZ"/><path fill="#333" d="M85 4C-2 5 27-109 22-190h50c7 57-23 150 33 157 60-5 35-97 40-157h50l1 190h-47c-2-12 1-28-3-38-12 25-28 42-61 42" id="ba"/><path fill="#333" d="M135-194c52 0 70 43 70 98 0 56-19 99-73 100-30 1-46-15-58-35L72 0H24l1-261h50v104c11-23 29-37 60-37zM114-30c31 0 40-27 40-66 0-37-7-63-39-63s-41 28-41 65c0 36 8 64 40 64" id="bb"/><path fill="#333" d="M25-224v-37h50v37H25zM75 22c2 45-34 59-81 51V38c22 5 31-5 31-27v-201h50V22" id="bc"/><path fill="#333" d="M190-63c-7 42-38 67-86 67-59 0-84-38-90-98-12-110 154-137 174-36l-49 2c-2-19-15-32-35-32-30 0-35 28-38 64-6 74 65 87 74 30" id="bd"/><g id="k"><use transform="matrix(0.04938271604938272,0,0,0.04938271604938272,0,0)" xlink:href="#au"/><use transform="matrix(0.04938271604938272,0,0,0.04938271604938272,10.370370370370372,0)" xlink:href="#au"/><use transform="matrix(0.04938271604938272,0,0,0.04938271604938272,20.740740740740744,0)" xlink:href="#aX"/><use transform="matrix(0.04938271604938272,0,0,0.04938271604938272,31.60493827160494,0)" xlink:href="#aY"/><use transform="matrix(0.04938271604938272,0,0,0.04938271604938272,41.48148148148149,0)" xlink:href="#aZ"/><use transform="matrix(0.04938271604938272,0,0,0.04938271604938272,46.41975308641976,0)" xlink:href="#ba"/><use transform="matrix(0.04938271604938272,0,0,0.04938271604938272,57.23456790123457,0)" xlink:href="#aE"/><use transform="matrix(0.04938271604938272,0,0,0.04938271604938272,67.11111111111111,0)" xlink:href="#aB"/><use transform="matrix(0.04938271604938272,0,0,0.04938271604938272,80.93827160493828,0)" xlink:href="#bb"/><use transform="matrix(0.04938271604938272,0,0,0.04938271604938272,91.75308641975309,0)" xlink:href="#bc"/><use transform="matrix(0.04938271604938272,0,0,0.04938271604938272,96.69135802469137,0)" xlink:href="#aE"/><use transform="matrix(0.04938271604938272,0,0,0.04938271604938272,106.56790123456791,0)" xlink:href="#bd"/><use transform="matrix(0.04938271604938272,0,0,0.04938271604938272,116.44444444444446,0)" xlink:href="#ax"/><use transform="matrix(0.04938271604938272,0,0,0.04938271604938272,122.320987654321,0)" xlink:href="#aA"/><use transform="matrix(0.04938271604938272,0,0,0.04938271604938272,132.69135802469137,0)" xlink:href="#aA"/></g><path fill="#333" d="M24 0v-248h52V0H24" id="be"/><path fill="#333" d="M220-157c-53 9-28 100-34 157h-49v-107c1-27-5-49-29-50C55-147 81-57 75 0H25l-1-190h47c2 12-1 28 3 38 10-53 101-56 108 0 13-22 24-43 59-42 82 1 51 116 57 194h-49v-107c-1-25-5-48-29-50" id="bf"/><g id="l"><use transform="matrix(0.04938271604938272,0,0,0.04938271604938272,0,0)" xlink:href="#aB"/><use transform="matrix(0.04938271604938272,0,0,0.04938271604938272,13.827160493827162,0)" xlink:href="#aC"/><use transform="matrix(0.04938271604938272,0,0,0.04938271604938272,20.74074074074074,0)" xlink:href="#aD"/><use transform="matrix(0.04938271604938272,0,0,0.04938271604938272,31.555555555555557,0)" xlink:href="#aE"/><use transform="matrix(0.04938271604938272,0,0,0.04938271604938272,41.4320987654321,0)" xlink:href="#aC"/><use transform="matrix(0.04938271604938272,0,0,0.04938271604938272,48.345679012345684,0)" xlink:href="#be"/><use transform="matrix(0.04938271604938272,0,0,0.04938271604938272,53.283950617283956,0)" xlink:href="#ax"/><use transform="matrix(0.04938271604938272,0,0,0.04938271604938272,59.1604938271605,0)" xlink:href="#aE"/><use transform="matrix(0.04938271604938272,0,0,0.04938271604938272,69.03703703703704,0)" xlink:href="#bf"/></g><path fill="#333" d="M80-196l47-18 7 23-49 13 32 44-20 13-27-46-27 45-21-12 33-44-49-13 8-23 47 19-2-53h23" id="bg"/><use transform="matrix(0.04938271604938272,0,0,0.04938271604938272,0,0)" xlink:href="#bg" id="m"/><path d="M169-182c-1-43-94-46-97-3 18 66 151 10 154 114 3 95-165 93-204 36-6-8-10-19-12-30l50-8c3 46 112 56 116 5-17-69-150-10-154-114-4-87 153-88 188-35 5 8 8 18 10 28" id="bh"/><path d="M128 0H69L1-190h53L99-40l48-150h52" id="bi"/><g id="n"><use transform="matrix(0.05,0,0,0.05,0,0)" xlink:href="#aQ"/><use transform="matrix(0.05,0,0,0.05,14,0)" xlink:href="#aK"/><use transform="matrix(0.05,0,0,0.05,21,0)" xlink:href="#aR"/><use transform="matrix(0.05,0,0,0.05,31.950000000000003,0)" xlink:href="#aJ"/><use transform="matrix(0.05,0,0,0.05,41.95,0)" xlink:href="#aK"/><use transform="matrix(0.05,0,0,0.05,48.95,0)" xlink:href="#bh"/><use transform="matrix(0.05,0,0,0.05,60.95,0)" xlink:href="#aJ"/><use transform="matrix(0.05,0,0,0.05,70.95,0)" xlink:href="#aK"/><use transform="matrix(0.05,0,0,0.05,77.95,0)" xlink:href="#bi"/><use transform="matrix(0.05,0,0,0.05,87.95,0)" xlink:href="#aG"/><use transform="matrix(0.05,0,0,0.05,92.95,0)" xlink:href="#aN"/><use transform="matrix(0.05,0,0,0.05,102.95,0)" xlink:href="#aJ"/></g><g id="o"><use transform="matrix(0.05,0,0,0.05,0,0)" xlink:href="#aF"/><use transform="matrix(0.05,0,0,0.05,10.5,0)" xlink:href="#aF"/><use transform="matrix(0.05,0,0,0.05,21,0)" xlink:href="#aS"/><use transform="matrix(0.05,0,0,0.05,33.95,0)" xlink:href="#aJ"/><use transform="matrix(0.05,0,0,0.05,43.95,0)" xlink:href="#aT"/><use transform="matrix(0.05,0,0,0.05,54.900000000000006,0)" xlink:href="#aU"/><use transform="matrix(0.05,0,0,0.05,65.85000000000001,0)" xlink:href="#aV"/><use transform="matrix(0.05,0,0,0.05,75.85000000000001,0)" xlink:href="#aG"/><use transform="matrix(0.05,0,0,0.05,80.85000000000001,0)" xlink:href="#aI"/><use transform="matrix(0.05,0,0,0.05,86.80000000000001,0)" xlink:href="#aU"/><use transform="matrix(0.05,0,0,0.05,97.75000000000001,0)" xlink:href="#aK"/><use transform="matrix(0.05,0,0,0.05,104.75,0)" xlink:href="#aW"/><use transform="matrix(0.05,0,0,0.05,114.75,0)" xlink:href="#aO"/><use transform="matrix(0.05,0,0,0.05,125.25,0)" xlink:href="#aO"/></g><g id="p"><use transform="matrix(0.05,0,0,0.05,0,0)" xlink:href="#aQ"/><use transform="matrix(0.05,0,0,0.05,14,0)" xlink:href="#aK"/><use transform="matrix(0.05,0,0,0.05,21,0)" xlink:href="#aR"/><use transform="matrix(0.05,0,0,0.05,31.950000000000003,0)" xlink:href="#aJ"/><use transform="matrix(0.05,0,0,0.05,41.95,0)" xlink:href="#aK"/><use transform="matrix(0.05,0,0,0.05,48.95,0)" xlink:href="#aS"/><use transform="matrix(0.05,0,0,0.05,61.900000000000006,0)" xlink:href="#aJ"/><use transform="matrix(0.05,0,0,0.05,71.9,0)" xlink:href="#aT"/><use transform="matrix(0.05,0,0,0.05,82.85000000000001,0)" xlink:href="#aU"/><use transform="matrix(0.05,0,0,0.05,93.80000000000001,0)" xlink:href="#aV"/><use transform="matrix(0.05,0,0,0.05,103.80000000000001,0)" xlink:href="#aG"/><use transform="matrix(0.05,0,0,0.05,108.80000000000001,0)" xlink:href="#aI"/><use transform="matrix(0.05,0,0,0.05,114.75,0)" xlink:href="#aU"/><use transform="matrix(0.05,0,0,0.05,125.7,0)" xlink:href="#aK"/><use transform="matrix(0.05,0,0,0.05,132.70000000000002,0)" xlink:href="#aW"/></g><path fill="#6f7681" d="M140-251c80 0 125 45 125 126S219 4 139 4C58 4 15-44 15-125s44-126 125-126zm-1 214c52 0 73-35 73-88 0-50-21-86-72-86-52 0-73 35-73 86s22 88 72 88" id="bj"/><path fill="#6f7681" d="M135-150c-39-12-60 13-60 57V0H25l-1-190h47c2 13-1 29 3 40 6-28 27-53 61-41v41" id="bk"/><path fill="#6f7681" d="M88-194c31-1 46 15 58 34l-1-101h50l1 261h-48c-2-10 0-23-3-31C134-8 116 4 84 4 32 4 16-41 15-95c0-56 19-97 73-99zm17 164c33 0 40-30 41-66 1-37-9-64-41-64s-38 30-39 65c0 43 13 65 39 65" id="bl"/><path fill="#6f7681" d="M185-48c-13 30-37 53-82 52C43 2 14-33 14-96s30-98 90-98c62 0 83 45 84 108H66c0 31 8 55 39 56 18 0 30-7 34-22zm-45-69c5-46-57-63-70-21-2 6-4 13-4 21h74" id="bm"/><path fill="#6f7681" d="M199 0l-22-63H83L61 0H9l90-248h61L250 0h-51zm-33-102l-36-108c-10 38-24 72-36 108h72" id="bn"/><path fill="#6f7681" d="M24-248c93 1 206-16 204 79-1 75-69 88-152 82V0H24v-248zm52 121c47 0 100 7 100-41 0-47-54-39-100-39v80" id="bo"/><path fill="#6f7681" d="M24 0v-248h52V0H24" id="bp"/><g id="q"><use transform="matrix(0.05,0,0,0.05,0,0)" xlink:href="#bj"/><use transform="matrix(0.05,0,0,0.05,14,0)" xlink:href="#bk"/><use transform="matrix(0.05,0,0,0.05,21,0)" xlink:href="#bl"/><use transform="matrix(0.05,0,0,0.05,31.950000000000003,0)" xlink:href="#bm"/><use transform="matrix(0.05,0,0,0.05,41.95,0)" xlink:href="#bk"/><use transform="matrix(0.05,0,0,0.05,48.95,0)" xlink:href="#bn"/><use transform="matrix(0.05,0,0,0.05,61.900000000000006,0)" xlink:href="#bo"/><use transform="matrix(0.05,0,0,0.05,73.9,0)" xlink:href="#bp"/></g><path fill="#6f7681" d="M0 4l72-265h28L28 4H0" id="bq"/><path fill="#6f7681" d="M100-194c62-1 85 37 85 99 1 63-27 99-86 99S16-35 15-95c0-66 28-99 85-99zM99-20c44 1 53-31 53-75 0-43-8-75-51-75s-53 32-53 75 10 74 51 75" id="br"/><path fill="#6f7681" d="M114-163C36-179 61-72 57 0H25l-1-190h30c1 12-1 29 2 39 6-27 23-49 58-41v29" id="bs"/><path fill="#6f7681" d="M85-194c31 0 48 13 60 33l-1-100h32l1 261h-30c-2-10 0-23-3-31C134-8 116 4 85 4 32 4 16-35 15-94c0-66 23-100 70-100zm9 24c-40 0-46 34-46 75 0 40 6 74 45 74 42 0 51-32 51-76 0-42-9-74-50-73" id="bt"/><path fill="#6f7681" d="M100-194c63 0 86 42 84 106H49c0 40 14 67 53 68 26 1 43-12 49-29l28 8c-11 28-37 45-77 45C44 4 14-33 15-96c1-61 26-98 85-98zm52 81c6-60-76-77-97-28-3 7-6 17-6 28h103" id="bu"/><path fill="#6f7681" d="M135-143c-3-34-86-38-87 0 15 53 115 12 119 90S17 21 10-45l28-5c4 36 97 45 98 0-10-56-113-15-118-90-4-57 82-63 122-42 12 7 21 19 24 35" id="bv"/><g id="r"><use transform="matrix(0.04938271604938272,0,0,0.04938271604938272,0,0)" xlink:href="#bq"/><use transform="matrix(0.04938271604938272,0,0,0.04938271604938272,4.938271604938272,0)" xlink:href="#br"/><use transform="matrix(0.04938271604938272,0,0,0.04938271604938272,14.814814814814817,0)" xlink:href="#bs"/><use transform="matrix(0.04938271604938272,0,0,0.04938271604938272,20.69135802469136,0)" xlink:href="#bt"/><use transform="matrix(0.04938271604938272,0,0,0.04938271604938272,30.567901234567906,0)" xlink:href="#bu"/><use transform="matrix(0.04938271604938272,0,0,0.04938271604938272,40.44444444444445,0)" xlink:href="#bs"/><use transform="matrix(0.04938271604938272,0,0,0.04938271604938272,46.320987654320994,0)" xlink:href="#bv"/></g><path fill="#6f7681" d="M39-94c74 12-11 154 75 146v23c-44 4-70-10-70-52C44-23 55-84 6-82v-22c81 4-7-162 84-157h24v23c-82-15-2 131-75 144" id="bw"/><path fill="#6f7681" d="M24-231v-30h32v30H24zM24 0v-190h32V0H24" id="bx"/><path fill="#6f7681" d="M76-40C78 24 84 88 6 75V52C86 64 9-79 80-94c-40-6-34-59-34-106 1-29-11-41-40-38v-23c44-4 70 10 70 52 0 47-12 108 38 105v22c-26 1-39 14-38 42" id="by"/><g id="s"><use transform="matrix(0.04938271604938272,0,0,0.04938271604938272,0,0)" xlink:href="#bq"/><use transform="matrix(0.04938271604938272,0,0,0.04938271604938272,4.938271604938272,0)" xlink:href="#br"/><use transform="matrix(0.04938271604938272,0,0,0.04938271604938272,14.814814814814817,0)" xlink:href="#bs"/><use transform="matrix(0.04938271604938272,0,0,0.04938271604938272,20.69135802469136,0)" xlink:href="#bt"/><use transform="matrix(0.04938271604938272,0,0,0.04938271604938272,30.567901234567906,0)" xlink:href="#bu"/><use transform="matrix(0.04938271604938272,0,0,0.04938271604938272,40.44444444444445,0)" xlink:href="#bs"/><use transform="matrix(0.04938271604938272,0,0,0.04938271604938272,46.320987654320994,0)" xlink:href="#bv"/><use transform="matrix(0.04938271604938272,0,0,0.04938271604938272,55.209876543209894,0)" xlink:href="#bq"/><use transform="matrix(0.04938271604938272,0,0,0.04938271604938272,60.14814814814817,0)" xlink:href="#bw"/><use transform="matrix(0.04938271604938272,0,0,0.04938271604938272,66.07407407407409,0)" xlink:href="#bx"/><use transform="matrix(0.04938271604938272,0,0,0.04938271604938272,69.97530864197533,0)" xlink:href="#bt"/><use transform="matrix(0.04938271604938272,0,0,0.04938271604938272,79.85185185185188,0)" xlink:href="#by"/></g><path d="M147 0H94L2-248h55l64 206c17-72 42-137 63-206h54" id="bz"/><path d="M25 0v-261h50V0H25" id="bA"/><path d="M85 4C-2 5 27-109 22-190h50c7 57-23 150 33 157 60-5 35-97 40-157h50l1 190h-47c-2-12 1-28-3-38-12 25-28 42-61 42" id="bB"/><path d="M135-194c52 0 70 43 70 98 0 56-19 99-73 100-30 1-46-15-58-35L72 0H24l1-261h50v104c11-23 29-37 60-37zM114-30c31 0 40-27 40-66 0-37-7-63-39-63s-41 28-41 65c0 36 8 64 40 64" id="bC"/><path d="M25-224v-37h50v37H25zM75 22c2 45-34 59-81 51V38c22 5 31-5 31-27v-201h50V22" id="bD"/><g id="t"><use transform="matrix(0.05,0,0,0.05,0,0)" xlink:href="#aF"/><use transform="matrix(0.05,0,0,0.05,10.5,0)" xlink:href="#aF"/><use transform="matrix(0.05,0,0,0.05,21,0)" xlink:href="#bz"/><use transform="matrix(0.05,0,0,0.05,32,0)" xlink:href="#aM"/><use transform="matrix(0.05,0,0,0.05,42,0)" xlink:href="#bA"/><use transform="matrix(0.05,0,0,0.05,47,0)" xlink:href="#bB"/><use transform="matrix(0.05,0,0,0.05,57.95,0)" xlink:href="#aJ"/><use transform="matrix(0.05,0,0,0.05,67.95,0)" xlink:href="#aQ"/><use transform="matrix(0.05,0,0,0.05,81.95,0)" xlink:href="#bC"/><use transform="matrix(0.05,0,0,0.05,92.9,0)" xlink:href="#bD"/><use transform="matrix(0.05,0,0,0.05,97.9,0)" xlink:href="#aJ"/><use transform="matrix(0.05,0,0,0.05,107.9,0)" xlink:href="#aN"/><use transform="matrix(0.05,0,0,0.05,117.9,0)" xlink:href="#aI"/><use transform="matrix(0.05,0,0,0.05,123.85000000000001,0)" xlink:href="#aO"/><use transform="matrix(0.05,0,0,0.05,134.35000000000002,0)" xlink:href="#aO"/></g><path d="M24-248c93 1 206-16 204 79-1 75-69 88-152 82V0H24v-248zm52 121c47 0 100 7 100-41 0-47-54-39-100-39v80" id="bE"/><g id="u"><use transform="matrix(0.05,0,0,0.05,0,0)" xlink:href="#bE"/><use transform="matrix(0.05,0,0,0.05,12,0)" xlink:href="#aK"/><use transform="matrix(0.05,0,0,0.05,19,0)" xlink:href="#aU"/><use transform="matrix(0.05,0,0,0.05,29.950000000000003,0)" xlink:href="#aR"/><use transform="matrix(0.05,0,0,0.05,40.900000000000006,0)" xlink:href="#bB"/><use transform="matrix(0.05,0,0,0.05,51.85,0)" xlink:href="#aN"/><use transform="matrix(0.05,0,0,0.05,61.85,0)" xlink:href="#aI"/><use transform="matrix(0.05,0,0,0.05,67.80000000000001,0)" xlink:href="#aP"/><use transform="matrix(0.05,0,0,0.05,72.80000000000001,0)" xlink:href="#aR"/></g><path d="M67-125c0 53 21 87 73 88 37 1 54-22 65-47l45 17C233-25 199 4 140 4 58 4 20-42 15-125 8-235 124-281 211-232c18 10 29 29 36 50l-46 12c-8-25-30-41-62-41-52 0-71 34-72 86" id="bF"/><path d="M220-157c-53 9-28 100-34 157h-49v-107c1-27-5-49-29-50C55-147 81-57 75 0H25l-1-190h47c2 12-1 28 3 38 10-53 101-56 108 0 13-22 24-43 59-42 82 1 51 116 57 194h-49v-107c-1-25-5-48-29-50" id="bG"/><g id="v"><use transform="matrix(0.05,0,0,0.05,0,0)" xlink:href="#bF"/><use transform="matrix(0.05,0,0,0.05,12.950000000000001,0)" xlink:href="#bB"/><use transform="matrix(0.05,0,0,0.05,23.900000000000002,0)" xlink:href="#aV"/><use transform="matrix(0.05,0,0,0.05,33.900000000000006,0)" xlink:href="#aI"/><use transform="matrix(0.05,0,0,0.05,39.85000000000001,0)" xlink:href="#aU"/><use transform="matrix(0.05,0,0,0.05,50.80000000000001,0)" xlink:href="#bG"/><use transform="matrix(0.05,0,0,0.05,66.80000000000001,0)" xlink:href="#aJ"/><use transform="matrix(0.05,0,0,0.05,76.80000000000001,0)" xlink:href="#aK"/><use transform="matrix(0.05,0,0,0.05,83.80000000000001,0)" xlink:href="#aP"/><use transform="matrix(0.05,0,0,0.05,88.80000000000001,0)" xlink:href="#aR"/></g><g id="w"><use transform="matrix(0.06172839506172839,0,0,0.06172839506172839,0,0)" xlink:href="#aB"/><use transform="matrix(0.06172839506172839,0,0,0.06172839506172839,17.28395061728395,0)" xlink:href="#aC"/><use transform="matrix(0.06172839506172839,0,0,0.06172839506172839,25.925925925925924,0)" xlink:href="#aD"/><use transform="matrix(0.06172839506172839,0,0,0.06172839506172839,39.44444444444444,0)" xlink:href="#aE"/><use transform="matrix(0.06172839506172839,0,0,0.06172839506172839,51.79012345679012,0)" xlink:href="#aC"/></g><path fill="#333" d="M182-130c37 4 62 22 62 59C244 23 116-4 24 0v-248c84 5 203-23 205 63 0 31-19 50-47 55zM76-148c40-3 101 13 101-30 0-44-60-28-101-31v61zm0 110c48-3 116 14 116-37 0-48-69-32-116-35v72" id="bH"/><path fill="#333" d="M110-194c64 0 96 36 96 99 0 64-35 99-97 99-61 0-95-36-95-99 0-62 34-99 96-99zm-1 164c35 0 45-28 45-65 0-40-10-65-43-65-34 0-45 26-45 65 0 36 10 65 43 65" id="bI"/><g id="x"><use transform="matrix(0.06172839506172839,0,0,0.06172839506172839,0,0)" xlink:href="#bH"/><use transform="matrix(0.06172839506172839,0,0,0.06172839506172839,15.987654320987653,0)" xlink:href="#bI"/><use transform="matrix(0.06172839506172839,0,0,0.06172839506172839,29.50617283950617,0)" xlink:href="#ba"/><use transform="matrix(0.06172839506172839,0,0,0.06172839506172839,43.02469135802469,0)" xlink:href="#aw"/><use transform="matrix(0.06172839506172839,0,0,0.06172839506172839,56.54320987654321,0)" xlink:href="#aD"/><use transform="matrix(0.06172839506172839,0,0,0.06172839506172839,70.06172839506172,0)" xlink:href="#aE"/><use transform="matrix(0.06172839506172839,0,0,0.06172839506172839,82.4074074074074,0)" xlink:href="#aD"/></g><path fill="#333" d="M67-125c0 53 21 87 73 88 37 1 54-22 65-47l45 17C233-25 199 4 140 4 58 4 20-42 15-125 8-235 124-281 211-232c18 10 29 29 36 50l-46 12c-8-25-30-41-62-41-52 0-71 34-72 86" id="bJ"/><path fill="#333" d="M144 0l-44-69L55 0H2l70-98-66-92h53l41 62 40-62h54l-67 91 71 99h-54" id="bK"/><g id="y"><use transform="matrix(0.06172839506172839,0,0,0.06172839506172839,0,0)" xlink:href="#bJ"/><use transform="matrix(0.06172839506172839,0,0,0.06172839506172839,15.987654320987653,0)" xlink:href="#bI"/><use transform="matrix(0.06172839506172839,0,0,0.06172839506172839,29.50617283950617,0)" xlink:href="#aw"/><use transform="matrix(0.06172839506172839,0,0,0.06172839506172839,43.02469135802469,0)" xlink:href="#ax"/><use transform="matrix(0.06172839506172839,0,0,0.06172839506172839,50.37037037037037,0)" xlink:href="#aE"/><use transform="matrix(0.06172839506172839,0,0,0.06172839506172839,62.716049382716044,0)" xlink:href="#bK"/><use transform="matrix(0.06172839506172839,0,0,0.06172839506172839,75.06172839506172,0)" xlink:href="#ax"/></g><path fill="#333" d="M137-138c1-29-70-34-71-4 15 46 118 7 119 86 1 83-164 76-172 9l43-7c4 19 20 25 44 25 33 8 57-30 24-41C81-84 22-81 20-136c-2-80 154-74 161-7" id="bL"/><g id="z"><use transform="matrix(0.06172839506172839,0,0,0.06172839506172839,0,0)" xlink:href="#bJ"/><use transform="matrix(0.06172839506172839,0,0,0.06172839506172839,15.987654320987653,0)" xlink:href="#ba"/><use transform="matrix(0.06172839506172839,0,0,0.06172839506172839,29.50617283950617,0)" xlink:href="#bL"/><use transform="matrix(0.06172839506172839,0,0,0.06172839506172839,41.85185185185185,0)" xlink:href="#ax"/><use transform="matrix(0.06172839506172839,0,0,0.06172839506172839,49.197530864197525,0)" xlink:href="#bI"/><use transform="matrix(0.06172839506172839,0,0,0.06172839506172839,62.716049382716044,0)" xlink:href="#bf"/><use transform="matrix(0.06172839506172839,0,0,0.06172839506172839,82.46913580246913,0)" xlink:href="#aE"/><use transform="matrix(0.06172839506172839,0,0,0.06172839506172839,94.81481481481481,0)" xlink:href="#aC"/></g><path fill="#333" d="M24-248c93 1 206-16 204 79-1 75-69 88-152 82V0H24v-248zm52 121c47 0 100 7 100-41 0-47-54-39-100-39v80" id="bM"/><g id="A"><use transform="matrix(0.06172839506172839,0,0,0.06172839506172839,0,0)" xlink:href="#bM"/><use transform="matrix(0.06172839506172839,0,0,0.06172839506172839,14.814814814814813,0)" xlink:href="#aC"/><use transform="matrix(0.06172839506172839,0,0,0.06172839506172839,23.456790123456788,0)" xlink:href="#bI"/><use transform="matrix(0.06172839506172839,0,0,0.06172839506172839,36.9753086419753,0)" xlink:href="#aD"/><use transform="matrix(0.06172839506172839,0,0,0.06172839506172839,50.49382716049382,0)" xlink:href="#ba"/><use transform="matrix(0.06172839506172839,0,0,0.06172839506172839,64.01234567901234,0)" xlink:href="#bd"/><use transform="matrix(0.06172839506172839,0,0,0.06172839506172839,76.35802469135803,0)" xlink:href="#ax"/></g><path fill="#333" d="M195-6C206 82 75 100 31 46c-4-6-6-13-8-21l49-6c3 16 16 24 34 25 40 0 42-37 40-79-11 22-30 35-61 35-53 0-70-43-70-97 0-56 18-96 73-97 30 0 46 14 59 34l2-30h47zm-90-29c32 0 41-27 41-63 0-35-9-62-40-62-32 0-39 29-40 63 0 36 9 62 39 62" id="bN"/><g id="B"><use transform="matrix(0.06172839506172839,0,0,0.06172839506172839,0,0)" xlink:href="#bJ"/><use transform="matrix(0.06172839506172839,0,0,0.06172839506172839,15.987654320987653,0)" xlink:href="#aY"/><use transform="matrix(0.06172839506172839,0,0,0.06172839506172839,28.333333333333332,0)" xlink:href="#ax"/><use transform="matrix(0.06172839506172839,0,0,0.06172839506172839,35.67901234567901,0)" xlink:href="#aY"/><use transform="matrix(0.06172839506172839,0,0,0.06172839506172839,48.02469135802469,0)" xlink:href="#aZ"/><use transform="matrix(0.06172839506172839,0,0,0.06172839506172839,54.19753086419753,0)" xlink:href="#bI"/><use transform="matrix(0.06172839506172839,0,0,0.06172839506172839,67.71604938271605,0)" xlink:href="#bN"/><use transform="matrix(0.06172839506172839,0,0,0.06172839506172839,81.23456790123457,0)" xlink:href="#ba"/><use transform="matrix(0.06172839506172839,0,0,0.06172839506172839,94.75308641975309,0)" xlink:href="#aE"/></g><g id="C"><use transform="matrix(0.06172839506172839,0,0,0.06172839506172839,0,0)" xlink:href="#bH"/><use transform="matrix(0.06172839506172839,0,0,0.06172839506172839,15.987654320987653,0)" xlink:href="#bI"/><use transform="matrix(0.06172839506172839,0,0,0.06172839506172839,29.50617283950617,0)" xlink:href="#ba"/><use transform="matrix(0.06172839506172839,0,0,0.06172839506172839,43.02469135802469,0)" xlink:href="#aw"/><use transform="matrix(0.06172839506172839,0,0,0.06172839506172839,56.54320987654321,0)" xlink:href="#aD"/><use transform="matrix(0.06172839506172839,0,0,0.06172839506172839,70.06172839506172,0)" xlink:href="#aE"/><use transform="matrix(0.06172839506172839,0,0,0.06172839506172839,82.4074074074074,0)" xlink:href="#aD"/></g><g id="D"><use transform="matrix(0.06172839506172839,0,0,0.06172839506172839,0,0)" xlink:href="#bM"/><use transform="matrix(0.06172839506172839,0,0,0.06172839506172839,14.814814814814813,0)" xlink:href="#aY"/><use transform="matrix(0.06172839506172839,0,0,0.06172839506172839,27.160493827160494,0)" xlink:href="#az"/><use transform="matrix(0.06172839506172839,0,0,0.06172839506172839,39.50617283950617,0)" xlink:href="#bf"/><use transform="matrix(0.06172839506172839,0,0,0.06172839506172839,59.25925925925925,0)" xlink:href="#aE"/><use transform="matrix(0.06172839506172839,0,0,0.06172839506172839,71.60493827160494,0)" xlink:href="#aw"/><use transform="matrix(0.06172839506172839,0,0,0.06172839506172839,85.12345679012346,0)" xlink:href="#ax"/></g><g id="E"><use transform="matrix(0.05,0,0,0.05,0,0)" xlink:href="#bE"/><use transform="matrix(0.05,0,0,0.05,12,0)" xlink:href="#aM"/><use transform="matrix(0.05,0,0,0.05,22,0)" xlink:href="#aW"/><use transform="matrix(0.05,0,0,0.05,32,0)" xlink:href="#bG"/><use transform="matrix(0.05,0,0,0.05,48,0)" xlink:href="#aJ"/><use transform="matrix(0.05,0,0,0.05,58,0)" xlink:href="#aH"/><use transform="matrix(0.05,0,0,0.05,68.95,0)" xlink:href="#aI"/><use transform="matrix(0.05,0,0,0.05,74.9,0)" xlink:href="#aP"/><use transform="matrix(0.05,0,0,0.05,79.9,0)" xlink:href="#aR"/></g><path fill="#6f7681" d="M67-125c0 54 23 88 75 88 28 0 53-7 68-21v-34h-60v-39h108v91C232-14 192 4 140 4 58 4 20-42 15-125 8-236 126-280 215-234c19 10 29 26 37 47l-47 15c-11-23-29-39-63-39-53 1-75 33-75 86" id="bO"/><path fill="#6f7681" d="M115-3C79 11 28 4 28-45v-112H4v-33h27l15-45h31v45h36v33H77v99c-1 23 16 31 38 25v30" id="bP"/><path fill="#6f7681" d="M137-138c1-29-70-34-71-4 15 46 118 7 119 86 1 83-164 76-172 9l43-7c4 19 20 25 44 25 33 8 57-30 24-41C81-84 22-81 20-136c-2-80 154-74 161-7" id="bQ"/><path fill="#6f7681" d="M24 0v-248h52v208h133V0H24" id="bR"/><path fill="#6f7681" d="M133-34C117-15 103 5 69 4 32 3 11-16 11-54c-1-60 55-63 116-61 1-26-3-47-28-47-18 1-26 9-28 27l-52-2c7-38 36-58 82-57s74 22 75 68l1 82c-1 14 12 18 25 15v27c-30 8-71 5-69-32zm-48 3c29 0 43-24 42-57-32 0-66-3-65 30 0 17 8 27 23 27" id="bS"/><path fill="#6f7681" d="M220-157c-53 9-28 100-34 157h-49v-107c1-27-5-49-29-50C55-147 81-57 75 0H25l-1-190h47c2 12-1 28 3 38 10-53 101-56 108 0 13-22 24-43 59-42 82 1 51 116 57 194h-49v-107c-1-25-5-48-29-50" id="bT"/><path fill="#6f7681" d="M135-194c52 0 70 43 70 98 0 56-19 99-73 100-30 1-46-15-58-35L72 0H24l1-261h50v104c11-23 29-37 60-37zM114-30c31 0 40-27 40-66 0-37-7-63-39-63s-41 28-41 65c0 36 8 64 40 64" id="bU"/><g id="F"><use transform="matrix(0.05,0,0,0.05,0,0)" xlink:href="#bO"/><use transform="matrix(0.05,0,0,0.05,14,0)" xlink:href="#bm"/><use transform="matrix(0.05,0,0,0.05,24,0)" xlink:href="#bP"/><use transform="matrix(0.05,0,0,0.05,29.950000000000003,0)" xlink:href="#bj"/><use transform="matrix(0.05,0,0,0.05,43.95,0)" xlink:href="#bk"/><use transform="matrix(0.05,0,0,0.05,50.95,0)" xlink:href="#bl"/><use transform="matrix(0.05,0,0,0.05,61.900000000000006,0)" xlink:href="#bm"/><use transform="matrix(0.05,0,0,0.05,71.9,0)" xlink:href="#bk"/><use transform="matrix(0.05,0,0,0.05,78.9,0)" xlink:href="#bQ"/><use transform="matrix(0.05,0,0,0.05,88.9,0)" xlink:href="#bR"/><use transform="matrix(0.05,0,0,0.05,99.85000000000001,0)" xlink:href="#bS"/><use transform="matrix(0.05,0,0,0.05,109.85000000000001,0)" xlink:href="#bT"/><use transform="matrix(0.05,0,0,0.05,125.85000000000001,0)" xlink:href="#bU"/><use transform="matrix(0.05,0,0,0.05,136.8,0)" xlink:href="#bl"/><use transform="matrix(0.05,0,0,0.05,147.75,0)" xlink:href="#bS"/></g><path d="M199 0l-22-63H83L61 0H9l90-248h61L250 0h-51zm-33-102l-36-108c-10 38-24 72-36 108h72" id="bV"/><g id="G"><use transform="matrix(0.05,0,0,0.05,0,0)" xlink:href="#aF"/><use transform="matrix(0.05,0,0,0.05,10.5,0)" xlink:href="#aF"/><use transform="matrix(0.05,0,0,0.05,21,0)" xlink:href="#bV"/><use transform="matrix(0.05,0,0,0.05,33.95,0)" xlink:href="#aT"/><use transform="matrix(0.05,0,0,0.05,44.900000000000006,0)" xlink:href="#aT"/><use transform="matrix(0.05,0,0,0.05,55.85,0)" xlink:href="#bA"/><use transform="matrix(0.05,0,0,0.05,60.85,0)" xlink:href="#aG"/><use transform="matrix(0.05,0,0,0.05,65.85000000000001,0)" xlink:href="#aN"/><use transform="matrix(0.05,0,0,0.05,75.85000000000001,0)" xlink:href="#aM"/><use transform="matrix(0.05,0,0,0.05,85.85000000000001,0)" xlink:href="#aI"/><use transform="matrix(0.05,0,0,0.05,91.80000000000001,0)" xlink:href="#aG"/><use transform="matrix(0.05,0,0,0.05,96.80000000000001,0)" xlink:href="#aU"/><use transform="matrix(0.05,0,0,0.05,107.75,0)" xlink:href="#aH"/><use transform="matrix(0.05,0,0,0.05,118.7,0)" xlink:href="#aO"/><use transform="matrix(0.05,0,0,0.05,129.20000000000002,0)" xlink:href="#aO"/></g><path fill="#6f7681" d="M67-125c0 53 21 87 73 88 37 1 54-22 65-47l45 17C233-25 199 4 140 4 58 4 20-42 15-125 8-235 124-281 211-232c18 10 29 29 36 50l-46 12c-8-25-30-41-62-41-52 0-71 34-72 86" id="bW"/><path fill="#6f7681" d="M110-194c64 0 96 36 96 99 0 64-35 99-97 99-61 0-95-36-95-99 0-62 34-99 96-99zm-1 164c35 0 45-28 45-65 0-40-10-65-43-65-34 0-45 26-45 65 0 36 10 65 43 65" id="bX"/><path fill="#6f7681" d="M135-194c87-1 58 113 63 194h-50c-7-57 23-157-34-157-59 0-34 97-39 157H25l-1-190h47c2 12-1 28 3 38 12-26 28-41 61-42" id="bY"/><path fill="#6f7681" d="M121-226c-27-7-43 5-38 36h38v33H83V0H34v-157H6v-33h28c-9-59 32-81 87-68v32" id="bZ"/><path fill="#6f7681" d="M25-224v-37h50v37H25zM25 0v-190h50V0H25" id="ca"/><g id="H"><use transform="matrix(0.05,0,0,0.05,0,0)" xlink:href="#bW"/><use transform="matrix(0.05,0,0,0.05,12.950000000000001,0)" xlink:href="#bX"/><use transform="matrix(0.05,0,0,0.05,23.900000000000002,0)" xlink:href="#bY"/><use transform="matrix(0.05,0,0,0.05,34.85,0)" xlink:href="#bZ"/><use transform="matrix(0.05,0,0,0.05,40.800000000000004,0)" xlink:href="#ca"/><use transform="matrix(0.05,0,0,0.05,45.800000000000004,0)" xlink:href="#bk"/><use transform="matrix(0.05,0,0,0.05,52.800000000000004,0)" xlink:href="#bT"/><use transform="matrix(0.05,0,0,0.05,68.80000000000001,0)" xlink:href="#bj"/><use transform="matrix(0.05,0,0,0.05,82.80000000000001,0)" xlink:href="#bk"/><use transform="matrix(0.05,0,0,0.05,89.80000000000001,0)" xlink:href="#bl"/><use transform="matrix(0.05,0,0,0.05,100.75000000000001,0)" xlink:href="#bm"/><use transform="matrix(0.05,0,0,0.05,110.75,0)" xlink:href="#bk"/><use transform="matrix(0.05,0,0,0.05,117.75,0)" xlink:href="#bR"/><use transform="matrix(0.05,0,0,0.05,128.70000000000002,0)" xlink:href="#bS"/><use transform="matrix(0.05,0,0,0.05,138.70000000000002,0)" xlink:href="#bT"/><use transform="matrix(0.05,0,0,0.05,154.70000000000002,0)" xlink:href="#bU"/><use transform="matrix(0.05,0,0,0.05,165.65,0)" xlink:href="#bl"/><use transform="matrix(0.05,0,0,0.05,176.6,0)" xlink:href="#bS"/></g><g id="I"><use transform="matrix(0.04938271604938272,0,0,0.04938271604938272,0,0)" xlink:href="#bq"/><use transform="matrix(0.04938271604938272,0,0,0.04938271604938272,4.938271604938272,0)" xlink:href="#br"/><use transform="matrix(0.04938271604938272,0,0,0.04938271604938272,14.814814814814817,0)" xlink:href="#bs"/><use transform="matrix(0.04938271604938272,0,0,0.04938271604938272,20.69135802469136,0)" xlink:href="#bt"/><use transform="matrix(0.04938271604938272,0,0,0.04938271604938272,30.567901234567906,0)" xlink:href="#bu"/><use transform="matrix(0.04938271604938272,0,0,0.04938271604938272,40.44444444444445,0)" xlink:href="#bs"/><use transform="matrix(0.04938271604938272,0,0,0.04938271604938272,46.320987654320994,0)" xlink:href="#bv"/></g><path fill="#333" d="M24 0v-248h52v208h133V0H24" id="cb"/><g id="J"><use transform="matrix(0.06172839506172839,0,0,0.06172839506172839,0,0)" xlink:href="#cb"/><use transform="matrix(0.06172839506172839,0,0,0.06172839506172839,13.518518518518517,0)" xlink:href="#bI"/><use transform="matrix(0.06172839506172839,0,0,0.06172839506172839,27.037037037037035,0)" xlink:href="#az"/><use transform="matrix(0.06172839506172839,0,0,0.06172839506172839,39.382716049382715,0)" xlink:href="#aY"/><use transform="matrix(0.06172839506172839,0,0,0.06172839506172839,51.72839506172839,0)" xlink:href="#aZ"/><use transform="matrix(0.06172839506172839,0,0,0.06172839506172839,57.901234567901234,0)" xlink:href="#ax"/><use transform="matrix(0.06172839506172839,0,0,0.06172839506172839,65.24691358024691,0)" xlink:href="#az"/></g><g id="K"><use transform="matrix(0.05,0,0,0.05,0,0)" xlink:href="#aF"/><use transform="matrix(0.05,0,0,0.05,10.5,0)" xlink:href="#aF"/><use transform="matrix(0.05,0,0,0.05,21,0)" xlink:href="#bV"/><use transform="matrix(0.05,0,0,0.05,33.95,0)" xlink:href="#aR"/><use transform="matrix(0.05,0,0,0.05,44.900000000000006,0)" xlink:href="#aM"/><use transform="matrix(0.05,0,0,0.05,54.900000000000006,0)" xlink:href="#aT"/><use transform="matrix(0.05,0,0,0.05,65.85000000000001,0)" xlink:href="#aI"/><use transform="matrix(0.05,0,0,0.05,71.80000000000001,0)" xlink:href="#aJ"/><use transform="matrix(0.05,0,0,0.05,81.80000000000001,0)" xlink:href="#aK"/><use transform="matrix(0.05,0,0,0.05,88.80000000000001,0)" xlink:href="#aO"/><use transform="matrix(0.05,0,0,0.05,99.30000000000001,0)" xlink:href="#aO"/></g><g id="L"><use transform="matrix(0.05,0,0,0.05,0,0)" xlink:href="#aS"/><use transform="matrix(0.05,0,0,0.05,12.950000000000001,0)" xlink:href="#aJ"/><use transform="matrix(0.05,0,0,0.05,22.950000000000003,0)" xlink:href="#aV"/><use transform="matrix(0.05,0,0,0.05,32.95,0)" xlink:href="#aI"/><use transform="matrix(0.05,0,0,0.05,38.900000000000006,0)" xlink:href="#bV"/><use transform="matrix(0.05,0,0,0.05,51.85,0)" xlink:href="#aT"/><use transform="matrix(0.05,0,0,0.05,62.80000000000001,0)" xlink:href="#aG"/><use transform="matrix(0.05,0,0,0.05,67.80000000000001,0)" xlink:href="#bF"/><use transform="matrix(0.05,0,0,0.05,80.75000000000001,0)" xlink:href="#bA"/><use transform="matrix(0.05,0,0,0.05,85.75000000000001,0)" xlink:href="#aG"/><use transform="matrix(0.05,0,0,0.05,90.75000000000001,0)" xlink:href="#aJ"/><use transform="matrix(0.05,0,0,0.05,100.75000000000001,0)" xlink:href="#aH"/><use transform="matrix(0.05,0,0,0.05,111.7,0)" xlink:href="#aI"/></g><path d="M231 0h-52l-39-155L100 0H48L-1-190h46L77-45c9-52 24-97 36-145h53l37 145 32-145h46" id="cc"/><path d="M24-248c120-7 223 5 221 122C244-46 201 0 124 0H24v-248zM76-40c74 7 117-18 117-86 0-67-45-88-117-82v168" id="cd"/><path d="M182-130c37 4 62 22 62 59C244 23 116-4 24 0v-248c84 5 203-23 205 63 0 31-19 50-47 55zM76-148c40-3 101 13 101-30 0-44-60-28-101-31v61zm0 110c48-3 116 14 116-37 0-48-69-32-116-35v72" id="ce"/><g id="M"><use transform="matrix(0.05,0,0,0.05,0,0)" xlink:href="#bV"/><use transform="matrix(0.05,0,0,0.05,12.600000000000001,0)" xlink:href="#cc"/><use transform="matrix(0.05,0,0,0.05,26.6,0)" xlink:href="#aV"/><use transform="matrix(0.05,0,0,0.05,36.6,0)" xlink:href="#cd"/><use transform="matrix(0.05,0,0,0.05,49.550000000000004,0)" xlink:href="#aW"/><use transform="matrix(0.05,0,0,0.05,59.550000000000004,0)" xlink:href="#aH"/><use transform="matrix(0.05,0,0,0.05,70.5,0)" xlink:href="#aM"/><use transform="matrix(0.05,0,0,0.05,80.5,0)" xlink:href="#bG"/><use transform="matrix(0.05,0,0,0.05,96.5,0)" xlink:href="#aU"/><use transform="matrix(0.05,0,0,0.05,107.45,0)" xlink:href="#cd"/><use transform="matrix(0.05,0,0,0.05,120.4,0)" xlink:href="#ce"/></g><g id="N"><use transform="matrix(0.05,0,0,0.05,0,0)" xlink:href="#bF"/><use transform="matrix(0.05,0,0,0.05,12.950000000000001,0)" xlink:href="#bA"/><use transform="matrix(0.05,0,0,0.05,17.950000000000003,0)" xlink:href="#aG"/><use transform="matrix(0.05,0,0,0.05,22.950000000000003,0)" xlink:href="#aJ"/><use transform="matrix(0.05,0,0,0.05,32.95,0)" xlink:href="#aH"/><use transform="matrix(0.05,0,0,0.05,43.900000000000006,0)" xlink:href="#aI"/></g><path d="M24 0v-248h195v40H76v63h132v40H76v65h150V0H24" id="cf"/><path d="M195-6C206 82 75 100 31 46c-4-6-6-13-8-21l49-6c3 16 16 24 34 25 40 0 42-37 40-79-11 22-30 35-61 35-53 0-70-43-70-97 0-56 18-96 73-97 30 0 46 14 59 34l2-30h47zm-90-29c32 0 41-27 41-63 0-35-9-62-40-62-32 0-39 29-40 63 0 36 9 62 39 62" id="cg"/><g id="O"><use transform="matrix(0.05,0,0,0.05,0,0)" xlink:href="#bV"/><use transform="matrix(0.05,0,0,0.05,12.600000000000001,0)" xlink:href="#cc"/><use transform="matrix(0.05,0,0,0.05,26.6,0)" xlink:href="#aV"/><use transform="matrix(0.05,0,0,0.05,36.6,0)" xlink:href="#cf"/><use transform="matrix(0.05,0,0,0.05,48.6,0)" xlink:href="#bi"/><use transform="matrix(0.05,0,0,0.05,58.6,0)" xlink:href="#aJ"/><use transform="matrix(0.05,0,0,0.05,68.6,0)" xlink:href="#aH"/><use transform="matrix(0.05,0,0,0.05,79.55,0)" xlink:href="#aI"/><use transform="matrix(0.05,0,0,0.05,85.5,0)" xlink:href="#ce"/><use transform="matrix(0.05,0,0,0.05,98.45,0)" xlink:href="#aK"/><use transform="matrix(0.05,0,0,0.05,105.45,0)" xlink:href="#aG"/><use transform="matrix(0.05,0,0,0.05,110.45,0)" xlink:href="#aR"/><use transform="matrix(0.05,0,0,0.05,121.4,0)" xlink:href="#cg"/><use transform="matrix(0.05,0,0,0.05,132.35,0)" xlink:href="#aJ"/></g><g id="P"><use transform="matrix(0.05,0,0,0.05,0,0)" xlink:href="#aP"/><use transform="matrix(0.05,0,0,0.05,5,0)" xlink:href="#bV"/><use transform="matrix(0.05,0,0,0.05,17.950000000000003,0)" xlink:href="#aT"/><use transform="matrix(0.05,0,0,0.05,28.900000000000006,0)" xlink:href="#aG"/><use transform="matrix(0.05,0,0,0.05,33.900000000000006,0)" xlink:href="#bF"/><use transform="matrix(0.05,0,0,0.05,46.85000000000001,0)" xlink:href="#bA"/><use transform="matrix(0.05,0,0,0.05,51.85,0)" xlink:href="#aG"/><use transform="matrix(0.05,0,0,0.05,56.85,0)" xlink:href="#aJ"/><use transform="matrix(0.05,0,0,0.05,66.85000000000001,0)" xlink:href="#aH"/><use transform="matrix(0.05,0,0,0.05,77.80000000000001,0)" xlink:href="#aI"/></g><g id="Q"><use transform="matrix(0.05,0,0,0.05,0,0)" xlink:href="#cd"/><use transform="matrix(0.05,0,0,0.05,12.950000000000001,0)" xlink:href="#ce"/><use transform="matrix(0.05,0,0,0.05,25.900000000000002,0)" xlink:href="#bF"/><use transform="matrix(0.05,0,0,0.05,38.85,0)" xlink:href="#bA"/><use transform="matrix(0.05,0,0,0.05,43.85,0)" xlink:href="#aG"/><use transform="matrix(0.05,0,0,0.05,48.85,0)" xlink:href="#aJ"/><use transform="matrix(0.05,0,0,0.05,58.85,0)" xlink:href="#aH"/><use transform="matrix(0.05,0,0,0.05,69.8,0)" xlink:href="#aI"/></g><g id="R"><use transform="matrix(0.05,0,0,0.05,0,0)" xlink:href="#bE"/><use transform="matrix(0.05,0,0,0.05,12,0)" xlink:href="#bB"/><use transform="matrix(0.05,0,0,0.05,22.950000000000003,0)" xlink:href="#bC"/><use transform="matrix(0.05,0,0,0.05,33.900000000000006,0)" xlink:href="#bh"/><use transform="matrix(0.05,0,0,0.05,45.900000000000006,0)" xlink:href="#bB"/><use transform="matrix(0.05,0,0,0.05,56.85,0)" xlink:href="#bC"/><use transform="matrix(0.05,0,0,0.05,67.80000000000001,0)" xlink:href="#bF"/><use transform="matrix(0.05,0,0,0.05,80.75000000000001,0)" xlink:href="#bA"/><use transform="matrix(0.05,0,0,0.05,85.75000000000001,0)" xlink:href="#aG"/><use transform="matrix(0.05,0,0,0.05,90.75000000000001,0)" xlink:href="#aJ"/><use transform="matrix(0.05,0,0,0.05,100.75000000000001,0)" xlink:href="#aH"/><use transform="matrix(0.05,0,0,0.05,111.7,0)" xlink:href="#aI"/></g><path d="M230 0l2-204L168 0h-37L68-204 70 0H24v-248h70l56 185 57-185h69V0h-46" id="ch"/><g id="S"><use transform="matrix(0.05,0,0,0.05,0,0)" xlink:href="#aQ"/><use transform="matrix(0.05,0,0,0.05,14,0)" xlink:href="#aK"/><use transform="matrix(0.05,0,0,0.05,21,0)" xlink:href="#aR"/><use transform="matrix(0.05,0,0,0.05,31.950000000000003,0)" xlink:href="#aJ"/><use transform="matrix(0.05,0,0,0.05,41.95,0)" xlink:href="#aK"/><use transform="matrix(0.05,0,0,0.05,48.95,0)" xlink:href="#bz"/><use transform="matrix(0.05,0,0,0.05,60.95,0)" xlink:href="#ch"/><use transform="matrix(0.05,0,0,0.05,75.9,0)" xlink:href="#ch"/><use transform="matrix(0.05,0,0,0.05,90.85000000000001,0)" xlink:href="#aM"/><use transform="matrix(0.05,0,0,0.05,100.85000000000001,0)" xlink:href="#aT"/><use transform="matrix(0.05,0,0,0.05,111.80000000000001,0)" xlink:href="#aT"/><use transform="matrix(0.05,0,0,0.05,122.75,0)" xlink:href="#aJ"/><use transform="matrix(0.05,0,0,0.05,132.75,0)" xlink:href="#aK"/></g><path fill="#333" d="M76-208v77h127v40H76V0H24v-248h183v40H76" id="ci"/><path fill="#333" d="M121-226c-27-7-43 5-38 36h38v33H83V0H34v-157H6v-33h28c-9-59 32-81 87-68v32" id="cj"/><g id="T"><use transform="matrix(0.06172839506172839,0,0,0.06172839506172839,0,0)" xlink:href="#ci"/><use transform="matrix(0.06172839506172839,0,0,0.06172839506172839,13.518518518518517,0)" xlink:href="#ba"/><use transform="matrix(0.06172839506172839,0,0,0.06172839506172839,27.037037037037035,0)" xlink:href="#aZ"/><use transform="matrix(0.06172839506172839,0,0,0.06172839506172839,33.20987654320987,0)" xlink:href="#cj"/><use transform="matrix(0.06172839506172839,0,0,0.06172839506172839,40.55555555555555,0)" xlink:href="#ay"/><use transform="matrix(0.06172839506172839,0,0,0.06172839506172839,46.72839506172839,0)" xlink:href="#aZ"/><use transform="matrix(0.06172839506172839,0,0,0.06172839506172839,52.901234567901234,0)" xlink:href="#aZ"/><use transform="matrix(0.06172839506172839,0,0,0.06172839506172839,59.074074074074076,0)" xlink:href="#bf"/><use transform="matrix(0.06172839506172839,0,0,0.06172839506172839,78.82716049382717,0)" xlink:href="#aE"/><use transform="matrix(0.06172839506172839,0,0,0.06172839506172839,91.17283950617285,0)" xlink:href="#aw"/><use transform="matrix(0.06172839506172839,0,0,0.06172839506172839,104.69135802469137,0)" xlink:href="#ax"/></g><g id="U"><use transform="matrix(0.06172839506172839,0,0,0.06172839506172839,0,0)" xlink:href="#bH"/><use transform="matrix(0.06172839506172839,0,0,0.06172839506172839,15.987654320987653,0)" xlink:href="#bI"/><use transform="matrix(0.06172839506172839,0,0,0.06172839506172839,29.50617283950617,0)" xlink:href="#ba"/><use transform="matrix(0.06172839506172839,0,0,0.06172839506172839,43.02469135802469,0)" xlink:href="#aw"/><use transform="matrix(0.06172839506172839,0,0,0.06172839506172839,56.54320987654321,0)" xlink:href="#aD"/><use transform="matrix(0.06172839506172839,0,0,0.06172839506172839,70.06172839506172,0)" xlink:href="#aE"/><use transform="matrix(0.06172839506172839,0,0,0.06172839506172839,82.4074074074074,0)" xlink:href="#aD"/></g></defs></g></svg>