<svg xmlns="http://www.w3.org/2000/svg" xmlns:xlink="http://www.w3.org/1999/xlink" xmlns:lucid="lucid" width="978.67" height="740"><g transform="translate(-120 -100)" lucid:page-tab-id="Ukce.zjTcf2y"><path d="M0 0h1760v1360H0z" fill="#fff"/><path d="M680 350c0 38.66-35.82 70-80 70s-80-31.34-80-70 35.82-70 80-70 80 31.34 80 70z" stroke="#333" fill="#fff"/><use xlink:href="#a" transform="matrix(1,0,0,1,525,285) translate(40.31358024691358 70.23472222222223)"/><path d="M560 610c0 38.66-35.82 70-80 70s-80-31.34-80-70 35.82-70 80-70 80 31.34 80 70z" stroke="#333" fill="#fff"/><use xlink:href="#b" transform="matrix(1,0,0,1,405,545) translate(14.80740740740741 70.23472222222223)"/><use xlink:href="#c" transform="matrix(1,0,0,1,405,545) translate(63.79506172839507 70.23472222222223)"/><path d="M300 450c0 38.66-35.82 70-80 70s-80-31.34-80-70 35.82-70 80-70 80 31.34 80 70z" stroke="#333" fill="#fff"/><use xlink:href="#d" transform="matrix(1,0,0,1,145,385) translate(17.177777777777777 58.047222222222224)"/><use xlink:href="#e" transform="matrix(1,0,0,1,145,385) translate(70.41234567901235 58.047222222222224)"/><use xlink:href="#f" transform="matrix(1,0,0,1,145,385) translate(47.39506172839506 79.38055555555556)"/><path d="M600 190c0 38.66-35.82 70-80 70s-80-31.34-80-70 35.82-70 80-70 80 31.34 80 70z" stroke="#333" fill="#fff"/><use xlink:href="#g" transform="matrix(1,0,0,1,445,125) translate(35.37530864197531 70.23472222222223)"/><path d="M1000 550c0 38.66-35.82 70-80 70s-80-31.34-80-70 35.82-70 80-70 80 31.34 80 70z" stroke="#333" fill="#fff"/><use xlink:href="#h" transform="matrix(1,0,0,1,845,485) translate(23.992592592592594 70.23472222222223)"/><path d="M802.82 451.14l10.7 2.08 21.9 3.9 5.4 1.4 4.14 1.3 3.47 1.3 3.04 1.34 2.75 1.4 2.54 1.48 2.4 1.57 2.28 1.7 2.2 1.8 2.14 2 2.12 2.17 1.26 1.45-.75.66-1.24-1.44-2.08-2.13-2.1-1.94-2.16-1.78-2.24-1.65-2.34-1.54-2.5-1.46-2.7-1.37-3-1.32-3.4-1.3-4.1-1.28-5.33-1.37-21.88-3.9-10.72-2.1-1.75-.44v-1.03zm-84.88-33.37v1.1l-55.87-23.06.38-.92z" stroke="#333" stroke-width=".05" fill="#333"/><path d="M662.46 394.9l-.38.9-.67-.26.77-.77z" fill="#333"/><path d="M662.5 394.88l-.4.97-.73-.3.8-.8zm-1.04.65l.6.25.37-.88-.25-.1z" stroke="#333" stroke-width=".05" fill="#333"/><path d="M876.94 488.62l-11.76-9.32 7.72-5.13z" fill="#333"/><path d="M877.83 489.96l-13.5-10.7 8.87-5.9zm-11.8-10.62l10 7.93-3.43-12.3z" stroke="#333" stroke-width=".05" fill="#333"/><use xlink:href="#i" transform="matrix(1,0,0,1,717.9374573614153,412.4832194154404) translate(4.281543209876546 17.422222222222224)"/><use xlink:href="#j" transform="matrix(1,0,0,1,717.9374573614153,412.4832194154404) translate(32.92351851851852 17.422222222222224)"/><use xlink:href="#k" transform="matrix(1,0,0,1,717.9374573614153,412.4832194154404) translate(56.62722222222223 17.422222222222224)"/><use xlink:href="#l" transform="matrix(1,0,0,1,717.9374573614153,412.4832194154404) translate(43.93092592592593 38.75555555555556)"/><path d="M362.05 565.05l3.62 9.17 2.82 6.35 2.35 4.77 2.05 3.73 1.8 3 1.66 2.48 1.5 2.07 1.4 1.76 1.28 1.5 1.22 1.3 1.15 1.12 1.1 1 .8.65-.64.77-.8-.67-1.13-1.02-1.18-1.15-1.25-1.33-1.32-1.54-1.42-1.77-1.52-2.1-1.67-2.52-1.84-3.03-2.07-3.77-2.38-4.8-2.83-6.4-3.64-9.2-4.04-12.52h1.05zm-60.58-115.53l.95.06.94.1.92.13.9.2.92.2.9.25.9.3.9.33.92.4.93.42.93.5.96.55.98.62 1 .7 1.05.8 1.08.88 1.12 1.02 1.18 1.15 1.25 1.33 1.32 1.54 1.42 1.77 1.52 2.1 1.67 2.52 1.84 3.03 2.07 3.77 2.38 4.8 2.83 6.4 3.64 9.2 4.27 12.4h-1.06l-4.15-12.05-3.62-9.17-2.82-6.35-2.35-4.77-2.05-3.73-1.8-3-1.66-2.48-1.5-2.07-1.4-1.76-1.28-1.5-1.22-1.3-1.15-1.12-1.1-1-1.05-.86-1-.76-.98-.68-.95-.6-.92-.53-.9-.47-.9-.42-.86-.37-.87-.3-.86-.3-.85-.23-.87-.2-.87-.17-.87-.13-.9-.1-.9-.05H301v-1z" stroke="#333" stroke-width=".05" fill="#333"/><path d="M301.02 449.5l-.02 1h-.52l.02-.5v-.5z" fill="#333"/><path d="M301.05 449.5l-.02 1.04-.57-.02.02-.5v-.55zm-.52.5l-.02.48h.48l.02-.94h-.48z" stroke="#333" stroke-width=".05" fill="#333"/><path d="M398 609.43l-15-.7 3.28-8.68z" fill="#333"/><path d="M399.5 610l-17.2-.8 3.75-9.97zm-15.8-1.74l12.77.6-9.97-7.98z" stroke="#333" stroke-width=".05" fill="#333"/><use xlink:href="#m" transform="matrix(1,0,0,1,292.4549614812984,507.0143890867475) translate(12.627222222222215 17.422222222222224)"/><use xlink:href="#n" transform="matrix(1,0,0,1,292.4549614812984,507.0143890867475) translate(79.73833333333333 17.422222222222224)"/><use xlink:href="#o" transform="matrix(1,0,0,1,292.4549614812984,507.0143890867475) translate(60.17783950617283 38.75555555555556)"/><path d="M860 750c0 38.66-35.82 70-80 70s-80-31.34-80-70 35.82-70 80-70 80 31.34 80 70z" stroke="#333" fill="#fff"/><use xlink:href="#p" transform="matrix(1,0,0,1,705,685) translate(32.930864197530866 70.23472222222223)"/><path d="M693.48 683.73l3.1.3 2.78.42 2.55.5 2.37.62 2.2.7 2.1.76 1.97.85 1.3.63-.44.9-1.27-.6-1.94-.84-2.04-.75-2.16-.67-2.3-.6-2.5-.5-2.75-.4-3.04-.3-3.44-.17-4.02.02-4.86.28-6.32.68-9.7 1.82v-1.02l9.56-1.8 6.38-.68 4.9-.28 4.08-.02zm-141.14-19.46l8.05 6.66 6.82 5 2.1 1.35v1.2l-2.66-1.72-6.9-5.04-8.08-6.7-9.84-9.17.68-.73z" stroke="#333" stroke-width=".05" fill="#333"/><path d="M542.53 655.12l-.7.74-.37-.37.7-.72z" fill="#333"/><path d="M542.56 655.12l-.7.77-.44-.4.74-.75zm-1.07.37l.34.32.65-.7-.34-.3z" stroke="#333" stroke-width=".05" fill="#333"/><path d="M723.18 697.98l-14.1-5.12 5.7-7.3z" fill="#333"/><path d="M724.45 698.97l-16.2-5.88 6.56-8.4zm-14.55-6.35l12 4.36-7.15-10.58z" stroke="#333" stroke-width=".05" fill="#333"/><use xlink:href="#q" transform="matrix(1,0,0,1,569.3153516514276,670.6702385624089) translate(12.627222222222215 17.422222222222224)"/><use xlink:href="#o" transform="matrix(1,0,0,1,569.3153516514276,670.6702385624089) translate(50.35067901234568 38.75555555555556)"/><path d="M347.43 389.4l-.4.06-6.07 1.03-5.72 1.2-5.46 1.4-5.28 1.6-5.16 1.8-5.1 2-5.06 2.27-5.08 2.52-5.13 2.8-5.22 3.18-4.95 3.28-.55-.83 4.96-3.3 5.27-3.18 5.17-2.85 5.1-2.54 5.12-2.27 5.13-2.04 5.2-1.8 5.3-1.62 5.5-1.4 5.77-1.24 6.12-1.03.53-.07zm162.76-6.7l-6.5 1.95-6.8 1.75-7.02 1.5-7.34 1.23-7.8.98-8.54.73-3.36.14v-1l3.3-.14 8.5-.7 7.75-1 7.3-1.23 6.96-1.48 6.77-1.73 6.47-1.97z" stroke="#333" stroke-width=".05" fill="#333"/><path d="M288.8 412.56l-.4.28-.58-.83.44-.28z" fill="#333"/><path d="M288.85 412.56l-.47.3-.6-.85.5-.3zm-1-.54l.55.78.38-.25-.53-.8z" stroke="#333" stroke-width=".05" fill="#333"/><path d="M512.15 386.37l-3.28-8.67 14.98-.7z" fill="#333"/><path d="M511.92 387.2l-3.76-9.97 17.2-.82zm-2.34-9.03l2.8 7.38 9.96-8z" stroke="#333" stroke-width=".05" fill="#333"/><use xlink:href="#m" transform="matrix(1,0,0,1,347.43266019621353,365.45160086705357) translate(12.627222222222215 17.422222222222224)"/><use xlink:href="#n" transform="matrix(1,0,0,1,347.43266019621353,365.45160086705357) translate(79.73833333333333 17.422222222222224)"/><use xlink:href="#o" transform="matrix(1,0,0,1,347.43266019621353,365.45160086705357) translate(60.17783950617283 38.75555555555556)"/><path d="M325.57 339.4l-13.53 13.03-12.78 13.38-12.8 14.6-13.1 16.25-.77-.63 13.1-16.27 12.82-14.6 12.8-13.43 13.57-13.06 6.6-5.86h1.52zm118.62-95.26l-54.54 42.8h-1.62l55.54-43.58z" stroke="#333" stroke-width=".05" fill="#333"/><path d="M273.38 396.64l-.32.4-.8-.62.34-.4z" fill="#333"/><path d="M273.42 396.63l-.35.44-.83-.65.36-.44zm-1.1-.2l.74.57.3-.36-.75-.6z" stroke="#333" stroke-width=".05" fill="#333"/><path d="M447.28 246.94l-6.04-7.03 13.85-5.77z" fill="#333"/><path d="M447.35 247.8l-6.93-8.1 15.9-6.62zm-5.28-7.7l5.14 6 6.66-10.9z" stroke="#333" stroke-width=".05" fill="#333"/><use xlink:href="#m" transform="matrix(1,0,0,1,302.0851983479663,286.93657714691454) translate(12.627222222222215 17.422222222222224)"/><use xlink:href="#n" transform="matrix(1,0,0,1,302.0851983479663,286.93657714691454) translate(79.73833333333333 17.422222222222224)"/><use xlink:href="#o" transform="matrix(1,0,0,1,302.0851983479663,286.93657714691454) translate(60.17783950617283 38.75555555555556)"/><path d="M1078.67 246.67c0 38.66-35.82 70-80 70-44.2 0-80-31.34-80-70s35.8-70 80-70c44.18 0 80 31.34 80 70z" stroke="#333" fill="#fff"/><use xlink:href="#r" transform="matrix(1,0,0,1,923.6666666666667,181.66666666666666) translate(20.11604938271605 70.23472222222223)"/><path d="M728.7 271.86l-8.35 3.88-9.74 5.04-10.06 5.75-10.58 6.65-11.3 7.77-11.87 8.93-.6-.8 11.88-8.94 11.33-7.8 10.62-6.67 10.1-5.77 9.8-5.06 8.8-4.1zm173.1-24.52l-53.22.55-24.4 1.36-17.34 1.73-14.12 2-8.7 1.6v-1l8.54-1.6 14.16-2 17.4-1.73 24.42-1.38 53.24-.56z" stroke="#333" stroke-width=".05" fill="#333"/><path d="M666.8 309.88l-.4.3-.62-.8.42-.3z" fill="#333"/><path d="M666.84 309.88l-.45.34-.66-.83.46-.36zm-1.02-.48l.58.75.37-.28-.58-.76z" stroke="#333" stroke-width=".05" fill="#333"/><path d="M916.55 246.68l-14.22 4.8-.1-9.28z" fill="#333"/><path d="M918.17 246.67l-16.33 5.5-.1-10.66zm-15.35 4.1l12.1-4.07-12.18-3.82z" stroke="#333" stroke-width=".05" fill="#333"/><use xlink:href="#s" transform="matrix(1,0,0,1,728.7087796174774,238.03019212135086) translate(12.627222222222223 17.422222222222224)"/><use xlink:href="#o" transform="matrix(1,0,0,1,728.7087796174774,238.03019212135086) translate(30.128456790123455 38.75555555555556)"/><path d="M866.65 386.03l5.16 3.28 4.7 3.27 4.3 3.25 3.92 3.25 3.6 3.25 3.33 3.25 3.07 3.27 2.84 3.28 2.63 3.32 2.42 3.35 2.26 3.4 2.1 3.44 1.93 3.52 1.8 3.6 1.64 3.7 1.5 3.78 1.36 3.92 1.22 4.05 1.08 4.22.94 4.38.77 4.6.23 1.7-1 .13-.2-1.7-.78-4.54-.92-4.35-1.07-4.17-1.2-4-1.36-3.9-1.48-3.74-1.63-3.65-1.78-3.57-1.9-3.5-2.08-3.4-2.24-3.37-2.4-3.32-2.6-3.28-2.82-3.25-3.04-3.23-3.3-3.22-3.57-3.22-3.9-3.22-4.25-3.22-4.66-3.24-5.13-3.25-5.67-3.28-1.25-.66h1.9v-.13zM713 350.16l14.08.87v1l-14.13-.87-31.96-.65v-1z" stroke="#333" stroke-width=".05" fill="#333"/><path d="M681.03 349.5l-.02 1h-.52l.02-.5v-.5z" fill="#333"/><path d="M681.05 349.5l-.02 1.04-.57-.02.02-.5v-.55zm-.52.5l-.02.48h.48l.02-.95h-.48z" stroke="#333" stroke-width=".05" fill="#333"/><path d="M919.9 477.9l-5.56-13.95 9.25-.6z" fill="#333"/><path d="M920 479.5l-6.38-16 10.62-.7zm-4.94-15.1l4.73 11.87 3.13-12.38z" stroke="#333" stroke-width=".05" fill="#333"/><use xlink:href="#t" transform="matrix(1,0,0,1,727.0762171925012,337.0964194430092) translate(12.62722222222223 17.422222222222224)"/><use xlink:href="#u" transform="matrix(1,0,0,1,727.0762171925012,337.0964194430092) translate(84.57783950617286 17.422222222222224)"/><use xlink:href="#o" transform="matrix(1,0,0,1,727.0762171925012,337.0964194430092) translate(69.48648148148149 38.75555555555556)"/><path d="M1013.2 427.13l.36 6.95.06 5.82-.16 5.1-.34 4.56-.5 4.16-.6 3.86-.73 3.62-.86 3.43-.95 3.28-1.08 3.16-1.17 3.06-1.3 2.98-1.42 2.93-1.55 2.9-1.7 2.86-1.86 2.85-2.05 2.87-2.25 2.9-2.5 2.93-2.74 3-3.07 3.06-3.06 2.82-.67-.74 3.05-2.8 3.04-3.03 2.73-2.96 2.44-2.9 2.23-2.87 2.02-2.84 1.83-2.84 1.68-2.83 1.54-2.86 1.4-2.9 1.28-2.93 1.16-3.02 1.05-3.1.95-3.25.83-3.4.74-3.56.6-3.8.48-4.14.34-4.52.16-5.05-.06-5.8-.36-6.9-.6-6.18h1.02zm-13.4-93.3l1.13 12 4.75 29.32h-1l-4.75-29.18-1.14-12.06-.02-.34 1-.05z" stroke="#333" stroke-width=".05" fill="#333"/><path d="M983.75 506.2l-.38.37-.67-.75.38-.34z" fill="#333"/><path d="M983.8 506.2l-.43.4-.7-.78.4-.38zm-1.06-.38l.63.7.35-.3-.65-.7z" stroke="#333" stroke-width=".05" fill="#333"/><path d="M1003.9 332.87l-9.27.34 4.1-14.42z" fill="#333"/><path d="M1004.6 333.34l-10.64.4 4.7-16.57zm-9.3-.65l7.88-.3-4.4-12z" stroke="#333" stroke-width=".05" fill="#333"/><use xlink:href="#s" transform="matrix(1,0,0,1,981.2474276214037,375.15396734793256) translate(12.627222222222223 17.422222222222224)"/><use xlink:href="#o" transform="matrix(1,0,0,1,981.2474276214037,375.15396734793256) translate(30.128456790123455 38.75555555555556)"/><path d="M877.3 696.78l-1.03 2.33-1.07 2.14-1.12 1.98-1.17 1.87-1.22 1.76-1.3 1.7-1.4 1.62-1.46 1.58-.4.38-.7-.7.38-.38 1.44-1.54 1.36-1.6 1.27-1.65 1.2-1.73 1.15-1.83 1.1-1.93 1.05-2.1.97-2.18h1.08zm14.82-80.1l-1.4 4.13-1.42 5.1-1.34 5.78-1.3 7.07-1.37 10.5-.16 1.37h-1l.16-1.5 1.38-10.52 1.3-7.12 1.35-5.84 1.45-5.12 1.4-4.16z" stroke="#333" stroke-width=".05" fill="#333"/><path d="M892.14 616.16l.14.04-.17.5-.94-.33.17-.5z" fill="#333"/><path d="M892.14 616.14l.17.05-.17.52-1-.33.2-.56zm-.94.22l.9.3.14-.44-.1-.03-.8-.3z" stroke="#333" stroke-width=".05" fill="#333"/><path d="M869.12 715.8l-14.3 4.55 8.9-12.08z" fill="#333"/><path d="M869.93 716.07l-16.42 5.22 10.23-13.88zm-13.8 3.33l12.18-3.86-4.58-6.42z" stroke="#333" stroke-width=".05" fill="#333"/><g><use xlink:href="#v" transform="matrix(1,0,0,1,839.2220851992702,650.6188281119121) translate(12.627222222222223 17.422222222222224)"/><use xlink:href="#o" transform="matrix(1,0,0,1,839.2220851992702,650.6188281119121) translate(45.4124074074074 38.75555555555556)"/></g><path d="M634.67 515.06l6.52 7.87 8.8 9.75 15.74 15.98 40 39.52 9.7 10.74 7.36 8.9 6.05 7.96 5.16 7.42 4.5 7.08 4 6.9 3.53 6.76 3.18 6.75 2.86 6.77 2.55 6.86.56 1.7-.95.3-.54-1.67-2.53-6.83-2.84-6.73-3.16-6.7-3.53-6.75-3.94-6.85-4.48-7.05-5.14-7.38-6.02-7.93-7.35-8.87-9.65-10.7-40-39.5-15.75-16-8.83-9.78-6.55-7.92-4.8-6.3h1.26zm-34.03-87.6l.42 6.57.65 6.25.9 6 1.1 5.8 1.32 5.6 1.53 5.5.1.33h-1.04v-.03l-1.55-5.54-1.33-5.66-1.1-5.82-.9-6.04-.66-6.3-.4-6.6-.15-6.5h1z" stroke="#333" stroke-width=".05" fill="#333"/><path d="M600 420.5h.5v.5l-1 .03v-.55z" fill="#333"/><path d="M600 420.48h.52l.02.55-1.05.02-.03-.6zm-.46.52l.95-.02-.02-.46h-.95z" stroke="#333" stroke-width=".05" fill="#333"/><path d="M758.77 680.36l-8.4-12.42 8.9-2.57z" fill="#333"/><path d="M759.2 681.92l-9.63-14.27 10.23-2.95zm-8.04-13.7l7.16 10.6.43-12.78z" stroke="#333" stroke-width=".05" fill="#333"/><g><use xlink:href="#q" transform="matrix(1,0,0,1,567.5659593226089,463.5116867538561) translate(12.627222222222215 17.422222222222224)"/><use xlink:href="#o" transform="matrix(1,0,0,1,567.5659593226089,463.5116867538561) translate(50.35067901234568 38.75555555555556)"/></g><path d="M593.56 609.22l-14.43.9-18.12.37v-1l18.1-.38 14.46-.9zm229.57-58.4l-2.22.06-15.74.98-13.73 1.44-12.28 1.8-11.3 2.16-10.75 2.52-10.62 2.97-11.2 3.64-45.97 18.73v-1.08l45.65-18.6 11.24-3.66 10.66-3 10.78-2.52 11.34-2.16 12.33-1.8 13.77-1.46 15.8-.98 2.24-.05z" stroke="#333" stroke-width=".05" fill="#333"/><path d="M561.03 610.5h-.55l.02-.5v-.5h.5z" fill="#333"/><path d="M561.05 610.5l-.6.03.03-.52v-.52l.55-.02zm-.53-.98v.95h.48l-.02-.95z" stroke="#333" stroke-width=".05" fill="#333"/><path d="M837.88 550.03l-14.17 4.93-.17-9.27z" fill="#333"/><path d="M839.5 550l-16.27 5.66L823 545zm-15.3 4.26l12.06-4.2-12.22-3.7z" stroke="#333" stroke-width=".05" fill="#333"/><g><use xlink:href="#q" transform="matrix(1,0,0,1,593.5619035995704,578.1418244017907) translate(12.627222222222215 17.422222222222224)"/><use xlink:href="#o" transform="matrix(1,0,0,1,593.5619035995704,578.1418244017907) translate(50.35067901234568 38.75555555555556)"/></g><defs><path fill="#333" d="M30 0v-248h187v28H63v79h144v27H63v87h162V0H30" id="w"/><path fill="#333" d="M117-194c89-4 53 116 60 194h-32v-121c0-31-8-49-39-48C34-167 62-67 57 0H25l-1-190h30c1 10-1 24 2 32 11-22 29-35 61-36" id="x"/><path fill="#333" d="M59-47c-2 24 18 29 38 22v24C64 9 27 4 27-40v-127H5v-23h24l9-43h21v43h35v23H59v120" id="y"/><path fill="#333" d="M24-231v-30h32v30H24zM24 0v-190h32V0H24" id="z"/><path fill="#333" d="M100-194c63 0 86 42 84 106H49c0 40 14 67 53 68 26 1 43-12 49-29l28 8c-11 28-37 45-77 45C44 4 14-33 15-96c1-61 26-98 85-98zm52 81c6-60-76-77-97-28-3 7-6 17-6 28h103" id="A"/><path fill="#333" d="M135-143c-3-34-86-38-87 0 15 53 115 12 119 90S17 21 10-45l28-5c4 36 97 45 98 0-10-56-113-15-118-90-4-57 82-63 122-42 12 7 21 19 24 35" id="B"/><g id="a"><use transform="matrix(0.04938271604938272,0,0,0.04938271604938272,0,0)" xlink:href="#w"/><use transform="matrix(0.04938271604938272,0,0,0.04938271604938272,11.851851851851853,0)" xlink:href="#x"/><use transform="matrix(0.04938271604938272,0,0,0.04938271604938272,21.7283950617284,0)" xlink:href="#y"/><use transform="matrix(0.04938271604938272,0,0,0.04938271604938272,26.666666666666668,0)" xlink:href="#z"/><use transform="matrix(0.04938271604938272,0,0,0.04938271604938272,30.567901234567906,0)" xlink:href="#y"/><use transform="matrix(0.04938271604938272,0,0,0.04938271604938272,35.50617283950618,0)" xlink:href="#z"/><use transform="matrix(0.04938271604938272,0,0,0.04938271604938272,39.40740740740741,0)" xlink:href="#A"/><use transform="matrix(0.04938271604938272,0,0,0.04938271604938272,49.283950617283956,0)" xlink:href="#B"/></g><path fill="#333" d="M137 0h-34L2-248h35l83 218 83-218h36" id="C"/><path fill="#333" d="M141-36C126-15 110 5 73 4 37 3 15-17 15-53c-1-64 63-63 125-63 3-35-9-54-41-54-24 1-41 7-42 31l-33-3c5-37 33-52 76-52 45 0 72 20 72 64v82c-1 20 7 32 28 27v20c-31 9-61-2-59-35zM48-53c0 20 12 33 32 33 41-3 63-29 60-74-43 2-92-5-92 41" id="D"/><path fill="#333" d="M24 0v-261h32V0H24" id="E"/><path fill="#333" d="M84 4C-5 8 30-112 23-190h32v120c0 31 7 50 39 49 72-2 45-101 50-169h31l1 190h-30c-1-10 1-25-2-33-11 22-28 36-60 37" id="F"/><g id="b"><use transform="matrix(0.04938271604938272,0,0,0.04938271604938272,0,0)" xlink:href="#C"/><use transform="matrix(0.04938271604938272,0,0,0.04938271604938272,10.518518518518519,0)" xlink:href="#D"/><use transform="matrix(0.04938271604938272,0,0,0.04938271604938272,20.395061728395063,0)" xlink:href="#E"/><use transform="matrix(0.04938271604938272,0,0,0.04938271604938272,24.296296296296298,0)" xlink:href="#F"/><use transform="matrix(0.04938271604938272,0,0,0.04938271604938272,34.17283950617284,0)" xlink:href="#A"/></g><path fill="#333" d="M140-251c81 0 123 46 123 126C263-46 219 4 140 4 59 4 17-45 17-125s42-126 123-126zm0 227c63 0 89-41 89-101s-29-99-89-99c-61 0-89 39-89 99S79-25 140-24" id="G"/><path fill="#333" d="M115-194c53 0 69 39 70 98 0 66-23 100-70 100C84 3 66-7 56-30L54 0H23l1-261h32v101c10-23 28-34 59-34zm-8 174c40 0 45-34 45-75 0-40-5-75-45-74-42 0-51 32-51 76 0 43 10 73 51 73" id="H"/><path fill="#333" d="M24-231v-30h32v30H24zM-9 49c24 4 33-6 33-30v-209h32V24c2 40-23 58-65 49V49" id="I"/><path fill="#333" d="M96-169c-40 0-48 33-48 73s9 75 48 75c24 0 41-14 43-38l32 2c-6 37-31 61-74 61-59 0-76-41-82-99-10-93 101-131 147-64 4 7 5 14 7 22l-32 3c-4-21-16-35-41-35" id="J"/><g id="c"><use transform="matrix(0.04938271604938272,0,0,0.04938271604938272,0,0)" xlink:href="#G"/><use transform="matrix(0.04938271604938272,0,0,0.04938271604938272,13.827160493827162,0)" xlink:href="#H"/><use transform="matrix(0.04938271604938272,0,0,0.04938271604938272,23.703703703703706,0)" xlink:href="#I"/><use transform="matrix(0.04938271604938272,0,0,0.04938271604938272,27.60493827160494,0)" xlink:href="#A"/><use transform="matrix(0.04938271604938272,0,0,0.04938271604938272,37.48148148148148,0)" xlink:href="#J"/><use transform="matrix(0.04938271604938272,0,0,0.04938271604938272,46.37037037037037,0)" xlink:href="#y"/><use transform="matrix(0.04938271604938272,0,0,0.04938271604938272,51.30864197530863,0)" xlink:href="#B"/></g><path fill="#333" d="M240 0l2-218c-23 76-54 145-80 218h-23L58-218 59 0H30v-248h44l77 211c21-75 51-140 76-211h43V0h-30" id="K"/><path fill="#333" d="M100-194c62-1 85 37 85 99 1 63-27 99-86 99S16-35 15-95c0-66 28-99 85-99zM99-20c44 1 53-31 53-75 0-43-8-75-51-75s-53 32-53 75 10 74 51 75" id="L"/><path fill="#333" d="M85-194c31 0 48 13 60 33l-1-100h32l1 261h-30c-2-10 0-23-3-31C134-8 116 4 85 4 32 4 16-35 15-94c0-66 23-100 70-100zm9 24c-40 0-46 34-46 75 0 40 6 74 45 74 42 0 51-32 51-76 0-42-9-74-50-73" id="M"/><g id="d"><use transform="matrix(0.04938271604938272,0,0,0.04938271604938272,0,0)" xlink:href="#K"/><use transform="matrix(0.04938271604938272,0,0,0.04938271604938272,14.765432098765434,0)" xlink:href="#L"/><use transform="matrix(0.04938271604938272,0,0,0.04938271604938272,24.641975308641978,0)" xlink:href="#M"/><use transform="matrix(0.04938271604938272,0,0,0.04938271604938272,34.51851851851852,0)" xlink:href="#A"/><use transform="matrix(0.04938271604938272,0,0,0.04938271604938272,44.39506172839506,0)" xlink:href="#E"/></g><path fill="#333" d="M30-248c118-7 216 8 213 122C240-48 200 0 122 0H30v-248zM63-27c89 8 146-16 146-99s-60-101-146-95v194" id="N"/><path fill="#333" d="M114-163C36-179 61-72 57 0H25l-1-190h30c1 12-1 29 2 39 6-27 23-49 58-41v29" id="O"/><path fill="#333" d="M108 0H70L1-190h34L89-25l56-165h34" id="P"/><g id="e"><use transform="matrix(0.04938271604938272,0,0,0.04938271604938272,0,0)" xlink:href="#N"/><use transform="matrix(0.04938271604938272,0,0,0.04938271604938272,12.790123456790125,0)" xlink:href="#O"/><use transform="matrix(0.04938271604938272,0,0,0.04938271604938272,18.666666666666668,0)" xlink:href="#z"/><use transform="matrix(0.04938271604938272,0,0,0.04938271604938272,22.567901234567902,0)" xlink:href="#P"/><use transform="matrix(0.04938271604938272,0,0,0.04938271604938272,31.45679012345679,0)" xlink:href="#A"/><use transform="matrix(0.04938271604938272,0,0,0.04938271604938272,41.333333333333336,0)" xlink:href="#x"/></g><path fill="#333" d="M177-190C167-65 218 103 67 71c-23-6-38-20-44-43l32-5c15 47 100 32 89-28v-30C133-14 115 1 83 1 29 1 15-40 15-95c0-56 16-97 71-98 29-1 48 16 59 35 1-10 0-23 2-32h30zM94-22c36 0 50-32 50-73 0-42-14-75-50-75-39 0-46 34-46 75s6 73 46 73" id="Q"/><g id="f"><use transform="matrix(0.04938271604938272,0,0,0.04938271604938272,0,0)" xlink:href="#N"/><use transform="matrix(0.04938271604938272,0,0,0.04938271604938272,12.790123456790125,0)" xlink:href="#A"/><use transform="matrix(0.04938271604938272,0,0,0.04938271604938272,22.66666666666667,0)" xlink:href="#B"/><use transform="matrix(0.04938271604938272,0,0,0.04938271604938272,31.555555555555557,0)" xlink:href="#z"/><use transform="matrix(0.04938271604938272,0,0,0.04938271604938272,35.4567901234568,0)" xlink:href="#Q"/><use transform="matrix(0.04938271604938272,0,0,0.04938271604938272,45.33333333333334,0)" xlink:href="#x"/></g><path fill="#333" d="M185-189c-5-48-123-54-124 2 14 75 158 14 163 119 3 78-121 87-175 55-17-10-28-26-33-46l33-7c5 56 141 63 141-1 0-78-155-14-162-118-5-82 145-84 179-34 5 7 8 16 11 25" id="R"/><g id="g"><use transform="matrix(0.04938271604938272,0,0,0.04938271604938272,0,0)" xlink:href="#R"/><use transform="matrix(0.04938271604938272,0,0,0.04938271604938272,11.851851851851853,0)" xlink:href="#A"/><use transform="matrix(0.04938271604938272,0,0,0.04938271604938272,21.7283950617284,0)" xlink:href="#O"/><use transform="matrix(0.04938271604938272,0,0,0.04938271604938272,27.604938271604947,0)" xlink:href="#P"/><use transform="matrix(0.04938271604938272,0,0,0.04938271604938272,36.49382716049384,0)" xlink:href="#z"/><use transform="matrix(0.04938271604938272,0,0,0.04938271604938272,40.39506172839507,0)" xlink:href="#J"/><use transform="matrix(0.04938271604938272,0,0,0.04938271604938272,49.28395061728396,0)" xlink:href="#A"/><use transform="matrix(0.04938271604938272,0,0,0.04938271604938272,59.16049382716051,0)" xlink:href="#B"/></g><path fill="#333" d="M205 0l-28-72H64L36 0H1l101-248h38L239 0h-34zm-38-99l-47-123c-12 45-31 82-46 123h93" id="S"/><g id="h"><use transform="matrix(0.04938271604938272,0,0,0.04938271604938272,0,0)" xlink:href="#S"/><use transform="matrix(0.04938271604938272,0,0,0.04938271604938272,11.851851851851853,0)" xlink:href="#Q"/><use transform="matrix(0.04938271604938272,0,0,0.04938271604938272,21.7283950617284,0)" xlink:href="#Q"/><use transform="matrix(0.04938271604938272,0,0,0.04938271604938272,31.60493827160494,0)" xlink:href="#O"/><use transform="matrix(0.04938271604938272,0,0,0.04938271604938272,37.48148148148149,0)" xlink:href="#A"/><use transform="matrix(0.04938271604938272,0,0,0.04938271604938272,47.35802469135803,0)" xlink:href="#Q"/><use transform="matrix(0.04938271604938272,0,0,0.04938271604938272,57.23456790123457,0)" xlink:href="#D"/><use transform="matrix(0.04938271604938272,0,0,0.04938271604938272,67.11111111111111,0)" xlink:href="#y"/><use transform="matrix(0.04938271604938272,0,0,0.04938271604938272,72.0493827160494,0)" xlink:href="#A"/><use transform="matrix(0.04938271604938272,0,0,0.04938271604938272,81.92592592592594,0)" xlink:href="#B"/></g><g id="i"><use transform="matrix(0.04938271604938272,0,0,0.04938271604938272,0,0)" xlink:href="#D"/><use transform="matrix(0.04938271604938272,0,0,0.04938271604938272,9.876543209876544,0)" xlink:href="#J"/><use transform="matrix(0.04938271604938272,0,0,0.04938271604938272,18.765432098765434,0)" xlink:href="#y"/></g><g id="j"><use transform="matrix(0.04938271604938272,0,0,0.04938271604938272,0,0)" xlink:href="#D"/><use transform="matrix(0.04938271604938272,0,0,0.04938271604938272,9.876543209876544,0)" xlink:href="#B"/></g><g id="k"><use transform="matrix(0.04938271604938272,0,0,0.04938271604938272,0,0)" xlink:href="#O"/><use transform="matrix(0.04938271604938272,0,0,0.04938271604938272,5.8765432098765435,0)" xlink:href="#L"/><use transform="matrix(0.04938271604938272,0,0,0.04938271604938272,15.753086419753087,0)" xlink:href="#L"/><use transform="matrix(0.04938271604938272,0,0,0.04938271604938272,25.629629629629633,0)" xlink:href="#y"/></g><path fill="#333" d="M101-234c-31-9-42 10-38 44h38v23H63V0H32v-167H5v-23h27c-7-52 17-82 69-68v24" id="T"/><g id="l"><use transform="matrix(0.04938271604938272,0,0,0.04938271604938272,0,0)" xlink:href="#L"/><use transform="matrix(0.04938271604938272,0,0,0.04938271604938272,9.876543209876544,0)" xlink:href="#T"/></g><path fill="#333" d="M141 0L90-78 38 0H4l68-98-65-92h35l48 74 47-74h35l-64 92 68 98h-35" id="U"/><path fill="#333" d="M115-194c55 1 70 41 70 98S169 2 115 4C84 4 66-9 55-30l1 105H24l-1-265h31l2 30c10-21 28-34 59-34zm-8 174c40 0 45-34 45-75s-6-73-45-74c-42 0-51 32-51 76 0 43 10 73 51 73" id="V"/><g id="m"><use transform="matrix(0.04938271604938272,0,0,0.04938271604938272,0,0)" xlink:href="#A"/><use transform="matrix(0.04938271604938272,0,0,0.04938271604938272,9.876543209876544,0)" xlink:href="#U"/><use transform="matrix(0.04938271604938272,0,0,0.04938271604938272,18.765432098765434,0)" xlink:href="#V"/><use transform="matrix(0.04938271604938272,0,0,0.04938271604938272,28.641975308641978,0)" xlink:href="#O"/><use transform="matrix(0.04938271604938272,0,0,0.04938271604938272,34.51851851851852,0)" xlink:href="#A"/><use transform="matrix(0.04938271604938272,0,0,0.04938271604938272,44.39506172839506,0)" xlink:href="#B"/><use transform="matrix(0.04938271604938272,0,0,0.04938271604938272,53.28395061728394,0)" xlink:href="#B"/></g><path fill="#333" d="M210-169c-67 3-38 105-44 169h-31v-121c0-29-5-50-35-48C34-165 62-65 56 0H25l-1-190h30c1 10-1 24 2 32 10-44 99-50 107 0 11-21 27-35 58-36 85-2 47 119 55 194h-31v-121c0-29-5-49-35-48" id="W"/><g id="n"><use transform="matrix(0.04938271604938272,0,0,0.04938271604938272,0,0)" xlink:href="#W"/><use transform="matrix(0.04938271604938272,0,0,0.04938271604938272,14.765432098765434,0)" xlink:href="#L"/><use transform="matrix(0.04938271604938272,0,0,0.04938271604938272,24.641975308641978,0)" xlink:href="#M"/><use transform="matrix(0.04938271604938272,0,0,0.04938271604938272,34.51851851851852,0)" xlink:href="#A"/><use transform="matrix(0.04938271604938272,0,0,0.04938271604938272,44.39506172839506,0)" xlink:href="#E"/></g><path fill="#333" d="M206 0h-36l-40-164L89 0H53L-1-190h32L70-26l43-164h34l41 164 42-164h31" id="X"/><path fill="#333" d="M106-169C34-169 62-67 57 0H25v-261h32l-1 103c12-21 28-36 61-36 89 0 53 116 60 194h-32v-121c2-32-8-49-39-48" id="Y"/><g id="o"><use transform="matrix(0.04938271604938272,0,0,0.04938271604938272,0,0)" xlink:href="#X"/><use transform="matrix(0.04938271604938272,0,0,0.04938271604938272,12.790123456790125,0)" xlink:href="#z"/><use transform="matrix(0.04938271604938272,0,0,0.04938271604938272,16.69135802469136,0)" xlink:href="#y"/><use transform="matrix(0.04938271604938272,0,0,0.04938271604938272,21.629629629629633,0)" xlink:href="#Y"/></g><path fill="#333" d="M63-220v92h138v28H63V0H30v-248h175v28H63" id="Z"/><g id="p"><use transform="matrix(0.04938271604938272,0,0,0.04938271604938272,0,0)" xlink:href="#Z"/><use transform="matrix(0.04938271604938272,0,0,0.04938271604938272,10.814814814814815,0)" xlink:href="#D"/><use transform="matrix(0.04938271604938272,0,0,0.04938271604938272,20.69135802469136,0)" xlink:href="#J"/><use transform="matrix(0.04938271604938272,0,0,0.04938271604938272,29.58024691358025,0)" xlink:href="#y"/><use transform="matrix(0.04938271604938272,0,0,0.04938271604938272,34.51851851851852,0)" xlink:href="#L"/><use transform="matrix(0.04938271604938272,0,0,0.04938271604938272,44.39506172839506,0)" xlink:href="#O"/><use transform="matrix(0.04938271604938272,0,0,0.04938271604938272,50.27160493827161,0)" xlink:href="#z"/><use transform="matrix(0.04938271604938272,0,0,0.04938271604938272,54.17283950617284,0)" xlink:href="#A"/><use transform="matrix(0.04938271604938272,0,0,0.04938271604938272,64.0493827160494,0)" xlink:href="#B"/></g><g id="q"><use transform="matrix(0.04938271604938272,0,0,0.04938271604938272,0,0)" xlink:href="#A"/><use transform="matrix(0.04938271604938272,0,0,0.04938271604938272,9.876543209876544,0)" xlink:href="#x"/><use transform="matrix(0.04938271604938272,0,0,0.04938271604938272,19.75308641975309,0)" xlink:href="#J"/><use transform="matrix(0.04938271604938272,0,0,0.04938271604938272,28.641975308641978,0)" xlink:href="#D"/><use transform="matrix(0.04938271604938272,0,0,0.04938271604938272,38.51851851851852,0)" xlink:href="#V"/><use transform="matrix(0.04938271604938272,0,0,0.04938271604938272,48.39506172839506,0)" xlink:href="#B"/><use transform="matrix(0.04938271604938272,0,0,0.04938271604938272,57.28395061728394,0)" xlink:href="#F"/><use transform="matrix(0.04938271604938272,0,0,0.04938271604938272,67.1604938271605,0)" xlink:href="#E"/><use transform="matrix(0.04938271604938272,0,0,0.04938271604938272,71.06172839506173,0)" xlink:href="#D"/><use transform="matrix(0.04938271604938272,0,0,0.04938271604938272,80.93827160493828,0)" xlink:href="#y"/><use transform="matrix(0.04938271604938272,0,0,0.04938271604938272,85.87654320987656,0)" xlink:href="#A"/></g><path fill="#333" d="M233-177c-1 41-23 64-60 70L243 0h-38l-65-103H63V0H30v-248c88 3 205-21 203 71zM63-129c60-2 137 13 137-47 0-61-80-42-137-45v92" id="aa"/><g id="r"><use transform="matrix(0.04938271604938272,0,0,0.04938271604938272,0,0)" xlink:href="#aa"/><use transform="matrix(0.04938271604938272,0,0,0.04938271604938272,12.790123456790125,0)" xlink:href="#A"/><use transform="matrix(0.04938271604938272,0,0,0.04938271604938272,22.66666666666667,0)" xlink:href="#V"/><use transform="matrix(0.04938271604938272,0,0,0.04938271604938272,32.543209876543216,0)" xlink:href="#L"/><use transform="matrix(0.04938271604938272,0,0,0.04938271604938272,42.41975308641976,0)" xlink:href="#B"/><use transform="matrix(0.04938271604938272,0,0,0.04938271604938272,51.308641975308646,0)" xlink:href="#z"/><use transform="matrix(0.04938271604938272,0,0,0.04938271604938272,55.20987654320988,0)" xlink:href="#y"/><use transform="matrix(0.04938271604938272,0,0,0.04938271604938272,60.14814814814815,0)" xlink:href="#L"/><use transform="matrix(0.04938271604938272,0,0,0.04938271604938272,70.0246913580247,0)" xlink:href="#O"/><use transform="matrix(0.04938271604938272,0,0,0.04938271604938272,75.90123456790124,0)" xlink:href="#z"/><use transform="matrix(0.04938271604938272,0,0,0.04938271604938272,79.80246913580248,0)" xlink:href="#A"/><use transform="matrix(0.04938271604938272,0,0,0.04938271604938272,89.67901234567903,0)" xlink:href="#B"/></g><g id="s"><use transform="matrix(0.04938271604938272,0,0,0.04938271604938272,0,0)" xlink:href="#D"/><use transform="matrix(0.04938271604938272,0,0,0.04938271604938272,9.876543209876544,0)" xlink:href="#J"/><use transform="matrix(0.04938271604938272,0,0,0.04938271604938272,18.765432098765434,0)" xlink:href="#J"/><use transform="matrix(0.04938271604938272,0,0,0.04938271604938272,27.654320987654323,0)" xlink:href="#A"/><use transform="matrix(0.04938271604938272,0,0,0.04938271604938272,37.53086419753087,0)" xlink:href="#B"/><use transform="matrix(0.04938271604938272,0,0,0.04938271604938272,46.41975308641976,0)" xlink:href="#B"/></g><g id="t"><use transform="matrix(0.04938271604938272,0,0,0.04938271604938272,0,0)" xlink:href="#W"/><use transform="matrix(0.04938271604938272,0,0,0.04938271604938272,14.765432098765434,0)" xlink:href="#D"/><use transform="matrix(0.04938271604938272,0,0,0.04938271604938272,24.641975308641978,0)" xlink:href="#z"/><use transform="matrix(0.04938271604938272,0,0,0.04938271604938272,28.543209876543212,0)" xlink:href="#x"/><use transform="matrix(0.04938271604938272,0,0,0.04938271604938272,38.41975308641976,0)" xlink:href="#y"/><use transform="matrix(0.04938271604938272,0,0,0.04938271604938272,43.35802469135803,0)" xlink:href="#D"/><use transform="matrix(0.04938271604938272,0,0,0.04938271604938272,53.23456790123457,0)" xlink:href="#z"/><use transform="matrix(0.04938271604938272,0,0,0.04938271604938272,57.135802469135804,0)" xlink:href="#x"/></g><path fill="#333" d="M179-190L93 31C79 59 56 82 12 73V49c39 6 53-20 64-50L1-190h34L92-34l54-156h33" id="ab"/><g id="u"><use transform="matrix(0.04938271604938272,0,0,0.04938271604938272,0,0)" xlink:href="#z"/><use transform="matrix(0.04938271604938272,0,0,0.04938271604938272,3.901234567901235,0)" xlink:href="#x"/><use transform="matrix(0.04938271604938272,0,0,0.04938271604938272,13.777777777777779,0)" xlink:href="#y"/><use transform="matrix(0.04938271604938272,0,0,0.04938271604938272,18.71604938271605,0)" xlink:href="#A"/><use transform="matrix(0.04938271604938272,0,0,0.04938271604938272,28.592592592592595,0)" xlink:href="#Q"/><use transform="matrix(0.04938271604938272,0,0,0.04938271604938272,38.46913580246914,0)" xlink:href="#O"/><use transform="matrix(0.04938271604938272,0,0,0.04938271604938272,44.345679012345684,0)" xlink:href="#z"/><use transform="matrix(0.04938271604938272,0,0,0.04938271604938272,48.24691358024692,0)" xlink:href="#y"/><use transform="matrix(0.04938271604938272,0,0,0.04938271604938272,53.18518518518519,0)" xlink:href="#ab"/></g><g id="v"><use transform="matrix(0.04938271604938272,0,0,0.04938271604938272,0,0)" xlink:href="#A"/><use transform="matrix(0.04938271604938272,0,0,0.04938271604938272,9.876543209876544,0)" xlink:href="#x"/><use transform="matrix(0.04938271604938272,0,0,0.04938271604938272,19.75308641975309,0)" xlink:href="#J"/><use transform="matrix(0.04938271604938272,0,0,0.04938271604938272,28.641975308641978,0)" xlink:href="#D"/><use transform="matrix(0.04938271604938272,0,0,0.04938271604938272,38.51851851851852,0)" xlink:href="#B"/><use transform="matrix(0.04938271604938272,0,0,0.04938271604938272,47.407407407407405,0)" xlink:href="#F"/><use transform="matrix(0.04938271604938272,0,0,0.04938271604938272,57.28395061728394,0)" xlink:href="#E"/><use transform="matrix(0.04938271604938272,0,0,0.04938271604938272,61.185185185185176,0)" xlink:href="#D"/><use transform="matrix(0.04938271604938272,0,0,0.04938271604938272,71.06172839506172,0)" xlink:href="#y"/><use transform="matrix(0.04938271604938272,0,0,0.04938271604938272,76,0)" xlink:href="#A"/></g></defs></g></svg>