<svg width="2000px" height="1365px"
 viewBox="0.00 0.00 992.13 676.91" xmlns="http://www.w3.org/2000/svg" xmlns:xlink="http://www.w3.org/1999/xlink">
<g id="graph0" class="graph" transform="scale(1.0 1.0) rotate(0) translate(4 672.91)">
<title>ContextMapGraph</title>
<polygon fill="white" stroke="transparent" points="-4,4 -4,-672.91 988.13,-672.91 988.13,4 -4,4"/>
<!-- AdministrationContext -->
<g id="node1" class="node">
<title>AdministrationContext</title>
<polygon fill="none" stroke="black" stroke-width="2" points="420,-625.23 419.23,-628.1 418.08,-630.94 416.55,-633.75 414.64,-636.49 412.37,-639.18 409.73,-641.79 406.74,-644.31 403.4,-646.75 399.72,-649.08 395.71,-651.29 391.38,-653.39 386.75,-655.36 381.83,-657.2 376.62,-658.9 371.15,-660.46 365.44,-661.88 359.48,-663.14 353.31,-664.25 346.94,-665.21 340.38,-666.02 333.65,-666.67 326.78,-667.17 319.78,-667.52 312.68,-667.71 305.48,-667.77 298.21,-667.68 290.89,-667.45 283.54,-667.09 276.18,-666.6 268.83,-665.99 261.51,-665.26 254.24,-664.42 247.04,-663.47 239.93,-662.43 232.93,-661.29 226.06,-660.06 219.34,-658.75 212.78,-657.37 206.41,-655.93 200.24,-654.42 194.28,-652.85 188.56,-651.23 183.09,-649.57 177.89,-647.87 172.97,-646.13 168.33,-644.37 164.01,-642.57 160,-640.75 156.32,-638.91 152.98,-637.05 149.99,-635.18 147.35,-633.3 145.07,-631.4 143.17,-629.5 141.64,-627.6 140.49,-625.68 139.72,-623.77 139.33,-621.85 139.33,-619.93 139.72,-618.02 140.49,-616.1 141.64,-614.19 143.17,-612.28 145.07,-610.38 147.35,-608.49 149.99,-606.6 152.98,-604.73 156.32,-602.88 160,-601.04 164.01,-599.22 168.33,-597.42 172.97,-595.65 177.89,-593.91 183.09,-592.21 188.56,-590.55 194.28,-588.93 200.24,-587.37 206.41,-585.86 212.78,-584.41 219.34,-583.03 226.06,-581.72 232.93,-580.5 239.93,-579.36 247.04,-578.31 254.24,-577.37 261.51,-576.52 268.83,-575.79 276.18,-575.18 283.54,-574.69 290.89,-574.33 298.21,-574.11 305.48,-574.02 312.68,-574.07 319.78,-574.27 326.78,-574.62 333.65,-575.12 340.38,-575.77 346.94,-576.57 353.31,-577.53 359.48,-578.64 365.44,-579.91 371.15,-581.32 376.62,-582.88 381.83,-584.58 386.75,-586.42 391.38,-588.39 395.71,-590.49 399.72,-592.71 403.4,-595.04 406.74,-597.47 409.73,-600 412.37,-602.61 414.64,-605.29 416.55,-608.04 418.08,-610.84 419.23,-613.68 420,-616.55 420.38,-619.44 420.38,-622.34 420,-625.23"/>
<text text-anchor="middle" x="279.86" y="-617.09" font-family="sans-serif" font-size="16.00">AdministrationContext</text>
</g>
<!-- CustomerContext -->
<g id="node2" class="node">
<title>CustomerContext</title>
<polygon fill="none" stroke="black" stroke-width="2" points="151.75,-519.74 144.62,-518.72 137.64,-517.6 130.86,-516.38 124.29,-515.06 117.98,-513.65 111.93,-512.15 106.18,-510.57 100.76,-508.91 95.67,-507.18 90.94,-505.37 86.58,-503.51 82.62,-501.59 79.06,-499.62 75.92,-497.6 73.2,-495.55 70.9,-493.45 69.05,-491.33 67.63,-489.19 66.64,-487.03 66.09,-484.85 65.97,-482.67 66.27,-480.48 66.99,-478.3 68.11,-476.12 69.62,-473.96 71.5,-471.82 73.76,-469.7 76.36,-467.6 79.28,-465.54 82.52,-463.51 86.06,-461.53 89.86,-459.59 93.92,-457.7 98.21,-455.87 102.72,-454.09 107.41,-452.38 112.28,-450.73 117.29,-449.15 122.44,-447.64 127.69,-446.22 133.04,-444.87 138.47,-443.6 143.95,-442.42 149.47,-441.34 155.03,-440.34 160.59,-439.44 166.15,-438.64 171.7,-437.95 177.23,-437.35 182.73,-436.86 188.18,-436.48 193.58,-436.21 198.92,-436.04 204.2,-436 209.4,-436.06 214.54,-436.24 219.59,-436.53 224.56,-436.94 229.45,-437.46 234.24,-438.1 238.94,-438.86 243.55,-439.72 248.06,-440.7 252.46,-441.79 256.77,-442.98 260.96,-444.28 265.04,-445.69 269.01,-447.19 272.85,-448.79 276.57,-450.48 280.15,-452.26 283.6,-454.13 286.89,-456.07 290.04,-458.09 293.02,-460.17 295.83,-462.32 298.45,-464.52 300.89,-466.78 303.12,-469.07 305.13,-471.41 306.92,-473.77 308.47,-476.15 309.77,-478.55 310.81,-480.96 311.57,-483.36 312.06,-485.76 312.24,-488.14 312.12,-490.5 311.68,-492.83 310.92,-495.12 309.82,-497.37 308.38,-499.56 306.6,-501.69 304.47,-503.76 301.98,-505.75 299.13,-507.66 295.94,-509.49 292.39,-511.23 288.49,-512.87 284.24,-514.4 279.66,-515.84 274.76,-517.16 269.53,-518.36 264.01,-519.45 258.2,-520.42 252.11,-521.26 245.78,-521.98 239.22,-522.57 232.44,-523.03 225.49,-523.36 218.37,-523.56 211.12,-523.64 203.76,-523.58 196.33,-523.4 188.84,-523.09 181.34,-522.66 173.85,-522.1 166.4,-521.43 159.03,-520.64 151.75,-519.74"/>
<text text-anchor="middle" x="194.86" y="-475.32" font-family="sans-serif" font-size="16.00">CustomerContext</text>
</g>
<!-- FulfillmentContext -->
<g id="node3" class="node">
<title>FulfillmentContext</title>
<polygon fill="none" stroke="black" stroke-width="2" points="252.5,-380.59 244.67,-381.05 236.84,-381.38 229.05,-381.6 221.31,-381.68 213.67,-381.64 206.15,-381.47 198.79,-381.17 191.6,-380.75 184.61,-380.19 177.86,-379.51 171.35,-378.71 165.12,-377.78 159.19,-376.73 153.56,-375.56 148.26,-374.28 143.29,-372.89 138.68,-371.39 134.42,-369.79 130.53,-368.09 127.02,-366.29 123.87,-364.41 121.11,-362.45 118.72,-360.41 116.71,-358.31 115.06,-356.14 113.78,-353.91 112.86,-351.64 112.29,-349.33 112.06,-346.98 112.17,-344.6 112.59,-342.21 113.32,-339.8 114.35,-337.39 115.66,-334.98 117.24,-332.59 119.08,-330.21 121.17,-327.85 123.48,-325.53 126.02,-323.25 128.76,-321.02 131.7,-318.83 134.82,-316.71 138.12,-314.65 141.58,-312.66 145.19,-310.75 148.95,-308.92 152.84,-307.18 156.86,-305.52 161,-303.96 165.27,-302.5 169.64,-301.14 174.12,-299.89 178.7,-298.74 183.37,-297.71 188.15,-296.78 193.01,-295.97 197.96,-295.28 203,-294.7 208.12,-294.24 213.32,-293.89 218.59,-293.66 223.94,-293.55 229.35,-293.55 234.82,-293.67 240.35,-293.9 245.93,-294.25 251.55,-294.7 257.2,-295.27 262.88,-295.94 268.57,-296.72 274.27,-297.59 279.96,-298.57 285.62,-299.65 291.25,-300.81 296.83,-302.07 302.33,-303.41 307.75,-304.84 313.07,-306.35 318.27,-307.93 323.32,-309.58 328.21,-311.31 332.91,-313.09 337.41,-314.94 341.69,-316.84 345.72,-318.8 349.48,-320.8 352.95,-322.84 356.12,-324.92 358.96,-327.03 361.45,-329.17 363.59,-331.34 365.34,-333.52 366.7,-335.71 367.64,-337.92 368.17,-340.12 368.27,-342.32 367.94,-344.52 367.15,-346.7 365.92,-348.86 364.24,-351 362.11,-353.11 359.53,-355.19 356.51,-357.22 353.05,-359.21 349.17,-361.15 344.87,-363.03 340.17,-364.84 335.08,-366.59 329.63,-368.27 323.84,-369.87 317.72,-371.39 311.3,-372.82 304.61,-374.15 297.67,-375.39 290.51,-376.53 283.16,-377.57 275.66,-378.49 268.02,-379.31 260.29,-380.01 252.5,-380.59"/>
<text text-anchor="middle" x="234.86" y="-333.26" font-family="sans-serif" font-size="16.00">FulfillmentContext</text>
</g>
<!-- CustomerContext&#45;&gt;FulfillmentContext -->
<g id="edge1" class="edge">
<title>CustomerContext&#45;&gt;FulfillmentContext</title>
<path fill="none" stroke="black" stroke-width="2" d="M191.59,-436.04C191.79,-425.23 192.92,-413.73 195.86,-403.36 197.95,-395.99 201.09,-388.61 204.7,-381.6"/>
<text text-anchor="middle" x="271.36" y="-406.76" font-family="sans-serif" font-size="12.00"> &#160;&#160;&#160;&#160;&#160;&#160;&#160;&#160;&#160;&#160;&#160;&#160;&#160;&#160;&#160;&#160;&#160;&#160;&#160;&#160;&#160;&#160;&#160;&#160;&#160;&#160;&#160;&#160;&#160;&#160;&#160;&#160;&#160;&#160;&#160;&#160;&#160;&#160;&#160;</text>
<polygon fill="white" stroke="transparent" points="198.7,-372.6 198.7,-389.6 211.7,-389.6 211.7,-372.6 198.7,-372.6"/>
<text text-anchor="start" x="200.7" y="-378" font-family="sans-serif" font-size="12.00">D</text>
<polygon fill="white" stroke="transparent" points="158.59,-426.04 158.59,-445.04 173.59,-445.04 173.59,-426.04 158.59,-426.04"/>
<polyline fill="none" stroke="black" points="173.59,-426.04 173.59,-445.04 "/>
<text text-anchor="start" x="161.59" y="-432.44" font-family="sans-serif" font-size="12.00">U</text>
<polygon fill="white" stroke="transparent" points="173.59,-426.04 173.59,-445.04 224.59,-445.04 224.59,-426.04 173.59,-426.04"/>
<polygon fill="none" stroke="black" points="173.59,-426.04 173.59,-445.04 224.59,-445.04 224.59,-426.04 173.59,-426.04"/>
<text text-anchor="start" x="176.59" y="-432.44" font-family="sans-serif" font-size="12.00">OHS, PL</text>
</g>
<!-- OrderContext -->
<g id="node4" class="node">
<title>OrderContext</title>
<polygon fill="none" stroke="black" stroke-width="2" points="557.09,-157.88 562.26,-159.57 567.24,-161.33 572,-163.18 576.54,-165.11 580.81,-167.09 584.82,-169.14 588.54,-171.24 591.96,-173.39 595.06,-175.57 597.84,-177.78 600.27,-180.02 602.36,-182.27 604.09,-184.53 605.46,-186.8 606.46,-189.07 607.1,-191.33 607.37,-193.57 607.28,-195.8 606.82,-198 606.01,-200.17 604.85,-202.3 603.34,-204.4 601.5,-206.45 599.34,-208.46 596.88,-210.41 594.11,-212.32 591.07,-214.16 587.77,-215.94 584.21,-217.66 580.43,-219.32 576.43,-220.9 572.24,-222.42 567.88,-223.86 563.36,-225.22 558.7,-226.51 553.93,-227.72 549.05,-228.85 544.09,-229.9 539.07,-230.86 534.01,-231.74 528.92,-232.53 523.81,-233.23 518.71,-233.84 513.62,-234.36 508.57,-234.79 503.57,-235.12 498.62,-235.36 493.74,-235.5 488.94,-235.54 484.22,-235.48 479.61,-235.32 475.09,-235.06 470.69,-234.69 466.41,-234.23 462.25,-233.66 458.21,-232.98 454.3,-232.2 450.53,-231.32 446.9,-230.34 443.4,-229.25 440.04,-228.06 436.83,-226.77 433.76,-225.38 430.83,-223.89 428.05,-222.31 425.42,-220.64 422.94,-218.87 420.61,-217.02 418.44,-215.09 416.42,-213.08 414.56,-211 412.86,-208.85 411.32,-206.64 409.95,-204.37 408.75,-202.05 407.73,-199.69 406.89,-197.29 406.23,-194.86 405.75,-192.41 405.48,-189.95 405.4,-187.48 405.53,-185 405.87,-182.54 406.42,-180.1 407.19,-177.69 408.19,-175.31 409.42,-172.97 410.88,-170.69 412.58,-168.47 414.52,-166.31 416.7,-164.24 419.13,-162.24 421.8,-160.34 424.71,-158.54 427.87,-156.85 431.27,-155.26 434.9,-153.8 438.77,-152.45 442.86,-151.24 447.17,-150.16 451.69,-149.21 456.41,-148.41 461.32,-147.74 466.4,-147.22 471.65,-146.85 477.04,-146.62 482.56,-146.54 488.2,-146.61 493.92,-146.82 499.73,-147.17 505.59,-147.67 511.48,-148.3 517.38,-149.07 523.27,-149.98 529.12,-151 534.92,-152.16 540.64,-153.43 546.26,-154.81 551.75,-156.3 557.09,-157.88"/>
<text text-anchor="middle" x="498.86" y="-189.39" font-family="sans-serif" font-size="16.00">OrderContext</text>
</g>
<!-- FulfillmentContext&#45;&gt;OrderContext -->
<g id="edge2" class="edge">
<title>FulfillmentContext&#45;&gt;OrderContext</title>
<path fill="none" stroke="black" stroke-width="2" d="M239.74,-293.63C243.19,-280.61 249.02,-267.23 258.86,-257.77 298.15,-219.96 357.21,-203.99 406.91,-197.51"/>
<text text-anchor="middle" x="334.36" y="-261.17" font-family="sans-serif" font-size="12.00"> &#160;&#160;&#160;&#160;&#160;&#160;&#160;&#160;&#160;&#160;&#160;&#160;&#160;&#160;&#160;&#160;&#160;&#160;&#160;&#160;&#160;&#160;&#160;&#160;&#160;&#160;&#160;&#160;&#160;&#160;&#160;&#160;&#160;&#160;&#160;&#160;&#160;&#160;&#160;</text>
<polygon fill="white" stroke="transparent" points="400.91,-188.51 400.91,-205.51 413.91,-205.51 413.91,-188.51 400.91,-188.51"/>
<text text-anchor="start" x="402.91" y="-193.91" font-family="sans-serif" font-size="12.00">D</text>
<polygon fill="white" stroke="transparent" points="216.74,-283.63 216.74,-302.63 231.74,-302.63 231.74,-283.63 216.74,-283.63"/>
<polyline fill="none" stroke="black" points="231.74,-283.63 231.74,-302.63 "/>
<text text-anchor="start" x="219.74" y="-290.03" font-family="sans-serif" font-size="12.00">U</text>
<polygon fill="white" stroke="transparent" points="231.74,-283.63 231.74,-302.63 262.74,-302.63 262.74,-283.63 231.74,-283.63"/>
<polygon fill="none" stroke="black" points="231.74,-283.63 231.74,-302.63 262.74,-302.63 262.74,-283.63 231.74,-283.63"/>
<text text-anchor="start" x="234.74" y="-290.03" font-family="sans-serif" font-size="12.00">OHS</text>
</g>
<!-- FulfillmentContext&#45;&gt;OrderContext -->
<g id="edge3" class="edge">
<title>FulfillmentContext&#45;&gt;OrderContext</title>
<path fill="none" stroke="black" stroke-width="2" d="M323.98,-309.67C352.4,-299.47 383.34,-286.44 409.86,-270.77 427.41,-260.39 444.83,-246.44 459.54,-233.29"/>
<text text-anchor="middle" x="464.86" y="-261.17" font-family="sans-serif" font-size="12.00">Shared Kernel</text>
</g>
<!-- OrderContext&#45;&gt;CustomerContext -->
<g id="edge5" class="edge">
<title>OrderContext&#45;&gt;CustomerContext</title>
<path fill="none" stroke="black" stroke-width="2" d="M407.28,-198.81C281.98,-207.27 67.07,-230.13 18.86,-288.77 -8.41,-321.93 -3.32,-348.6 18.86,-385.36 38.13,-417.3 72.47,-438.8 105.72,-452.98"/>
<text text-anchor="middle" x="55.86" y="-333.96" font-family="sans-serif" font-size="12.00">Shared Kernel</text>
</g>
<!-- ReportingContext -->
<g id="node5" class="node">
<title>ReportingContext</title>
<polygon fill="none" stroke="black" stroke-width="2" points="602.06,-69.79 598.48,-72.31 594.63,-74.77 590.54,-77.14 586.21,-79.42 581.67,-81.6 576.92,-83.66 571.99,-85.6 566.89,-87.42 561.63,-89.1 556.24,-90.64 550.73,-92.03 545.12,-93.27 539.42,-94.35 533.64,-95.27 527.81,-96.03 521.95,-96.63 516.05,-97.06 510.15,-97.32 504.25,-97.43 498.37,-97.36 492.53,-97.14 486.73,-96.76 480.98,-96.23 475.31,-95.55 469.72,-94.73 464.23,-93.76 458.84,-92.67 453.56,-91.45 448.42,-90.11 443.41,-88.65 438.54,-87.1 433.83,-85.45 429.28,-83.71 424.91,-81.89 420.72,-80 416.71,-78.05 412.9,-76.04 409.3,-73.98 405.91,-71.88 402.74,-69.76 399.79,-67.6 397.08,-65.43 394.61,-63.25 392.38,-61.06 390.4,-58.88 388.69,-56.7 387.23,-54.54 386.05,-52.39 385.13,-50.26 384.5,-48.16 384.15,-46.09 384.08,-44.05 384.31,-42.04 384.82,-40.07 385.64,-38.15 386.74,-36.26 388.15,-34.42 389.85,-32.62 391.84,-30.87 394.14,-29.17 396.72,-27.51 399.6,-25.9 402.76,-24.35 406.21,-22.84 409.93,-21.39 413.92,-19.99 418.17,-18.64 422.67,-17.35 427.41,-16.12 432.39,-14.95 437.59,-13.83 442.99,-12.78 448.58,-11.79 454.36,-10.87 460.29,-10.01 466.37,-9.23 472.58,-8.53 478.89,-7.9 485.3,-7.35 491.78,-6.88 498.31,-6.51 504.87,-6.22 511.43,-6.03 517.99,-5.94 524.51,-5.95 530.97,-6.06 537.36,-6.28 543.64,-6.62 549.81,-7.06 555.83,-7.63 561.7,-8.31 567.38,-9.11 572.85,-10.03 578.11,-11.08 583.13,-12.25 587.89,-13.54 592.38,-14.95 596.58,-16.48 600.48,-18.13 604.07,-19.89 607.33,-21.77 610.25,-23.76 612.83,-25.84 615.06,-28.03 616.93,-30.31 618.43,-32.67 619.57,-35.11 620.34,-37.62 620.75,-40.2 620.78,-42.82 620.45,-45.49 619.76,-48.2 618.71,-50.93 617.31,-53.67 615.57,-56.41 613.5,-59.15 611.1,-61.86 608.38,-64.55 605.37,-67.19 602.06,-69.79"/>
<text text-anchor="middle" x="498.86" y="-45.01" font-family="sans-serif" font-size="16.00">ReportingContext</text>
</g>
<!-- OrderContext&#45;&gt;ReportingContext -->
<g id="edge4" class="edge">
<title>OrderContext&#45;&gt;ReportingContext</title>
<path fill="none" stroke="black" stroke-width="2" d="M498.86,-146.75C498.86,-131.12 498.86,-113.58 498.86,-97.76"/>
<text text-anchor="middle" x="574.36" y="-119.02" font-family="sans-serif" font-size="12.00"> &#160;&#160;&#160;&#160;&#160;&#160;&#160;&#160;&#160;&#160;&#160;&#160;&#160;&#160;&#160;&#160;&#160;&#160;&#160;&#160;&#160;&#160;&#160;&#160;&#160;&#160;&#160;&#160;&#160;&#160;&#160;&#160;&#160;&#160;&#160;&#160;&#160;&#160;&#160;</text>
<polygon fill="white" stroke="transparent" points="492.86,-88.76 492.86,-105.76 505.86,-105.76 505.86,-88.76 492.86,-88.76"/>
<text text-anchor="start" x="494.86" y="-94.16" font-family="sans-serif" font-size="12.00">D</text>
<polygon fill="white" stroke="transparent" points="465.86,-136.75 465.86,-155.75 480.86,-155.75 480.86,-136.75 465.86,-136.75"/>
<polyline fill="none" stroke="black" points="480.86,-136.75 480.86,-155.75 "/>
<text text-anchor="start" x="468.86" y="-143.15" font-family="sans-serif" font-size="12.00">U</text>
<polygon fill="white" stroke="transparent" points="480.86,-136.75 480.86,-155.75 531.86,-155.75 531.86,-136.75 480.86,-136.75"/>
<polygon fill="none" stroke="black" points="480.86,-136.75 480.86,-155.75 531.86,-155.75 531.86,-136.75 480.86,-136.75"/>
<text text-anchor="start" x="483.86" y="-143.15" font-family="sans-serif" font-size="12.00">OHS, PL</text>
</g>
<!-- InventoryContext -->
<g id="node6" class="node">
<title>InventoryContext</title>
<polygon fill="none" stroke="black" stroke-width="2" points="516.38,-435.53 524.01,-435.77 531.56,-436.12 539,-436.6 546.29,-437.19 553.42,-437.9 560.36,-438.72 567.07,-439.65 573.53,-440.69 579.71,-441.84 585.6,-443.08 591.17,-444.43 596.41,-445.87 601.3,-447.4 605.82,-449.02 609.96,-450.72 613.71,-452.5 617.07,-454.35 620.02,-456.27 622.57,-458.25 624.7,-460.29 626.44,-462.39 627.76,-464.52 628.69,-466.7 629.22,-468.91 629.36,-471.15 629.12,-473.41 628.52,-475.69 627.56,-477.97 626.26,-480.26 624.64,-482.55 622.7,-484.83 620.46,-487.09 617.95,-489.33 615.17,-491.54 612.14,-493.72 608.89,-495.85 605.42,-497.94 601.75,-499.98 597.91,-501.97 593.9,-503.89 589.74,-505.74 585.45,-507.52 581.03,-509.22 576.51,-510.84 571.9,-512.37 567.2,-513.81 562.43,-515.16 557.6,-516.4 552.71,-517.55 547.78,-518.59 542.81,-519.52 537.81,-520.34 532.78,-521.05 527.73,-521.64 522.66,-522.11 517.58,-522.47 512.5,-522.71 507.41,-522.83 502.31,-522.83 497.22,-522.71 492.13,-522.47 487.06,-522.11 481.99,-521.64 476.94,-521.05 471.91,-520.34 466.91,-519.52 461.94,-518.59 457.01,-517.55 452.12,-516.4 447.29,-515.16 442.52,-513.81 437.82,-512.37 433.21,-510.84 428.69,-509.22 424.27,-507.52 419.98,-505.74 415.82,-503.89 411.81,-501.97 407.97,-499.98 404.3,-497.94 400.83,-495.85 397.58,-493.72 394.55,-491.54 391.77,-489.33 389.25,-487.09 387.02,-484.83 385.08,-482.55 383.45,-480.26 382.16,-477.97 381.2,-475.69 380.6,-473.41 380.36,-471.15 380.5,-468.91 381.03,-466.7 381.96,-464.52 383.28,-462.39 385.01,-460.29 387.15,-458.25 389.7,-456.27 392.65,-454.35 396.01,-452.5 399.76,-450.72 403.9,-449.02 408.42,-447.4 413.31,-445.87 418.55,-444.43 424.12,-443.08 430.01,-441.84 436.19,-440.69 442.65,-439.65 449.36,-438.72 456.29,-437.9 463.42,-437.19 470.72,-436.6 478.16,-436.12 485.71,-435.77 493.34,-435.53 501.01,-435.41 508.7,-435.41 516.38,-435.53"/>
<text text-anchor="middle" x="504.86" y="-475.32" font-family="sans-serif" font-size="16.00">InventoryContext</text>
</g>
<!-- InventoryContext&#45;&gt;FulfillmentContext -->
<g id="edge6" class="edge">
<title>InventoryContext&#45;&gt;FulfillmentContext</title>
<path fill="none" stroke="black" stroke-width="2" d="M421.75,-443.44C403.41,-435.1 384.26,-425.84 366.86,-416.36 357.55,-411.29 355.89,-408.92 346.86,-403.36 331.72,-394.03 315.26,-384.25 299.73,-375.17"/>
<text text-anchor="middle" x="442.36" y="-406.76" font-family="sans-serif" font-size="12.00"> &#160;&#160;&#160;&#160;&#160;&#160;&#160;&#160;&#160;&#160;&#160;&#160;&#160;&#160;&#160;&#160;&#160;&#160;&#160;&#160;&#160;&#160;&#160;&#160;&#160;&#160;&#160;&#160;&#160;&#160;&#160;&#160;&#160;&#160;&#160;&#160;&#160;&#160;&#160;</text>
<polygon fill="white" stroke="transparent" points="293.73,-366.17 293.73,-383.17 306.73,-383.17 306.73,-366.17 293.73,-366.17"/>
<text text-anchor="start" x="295.73" y="-371.57" font-family="sans-serif" font-size="12.00">D</text>
<polygon fill="white" stroke="transparent" points="404.75,-433.44 404.75,-452.44 419.75,-452.44 419.75,-433.44 404.75,-433.44"/>
<polyline fill="none" stroke="black" points="419.75,-433.44 419.75,-452.44 "/>
<text text-anchor="start" x="407.75" y="-439.84" font-family="sans-serif" font-size="12.00">U</text>
<polygon fill="white" stroke="transparent" points="419.75,-433.44 419.75,-452.44 438.75,-452.44 438.75,-433.44 419.75,-433.44"/>
<polygon fill="none" stroke="black" points="419.75,-433.44 419.75,-452.44 438.75,-452.44 438.75,-433.44 419.75,-433.44"/>
<text text-anchor="start" x="422.75" y="-439.84" font-family="sans-serif" font-size="12.00">PL</text>
</g>
<!-- ProductCatalogueContext -->
<g id="node7" class="node">
<title>ProductCatalogueContext</title>
<polygon fill="none" stroke="black" stroke-width="2" points="386.23,-332.73 387.09,-329.85 388.37,-327.01 390.08,-324.21 392.21,-321.46 394.75,-318.78 397.7,-316.17 401.05,-313.64 404.78,-311.21 408.9,-308.88 413.38,-306.66 418.21,-304.56 423.39,-302.59 428.89,-300.75 434.71,-299.05 440.82,-297.49 447.21,-296.08 453.87,-294.82 460.77,-293.7 467.89,-292.74 475.22,-291.94 482.73,-291.29 490.41,-290.79 498.24,-290.44 506.18,-290.24 514.23,-290.19 522.35,-290.28 530.53,-290.5 538.75,-290.86 546.97,-291.35 555.19,-291.96 563.37,-292.69 571.49,-293.54 579.54,-294.48 587.48,-295.53 595.31,-296.67 602.99,-297.89 610.5,-299.2 617.83,-300.58 624.95,-302.03 631.85,-303.54 638.51,-305.1 644.9,-306.72 651.01,-308.38 656.83,-310.08 662.33,-311.82 667.51,-313.59 672.34,-315.39 676.82,-317.21 680.94,-319.05 684.67,-320.9 688.02,-322.77 690.96,-324.66 693.51,-326.55 695.63,-328.45 697.35,-330.36 698.63,-332.27 699.49,-334.19 699.92,-336.1 699.92,-338.02 699.49,-339.94 698.63,-341.85 697.35,-343.77 695.63,-345.67 693.51,-347.57 690.96,-349.47 688.02,-351.35 684.67,-353.22 680.94,-355.08 676.82,-356.92 672.34,-358.74 667.51,-360.54 662.33,-362.3 656.83,-364.04 651.01,-365.74 644.9,-367.41 638.51,-369.02 631.85,-370.59 624.95,-372.1 617.83,-373.54 610.5,-374.92 602.99,-376.23 595.31,-377.46 587.48,-378.6 579.54,-379.64 571.49,-380.59 563.37,-381.43 555.19,-382.16 546.97,-382.77 538.75,-383.26 530.53,-383.62 522.35,-383.85 514.23,-383.94 506.18,-383.88 498.24,-383.69 490.41,-383.34 482.73,-382.84 475.22,-382.19 467.89,-381.38 460.77,-380.42 453.87,-379.31 447.21,-378.05 440.82,-376.63 434.71,-375.07 428.89,-373.37 423.39,-371.53 418.21,-369.56 413.38,-367.46 408.9,-365.25 404.78,-362.92 401.05,-360.48 397.7,-357.96 394.75,-355.35 392.21,-352.66 390.08,-349.92 388.37,-347.11 387.09,-344.27 386.23,-341.4 385.8,-338.51 385.8,-335.61 386.23,-332.73"/>
<text text-anchor="middle" x="542.86" y="-333.26" font-family="sans-serif" font-size="16.00">ProductCatalogueContext</text>
</g>
<!-- InventoryContext&#45;&gt;ProductCatalogueContext -->
<g id="edge7" class="edge">
<title>InventoryContext&#45;&gt;ProductCatalogueContext</title>
<path fill="none" stroke="black" stroke-width="2" d="M516.47,-435.34C520.88,-419.09 525.91,-400.52 530.4,-383.99"/>
<text text-anchor="middle" x="600.36" y="-406.76" font-family="sans-serif" font-size="12.00"> &#160;&#160;&#160;&#160;&#160;&#160;&#160;&#160;&#160;&#160;&#160;&#160;&#160;&#160;&#160;&#160;&#160;&#160;&#160;&#160;&#160;&#160;&#160;&#160;&#160;&#160;&#160;&#160;&#160;&#160;&#160;&#160;&#160;&#160;&#160;&#160;&#160;&#160;&#160;</text>
<polygon fill="white" stroke="transparent" points="524.4,-374.99 524.4,-391.99 537.4,-391.99 537.4,-374.99 524.4,-374.99"/>
<text text-anchor="start" x="526.4" y="-380.39" font-family="sans-serif" font-size="12.00">D</text>
<polygon fill="white" stroke="transparent" points="483.47,-425.34 483.47,-444.34 498.47,-444.34 498.47,-425.34 483.47,-425.34"/>
<polyline fill="none" stroke="black" points="498.47,-425.34 498.47,-444.34 "/>
<text text-anchor="start" x="486.47" y="-431.74" font-family="sans-serif" font-size="12.00">U</text>
<polygon fill="white" stroke="transparent" points="498.47,-425.34 498.47,-444.34 549.47,-444.34 549.47,-425.34 498.47,-425.34"/>
<polygon fill="none" stroke="black" points="498.47,-425.34 498.47,-444.34 549.47,-444.34 549.47,-425.34 498.47,-425.34"/>
<text text-anchor="start" x="501.47" y="-431.74" font-family="sans-serif" font-size="12.00">OHS, PL</text>
</g>
<!-- ProductCatalogueContext&#45;&gt;OrderContext -->
<g id="edge8" class="edge">
<title>ProductCatalogueContext&#45;&gt;OrderContext</title>
<path fill="none" stroke="black" stroke-width="2" d="M528.7,-290.39C523.17,-272.57 516.88,-252.3 511.51,-234.98"/>
<text text-anchor="middle" x="597.36" y="-261.17" font-family="sans-serif" font-size="12.00"> &#160;&#160;&#160;&#160;&#160;&#160;&#160;&#160;&#160;&#160;&#160;&#160;&#160;&#160;&#160;&#160;&#160;&#160;&#160;&#160;&#160;&#160;&#160;&#160;&#160;&#160;&#160;&#160;&#160;&#160;&#160;&#160;&#160;&#160;&#160;&#160;&#160;&#160;&#160;</text>
<polygon fill="white" stroke="transparent" points="505.51,-225.98 505.51,-242.98 518.51,-242.98 518.51,-225.98 505.51,-225.98"/>
<text text-anchor="start" x="507.51" y="-231.38" font-family="sans-serif" font-size="12.00">D</text>
<polygon fill="white" stroke="transparent" points="511.7,-280.39 511.7,-299.39 526.7,-299.39 526.7,-280.39 511.7,-280.39"/>
<polyline fill="none" stroke="black" points="526.7,-280.39 526.7,-299.39 "/>
<text text-anchor="start" x="514.7" y="-286.79" font-family="sans-serif" font-size="12.00">U</text>
<polygon fill="white" stroke="transparent" points="526.7,-280.39 526.7,-299.39 545.7,-299.39 545.7,-280.39 526.7,-280.39"/>
<polygon fill="none" stroke="black" points="526.7,-280.39 526.7,-299.39 545.7,-299.39 545.7,-280.39 526.7,-280.39"/>
<text text-anchor="start" x="529.7" y="-286.79" font-family="sans-serif" font-size="12.00">PL</text>
</g>
<!-- LoginContext -->
<g id="node8" class="node">
<title>LoginContext</title>
<polygon fill="none" stroke="black" stroke-width="2" points="851.2,-655.35 846.36,-657.17 841.38,-658.88 836.29,-660.47 831.11,-661.95 825.85,-663.29 820.54,-664.51 815.18,-665.59 809.82,-666.52 804.45,-667.3 799.1,-667.94 793.79,-668.42 788.53,-668.74 783.34,-668.91 778.23,-668.92 773.22,-668.77 768.31,-668.47 763.53,-668.01 758.89,-667.39 754.39,-666.62 750.04,-665.71 745.85,-664.65 741.83,-663.45 737.99,-662.12 734.32,-660.66 730.84,-659.09 727.55,-657.39 724.45,-655.59 721.55,-653.69 718.84,-651.7 716.33,-649.63 714.01,-647.48 711.9,-645.27 709.98,-642.99 708.26,-640.67 706.73,-638.31 705.4,-635.92 704.27,-633.51 703.33,-631.08 702.58,-628.65 702.02,-626.22 701.66,-623.8 701.48,-621.4 701.49,-619.02 701.69,-616.67 702.07,-614.37 702.65,-612.1 703.41,-609.89 704.36,-607.73 705.49,-605.63 706.81,-603.59 708.31,-601.63 710.01,-599.73 711.89,-597.91 713.95,-596.17 716.21,-594.5 718.65,-592.92 721.27,-591.42 724.08,-590.01 727.07,-588.68 730.24,-587.44 733.59,-586.29 737.11,-585.22 740.81,-584.25 744.67,-583.36 748.7,-582.56 752.88,-581.85 757.21,-581.23 761.68,-580.69 766.29,-580.24 771.02,-579.88 775.86,-579.61 780.8,-579.43 785.83,-579.33 790.94,-579.32 796.11,-579.4 801.33,-579.56 806.58,-579.82 811.85,-580.16 817.11,-580.59 822.36,-581.1 827.56,-581.71 832.72,-582.4 837.8,-583.19 842.78,-584.06 847.65,-585.02 852.39,-586.07 856.98,-587.2 861.41,-588.43 865.64,-589.74 869.67,-591.14 873.48,-592.63 877.04,-594.2 880.35,-595.85 883.4,-597.59 886.16,-599.4 888.62,-601.29 890.77,-603.25 892.61,-605.28 894.12,-607.37 895.3,-609.53 896.14,-611.74 896.63,-614 896.78,-616.31 896.58,-618.65 896.04,-621.03 895.15,-623.44 893.91,-625.86 892.35,-628.29 890.45,-630.73 888.23,-633.17 885.71,-635.59 882.88,-637.98 879.77,-640.35 876.38,-642.68 872.73,-644.96 868.84,-647.19 864.73,-649.35 860.4,-651.44 855.89,-653.44 851.2,-655.35"/>
<text text-anchor="middle" x="791.86" y="-617.09" font-family="sans-serif" font-size="16.00">LoginContext</text>
</g>
<!-- LoyaltyContext -->
<g id="node9" class="node">
<title>LoyaltyContext</title>
<polygon fill="none" stroke="black" stroke-width="2" points="588.16,-662.17 581.81,-663.16 575.41,-664.03 568.98,-664.77 562.55,-665.39 556.13,-665.87 549.76,-666.22 543.46,-666.44 537.25,-666.52 531.16,-666.46 525.2,-666.26 519.4,-665.92 513.76,-665.44 508.32,-664.83 503.09,-664.08 498.08,-663.19 493.29,-662.17 488.76,-661.02 484.48,-659.75 480.46,-658.36 476.71,-656.85 473.24,-655.23 470.04,-653.5 467.13,-651.68 464.5,-649.76 462.15,-647.76 460.08,-645.67 458.29,-643.52 456.77,-641.3 455.53,-639.02 454.54,-636.69 453.82,-634.33 453.36,-631.93 453.13,-629.5 453.15,-627.06 453.4,-624.61 453.87,-622.16 454.56,-619.72 455.46,-617.3 456.56,-614.9 457.85,-612.53 459.33,-610.19 460.99,-607.9 462.83,-605.67 464.83,-603.49 466.99,-601.37 469.32,-599.33 471.79,-597.36 474.42,-595.47 477.18,-593.66 480.1,-591.94 483.14,-590.31 486.33,-588.78 489.65,-587.34 493.1,-586.01 496.68,-584.78 500.39,-583.65 504.22,-582.64 508.18,-581.72 512.26,-580.92 516.45,-580.22 520.76,-579.64 525.19,-579.16 529.72,-578.79 534.35,-578.53 539.08,-578.38 543.91,-578.33 548.82,-578.39 553.8,-578.55 558.86,-578.82 563.97,-579.18 569.13,-579.65 574.33,-580.21 579.55,-580.87 584.79,-581.62 590.02,-582.46 595.23,-583.4 600.41,-584.42 605.54,-585.52 610.6,-586.71 615.57,-587.98 620.43,-589.32 625.17,-590.75 629.77,-592.24 634.2,-593.8 638.45,-595.43 642.5,-597.13 646.32,-598.88 649.91,-600.69 653.23,-602.56 656.28,-604.48 659.04,-606.45 661.48,-608.46 663.6,-610.51 665.39,-612.59 666.82,-614.71 667.89,-616.85 668.6,-619.02 668.92,-621.2 668.86,-623.4 668.41,-625.6 667.58,-627.81 666.35,-630.01 664.73,-632.21 662.73,-634.38 660.35,-636.54 657.59,-638.67 654.47,-640.77 651,-642.83 647.2,-644.84 643.06,-646.8 638.62,-648.7 633.89,-650.54 628.89,-652.31 623.64,-654 618.16,-655.6 612.47,-657.12 606.6,-658.54 600.58,-659.86 594.42,-661.07 588.16,-662.17"/>
<text text-anchor="middle" x="553.86" y="-617.09" font-family="sans-serif" font-size="16.00">LoyaltyContext</text>
</g>
<!-- LoyaltyContext&#45;&gt;CustomerContext -->
<g id="edge10" class="edge">
<title>LoyaltyContext&#45;&gt;CustomerContext</title>
<path fill="none" stroke="black" stroke-width="2" d="M480.78,-591.44C423.78,-569.25 344.39,-538.34 283.72,-514.72"/>
<text text-anchor="middle" x="460.36" y="-545.28" font-family="sans-serif" font-size="12.00"> &#160;&#160;&#160;&#160;&#160;&#160;&#160;&#160;&#160;&#160;&#160;&#160;&#160;&#160;&#160;&#160;&#160;&#160;&#160;&#160;&#160;&#160;&#160;&#160;&#160;&#160;&#160;&#160;&#160;&#160;&#160;&#160;&#160;&#160;&#160;&#160;&#160;&#160;&#160;</text>
<polygon fill="white" stroke="transparent" points="277.72,-505.72 277.72,-522.72 290.72,-522.72 290.72,-505.72 277.72,-505.72"/>
<text text-anchor="start" x="279.72" y="-511.12" font-family="sans-serif" font-size="12.00">D</text>
<polygon fill="white" stroke="transparent" points="447.78,-581.44 447.78,-600.44 462.78,-600.44 462.78,-581.44 447.78,-581.44"/>
<polyline fill="none" stroke="black" points="462.78,-581.44 462.78,-600.44 "/>
<text text-anchor="start" x="450.78" y="-587.84" font-family="sans-serif" font-size="12.00">U</text>
<polygon fill="white" stroke="transparent" points="462.78,-581.44 462.78,-600.44 513.78,-600.44 513.78,-581.44 462.78,-581.44"/>
<polygon fill="none" stroke="black" points="462.78,-581.44 462.78,-600.44 513.78,-600.44 513.78,-581.44 462.78,-581.44"/>
<text text-anchor="start" x="465.78" y="-587.84" font-family="sans-serif" font-size="12.00">OHS, PL</text>
</g>
<!-- LoyaltyContext&#45;&gt;OrderContext -->
<g id="edge9" class="edge">
<title>LoyaltyContext&#45;&gt;OrderContext</title>
<path fill="none" stroke="black" stroke-width="2" d="M593.58,-582.56C653.32,-521.67 754.66,-396.89 708.86,-288.77 690.3,-244.95 643.62,-221.43 598.97,-208.81"/>
<text text-anchor="middle" x="785.36" y="-406.76" font-family="sans-serif" font-size="12.00"> &#160;&#160;&#160;&#160;&#160;&#160;&#160;&#160;&#160;&#160;&#160;&#160;&#160;&#160;&#160;&#160;&#160;&#160;&#160;&#160;&#160;&#160;&#160;&#160;&#160;&#160;&#160;&#160;&#160;&#160;&#160;&#160;&#160;&#160;&#160;&#160;&#160;&#160;&#160;</text>
<polygon fill="white" stroke="transparent" points="592.97,-199.81 592.97,-216.81 605.97,-216.81 605.97,-199.81 592.97,-199.81"/>
<text text-anchor="start" x="594.97" y="-205.21" font-family="sans-serif" font-size="12.00">D</text>
<polygon fill="white" stroke="transparent" points="560.58,-572.56 560.58,-591.56 575.58,-591.56 575.58,-572.56 560.58,-572.56"/>
<polyline fill="none" stroke="black" points="575.58,-572.56 575.58,-591.56 "/>
<text text-anchor="start" x="563.58" y="-578.96" font-family="sans-serif" font-size="12.00">U</text>
<polygon fill="white" stroke="transparent" points="575.58,-572.56 575.58,-591.56 626.58,-591.56 626.58,-572.56 575.58,-572.56"/>
<polygon fill="none" stroke="black" points="575.58,-572.56 575.58,-591.56 626.58,-591.56 626.58,-572.56 575.58,-572.56"/>
<text text-anchor="start" x="578.58" y="-578.96" font-family="sans-serif" font-size="12.00">OHS, PL</text>
</g>
<!-- PaymentContext -->
<g id="node10" class="node">
<title>PaymentContext</title>
<polygon fill="none" stroke="black" stroke-width="2" points="758.61,-343.42 757.43,-340.6 756.57,-337.78 756.03,-334.97 755.81,-332.18 755.92,-329.42 756.35,-326.71 757.11,-324.06 758.2,-321.47 759.62,-318.95 761.35,-316.51 763.41,-314.17 765.78,-311.92 768.46,-309.78 771.45,-307.75 774.72,-305.84 778.28,-304.05 782.12,-302.39 786.21,-300.86 790.56,-299.45 795.14,-298.19 799.95,-297.05 804.97,-296.06 810.17,-295.2 815.56,-294.47 821.1,-293.88 826.79,-293.42 832.6,-293.08 838.52,-292.88 844.52,-292.8 850.59,-292.83 856.71,-292.98 862.86,-293.25 869.03,-293.62 875.18,-294.09 881.3,-294.66 887.38,-295.33 893.4,-296.08 899.33,-296.91 905.16,-297.83 910.87,-298.82 916.45,-299.88 921.88,-301 927.14,-302.19 932.22,-303.44 937.11,-304.74 941.79,-306.09 946.25,-307.49 950.48,-308.94 954.46,-310.44 958.2,-311.97 961.67,-313.55 964.87,-315.16 967.8,-316.82 970.45,-318.5 972.81,-320.22 974.89,-321.98 976.66,-323.76 978.14,-325.58 979.33,-327.42 980.21,-329.3 980.79,-331.2 981.08,-333.13 981.07,-335.08 980.77,-337.05 980.17,-339.04 979.29,-341.05 978.13,-343.08 976.68,-345.12 974.97,-347.16 972.98,-349.22 970.74,-351.27 968.24,-353.32 965.5,-355.36 962.52,-357.39 959.3,-359.4 955.87,-361.39 952.22,-363.34 948.37,-365.26 944.33,-367.13 940.1,-368.95 935.69,-370.71 931.13,-372.41 926.41,-374.03 921.54,-375.57 916.55,-377.03 911.44,-378.38 906.22,-379.64 900.9,-380.78 895.5,-381.8 890.03,-382.7 884.5,-383.47 878.92,-384.1 873.31,-384.59 867.68,-384.93 862.04,-385.12 856.41,-385.16 850.8,-385.04 845.22,-384.75 839.69,-384.31 834.22,-383.7 828.83,-382.94 823.53,-382.01 818.33,-380.92 813.25,-379.67 808.3,-378.27 803.5,-376.72 798.85,-375.03 794.38,-373.19 790.09,-371.23 786,-369.14 782.12,-366.93 778.47,-364.62 775.05,-362.21 771.88,-359.71 768.97,-357.12 766.32,-354.48 763.96,-351.77 761.88,-349.02 760.09,-346.23 758.61,-343.42"/>
<text text-anchor="middle" x="869.86" y="-333.26" font-family="sans-serif" font-size="16.00">PaymentContext</text>
</g>
<!-- PaymentContext&#45;&gt;OrderContext -->
<g id="edge11" class="edge">
<title>PaymentContext&#45;&gt;OrderContext</title>
<path fill="none" stroke="black" stroke-width="2" d="M810.94,-295.03C789.86,-281.72 765.47,-267.81 741.86,-257.77 694.81,-237.74 639.89,-222.72 594.17,-212.33"/>
<text text-anchor="middle" x="842.36" y="-261.17" font-family="sans-serif" font-size="12.00"> &#160;&#160;&#160;&#160;&#160;&#160;&#160;&#160;&#160;&#160;&#160;&#160;&#160;&#160;&#160;&#160;&#160;&#160;&#160;&#160;&#160;&#160;&#160;&#160;&#160;&#160;&#160;&#160;&#160;&#160;&#160;&#160;&#160;&#160;&#160;&#160;&#160;&#160;&#160;</text>
<polygon fill="white" stroke="transparent" points="588.17,-203.33 588.17,-220.33 601.17,-220.33 601.17,-203.33 588.17,-203.33"/>
<text text-anchor="start" x="590.17" y="-208.73" font-family="sans-serif" font-size="12.00">D</text>
<polygon fill="white" stroke="transparent" points="777.94,-285.03 777.94,-304.03 792.94,-304.03 792.94,-285.03 777.94,-285.03"/>
<polyline fill="none" stroke="black" points="792.94,-285.03 792.94,-304.03 "/>
<text text-anchor="start" x="780.94" y="-291.43" font-family="sans-serif" font-size="12.00">U</text>
<polygon fill="white" stroke="transparent" points="792.94,-285.03 792.94,-304.03 843.94,-304.03 843.94,-285.03 792.94,-285.03"/>
<polygon fill="none" stroke="black" points="792.94,-285.03 792.94,-304.03 843.94,-304.03 843.94,-285.03 792.94,-285.03"/>
<text text-anchor="start" x="795.94" y="-291.43" font-family="sans-serif" font-size="12.00">OHS, PL</text>
</g>
</g>
</svg>
