<svg width="2000px" height="510px"
 viewBox="0.00 0.00 1555.88 397.43" xmlns="http://www.w3.org/2000/svg" xmlns:xlink="http://www.w3.org/1999/xlink">
<g id="graph0" class="graph" transform="scale(1.0 1.0) rotate(0) translate(4 393.43)">
<title>ContextMapGraph</title>
<polygon fill="white" stroke="transparent" points="-4,4 -4,-393.43 1551.88,-393.43 1551.88,4 -4,4"/>
<!-- AuthContext -->
<g id="node1" class="node">
<title>AuthContext</title>
<polygon fill="none" stroke="black" stroke-width="2" points="140,-380.77 134.48,-381.94 128.89,-382.99 123.26,-383.92 117.61,-384.73 111.95,-385.4 106.32,-385.94 100.72,-386.34 95.19,-386.6 89.74,-386.72 84.39,-386.7 79.16,-386.53 74.06,-386.22 69.11,-385.77 64.32,-385.17 59.71,-384.44 55.3,-383.56 51.08,-382.55 47.07,-381.41 43.27,-380.14 39.7,-378.74 36.36,-377.23 33.25,-375.6 30.38,-373.87 27.75,-372.03 25.35,-370.1 23.2,-368.08 21.28,-365.98 19.6,-363.81 18.15,-361.58 16.93,-359.29 15.94,-356.95 15.17,-354.57 14.61,-352.15 14.27,-349.72 14.13,-347.27 14.19,-344.81 14.44,-342.36 14.88,-339.91 15.51,-337.48 16.32,-335.08 17.29,-332.71 18.44,-330.38 19.75,-328.09 21.21,-325.86 22.83,-323.69 24.6,-321.58 26.52,-319.54 28.59,-317.57 30.79,-315.69 33.14,-313.89 35.62,-312.17 38.24,-310.55 40.99,-309.02 43.87,-307.59 46.89,-306.26 50.03,-305.02 53.31,-303.89 56.71,-302.87 60.23,-301.94 63.87,-301.13 67.63,-300.42 71.51,-299.81 75.5,-299.31 79.6,-298.91 83.81,-298.62 88.11,-298.43 92.5,-298.34 96.97,-298.36 101.53,-298.47 106.15,-298.69 110.83,-299 115.55,-299.41 120.31,-299.91 125.1,-300.51 129.89,-301.19 134.69,-301.97 139.46,-302.83 144.2,-303.79 148.89,-304.82 153.52,-305.94 158.06,-307.14 162.5,-308.42 166.83,-309.77 171.02,-311.2 175.05,-312.7 178.92,-314.27 182.59,-315.91 186.06,-317.61 189.3,-319.38 192.31,-321.2 195.06,-323.08 197.54,-325.01 199.74,-327 201.64,-329.02 203.23,-331.09 204.51,-333.2 205.45,-335.34 206.07,-337.51 206.34,-339.7 206.26,-341.92 205.84,-344.14 205.07,-346.38 203.95,-348.61 202.48,-350.84 200.68,-353.07 198.53,-355.27 196.06,-357.46 193.26,-359.62 190.16,-361.74 186.76,-363.81 183.07,-365.84 179.12,-367.81 174.91,-369.72 170.47,-371.56 165.82,-373.32 160.96,-375 155.94,-376.59 150.75,-378.09 145.43,-379.48 140,-380.77"/>
<text text-anchor="middle" x="103.28" y="-336.8" font-family="sans-serif" font-size="16.00">AuthContext</text>
</g>
<!-- CartContext -->
<g id="node2" class="node">
<title>CartContext</title>
<polygon fill="none" stroke="black" stroke-width="2" points="709.71,-15.45 714.07,-13.53 718.57,-11.72 723.19,-10.01 727.92,-8.42 732.72,-6.95 737.6,-5.62 742.52,-4.42 747.47,-3.37 752.44,-2.46 757.41,-1.7 762.36,-1.09 767.28,-0.64 772.15,-0.35 776.96,-0.22 781.69,-0.25 786.34,-0.44 790.89,-0.78 795.33,-1.28 799.65,-1.94 803.84,-2.74 807.9,-3.69 811.81,-4.79 815.57,-6.02 819.18,-7.38 822.63,-8.86 825.91,-10.47 829.02,-12.18 831.96,-14 834.72,-15.91 837.31,-17.91 839.72,-19.99 841.95,-22.14 844,-24.35 845.87,-26.62 847.56,-28.93 849.06,-31.27 850.39,-33.64 851.54,-36.03 852.5,-38.43 853.29,-40.83 853.9,-43.23 854.32,-45.61 854.56,-47.97 854.63,-50.31 854.51,-52.61 854.22,-54.88 853.74,-57.1 853.08,-59.26 852.24,-61.38 851.21,-63.43 850.01,-65.42 848.62,-67.35 847.04,-69.2 845.28,-70.98 843.34,-72.69 841.21,-74.32 838.9,-75.87 836.41,-77.34 833.74,-78.73 830.89,-80.04 827.86,-81.27 824.65,-82.41 821.28,-83.47 817.74,-84.44 814.03,-85.34 810.17,-86.14 806.16,-86.87 802.01,-87.5 797.72,-88.06 793.31,-88.53 788.78,-88.92 784.14,-89.22 779.42,-89.43 774.61,-89.57 769.73,-89.61 764.8,-89.57 759.83,-89.45 754.83,-89.23 749.83,-88.93 744.84,-88.55 739.87,-88.07 734.94,-87.5 730.08,-86.85 725.29,-86.1 720.6,-85.26 716.02,-84.33 711.58,-83.31 707.28,-82.2 703.16,-81 699.21,-79.7 695.47,-78.31 691.94,-76.84 688.65,-75.28 685.6,-73.63 682.8,-71.89 680.28,-70.07 678.04,-68.18 676.1,-66.2 674.45,-64.16 673.11,-62.05 672.08,-59.87 671.37,-57.63 670.99,-55.34 670.92,-53.01 671.18,-50.63 671.76,-48.22 672.66,-45.78 673.87,-43.33 675.4,-40.86 677.22,-38.39 679.34,-35.92 681.75,-33.47 684.42,-31.04 687.36,-28.65 690.55,-26.29 693.97,-23.99 697.62,-21.74 701.46,-19.57 705.5,-17.47 709.71,-15.45"/>
<text text-anchor="middle" x="769.28" y="-44.48" font-family="sans-serif" font-size="16.00">CartContext</text>
</g>
<!-- CustomerContext -->
<g id="node3" class="node">
<title>CustomerContext</title>
<polygon fill="none" stroke="black" stroke-width="2" points="447.46,-187.03 448.81,-189.85 449.84,-192.67 450.53,-195.48 450.89,-198.27 450.91,-201.03 450.58,-203.75 449.92,-206.41 448.91,-209.02 447.56,-211.55 445.86,-214 443.84,-216.36 441.48,-218.63 438.8,-220.79 435.8,-222.84 432.48,-224.78 428.87,-226.6 424.97,-228.29 420.79,-229.85 416.34,-231.29 411.64,-232.59 406.71,-233.75 401.55,-234.79 396.18,-235.68 390.63,-236.45 384.9,-237.08 379.02,-237.58 373,-237.95 366.87,-238.2 360.64,-238.32 354.34,-238.33 347.98,-238.22 341.58,-237.99 335.17,-237.66 328.76,-237.23 322.37,-236.7 316.03,-236.08 309.75,-235.37 303.56,-234.57 297.46,-233.7 291.49,-232.74 285.65,-231.72 279.96,-230.63 274.44,-229.48 269.11,-228.26 263.98,-226.99 259.06,-225.67 254.36,-224.29 249.91,-222.87 245.7,-221.4 241.75,-219.89 238.07,-218.33 234.67,-216.74 231.56,-215.1 228.73,-213.43 226.2,-211.72 223.96,-209.98 222.04,-208.2 220.41,-206.4 219.1,-204.56 218.1,-202.68 217.4,-200.78 217.01,-198.86 216.93,-196.9 217.15,-194.93 217.68,-192.92 218.5,-190.9 219.62,-188.87 221.02,-186.82 222.71,-184.75 224.67,-182.69 226.9,-180.61 229.4,-178.54 232.15,-176.48 235.15,-174.43 238.39,-172.39 241.87,-170.38 245.56,-168.4 249.47,-166.45 253.58,-164.55 257.89,-162.69 262.38,-160.9 267.04,-159.17 271.86,-157.51 276.84,-155.94 281.95,-154.45 287.2,-153.05 292.56,-151.76 298.02,-150.58 303.58,-149.52 309.22,-148.58 314.92,-147.78 320.68,-147.11 326.48,-146.58 332.31,-146.2 338.16,-145.97 344,-145.89 349.83,-145.98 355.63,-146.22 361.39,-146.63 367.1,-147.2 372.73,-147.93 378.28,-148.83 383.72,-149.88 389.06,-151.1 394.26,-152.47 399.32,-153.98 404.22,-155.65 408.95,-157.46 413.49,-159.39 417.83,-161.46 421.96,-163.64 425.86,-165.93 429.52,-168.33 432.92,-170.81 436.07,-173.38 438.94,-176.01 441.52,-178.71 443.81,-181.45 445.79,-184.23 447.46,-187.03"/>
<text text-anchor="middle" x="332.28" y="-190.36" font-family="sans-serif" font-size="16.00">CustomerContext</text>
</g>
<!-- CustomerContext&#45;&gt;CartContext -->
<g id="edge1" class="edge">
<title>CustomerContext&#45;&gt;CartContext</title>
<path fill="none" stroke="black" stroke-width="2" d="M384.28,-149.96C402.33,-136.84 423.32,-123.54 444.28,-114.55 516.87,-83.43 605.05,-66.91 671.22,-58.29"/>
<text text-anchor="middle" x="519.78" y="-117.95" font-family="sans-serif" font-size="12.00"> &#160;&#160;&#160;&#160;&#160;&#160;&#160;&#160;&#160;&#160;&#160;&#160;&#160;&#160;&#160;&#160;&#160;&#160;&#160;&#160;&#160;&#160;&#160;&#160;&#160;&#160;&#160;&#160;&#160;&#160;&#160;&#160;&#160;&#160;&#160;&#160;&#160;&#160;&#160;</text>
<polygon fill="white" stroke="transparent" points="665.22,-49.29 665.22,-66.29 678.22,-66.29 678.22,-49.29 665.22,-49.29"/>
<text text-anchor="start" x="667.22" y="-54.69" font-family="sans-serif" font-size="12.00">D</text>
<polygon fill="white" stroke="transparent" points="378.28,-140.96 378.28,-157.96 391.28,-157.96 391.28,-140.96 378.28,-140.96"/>
<text text-anchor="start" x="380.28" y="-146.36" font-family="sans-serif" font-size="12.00">U</text>
</g>
<!-- FulfillmentContext -->
<g id="node4" class="node">
<title>FulfillmentContext</title>
<polygon fill="none" stroke="black" stroke-width="2" points="519.68,-161.79 525.44,-159.83 531.4,-157.98 537.53,-156.23 543.79,-154.6 550.18,-153.09 556.66,-151.71 563.21,-150.47 569.82,-149.37 576.45,-148.42 583.09,-147.62 589.71,-146.97 596.29,-146.48 602.82,-146.15 609.27,-145.97 615.63,-145.96 621.88,-146.11 628.01,-146.42 634,-146.88 639.83,-147.5 645.5,-148.27 651,-149.19 656.31,-150.25 661.42,-151.45 666.33,-152.78 671.03,-154.24 675.51,-155.82 679.78,-157.51 683.81,-159.3 687.62,-161.2 691.19,-163.18 694.53,-165.24 697.63,-167.37 700.49,-169.57 703.11,-171.82 705.49,-174.12 707.63,-176.45 709.53,-178.81 711.18,-181.2 712.59,-183.59 713.77,-185.99 714.69,-188.38 715.38,-190.77 715.82,-193.13 716.02,-195.47 715.98,-197.78 715.69,-200.05 715.15,-202.27 714.37,-204.45 713.34,-206.57 712.07,-208.64 710.54,-210.64 708.77,-212.58 706.74,-214.45 704.47,-216.25 701.94,-217.97 699.16,-219.62 696.14,-221.2 692.86,-222.69 689.34,-224.11 685.57,-225.44 681.56,-226.69 677.31,-227.87 672.83,-228.95 668.12,-229.96 663.18,-230.88 658.04,-231.73 652.68,-232.48 647.14,-233.16 641.4,-233.75 635.5,-234.26 629.44,-234.68 623.23,-235.02 616.89,-235.28 610.43,-235.45 603.88,-235.54 597.26,-235.54 590.58,-235.46 583.86,-235.29 577.12,-235.03 570.4,-234.69 563.7,-234.25 557.05,-233.73 550.49,-233.11 544.02,-232.4 537.68,-231.6 531.49,-230.71 525.47,-229.73 519.65,-228.65 514.04,-227.48 508.68,-226.22 503.59,-224.86 498.78,-223.41 494.28,-221.87 490.1,-220.25 486.27,-218.53 482.79,-216.74 479.69,-214.86 476.98,-212.9 474.67,-210.86 472.76,-208.76 471.28,-206.59 470.22,-204.36 469.59,-202.07 469.39,-199.73 469.62,-197.35 470.29,-194.93 471.38,-192.48 472.89,-190.01 474.82,-187.52 477.15,-185.03 479.88,-182.55 482.99,-180.07 486.46,-177.62 490.3,-175.2 494.46,-172.81 498.95,-170.47 503.74,-168.19 508.8,-165.98 514.12,-163.85 519.68,-161.79"/>
<text text-anchor="middle" x="601.28" y="-190.36" font-family="sans-serif" font-size="16.00">FulfillmentContext</text>
</g>
<!-- FulfillmentContext&#45;&gt;CartContext -->
<g id="edge2" class="edge">
<title>FulfillmentContext&#45;&gt;CartContext</title>
<path fill="none" stroke="black" stroke-width="2" d="M594.58,-146.25C595.17,-135.04 597.81,-123.69 604.28,-114.55 621.19,-90.67 648.27,-75.52 675.65,-65.92"/>
<text text-anchor="middle" x="679.78" y="-117.95" font-family="sans-serif" font-size="12.00"> &#160;&#160;&#160;&#160;&#160;&#160;&#160;&#160;&#160;&#160;&#160;&#160;&#160;&#160;&#160;&#160;&#160;&#160;&#160;&#160;&#160;&#160;&#160;&#160;&#160;&#160;&#160;&#160;&#160;&#160;&#160;&#160;&#160;&#160;&#160;&#160;&#160;&#160;&#160;</text>
<polygon fill="white" stroke="transparent" points="669.65,-56.92 669.65,-73.92 682.65,-73.92 682.65,-56.92 669.65,-56.92"/>
<text text-anchor="start" x="671.65" y="-62.32" font-family="sans-serif" font-size="12.00">D</text>
<polygon fill="white" stroke="transparent" points="588.58,-137.25 588.58,-154.25 601.58,-154.25 601.58,-137.25 588.58,-137.25"/>
<text text-anchor="start" x="590.58" y="-142.65" font-family="sans-serif" font-size="12.00">U</text>
</g>
<!-- InventoryContext -->
<g id="node5" class="node">
<title>InventoryContext</title>
<polygon fill="none" stroke="black" stroke-width="2" points="964.96,-362.25 961.28,-364.76 957.34,-367.19 953.15,-369.54 948.74,-371.79 944.12,-373.94 939.3,-375.97 934.31,-377.88 929.15,-379.66 923.84,-381.31 918.41,-382.81 912.86,-384.17 907.22,-385.37 901.5,-386.42 895.71,-387.3 889.88,-388.03 884.01,-388.58 878.13,-388.98 872.25,-389.2 866.38,-389.27 860.53,-389.17 854.73,-388.91 848.97,-388.49 843.29,-387.92 837.67,-387.21 832.15,-386.34 826.73,-385.34 821.42,-384.21 816.23,-382.96 811.18,-381.58 806.26,-380.1 801.49,-378.51 796.88,-376.83 792.44,-375.06 788.17,-373.21 784.09,-371.29 780.2,-369.31 776.5,-367.28 773.02,-365.2 769.74,-363.08 766.69,-360.93 763.86,-358.75 761.26,-356.57 758.9,-354.37 756.79,-352.17 754.92,-349.97 753.32,-347.78 751.97,-345.6 750.89,-343.44 750.08,-341.31 749.55,-339.2 749.3,-337.13 749.33,-335.09 749.64,-333.08 750.25,-331.12 751.15,-329.19 752.34,-327.31 753.82,-325.48 755.59,-323.69 757.66,-321.95 760.02,-320.26 762.67,-318.62 765.61,-317.04 768.83,-315.5 772.32,-314.02 776.09,-312.59 780.13,-311.21 784.42,-309.89 788.96,-308.63 793.73,-307.43 798.74,-306.29 803.96,-305.21 809.38,-304.19 814.99,-303.23 820.78,-302.35 826.72,-301.53 832.81,-300.79 839.02,-300.13 845.33,-299.54 851.73,-299.03 858.19,-298.61 864.7,-298.27 871.24,-298.03 877.78,-297.88 884.31,-297.83 890.79,-297.88 897.22,-298.04 903.56,-298.3 909.8,-298.68 915.91,-299.17 921.88,-299.77 927.68,-300.49 933.29,-301.33 938.69,-302.29 943.87,-303.37 948.81,-304.57 953.49,-305.89 957.89,-307.33 961.99,-308.89 965.8,-310.56 969.28,-312.35 972.44,-314.25 975.25,-316.26 977.72,-318.36 979.84,-320.56 981.59,-322.86 982.98,-325.23 984,-327.68 984.65,-330.2 984.93,-332.77 984.84,-335.4 984.39,-338.07 983.57,-340.77 982.4,-343.49 980.88,-346.23 979.02,-348.96 976.83,-351.68 974.32,-354.39 971.49,-357.05 968.37,-359.68 964.96,-362.25"/>
<text text-anchor="middle" x="863.28" y="-336.8" font-family="sans-serif" font-size="16.00">InventoryContext</text>
</g>
<!-- InventoryContext&#45;&gt;CartContext -->
<g id="edge3" class="edge">
<title>InventoryContext&#45;&gt;CartContext</title>
<path fill="none" stroke="black" stroke-width="2" d="M819.96,-302.39C803.86,-285.9 787.32,-265.16 778.28,-242.76 758.21,-193.02 759.66,-130.15 763.6,-89.82"/>
<text text-anchor="middle" x="853.78" y="-191.06" font-family="sans-serif" font-size="12.00"> &#160;&#160;&#160;&#160;&#160;&#160;&#160;&#160;&#160;&#160;&#160;&#160;&#160;&#160;&#160;&#160;&#160;&#160;&#160;&#160;&#160;&#160;&#160;&#160;&#160;&#160;&#160;&#160;&#160;&#160;&#160;&#160;&#160;&#160;&#160;&#160;&#160;&#160;&#160;</text>
<polygon fill="white" stroke="transparent" points="757.6,-80.82 757.6,-97.82 770.6,-97.82 770.6,-80.82 757.6,-80.82"/>
<text text-anchor="start" x="759.6" y="-86.22" font-family="sans-serif" font-size="12.00">D</text>
<polygon fill="white" stroke="transparent" points="813.96,-293.39 813.96,-310.39 826.96,-310.39 826.96,-293.39 813.96,-293.39"/>
<text text-anchor="start" x="815.96" y="-298.79" font-family="sans-serif" font-size="12.00">U</text>
</g>
<!-- ProductCatalogueContext -->
<g id="node6" class="node">
<title>ProductCatalogueContext</title>
<polygon fill="none" stroke="black" stroke-width="2" points="1032.81,-156.11 1041.59,-154.61 1050.55,-153.24 1059.63,-151.98 1068.81,-150.85 1078.04,-149.84 1087.3,-148.98 1096.55,-148.25 1105.76,-147.67 1114.89,-147.23 1123.92,-146.95 1132.81,-146.81 1141.53,-146.82 1150.07,-146.99 1158.4,-147.31 1166.48,-147.78 1174.31,-148.4 1181.87,-149.16 1189.12,-150.07 1196.07,-151.12 1202.7,-152.31 1208.99,-153.63 1214.94,-155.08 1220.54,-156.65 1225.78,-158.33 1230.66,-160.12 1235.17,-162.02 1239.32,-164 1243.11,-166.08 1246.53,-168.23 1249.59,-170.45 1252.29,-172.73 1254.63,-175.07 1256.62,-177.45 1258.27,-179.87 1259.58,-182.31 1260.55,-184.77 1261.2,-187.24 1261.52,-189.71 1261.53,-192.18 1261.23,-194.63 1260.62,-197.06 1259.71,-199.46 1258.51,-201.82 1257.02,-204.14 1255.24,-206.4 1253.18,-208.62 1250.84,-210.77 1248.22,-212.85 1245.33,-214.87 1242.17,-216.8 1238.73,-218.66 1235.03,-220.44 1231.06,-222.12 1226.83,-223.72 1222.33,-225.23 1217.57,-226.65 1212.56,-227.97 1207.28,-229.19 1201.75,-230.32 1195.97,-231.35 1189.94,-232.28 1183.67,-233.11 1177.16,-233.84 1170.43,-234.48 1163.48,-235.01 1156.31,-235.45 1148.95,-235.79 1141.4,-236.04 1133.68,-236.19 1125.8,-236.24 1117.78,-236.2 1109.64,-236.07 1101.4,-235.84 1093.07,-235.52 1084.69,-235.11 1076.28,-234.61 1067.85,-234.03 1059.45,-233.35 1051.09,-232.59 1042.8,-231.73 1034.62,-230.8 1026.58,-229.78 1018.7,-228.68 1011.01,-227.49 1003.56,-226.22 996.36,-224.88 989.45,-223.45 982.86,-221.95 976.62,-220.37 970.75,-218.72 965.3,-217 960.27,-215.21 955.7,-213.36 951.61,-211.44 948.02,-209.46 944.95,-207.43 942.42,-205.34 940.43,-203.21 939.02,-201.03 938.17,-198.81 937.91,-196.56 938.23,-194.28 939.14,-191.98 940.63,-189.66 942.7,-187.33 945.35,-185 948.56,-182.67 952.33,-180.35 956.63,-178.05 961.45,-175.78 966.77,-173.53 972.57,-171.33 978.82,-169.18 985.49,-167.08 992.57,-165.05 1000.01,-163.09 1007.79,-161.2 1015.87,-159.41 1024.22,-157.71 1032.81,-156.11"/>
<text text-anchor="middle" x="1112.28" y="-190.36" font-family="sans-serif" font-size="16.00">ProductCatalogueContext</text>
</g>
<!-- InventoryContext&#45;&gt;ProductCatalogueContext -->
<g id="edge4" class="edge">
<title>InventoryContext&#45;&gt;ProductCatalogueContext</title>
<path fill="none" stroke="black" stroke-width="2" d="M930.33,-300.7C966.92,-279.48 1011.99,-253.33 1048.11,-232.38"/>
<text text-anchor="middle" x="1069.78" y="-264.16" font-family="sans-serif" font-size="12.00"> &#160;&#160;&#160;&#160;&#160;&#160;&#160;&#160;&#160;&#160;&#160;&#160;&#160;&#160;&#160;&#160;&#160;&#160;&#160;&#160;&#160;&#160;&#160;&#160;&#160;&#160;&#160;&#160;&#160;&#160;&#160;&#160;&#160;&#160;&#160;&#160;&#160;&#160;&#160;</text>
<polygon fill="white" stroke="transparent" points="1042.11,-223.38 1042.11,-240.38 1055.11,-240.38 1055.11,-223.38 1042.11,-223.38"/>
<text text-anchor="start" x="1044.11" y="-228.78" font-family="sans-serif" font-size="12.00">D</text>
<polygon fill="white" stroke="transparent" points="924.33,-291.7 924.33,-308.7 937.33,-308.7 937.33,-291.7 924.33,-291.7"/>
<text text-anchor="start" x="926.33" y="-297.1" font-family="sans-serif" font-size="12.00">U</text>
</g>
<!-- ProductCatalogueContext&#45;&gt;CartContext -->
<g id="edge5" class="edge">
<title>ProductCatalogueContext&#45;&gt;CartContext</title>
<path fill="none" stroke="black" stroke-width="2" d="M1026.61,-157.22C967.78,-132.54 890.79,-100.25 836.4,-77.43"/>
<text text-anchor="middle" x="1025.78" y="-117.95" font-family="sans-serif" font-size="12.00"> &#160;&#160;&#160;&#160;&#160;&#160;&#160;&#160;&#160;&#160;&#160;&#160;&#160;&#160;&#160;&#160;&#160;&#160;&#160;&#160;&#160;&#160;&#160;&#160;&#160;&#160;&#160;&#160;&#160;&#160;&#160;&#160;&#160;&#160;&#160;&#160;&#160;&#160;&#160;</text>
<polygon fill="white" stroke="transparent" points="830.4,-68.43 830.4,-85.43 843.4,-85.43 843.4,-68.43 830.4,-68.43"/>
<text text-anchor="start" x="832.4" y="-73.83" font-family="sans-serif" font-size="12.00">D</text>
<polygon fill="white" stroke="transparent" points="1020.61,-148.22 1020.61,-165.22 1033.61,-165.22 1033.61,-148.22 1020.61,-148.22"/>
<text text-anchor="start" x="1022.61" y="-153.62" font-family="sans-serif" font-size="12.00">U</text>
</g>
<!-- LoyaltyContext -->
<g id="node7" class="node">
<title>LoyaltyContext</title>
<polygon fill="none" stroke="black" stroke-width="2" points="422.26,-362.25 419,-364.76 415.51,-367.19 411.81,-369.54 407.91,-371.79 403.82,-373.94 399.56,-375.97 395.13,-377.88 390.57,-379.66 385.87,-381.31 381.06,-382.81 376.16,-384.17 371.16,-385.37 366.1,-386.42 360.98,-387.3 355.82,-388.03 350.63,-388.58 345.42,-388.98 340.22,-389.2 335.02,-389.27 329.85,-389.17 324.71,-388.91 319.62,-388.49 314.59,-387.92 309.62,-387.21 304.74,-386.34 299.94,-385.34 295.24,-384.21 290.65,-382.96 286.17,-381.58 281.82,-380.1 277.6,-378.51 273.52,-376.83 269.59,-375.06 265.82,-373.21 262.2,-371.29 258.76,-369.31 255.49,-367.28 252.4,-365.2 249.51,-363.08 246.8,-360.93 244.3,-358.75 242,-356.57 239.91,-354.37 238.04,-352.17 236.39,-349.97 234.97,-347.78 233.78,-345.6 232.82,-343.44 232.11,-341.31 231.64,-339.2 231.41,-337.13 231.44,-335.09 231.72,-333.08 232.26,-331.12 233.05,-329.19 234.1,-327.31 235.41,-325.48 236.99,-323.69 238.82,-321.95 240.91,-320.26 243.25,-318.62 245.85,-317.04 248.7,-315.5 251.79,-314.02 255.13,-312.59 258.7,-311.21 262.49,-309.89 266.51,-308.63 270.74,-307.43 275.17,-306.29 279.79,-305.21 284.58,-304.19 289.55,-303.23 294.67,-302.35 299.93,-301.53 305.31,-300.79 310.81,-300.13 316.39,-299.54 322.06,-299.03 327.78,-298.61 333.54,-298.27 339.33,-298.03 345.11,-297.88 350.89,-297.83 356.63,-297.88 362.31,-298.04 367.92,-298.3 373.44,-298.68 378.85,-299.17 384.13,-299.77 389.27,-300.49 394.23,-301.33 399.02,-302.29 403.6,-303.37 407.97,-304.57 412.11,-305.89 416,-307.33 419.63,-308.89 423,-310.56 426.08,-312.35 428.88,-314.25 431.37,-316.26 433.55,-318.36 435.42,-320.56 436.98,-322.86 438.2,-325.23 439.11,-327.68 439.68,-330.2 439.93,-332.77 439.85,-335.4 439.45,-338.07 438.73,-340.77 437.69,-343.49 436.35,-346.23 434.7,-348.96 432.76,-351.68 430.54,-354.39 428.04,-357.05 425.27,-359.68 422.26,-362.25"/>
<text text-anchor="middle" x="332.28" y="-336.8" font-family="sans-serif" font-size="16.00">LoyaltyContext</text>
</g>
<!-- LoyaltyContext&#45;&gt;CustomerContext -->
<g id="edge6" class="edge">
<title>LoyaltyContext&#45;&gt;CustomerContext</title>
<path fill="none" stroke="black" stroke-width="2" d="M332.28,-298.21C332.28,-279.2 332.28,-256.68 332.28,-237.56"/>
<text text-anchor="middle" x="407.78" y="-264.16" font-family="sans-serif" font-size="12.00"> &#160;&#160;&#160;&#160;&#160;&#160;&#160;&#160;&#160;&#160;&#160;&#160;&#160;&#160;&#160;&#160;&#160;&#160;&#160;&#160;&#160;&#160;&#160;&#160;&#160;&#160;&#160;&#160;&#160;&#160;&#160;&#160;&#160;&#160;&#160;&#160;&#160;&#160;&#160;</text>
<polygon fill="white" stroke="transparent" points="326.28,-228.56 326.28,-245.56 339.28,-245.56 339.28,-228.56 326.28,-228.56"/>
<text text-anchor="start" x="328.28" y="-233.96" font-family="sans-serif" font-size="12.00">D</text>
<polygon fill="white" stroke="transparent" points="326.28,-289.21 326.28,-306.21 339.28,-306.21 339.28,-289.21 326.28,-289.21"/>
<text text-anchor="start" x="328.28" y="-294.61" font-family="sans-serif" font-size="12.00">U</text>
</g>
<!-- PaymentContext -->
<g id="node8" class="node">
<title>PaymentContext</title>
<polygon fill="none" stroke="black" stroke-width="2" points="1507.88,-224.54 1502.87,-226.65 1497.67,-228.67 1492.3,-230.58 1486.77,-232.37 1481.11,-234.04 1475.34,-235.59 1469.47,-237 1463.54,-238.27 1457.55,-239.39 1451.53,-240.37 1445.5,-241.18 1439.48,-241.84 1433.47,-242.34 1427.51,-242.68 1421.61,-242.85 1415.77,-242.86 1410.03,-242.71 1404.38,-242.4 1398.85,-241.92 1393.45,-241.3 1388.18,-240.51 1383.06,-239.58 1378.1,-238.51 1373.3,-237.3 1368.67,-235.96 1364.22,-234.49 1359.96,-232.9 1355.89,-231.2 1352.02,-229.4 1348.34,-227.5 1344.87,-225.52 1341.61,-223.46 1338.56,-221.33 1335.72,-219.14 1333.1,-216.9 1330.69,-214.61 1328.51,-212.29 1326.54,-209.94 1324.8,-207.57 1323.28,-205.2 1321.99,-202.82 1320.92,-200.45 1320.09,-198.09 1319.48,-195.75 1319.11,-193.43 1318.97,-191.15 1319.07,-188.91 1319.4,-186.7 1319.97,-184.55 1320.79,-182.45 1321.85,-180.4 1323.15,-178.41 1324.69,-176.48 1326.48,-174.62 1328.52,-172.82 1330.8,-171.1 1333.33,-169.44 1336.1,-167.86 1339.12,-166.35 1342.38,-164.92 1345.88,-163.56 1349.62,-162.28 1353.58,-161.07 1357.78,-159.95 1362.19,-158.89 1366.82,-157.92 1371.65,-157.02 1376.69,-156.21 1381.9,-155.47 1387.3,-154.81 1392.85,-154.23 1398.56,-153.73 1404.4,-153.31 1410.36,-152.97 1416.43,-152.72 1422.58,-152.55 1428.8,-152.46 1435.07,-152.46 1441.37,-152.55 1447.68,-152.73 1453.98,-153 1460.24,-153.35 1466.45,-153.81 1472.59,-154.35 1478.62,-154.99 1484.53,-155.73 1490.3,-156.56 1495.9,-157.5 1501.31,-158.53 1506.51,-159.66 1511.49,-160.89 1516.22,-162.22 1520.67,-163.65 1524.85,-165.17 1528.71,-166.79 1532.26,-168.51 1535.48,-170.31 1538.35,-172.21 1540.86,-174.19 1543.01,-176.25 1544.78,-178.39 1546.16,-180.61 1547.16,-182.89 1547.76,-185.23 1547.97,-187.62 1547.79,-190.06 1547.22,-192.55 1546.26,-195.06 1544.92,-197.6 1543.2,-200.16 1541.11,-202.72 1538.67,-205.28 1535.88,-207.83 1532.75,-210.36 1529.31,-212.86 1525.56,-215.31 1521.53,-217.72 1517.23,-220.07 1512.67,-222.34 1507.88,-224.54"/>
<text text-anchor="middle" x="1426.28" y="-190.36" font-family="sans-serif" font-size="16.00">PaymentContext</text>
</g>
<!-- PaymentContext&#45;&gt;CartContext -->
<g id="edge7" class="edge">
<title>PaymentContext&#45;&gt;CartContext</title>
<path fill="none" stroke="black" stroke-width="2" d="M1348.69,-162.54C1331.29,-156.36 1312.79,-150.3 1295.28,-145.55 1141.61,-103.89 957.77,-74.84 853.15,-60.2"/>
<text text-anchor="middle" x="1285.78" y="-117.95" font-family="sans-serif" font-size="12.00"> &#160;&#160;&#160;&#160;&#160;&#160;&#160;&#160;&#160;&#160;&#160;&#160;&#160;&#160;&#160;&#160;&#160;&#160;&#160;&#160;&#160;&#160;&#160;&#160;&#160;&#160;&#160;&#160;&#160;&#160;&#160;&#160;&#160;&#160;&#160;&#160;&#160;&#160;&#160;</text>
<polygon fill="white" stroke="transparent" points="847.15,-51.2 847.15,-68.2 860.15,-68.2 860.15,-51.2 847.15,-51.2"/>
<text text-anchor="start" x="849.15" y="-56.6" font-family="sans-serif" font-size="12.00">D</text>
<polygon fill="white" stroke="transparent" points="1342.69,-153.54 1342.69,-170.54 1355.69,-170.54 1355.69,-153.54 1342.69,-153.54"/>
<text text-anchor="start" x="1344.69" y="-158.94" font-family="sans-serif" font-size="12.00">U</text>
</g>
</g>
</svg>
